<?xml version="1.0" encoding="utf-8"?>
<svg version="1.1" id="Countryflags.com" width = "100%" height = "100%"
	 xmlns="http://www.w3.org/2000/svg" xmlns:xlink="http://www.w3.org/1999/xlink" x="0px" y="0px" viewBox="-55.5 546.5 300 180"
	 enable-background="new -55.5 546.5 300 180" xml:space="preserve">
<switch>
	<g>
		<g>
			<rect id="_x32_26" x="-55.5" y="546.5" fill="#00209F" width="300" height="180"/>
			<rect id="_x32_25" x="-55.5" y="636.5" fill="#D21034" width="300" height="90"/>
			<rect id="_x32_24" x="66.107" y="613.87" fill="#FFFFFF" width="56.785" height="45.205"/>
			<path id="_x32_23" fill="#016A16" stroke="#016A16" stroke-width="0.15" d="M105.928,646.559l-11.589,0.336l-11.536,0.131
				c0,0-5.927,2.193-8.35,2.684c-2.415,0.49-2.101,1.284-3.971,1.702c-1.497,0.334-1.67,0.439-2.548,0.497
				c-0.531,0.035-1.187,0.444-1.827,0.895v6.27h56.785v-5.964c-0.615-0.335-1.202-0.566-1.802-0.77
				c-0.834-0.284-1.396-0.594-2.893-0.928c-1.87-0.418-1.556-1.212-3.971-1.702C111.803,649.22,105.928,646.559,105.928,646.559z"/>
			<path id="_x32_22" fill="#016A16" stroke="#016A16" stroke-width="0.15" d="M93.754,621.862l-0.279,5.442h1.74l-0.254-5.395
				l1.813-0.255l-0.201-2.149l-4.506,0.174l0.025,1.952L93.754,621.862z"/>
			<path id="_x32_21" fill="#F1B517" stroke="#000000" stroke-width="0.15" d="M89.643,636.828l-1.512-3.254l0.654-0.138l2.76,5.404
				L89.643,636.828z"/>
			<path id="_x32_20" fill="#FFFFFF" stroke="#000000" stroke-width="0.15" d="M86.148,629.767l1.676,4.576h0.859L86.148,629.767z"
				/>
			<path id="_x32_19" fill="#F1B517" stroke="#000000" stroke-width="0.15" d="M91.218,632.607l0.838-0.02l1.533,6.449l-0.327,2.031
				L91.218,632.607z"/>
			<path id="_x32_18" fill="#F1B517" stroke="#000000" stroke-width="0.15" d="M91.933,639.254l-2.576-6.923l0.961-0.059
				l3.005,8.461L91.933,639.254z"/>
			<path id="_x32_17" fill="#FFFFFF" stroke="#000000" stroke-width="0.15" d="M88.151,628.386l1.063,4.812h0.858L88.151,628.386z"
				/>
			<path id="_x32_16" fill="#FFFFFF" stroke="#000000" stroke-width="0.15" d="M90.339,628.307l0.572,4.97l0.613-0.04
				L90.339,628.307z"/>
			<path id="_x32_15" fill="#0A328C" stroke="#000000" stroke-width="0.15" d="M89.849,637.319l-6.861-7.491
				c-2.143,1.697-1.745,4.813-1.745,4.813l7.774,6.1L89.849,637.319z"/>
			<path id="_x32_14" fill="#D20014" stroke="#000000" stroke-width="0.15" d="M93.816,641.441l-5.09-5.156
				c-2.152,0.075-0.444,3.287-0.336,3.691l5.426,4.641V641.441z"/>
			<path id="_x32_13" fill="#F1B517" stroke="#000000" stroke-width="0.15" d="M93.383,640.555l-10.524-11.269l-0.41,0.29
				l11.136,12.373L93.383,640.555z"/>
			<path id="_x32_12" fill="#F1B517" stroke="#000000" stroke-width="0.15" d="M82.252,628.563l-0.231-0.267l0.023-0.535
				l-2.172-1.382l0.97,2.184l0.739,0.134l0.231,0.267L82.252,628.563z"/>
			<path id="_x32_11" fill="#F1B517" stroke="#000000" stroke-width="0.15" d="M81.143,629.366c0.37-0.446,0.809-0.892,1.594-1.315
				l0.601,0.869l-1.294,1.092L81.143,629.366z"/>
			<path id="_x32_10" fill="#0A328C" stroke="#000000" stroke-width="0.15" d="M86.851,639.303l-8.62-6.847
				c-1.475,1.502-0.248,6.139-0.248,6.139l8.425,4.564L86.851,639.303z"/>
			<path id="_x32_09" fill="#D20014" stroke="#000000" stroke-width="0.15" d="M94,644.851l-7.091-5.681
				c-2.422,0.34-0.518,3.904-0.374,4.297l7.489,4.061L94,644.851z"/>
			<path id="_x32_08" fill="#F1B517" stroke="#000000" stroke-width="0.15" d="M93.719,643.702l-15.333-11.509l-0.352,0.354
				l16.102,12.573L93.719,643.702z"/>
			<path id="_x32_07" fill="#F1B517" stroke="#000000" stroke-width="0.15" d="M77.657,631.584l-0.275-0.225l-0.074-0.531
				l-2.387-0.997l1.349,1.988l0.752,0.008l0.276,0.224L77.657,631.584z"/>
			<path id="_x32_06" fill="#F1B517" stroke="#000000" stroke-width="0.15" d="M76.709,632.56c0.284-0.501,0.636-1.013,1.333-1.562
				l0.748,0.756l-1.078,1.292L76.709,632.56z"/>
			<path id="_x32_05" fill="#0A328C" stroke="#000000" stroke-width="0.15" d="M86.234,643.49c-0.114-0.028-11.11-6.265-11.11-6.265
				c-0.8,1.351-0.076,3.312,0.275,3.617c0.02,0.9-0.362,1.384,0.424,3.263c0.232,1.222,0.797,2.348,1.62,3.017
				c1.003,3.85,4.934,4.109,6.448,0.974L86.234,643.49z"/>
			<path id="_x32_04" fill="#D20014" stroke="#000000" stroke-width="0.15" d="M93.511,647.607l-7.529-4.413
				c-2.422,0.34,0.052,4.833,0.196,5.226l7.27,2.582L93.511,647.607z"/>
			<path id="_x32_03" fill="#F1B517" stroke="#000000" stroke-width="0.15" d="M92.246,646.007l-17.01-9.053l-0.29,0.403
				l17.943,9.988L92.246,646.007z"/>
			<path id="_x32_02" fill="#F1B517" stroke="#000000" stroke-width="0.15" d="M74.417,636.462l-0.309-0.18l-0.159-0.513
				l-2.52-0.624l1.655,1.76l0.744-0.106l0.309,0.18L74.417,636.462z"/>
			<path id="_x32_01" fill="#F1B517" stroke="#000000" stroke-width="0.15" d="M73.64,637.569c0.199-0.537,0.464-1.097,1.063-1.744
				l0.861,0.633l-0.854,1.438L73.64,637.569z"/>
			<path id="_x32_00" fill="#0A328C" stroke="#0A328C" stroke-width="0.15" d="M79.987,631.267l0.353,0.616
				c0.219-0.081,2.419-2.074,2.419-2.074l1.579-0.049l0.454-0.502c-1.159-1.248-2.251,0.178-2.251,0.178L79.987,631.267z"/>
			<path id="_x31_99" fill="#D20014" stroke="#D20014" stroke-width="0.15" d="M81.246,632.304c0.084-0.551,1.126-1.928,1.277-1.977
				c0.782,0.235,1.509,0.685,2.301-1.102c-0.688,0.875-2.082-0.016-2.082-0.016l-0.605,0.502l0.016,0.243l-1.83,1.702
				L81.246,632.304z"/>
			<path id="_x31_98" fill="#0A328C" stroke="#0A328C" stroke-width="0.15" d="M75.855,634.485l0.096,0.636
				c0.202-0.113,2.136-2.235,2.136-2.235l1.552-0.286l0.316-0.5c-1.078-1.268-2.228,0.418-2.228,0.418L75.855,634.485z"/>
			<path id="_x31_97" fill="#D20014" stroke="#D20014" stroke-width="0.15" d="M77.083,635.627
				c-0.074-0.589,0.732-2.318,0.873-2.389c0.928,0.276,1.736,0.692,2.078-1.241c-0.539,0.968-2.077,0.217-2.077,0.217l-0.516,0.587
				l0.073,0.318l-1.566,2.022L77.083,635.627z"/>
			<path id="_x31_96" fill="#0A328C" stroke="#0A328C" stroke-width="0.15" d="M72.96,639.609l0.356,0.7
				c0.184-0.139,1.802-2.747,1.802-2.747l1.495-0.492l0.281-0.608c-1.201-1.109-2.098,0.806-2.098,0.806L72.96,639.609z"/>
			<path id="_x31_95" fill="#D20014" stroke="#D20014" stroke-width="0.15" d="M74.563,640.602c-0.12-0.599,0.29-2.518,0.42-2.607
				c0.936,0.28,1.718,0.359,1.934-1.573c-0.544,0.918-1.996,0.572-1.996,0.572l-0.427,0.651l0.09,0.228l-1.236,2.371L74.563,640.602
				z"/>
			<path id="_x31_94" fill="#F1B517" stroke="#000000" stroke-width="0.15" d="M92.121,650.172l-4.236-1.314l-1.846-3.153
				l-6.535-0.321l0.227,2.365l5.568,1.065l0.529,0.949l6.4,1.781L92.121,650.172z"/>
			<path id="_x31_93" fill="#503200" stroke="#000000" stroke-width="0.15" d="M87.697,651.052l-6.689-9.839l-0.328,0.247
				l6.636,9.88L87.697,651.052z"/>
			<path id="_x31_92" fill="#FFFFFF" stroke="#000000" stroke-width="0.15" d="M81.63,641.6l-0.714-1.195
				c-0.134-0.22-0.337-0.294-0.635-0.137c-0.291,0.154-0.262,0.456-0.144,0.674l0.66,1.112L81.63,641.6z"/>
			<path id="_x31_91" fill="#F1B517" stroke="#000000" stroke-width="0.15" d="M88.491,644.976l-13.498-1.372l-0.328,1.963
				l13.432,1.351L88.491,644.976z"/>
			<path id="_x31_90" fill="#F1B517" stroke="#000000" stroke-width="0.15" d="M74.753,643.098l-0.35,2.723h0.569l0.394-2.491
				L74.753,643.098z"/>
			<path id="_x31_89" fill="#F1B517" stroke="#000000" stroke-width="0.15" d="M77.007,643.541l-0.153,2.449l0.35,0.042l0.284-2.174
				L77.007,643.541z"/>
			<path id="_x31_88" fill="#F1B517" stroke="#000000" stroke-width="0.15" d="M86.151,644.596l-0.328,2.3l0.656-0.021l0.263-2.279
				H86.151z"/>
			<path id="_x31_87" fill="#F1B517" stroke="#000000" stroke-width="0.15" d="M88.162,644.659l-0.468,2.661l0.743,0.108
				l0.213-1.399c0.06,0.281,0.318,0.495,0.628,0.495c0.353,0,0.641-0.279,0.641-0.619c0-0.34-0.288-0.616-0.641-0.616
				c-0.246,0-0.468,0.144-0.565,0.412l0.139-0.997L88.162,644.659z"/>
			<path id="_x31_86" fill="#F1B517" stroke="#000000" stroke-width="0.15" d="M83.291,645.091l-1.856,2.089l0.216,0.254
				l2.382-1.627L83.291,645.091z"/>
			<path id="_x31_85" fill="#F1B517" stroke="#000000" stroke-width="0.15" d="M78.975,650.3l1.856-2.089l-0.217-0.254l-2.382,1.627
				L78.975,650.3z"/>
			<path id="_x31_84" fill="#F1B517" stroke="#000000" stroke-width="0.15" d="M83.832,649.777l-2.259-1.746l-0.232,0.164
				l1.779,2.253L83.832,649.777z"/>
			<path id="_x31_83" fill="#F1B517" stroke="#000000" stroke-width="0.15" d="M78.263,645.748l2.29,1.687l0.278-0.21l-1.795-2.254
				L78.263,645.748z"/>
			<path id="_x31_82" fill="#F1B517" stroke="#000000" stroke-width="0.15" d="M80.754,644.356l0.219,2.744l0.308-0.013l0.724-2.671
				L80.754,644.356z"/>
			<path id="_x31_81" fill="#F1B517" stroke="#000000" stroke-width="0.15" d="M81.504,651.014l-0.219-2.744l-0.339-0.032
				l-0.415,2.776H81.504z"/>
			<path id="_x31_80" fill="#F1B517" stroke="#000000" stroke-width="0.15" d="M84.54,647.315l-2.876,0.306l-0.044,0.274l2.91,0.38
				L84.54,647.315z"/>
			<path id="_x31_79" fill="#F1B517" stroke="#000000" stroke-width="0.15" d="M77.696,648.266l2.808-0.444l0.059-0.218
				l-2.905-0.325L77.696,648.266z"/>
			<path id="_x31_78" fill="#F1B517" stroke="#000000" stroke-width="0.15" stroke-linecap="round" d="M81.878,647.629
				c0,0.406-0.341,0.735-0.762,0.735c-0.421,0-0.762-0.329-0.762-0.735c0-0.407,0.342-0.735,0.762-0.735
				C81.537,646.894,81.878,647.223,81.878,647.629z"/>
			<path id="_x31_77" fill="#F1B517" stroke="#000000" stroke-width="0.15" stroke-linecap="round" d="M85.163,647.629
				c0,2.155-1.813,3.904-4.047,3.904c-2.234,0-4.047-1.749-4.047-3.904s1.813-3.905,4.047-3.905
				C83.35,643.725,85.163,645.474,85.163,647.629z M84.355,647.629c0,1.724-1.451,3.124-3.238,3.124s-3.239-1.4-3.239-3.124
				c0-1.725,1.451-3.124,3.239-3.124S84.355,645.904,84.355,647.629z"/>
			<path id="_x31_76" fill="none" stroke="#000000" stroke-width="0.15" d="M78.588,645.658l-0.635-0.477"/>
			<path id="_x31_75" fill="none" stroke="#000000" stroke-width="0.15" d="M83.12,645.195l0.541-0.552"/>
			<path id="_x31_74" fill="none" stroke="#000000" stroke-width="0.15" d="M84.28,650.121l-0.665-0.523"/>
			<path id="_x31_73" fill="none" stroke="#000000" stroke-width="0.15" d="M78.588,650.717l0.572-0.612"/>
			<path id="_x31_72" fill="#F1B517" stroke="#000000" stroke-width="0.15" d="M92.217,643.773l0.693,3.531l-0.565,0.298
				l-0.608-3.779L92.217,643.773z"/>
			<path id="_x31_71" fill="#FFFFFF" stroke="#000000" stroke-width="0.15" d="M91.855,643.319
				c-0.322-0.134-0.739,0.093-1.424-0.775c-1.127,1.034-0.064,1.188,0.107,2.211c0.319,0.131,0.515-0.793,1.382-0.888
				c0.107-0.01,1.379-0.122,1.379-0.122l-0.319-0.435C92.979,643.309,92.094,643.332,91.855,643.319z"/>
			<path id="_x31_70" fill="#FFFFFF" stroke="#000000" stroke-width="0.15" d="M92.315,644.011l-0.128-1.054
				c-0.139-0.372-0.599-0.052-0.599,0.165l0.118,0.971L92.315,644.011z"/>
			<path id="_x31_69" fill="#F1B517" stroke="#000000" stroke-width="0.15" stroke-linecap="round" d="M84.464,652.733
				c0.001,0.153-0.084,0.295-0.221,0.371c-0.138,0.077-0.307,0.077-0.445,0c-0.137-0.077-0.222-0.219-0.222-0.371
				s0.084-0.295,0.222-0.371c0.138-0.077,0.307-0.077,0.445,0C84.38,652.439,84.465,652.581,84.464,652.733z"/>
			<path id="_x31_68" fill="#F1B517" stroke="#000000" stroke-width="0.15" stroke-linecap="round" d="M83.329,651.93
				c0,0.153-0.084,0.294-0.222,0.371c-0.138,0.076-0.307,0.076-0.444,0c-0.138-0.077-0.222-0.219-0.222-0.371
				c0-0.154,0.084-0.295,0.222-0.371c0.137-0.077,0.306-0.077,0.444,0C83.244,651.635,83.329,651.777,83.329,651.93z"/>
			<path id="_x31_67" fill="#F1B517" stroke="#000000" stroke-width="0.15" stroke-linecap="round" d="M81.799,652.456
				c0,0.152-0.084,0.294-0.222,0.371c-0.137,0.077-0.306,0.077-0.444,0c-0.137-0.077-0.222-0.219-0.221-0.371
				c-0.001-0.154,0.084-0.295,0.221-0.371c0.138-0.077,0.307-0.077,0.444,0C81.714,652.161,81.799,652.303,81.799,652.456z"/>
			<path id="_x31_66" fill="#F1B517" stroke="#000000" stroke-width="0.15" stroke-linecap="round" d="M79.436,652.967
				c0.001,0.154-0.084,0.295-0.222,0.372c-0.138,0.076-0.307,0.076-0.444,0c-0.138-0.077-0.222-0.218-0.222-0.372
				c0-0.153,0.084-0.295,0.222-0.371c0.137-0.076,0.306-0.076,0.444,0C79.352,652.672,79.436,652.814,79.436,652.967z"/>
			<path id="_x31_65" fill="#F1B517" stroke="#000000" stroke-width="0.15" stroke-linecap="round" d="M78.436,653.084
				c0.001,0.153-0.084,0.294-0.222,0.372c-0.138,0.076-0.307,0.076-0.444,0c-0.138-0.077-0.222-0.219-0.222-0.372
				c0-0.153,0.084-0.295,0.222-0.371c0.137-0.077,0.306-0.077,0.444,0C78.352,652.789,78.437,652.931,78.436,653.084z"/>
			<path id="_x31_64" fill="#F1B517" stroke="#000000" stroke-width="0.15" stroke-linecap="round" d="M77.452,653.084
				c0.001,0.153-0.084,0.294-0.221,0.372c-0.138,0.076-0.307,0.076-0.444,0c-0.138-0.077-0.222-0.219-0.222-0.372
				c0-0.153,0.084-0.295,0.222-0.371c0.137-0.077,0.306-0.077,0.444,0C77.367,652.789,77.452,652.931,77.452,653.084z"/>
			<path id="_x31_63" fill="#F1B517" stroke="#000000" stroke-width="0.15" stroke-linecap="round" d="M76.452,653.055
				c0.001,0.153-0.084,0.294-0.221,0.371c-0.138,0.076-0.307,0.076-0.444,0c-0.138-0.077-0.222-0.219-0.222-0.371
				c0-0.154,0.084-0.295,0.222-0.371c0.137-0.077,0.306-0.077,0.444,0C76.368,652.76,76.453,652.902,76.452,653.055z"/>
			<path id="_x31_62" fill="#F1B517" stroke="#000000" stroke-width="0.15" stroke-linecap="round" d="M76.937,652.295
				c0.001,0.153-0.084,0.295-0.221,0.371c-0.138,0.077-0.307,0.077-0.444,0c-0.138-0.076-0.222-0.218-0.222-0.371
				c0-0.153,0.084-0.295,0.222-0.371c0.137-0.077,0.306-0.077,0.444,0C76.852,652,76.937,652.142,76.937,652.295z"/>
			<path id="_x31_61" fill="#F1B517" stroke="#000000" stroke-width="0.15" stroke-linecap="round" d="M77.907,652.339
				c0,0.153-0.084,0.295-0.222,0.372c-0.137,0.076-0.306,0.076-0.444,0c-0.138-0.077-0.222-0.219-0.221-0.372
				c-0.001-0.154,0.084-0.295,0.221-0.371c0.138-0.077,0.307-0.077,0.444,0C77.822,652.044,77.907,652.186,77.907,652.339z"/>
			<path id="_x31_60" fill="#F1B517" stroke="#000000" stroke-width="0.15" stroke-linecap="round" d="M78.831,652.222
				c0,0.154-0.084,0.295-0.222,0.372c-0.138,0.077-0.307,0.077-0.444,0c-0.138-0.076-0.222-0.218-0.222-0.372
				c0-0.153,0.084-0.294,0.222-0.371c0.137-0.076,0.306-0.076,0.444,0C78.746,651.928,78.831,652.069,78.831,652.222z"/>
			<path id="_x31_59" fill="#F1B517" stroke="#000000" stroke-width="0.15" stroke-linecap="round" d="M78.361,651.477
				c0.001,0.154-0.084,0.295-0.222,0.372c-0.138,0.077-0.307,0.077-0.444,0c-0.138-0.076-0.222-0.218-0.222-0.372
				c0-0.153,0.084-0.294,0.222-0.371c0.137-0.076,0.306-0.076,0.444,0C78.276,651.182,78.361,651.324,78.361,651.477z"/>
			<path id="_x31_58" fill="#F1B517" stroke="#000000" stroke-width="0.15" stroke-linecap="round" d="M77.452,651.463
				c0.001,0.153-0.084,0.294-0.221,0.371c-0.138,0.076-0.307,0.076-0.444,0c-0.138-0.077-0.222-0.219-0.222-0.371
				c0-0.154,0.084-0.295,0.222-0.371c0.137-0.077,0.306-0.077,0.444,0C77.367,651.167,77.452,651.309,77.452,651.463z"/>
			<path id="_x31_57" fill="#FFFFFF" stroke="#000000" stroke-width="0.15" d="M85.065,649.897
				c-0.381-0.154-0.378,0.703-0.378,0.703l0.602,0.006c0.263,0.12,0.475,0.506,0.307,0.695c-0.139,0.156-1.307-0.264-1.385-0.022
				c0.206,1.165,1.75,1.613,2.309,1.103c0.546-0.498,0.684-1.828-1.091-2.177L85.065,649.897z"/>
			<path id="_x31_56" fill="none" stroke="#000000" stroke-width="0.15" d="M85.422,650.213l-0.176,0.383"/>
			<path id="_x31_55" fill="none" stroke="#000000" stroke-width="0.15" d="M73.466,650.333l-0.578-2.429"/>
			<path id="_x31_54" fill="none" stroke="#000000" stroke-width="0.15" d="M74.168,650.193l-0.888-1.891"/>
			<path id="_x31_53" fill="none" stroke="#000000" stroke-width="0.15" d="M75.695,649.695l-2.002-1.075"/>
			<path id="_x31_52" fill="none" stroke="#000000" stroke-width="0.15" d="M76.562,649.476l-3.715-1.612"/>
			<path id="_x31_51" fill="#D20014" stroke="#D20014" stroke-width="0.15" d="M70.629,646.108c0,0-1.352-0.022-1.593,0.073
				c-0.097,0.038,0.34,0.495,0.249,0.669c-0.338,0.649-2.636,0.56-2.818,0.418c-0.311-0.243,2.141-0.452,2.157-0.617
				c0.018-0.19-0.363-0.688-0.303-0.993c0.077-0.397,1.073-0.544,1.073-0.544L70.629,646.108z"/>
			<path id="_x31_50" fill="#503200" stroke="#000000" stroke-width="0.15" d="M72.44,647.331l-3.062-2.534
				c0,0-0.135-0.143-0.248-0.02c-0.11,0.121,0.042,0.259,0.042,0.259l3.158,2.609L72.44,647.331z"/>
			<path id="_x31_49" fill="#F1B517" stroke="#000000" stroke-width="0.15" d="M75.388,649.83c-0.054-0.052-2.493-2.164-2.493-2.164
				l-0.163-0.617c0,0-0.377,0.255-0.514,0.387c-0.138,0.131-0.353,0.491-0.353,0.491l0.683,0.032l2.157,1.976L75.388,649.83z"/>
			<path id="_x31_48" fill="#F1B517" stroke="#000000" stroke-width="0.15" d="M88.959,646.923l0.012,0.982
				c-0.322,0.11-0.272,0.351-0.262,0.701l0.012,2.863c-0.114,0.19-0.467,0.198-0.633,0.347c-0.166,0.149-0.145,0.438,0.612,0.628
				l0.585,0.021c0.892-0.195,1.076-0.49,0.629-0.657c-0.238-0.088-0.551-0.194-0.67-0.335l0.02-0.682l0.579,0.021
				c0.155,0,0.452-0.391,0.462-0.711l0.003-1.482c-0.021-0.84-0.652-0.935-0.827-0.925l0.012-0.773L88.959,646.923z M89.938,648.561
				c0.011-0.24-0.333-0.454-0.472-0.459c-0.138-0.006-0.441,0.28-0.451,0.52v0.601c0.021,0.22,0.196,0.966,0.55,1.02
				c0.167,0.026,0.384-0.24,0.384-0.46L89.938,648.561z"/>
			<path id="_x31_47" fill="#016A16" stroke="#000000" stroke-width="0.15" d="M94.391,619.639c-4.658-4.663-8.327-2.387-9.2-1.741
				c0.577,0.113,1.096-0.247,1.364-0.288c-0.168,0.212-0.52,0.738-0.52,0.738s1.44-0.68,1.601-0.618
				c-0.207,0.166-0.437,0.562-0.437,0.562c0.107,0.042,0.917-0.634,1.077-0.646c-0.247,0.279-0.323,0.917-0.323,0.917l0.702-0.327
				c0.182,0.129-0.05,0.378,0.108,0.365c1.167-0.096,2.807,1.066,3.032,1.424"/>
			<path id="_x31_46" fill="#016A16" stroke="#000000" stroke-width="0.15" d="M93.237,620.492
				c-0.485-1.112-9.353-3.003-11.136,0.146c0.698,0.176,1.366-0.585,1.366-0.585l-0.061,0.703l1.184-0.908l-0.425,0.937l0.94-0.761
				l-0.03,0.761l1.153-1.259l-0.152,0.732l1.032-0.439l-0.121,0.615"/>
			<path id="_x31_45" fill="#016A16" stroke="#000000" stroke-width="0.15" d="M92.843,620.668
				c-2.276-1.522-5.796-0.498-5.796-0.498c-2.245,1.259-3.442,1.032-3.732,3.366c0.212-0.088,0.819-0.82,0.819-0.82l0.455,0.908
				l0.152-1.288l0.364,0.995l0.546-1.639l0.121,1.112l0.85-1.112l0.394,0.322l0.365-0.849l0.333,0.556c0,0,0.577-0.351,0.911-0.146
				l0.637-0.732l0.152,0.527l0.547-0.644l0.212,0.468l0.546-0.497l-0.03,0.351l1.881,0.029"/>
			<path id="_x31_44" fill="#016A16" stroke="#000000" stroke-width="0.15" d="M92.328,620.932c-1.586-0.03-6.136,1.687-7.313,3.484
				c0.469-0.262,0.758-0.381,0.758-0.381l0.232,0.722l0.284-0.722l0.06,0.556c0.174-0.434,0.37-0.483,0.698-0.029l0.121-0.673
				l0.182,0.644l0.303-0.703c0,0,0.191,0.761,0.304,0.732c0,0,0.503-1.317,0.728-1.376l0.06,0.82l0.303-0.82l0.273,0.615
				l0.061-0.878l0.303,0.673c0,0,0.159-0.662,0.395-0.79l0.455,0.41l2.027-1.456"/>
			<path id="_x31_43" fill="#016A16" stroke="#000000" stroke-width="0.15" d="M92.633,621.307c-2.113,0.81-4.003,3.707-3.858,4.936
				c0.939-1.165,0.736-1.005,1.156,0.335c0,0,0.159-1.172,0.318-1.312l0.275,0.868l0.103-1.135l0.282,0.013l-0.073-0.712l0.42,0.321
				c-0.098-0.407-0.203-0.544,0.231-0.893c0,0-0.55,0.07-0.116-0.921l0.405,0.391c0,0-0.073-0.433,0.072-0.6l1.491-0.516"/>
			<path id="_x31_42" fill="#016A16" stroke="#000000" stroke-width="0.15" d="M92.837,621.524l-0.798,1.52l0.409,0.118
				l-0.921,0.691l0.778-0.079c0,0-1.187,0.434-1.33,1.599l1.207-0.533c0,0-1.023,1.046-1.166,1.678l0.695-0.612
				c0,0-0.676,0.73-0.573,1.836l0.512-0.572c-0.122,1.342-0.081,1.461,0.532,2.488c0,0-0.163-1.579,0.021-1.777l1.351,1.402
				l-0.757-1.994c0,0,0.839,1.264,1.351,1.145l-1.064-1.619l1.044,0.849l-1.187-1.777l1.104,0.335c0,0-0.798-1.007-0.736-1.639
				l0.757,0.829c0,0-0.286-0.947-0.204-1.224l0.389,0.079l-0.757-0.869l0.512-0.099l-0.062-0.573l0.369-0.118l-0.021-0.632"/>
			<path id="_x31_41" fill="none" stroke="#000000" stroke-width="0.15" d="M93.635,621.978c-1.31,1.777-0.635,4.521-1.412,5.923"/>
			<path id="_x31_40" fill="#F1B517" stroke="#000000" stroke-width="0.15" d="M86.382,653.294c0-0.19-0.461-0.108-0.461-0.33
				c0-0.247,0.704-0.065,0.8,0.152c0.396-0.357,0.567-0.096,0.809,0.012c0.345-0.513,0.772-0.495,1.189-0.118
				c0.241-0.266,0.846-0.178,1.054,0.118c0.398-0.396,0.753-0.298,1.029-0.012c0.111-0.208,0.274-0.163,0.392-0.012
				c0.213-0.377,0.745-0.264,0.969-0.015c0.2-0.219,0.404-0.048,0.669,0.114c0.179-0.167,0.467-0.136,0.467,0.03
				c0,0.173-0.377,0.112-0.377,0.285c0,0.153,0.275,0.076,0.275,0.269c0,0.154-0.408,0.21-0.471-0.033
				c-0.138,0.264-0.637,0.162-0.686-0.083c-0.166,0.2-0.538,0.261-0.748-0.035c-0.172,0.14-0.377,0.159-0.472,0.019
				c-0.31,0.333-0.833,0.265-1.013-0.103l-0.176,0.008c-0.305,0.414-0.781,0.223-0.912-0.006c-0.511,0.369-0.817,0.253-1.103,0.012
				c-0.328,0.4-0.829,0.373-0.943,0c-0.221,0.162-0.682,0.199-0.682,0.011C85.991,653.395,86.382,653.461,86.382,653.294z
				 M87.375,653.384c0,0.086-0.117,0.156-0.261,0.156c-0.144,0-0.261-0.07-0.261-0.156c0-0.086,0.117-0.156,0.261-0.156
				C87.258,653.229,87.375,653.299,87.375,653.384z M88.467,653.253c0,0.104-0.141,0.188-0.315,0.188s-0.314-0.083-0.314-0.188
				c0-0.103,0.141-0.187,0.314-0.187S88.467,653.15,88.467,653.253z M90.612,653.371c0,0.105-0.127,0.19-0.284,0.19
				s-0.284-0.084-0.284-0.19c0-0.104,0.127-0.189,0.284-0.189S90.612,653.267,90.612,653.371z M89.47,653.322
				c0,0.132-0.124,0.239-0.278,0.239c-0.153,0-0.278-0.107-0.278-0.239s0.125-0.24,0.278-0.24
				C89.346,653.082,89.47,653.19,89.47,653.322z M91.906,653.328c0,0.118-0.111,0.214-0.248,0.214s-0.248-0.096-0.248-0.214
				s0.111-0.214,0.248-0.214S91.906,653.21,91.906,653.328z M91.16,653.379c0,0.076-0.072,0.138-0.161,0.138
				c-0.089,0-0.161-0.062-0.161-0.138c0-0.077,0.072-0.139,0.161-0.139C91.088,653.24,91.16,653.302,91.16,653.379z M92.613,653.434
				c0,0.11-0.081,0.199-0.181,0.199c-0.1,0-0.181-0.089-0.181-0.199s0.081-0.199,0.181-0.199
				C92.532,653.236,92.613,653.325,92.613,653.434z"/>
			<path id="_x31_39" fill="#F1B517" stroke="#000000" stroke-width="0.15" d="M99.271,636.828l1.513-3.254l-0.654-0.138
				l-2.76,5.404L99.271,636.828z"/>
			<path id="_x31_38" fill="#FFFFFF" stroke="#000000" stroke-width="0.15" d="M102.767,629.767l-1.676,4.576h-0.858
				L102.767,629.767z"/>
			<path id="_x31_37" fill="#F1B517" stroke="#000000" stroke-width="0.15" d="M97.697,632.607l-0.838-0.02l-1.533,6.449
				l0.327,2.031L97.697,632.607z"/>
			<path id="_x31_36" fill="#F1B517" stroke="#000000" stroke-width="0.15" d="M96.982,639.254l2.576-6.923l-0.96-0.059
				l-3.005,8.461L96.982,639.254z"/>
			<path id="_x31_35" fill="#FFFFFF" stroke="#000000" stroke-width="0.15" d="M100.764,628.386l-1.063,4.812h-0.859
				L100.764,628.386z"/>
			<path id="_x31_34" fill="#FFFFFF" stroke="#000000" stroke-width="0.15" d="M98.577,628.307l-0.572,4.97l-0.613-0.04
				L98.577,628.307z"/>
			<path id="_x31_33" fill="#0A328C" stroke="#000000" stroke-width="0.15" d="M99.066,637.319l6.861-7.491
				c2.143,1.697,1.745,4.813,1.745,4.813l-7.774,6.1L99.066,637.319z"/>
			<path id="_x31_32" fill="#D20014" stroke="#000000" stroke-width="0.15" d="M95.099,641.441l5.09-5.156
				c2.152,0.075,0.445,3.287,0.336,3.691l-5.426,4.641V641.441z"/>
			<path id="_x31_31" fill="#F1B517" stroke="#000000" stroke-width="0.15" d="M95.532,640.555l10.523-11.269l0.411,0.29
				l-11.137,12.373L95.532,640.555z"/>
			<path id="_x31_30" fill="#F1B517" stroke="#000000" stroke-width="0.15" d="M106.664,628.563l0.231-0.267l-0.023-0.535
				l2.172-1.382l-0.97,2.184l-0.739,0.134l-0.231,0.267L106.664,628.563z"/>
			<path id="_x31_29" fill="#F1B517" stroke="#000000" stroke-width="0.15" d="M107.772,629.366
				c-0.37-0.446-0.809-0.892-1.594-1.315l-0.601,0.869l1.293,1.092L107.772,629.366z"/>
			<path id="_x31_28" fill="#0A328C" stroke="#000000" stroke-width="0.15" d="M102.064,639.303l8.62-6.847
				c1.476,1.502,0.249,6.139,0.249,6.139l-8.426,4.564L102.064,639.303z"/>
			<path id="_x31_27" fill="#D20014" stroke="#000000" stroke-width="0.15" d="M94.916,644.851l7.09-5.681
				c2.422,0.34,0.518,3.904,0.374,4.297l-7.489,4.061L94.916,644.851z"/>
			<path id="_x31_26" fill="#F1B517" stroke="#000000" stroke-width="0.15" d="M95.197,643.702l15.332-11.509l0.352,0.354
				l-16.102,12.573L95.197,643.702z"/>
			<path id="_x31_25" fill="#F1B517" stroke="#000000" stroke-width="0.15" d="M111.258,631.584l0.275-0.225l0.074-0.531
				l2.387-0.997l-1.349,1.988l-0.752,0.008l-0.276,0.224L111.258,631.584z"/>
			<path id="_x31_24" fill="#F1B517" stroke="#000000" stroke-width="0.15" d="M112.206,632.56
				c-0.284-0.501-0.636-1.013-1.333-1.562l-0.748,0.756l1.078,1.292L112.206,632.56z"/>
			<path id="_x31_23" fill="#0A328C" stroke="#000000" stroke-width="0.15" d="M102.681,643.49
				c0.114-0.028,11.111-6.265,11.111-6.265c0.8,1.351,0.077,3.312-0.274,3.617c-0.02,0.9,0.362,1.384-0.424,3.263
				c-0.231,1.222-0.797,2.348-1.62,3.017c-1.003,3.85-4.933,4.109-6.447,0.974L102.681,643.49z"/>
			<path id="_x31_22" fill="#D20014" stroke="#000000" stroke-width="0.15" d="M95.404,647.607l7.529-4.413
				c2.422,0.34-0.051,4.833-0.196,5.226l-7.27,2.582L95.404,647.607z"/>
			<path id="_x31_21" fill="#F1B517" stroke="#000000" stroke-width="0.15" d="M96.669,646.007l17.01-9.053l0.291,0.403
				l-17.943,9.988L96.669,646.007z"/>
			<path id="_x31_20" fill="#F1B517" stroke="#000000" stroke-width="0.15" d="M114.498,636.462l0.309-0.18l0.159-0.513l2.52-0.624
				l-1.655,1.76l-0.744-0.106l-0.309,0.18L114.498,636.462z"/>
			<path id="_x31_19" fill="#F1B517" stroke="#000000" stroke-width="0.15" d="M115.276,637.569
				c-0.199-0.537-0.464-1.097-1.063-1.744l-0.861,0.633l0.855,1.438L115.276,637.569z"/>
			<path id="_x31_18" fill="#0A328C" stroke="#0A328C" stroke-width="0.15" d="M108.928,631.267l-0.353,0.616
				c-0.219-0.081-2.419-2.074-2.419-2.074l-1.579-0.049l-0.454-0.502c1.159-1.248,2.251,0.178,2.251,0.178L108.928,631.267z"/>
			<path id="_x31_17" fill="#D20014" stroke="#D20014" stroke-width="0.15" d="M107.669,632.304
				c-0.084-0.551-1.126-1.928-1.277-1.977c-0.782,0.235-1.509,0.685-2.301-1.102c0.688,0.875,2.083-0.016,2.083-0.016l0.605,0.502
				l-0.017,0.243l1.831,1.702L107.669,632.304z"/>
			<path id="_x31_16" fill="#0A328C" stroke="#0A328C" stroke-width="0.15" d="M113.06,634.485l-0.096,0.636
				c-0.202-0.113-2.136-2.235-2.136-2.235l-1.552-0.286l-0.316-0.5c1.079-1.268,2.228,0.418,2.228,0.418L113.06,634.485z"/>
			<path id="_x31_15" fill="#D20014" stroke="#D20014" stroke-width="0.15" d="M111.832,635.627
				c0.074-0.589-0.731-2.318-0.873-2.389c-0.928,0.276-1.736,0.692-2.077-1.241c0.538,0.968,2.077,0.217,2.077,0.217l0.516,0.587
				l-0.073,0.318l1.566,2.022L111.832,635.627z"/>
			<path id="_x31_14" fill="#0A328C" stroke="#0A328C" stroke-width="0.15" d="M115.955,639.609l-0.356,0.7
				c-0.185-0.139-1.802-2.747-1.802-2.747l-1.495-0.492l-0.281-0.608c1.201-1.109,2.098,0.806,2.098,0.806L115.955,639.609z"/>
			<path id="_x31_13" fill="#D20014" stroke="#D20014" stroke-width="0.15" d="M114.352,640.602c0.121-0.599-0.29-2.518-0.42-2.607
				c-0.937,0.28-1.718,0.359-1.934-1.573c0.544,0.918,1.997,0.572,1.997,0.572l0.426,0.651l-0.09,0.228l1.235,2.371L114.352,640.602
				z"/>
			<path id="_x31_12" fill="#F1B517" stroke="#000000" stroke-width="0.15" d="M96.794,650.172l4.236-1.314l1.846-3.153l6.536-0.321
				l-0.227,2.365l-5.567,1.065l-0.53,0.949l-6.4,1.781L96.794,650.172z"/>
			<path id="_x31_11" fill="#503200" stroke="#000000" stroke-width="0.15" d="M101.218,651.052l6.689-9.839l0.328,0.247
				l-6.636,9.88L101.218,651.052z"/>
			<path id="_x31_10" fill="#FFFFFF" stroke="#000000" stroke-width="0.15" d="M107.285,641.6l0.714-1.195
				c0.134-0.22,0.336-0.294,0.635-0.137c0.291,0.154,0.262,0.456,0.144,0.674l-0.66,1.112L107.285,641.6z"/>
			<path id="_x31_09" fill="#F1B517" stroke="#000000" stroke-width="0.15" d="M100.424,644.976l13.498-1.372l0.328,1.963
				l-13.432,1.351L100.424,644.976z"/>
			<path id="_x31_08" fill="#F1B517" stroke="#000000" stroke-width="0.15" d="M114.162,643.098l0.35,2.723h-0.568l-0.394-2.491
				L114.162,643.098z"/>
			<path id="_x31_07" fill="#F1B517" stroke="#000000" stroke-width="0.15" d="M111.908,643.541l0.153,2.449l-0.35,0.042
				l-0.284-2.174L111.908,643.541z"/>
			<path id="_x31_06" fill="#F1B517" stroke="#000000" stroke-width="0.15" d="M102.764,644.596l0.328,2.3l-0.656-0.021
				l-0.263-2.279H102.764z"/>
			<path id="_x31_05" fill="#F1B517" stroke="#000000" stroke-width="0.15" d="M100.753,644.659l0.467,2.661l-0.742,0.108
				l-0.213-1.399c-0.06,0.281-0.319,0.495-0.628,0.495c-0.353,0-0.642-0.279-0.642-0.619c0-0.34,0.288-0.616,0.642-0.616
				c0.246,0,0.468,0.144,0.565,0.412l-0.139-0.997L100.753,644.659z"/>
			<path id="_x31_04" fill="#F1B517" stroke="#000000" stroke-width="0.15" d="M105.625,645.091l1.856,2.089l-0.217,0.254
				l-2.382-1.627L105.625,645.091z"/>
			<path id="_x31_03" fill="#F1B517" stroke="#000000" stroke-width="0.15" d="M109.94,650.3l-1.856-2.089l0.217-0.254l2.382,1.627
				L109.94,650.3z"/>
			<path id="_x31_02" fill="#F1B517" stroke="#000000" stroke-width="0.15" d="M105.083,649.777l2.258-1.746l0.232,0.164
				l-1.779,2.253L105.083,649.777z"/>
			<path id="_x31_01" fill="#F1B517" stroke="#000000" stroke-width="0.15" d="M110.652,645.748l-2.289,1.687l-0.279-0.21
				l1.795-2.254L110.652,645.748z"/>
			<path id="_x31_00" fill="#F1B517" stroke="#000000" stroke-width="0.15" d="M108.161,644.356l-0.219,2.744l-0.308-0.013
				l-0.724-2.671L108.161,644.356z"/>
			<path id="_x39_9" fill="#F1B517" stroke="#000000" stroke-width="0.15" d="M107.411,651.014l0.219-2.744l0.339-0.032l0.415,2.776
				H107.411z"/>
			<path id="_x39_8" fill="#F1B517" stroke="#000000" stroke-width="0.15" d="M104.374,647.315l2.877,0.306l0.043,0.274l-2.909,0.38
				L104.374,647.315z"/>
			<path id="_x39_7" fill="#F1B517" stroke="#000000" stroke-width="0.15" d="M111.219,648.266l-2.809-0.444l-0.059-0.218
				l2.905-0.325L111.219,648.266z"/>
			<path id="_x39_6" fill="#F1B517" stroke="#000000" stroke-width="0.15" stroke-linecap="round" d="M107.037,647.629
				c0,0.406,0.341,0.735,0.762,0.735c0.421,0,0.762-0.329,0.762-0.735c0-0.407-0.341-0.735-0.762-0.735
				C107.378,646.894,107.037,647.223,107.037,647.629z"/>
			<path id="_x39_5" fill="#F1B517" stroke="#000000" stroke-width="0.15" stroke-linecap="round" d="M103.752,647.629
				c0,2.155,1.813,3.904,4.047,3.904c2.234,0,4.047-1.749,4.047-3.904s-1.813-3.905-4.047-3.905
				C105.565,643.725,103.752,645.474,103.752,647.629z M104.561,647.629c0,1.724,1.451,3.124,3.238,3.124
				c1.788,0,3.238-1.4,3.238-3.124c0-1.725-1.451-3.124-3.238-3.124C106.012,644.505,104.561,645.904,104.561,647.629z"/>
			<path id="_x39_4" fill="none" stroke="#000000" stroke-width="0.15" d="M110.327,645.658l0.635-0.477"/>
			<path id="_x39_3" fill="none" stroke="#000000" stroke-width="0.15" d="M105.795,645.195l-0.541-0.552"/>
			<path id="_x39_2" fill="none" stroke="#000000" stroke-width="0.15" d="M104.635,650.121l0.665-0.523"/>
			<path id="_x39_1" fill="none" stroke="#000000" stroke-width="0.15" d="M110.327,650.717l-0.572-0.612"/>
			<path id="_x39_0" fill="#F1B517" stroke="#000000" stroke-width="0.15" d="M96.698,643.773l-0.693,3.531l0.565,0.298l0.608-3.779
				L96.698,643.773z"/>
			<path id="_x38_9" fill="#FFFFFF" stroke="#000000" stroke-width="0.15" d="M97.06,643.319c0.321-0.134,0.739,0.093,1.424-0.775
				c1.127,1.034,0.064,1.188-0.107,2.211c-0.319,0.131-0.515-0.793-1.382-0.888c-0.107-0.01-1.379-0.122-1.379-0.122l0.319-0.435
				C95.936,643.309,96.821,643.332,97.06,643.319z"/>
			<path id="_x38_8" fill="#FFFFFF" stroke="#000000" stroke-width="0.15" d="M96.6,644.011l0.128-1.054
				c0.139-0.372,0.6-0.052,0.6,0.165l-0.118,0.971L96.6,644.011z"/>
			<path id="_x38_7" fill="#F1B517" stroke="#000000" stroke-width="0.15" stroke-linecap="round" d="M104.451,652.733
				c0,0.153,0.084,0.295,0.222,0.371c0.137,0.077,0.306,0.077,0.444,0c0.137-0.077,0.222-0.219,0.222-0.371
				c0.001-0.153-0.084-0.295-0.222-0.371c-0.138-0.077-0.307-0.077-0.444,0C104.535,652.439,104.451,652.581,104.451,652.733z"/>
			<path id="_x38_6" fill="#F1B517" stroke="#000000" stroke-width="0.15" stroke-linecap="round" d="M105.587,651.93
				c-0.001,0.153,0.084,0.294,0.222,0.371c0.138,0.076,0.307,0.076,0.444,0c0.138-0.077,0.222-0.219,0.222-0.371
				c0-0.154-0.084-0.295-0.222-0.371c-0.137-0.077-0.306-0.077-0.444,0C105.671,651.635,105.586,651.777,105.587,651.93z"/>
			<path id="_x38_5" fill="#F1B517" stroke="#000000" stroke-width="0.15" stroke-linecap="round" d="M107.116,652.456
				c0,0.152,0.084,0.294,0.222,0.371c0.138,0.077,0.307,0.077,0.444,0c0.138-0.077,0.222-0.219,0.222-0.371
				c0-0.154-0.084-0.295-0.222-0.371c-0.137-0.077-0.306-0.077-0.444,0C107.2,652.161,107.116,652.303,107.116,652.456z"/>
			<path id="_x38_4" fill="#F1B517" stroke="#000000" stroke-width="0.15" stroke-linecap="round" d="M109.479,652.967
				c-0.001,0.154,0.084,0.295,0.222,0.372c0.138,0.076,0.307,0.076,0.445,0c0.137-0.077,0.221-0.218,0.221-0.372
				c0-0.153-0.084-0.295-0.221-0.371c-0.138-0.076-0.307-0.076-0.445,0C109.564,652.672,109.479,652.814,109.479,652.967z"/>
			<path id="_x38_3" fill="#F1B517" stroke="#000000" stroke-width="0.15" stroke-linecap="round" d="M110.479,653.084
				c-0.001,0.153,0.084,0.294,0.221,0.372c0.138,0.076,0.307,0.076,0.445,0c0.137-0.077,0.222-0.219,0.222-0.372
				c0-0.153-0.084-0.295-0.222-0.371c-0.138-0.077-0.307-0.077-0.445,0C110.563,652.789,110.478,652.931,110.479,653.084z"/>
			<path id="_x38_2" fill="#F1B517" stroke="#000000" stroke-width="0.15" stroke-linecap="round" d="M111.463,653.084
				c0,0.153,0.084,0.294,0.222,0.372c0.137,0.076,0.306,0.076,0.444,0c0.137-0.077,0.222-0.219,0.222-0.372
				c0.001-0.153-0.084-0.295-0.222-0.371c-0.138-0.077-0.307-0.077-0.444,0C111.548,652.789,111.463,652.931,111.463,653.084z"/>
			<path id="_x38_1" fill="#F1B517" stroke="#000000" stroke-width="0.15" stroke-linecap="round" d="M112.463,653.055
				c0,0.153,0.084,0.294,0.222,0.371c0.137,0.076,0.306,0.076,0.444,0c0.137-0.077,0.222-0.219,0.221-0.371
				c0.001-0.154-0.084-0.295-0.221-0.371c-0.138-0.077-0.307-0.077-0.444,0C112.547,652.76,112.463,652.902,112.463,653.055z"/>
			<path id="_x38_0" fill="#F1B517" stroke="#000000" stroke-width="0.15" stroke-linecap="round" d="M111.978,652.295
				c0,0.153,0.084,0.295,0.221,0.371c0.138,0.077,0.307,0.077,0.445,0c0.137-0.076,0.222-0.218,0.222-0.371
				c0-0.153-0.084-0.295-0.222-0.371c-0.138-0.077-0.307-0.077-0.445,0C112.063,652,111.978,652.142,111.978,652.295z"/>
			<path id="_x37_9" fill="#F1B517" stroke="#000000" stroke-width="0.15" stroke-linecap="round" d="M111.009,652.339
				c-0.001,0.153,0.084,0.295,0.222,0.372c0.138,0.076,0.307,0.076,0.444,0c0.138-0.077,0.222-0.219,0.222-0.372
				c0-0.154-0.084-0.295-0.222-0.371c-0.137-0.077-0.306-0.077-0.444,0C111.093,652.044,111.008,652.186,111.009,652.339z"/>
			<path id="_x37_8" fill="#F1B517" stroke="#000000" stroke-width="0.15" stroke-linecap="round" d="M110.085,652.222
				c-0.001,0.154,0.084,0.295,0.222,0.372c0.138,0.077,0.307,0.077,0.444,0c0.138-0.076,0.222-0.218,0.222-0.372
				c0-0.153-0.084-0.294-0.222-0.371c-0.137-0.076-0.306-0.076-0.444,0C110.169,651.928,110.084,652.069,110.085,652.222z"/>
			<path id="_x37_7" fill="#F1B517" stroke="#000000" stroke-width="0.15" stroke-linecap="round" d="M110.554,651.477
				c0,0.154,0.084,0.295,0.222,0.372c0.137,0.077,0.306,0.077,0.444,0c0.137-0.076,0.222-0.218,0.221-0.372
				c0.001-0.153-0.084-0.294-0.221-0.371c-0.138-0.076-0.307-0.076-0.444,0C110.639,651.182,110.554,651.324,110.554,651.477z"/>
			<path id="_x37_6" fill="#F1B517" stroke="#000000" stroke-width="0.15" stroke-linecap="round" d="M111.463,651.463
				c0,0.153,0.084,0.294,0.222,0.371c0.137,0.076,0.306,0.076,0.444,0c0.137-0.077,0.222-0.219,0.222-0.371
				c0.001-0.154-0.084-0.295-0.222-0.371c-0.138-0.077-0.307-0.077-0.444,0C111.548,651.167,111.463,651.309,111.463,651.463z"/>
			<path id="_x37_5" fill="#FFFFFF" stroke="#000000" stroke-width="0.15" d="M103.85,649.897c0.382-0.154,0.378,0.703,0.378,0.703
				l-0.601,0.006c-0.264,0.12-0.475,0.506-0.308,0.695c0.139,0.156,1.307-0.264,1.385-0.022c-0.206,1.165-1.75,1.613-2.309,1.103
				c-0.547-0.498-0.685-1.828,1.09-2.177L103.85,649.897z"/>
			<path id="_x37_4" fill="none" stroke="#000000" stroke-width="0.15" d="M103.493,650.213l0.175,0.383"/>
			<path id="_x37_3" fill="none" stroke="#000000" stroke-width="0.15" d="M115.449,650.333l0.578-2.429"/>
			<path id="_x37_2" fill="none" stroke="#000000" stroke-width="0.15" d="M114.747,650.193l0.888-1.891"/>
			<path id="_x37_1" fill="none" stroke="#000000" stroke-width="0.15" d="M113.22,649.695l2.002-1.075"/>
			<path id="_x36_9" fill="none" stroke="#000000" stroke-width="0.15" d="M112.353,649.476l3.715-1.612"/>
			<path id="_x36_8" fill="#D20014" stroke="#D20014" stroke-width="0.15" d="M118.286,646.108c0,0,1.352-0.022,1.593,0.073
				c0.098,0.038-0.34,0.495-0.249,0.669c0.338,0.649,2.637,0.56,2.818,0.418c0.311-0.243-2.141-0.452-2.157-0.617
				c-0.018-0.19,0.363-0.688,0.303-0.993c-0.076-0.397-1.073-0.544-1.073-0.544L118.286,646.108z"/>
			<path id="_x36_7" fill="#503200" stroke="#000000" stroke-width="0.15" d="M116.475,647.331l3.062-2.534
				c0,0,0.135-0.143,0.248-0.02c0.11,0.121-0.042,0.259-0.042,0.259l-3.158,2.609L116.475,647.331z"/>
			<path id="_x36_6" fill="#F1B517" stroke="#000000" stroke-width="0.15" d="M113.527,649.83c0.054-0.052,2.493-2.164,2.493-2.164
				l0.162-0.617c0,0,0.377,0.255,0.515,0.387c0.138,0.131,0.352,0.491,0.352,0.491l-0.683,0.032l-2.157,1.976L113.527,649.83z"/>
			<path id="_x36_5" fill="#F1B517" stroke="#000000" stroke-width="0.15" d="M99.956,646.923l-0.011,0.982
				c0.321,0.11,0.272,0.351,0.262,0.701l-0.011,2.863c0.114,0.19,0.466,0.198,0.632,0.347c0.166,0.149,0.145,0.438-0.612,0.628
				l-0.585,0.021c-0.892-0.195-1.076-0.49-0.629-0.657c0.238-0.088,0.551-0.194,0.67-0.335l-0.02-0.682l-0.579,0.021
				c-0.155,0-0.451-0.391-0.462-0.711l-0.003-1.482c0.021-0.84,0.652-0.935,0.828-0.925l-0.012-0.773L99.956,646.923z
				 M98.977,648.561c-0.01-0.24,0.333-0.454,0.472-0.459c0.138-0.006,0.441,0.28,0.451,0.52v0.601
				c-0.021,0.22-0.196,0.966-0.55,1.02c-0.167,0.026-0.383-0.24-0.383-0.46L98.977,648.561z"/>
			<path id="_x36_4" fill="#016A16" stroke="#000000" stroke-width="0.15" d="M94.525,619.639c4.658-4.663,8.327-2.387,9.2-1.741
				c-0.577,0.113-1.096-0.247-1.363-0.288c0.168,0.212,0.519,0.738,0.519,0.738s-1.44-0.68-1.601-0.618
				c0.208,0.166,0.437,0.562,0.437,0.562c-0.107,0.042-0.918-0.634-1.078-0.646c0.247,0.279,0.323,0.917,0.323,0.917l-0.702-0.327
				c-0.182,0.129,0.051,0.378-0.108,0.365c-1.167-0.096-2.807,1.066-3.032,1.424"/>
			<path id="_x36_3" fill="#016A16" stroke="#000000" stroke-width="0.15" d="M95.678,620.492c0.486-1.112,9.353-3.003,11.136,0.146
				c-0.698,0.176-1.365-0.585-1.365-0.585l0.06,0.703l-1.183-0.908l0.425,0.937l-0.941-0.761l0.03,0.761l-1.153-1.259l0.152,0.732
				l-1.031-0.439l0.121,0.615"/>
			<path id="_x36_2" fill="#016A16" stroke="#000000" stroke-width="0.15" d="M96.072,620.668c2.276-1.522,5.796-0.498,5.796-0.498
				c2.245,1.259,3.442,1.032,3.732,3.366c-0.213-0.088-0.82-0.82-0.82-0.82l-0.455,0.908l-0.152-1.288l-0.364,0.995l-0.546-1.639
				l-0.121,1.112l-0.85-1.112l-0.394,0.322l-0.364-0.849l-0.333,0.556c0,0-0.577-0.351-0.911-0.146l-0.637-0.732l-0.152,0.527
				l-0.546-0.644l-0.213,0.468l-0.546-0.497l0.03,0.351l-1.881,0.029"/>
			<path id="_x36_1" fill="#016A16" stroke="#000000" stroke-width="0.15" d="M96.587,620.932c1.586-0.03,6.136,1.687,7.313,3.484
				c-0.469-0.262-0.758-0.381-0.758-0.381l-0.232,0.722l-0.284-0.722l-0.061,0.556c-0.174-0.434-0.37-0.483-0.698-0.029
				l-0.121-0.673l-0.182,0.644l-0.303-0.703c0,0-0.19,0.761-0.303,0.732c0,0-0.503-1.317-0.728-1.376l-0.061,0.82l-0.304-0.82
				l-0.273,0.615l-0.06-0.878l-0.303,0.673c0,0-0.159-0.662-0.394-0.79l-0.455,0.41l-2.027-1.456"/>
			<path id="_x36_0" fill="#016A16" stroke="#000000" stroke-width="0.15" d="M96.283,621.307c2.112,0.81,4.002,3.707,3.857,4.936
				c-0.939-1.165-0.736-1.005-1.156,0.335c0,0-0.159-1.172-0.318-1.312l-0.275,0.868l-0.103-1.135l-0.282,0.013l0.073-0.712
				l-0.42,0.321c0.098-0.407,0.202-0.544-0.231-0.893c0,0,0.55,0.07,0.115-0.921l-0.405,0.391c0,0,0.072-0.433-0.073-0.6
				l-1.491-0.516"/>
			<path id="_x35_9" fill="#016A16" stroke="#000000" stroke-width="0.15" d="M96.078,621.524l0.799,1.52l-0.41,0.118l0.921,0.691
				l-0.778-0.079c0,0,1.187,0.434,1.331,1.599l-1.208-0.533c0,0,1.023,1.046,1.167,1.678l-0.696-0.612c0,0,0.676,0.73,0.573,1.836
				l-0.512-0.572c0.123,1.342,0.082,1.461-0.532,2.488c0,0,0.163-1.579-0.021-1.777l-1.351,1.402l0.757-1.994
				c0,0-0.839,1.264-1.351,1.145l1.064-1.619l-1.044,0.849l1.187-1.777l-1.105,0.335c0,0,0.798-1.007,0.737-1.639l-0.757,0.829
				c0,0,0.286-0.947,0.204-1.224l-0.388,0.079l0.757-0.869l-0.512-0.099l0.061-0.573l-0.368-0.118l0.021-0.632"/>
			<path id="_x35_8" fill="none" stroke="#000000" stroke-width="0.15" d="M95.28,621.978c1.31,1.777,0.635,4.521,1.412,5.923"/>
			<path id="_x35_7" fill="#F1B517" stroke="#000000" stroke-width="0.15" d="M102.533,653.294c0-0.19,0.461-0.108,0.461-0.33
				c0-0.247-0.703-0.065-0.8,0.152c-0.396-0.357-0.567-0.096-0.809,0.012c-0.345-0.513-0.772-0.495-1.188-0.118
				c-0.241-0.266-0.846-0.178-1.054,0.118c-0.399-0.396-0.753-0.298-1.029-0.012c-0.111-0.208-0.275-0.163-0.393-0.012
				c-0.212-0.377-0.745-0.264-0.969-0.015c-0.199-0.219-0.404-0.048-0.669,0.114c-0.179-0.167-0.467-0.136-0.467,0.03
				c0,0.173,0.377,0.112,0.377,0.285c0,0.153-0.275,0.076-0.275,0.269c0,0.154,0.408,0.21,0.471-0.033
				c0.138,0.264,0.637,0.162,0.686-0.083c0.166,0.2,0.538,0.261,0.748-0.035c0.172,0.14,0.378,0.159,0.472,0.019
				c0.31,0.333,0.833,0.265,1.013-0.103l0.176,0.008c0.305,0.414,0.781,0.223,0.912-0.006c0.511,0.369,0.817,0.253,1.103,0.012
				c0.328,0.4,0.828,0.373,0.944,0c0.221,0.162,0.681,0.199,0.681,0.011C102.924,653.395,102.533,653.461,102.533,653.294z
				 M101.54,653.384c0,0.086,0.117,0.156,0.261,0.156c0.144,0,0.261-0.07,0.261-0.156c0-0.086-0.117-0.156-0.261-0.156
				C101.657,653.229,101.54,653.299,101.54,653.384z M100.448,653.253c0,0.104,0.141,0.188,0.314,0.188
				c0.173,0,0.314-0.083,0.314-0.188c0-0.103-0.141-0.187-0.314-0.187C100.589,653.066,100.448,653.15,100.448,653.253z
				 M98.303,653.371c0,0.105,0.127,0.19,0.284,0.19c0.157,0,0.284-0.084,0.284-0.19c0-0.104-0.127-0.189-0.284-0.189
				C98.43,653.182,98.303,653.267,98.303,653.371z M99.445,653.322c0,0.132,0.125,0.239,0.278,0.239
				c0.153,0,0.278-0.107,0.278-0.239s-0.124-0.24-0.278-0.24C99.57,653.082,99.445,653.19,99.445,653.322z M97.009,653.328
				c0,0.118,0.111,0.214,0.248,0.214c0.138,0,0.249-0.096,0.249-0.214s-0.111-0.214-0.249-0.214
				C97.121,653.114,97.009,653.21,97.009,653.328z M97.756,653.379c0,0.076,0.071,0.138,0.161,0.138c0.088,0,0.16-0.062,0.16-0.138
				c0-0.077-0.072-0.139-0.16-0.139C97.827,653.24,97.756,653.302,97.756,653.379z M96.303,653.434c0,0.11,0.081,0.199,0.181,0.199
				c0.1,0,0.181-0.089,0.181-0.199s-0.081-0.199-0.181-0.199C96.383,653.236,96.303,653.325,96.303,653.434z"/>
			<path id="_x35_6" fill="#F1B517" stroke="#000000" stroke-width="0.15" d="M95.067,646.421c0,0,0.713-5.967,0.711-8.535
				c-0.001-2.021-0.488-6.501-0.488-6.501h-2.05c0,0-0.312,4.458-0.265,6.473c0.06,2.569,0.711,8.563,0.711,8.563H95.067z"/>
			<path id="_x35_5" fill="#F1B517" stroke="#000000" stroke-width="0.15" d="M93.105,631.672h2.375l-0.279-1.599h-1.722
				L93.105,631.672z"/>
			<path id="_x35_4" fill="#F1B517" stroke="#000000" stroke-width="0.15" d="M93.256,630.39h2.123l-0.4-1.6h-1.308L93.256,630.39z"
				/>
			<path id="_x35_3" fill="#F1B517" stroke="#000000" stroke-width="0.15" d="M93.393,629.093h1.77l-0.299-1.6h-1.126
				L93.393,629.093z"/>
			<path id="_x35_2" fill="#F1B517" stroke="#000000" stroke-width="0.15" d="M94.926,627.304h-1.238l-0.125,0.578h1.464
				L94.926,627.304z"/>
			<path id="_x35_1" fill="none" stroke="#000000" stroke-width="0.15" d="M95.179,645.12h-1.573"/>
			<path id="_x35_0" fill="none" stroke="#000000" stroke-width="0.15" d="M95.265,643.952h-1.764"/>
			<path id="_x34_9" fill="none" stroke="#000000" stroke-width="0.15" d="M95.499,642.766h-2.237"/>
			<path id="_x34_8" fill="none" stroke="#000000" stroke-width="0.15" d="M95.614,641.475h-2.34"/>
			<path id="_x34_7" fill="none" stroke="#000000" stroke-width="0.15" d="M95.63,640.183h-2.461"/>
			<path id="_x34_6" fill="none" stroke="#000000" stroke-width="0.15" d="M95.726,639.003h-2.67"/>
			<path id="_x34_5" fill="none" stroke="#000000" stroke-width="0.15" d="M95.732,637.929h-2.791"/>
			<path id="_x34_4" fill="none" stroke="#000000" stroke-width="0.15" d="M95.715,636.631h-2.79"/>
			<path id="_x34_3" fill="none" stroke="#000000" stroke-width="0.15" d="M95.622,635.35h-2.697"/>
			<path id="_x34_2" fill="none" stroke="#000000" stroke-width="0.15" d="M95.499,634.048h-2.439"/>
			<path id="_x34_1" fill="none" stroke="#000000" stroke-width="0.15" d="M95.38,632.873h-2.203"/>
			<path id="_x34_0" fill="#0A328C" stroke="#0A328C" stroke-width="0.15" stroke-linecap="round" d="M94.402,645.931
				c-1.507,0-2.73,0.567-2.73,1.262c0,0.119,0.034,0.233,0.101,0.343c0.326,0.378,1.384,0.652,2.639,0.652
				c1.174,0,2.174-0.241,2.566-0.581c0.099-0.13,0.153-0.268,0.153-0.414C97.132,646.497,95.909,645.931,94.402,645.931z"/>
			<path id="_x33_9" fill="#F1B517" stroke="#000000" stroke-width="0.15" stroke-linecap="round" d="M97.156,647.288v4.235
				c0,0.497-1.229,0.899-2.743,0.899c-1.514,0-2.743-0.403-2.743-0.899v-4.235c0,0.497,1.229,0.9,2.743,0.9
				C95.928,648.188,97.156,647.785,97.156,647.288z"/>
			<path id="_x33_8" fill="#D20014" stroke="#D20014" stroke-width="0.15" d="M91.669,647.289c0,0,0,0.48,0,0.649l1.332,4.107
				l1.063-3.159l1.168,3.28l0.855-3.096l1.07,2.081V650l-0.994-2.018c-0.111,0.03-0.23,0.056-0.356,0.081l-0.617,2.287l-0.868-2.163
				c-0.145-0.001-0.29-0.005-0.429-0.013l-0.871,2.176l-0.997-2.62C91.8,647.599,91.669,647.45,91.669,647.289z"/>
			<path id="_x33_7" fill="#0A328C" stroke="#0A328C" stroke-width="0.15" stroke-linecap="round" d="M97.156,650.732v0.791
				c0,0.497-1.229,0.899-2.743,0.899c-1.514,0-2.743-0.403-2.743-0.899v-0.791c0,0.497,1.229,0.9,2.743,0.9
				C95.928,651.632,97.156,651.229,97.156,650.732z"/>
			<path id="_x33_6" fill="#F1B517" stroke="#000000" stroke-width="0.15" stroke-linecap="round" d="M95.543,651.551
				c-0.223,0.033-0.461,0.058-0.711,0.071l0.007,0.79c0.25-0.013,0.488-0.037,0.711-0.07L95.543,651.551z"/>
			<path id="_x33_5" fill="#F1B517" stroke="#000000" stroke-width="0.15" stroke-linecap="round" d="M92.621,651.413l-0.007,0.787
				c0.212,0.06,0.45,0.111,0.711,0.148v-0.791C93.067,651.521,92.831,651.473,92.621,651.413z"/>
			<path id="_x33_4" fill="#F1B517" stroke="#000000" stroke-width="0.15" stroke-linecap="round" d="M91.669,650.734v0.79
				c0,0.147,0.111,0.284,0.303,0.407l0.014-0.78C91.785,651.025,91.669,650.885,91.669,650.734z"/>
			<path id="_x33_3" fill="#F1B517" stroke="#000000" stroke-width="0.15" stroke-linecap="round" d="M97.157,650.818l-0.014,0.003
				c-0.048,0.161-0.227,0.309-0.499,0.434l0.004,0.787c0.318-0.147,0.509-0.324,0.509-0.518
				C97.157,651.524,97.157,650.952,97.157,650.818z"/>
			<path id="_x33_2" fill="none" stroke="#000000" stroke-width="0.15" stroke-linecap="round" d="M97.156,647.316v4.207
				c0,0.497-1.229,0.899-2.743,0.899c-1.514,0-2.743-0.403-2.743-0.899v-4.207"/>
			<path id="_x33_1" fill="#FFFFFF" stroke="#FFFFFF" stroke-width="0.15" stroke-linecap="round" d="M96.535,647.012
				c0,0.301-0.95,0.545-2.122,0.545c-1.172,0-2.122-0.244-2.122-0.545c0-0.3,0.95-0.544,2.122-0.544
				C95.585,646.468,96.535,646.712,96.535,647.012z"/>
			<path id="_x33_0" fill="#F1B517" stroke="#000000" stroke-width="0.15" stroke-linecap="round" d="M93.719,647.414l0.094,0.75
				c0.184,0.014,0.376,0.023,0.571,0.023l0.139-0.773H93.719z"/>
			<path id="_x32_9" fill="#F1B517" stroke="#000000" stroke-width="0.15" stroke-linecap="round" d="M96.181,647.232l-0.548,0.148
				l0.035,0.706c0.186-0.032,0.361-0.07,0.52-0.114L96.181,647.232z"/>
			<path id="_x32_8" fill="#F1B517" stroke="#000000" stroke-width="0.15" stroke-linecap="round" d="M92.938,646.087
				c-0.155,0.046-0.301,0.1-0.432,0.158l0.077,0.567l0.349-0.111L92.938,646.087z"/>
			<path id="_x32_7" fill="#F1B517" stroke="#000000" stroke-width="0.15" stroke-linecap="round" d="M94.402,645.864
				c-0.073,0-0.145,0.004-0.216,0.006l0.119,0.71l0.362-0.006l0.143-0.693C94.677,645.871,94.541,645.864,94.402,645.864z"/>
			<path id="_x32_6" fill="#F1B517" stroke="#000000" stroke-width="0.15" stroke-linecap="round" d="M96.006,646.114l-0.073,0.62
				l0.415,0.147l0.046-0.609C96.275,646.214,96.146,646.161,96.006,646.114z"/>
			<path id="_x32_5" fill="#F1B517" stroke="#000000" stroke-width="0.15" d="M92.096,647.78l0.11-0.773l-0.561-0.304l0.016,0.879
				L92.096,647.78z"/>
			<path id="_x32_4" fill="#F1B517" stroke="#000000" stroke-width="0.15" d="M97.138,647.614l0.025-0.773l-0.526,0.157
				L97.138,647.614z"/>
			<path id="_x32_3" fill="#016A16" stroke="#FFFFFF" stroke-width="0.15" stroke-linecap="round" d="M87.621,642.651
				c-0.159-0.296-0.636-0.511-1.199-0.511c-0.563,0-1.037,0.215-1.196,0.511c-0.037-0.068-0.059-0.14-0.059-0.216
				c0-0.401,0.562-0.726,1.255-0.726c0.693,0,1.255,0.325,1.255,0.726C87.678,642.511,87.658,642.583,87.621,642.651z"/>
			<path id="_x32_2" fill="#016A16" stroke="#FFFFFF" stroke-width="0.15" stroke-linecap="round" d="M87.515,643.55
				c0,0.779-0.489,1.412-1.091,1.412c-0.602,0-1.091-0.633-1.091-1.412v-0.765h2.182V643.55z"/>
			<path id="_x32_1" fill="#FFFFFF" d="M87.507,642.538c0.001,0.298-0.485,0.539-1.083,0.539c-0.599,0-1.084-0.241-1.083-0.539
				c-0.001-0.298,0.485-0.539,1.083-0.539C87.022,641.999,87.508,642.24,87.507,642.538z"/>
			<path id="_x32_0" fill="#016A16" stroke="#F1B517" stroke-width="0.15" d="M86.176,643.145l-0.186-1.979h0.829l-0.135,1.979
				H86.176z"/>
			<path id="_x31_9" fill="#016A16" stroke="#FFFFFF" stroke-width="0.15" stroke-linecap="round" d="M87.623,642.57
				c-0.159,0.296-0.636,0.512-1.199,0.512c-0.563,0-1.037-0.215-1.196-0.512c-0.036,0.069-0.059,0.141-0.059,0.216
				c0,0.401,0.563,0.727,1.255,0.727s1.255-0.326,1.255-0.727C87.679,642.711,87.659,642.639,87.623,642.57z"/>
			<path id="_x31_8" fill="#F1B517" stroke="#000000" stroke-width="0.15" d="M85.579,646.664l2.193,0.222l0.342-1.947l-2.573-0.263
				"/>
			<path id="_x31_7" fill="#F1B517" stroke="#000000" stroke-width="0.15" d="M86.151,644.596l-0.328,2.3l0.656-0.021l0.263-2.279
				H86.151z"/>
			<path id="_x31_6" fill="#F1B517" stroke="#000000" stroke-width="0.15" d="M102.712,642.517c0.499-0.068,1.238,0.615,1.282,1.46
				c0.035,0.671-1.015,0.636-1.015,0.636c-0.053,0.274-0.632,0.528-1.104,0.55c-0.457,0.02,0.125-0.859,0.125-0.859
				c-0.285-0.756,0.089-1.649,0.089-1.649L102.712,642.517z"/>
			<path id="_x31_5" fill="none" stroke="#000000" stroke-width="0.15" d="M102,644.27l0.48-0.018c0,0,0.037,0.248,0.125,0.258
				c0.094,0.011,0.196-0.24,0.196-0.24l0.73-0.018"/>
			<path id="_x31_4" fill="#D20014" stroke="#F1B517" stroke-width="0.15" d="M102.979,643.016c0.408-0.295,0.05-0.888-0.231-0.894
				l-0.659,0.017c-0.311,0.007-0.836,0.343-0.766,0.636c0.061,0.255,0.232,0.371,0.499,0.326c0.121-0.02,0.376-0.338,0.499-0.343
				C102.485,642.75,102.847,643.111,102.979,643.016z"/>
			<path id="_x31_3" fill="#0A328C" stroke="#0A328C" stroke-width="0.15" d="M94.446,617.926c-0.413-0.195-1.348-0.788-1.071-1.142
				l0.428-0.729c0.606-1.366-0.011-0.837-0.076-1.263c-0.062-0.409,2.319-0.09,2.354,0.838c0.009,0.255-0.177,0.105-0.151,1.566
				l-0.453,0.875C95.139,618.104,94.738,618.064,94.446,617.926z"/>
			<path id="_x31_2" fill="#F1B517" stroke="#000000" stroke-width="0.15" d="M94.735,621.46l-0.592-0.498l0.163-4.263l0.58,0.17
				L94.735,621.46z"/>
			<path id="_x31_1" fill="#D20014" stroke="#D20014" stroke-width="0.15" d="M95.503,618.048c0.371-0.217,0.615-0.866,0.391-1.251
				c-0.61-0.772-1.004-0.453-2.027-0.802c-0.204,0.217-0.633,0.635-0.541,0.947c1.345,0.633,0.823,0.094,1.268,0.173
				C94.833,617.158,94.988,617.442,95.503,618.048z"/>
			<path id="_x31_0" fill="#F1B517" stroke="#000000" stroke-width="0.15" d="M73.046,651.413c-0.37,0.047-0.439,0.473-0.3,0.864
				c-1.612,0.453-3.052,1.044-4.473,1.443c-0.057-0.285,0.704-1.107,0.704-1.107c0.202,0.097,0.352,0.558,0.352,0.558
				c0.05-0.947,0.983-1.577,0.983-1.577c-0.554-0.073-2.239,0.58-2.44,0.847c0,0,0.652-0.073,0.753,0c0,0-1.284,1.388-1.342,1.799
				c0.2,0.451,2.416,0.787,2.416,0.787c-0.035,0.117-0.652,0.559-0.652,0.559c0.881,0.193,2.211-0.431,2.608-0.811
				c0,0-1.037-0.086-1.845-0.74c0,0,0.166,0.407,0.066,0.602c0,0-1.26-0.363-1.391-0.572c0.004-0.018,2.979-0.789,4.421-1.2
				c0.053,0.257,0.339,0.744,0.683,0.629c0.224-0.075,0.153-0.52,0.07-0.834c0.081,0.069,0.186,0.11,0.303,0.11
				c0.254,0,0.461-0.196,0.461-0.441c0-0.244-0.207-0.444-0.461-0.444c-0.202,0-0.371,0.127-0.432,0.303
				C73.473,651.918,73.323,651.378,73.046,651.413z M74.179,652.33c0,0.115-0.096,0.207-0.215,0.207
				c-0.118,0-0.214-0.093-0.214-0.207c0-0.114,0.096-0.207,0.214-0.207C74.083,652.122,74.179,652.215,74.179,652.33z"/>
			<path id="_x39_" fill="#F1B517" stroke="#000000" stroke-width="0.15" d="M120.341,653.231c0.11-0.22-0.097-1.328-0.097-1.328
				c-0.224,0.025-0.53,0.409-0.53,0.409c0.289-0.907-0.519-2.422-0.519-2.422c0.547,0.114,2.367,1.877,2.462,2.194
				c0,0-0.797-0.284-0.918-0.249c0.13,0.904,0.755,1.323,0.99,1.793c0,0-1.035,0.227-0.931,1.093l-0.677,0.012
				c-0.234-0.288,0.091-0.765,0.091-0.765l-4.644-1.945c-0.299-0.125-0.972-0.431-0.871-0.79c0.102-0.363,1.21,0.151,1.483,0.238
				L120.341,653.231z"/>
			<path id="_x38_" fill="#F1B517" stroke="#000000" stroke-width="0.15" d="M115.881,652.425l0.546-1.004
				c0.195-0.263-0.208-0.552-0.494-0.213l-0.611,0.916C115.049,652.626,115.621,652.763,115.881,652.425z"/>
			<path id="_x37_" fill="#FFFFFF" stroke="#000000" stroke-width="0.15" d="M83.32,654.72l-0.037-1.095l-1.324,0.073l-0.076,1.192
				L83.32,654.72z"/>
			<path id="_x36_" fill="#FFFFFF" stroke="#000000" stroke-width="0.15" d="M73.643,656.254l-1.771-0.993
				c7.301,0.669,8.792-1.877,10.556-2.014c1.085-0.085,1.254,1.201-0.847,0.589l0.543,1.345c0,0-5.183,2.916-10.277,1.712
				L73.643,656.254z"/>
			<path id="_x35_" fill="#FFFFFF" stroke="#000000" stroke-width="0.15" d="M105.449,654.72l0.038-1.095l1.62,0.038l0.076,1.192
				L105.449,654.72z"/>
			<path id="_x34_" fill="#FFFFFF" stroke="#000000" stroke-width="0.15" d="M115.463,655.986l1.666-0.909
				c-8.364,0.25-6.459-1.373-10.644-1.829c-1.082-0.117-1.894,1.272,0.847,0.589l-0.543,1.345l1.315,0.001
				c2.849,1.876,6.693,2.044,9.241,1.441L115.463,655.986z"/>
			<path id="_x33_" fill="#FFFFFF" stroke="#000000" stroke-width="0.15" d="M81.551,653.845v1.893c0,0,4.637,1.72,12.911,1.72
				c8.31,0,12.912-1.72,12.912-1.72v-1.893c0,0-3.51,1.617-12.912,1.617C85.096,655.462,81.551,653.845,81.551,653.845z"/>
			<path id="_x32_" d="M82.244,655.748l0.409-1.386l0.19,0.053l-0.361,1.222l0.707,0.195l-0.048,0.163L82.244,655.748z
				 M83.585,655.139l0.023-0.272l0.061-0.234l0.203,0.049l-0.061,0.234l-0.116,0.249L83.585,655.139z M85.581,655.045l0.194,0.038
				l-0.172,0.816c-0.03,0.142-0.07,0.251-0.121,0.328c-0.051,0.077-0.125,0.133-0.223,0.168c-0.098,0.035-0.217,0.039-0.359,0.012
				c-0.137-0.027-0.244-0.071-0.322-0.135c-0.077-0.063-0.126-0.141-0.145-0.234c-0.019-0.094-0.013-0.216,0.019-0.365l0.172-0.816
				l0.194,0.038l-0.172,0.814c-0.026,0.123-0.033,0.216-0.022,0.278c0.012,0.063,0.043,0.115,0.094,0.158
				c0.051,0.043,0.118,0.072,0.201,0.088c0.142,0.028,0.251,0.017,0.324-0.033c0.074-0.05,0.13-0.164,0.167-0.342L85.581,655.045z
				 M85.799,656.551l0.241-1.422l0.2,0.032l0.585,1.239l0.189-1.117l0.187,0.029l-0.241,1.422l-0.2-0.032l-0.584-1.239l-0.19,1.117
				L85.799,656.551z M87.323,656.781l0.205-1.427l0.196,0.026l-0.205,1.427L87.323,656.781z M87.886,656.152
				c0.028-0.237,0.117-0.417,0.264-0.536c0.148-0.12,0.327-0.168,0.536-0.145c0.137,0.015,0.257,0.06,0.359,0.136
				c0.103,0.075,0.176,0.172,0.22,0.292c0.045,0.119,0.058,0.25,0.041,0.394c-0.017,0.145-0.063,0.272-0.137,0.38
				c-0.074,0.108-0.17,0.185-0.289,0.232c-0.118,0.046-0.242,0.063-0.371,0.049c-0.139-0.015-0.261-0.062-0.363-0.139
				c-0.103-0.077-0.175-0.175-0.219-0.294C87.885,656.4,87.871,656.278,87.886,656.152L87.886,656.152z M88.088,656.177
				c-0.021,0.172,0.012,0.314,0.096,0.424c0.084,0.11,0.199,0.173,0.344,0.189c0.148,0.016,0.275-0.021,0.383-0.11
				c0.107-0.09,0.172-0.227,0.194-0.411c0.014-0.117,0.005-0.22-0.025-0.312c-0.03-0.091-0.082-0.165-0.155-0.222
				c-0.073-0.057-0.158-0.09-0.256-0.101c-0.139-0.015-0.264,0.018-0.375,0.099C88.182,655.814,88.114,655.961,88.088,656.177
				L88.088,656.177z M89.473,657.027l0.122-1.435l0.202,0.015l0.686,1.19l0.096-1.127l0.189,0.015l-0.122,1.435l-0.202-0.016
				l-0.686-1.19l-0.096,1.128L89.473,657.027z M91.566,657.172l0.065-1.439l1.007,0.042l-0.008,0.17l-0.809-0.034l-0.021,0.446
				l0.7,0.03l-0.008,0.17l-0.7-0.03l-0.029,0.654L91.566,657.172z M92.666,657.219l0.602-1.43l0.213,0.005l0.582,1.452l-0.225-0.005
				l-0.165-0.439l-0.625-0.012l-0.173,0.434L92.666,657.219z M93.109,656.636l0.506,0.01l-0.148-0.402
				c-0.045-0.122-0.078-0.223-0.1-0.301c-0.021,0.093-0.05,0.183-0.086,0.274L93.109,656.636z M94.257,657.242l0.003-1.44h0.198
				l-0.003,1.44H94.257z M95.183,657.239l-0.019-1.271l-0.492,0.006l-0.002-0.17l1.183-0.016l0.003,0.17l-0.494,0.007l0.019,1.27
				L95.183,657.239z M96.648,657.204l-0.07-1.439l0.197-0.009l0.061,1.269l0.735-0.033l0.008,0.17L96.648,657.204z M97.653,657.16
				l0.466-1.477l0.213-0.015l0.715,1.395l-0.224,0.015l-0.206-0.423l-0.623,0.043l-0.132,0.447L97.653,657.16z M98.039,656.54
				l0.505-0.035l-0.185-0.387c-0.056-0.118-0.099-0.215-0.128-0.291c-0.012,0.093-0.032,0.186-0.06,0.28L98.039,656.54z
				 M99.792,656.995l-0.163-1.432l1.001-0.107l0.019,0.169l-0.805,0.086l0.051,0.443l0.696-0.074l0.019,0.169l-0.696,0.074
				l0.074,0.65L99.792,656.995z M100.887,656.173c-0.035-0.237,0.004-0.431,0.115-0.583s0.272-0.243,0.48-0.271
				c0.137-0.019,0.264-0.004,0.383,0.044c0.119,0.047,0.216,0.124,0.289,0.229c0.074,0.104,0.122,0.228,0.143,0.37
				c0.021,0.145,0.01,0.279-0.033,0.401c-0.043,0.123-0.117,0.221-0.219,0.295c-0.102,0.074-0.218,0.12-0.346,0.137
				c-0.139,0.019-0.268,0.004-0.387-0.046c-0.12-0.05-0.216-0.127-0.288-0.231C100.951,656.412,100.906,656.298,100.887,656.173
				L100.887,656.173z M101.089,656.148c0.026,0.172,0.093,0.301,0.204,0.387c0.11,0.086,0.238,0.118,0.383,0.098
				c0.147-0.02,0.261-0.087,0.341-0.199c0.08-0.114,0.107-0.261,0.08-0.445c-0.017-0.116-0.052-0.214-0.105-0.295
				c-0.054-0.081-0.123-0.14-0.209-0.177c-0.086-0.037-0.177-0.049-0.274-0.035c-0.138,0.019-0.251,0.081-0.337,0.187
				C101.084,655.773,101.057,655.933,101.089,656.148L101.089,656.148z M102.658,656.632l-0.267-1.418l0.652-0.114
				c0.131-0.023,0.233-0.028,0.306-0.014c0.073,0.013,0.136,0.049,0.189,0.107c0.053,0.057,0.087,0.124,0.101,0.203
				c0.019,0.101,0.001,0.191-0.053,0.272c-0.054,0.081-0.151,0.143-0.288,0.186c0.056,0.015,0.1,0.032,0.131,0.05
				c0.066,0.04,0.132,0.094,0.197,0.16l0.328,0.341l-0.245,0.043l-0.25-0.261c-0.073-0.076-0.132-0.132-0.177-0.171
				c-0.046-0.039-0.084-0.064-0.117-0.077c-0.033-0.013-0.064-0.021-0.096-0.022c-0.023-0.001-0.059,0.004-0.11,0.012l-0.226,0.04
				l0.118,0.629L102.658,656.632z M102.703,655.805l0.418-0.073c0.089-0.016,0.157-0.037,0.204-0.063
				c0.047-0.027,0.079-0.062,0.098-0.106c0.019-0.043,0.024-0.088,0.015-0.134c-0.012-0.067-0.048-0.118-0.107-0.152
				c-0.059-0.034-0.142-0.042-0.251-0.023l-0.465,0.081L102.703,655.805z M105.062,655.648l0.203,0.005
				c-0.005,0.162-0.05,0.294-0.136,0.397c-0.086,0.103-0.205,0.171-0.357,0.204c-0.157,0.034-0.292,0.032-0.405-0.009
				c-0.113-0.04-0.208-0.113-0.287-0.219c-0.078-0.105-0.134-0.226-0.165-0.36c-0.034-0.146-0.035-0.28-0.002-0.402
				c0.032-0.122,0.096-0.223,0.189-0.302c0.094-0.08,0.205-0.134,0.333-0.162c0.146-0.032,0.277-0.022,0.393,0.028
				c0.116,0.05,0.209,0.136,0.278,0.257l-0.179,0.084c-0.058-0.095-0.124-0.158-0.199-0.191c-0.076-0.033-0.162-0.039-0.259-0.018
				c-0.112,0.025-0.2,0.07-0.262,0.138c-0.063,0.068-0.1,0.149-0.11,0.243c-0.01,0.094-0.004,0.187,0.018,0.279
				c0.028,0.12,0.07,0.22,0.127,0.302c0.057,0.081,0.128,0.135,0.215,0.163c0.086,0.027,0.174,0.032,0.263,0.012
				c0.108-0.023,0.193-0.073,0.254-0.149C105.033,655.873,105.063,655.773,105.062,655.648L105.062,655.648z M105.611,656.04
				l-0.402-1.388l1.04-0.28l0.047,0.164l-0.85,0.229l0.123,0.425l0.796-0.214l0.047,0.163l-0.796,0.214l0.137,0.472l0.884-0.238
				l0.047,0.164L105.611,656.04z"/>
			<path id="_x31_" fill="none" d="M81.551,655.522c0,0,4.637,1.72,12.911,1.72c8.31,0,12.912-1.72,12.912-1.72"/>
		</g>
	</g>
</switch>
</svg>