<?xml version="1.0" encoding="utf-8"?>
<svg version="1.1" id="Countryflags.com" width = "100%" height = "100%"
	 xmlns="http://www.w3.org/2000/svg" xmlns:xlink="http://www.w3.org/1999/xlink" x="0px" y="0px" viewBox="194.5 646.5 300 150"
	 enable-background="new 194.5 646.5 300 150" xml:space="preserve">
<switch>
	<g>
		<g>
			<rect id="_x37_" x="194.5" y="646.5" fill="#0073CF" width="300" height="150"/>
			<rect id="_x36_" x="194.5" y="696.5" fill="#FFFFFF" width="300" height="50"/>
			<polygon id="_x35_" fill="#0073CF" points="336.575,718.925 341.473,722.483 339.602,728.242 344.5,724.683 349.398,728.242 
				347.527,722.483 352.426,718.925 346.371,718.925 344.5,713.167 342.629,718.925 			"/>
			<polygon id="_x34_" fill="#0073CF" points="378.241,705.591 383.14,709.15 381.269,714.908 386.167,711.349 391.065,714.908 
				389.194,709.15 394.093,705.591 388.038,705.591 386.167,699.833 384.296,705.591 			"/>
			<polygon id="_x33_" fill="#0073CF" points="378.241,730.591 383.14,734.15 381.269,739.908 386.167,736.349 391.065,739.908 
				389.194,734.15 394.093,730.591 388.038,730.591 386.167,724.833 384.296,730.591 			"/>
			<polygon id="_x32_" fill="#0073CF" points="294.908,730.591 299.806,734.15 297.935,739.908 302.834,736.349 307.732,739.908 
				305.861,734.15 310.759,730.591 304.704,730.591 302.834,724.833 300.963,730.591 			"/>
			<polygon id="_x31_" fill="#0073CF" points="294.908,705.591 299.806,709.15 297.935,714.908 302.834,711.349 307.732,714.908 
				305.861,709.15 310.759,705.591 304.704,705.591 302.834,699.833 300.963,705.591 			"/>
		</g>
	</g>
</switch>
</svg>