<?xml version="1.0" encoding="utf-8"?>
<svg version="1.1" id="Countryflags.com" width = "100%" height = "100%"
	 xmlns="http://www.w3.org/2000/svg" xmlns:xlink="http://www.w3.org/1999/xlink" x="0px" y="0px" viewBox="1094.5 1096.5 300 150"
	 enable-background="new 1094.5 1096.5 300 150" xml:space="preserve">
<switch>
	<g>
		<g>
			<rect id="_x31_1" x="1094.5" y="1096.5" fill="#CC0001" width="300" height="150"/>
			<rect id="_x31_0" x="1094.5" y="1235.786" fill="#FFFFFF" width="300" height="10.714"/>
			<rect id="_x39_" x="1094.5" y="1214.357" fill="#FFFFFF" width="300" height="10.714"/>
			<rect id="_x38_" x="1094.5" y="1192.928" fill="#FFFFFF" width="300" height="10.714"/>
			<rect id="_x37_" x="1094.5" y="1171.5" fill="#FFFFFF" width="300" height="10.714"/>
			<rect id="_x36_" x="1094.5" y="1150.071" fill="#FFFFFF" width="300" height="10.714"/>
			<rect id="_x35_" x="1094.5" y="1128.643" fill="#FFFFFF" width="300" height="10.714"/>
			<rect id="_x34_" x="1094.5" y="1107.214" fill="#FFFFFF" width="300" height="10.714"/>
			<rect id="_x33_" x="1094.5" y="1096.5" fill="#010066" width="150" height="85.714"/>
			<path id="_x32_" fill="#FFCC00" d="M1156.214,1107.214c-17.801,0-32.25,14.401-32.25,32.143c0,17.742,14.449,32.143,32.25,32.143
				c6.431,0,12.424-1.882,17.457-5.12c-2.931,1.011-6.076,1.565-9.351,1.565c-15.785,0-28.596-12.768-28.596-28.501
				c0-15.733,12.811-28.501,28.596-28.501c3.488,0,6.83,0.623,9.922,1.764C1169.095,1109.24,1162.89,1107.214,1156.214,1107.214z"/>
			<path id="_x31_" fill="#FFCC00" d="M1209.697,1156.09l-13.585-7.088l4.016,14.506l-9.086-12.134l-2.835,14.769l-2.788-14.777
				l-9.124,12.107l4.063-14.494l-13.607,7.047l10.108-11.339l-15.395,0.591l14.152-5.939l-14.133-5.982l15.393,0.637l-10.072-11.37
				l13.585,7.088l-4.016-14.506l9.086,12.134l2.835-14.769l2.788,14.777l9.124-12.107l-4.063,14.494l13.607-7.047l-10.108,11.339
				l15.395-0.591l-14.152,5.939l14.133,5.982l-15.393-0.638L1209.697,1156.09z"/>
		</g>
	</g>
</switch>
</svg>