<?xml version="1.0" encoding="utf-8"?>
<svg version="1.1" id="Countryflags.com" width = "100%" height = "100%"
	 xmlns="http://www.w3.org/2000/svg" xmlns:xlink="http://www.w3.org/1999/xlink" x="0px" y="0px" viewBox="144.5 696.5 300 200"
	 enable-background="new 144.5 696.5 300 200" xml:space="preserve">
<switch>
	<g>
		<g>
			<rect id="_x33_7" x="144.5" y="696.5" width="300" height="200"/>
			<circle id="_x33_6" fill="#CE1126" cx="294.5" cy="772.5" r="43"/>
			<rect id="_x33_5" x="144.5" y="763.166" fill="#CE1126" width="300" height="66.667"/>
			<path id="_x33_4" fill="#CE1126" d="M294.5,704.5c-1.467,0-2,2.2-2,4.333c0,5.333,0.667,8,2,15.667c1.36-7.667,2-10.4,2-15.667
				C296.5,706.633,295.834,704.5,294.5,704.5"/>
			<path id="_x33_3" fill="#CE1126" d="M300.427,704.759c-1.461-0.128-2.184,2.017-2.37,4.143
				c-0.465,5.313-0.033,8.028,0.627,15.781c2.023-7.519,2.899-10.186,3.358-15.433C302.233,707.058,301.755,704.875,300.427,704.759
				"/>
			<path id="_x33_2" fill="#CE1126" d="M306.308,705.533c-1.444-0.255-2.352,1.819-2.722,3.92
				c-0.926,5.252-0.733,7.994-0.751,15.776c2.671-7.314,3.776-9.895,4.69-15.081C307.907,707.981,307.621,705.764,306.308,705.533"
				/>
			<path id="_x33_1" fill="#CE1126" d="M312.1,706.817c-1.417-0.38-2.501,1.607-3.053,3.668c-1.381,5.152-1.427,7.9-2.123,15.651
				c3.298-7.053,4.624-9.528,5.987-14.615C313.479,709.395,313.388,707.162,312.1,706.817"/>
			<path id="_x33_0" fill="#CE1126" d="M317.757,708.601c-1.378-0.502-2.632,1.383-3.361,3.388
				c-1.824,5.012-2.11,7.745-3.479,15.406c3.9-6.739,5.436-9.089,7.238-14.038C318.907,711.289,319.01,709.057,317.757,708.601"/>
			<path id="_x32_9" fill="#CE1126" d="M323.238,710.871c-1.329-0.62-2.743,1.149-3.644,3.082
				c-2.254,4.834-2.776,7.532-4.808,15.044c4.473-6.374,6.208-8.58,8.434-13.354C324.149,713.649,324.447,711.434,323.238,710.871"
				/>
			<path id="_x32_8" fill="#CE1126" d="M328.5,713.61c-1.27-0.733-2.832,0.905-3.899,2.753c-2.667,4.619-3.423,7.261-6.101,14.568
				c5.011-5.96,6.932-8.007,9.565-12.568C329.166,716.458,329.655,714.277,328.5,713.61"/>
			<path id="_x32_7" fill="#CE1126" d="M333.503,716.798c-1.201-0.841-2.9,0.655-4.124,2.402c-3.059,4.369-4.043,6.936-7.348,13.98
				c5.511-5.5,7.604-7.372,10.624-11.686C333.918,719.692,334.596,717.562,333.503,716.798"/>
			<path id="_x32_6" fill="#CE1126" d="M338.21,720.409c-1.123-0.943-2.946,0.4-4.317,2.034c-3.428,4.086-4.632,6.557-8.538,13.287
				c5.97-4.999,8.217-6.681,11.603-10.716C338.37,723.329,339.231,721.266,338.21,720.409"/>
			<path id="_x32_5" fill="#CE1126" d="M342.583,724.417c-1.037-1.037-2.97,0.141-4.478,1.65c-3.771,3.771-5.186,6.128-9.664,12.492
				c6.383-4.459,8.768-5.94,12.492-9.664C342.489,727.339,343.526,725.359,342.583,724.417"/>
			<path id="_x32_4" fill="#CE1126" d="M346.591,728.79c-0.943-1.124-2.971-0.118-4.605,1.253c-4.086,3.428-5.7,5.653-10.716,11.602
				c6.747-3.886,9.253-5.153,13.287-8.538C346.242,731.694,347.448,729.812,346.591,728.79"/>
			<path id="_x32_3" fill="#CE1126" d="M350.202,733.497c-0.841-1.201-2.949-0.376-4.697,0.847
				c-4.368,3.059-6.171,5.135-11.686,10.624c7.06-3.284,9.666-4.327,13.981-7.348C349.602,736.359,350.967,734.589,350.202,733.497"
				/>
			<path id="_x32_2" fill="#CE1126" d="M353.39,738.5c-0.733-1.27-2.905-0.632-4.753,0.435c-4.619,2.667-6.595,4.577-12.568,9.565
				c7.32-2.656,10.007-3.468,14.568-6.101C352.542,741.299,354.057,739.655,353.39,738.5"/>
			<path id="_x32_1" fill="#CE1126" d="M356.129,743.762c-0.62-1.329-2.839-0.883-4.773,0.019
				c-4.834,2.254-6.969,3.985-13.354,8.434c7.523-2.008,10.271-2.583,15.044-4.809C355.041,746.476,356.693,744.97,356.129,743.762"
				/>
			<path id="_x32_0" fill="#CE1126" d="M358.399,749.243c-0.502-1.378-2.752-1.127-4.756-0.397
				c-5.012,1.824-7.289,3.363-14.038,7.238c7.669-1.344,10.457-1.677,15.406-3.479C357.079,751.852,358.855,750.496,358.399,749.243
				"/>
			<path id="_x31_9" fill="#CE1126" d="M360.183,754.9c-0.38-1.417-2.643-1.362-4.703-0.81c-5.152,1.38-7.555,2.715-14.615,5.987
				c7.757-0.671,10.563-0.76,15.65-2.123C358.64,757.384,360.528,756.188,360.183,754.9"/>
			<path id="_x31_8" fill="#CE1126" d="M227.533,760.692c-0.255,1.444,1.819,2.352,3.92,2.722c5.252,0.926,7.994,0.733,15.776,0.751
				c-7.314-2.671-9.895-3.776-15.081-4.69C229.981,759.093,227.765,759.379,227.533,760.692"/>
			<path id="_x31_7" fill="#CE1126" d="M228.817,754.9c-0.38,1.417,1.607,2.501,3.668,3.053c5.152,1.38,7.9,1.427,15.65,2.123
				c-7.053-3.298-9.528-4.624-14.615-5.987C231.395,753.521,229.162,753.612,228.817,754.9"/>
			<path id="_x31_6" fill="#CE1126" d="M230.601,749.243c-0.502,1.378,1.383,2.632,3.388,3.361c5.011,1.824,7.745,2.11,15.406,3.479
				c-6.739-3.9-9.089-5.436-14.038-7.238C233.29,748.093,231.057,747.99,230.601,749.243"/>
			<path id="_x31_5" fill="#CE1126" d="M232.871,743.762c-0.62,1.329,1.148,2.743,3.082,3.644c4.834,2.254,7.532,2.777,15.044,4.809
				c-6.373-4.473-8.58-6.208-13.354-8.434C235.65,742.851,233.435,742.553,232.871,743.762"/>
			<path id="_x31_4" fill="#CE1126" d="M235.611,738.5c-0.733,1.27,0.905,2.832,2.753,3.899c4.619,2.667,7.261,3.423,14.568,6.101
				c-5.96-5.011-8.007-6.932-12.568-9.565C238.458,737.834,236.277,737.345,235.611,738.5"/>
			<path id="_x31_3" fill="#CE1126" d="M238.798,733.497c-0.841,1.201,0.655,2.9,2.403,4.124c4.369,3.059,6.936,4.042,13.98,7.348
				c-5.5-5.511-7.372-7.604-11.686-10.624C241.693,733.082,239.563,732.404,238.798,733.497"/>
			<path id="_x31_2" fill="#CE1126" d="M242.409,728.79c-0.943,1.123,0.4,2.946,2.034,4.317c4.086,3.428,6.557,4.631,13.287,8.538
				c-4.999-5.97-6.681-8.217-10.716-11.602C245.329,728.63,243.266,727.769,242.409,728.79"/>
			<path id="_x31_1" fill="#CE1126" d="M246.417,724.417c-1.037,1.037,0.141,2.97,1.65,4.478c3.771,3.771,6.128,5.186,12.492,9.664
				c-4.46-6.383-5.94-8.768-9.664-12.492C249.34,724.511,247.36,723.474,246.417,724.417"/>
			<path id="_x31_0" fill="#CE1126" d="M250.791,720.409c-1.124,0.943-0.118,2.971,1.253,4.605c3.428,4.085,5.653,5.7,11.603,10.716
				c-3.886-6.747-5.153-9.252-8.538-13.287C253.694,720.758,251.812,719.552,250.791,720.409"/>
			<path id="_x39_" fill="#CE1126" d="M255.497,716.798c-1.202,0.841-0.376,2.949,0.847,4.697
				c3.059,4.369,5.134,6.171,10.624,11.686c-3.283-7.06-4.327-9.666-7.348-13.98C258.359,717.398,256.589,716.033,255.497,716.798"
				/>
			<path id="_x38_" fill="#CE1126" d="M260.5,713.61c-1.27,0.733-0.632,2.905,0.435,4.753c2.667,4.619,4.577,6.595,9.565,12.568
				c-2.656-7.32-3.468-10.007-6.101-14.568C263.299,714.458,261.655,712.943,260.5,713.61"/>
			<path id="_x37_" fill="#CE1126" d="M265.762,710.871c-1.329,0.62-0.883,2.839,0.019,4.773c2.254,4.833,3.985,6.968,8.434,13.354
				c-2.008-7.523-2.583-10.271-4.808-15.044C268.476,711.959,266.971,710.307,265.762,710.871"/>
			<path id="_x36_" fill="#CE1126" d="M271.243,708.601c-1.378,0.502-1.127,2.751-0.397,4.756c1.824,5.012,3.363,7.289,7.238,14.038
				c-1.344-7.67-1.678-10.457-3.479-15.406C273.852,709.921,272.496,708.145,271.243,708.601"/>
			<path id="_x35_" fill="#CE1126" d="M276.9,706.817c-1.417,0.38-1.362,2.643-0.81,4.703c1.381,5.152,2.715,7.555,5.987,14.615
				c-0.671-7.757-0.76-10.563-2.123-15.651C279.384,708.36,278.188,706.472,276.9,706.817"/>
			<path id="_x34_" fill="#CE1126" d="M282.692,705.533c-1.444,0.255-1.588,2.514-1.217,4.615c0.926,5.252,2.046,7.763,4.69,15.081
				c0.008-7.786,0.164-10.589-0.751-15.776C285.032,707.287,284.005,705.302,282.692,705.533"/>
			<path id="_x33_" fill="#CE1126" d="M288.573,704.759c-1.461,0.128-1.8,2.366-1.615,4.491c0.465,5.313,1.361,7.911,3.358,15.433
				c0.687-7.756,1.086-10.534,0.627-15.781C290.752,706.709,289.902,704.642,288.573,704.759"/>
			<rect id="_x32_" x="144.5" y="758.166" width="300" height="5"/>
			<rect id="_x31_" x="144.5" y="829.833" fill="#339E35" width="300" height="66.667"/>
		</g>
	</g>
</switch>
</svg>