<?xml version="1.0" encoding="utf-8"?>
<svg version="1.1" width = "100%" height = "100%"
	 id="Countryflags.com"  xmlns:svg="http://www.w3.org/2000/svg"
	 xmlns="http://www.w3.org/2000/svg" xmlns:xlink="http://www.w3.org/1999/xlink" x="0px" y="0px" viewBox="144.5 696.5 300 200"
	 enable-background="new 144.5 696.5 300 200" xml:space="preserve">
<switch>
	<g>
		<g>
			<rect id="_x34_4" x="294.5" y="696.5" fill="#CF142B" width="150" height="200"/>
			<rect id="_x34_3" x="144.5" y="696.5" fill="#FFFFFF" width="150" height="200"/>
			<path id="_x34_2" fill="#F1EEEE" d="M178.006,726.996c0,0.33-0.373,0.597-0.834,0.597c-0.461,0-0.834-0.267-0.834-0.597
				s0.373-0.597,0.834-0.597C177.633,726.398,178.006,726.665,178.006,726.996z"/>
			<path id="_x34_1" fill="#E60D2E" d="M151.907,724.109v15.152h15.152c0,2.524,2.525,5.05,5.051,5.05v15.151h15.151v-15.151
				c2.525,0,5.051-2.525,5.051-5.05h15.152v-15.152h-15.152c0-2.525-2.525-5.05-5.051-5.05v-15.152H172.11v15.152
				c-2.525,0-5.051,2.525-5.051,5.05H151.907z"/>
			<path id="_x34_0" fill="#96877D" d="M152.918,725.119v13.132h15.151c0,2.524,2.525,5.05,5.051,5.05v15.151h13.131v-15.151
				c2.525,0,5.051-2.526,5.051-5.05h15.151v-13.132h-15.151c0-2.524-2.525-5.05-5.051-5.05v-15.151H173.12v15.151
				c-2.526,0-5.051,2.526-5.051,5.05H152.918z"/>
			<path id="_x33_9" fill="#CCCCCC" d="M153.423,725.624v12.121h15.151c0,2.525,2.525,5.051,5.051,5.051v15.151h12.121v-15.151
				c2.525,0,5.051-2.526,5.051-5.051h15.151v-12.121h-15.151c0-2.525-2.525-5.05-5.051-5.05v-15.151h-12.121v15.151
				c-2.525,0-5.051,2.525-5.051,5.05H153.423z"/>
			<path id="_x33_8" fill="#96877D" d="M172.679,720.393c0.888,0.888,0.648,2.566-0.536,3.75c-1.184,1.183-2.862,1.423-3.75,0.536
				c-0.887-0.888-0.647-2.567,0.536-3.75C170.112,719.746,171.791,719.506,172.679,720.393z"/>
			<path id="_x33_7" fill="#D0D0D0" d="M168.215,723.072l0.357-0.357l1.428,0.714L169.286,722l0.357-0.357l1.428,2.857
				L168.215,723.072L168.215,723.072z"/>
			
				<rect id="_x33_6" x="171.355" y="720.306" transform="matrix(-0.7071 0.7071 -0.7071 -0.7071 803.3571 1110.882)" fill="#D0D0D0" width="0.505" height="3.031"/>
			<path id="_x33_5" fill="#96877D" d="M190.977,724.679c-0.888,0.888-2.566,0.648-3.75-0.536c-1.183-1.183-1.423-2.862-0.535-3.75
				c0.887-0.888,2.566-0.648,3.75,0.535C191.625,722.112,191.865,723.791,190.977,724.679z"/>
			<path id="_x33_4" fill="#D0D0D0" d="M188.299,720.215l0.357,0.357l-0.714,1.429l1.429-0.714l0.357,0.357l-2.857,1.429
				L188.299,720.215L188.299,720.215z"/>
			
				<rect id="_x33_3" x="189.296" y="722.092" transform="matrix(-0.7071 -0.7071 0.7071 -0.7071 -188.0905 1369.3048)" fill="#D0D0D0" width="0.505" height="3.03"/>
			<path id="_x33_2" fill="#96877D" d="M186.692,742.978c-0.887-0.888-0.648-2.566,0.536-3.75c1.183-1.183,2.862-1.423,3.75-0.536
				c0.888,0.887,0.648,2.566-0.535,3.75C189.258,743.625,187.579,743.865,186.692,742.978L186.692,742.978z"/>
			<path id="_x33_1" fill="#D0D0D0" d="M191.156,740.3l-0.357,0.357l-1.428-0.714l0.714,1.428l-0.357,0.357l-1.428-2.857
				L191.156,740.3L191.156,740.3z"/>
			
				<rect id="_x33_0" x="187.511" y="740.034" transform="matrix(0.7071 -0.7071 0.7071 0.7071 -469.3601 349.9635)" fill="#D0D0D0" width="0.505" height="3.031"/>
			<path id="_x32_9" fill="#96877D" d="M168.393,738.692c0.888-0.887,2.566-0.648,3.75,0.536c1.184,1.183,1.424,2.862,0.536,3.75
				c-0.888,0.888-2.566,0.648-3.75-0.536C167.745,741.259,167.505,739.58,168.393,738.692L168.393,738.692z"/>
			<path id="_x32_8" fill="#D0D0D0" d="M171.072,743.157l-0.357-0.357l0.714-1.429L170,742.085l-0.357-0.357l2.857-1.429
				L171.072,743.157L171.072,743.157z"/>
			
				<rect id="_x32_7" x="169.569" y="738.249" transform="matrix(0.7071 0.7071 -0.7071 0.7071 572.8273 96.587)" fill="#D0D0D0" width="0.505" height="3.03"/>
			<path id="_x32_6" fill="none" stroke="#96877D" stroke-width="0.1715" d="M190.291,731.685
				c0.001,5.859-4.747,10.609-10.606,10.609c-5.858,0-10.607-4.75-10.606-10.609c-0.001-5.858,4.747-10.608,10.606-10.608
				C185.544,721.077,190.293,725.827,190.291,731.685L190.291,731.685z"/>
			<path id="_x32_5" fill="none" stroke="#96877D" stroke-width="0.1715" d="M187.766,731.686c0.001,4.464-3.617,8.083-8.081,8.083
				c-4.464,0-8.082-3.619-8.081-8.083c-0.001-4.464,3.617-8.083,8.081-8.083C184.149,723.603,187.767,727.222,187.766,731.686
				L187.766,731.686z"/>
			<path id="_x32_4" d="M176.15,740.272c0,0.18-0.096,0.347-0.252,0.438c-0.157,0.091-0.349,0.091-0.506,0
				c-0.157-0.091-0.253-0.258-0.252-0.438c0-0.181,0.096-0.348,0.252-0.438c0.156-0.09,0.349-0.09,0.506,0
				C176.054,739.924,176.15,740.091,176.15,740.272L176.15,740.272z"/>
			<path id="_x32_3" d="M184.231,740.272c0,0.18-0.096,0.347-0.253,0.438c-0.156,0.091-0.349,0.091-0.505,0
				c-0.157-0.091-0.253-0.258-0.252-0.438c0-0.181,0.096-0.348,0.252-0.438c0.156-0.09,0.349-0.09,0.505,0
				C184.135,739.924,184.231,740.091,184.231,740.272L184.231,740.272z"/>
			<path id="_x32_2" d="M179.349,740.272v0.526h-0.673c-0.673,0-0.673,0.527,0,0.527h0.673v0.527
				c0.002,0.546,0.588,0.612,0.631,0.046l0.043-0.569h0.673c0.673,0,0.673-0.527,0-0.527h-0.673v-0.527c0-0.527-0.674-0.527-0.674,0
				V740.272z"/>
			<path id="_x32_1" fill="#96877D" stroke="#000000" stroke-width="0.0676" d="M185.45,733.229c0.177-0.045,0.47-0.008,0.47-0.008
				s0.026,0.122-0.051,0.162c0.085,0.049,0.393,0.034,0.393,0.034s-0.12,0.092-0.179,0.128c0.111,0.011,0.248,0.154,0.248,0.154
				s-0.256,0.043-0.367-0.017c0.068,0.136,0.06,0.256,0.06,0.256s-0.414-0.103-0.563-0.376"/>
			<path id="_x32_0" fill="#96877D" stroke="#000000" stroke-width="0.0676" d="M184.758,732.998
				c-0.1,0.248-0.837-0.214-0.837-0.214s0.325,0.515,0.811,0.572"/>
			<path id="_x31_9" fill="#96877D" stroke="#000000" stroke-width="0.0676" d="M175.56,737.721h8.626l0.666-0.529l-1.11-0.598
				l-1.708-0.581l-0.683-0.376l-1.264,0.068l-1.059,0.563l-1.452,0.171l-0.341,0.393l-1.076,0.085l-1.691-0.034l2.818,0.444
				l-2.323-0.119L175.56,737.721z"/>
			<path id="_x31_8" fill="#96877D" stroke="#000000" stroke-width="0.0676" d="M180.207,735.244
				c-1.08-0.581-1.396,0.85-1.862,1.196c0.628,0.107,1.102-0.483,1.64-0.769c0.408,1.111,1.05,0.376,1.05,0.376
				s0.671,1.063,1.563,0.581c0.243,0.184,0.512,0.017,0.512,0.017s0.325,0.06,0.393-0.085c0.171,0.06,0.359-0.154,0.359-0.154
				s0.371,0.004,0.444-0.188c0.551,0.098,1.281-1.127,1.281-1.127l0.222-0.427l0.325-0.068c0,0,0.021-0.214-0.154-0.205
				c-0.004-0.128-0.115-0.196-0.273-0.171c0.03-0.077-0.085-0.136-0.085-0.136c-0.307,0.077-0.325,0.854-0.325,0.854
				s-0.538,0.41-0.734,0.512c-0.008-0.444-0.752-1.046-0.598-1.332c0.154-0.286,0.636,0.44,1.059,0.307
				c0.423-0.133,0.63-0.682,0.649-1.11c-0.12-0.29-0.41-0.769-0.41-0.769l-0.273-0.017l-0.239-0.581c0,0-0.504,0.329-0.495,0.615
				c0.009,0.286,0.53,0.529,0.53,0.529s-0.3,0.188-0.581,0.102c-0.026,0.29,0.341,0.235,0.478,0.239
				c0.068,0.209,0.273,0.325,0.273,0.325s0.128,0.32-0.205,0.29c-0.333-0.03-0.726-0.798-1.196-0.444
				c-0.5,0.376,0.222,1.059,0.222,1.059s-0.44,0.23-0.7,0.82C182.013,734.587,181.389,735.005,180.207,735.244z"/>
			<path id="_x31_7" fill="#96877D" stroke="#000000" stroke-width="0.0676" d="M178.652,733.724
				c0.444,0.418,0.134,1.114,0.307,1.247c0.184,0.141,0.444-0.068,0.444-0.068c0.465,0.124,1.298-0.136,1.298-0.136
				c0.367,0.205,0.222-0.098,0.444-0.086c0.196,0.504,0.854,0.41,0.854,0.41s-0.602-0.615-0.974-0.786
				c-0.286,0.171-1.119,0.196-1.264,0.171c-0.162-0.029-0.06-0.227-0.136-0.342c0.306-0.298,0.064-1.038-0.103-1.315
				C178.845,732.367,178.034,733.141,178.652,733.724L178.652,733.724z"/>
			<path id="_x31_6" fill="#96877D" stroke="#000000" stroke-width="0.0676" d="M175.7,732.472
				c-0.559,0.151-1.528-0.722-1.981-0.386c-0.453,0.335-0.242,1.159,0.06,1.57c0.295,0.401-0.432,0.547-0.628,0.785
				c-0.185,0.224,0.06,0.483,0.06,0.483l0.205,0.133l-0.036,0.302l0.109,0.362c0,0,0.1,0.088,0.133-0.024
				c0.093,0.094,0.01,0.365,0.242,0.399c-0.083-0.174,0.06-0.652,0.06-0.652s0.405,0.03,0.507-0.145
				c0.103-0.175-0.097-0.556-0.097-0.556h0.121c-0.136-0.093-0.181-0.374-0.181-0.374s0.562-0.178,0.556-0.604
				c-0.006-0.426-0.912-0.879-0.58-1.099c0.368-0.245,1.008,0.634,1.558,0.23c0.544-0.4,0.193-0.012,0.193-0.012
				S176.25,732.323,175.7,732.472z"/>
			<path id="_x31_5" fill="#96877D" stroke="#000000" stroke-width="0.0676" d="M178.584,726.49
				c-0.747-0.312-2.274-0.331-3.126-0.752c-0.373,0.023-0.54,0.318-0.555,0.436c-0.391-0.019-0.655,0.596-0.598,0.717
				c-0.711-0.288-1.042,0.837-0.811,1.068c-0.606,0.025-0.532,0.8-0.589,1.016c-0.194,0.472,0.043,0.631,0.427,0.461
				c0.058,0.205-0.023,0.32-0.197,0.359c1.053,1.204,1.647-0.741,2.571-0.734c1.153-0.338,1.606-0.905,1.606-0.905l0.452,0.06
				L178.584,726.49z"/>
			<path id="_x31_4" fill="#96877D" stroke="#000000" stroke-width="0.0676" stroke-linecap="round" d="M180.651,725.628
				c0,0.608-0.493,1.102-1.102,1.102c-0.608,0-1.102-0.494-1.102-1.102s0.493-1.102,1.102-1.102
				C180.157,724.526,180.651,725.019,180.651,725.628L180.651,725.628z"/>
			<path id="_x31_3" fill="#96877D" stroke="#000000" stroke-width="0.0676" d="M177.61,734.305
				c-0.683-0.124-1.815-0.833-1.93-1.759c0.636-2.498,3.918-1.193,4.202-3.072c-0.072-1.24,0.15-2.467,0.837-3.504
				c0.32-0.406,0.734-0.512,0.734-0.512s0.074,0.264-0.034,0.444c0.542-0.06,1.286,0.244,1.794,0.273
				c0.149,0.303,0.136,0.414,0.102,0.598c-0.034,0.184-0.239,0.137-0.239,0.137c-0.132,0.126-0.292,0.254-0.649,0.188
				c-0.269,0.205-0.837,0.256-0.837,0.256s1.187,1.251,0.991,1.64c0.248,0.115,0.615,0.666,0.615,0.666s0.812-0.427,1.076-0.82
				c0.47,0,1.238,0.491,1.623,0.547c0.47,0.38,0.939,0.769,0.939,0.769s-0.56,0.367-0.803-0.119
				c-0.295,0.026-0.931-0.679-1.811-0.461c-0.025,0.782-0.888,1.332-0.888,1.332s0.805-0.113,1.247,0.154
				c0.457,0.384,1.127,0.905,1.127,0.905l0.598,1.025c0,0-0.547,0.094-0.752-0.615c-0.205,0.572-0.214-0.354-1.025-0.786
				c-0.248,0.03-0.371,0.047-0.581-0.12c-0.585,0.158-1.277,0.499-2.101,0.41c-0.585,0.184-1.012,0.67-1.605,0.939
				c-0.594,0.269-0.769,0.137-0.769,0.137l-0.478,0.017c-0.069,0.288-0.03,0.726-0.29,0.803c0.167,0.179-0.119,0.944-0.41,1.076
				c0.137,0.491,0.537,0.641,0.956,0.888c0,0,0.371-0.171,0.615,0.051c0.243,0.222,0.495,0.854,0.495,0.854
				s-0.507,0.034-0.666-0.034c-0.16-0.068-0.175-0.235-0.358-0.188c-1.157-1.029-1.768-0.62-1.879-0.854
				C177.342,735.329,177.73,734.702,177.61,734.305L177.61,734.305z"/>
			<path id="_x31_2" fill="#96877D" stroke="#000000" stroke-width="0.0676" d="M174.83,729.718
				c0.061-0.076,0.483,0.084,0.483,0.084l0.773,0.483l1.57,1.015l0.556,0.809l-1.002-0.326l-1.389-1.196l-0.749-0.483
				C175.072,730.105,174.77,729.793,174.83,729.718z"/>
			<path id="_x31_1" fill="#96877D" stroke="#000000" stroke-width="0.0676" d="M184.118,732.289
				c-0.542-0.137-1.879,1.486-1.879,1.486l1.008,1.093C183.247,734.868,183.277,733.007,184.118,732.289z"/>
			<path id="_x31_0" fill="#96877D" stroke="#000000" stroke-width="0.0676" d="M177.508,727.763
				c-0.296,0.379-0.322,1.143,0.063,1.451c0.036,0.464,0.431,1.399,0.74,1.487c0.339,0.096,1.691,0.41,2.221,0.325
				c-0.102,0.858,0.572,1.547,1.196,1.998c-0.005,0.077-0.006,0.171,0.066,0.266c0.07,0.092,0.397,0.109,0.412,0.058
				c0.145,0.204,0.849,0.294,0.9,0.203c0.049-0.089-1.035-0.844-1.276-1.074c-0.204-0.381-0.591-1.231-0.683-1.913
				c-0.533-0.633-1.447-0.621-1.447-0.621l0.029-1.241l0.051-1.401l-0.495-0.256c0,0,0.1-0.045,0.154-0.102
				c0.12,0.051,0.346-0.19,0.376-0.258c0.114,0.04,0.217,0.04,0.237-0.021c0.018-0.054,0.038-0.293,0.079-0.417
				c0.374-0.329-0.054-1.027-0.626-1.038c-0.565-0.011-0.692,0.674-0.681,0.727c0.053,0.215,0.042,0.324,0,0.376
				c-0.042,0.053-0.239,0.171-0.239,0.171s-0.316-0.149-0.701,0c-0.384,0.149-0.815,0.35-0.837,0.598
				c-0.175,0.026-0.461,0.252-0.512,0.444c-0.154-0.03-0.354,0.098-0.683,0.632c-0.589,0.26-0.623,1.52-0.623,1.52
				s-0.159,0.232-0.166,0.354c-0.007,0.123,0.055,0.235,0.132,0.214c0.008,0.081,0.115,0.154,0.162,0.128
				c0.017,0.081,0.134,0.127,0.205,0.115c0.007,0.056,0.234,0.042,0.252-0.008c0.02-0.055-0.022-0.332,0.004-0.354
				c0.025-0.02,0.214,0.124,0.265,0.086c0.051-0.038-0.01-0.161-0.038-0.209c-0.026-0.043-0.188-0.09-0.227-0.29
				c-0.038-0.201,0.103-0.478,0.103-0.478s0.641-0.504,0.713-0.935C177.115,728.344,177.37,727.922,177.508,727.763L177.508,727.763
				z"/>
			<path id="_x39_" fill="#96877D" stroke="#000000" stroke-width="0.0676" d="M176.393,725.956
				c0.146-0.357,0.675-0.325,0.675-0.325s0.189-0.497,0.901-0.201c0.268-0.207,0.974,0.09,0.974,0.09s0.264-0.352,0.611-0.312
				c0.642,0.075,0.748,0.663,0.709,0.764c-0.351,0.089-0.96-0.286-1.422-0.179c-0.27,0.153-0.708,0.314-0.871,0.534
				C177.541,726.373,177.084,725.934,176.393,725.956L176.393,725.956z"/>
			<path id="_x38_" fill="#96877D" stroke="#000000" stroke-width="0.0676" d="M177.73,726.55c0.16-0.098,0.553-0.271,0.82-0.06
				c0.28,0.301,0.709,0.581,0.709,0.581l0.487,0.205l0.222,0.137l-0.145,2.229c-0.451-0.461-0.873-0.542-1.196-1.085
				c-0.173-0.233-0.041-0.792-0.341-1.161C177.984,727.026,177.664,726.776,177.73,726.55z"/>
			<path id="_x37_" fill="#96877D" stroke="#000000" stroke-width="0.0676" d="M178.9,727.194c0,0,0.255-0.048,0.326,0.012
				c0.089,0.03,0.175,0.056,0.199,0.133c0.097,0.029,0.163,0.078,0.163,0.151c0.09,0.024,0.127,0.187,0.127,0.187l-0.084,0.127
				c0,0-0.097-0.091-0.109-0.187c-0.061-0.03-0.196-0.062-0.23-0.151c-0.106-0.011-0.174-0.065-0.193-0.157
				C179.002,727.331,178.9,727.194,178.9,727.194z"/>
			<path id="_x36_" fill="#96877D" stroke="#000000" stroke-width="0.0676" d="M181.06,725.739
				c-0.145-0.162-0.401-0.043-0.401-0.043l-0.683,1.179l-0.299,0.248l-0.026,0.922l0.248,0.863l-0.085,0.666
				c0,0,0.344-0.323,0.384-0.504c0.038-0.173-0.128-0.734-0.128-0.734s-0.205-0.35,0.043-0.999
				C180.36,726.687,180.924,726.149,181.06,725.739L181.06,725.739z"/>
			<path id="_x35_" fill="#96877D" stroke="#000000" stroke-width="0.0676" d="M182.746,726.789c0,0-1.067,1.524-2.813,2.067
				c-0.482,0.116-0.307-1.127-0.307-1.127l-0.12,0.034c0,0-0.269,1.217,0.376,1.23c1.755-0.346,3.072-2.193,3.072-2.193
				L182.746,726.789z"/>
			<path id="_x34_" fill="#96877D" stroke="#000000" stroke-width="0.0676" d="M183.469,735.552c0,0-0.162,0.12-0.376,0
				c-0.111-0.256-0.41-0.273-0.41-0.273s-0.192-0.553-0.495-0.393c-0.047-0.286-0.376-0.137-0.376-0.137s-0.008-0.414-0.393-0.359
				c0.128-0.474-0.53-0.444-0.53-0.444s-0.021-0.534-0.991-0.427c2.088-0.935,3.741,1.469,3.741,1.469"/>
			<path id="_x33_" fill="#96877D" stroke="#000000" stroke-width="0.0676" d="M184.46,735.757c0,0,0.482,0.542,0.734,0.547
				c0.252,0.004,0.273-0.53,0.273-0.53s0.081,0.231,0.205,0.171c-0.013,0.162,0.154,0.205,0.154,0.205s-0.436,1.012-1.674,0.051"/>
			<path id="_x32_" fill="#96877D" stroke="#000000" stroke-width="0.0676" d="M180.685,735.962l-0.171,0.7
				c0,0-0.218,0.196-0.154,0.239c0.064,0.043,0.41-0.068,0.41-0.068s0.538-0.064,0.701-0.222c0.111,0.252,0.358,0.273,0.358,0.273
				s0.017-0.107-0.017-0.171c0.119,0.021,0.222-0.017,0.222-0.017s0.068-0.197-0.085-0.273c0.017-0.145,0.09-0.273-0.171-0.256
				c-0.192,0.205-0.666,0.44-0.786,0.359c-0.119-0.081,0.47-0.341,0.308-0.683"/>
			<path id="_x31_" d="M169.818,734.3l0.695-0.165l-0.077-0.322c-0.018-0.074-0.047-0.124-0.088-0.151
				c-0.041-0.026-0.111-0.034-0.21-0.022l-0.012-0.048l0.598-0.143l0.011,0.048c-0.068,0.017-0.117,0.038-0.145,0.063
				c-0.028,0.024-0.047,0.054-0.055,0.088c-0.009,0.034-0.007,0.08,0.008,0.139l0.077,0.322l0.555-0.132
				c0.089-0.022,0.147-0.041,0.173-0.059c0.02-0.014,0.034-0.036,0.043-0.068c0.012-0.043,0.012-0.086,0.003-0.127l-0.015-0.064
				l0.048-0.012l0.181,0.758l-0.048,0.012l-0.015-0.063c-0.018-0.073-0.051-0.121-0.102-0.144c-0.033-0.014-0.102-0.009-0.208,0.017
				l-1.142,0.272c-0.09,0.021-0.147,0.041-0.173,0.059c-0.02,0.014-0.034,0.036-0.043,0.067c-0.012,0.043-0.013,0.085-0.003,0.128
				l0.015,0.063l-0.048,0.011l-0.313-1.315l0.384-0.109l0.011,0.046c-0.077,0.042-0.132,0.083-0.163,0.122
				c-0.032,0.039-0.051,0.083-0.058,0.131c-0.007,0.048,0.001,0.118,0.022,0.21L169.818,734.3L169.818,734.3z M169.371,731.166
				c0.013-0.235,0.114-0.434,0.303-0.597c0.188-0.162,0.416-0.236,0.684-0.221c0.275,0.016,0.499,0.116,0.672,0.299
				c0.172,0.184,0.251,0.4,0.237,0.647c-0.014,0.25-0.115,0.454-0.301,0.614c-0.187,0.16-0.422,0.232-0.703,0.216
				c-0.288-0.016-0.518-0.127-0.688-0.334C169.425,731.612,169.357,731.403,169.371,731.166L169.371,731.166z M169.467,731.197
				c-0.009,0.162,0.044,0.296,0.159,0.401c0.143,0.13,0.359,0.204,0.647,0.22c0.296,0.017,0.528-0.034,0.694-0.151
				c0.127-0.09,0.195-0.215,0.203-0.375c0.01-0.171-0.049-0.315-0.175-0.433c-0.127-0.118-0.333-0.186-0.619-0.202
				c-0.31-0.017-0.545,0.031-0.704,0.144C169.545,730.892,169.477,731.024,169.467,731.197L169.467,731.197L169.467,731.197z
				 M172.098,727.88l-0.173,0.453l-1.012,0.272c-0.015,0.043-0.027,0.078-0.037,0.105c-0.004,0.011-0.009,0.022-0.014,0.035
				c-0.005,0.012-0.011,0.025-0.017,0.038l0.493,0.188c0.107,0.041,0.178,0.054,0.212,0.041c0.049-0.018,0.085-0.058,0.11-0.122
				l0.025-0.066l0.046,0.018l-0.277,0.728l-0.046-0.018l0.024-0.064c0.027-0.072,0.023-0.132-0.011-0.181
				c-0.019-0.027-0.077-0.06-0.174-0.096l-1.097-0.418c-0.107-0.041-0.177-0.054-0.212-0.041c-0.049,0.019-0.086,0.06-0.11,0.124
				l-0.024,0.064l-0.046-0.018l0.235-0.618c0.069-0.18,0.133-0.308,0.191-0.384c0.059-0.076,0.135-0.13,0.228-0.162
				c0.093-0.033,0.189-0.031,0.286,0.006c0.105,0.04,0.182,0.108,0.233,0.205c0.051,0.097,0.065,0.223,0.043,0.378l0.62-0.165
				c0.142-0.037,0.243-0.078,0.301-0.122c0.059-0.044,0.111-0.11,0.156-0.199L172.098,727.88z M170.767,728.754
				c0.006-0.016,0.012-0.03,0.017-0.041c0.005-0.012,0.008-0.021,0.011-0.029c0.062-0.162,0.073-0.297,0.034-0.406
				c-0.039-0.109-0.112-0.184-0.221-0.225c-0.106-0.04-0.205-0.04-0.297,0.001c-0.091,0.041-0.158,0.117-0.2,0.226
				c-0.019,0.049-0.035,0.117-0.051,0.206L170.767,728.754z M174.632,722.736l0.351,0.456l-0.039,0.025
				c-0.117-0.094-0.227-0.151-0.329-0.171c-0.147-0.029-0.292,0.003-0.435,0.095c-0.194,0.126-0.292,0.298-0.294,0.517
				c-0.001,0.185,0.057,0.367,0.173,0.546c0.094,0.146,0.208,0.26,0.342,0.343c0.134,0.084,0.265,0.124,0.392,0.121
				c0.127-0.003,0.239-0.036,0.335-0.098c0.056-0.036,0.106-0.079,0.149-0.127c0.043-0.048,0.08-0.102,0.111-0.161l-0.285-0.441
				c-0.049-0.076-0.088-0.123-0.115-0.139c-0.027-0.016-0.057-0.022-0.089-0.019c-0.032,0.003-0.079,0.025-0.141,0.065l-0.028-0.043
				l0.59-0.382l0.028,0.043l-0.028,0.018c-0.059,0.038-0.086,0.083-0.083,0.136c0.003,0.037,0.031,0.097,0.084,0.179l0.302,0.467
				c-0.056,0.102-0.119,0.191-0.189,0.268c-0.07,0.076-0.156,0.147-0.259,0.214c-0.295,0.191-0.58,0.241-0.855,0.151
				c-0.206-0.067-0.37-0.194-0.49-0.379c-0.087-0.134-0.138-0.284-0.153-0.448c-0.018-0.196,0.014-0.376,0.096-0.541
				c0.069-0.138,0.18-0.256,0.332-0.354c0.055-0.036,0.109-0.064,0.16-0.085c0.051-0.02,0.129-0.042,0.231-0.065
				c0.052-0.012,0.086-0.022,0.1-0.031c0.014-0.009,0.022-0.023,0.024-0.043c0.002-0.02-0.009-0.049-0.031-0.089L174.632,722.736
				L174.632,722.736z M177.59,722.941l-0.68,0.181l-0.045,0.309c-0.011,0.076-0.012,0.131-0.004,0.164
				c0.007,0.027,0.026,0.047,0.057,0.06c0.031,0.014,0.09,0.012,0.176-0.004l0.013,0.048l-0.553,0.147l-0.013-0.048
				c0.07-0.033,0.113-0.062,0.129-0.089c0.033-0.053,0.059-0.15,0.079-0.291l0.233-1.609l0.045-0.012l0.999,1.298
				c0.08,0.104,0.145,0.169,0.195,0.193c0.049,0.024,0.111,0.029,0.183,0.014l0.013,0.048l-0.692,0.184l-0.013-0.048
				c0.069-0.022,0.113-0.046,0.132-0.073c0.019-0.026,0.025-0.054,0.018-0.082c-0.01-0.038-0.043-0.093-0.1-0.166L177.59,722.941
				L177.59,722.941z M177.528,722.855l-0.487-0.63l-0.117,0.791L177.528,722.855z M180.735,722.845l0.044,0.011l-0.174,0.486
				l-1.406-0.055l0.002-0.049l0.068,0.003c0.077,0.003,0.133-0.02,0.168-0.068c0.02-0.028,0.032-0.094,0.036-0.197l0.046-1.171
				c0.005-0.113-0.005-0.185-0.029-0.214c-0.033-0.041-0.084-0.062-0.153-0.065l-0.068-0.003l0.002-0.049l0.822,0.032l-0.002,0.05
				c-0.096-0.005-0.164,0.002-0.204,0.019c-0.039,0.017-0.067,0.04-0.082,0.068c-0.015,0.028-0.025,0.096-0.029,0.204l-0.044,1.14
				c-0.003,0.074,0.002,0.125,0.015,0.153c0.01,0.019,0.026,0.034,0.048,0.044c0.022,0.01,0.091,0.017,0.208,0.022l0.133,0.005
				c0.139,0.005,0.237-0.001,0.295-0.02c0.057-0.018,0.11-0.053,0.158-0.103C180.635,723.037,180.684,722.956,180.735,722.845
				L180.735,722.845L180.735,722.845z M183.154,723.493l0.039,0.023l-0.302,0.419l-1.335-0.442l0.016-0.047l0.065,0.021
				c0.073,0.024,0.133,0.018,0.18-0.02c0.027-0.021,0.056-0.081,0.089-0.179l0.368-1.113c0.035-0.108,0.046-0.179,0.031-0.214
				c-0.021-0.049-0.064-0.083-0.129-0.105l-0.065-0.021l0.016-0.047l0.781,0.258l-0.016,0.047c-0.091-0.031-0.158-0.044-0.201-0.038
				c-0.043,0.005-0.076,0.02-0.098,0.042c-0.022,0.022-0.051,0.085-0.085,0.188l-0.358,1.084c-0.023,0.07-0.033,0.121-0.028,0.152
				c0.005,0.021,0.016,0.039,0.034,0.055c0.018,0.015,0.083,0.042,0.194,0.078l0.126,0.042c0.132,0.044,0.229,0.065,0.288,0.063
				c0.06-0.002,0.12-0.02,0.18-0.055C183.005,723.648,183.075,723.585,183.154,723.493L183.154,723.493L183.154,723.493z
				 M185.104,724.525l-0.574-0.407l-0.266,0.163c-0.066,0.04-0.108,0.074-0.129,0.103c-0.016,0.023-0.019,0.05-0.01,0.082
				c0.009,0.033,0.048,0.077,0.116,0.132l-0.029,0.04l-0.467-0.33l0.029-0.04c0.07,0.033,0.12,0.047,0.15,0.042
				c0.062-0.008,0.154-0.05,0.274-0.126l1.385-0.851l0.038,0.027l-0.357,1.599c-0.029,0.129-0.036,0.219-0.023,0.273
				c0.013,0.053,0.048,0.104,0.106,0.15l-0.029,0.041l-0.585-0.414l0.029-0.041c0.061,0.039,0.108,0.057,0.141,0.055
				c0.033-0.002,0.057-0.015,0.075-0.039c0.022-0.032,0.044-0.093,0.064-0.183L185.104,724.525L185.104,724.525z M185.13,724.423
				l0.173-0.777l-0.682,0.417L185.13,724.423z M187.285,724.819l0.294,0.396l-0.433,1.703l0.841-0.624
				c0.09-0.066,0.138-0.118,0.146-0.154c0.01-0.049-0.006-0.102-0.048-0.16l-0.037-0.051l0.04-0.029l0.376,0.508l-0.04,0.03
				l-0.038-0.052c-0.046-0.061-0.097-0.091-0.153-0.09c-0.035,0.001-0.093,0.032-0.174,0.093l-1.23,0.912l-0.029-0.039l0.462-1.833
				l-0.898,0.666c-0.09,0.066-0.139,0.118-0.146,0.153c-0.01,0.05,0.006,0.103,0.048,0.16l0.038,0.052l-0.04,0.029l-0.376-0.508
				l0.04-0.03l0.037,0.051c0.046,0.062,0.098,0.093,0.154,0.091c0.035-0.001,0.093-0.032,0.175-0.093l1.015-0.752
				c0.018-0.079,0.027-0.135,0.026-0.169c0-0.034-0.009-0.076-0.027-0.129c-0.009-0.026-0.029-0.06-0.061-0.102L187.285,724.819
				L187.285,724.819z M189.575,729.04l-0.395,0.161l-0.017-0.048c0.067-0.034,0.113-0.065,0.138-0.091
				c0.04-0.044,0.063-0.091,0.071-0.143c0.008-0.051-0.001-0.113-0.026-0.183l-0.085-0.241l-1.308,0.463
				c-0.105,0.037-0.167,0.072-0.185,0.104c-0.024,0.044-0.024,0.1-0.001,0.166l0.021,0.06l-0.047,0.016l-0.257-0.726l0.047-0.017
				l0.021,0.061c0.025,0.072,0.065,0.116,0.12,0.131c0.033,0.009,0.098-0.004,0.194-0.037l1.309-0.463l-0.073-0.206
				c-0.028-0.08-0.054-0.134-0.078-0.164c-0.031-0.038-0.076-0.065-0.132-0.08c-0.057-0.015-0.125-0.012-0.204,0.01l-0.017-0.048
				l0.409-0.122L189.575,729.04L189.575,729.04z M188.137,732.262l-0.025-0.484l0.816-0.658c-0.004-0.046-0.007-0.082-0.008-0.111
				c-0.001-0.011-0.001-0.024-0.001-0.037s0-0.027,0-0.042l-0.527,0.027c-0.114,0.006-0.184,0.022-0.211,0.049
				c-0.038,0.036-0.055,0.088-0.051,0.155l0.004,0.071l-0.049,0.003l-0.04-0.777l0.049-0.003l0.004,0.068
				c0.004,0.077,0.032,0.13,0.084,0.161c0.029,0.017,0.094,0.023,0.198,0.018l1.172-0.061c0.114-0.006,0.185-0.022,0.211-0.049
				c0.037-0.037,0.054-0.09,0.051-0.158l-0.004-0.068l0.049-0.003l0.035,0.661c0.01,0.192,0.003,0.335-0.02,0.428
				c-0.023,0.093-0.071,0.173-0.143,0.241c-0.072,0.068-0.16,0.104-0.265,0.11c-0.112,0.006-0.21-0.025-0.296-0.094
				c-0.086-0.068-0.15-0.178-0.192-0.328l-0.501,0.401c-0.115,0.092-0.19,0.17-0.227,0.233c-0.036,0.064-0.057,0.145-0.062,0.245
				L188.137,732.262L188.137,732.262z M189.003,730.926c0.001,0.017,0.001,0.032,0.002,0.044c0,0.012,0.001,0.022,0.001,0.031
				c0.009,0.173,0.053,0.301,0.132,0.385c0.079,0.084,0.177,0.123,0.293,0.117c0.113-0.006,0.203-0.046,0.271-0.12
				c0.067-0.075,0.098-0.171,0.092-0.287c-0.003-0.051-0.015-0.121-0.036-0.209L189.003,730.926L189.003,730.926z M189.501,734.662
				l-0.161,0.613l-0.048-0.013l0.009-0.034c0.006-0.022,0.005-0.058-0.004-0.106c-0.008-0.049-0.027-0.095-0.055-0.14
				c-0.028-0.045-0.077-0.105-0.147-0.178l-0.556-0.599l-0.44-0.116c-0.108-0.028-0.179-0.034-0.212-0.017
				c-0.045,0.023-0.077,0.07-0.095,0.141l-0.015,0.057l-0.048-0.013l0.196-0.746l0.048,0.013l-0.017,0.062
				c-0.02,0.074-0.011,0.133,0.026,0.176c0.023,0.026,0.083,0.052,0.182,0.078l0.416,0.109l0.862-0.289
				c0.102-0.034,0.166-0.059,0.192-0.074c0.027-0.015,0.064-0.05,0.111-0.106c0.013-0.015,0.024-0.039,0.033-0.072l0.048,0.013
				l-0.197,0.751l-0.048-0.012l0.01-0.039c0.011-0.04,0.011-0.08,0.001-0.119s-0.034-0.063-0.072-0.074
				c-0.031-0.008-0.094,0.004-0.189,0.035l-0.662,0.218l0.451,0.487c0.068,0.073,0.121,0.115,0.161,0.125
				c0.024,0.007,0.048,0.006,0.07-0.002c0.022-0.008,0.042-0.021,0.059-0.042c0.017-0.021,0.032-0.054,0.044-0.101L189.501,734.662
				L189.501,734.662z"/>
		</g>
	</g>
</switch>
</svg>