<?xml version="1.0" encoding="utf-8"?>
<svg version="1.1" id="Countryflags.com" width = "100%" height = "100%"
	 xmlns="http://www.w3.org/2000/svg" xmlns:xlink="http://www.w3.org/1999/xlink" x="0px" y="0px" viewBox="594.5 846.5 300 150"
	 enable-background="new 594.5 846.5 300 150" xml:space="preserve">
<switch>
	<g>
		<g>
			<rect id="_x38_9" x="594.5" y="846.5" fill="#CC092F" width="300" height="150"/>
			<rect id="_x38_8" x="594.5" y="846.5" fill="#FFD200" width="200" height="150"/>
			<rect id="_x38_7" x="594.5" y="846.5" fill="#0046AE" width="100" height="150"/>
			<polygon id="_x38_6" fill="#B07F55" points="730.584,935.16 731.977,935.057 732.099,936.245 733.38,935.703 733.727,937.34 
				736.552,934.477 740.48,936.413 733.025,949.698 730.369,951.662 735.157,953.458 740.068,947.733 739.358,951.493 
				737.898,955.142 743.877,958.585 750.37,954.75 747.178,948.052 748.217,947.575 752.427,953.673 757.012,951.4 751.052,944.432 
				747.132,936.048 751.267,934.683 754.084,937.386 754.503,935.628 755.992,936.348 755.803,934.88 757.3,935.206 
				755.477,932.316 760.107,928.433 763.033,937.583 767.35,942.513 768.267,942.4 771.4,946.273 771.367,892.605 765.584,886.515 
				759.957,891.098 760.192,896.038 757.665,896.131 753.905,898.058 751.8,898.75 750.809,898.947 749.517,897.543 
				747.787,894.081 747.673,890.668 748.74,888.441 748.544,886.336 749.5,886.355 748.89,884.933 749.733,884.596 748.47,883.483 
				748.91,882.968 744.138,880.92 740.498,880.677 739.517,881.107 739.04,881.997 740.003,884.718 738.974,885.747 739.994,887.74 
				740.032,892.108 739.217,895.795 737.58,898.581 736.72,898.91 734.67,898.441 730.377,896.178 727.664,896.028 727.477,890.77 
				722.275,886.59 716.972,892.315 716.213,893.998 716.457,946.086 719.89,941.933 720.61,942.112 724.155,938.275 727.169,930.68 
				728.057,927.526 732.117,932.325 			"/>
			<path id="_x38_5" d="M735.782,877.04c-0.537,0-1.006,0.137-1.28,0.35c0.435,0.127,0.751,0.528,0.751,1.016v1.237h-0.478h-0.759
				c-0.485,0-0.886-0.312-1.016-0.742c-0.213,0.274-0.35,0.743-0.35,1.28c0,0.537,0.137,1.007,0.35,1.28
				c0.127-0.435,0.528-0.751,1.016-0.751h0.759h0.478v0.478v3.856v1.612c0,0.467-0.292,0.855-0.7,0.998
				c0.59,0.08,1.098,0.872,1.237,1.305c0.139-0.432,0.647-1.225,1.237-1.305c-0.412-0.14-0.708-0.528-0.708-0.998v-2.782v-2.688
				v-0.478h0.478h0.759c0.484,0,0.886,0.312,1.015,0.743c0.213-0.274,0.35-0.743,0.35-1.28c0-0.537-0.137-1.006-0.35-1.28
				c-0.127,0.435-0.528,0.751-1.015,0.751h-0.759h-0.478v-1.237c0-0.485,0.312-0.886,0.742-1.016
				C736.788,877.177,736.319,877.04,735.782,877.04L735.782,877.04z"/>
			<path id="_x38_4" fill="#F5D402" d="M735.782,877.296c-0.28,0-0.526,0.052-0.734,0.119c0.277,0.241,0.461,0.591,0.461,0.99v1.237
				c0,0.018-0.005,0.034-0.009,0.051v0.196h-0.196c-0.017,0.003-0.034,0.008-0.051,0.009h-0.111h-0.367h-0.759
				c-0.395,0-0.74-0.18-0.981-0.452c-0.069,0.21-0.128,0.449-0.128,0.734c0,0.28,0.052,0.526,0.119,0.734
				c0.241-0.277,0.59-0.46,0.99-0.46h0.759h0.162h0.316h0.256c-0.002,0.026-0.009,0.05-0.009,0.076v0.128
				c0.004,0.017,0.009,0.034,0.009,0.051v0.478v3.856v1.612c0,0.386-0.199,0.69-0.461,0.93c0.187,0.115,0.348,0.261,0.486,0.427
				c0.123,0.147,0.172,0.292,0.256,0.443c0.084-0.151,0.133-0.296,0.256-0.443c0.136-0.163,0.295-0.303,0.478-0.418
				c-0.264-0.239-0.461-0.551-0.461-0.938v-2.782v-2.688v-0.068v-0.41v-0.247h0.205c0.017-0.003,0.034-0.008,0.051-0.008h0.478
				h0.759c0.394,0,0.74,0.18,0.981,0.452c0.069-0.21,0.128-0.449,0.128-0.734c0-0.279-0.052-0.526-0.12-0.734
				c-0.241,0.277-0.59,0.461-0.99,0.461h-0.759h-0.478c-0.018,0-0.035-0.005-0.051-0.009h-0.196v-0.196
				c-0.004-0.016-0.008-0.034-0.009-0.051v-1.237c0-0.395,0.181-0.74,0.452-0.981C736.305,877.355,736.066,877.296,735.782,877.296
				L735.782,877.296L735.782,877.296z"/>
			<polygon id="_x38_3" fill="#D10429" points="727.607,940.752 725.86,940.698 724.062,941.545 723.478,943.503 723.744,944.403 
				725.702,946.52 727.29,945.62 728.56,944.245 728.877,943.026 733.428,937.1 733.217,935.618 732.21,936.253 731.84,935.037 
				731.205,935.248 			"/>
			<polygon id="_x38_2" fill="#D10429" points="759.518,944.666 761.634,946.573 762.267,946.413 764.6,943.715 764.067,941.863 
				761.9,940.54 760.259,940.698 756.607,935.248 755.972,934.983 755.709,936.041 754.648,935.725 754.225,936.888 759.04,943.398 
							"/>
			<polygon id="_x38_1" points="728.063,945.158 730.763,946.632 730.108,949.636 727.408,948.163 			"/>
			<path id="_x38_0" d="M715.483,916.288l-0.973,0.444l10.989,24.07h1.169L715.483,916.288L715.483,916.288L715.483,916.288
				L715.483,916.288z M728.444,944.675l-0.793,0.819l0.495,1.092l0.964-0.444L728.444,944.675L728.444,944.675z"/>
			<polygon id="_x37_9" fill="#F5D402" points="728.452,946.01 730.127,946.924 729.72,948.788 728.045,947.874 			"/>
			<polygon id="_x37_8" fill="#0B45BB" points="743.747,938.37 750.417,934.718 758.247,931.015 759.73,928.738 759.73,915.985 
				727.977,915.933 728.03,928.898 728.983,930.433 735.015,933.767 742.742,937.311 			"/>
			<path id="_x37_7" fill="#D10429" d="M727.608,900.325l0.401,1.169l-0.094,14.889l0.555,0.614l4.582,0.546l4.957-0.725
				c0,0,2.878,0.445,4.864,0.751c0.002,0.01,0.06,0.299,0.06,0.299s0.72-0.11,0.947-0.145c0.223,0.034,0.938,0.145,0.938,0.145
				l0.06-0.299c1.985-0.307,4.864-0.751,4.864-0.751l4.957,0.725l4.582-0.546l0.555-0.614l-0.094-14.889l0.401-1.169l-5.486,0.042
				c0,0-6.27,0.062-10.776,0.111c-4.505-0.049-10.785-0.111-10.785-0.111L727.608,900.325L727.608,900.325L727.608,900.325
				L727.608,900.325z"/>
			<path id="_x37_6" d="M738.009,916.818c0,0-3.398-0.831-4.667-2.508c-2.219,1.996-4.872,2.688-4.872,2.688s2.768,1.25,4.872,2.841
				C734.311,918.449,738.009,916.818,738.009,916.818L738.009,916.818z"/>
			<path id="_x37_5" d="M749.74,916.818c0,0,3.698,1.631,4.667,3.021c2.104-1.592,4.872-2.841,4.872-2.841s-2.653-0.692-4.872-2.688
				C753.138,915.987,749.74,916.818,749.74,916.818L749.74,916.818z"/>
			<path id="_x37_4" d="M743.87,901.57l-0.956,2.714l-2.602-1.237l1.237,2.603l-2.713,0.964l2.713,0.964l-1.237,2.594l2.602-1.237
				l0.956,2.713l0.964-2.713l2.602,1.237l-1.237-2.594l2.713-0.964l-2.713-0.964l1.237-2.603l-2.602,1.237L743.87,901.57z"/>
			<polygon id="_x37_3" fill="#F5D402" points="738.44,921.783 739.377,920.772 740.423,921.82 739.452,922.793 			"/>
			<polygon id="_x37_2" fill="#F5D402" points="749.405,921.783 748.395,920.66 747.347,921.745 748.283,922.755 			"/>
			<polygon id="_x37_1" fill="#F5D402" points="747.272,923.878 746.787,924.963 746.748,927.956 747.535,929.64 748.582,930.09 
				748.434,926.16 749.143,923.428 			"/>
			<polygon id="_x37_0" fill="#F5D402" points="739.302,926.796 739.302,930.015 740.237,929.342 740.873,927.881 740.985,925.338 
				740.498,923.803 738.628,923.467 			"/>
			<polygon id="_x36_9" fill="#F5D402" points="752.248,930.763 752.212,928.816 753.858,926.573 755.803,926.123 753.634,925.075 
				751.539,925.525 750.454,926.796 750.34,928.855 751.875,930.651 			"/>
			<polygon id="_x36_8" fill="#F5D402" points="734.325,930.877 734.887,929.828 735.783,930.427 736.869,930.202 737.58,929.116 
				737.094,928.107 736.57,927.695 737.318,927.283 737.619,926.048 736.607,924.888 735.635,925.038 735.148,925.412 
				734.923,924.515 733.763,923.84 732.79,924.215 732.303,925.225 732.567,926.123 731.555,926.011 730.732,926.796 
				730.62,927.845 731.182,928.518 731.967,928.78 732.417,928.743 732.042,929.678 732.342,930.613 733.277,931.136 			"/>
			<path id="_x36_7" fill="#FFD200" d="M743.88,903.396l0.614,1.732l1.655-0.793l-0.785,1.664l1.724,0.615l-1.724,0.614l0.785,1.655
				l-1.655-0.785l-0.623,1.724l-0.614-1.724l-1.655,0.785l0.785-1.655l-1.724-0.614l1.724-0.615l-0.785-1.664l1.655,0.793
				L743.88,903.396L743.88,903.396z"/>
			<path id="_x36_6" d="M738.41,901.162c-0.157,1.096-5.674,3.375-5.674,7.969c0,5.882,5.503,7.27,5.503,7.27l-0.231,0.418
				l-1.339,2.44c0,0,2.274,0.114,3.481,1.143c1.456,1.241,1.314,3.872,1.314,5.785c0,1.507-0.19,3.098-0.964,3.754
				c-1.039,0.881-1.741,0.946-1.741,1.98c0,0.862,0.663,1.035,1.741,1.604c1.381,0.729,1.317,1.706,3.37,1.706
				c2.054,0,1.997-0.977,3.379-1.706c1.078-0.569,1.741-0.742,1.741-1.604c0-1.034-0.702-1.099-1.741-1.98
				c-0.774-0.656-0.964-2.247-0.964-3.754c0-1.913-0.142-4.543,1.314-5.785c1.207-1.029,3.481-1.143,3.481-1.143l-1.34-2.44
				l-0.23-0.418c0,0,5.503-1.388,5.503-7.27c0-4.594-5.517-6.873-5.674-7.969c-0.539,1.897,1.843,4.517,1.843,7.619
				c0,4.014-2.961,4.206-2.961,4.206c-0.693,0-0.974,0.495-1.246,0.495c-0.583-0.061-0.857-0.802-1.433-0.802
				c-0.541,0-0.957,0.836-1.672,0.836c-0.715,0-1.123-0.836-1.664-0.836c-0.576,0-0.85,0.741-1.433,0.802
				c-0.272,0-0.553-0.495-1.246-0.495c0,0-2.961-0.192-2.961-4.206C736.567,905.678,738.949,903.058,738.41,901.162L738.41,901.162z
				"/>
			<path id="_x36_5" fill="#FFD200" d="M733.29,915.146c1.122,1.284,2.901,1.775,2.901,1.775c0,0-2.85,2.116-2.85,2.116
				l-0.034,0.042l-0.06-0.051l-3.157-1.979C730.091,917.049,732.105,916.354,733.29,915.146L733.29,915.146L733.29,915.146z"/>
			<path id="_x36_4" fill="#FFD200" d="M737.608,902.825c0.226,0.487-1.843,3.492-1.843,5.956c0,3.021,1.611,4.803,3.763,4.803
				c0.41,0,0.859,0.555,1.246,0.555c0.63,0,1.05-0.7,1.433-0.7c0.488,0,0.817,0.768,1.664,0.768c0.847,0,1.184-0.768,1.672-0.768
				c0.384,0,0.803,0.7,1.433,0.7c0.387,0,0.835-0.555,1.246-0.555c2.151,0,3.763-1.782,3.763-4.803c0-2.464-2.069-5.468-1.843-5.956
				c0,0,4.036,2.895,4.036,6.305c0,5.494-5.571,6.852-5.571,6.852l1.254,2.824c0,0-1.727,0.259-2.781,1.109
				c-1.407,1.134-1.425,4.199-1.425,6.271c0,2.441,0.091,3.476,0.973,4.138c0.93,0.699,1.629,0.849,1.629,1.562
				c0,0.621-0.724,0.874-1.664,1.288c-1.069,0.471-1.175,1.288-2.722,1.288c-1.547,0-1.645-0.817-2.713-1.288
				c-0.939-0.414-1.664-0.668-1.664-1.288c0-0.712,0.699-0.863,1.629-1.562c0.882-0.662,0.973-1.697,0.973-4.138
				c0-2.072-0.018-5.137-1.425-6.271c-1.055-0.851-2.781-1.109-2.781-1.109l1.254-2.824c0,0-5.571-1.358-5.571-6.852
				C733.573,905.72,737.608,902.825,737.608,902.825L737.608,902.825L737.608,902.825z"/>
			<path id="_x36_3" fill="#FFD200" d="M754.459,915.146c1.185,1.208,3.2,1.903,3.2,1.903s-2.101,1.047-3.157,1.979
				c0.04,0.192-0.052,0.045-0.06,0.051c-0.049,0.063-0.019-0.023-0.034-0.042c-0.998-1.145-2.85-2.116-2.85-2.116
				S753.337,916.43,754.459,915.146L754.459,915.146z"/>
			<path id="_x36_2" d="M739.4,920.435l-1.322,1.322l1.322,1.322l1.323-1.322L739.4,920.435z"/>
			<path id="_x36_1" d="M748.35,920.435l-1.322,1.322l1.322,1.322l1.322-1.322L748.35,920.435z"/>
			<path id="_x36_0" fill="#FFD200" d="M739.4,921.066l0.691,0.691l-0.691,0.7l-0.7-0.7L739.4,921.066z"/>
			<path id="_x35_9" fill="#FFD200" d="M748.35,921.066l0.7,0.691l-0.7,0.7l-0.691-0.7L748.35,921.066z"/>
			<path id="_x35_8" d="M738.18,923.08c0.263,0.65,0.887,2.663,0.887,5.077c0,1.671-0.162,2.551-0.162,2.551s1.864-0.549,2.236-2.44
				c0.174-0.887,0.368-4.153-0.529-4.71L738.18,923.08L738.18,923.08z"/>
			<path id="_x35_7" d="M749.57,923.08l-2.432,0.478c-0.897,0.557-0.703,3.823-0.529,4.71c0.371,1.891,2.235,2.44,2.235,2.44
				s-0.162-0.88-0.162-2.551C748.683,925.743,749.307,923.73,749.57,923.08L749.57,923.08L749.57,923.08z"/>
			<path id="_x35_6" d="M733.65,923.61c-0.104,0.005-0.211,0.016-0.316,0.042c-0.839,0.21-1.345,1.064-1.135,1.903
				c0.032,0.128,0.085,0.247,0.145,0.358c-0.122-0.041-0.25-0.068-0.384-0.077c-0.054-0.004-0.109-0.002-0.162,0
				c-0.794,0.027-1.455,0.651-1.51,1.459c-0.059,0.862,0.596,1.605,1.459,1.664c0.129,0.009,0.254,0.004,0.375-0.017
				c-0.074,0.102-0.138,0.211-0.188,0.333c-0.323,0.802,0.068,1.725,0.87,2.048c0.802,0.322,1.716-0.077,2.039-0.879
				c0.049-0.122,0.077-0.242,0.094-0.367c0.074,0.102,0.163,0.196,0.264,0.281c0.663,0.555,1.655,0.467,2.21-0.196
				c0.555-0.663,0.467-1.647-0.196-2.201c-0.1-0.084-0.212-0.15-0.324-0.205c0.12-0.039,0.238-0.092,0.35-0.162
				c0.733-0.459,0.954-1.435,0.495-2.167c-0.316-0.503-0.87-0.762-1.425-0.725c-0.252,0.017-0.505,0.095-0.734,0.239
				c-0.112,0.07-0.211,0.148-0.298,0.239c0-0.126-0.011-0.255-0.043-0.384C735.053,924.062,734.378,923.579,733.65,923.61
				L733.65,923.61L733.65,923.61L733.65,923.61z"/>
			<path id="_x35_5" fill="#FFD200" d="M739.033,923.813l1.305,0.273c0.483,0.666,0.401,1.744,0.401,3.242
				c0,1.511-1.135,2.09-1.135,2.09C739.605,925.787,739.231,924.913,739.033,923.813L739.033,923.813L739.033,923.813z"/>
			<path id="_x35_4" fill="#FFD200" d="M748.717,923.813c-0.198,1.1-0.572,1.973-0.572,5.606c0,0-1.135-0.579-1.135-2.09
				c0-1.499-0.082-2.576,0.401-3.242L748.717,923.813L748.717,923.813z"/>
			<path id="_x35_3" fill="#FFD200" d="M733.744,924.267c0.565-0.024,1.085,0.351,1.229,0.921c0.034,0.136,0.038,0.27,0.025,0.401
				c-0.01,0.109-0.039,0.208-0.077,0.307c-0.189-0.069-0.393-0.103-0.606-0.103c-0.527,0-0.998,0.232-1.323,0.598
				c-0.085-0.075-0.159-0.159-0.222-0.256c-0.07-0.108-0.129-0.227-0.162-0.358c-0.164-0.652,0.235-1.313,0.887-1.476
				C733.578,924.28,733.663,924.27,733.744,924.267L733.744,924.267L733.744,924.267L733.744,924.267z"/>
			<path id="_x35_2" d="M753.239,924.77c-2.003,0-3.469,1.544-3.268,3.438c0.17,1.598,1.468,2.937,3.072,3.319
				c-0.274-0.448-0.456-0.947-0.512-1.476c-0.201-1.895,1.265-3.43,3.268-3.43c0.316,0,0.622,0.039,0.921,0.111
				C756.013,925.574,754.684,924.77,753.239,924.77L753.239,924.77L753.239,924.77L753.239,924.77L753.239,924.77z"/>
			<path id="_x35_1" fill="#FFD200" d="M736.184,925.205c0.391,0.013,0.766,0.216,0.989,0.572c0.357,0.57,0.186,1.324-0.384,1.681
				c-0.119,0.075-0.246,0.124-0.376,0.154c-0.108,0.025-0.217,0.022-0.324,0.017c0.001-0.017,0-0.034,0-0.051
				c0-0.725-0.436-1.352-1.058-1.63c0.044-0.106,0.096-0.208,0.17-0.299c0.08-0.097,0.177-0.185,0.29-0.256
				C735.706,925.259,735.948,925.197,736.184,925.205L736.184,925.205L736.184,925.205z"/>
			<path id="_x35_0" fill="#FFD200" d="M753.239,925.478c0.627,0,1.229,0.192,1.749,0.512c-1.955,0.378-3.362,2.105-3.157,4.121
				c-0.623-0.516-1.079-1.211-1.16-1.98C750.512,926.635,751.599,925.478,753.239,925.478L753.239,925.478L753.239,925.478z"/>
			<path id="_x34_9" fill="#FFD200" d="M732.25,926.211c0.142,0.01,0.269,0.049,0.392,0.102c0.099,0.043,0.19,0.098,0.273,0.162
				c-0.237,0.304-0.375,0.687-0.375,1.101c0,0.325,0.087,0.626,0.239,0.887c-0.103,0.065-0.211,0.116-0.333,0.145
				c-0.118,0.029-0.24,0.043-0.367,0.034c-0.671-0.046-1.18-0.626-1.135-1.297C730.991,926.676,731.58,926.165,732.25,926.211
				L732.25,926.211z"/>
			<path id="_x34_8" fill="#FFD200" d="M734.315,926.392c0.651,0,1.177,0.535,1.177,1.186c0,0.651-0.526,1.177-1.177,1.177
				c-0.652,0-1.178-0.526-1.178-1.177C733.137,926.926,733.664,926.392,734.315,926.392z"/>
			<path id="_x34_7" fill="#FFD200" d="M736.08,927.747c0.117,0.013,0.229,0.041,0.341,0.085c0.116,0.046,0.232,0.103,0.333,0.188
				c0.516,0.431,0.577,1.199,0.145,1.715c-0.431,0.516-1.199,0.585-1.715,0.154c-0.109-0.091-0.188-0.2-0.256-0.316
				c-0.054-0.092-0.089-0.189-0.119-0.29C735.495,929.084,736.009,928.479,736.08,927.747L736.08,927.747L736.08,927.747z"/>
			<path id="_x34_6" fill="#FFD200" d="M732.838,928.566c0.319,0.472,0.863,0.785,1.476,0.785c0.129,0,0.254-0.016,0.375-0.043
				c0.026,0.112,0.041,0.225,0.034,0.341c-0.008,0.126-0.027,0.251-0.077,0.375c-0.251,0.624-0.963,0.925-1.587,0.674
				c-0.624-0.251-0.934-0.963-0.683-1.587c0.051-0.126,0.121-0.236,0.205-0.333C732.656,928.694,732.745,928.626,732.838,928.566
				L732.838,928.566L732.838,928.566L732.838,928.566z"/>
			<path id="_x34_5" d="M741.763,931.468c-1.094,0-1.792,0.231-1.792,0.563c0,0.332,0.697,0.555,1.792,0.555
				c0.292,0,0.623-0.17,0.623-0.555S742.055,931.468,741.763,931.468L741.763,931.468z"/>
			<path id="_x34_4" d="M745.987,931.468c-0.292,0-0.623,0.179-0.623,0.563c0,0.385,0.331,0.555,0.623,0.555
				c1.095,0,1.792-0.222,1.792-0.555C747.779,931.699,747.081,931.468,745.987,931.468L745.987,931.468z"/>
			<path id="_x34_3" d="M777.85,912.108l-1.894,1.382l0.214,0.452c0,0-0.347,0.119-0.504,0.426
				c-0.157,0.308,0.103,0.742,0.103,0.742s-1.801-0.157-2.082,0.026c-0.255,0.165,0.108,1.412-0.06,2.466
				c-0.234,1.468-0.813,1.345-0.836,1.63c-0.023,0.277,0.222,0.708,0.222,0.708s-0.338,0.106-0.41,0.248
				c-0.116,0.227,0.081,0.646-0.06,0.921c-0.783,1.537-1.94,3.806-2.705,5.307c-0.107,0.21-0.394,0.29-0.538,0.572
				c-0.133,0.26-0.026,0.64-0.026,0.64s-0.507,0.03-0.683,0.375c-0.187,0.367-0.077,0.862-0.077,0.862s-0.32,0.041-0.478,0.35
				c-0.168,0.33,0.117,0.503,0.043,0.649c-1.028,2.017-2.239,4.395-2.978,5.845c-0.272,0.533-1.223,0.64-1.775,1.724
				c-0.536,1.051,0.23,1.826,0.23,1.826s-0.795,0.072-1.007,0.486c-0.215,0.422-0.045,1.064,0.529,1.356
				c0.574,0.292,1.201,0.056,1.417-0.367c0.211-0.415-0.214-1.101-0.214-1.101s1.077,0.155,1.613-0.896
				c0.552-1.083,0.087-1.907,0.358-2.44c0.739-1.45,1.95-3.827,2.978-5.845c0.074-0.145,0.378-0.02,0.546-0.35
				c0.157-0.309,0-0.589,0-0.589s0.47-0.205,0.657-0.572c0.176-0.345-0.094-0.776-0.094-0.776s0.37-0.132,0.503-0.392
				c0.144-0.282,0.038-0.558,0.145-0.768c0.765-1.501,1.922-3.77,2.705-5.307c0.141-0.276,0.592-0.37,0.708-0.597
				c0.072-0.141-0.042-0.478-0.042-0.478s0.498-0.049,0.708-0.23c0.216-0.186-0.223-0.586,0.828-1.638
				c0.754-0.755,1.969-1.199,1.954-1.502c-0.017-0.335-1.203-1.698-1.203-1.698s0.5-0.042,0.657-0.35
				c0.157-0.308,0.051-0.666,0.051-0.666l0.495-0.085L777.85,912.108L777.85,912.108L777.85,912.108L777.85,912.108L777.85,912.108z
				 M760.044,945.905c-0.243,0.024-0.394,0.168-0.443,0.265c-0.075,0.146-0.088,0.346,0,0.52c0,0-0.597-0.187-0.802-0.085
				c-0.193,0.096,0,2.91,0,2.91s2.383-1.503,2.346-1.715c-0.038-0.225-0.537-0.606-0.537-0.606c0.193-0.031,0.343-0.152,0.418-0.299
				c0.078-0.154,0.089-0.595-0.452-0.87C760.37,945.921,760.189,945.89,760.044,945.905L760.044,945.905z"/>
			<path id="_x34_2" d="M741.619,880.393c-0.596,0-1.474,0.016-1.988,0.359c-0.471,0.313-0.432,0.719-0.597,0.862
				c-0.388,0.336-1.053,0.324-1.374,0.324c-2.073,0-2.15,2.219-2.15,2.219s0.53-0.802,1.467-0.802c1.559,0,2.739,0.849,2.739,1.169
				c0,0.129-0.161,0.154-0.171,0.154c-1.018,0-2.554-0.586-3.37-0.614v0.324c0.011,0.007,0.018,0.017,0.034,0.026
				c-0.012-0.002-0.023-0.006-0.034-0.009v0.06c1.822,0.634,3.669,1.531,3.669,5.486c0,2.491-0.298,5.032-1.544,7.03
				c-0.441,0.708-1.07,1.313-1.826,1.852c-0.337-0.102-1.919-0.593-3.029-1.212c-1.954-1.089-2.968-2.172-5.29-2.278v-1.766
				c0-0.944,0.341-1.794,0.341-2.696c-0.979-0.263-3.696-3.585-6.203-5.06c-3.688,2.389-6.544,6.311-6.544,8.114
				c0,0,0.111,38.752,0,52.252c0,0.778-0.469,1.877-0.469,1.877c1.346-0.57,3.815-3.947,4.334-5.23v0.615
				c2.034-0.927,3.522-3.364,4.189-4.625c0.012,0.182,0.043,0.64,0.043,0.64c1.817-1.592,4.129-11.006,4.129-11.006l-0.119-1.979
				c0,0-1.6,7.686-3.421,9.266v-33.097l1.442,1.339l2.184-2.039v-1.553l-1.937,1.809v-4.684c0.292-0.442,0.485-0.771,0.631-1.032
				c0.313,0.547,1.327,2.221,2.517,3.251c0.196-0.796,1.485-1.553,1.485-1.553s0.462,1.251,1.169,1.561
				c0.249-0.438,1.732-1.408,1.732-1.408s-1.269,0.193-1.783,0.674c-0.441-0.099-0.555-1.843-0.555-1.843s-1.868,0.91-2.193,1.561
				c-0.356-0.096-0.911-1.498-1.126-2.073c0.326-0.035,0.786-0.077,1.391-0.077c0.533,0,1.214,0.252,1.928,0.589
				c0.784,0.369,1.605,0.837,2.338,1.169c0.939,0.425,2.359,0.511,2.773,0.529c-0.474,0.333-0.996,0.638-1.561,0.922
				c0,0,2.235-0.021,3.805-0.802c0.56-0.36,1.141-0.719,1.638-1.143c-0.216,0.599-0.551,1.307-1.075,1.911
				c2.306-0.195,3.454-1.512,3.78-1.954c0.153,0.396,0.425,1.031,0.853,1.578c0.428-0.547,0.709-1.183,0.862-1.578
				c0.326,0.442,1.474,1.759,3.78,1.954c-0.524-0.605-0.86-1.312-1.075-1.911c0.497,0.424,1.078,0.783,1.638,1.143
				c1.57,0.782,3.805,0.802,3.805,0.802c-0.566-0.284-1.096-0.589-1.57-0.922c0.399-0.015,1.835-0.101,2.782-0.529
				c0.733-0.332,1.553-0.8,2.338-1.169c0.714-0.336,1.396-0.589,1.929-0.589c0.605,0,1.065,0.041,1.391,0.077
				c-0.216,0.576-0.77,1.977-1.126,2.073c-0.325-0.652-2.193-1.561-2.193-1.561s-0.113,1.744-0.554,1.843
				c-0.514-0.481-1.783-0.674-1.783-0.674s1.483,0.97,1.732,1.408c0.707-0.31,1.16-1.561,1.16-1.561s1.297,0.757,1.493,1.553
				c1.19-1.029,2.203-2.704,2.517-3.251c0.151,0.27,0.354,0.612,0.631,1.032v4.684l-1.937-1.809v1.553l2.184,2.039l1.442-1.339
				v33.097c-1.822-1.58-3.421-9.266-3.421-9.266l-0.12,1.979c0,0,2.313,9.414,4.13,11.006c0,0,0.031-0.457,0.043-0.64
				c0.667,1.26,2.156,3.697,4.189,4.625v-0.615c0.52,1.284,2.988,4.661,4.334,5.23c0,0-0.469-1.099-0.469-1.877
				c-0.111-13.5,0-52.252,0-52.252c0-1.804-2.856-5.725-6.544-8.114c-2.506,1.475-5.224,4.797-6.203,5.06
				c0,0.902,0.341,1.752,0.341,2.696v1.758c-2.317,0.109-3.337,1.199-5.29,2.287c-1.117,0.623-2.717,1.116-3.037,1.212
				c-0.756-0.537-1.376-1.144-1.817-1.852c-1.062-1.704-1.51-3.795-1.51-5.921c0-0.899,1.007-1.91,1.007-2.637
				c0-1.098-0.102-1.757-0.102-1.757c0.357,0.049,0.981,0.682,0.981,0.682s-0.021-1.823-0.597-2.141c0,0,0.233-0.24,1.075-0.264
				c-0.237-0.599-1.408-1.331-1.408-1.331c0.058-0.105,0.167-0.195,0.307-0.273c0.294-0.163,0.708-0.27,1.024-0.333
				c-0.337-0.07-0.725-0.177-1.152-0.316c-0.974-0.317-2.12-0.783-3.191-1.297C743.929,880.453,742.44,880.393,741.619,880.393
				L741.619,880.393L741.619,880.393L741.619,880.393z M741.661,880.931c0.181,0.002,0.349,0.009,0.495,0.009
				c1.91,0,3.253,0.871,5.06,1.672c0.473,0.21,0.908,0.38,1.296,0.512c-0.243,0.216-0.432,0.432-0.486,0.615
				c0,0,0.81,0.15,1.177,0.828c0,0-0.77,0.087-0.896,0.537c0.431,0.033,0.86,0.576,0.862,1.101l-1.092-0.342
				c0,0,0.264,1.226,0.264,2.56c0,0.681-0.981,1.482-0.981,2.637c0,3.622,0.913,5.015,1.562,6.134
				c0.254,0.438,0.46,0.942,0.887,1.323c-1.87-0.996-3.259-2.24-3.259-3.396v-4.377h-0.486v4.377c0,0.838,0.205,1.229,0.205,1.229
				c0.293,0.927,0.887,2.359,1.254,2.935c-1.72-0.93-2.594-2.094-2.594-2.526v-6.015h-0.486v6.101l0.094,0.418
				c-0.208,0.313-0.479,0.684-0.666,0.811c-0.186-0.126-0.448-0.498-0.657-0.811l0.094-0.418v-6.101h-0.486v6.015
				c0,0.432-0.874,1.596-2.594,2.526c0.367-0.576,0.961-2.008,1.254-2.935c0,0,0.205-0.391,0.205-1.229v-4.377H741.2v4.377
				c0,1.154-1.384,2.401-3.251,3.396c0.423-0.381,0.626-0.887,0.879-1.323c0.71-1.225,1.587-2.78,1.587-7.21
				c0-1.662-0.246-2.792-0.674-3.583c-0.13-0.261-0.306-0.956,0.691-0.956c0.516,0,1.698,0.913,1.698,0.913
				s-0.049-0.729-0.648-1.143c-0.1-0.069-0.264-0.285-0.264-0.487c0-0.151,0.258-0.522,0.46-0.614
				c0.139-0.063-2.03-0.441-2.03-1.425c0-0.205,0.129-0.341,0.58-0.341c0.591,0,1.552,0.708,2.406,0.708
				c0.632,0,0.88-0.154,1.527-0.154c0.79,0,2.439,1.497,3.003,1.442c-0.631-0.396-1.649-1.894-3.191-1.894
				c-0.535,0-1.019,0.119-1.519,0.119c-0.64,0-1.271-0.589-1.962-0.589c-0.464,0-0.981,0.026-1.058-0.094
				c-0.134-0.209-0.013-0.331,0.111-0.503c0.235-0.326,0.894-0.421,1.544-0.443c0.195-0.007,0.39-0.01,0.572-0.009v0
				L741.661,880.931L741.661,880.931L741.661,880.931z M722.293,887.5v0.008c0,0,3.427,3.14,4.582,3.541l0.043,1.058v3.114
				c-0.837-0.288-1.888-1.662-2.397-2.389v-0.427c0-0.401,0.236-0.695,0.409-0.853l-0.503-0.179
				c-0.192,0.219-0.401,0.544-0.401,0.964v0.248l-0.162,0.171l-0.085,0.094l-1.254,1.348l-1.476-2.235v-0.546
				c0-0.368,0.283-0.778,0.521-1.058l-0.495-0.179c-0.25,0.324-0.512,0.76-0.512,1.169v0.443c-0.347,0.359-1.698,1.749-1.698,1.749
				s-0.678-1.456-0.862-1.851C719.036,890.257,720.712,888.653,722.293,887.5L722.293,887.5L722.293,887.5z M765.456,887.5
				c1.578,1.15,3.255,2.76,4.292,4.189c-0.184,0.395-0.862,1.851-0.862,1.851s-1.351-1.39-1.698-1.749v-0.444
				c0-0.409-0.262-0.845-0.512-1.169l-0.495,0.179c0.237,0.279,0.521,0.69,0.521,1.058v0.546l-1.476,2.236l-1.254-1.348
				l-0.085-0.094l-0.162-0.171v-0.248c0-0.42-0.209-0.745-0.401-0.964l-0.504,0.179c0.174,0.159,0.41,0.452,0.41,0.853v0.427
				c-0.51,0.727-1.561,2.101-2.397,2.389v-3.114l0.043-1.058c1.154-0.4,4.582-3.541,4.582-3.541L765.456,887.5L765.456,887.5
				L765.456,887.5z M717.403,892.645l0.785,1.425v2.569l-1.195,1.109v-3.814C716.993,893.568,717.147,893.128,717.403,892.645
				L717.403,892.645z M770.344,892.645c0.257,0.483,0.409,0.923,0.409,1.289v3.814l-1.194-1.109v-2.569L770.344,892.645
				L770.344,892.645z M720.534,892.969l1.374,2.09v1.587l-1.374,1.289V892.969L720.534,892.969L720.534,892.969z M767.214,892.969
				v4.966l-1.374-1.288v-1.587L767.214,892.969L767.214,892.969L767.214,892.969L767.214,892.969z M720.048,893.345v4.582
				l-1.374-1.28v-1.86L720.048,893.345L720.048,893.345L720.048,893.345z M767.699,893.345l1.374,1.442v1.86l-1.374,1.28V893.345
				L767.699,893.345L767.699,893.345z M724.263,893.677c0.207,0.344,1.156,1.879,2.056,2.321c-0.319,0.451-1.154,1.554-2.056,2.039
				V893.677L724.263,893.677z M763.484,893.677v4.36c-0.901-0.486-1.737-1.589-2.056-2.039
				C762.329,895.557,763.278,894.021,763.484,893.677L763.484,893.677z M723.776,893.899v4.027l-1.374-1.28v-1.425L723.776,893.899z
				 M763.971,893.899l1.374,1.322v1.425l-1.374,1.28V893.899z M718.188,898.191v4.019l-1.195-1.118v-1.783L718.188,898.191z
				 M769.56,898.191l1.194,1.118v1.783l-1.194,1.118V898.191z M718.673,898.2l0.785,0.734l0.589,0.546v1.442l-0.589,0.546
				l-0.785,0.734V898.2L718.673,898.2L718.673,898.2z M721.906,898.2v4.002l-0.785-0.734l-0.589-0.555v-1.425l0.589-0.555
				L721.906,898.2z M722.401,898.2l1.374,1.288v1.425l-0.598,0.563l-0.776,0.725V898.2L722.401,898.2z M725.635,898.2v4.01
				l-0.785-0.734l-0.589-0.555v-1.339C724.735,899.293,725.211,898.761,725.635,898.2L725.635,898.2L725.635,898.2L725.635,898.2z
				 M762.11,898.2c0.424,0.561,0.9,1.093,1.374,1.382v1.34l-0.589,0.555l-0.785,0.734V898.2L762.11,898.2z M765.344,898.2v4.002
				l-0.776-0.725l-0.597-0.563v-1.425L765.344,898.2L765.344,898.2L765.344,898.2z M765.839,898.2l0.785,0.734l0.589,0.555v1.425
				l-0.589,0.555l-0.785,0.734V898.2L765.839,898.2L765.839,898.2z M769.072,898.2v4.002l-0.785-0.734l-0.589-0.546v-1.442
				l0.589-0.546L769.072,898.2L769.072,898.2z M720.704,902.628l1.45,1.356l1.45-1.348v33.105c0,0,0.101,1.643,0.171,2.713
				c-0.645,0.652-3.071,3.106-3.071,3.106v-38.933V902.628z M767.042,902.628v38.932c0,0-2.426-2.454-3.072-3.105
				c0.069-1.071,0.171-2.713,0.171-2.713v-33.105l1.451,1.348L767.042,902.628L767.042,902.628L767.042,902.628L767.042,902.628z
				 M719.876,902.636v37.687c0,1.064-1.943,3.546-2.884,4.112v-41.79l1.433,1.339L719.876,902.636L719.876,902.636z
				 M767.869,902.636l1.45,1.348l1.434-1.339v41.79c-0.94-0.567-2.884-3.048-2.884-4.112V902.636L767.869,902.636z M731.829,932.243
				c0,0-1.394,2.829-1.937,3.336c0,0,0.364,0.046,0.776,0.043c-0.254,0.365-2.191,3.154-2.799,4.206
				c-0.568,0.984-0.969,0.546-1.843,0.546c-0.724,0-2.367,1.154-2.636,1.621c-0.284,0.491-0.495,1.087-0.495,1.578
				c0,0.54,0.572,1.28,0.572,1.28c0.062-0.258,0.17-0.35,0.17-0.35s1.502,1.871,1.723,2.116c0.172,0.19,0.941,0.314,1.212,0.069
				c0.678-0.616,1.334-1.047,1.937-1.937c0.311-0.458,0.334-0.984,0.691-1.476c1.194-1.647,3.569-4.8,4.113-5.52
				c0.036,0.201,0.067,0.367,0.102,0.572c0.616-1.243,3.575-3.618,3.575-3.618l-0.819-0.538c0,0-1.784,2.08-2.363,2.466
				c0,0-0.248-1.034-0.393-1.399c0,0-0.683,0.517-1.058,0.529c0,0-0.112-0.702-0.196-1.161c-0.471,0.314-1.254,0.248-1.254,0.248
				c0.688-0.326,1.502-2.321,1.502-2.321L731.829,932.243L731.829,932.243L731.829,932.243z M755.916,932.243l-0.58,0.29
				c0,0,0.814,1.995,1.502,2.321c0,0-0.784,0.067-1.254-0.247c-0.084,0.458-0.196,1.16-0.196,1.16
				c-0.374-0.012-1.058-0.529-1.058-0.529c-0.145,0.365-0.393,1.399-0.393,1.399c-0.579-0.386-2.363-2.466-2.363-2.466l-0.819,0.538
				c0,0,2.959,2.375,3.575,3.618c0.035-0.204,0.066-0.371,0.102-0.572c0.543,0.72,2.919,3.874,4.113,5.52
				c0.357,0.492,0.38,1.018,0.691,1.476c0.603,0.89,1.259,1.321,1.937,1.937c0.271,0.246,1.039,0.122,1.211-0.068
				c0.221-0.245,1.724-2.116,1.724-2.116s0.109,0.091,0.171,0.35c0,0,0.572-0.74,0.572-1.28c0-0.491-0.212-1.087-0.495-1.578
				c-0.27-0.467-1.912-1.621-2.636-1.621c-0.874,0-1.275,0.438-1.843-0.546c-0.607-1.052-2.545-3.842-2.799-4.206
				c0.413,0.004,0.776-0.043,0.776-0.043C757.31,935.072,755.916,932.243,755.916,932.243L755.916,932.243L755.916,932.243z
				 M731.632,935.434c0,0-0.011,0.959,0.29,1.297l1.058-0.725c0,0,0.07,0.35,0.162,0.828c-0.453,0.619-3.055,4.171-4.343,5.904
				c-0.32,0.431-0.589,1.527-0.589,1.527s-0.469-0.222-0.469-0.623c0-0.394,0.051-0.862,0.051-0.862s-0.35,0.401-0.956,0.401
				c0-0.484,0.936-1.009,0.973-1.698c-0.714,0.529-1.333,0.257-2.159,0.512c-0.899,0.277-1.149,0.654-1.425,0.64
				c-0.162-0.009-0.309-0.289-0.247-0.461c0.107-0.298,1.219-1.122,1.996-1.271c0.186-0.036,1.65,0.319,1.945-0.137
				c1.215-1.875,3.188-4.92,3.379-5.213C731.425,935.524,731.54,935.493,731.632,935.434L731.632,935.434L731.632,935.434
				L731.632,935.434z M756.111,935.434c0.092,0.058,0.208,0.09,0.333,0.12c0.191,0.293,2.163,3.338,3.379,5.213
				c0.295,0.455,1.759,0.101,1.945,0.137c0.778,0.149,1.889,0.974,1.997,1.271c0.062,0.172-0.085,0.452-0.247,0.461
				c-0.276,0.014-0.526-0.363-1.425-0.64c-0.826-0.255-1.445,0.017-2.159-0.512c0.037,0.689,0.973,1.214,0.973,1.698
				c-0.605,0-0.956-0.401-0.956-0.401s0.051,0.468,0.051,0.862c0,0.401-0.469,0.623-0.469,0.623s-0.269-1.097-0.589-1.528
				c-1.288-1.733-3.89-5.285-4.343-5.904c0.092-0.477,0.162-0.828,0.162-0.828l1.058,0.725
				C756.122,936.392,756.111,935.433,756.111,935.434L756.111,935.434L756.111,935.434L756.111,935.434z M740.087,936.134
				c0,0-5.781,13.289-10.913,15.333c0,0,2.232,0.948,4.974,2.372c0.4,0.208,0.812,0.431,1.229,0.657
				c0.345-0.416,0.708-0.878,1.066-1.357c1.639-2.193,3.242-4.735,3.242-4.735c0.112,0.66-0.754,2.699-2.218,5.213
				c-0.288,0.494-0.588,1.011-0.922,1.536c0.372,0.212,0.74,0.426,1.109,0.649c2.716,1.634,5.266,3.513,6.211,5.239
				c0.945-1.726,3.496-3.604,6.212-5.239c0.369-0.222,0.737-0.437,1.109-0.649c-0.333-0.525-0.633-1.041-0.921-1.536
				c-1.465-2.514-2.33-4.553-2.218-5.213c0,0,1.603,2.542,3.242,4.735c0.358,0.479,0.721,0.941,1.066,1.357
				c0.417-0.226,0.829-0.449,1.229-0.657c2.742-1.424,4.974-2.372,4.974-2.372c-5.131-2.043-10.913-15.333-10.913-15.333
				l-0.853,0.247c0,0,4.611,11.483,9.121,14.957c-1.026,0.309-2.226,0.752-3.464,1.28c-1.505-1.763-3.061-4.14-4.326-6.254
				c-1.365-2.283-2.483-6.288-2.483-6.288c-0.633,1.538,0.716,9.26,3.438,14.147c-2.251,1.172-4.255,2.442-5.213,3.481
				c-0.958-1.039-2.961-2.309-5.213-3.481c2.722-4.886,4.071-12.609,3.438-14.147c0,0-1.117,4.005-2.483,6.288
				c-1.264,2.114-2.821,4.492-4.326,6.254c-1.238-0.528-2.438-0.971-3.464-1.28c4.51-3.474,9.121-14.957,9.121-14.957
				L740.087,936.134L740.087,936.134L740.087,936.134z M725.009,942.516c0.04,0.004,0.081,0.025,0.111,0.06
				c0.059,0.068,0.054,0.168-0.009,0.222l-0.478,0.418c-0.063,0.054-0.163,0.043-0.222-0.026c-0.059-0.068-0.054-0.168,0.009-0.222
				l0.478-0.418C724.929,942.522,724.97,942.51,725.009,942.516L725.009,942.516L725.009,942.516z M762.781,942.516
				c0.04-0.005,0.08,0.007,0.111,0.034l0.478,0.418c0.062,0.054,0.068,0.154,0.008,0.222c-0.059,0.068-0.159,0.08-0.222,0.026
				l-0.478-0.418c-0.063-0.054-0.068-0.154-0.008-0.222C762.7,942.541,762.741,942.52,762.781,942.516L762.781,942.516
				L762.781,942.516L762.781,942.516z M725.512,942.934c0.119-0.01,0.243,0.042,0.333,0.145c0.143,0.165,0.134,0.398-0.017,0.529
				l-1.16,1.015c-0.151,0.131-0.395,0.105-0.538-0.059c-0.143-0.165-0.134-0.407,0.017-0.538l1.16-1.007
				C725.364,942.97,725.441,942.94,725.512,942.934L725.512,942.934z M762.184,942.934c0.03-0.005,0.064-0.002,0.094,0
				c0.072,0.006,0.148,0.036,0.205,0.085l1.16,1.007c0.151,0.131,0.16,0.373,0.017,0.538c-0.143,0.164-0.387,0.191-0.538,0.059
				l-1.16-1.015c-0.151-0.131-0.16-0.364-0.017-0.529C762.012,943.001,762.095,942.948,762.184,942.934L762.184,942.934
				L762.184,942.934z M726.169,943.719c0.118-0.01,0.252,0.042,0.341,0.145c0.143,0.165,0.134,0.398-0.017,0.529l-1.169,1.015
				c-0.151,0.131-0.386,0.105-0.529-0.06c-0.143-0.165-0.134-0.406,0.017-0.537l1.16-1.007
				C726.029,943.755,726.098,943.725,726.169,943.719L726.169,943.719L726.169,943.719z M761.526,943.719
				c0.031-0.005,0.064-0.002,0.094,0c0.071,0.006,0.14,0.036,0.196,0.085l1.16,1.007c0.151,0.131,0.16,0.373,0.017,0.537
				c-0.143,0.165-0.378,0.191-0.529,0.06l-1.169-1.016c-0.151-0.131-0.16-0.364-0.017-0.529
				C761.345,943.786,761.434,943.734,761.526,943.719L761.526,943.719L761.526,943.719z M726.911,944.486
				c0.119-0.01,0.243,0.033,0.333,0.136c0.143,0.165,0.134,0.407-0.017,0.538l-1.16,1.007c-0.151,0.131-0.386,0.105-0.529-0.06
				c-0.143-0.165-0.142-0.398,0.008-0.529l1.169-1.015C726.771,944.514,726.839,944.492,726.911,944.486L726.911,944.486z
				 M760.784,944.486c0.03-0.005,0.064-0.002,0.094,0c0.071,0.006,0.14,0.028,0.196,0.077l1.169,1.015
				c0.151,0.131,0.151,0.364,0.008,0.529c-0.143,0.165-0.378,0.191-0.529,0.06l-1.161-1.007c-0.151-0.131-0.16-0.373-0.017-0.538
				C760.612,944.546,760.695,944.499,760.784,944.486L760.784,944.486z"/>
			<path id="_x34_1" fill="#F5D402" d="M777.5,912.8l-1.109,0.785l0.563,0.29l0.563,0.282L777.5,912.8L777.5,912.8z
				 M776.425,914.105c-0.201,0.014-0.379,0.121-0.469,0.299c-0.145,0.284-0.004,0.648,0.316,0.811
				c0.32,0.163,0.691,0.062,0.836-0.222c0.145-0.284,0.004-0.647-0.316-0.81C776.672,914.121,776.546,914.097,776.425,914.105
				L776.425,914.105L776.425,914.105z M774.335,915.411c-0.167,0.002-0.288,0.008-0.316,0.026c-0.118,0.077,0.043,1.091,0.008,1.954
				c-0.032,0.814-0.293,1.043-0.435,1.322c-0.132,0.258-0.606,0.563-0.606,0.563l0.392,0.393c0,0,0.255-0.398,0.657-1.186
				c0.474-0.93,0.458-2.615,0.597-2.705c0.121-0.078,1.109-0.324,1.109-0.324C775.742,915.453,774.836,915.404,774.335,915.411
				L774.335,915.411L774.335,915.411L774.335,915.411z M776.058,915.641c0,0-1.039,0.199-1.186,0.341
				c-0.142,0.137-0.079,1.544-0.631,2.628c-0.457,0.898-0.682,1.229-0.682,1.229l0.281,0.145l0.282,0.137
				c0,0,0.131-0.365,0.589-1.263c0.552-1.083,1.73-1.869,1.757-2.065C776.496,916.591,776.058,915.641,776.058,915.641
				L776.058,915.641L776.058,915.641z M776.391,915.778c0,0,0.376,0.949,0.384,1.092c0.009,0.165-1.361,1.143-1.834,2.073
				c-0.402,0.789-0.572,1.229-0.572,1.229l0.546,0.085c0,0-0.038-0.561,0.094-0.819c0.142-0.28,0.18-0.622,0.819-1.126
				c0.678-0.535,1.594-1.002,1.587-1.143C777.408,917.038,776.391,915.778,776.391,915.778L776.391,915.778z M773.302,920.249
				c-0.172,0.019-0.297,0.128-0.367,0.264c-0.104,0.204-0.048,0.476-0.87,2.091c-0.361,0.708-0.506,0.993-0.896,1.758
				c-0.396,0.778-0.973,1.902-0.973,1.902s-0.196,0.359,0.171,0.546c0.367,0.187,0.529-0.188,0.529-0.188s0.576-1.125,0.973-1.903
				c0.39-0.765,0.535-1.058,0.896-1.766c0.823-1.615,1.074-1.725,1.178-1.928c0.112-0.219,0.085-0.513-0.282-0.7
				C773.523,920.255,773.405,920.238,773.302,920.249L773.302,920.249L773.302,920.249L773.302,920.249z M769.761,926.981
				c-0.138,0.012-0.248,0.071-0.299,0.17c-0.102,0.2,0.073,0.494,0.392,0.657c0.32,0.163,0.666,0.132,0.768-0.068
				c0.102-0.2-0.081-0.494-0.401-0.657C770.062,927.001,769.899,926.968,769.761,926.981L769.761,926.981z M769.283,927.962
				c-0.229-0.011-0.43,0.069-0.512,0.23c-0.132,0.259,0.074,0.631,0.461,0.828c0.387,0.197,0.807,0.148,0.938-0.111
				c0.132-0.259-0.074-0.63-0.461-0.828C769.565,928.007,769.421,927.968,769.283,927.962L769.283,927.962z M768.635,929.182
				c-0.138,0.012-0.248,0.071-0.299,0.171c-0.102,0.2,0.073,0.494,0.392,0.657c0.32,0.163,0.666,0.132,0.768-0.068
				c0.102-0.2-0.073-0.494-0.392-0.657C768.944,929.203,768.773,929.17,768.635,929.182L768.635,929.182z M768.353,930.232
				c-0.202,0.026-0.299,0.23-0.299,0.23s-2.075,4.083-2.807,5.52c-0.234,0.459-1.219,0.745-1.604,1.502
				c-0.388,0.761-0.114,1.474,0.392,1.732c0.507,0.258,1.25,0.07,1.638-0.691c0.385-0.757,0.039-1.725,0.273-2.184
				c0.732-1.438,2.807-5.52,2.807-5.52s0.204-0.359-0.162-0.546C768.501,930.227,768.421,930.223,768.353,930.232L768.353,930.232
				L768.353,930.232z M763.345,939.634c-0.233,0.007-0.44,0.117-0.537,0.307c-0.156,0.305,0.022,0.711,0.401,0.904
				c0.379,0.193,0.817,0.1,0.973-0.205c0.155-0.305-0.031-0.712-0.409-0.905C763.63,939.664,763.485,939.63,763.345,939.634
				L763.345,939.634L763.345,939.634z M760.043,946.178c-0.118,0.004-0.216,0.042-0.256,0.119c-0.08,0.156,0.085,0.402,0.367,0.546
				c0.282,0.144,0.577,0.13,0.657-0.026c0.08-0.156-0.085-0.402-0.367-0.546C760.303,946.2,760.162,946.174,760.043,946.178
				L760.043,946.178z M759.07,946.946v2.014l1.638-1.178c0,0-0.222-0.392-0.708-0.64C759.514,946.894,759.07,946.946,759.07,946.946
				L759.07,946.946z"/>
			<path id="_x34_0" d="M718.898,935.267c0,0,0.926,1.912,1.629,2.174c-0.364-0.099-1.545,0.334-1.545,0.334s2.083,1.861,3.85,1.983
				c1.498,0.103,2.226-0.645,2.226-0.645l-0.3-1.587c0,0-0.917-1.107-2.384-1.618C720.892,935.392,718.898,935.267,718.898,935.267
				L718.898,935.267L718.898,935.267z"/>
			<path id="_x33_9" d="M725.877,931.842c0,0-1.278,1.094-1.628,2.362c-0.35,1.267,0.228,2.708,0.228,2.708l1.074,2.003
				c0,0,1.488-0.792,2.122-1.977c0.633-1.185,0.401-2.783,0.401-2.783s-1.179,0.439-1.329,0.633
				C726.993,933.474,725.877,931.842,725.877,931.842L725.877,931.842L725.877,931.842L725.877,931.842z"/>
			<path id="_x33_8" d="M721.768,931.33c0,0-1.454,0.491-2.865,0.406c-1.345-0.081-2.463-1.21-2.463-1.21s1.115-0.754,1.665-0.654
				c-0.605-0.221-1.483-1.737-1.483-1.737s1.247-0.377,2.353,0.04c1.106,0.417,2.07,1.628,2.07,1.628L721.768,931.33L721.768,931.33
				L721.768,931.33z"/>
			<path id="_x33_7" d="M722.268,924.23c0,0,0.727,1.505,0.555,2.028c0.226-0.348,1.079-0.891,1.079-0.891s0.516,2.437,0.023,3.943
				c-0.493,1.505-1.996,2.078-1.996,2.078l-1.657-3.223c0,0-0.247-1.194,0.27-2.139C721.059,925.081,722.268,924.23,722.268,924.23
				L722.268,924.23L722.268,924.23z"/>
			<path id="_x33_6" d="M712.81,920.245c0,0,1.571-0.165,3.008,0.43c1.202,0.499,1.57,1.405,1.57,1.405l0.592,1.587
				c0,0-1.71,0.641-3.061,0.151c-1.351-0.491-2.344-2.113-2.344-2.113s0.944-0.358,1.304-0.224
				C713.355,921.25,712.81,920.245,712.81,920.245L712.81,920.245L712.81,920.245L712.81,920.245z"/>
			<path id="_x33_5" d="M717.752,917.3c0,0,0.689,0.885,0.71,1.904c0.184-0.542,1.045-1.14,1.045-1.14s0.885,2.142,0.691,3.664
				c-0.194,1.521-1.468,2.421-1.468,2.421l-1.588-3.015c0,0-0.518-1.236-0.365-2.194C716.928,917.981,717.752,917.3,717.752,917.3
				L717.752,917.3L717.752,917.3z"/>
			<path id="_x33_4" d="M712.31,911.533c0,0-0.285,1.642,0.2,2.588c0.433,0.844,0.709,1.029,0.709,1.029
				c-0.826-0.545-2.074-0.592-2.074-0.592s0.444,1.787,1.506,2.602c1.062,0.815,2.699,0.625,2.699,0.625s1.077-1.433,1.002-2.978
				c-0.075-1.544-1.301-3.2-1.301-3.2s-0.484,1.003-0.526,1.752C714.211,912.589,712.31,911.533,712.31,911.533L712.31,911.533
				L712.31,911.533z"/>
			<path id="_x33_3" fill="#097754" d="M712.794,912.531c0,0-0.042,1.2,0.354,1.881c0.397,0.681,1.284,0.952,1.284,0.952
				s0.042-1.2-0.355-1.88C713.68,912.803,712.794,912.531,712.794,912.531z"/>
			<path id="_x33_2" fill="#097754" d="M711.963,915.247c0,0,1.042,0.061,1.645,0.523c0.602,0.461,0.835,1.423,0.835,1.423
				s-0.691,0.07-1.293-0.391C712.548,916.339,711.963,915.247,711.963,915.247z"/>
			<path id="_x33_1" fill="#097754" d="M715.235,912.823c0,0-0.347,0.795-0.307,1.652c0.04,0.857,0.54,1.823,0.54,1.823
				s0.452-1.029,0.412-1.886C715.841,913.554,715.356,913.066,715.235,912.823L715.235,912.823z"/>
			<path id="_x33_0" fill="#097754" d="M713.48,920.55c0,0,0.512,0.715,1.3,1.104c0.788,0.389,1.962,0.404,1.962,0.404
				s-0.586-0.76-1.374-1.15C714.58,920.519,713.48,920.55,713.48,920.55L713.48,920.55L713.48,920.55z"/>
			<path id="_x32_9" fill="#097754" d="M713.733,922.21c0,0,0.376,0.737,1.064,1.053c0.688,0.316,2.096,0.29,2.096,0.29
				s-0.54-0.688-1.228-1.005C714.977,922.232,713.733,922.21,713.733,922.21L713.733,922.21z"/>
			<path id="_x32_8" fill="#097754" d="M717.695,918.28c0,0-0.416,0.687-0.375,1.444c0.041,0.758,0.538,1.585,0.538,1.585
				s0.349-0.949,0.309-1.706C718.126,918.846,717.695,918.28,717.695,918.28L717.695,918.28z"/>
			<path id="_x32_7" fill="#097754" d="M719.227,919.252c0,0-0.711,0.955-0.814,1.937c-0.102,0.982,0.405,1.99,0.405,1.99
				s0.859-0.863,0.962-1.845C719.882,920.352,719.227,919.252,719.227,919.252L719.227,919.252L719.227,919.252z"/>
			<path id="_x32_6" fill="#097754" d="M717.265,928.318c0,0,0.085,0.353,0.383,0.728c0.297,0.375,0.806,0.772,0.806,0.772
				s0.492-0.158,1.103-0.026c0.611,0.133,1.423,0.677,1.423,0.677s-0.875-1.305-1.783-1.813
				C718.289,928.149,717.266,928.318,717.265,928.318L717.265,928.318L717.265,928.318z"/>
			<path id="_x32_5" fill="#097754" d="M717.175,930.561c0,0,1.132-0.484,2.064-0.359c0.932,0.125,1.773,0.862,1.773,0.862
				s-1.26,0.436-2.192,0.311C717.888,931.251,717.175,930.561,717.175,930.561L717.175,930.561L717.175,930.561L717.175,930.561z"/>
			<path id="_x32_4" fill="#097754" d="M721.96,925.298c0,0-1.001,1.061-1.085,1.981c-0.084,0.92,0.812,1.778,0.812,1.778
				s-0.044-0.59,0.11-0.979c0.154-0.389,0.482-0.804,0.482-0.804s0.14-0.474,0.086-0.854
				C722.289,925.89,721.96,925.298,721.96,925.298L721.96,925.298z"/>
			<path id="_x32_3" fill="#097754" d="M723.397,926.526c0,0-0.944,0.955-1.193,1.977c-0.25,1.022,0.195,2.113,0.195,2.113
				s0.858-0.677,1.108-1.699C723.756,927.895,723.397,926.526,723.397,926.526L723.397,926.526L723.397,926.526z"/>
			<path id="_x32_2" fill="#097754" d="M725.76,932.69c0,0,0.428,0.892,0.536,1.639c0.109,0.746,0.008,1.004,0.008,1.004
				s-0.442,0.435-0.64,0.69c-0.255,0.328-0.292,0.929-0.292,0.929s-0.888-1.319-0.751-2.284
				C724.758,933.704,725.76,932.69,725.76,932.69L725.76,932.69L725.76,932.69z"/>
			<path id="_x32_1" fill="#097754" d="M727.63,934.755c0,0-1.136,0.75-1.587,1.521c-0.451,0.77-0.217,1.558-0.217,1.558
				s0.81-0.071,1.261-0.841C727.538,936.223,727.63,934.755,727.63,934.755L727.63,934.755L727.63,934.755L727.63,934.755z"/>
			<path id="_x32_0" fill="#097754" d="M720.164,937.925c0,0,1.638-0.045,2.639,0.202c1.001,0.246,1.365,0.782,1.365,0.782
				s-1.126,0.527-2.127,0.281C721.04,938.944,720.163,937.925,720.164,937.925L720.164,937.925L720.164,937.925z"/>
			<path id="_x31_9" fill="#097754" d="M719.887,935.982c0,0,0.739,1.146,1.694,1.561c1.316,0.572,2.841,0.295,2.841,0.295
				s-0.828-1.015-1.967-1.463C721.314,935.927,719.887,935.982,719.887,935.982L719.887,935.982L719.887,935.982L719.887,935.982z"
				/>
			<path id="_x31_8" d="M725.143,939.045l0.044,0.589c0.979,0.009,1.125-0.088,1.376,0.22c0.167,0.206,0.565,0.385,0.965,0.202
				c0.4-0.182,0.579-0.663,0.397-1.063c-0.183-0.4-0.554-0.487-0.913-0.416c-0.22,0.043-0.364,0.219-0.551,0.315
				C726.107,939.077,725.143,939.045,725.143,939.045L725.143,939.045L725.143,939.045z"/>
			<path id="_x31_7" d="M725.059,938.595l0.477,0.349c-0.511,0.836-0.671,0.908-0.542,1.284c0.086,0.251,0.028,0.683-0.339,0.926
				c-0.367,0.242-0.869,0.14-1.112-0.226c-0.242-0.367-0.119-0.728,0.13-0.994c0.154-0.164,0.378-0.193,0.559-0.3
				C724.575,939.429,725.058,938.595,725.059,938.595L725.059,938.595L725.059,938.595z"/>
			<path id="_x31_6" d="M721.742,931.595l0.044,0.59c0.979,0.009,1.125-0.088,1.376,0.22c0.167,0.205,0.565,0.385,0.965,0.202
				c0.4-0.182,0.579-0.663,0.396-1.063c-0.182-0.4-0.554-0.487-0.912-0.416c-0.22,0.043-0.364,0.219-0.551,0.315
				C722.705,931.627,721.741,931.595,721.742,931.595L721.742,931.595L721.742,931.595z"/>
			<path id="_x31_5" d="M721.94,931.803l0.417,0.42c-0.635,0.746-0.804,0.792-0.735,1.184c0.046,0.261-0.079,0.679-0.479,0.862
				c-0.4,0.182-0.88,0.004-1.063-0.396c-0.182-0.4-0.005-0.737,0.284-0.962c0.177-0.138,0.404-0.132,0.599-0.21
				C721.334,932.552,721.94,931.803,721.94,931.803L721.94,931.803L721.94,931.803L721.94,931.803z"/>
			<path id="_x31_4" d="M718.445,924.62l0.044,0.59c0.979,0.009,1.125-0.088,1.376,0.22c0.167,0.205,0.565,0.385,0.965,0.202
				c0.4-0.183,0.579-0.663,0.396-1.063c-0.183-0.4-0.554-0.487-0.913-0.416c-0.22,0.043-0.365,0.219-0.551,0.315
				C719.408,924.652,718.445,924.62,718.445,924.62L718.445,924.62L718.445,924.62z"/>
			<path id="_x31_3" d="M718.717,924.497l0.417,0.419c-0.635,0.746-0.804,0.792-0.735,1.184c0.046,0.261-0.079,0.679-0.479,0.861
				c-0.4,0.182-0.88,0.003-1.063-0.396c-0.182-0.4-0.005-0.738,0.284-0.962c0.177-0.138,0.404-0.132,0.599-0.21
				C718.11,925.245,718.717,924.497,718.717,924.497L718.717,924.497L718.717,924.497z"/>
			<path id="_x31_2" d="M714.934,917.256l0.044,0.589c0.979,0.009,1.125-0.088,1.376,0.22c0.167,0.206,0.565,0.385,0.965,0.203
				c0.4-0.183,0.579-0.663,0.397-1.063c-0.182-0.4-0.554-0.487-0.913-0.416c-0.22,0.044-0.364,0.219-0.551,0.315
				C715.897,917.289,714.933,917.256,714.934,917.256L714.934,917.256L714.934,917.256L714.934,917.256z"/>
			<path id="_x31_1" d="M715.205,917.133l0.416,0.419c-0.635,0.746-0.804,0.792-0.735,1.184c0.046,0.261-0.079,0.679-0.479,0.862
				c-0.4,0.182-0.88,0.003-1.063-0.396c-0.183-0.4-0.005-0.738,0.283-0.962c0.177-0.138,0.404-0.132,0.599-0.21
				C714.598,917.882,715.205,917.133,715.205,917.133L715.205,917.133L715.205,917.133L715.205,917.133L715.205,917.133z"/>
			<path id="_x31_0" fill="#F5D402" d="M721.12,929.848c-0.351,0.146-0.872-1.382-1.254-2.22c-0.392-0.859-1.188-2.183-0.962-2.287
				c0.248-0.113,0.575,0.582,0.976,1.461C720.282,927.682,721.449,929.711,721.12,929.848L721.12,929.848L721.12,929.848
				L721.12,929.848z"/>
			<path id="_x39_" fill="#F5D402" d="M717.515,921.8c-0.351,0.146-0.735-0.854-1.117-1.692c-0.392-0.859-0.774-1.466-0.548-1.569
				c0.248-0.113,0.615,0.639,0.936,1.342C717.097,920.563,717.844,921.663,717.515,921.8L717.515,921.8z"/>
			<path id="_x38_" fill="#F5D402" d="M725.855,940.048c-0.276,0.074-1.478-2.444-2.451-4.574c-0.972-2.13-1.696-3.853-1.47-3.956
				c0.248-0.113,1.036,1.899,2.008,4.029C724.915,937.677,726.062,939.993,725.855,940.048L725.855,940.048z"/>
			<path id="_x37_" fill="#CC092F" d="M735.955,883.281c0,0,0.403-0.763,1.422-0.763c0.426,0,1.832-0.029,1.832-0.029
				c0.187,0.487,1.042,1.3,1.042,2.146c0,0-0.867-1.563-3.287-1.563C736.356,883.072,735.955,883.281,735.955,883.281
				L735.955,883.281L735.955,883.281z"/>
			<path id="_x36_" d="M739.073,883.495c0,0-0.595-0.191-0.595-0.39c0-0.254,0.289-0.254,0.462-0.056
				C739.059,883.185,739.073,883.495,739.073,883.495L739.073,883.495L739.073,883.495z"/>
			<path id="_x35_" fill="#D10429" d="M739.89,884.933c0,0-0.516,0.543-0.628,0.833c-0.51-0.193-1.4-1.11-1.4-1.11
				S738.617,885.096,739.89,884.933L739.89,884.933z"/>
			<path id="_x34_" d="M742.485,883.51c0,0.372-0.381,0.674-0.852,0.674c-0.471,0-0.852-0.301-0.852-0.674c0,0,0,0,0,0
				c0-0.372,0.381-0.674,0.852-0.674C742.103,882.836,742.485,883.137,742.485,883.51
				C742.485,883.509,742.485,883.51,742.485,883.51z"/>
			<path id="_x33_" fill="#F5D402" d="M742.227,883.51c0,0.328-0.266,0.593-0.593,0.593c-0.328,0-0.593-0.266-0.593-0.593
				c0-0.328,0.266-0.593,0.593-0.593C741.961,882.916,742.227,883.182,742.227,883.51z"/>
			<path id="_x32_" d="M741.885,883.51c0.004,0.139-0.106,0.255-0.245,0.258c-0.139,0.004-0.255-0.106-0.258-0.245
				c0-0.004,0-0.009,0-0.013c-0.004-0.139,0.106-0.255,0.245-0.258c0.139-0.004,0.255,0.106,0.258,0.245
				C741.885,883.501,741.885,883.505,741.885,883.51z"/>
			<path id="_x31_" fill="#F5D402" d="M726.184,899.906c0,0,1.451,1.088,1.451,2.193v22.867v3.464c0,0.694,0.214,1.145,0.555,1.587
				c0.34,0.475,1.065,1.133,1.817,1.621c2.323,1.509,6.208,3.1,9.147,4.437c2.449,1.114,3.445,1.563,4.718,3.14
				c1.273-1.576,2.278-2.026,4.727-3.14c2.938-1.337,6.823-2.928,9.146-4.437c0.752-0.489,1.477-1.146,1.817-1.621
				c0.34-0.442,0.546-0.893,0.546-1.587v-3.464v-22.867c0-1.104,1.451-2.193,1.451-2.193h-1.544h-0.904h-15.239h-15.238h-0.905
				H726.184L726.184,899.906L726.184,899.906L726.184,899.906z M728.043,900.743h0.589h15.239h15.238h0.589
				c0,0-0.427,0.513-0.427,1.357v22.867v3.464c0,0.575-0.596,1.921-4.036,3.635c-5.685,2.833-10.055,4.156-11.365,5.768
				c-1.31-1.612-5.68-2.935-11.365-5.768c-3.439-1.714-4.036-3.06-4.036-3.635v-3.464v-22.867
				C728.47,901.256,728.044,900.743,728.043,900.743L728.043,900.743L728.043,900.743z"/>
		</g>
	</g>
</switch>
</svg>