<?xml version="1.0" encoding="utf-8"?>
<svg id="Countryflags.com" width = "100%" height = "100%"
	 xmlns="http://www.w3.org/2000/svg" xmlns:xlink="http://www.w3.org/1999/xlink" x="0px" y="0px" viewBox="369.5 846.5 300 200"
	 >
<switch>
	<g>
		<g>
			<rect id="_x35_3" x="369.5" y="846.5" fill="#FF9933" width="300" height="200"/>
			<rect id="_x35_2" x="369.5" y="913.166" fill="#FFFFFF" width="300" height="66.667"/>
			<rect id="_x35_1" x="369.5" y="979.833" fill="#128807" width="300" height="66.667"/>
			<circle id="_x35_0" fill="#000088" cx="519.5" cy="946.5" r="26.667"/>
			<circle id="_x34_9" fill="#FFFFFF" cx="519.5" cy="946.5" r="23.333"/>
			<circle id="_x34_8" fill="#000088" cx="519.5" cy="946.5" r="4.667"/>
			<circle id="_x34_7" fill="#000088" cx="542.634" cy="949.546" r="1.167"/>
			<path id="_x34_6" fill="#000088" d="M519.5,969.833l0.8-14l-0.8-6.667l-0.8,6.667L519.5,969.833z"/>
			<circle id="_x34_5" fill="#000088" cx="541.057" cy="955.429" r="1.167"/>
			<path id="_x34_4" fill="#000088" d="M513.461,969.038l4.396-13.316l0.953-6.647l-2.498,6.232L513.461,969.038z"/>
			<circle id="_x34_3" fill="#000088" cx="538.012" cy="960.704" r="1.167"/>
			<path id="_x34_2" fill="#000088" d="M507.834,966.707l7.693-11.724l2.641-6.174l-4.026,5.373L507.834,966.707z"/>
			<circle id="_x34_1" fill="#000088" cx="533.705" cy="965.011" r="1.167"/>
			<path id="_x34_0" fill="#000088" d="M503.001,962.999l10.465-9.334l4.148-5.28l-5.28,4.148L503.001,962.999z"/>
			<circle id="_x33_9" fill="#000088" cx="528.429" cy="968.057" r="1.167"/>
			<path id="_x33_8" fill="#000088" d="M499.293,958.166l12.525-6.307l5.373-4.026l-6.174,2.641L499.293,958.166z"/>
			<circle id="_x33_7" fill="#000088" cx="522.546" cy="969.634" r="1.167"/>
			<path id="_x33_6" fill="#000088" d="M496.962,952.539l13.73-2.851l6.232-2.498l-6.647,0.953L496.962,952.539z"/>
			<circle id="_x33_5" fill="#000088" cx="516.454" cy="969.634" r="1.167"/>
			<path id="_x33_4" fill="#000088" d="M496.167,946.5l14,0.8l6.667-0.8l-6.667-0.8L496.167,946.5z"/>
			<circle id="_x33_3" fill="#000088" cx="510.571" cy="968.057" r="1.167"/>
			<path id="_x33_2" fill="#000088" d="M496.962,940.461l13.316,4.396l6.647,0.953l-6.232-2.498L496.962,940.461z"/>
			<circle id="_x33_1" fill="#000088" cx="505.296" cy="965.011" r="1.167"/>
			<path id="_x33_0" fill="#000088" d="M499.293,934.833l11.724,7.693l6.174,2.64l-5.373-4.026L499.293,934.833z"/>
			<circle id="_x32_9" fill="#000088" cx="500.989" cy="960.704" r="1.167"/>
			<path id="_x32_8" fill="#000088" d="M503.001,930.001l9.334,10.465l5.28,4.148l-4.148-5.28L503.001,930.001z"/>
			<circle id="_x32_7" fill="#000088" cx="497.943" cy="955.429" r="1.167"/>
			<path id="_x32_6" fill="#000088" d="M507.834,926.293l6.307,12.524l4.026,5.374l-2.641-6.174L507.834,926.293z"/>
			<circle id="_x32_5" fill="#000088" cx="496.366" cy="949.546" r="1.167"/>
			<path id="_x32_4" fill="#000088" d="M513.461,923.962l2.851,13.73l2.498,6.232l-0.953-6.646L513.461,923.962z"/>
			<circle id="_x32_3" fill="#000088" cx="496.366" cy="943.454" r="1.167"/>
			<path id="_x32_2_1_" fill="#000088" d="M519.5,923.166l-0.8,14l0.8,6.667l0.8-6.667L519.5,923.166z"/>
			<circle id="_x32_2" fill="#000088" cx="497.943" cy="937.57" r="1.167"/>
			<path id="_x32_1" fill="#000088" d="M525.539,923.962l-4.396,13.316l-0.953,6.646l2.498-6.232L525.539,923.962z"/>
			<circle id="_x32_0" fill="#000088" cx="500.989" cy="932.295" r="1.167"/>
			<path id="_x31_9" fill="#000088" d="M531.167,926.293l-7.693,11.724l-2.64,6.174l4.026-5.374L531.167,926.293z"/>
			<circle id="_x31_8" fill="#000088" cx="505.296" cy="927.988" r="1.167"/>
			<path id="_x31_7" fill="#000088" d="M535.999,930.001l-10.465,9.334l-4.148,5.28l5.28-4.148L535.999,930.001z"/>
			<circle id="_x31_6" fill="#000088" cx="510.571" cy="924.943" r="1.167"/>
			<path id="_x31_5" fill="#000088" d="M539.707,934.833l-12.524,6.307l-5.373,4.026l6.174-2.64L539.707,934.833z"/>
			<circle id="_x31_4" fill="#000088" cx="516.454" cy="923.366" r="1.167"/>
			<path id="_x31_3" fill="#000088" d="M542.038,940.461l-13.73,2.851l-6.232,2.498l6.646-0.953L542.038,940.461z"/>
			<circle id="_x31_2" fill="#000088" cx="522.546" cy="923.366" r="1.167"/>
			<path id="_x31_1" fill="#000088" d="M542.834,946.5l-14-0.8l-6.667,0.8l6.667,0.8L542.834,946.5z"/>
			<circle id="_x31_0" fill="#000088" cx="528.429" cy="924.943" r="1.167"/>
			<path id="_x39_" fill="#000088" d="M542.038,952.539l-13.316-4.396l-6.646-0.953l6.232,2.498L542.038,952.539z"/>
			<circle id="_x38_" fill="#000088" cx="533.705" cy="927.988" r="1.167"/>
			<path id="_x37_" fill="#000088" d="M539.707,958.166l-11.724-7.693l-6.174-2.641l5.373,4.026L539.707,958.166z"/>
			<circle id="_x36_" fill="#000088" cx="538.012" cy="932.295" r="1.167"/>
			<path id="_x35_" fill="#000088" d="M535.999,962.999l-9.334-10.465l-5.28-4.148l4.148,5.28L535.999,962.999z"/>
			<circle id="_x34_" fill="#000088" cx="541.057" cy="937.57" r="1.167"/>
			<path id="_x33_" fill="#000088" d="M531.167,966.707l-6.307-12.525l-4.026-5.373l2.64,6.174L531.167,966.707z"/>
			<circle id="_x32_" fill="#000088" cx="542.634" cy="943.454" r="1.167"/>
			<path id="_x31_" fill="#000088" d="M525.539,969.038l-2.851-13.73l-2.498-6.232l0.953,6.647L525.539,969.038z"/>
		</g>
	</g>
</switch>
</svg>