<?xml version="1.0" encoding="utf-8"?>
<svg version="1.1"
	 id="Countryflags.com" width = "100%" height = "100%" xmlns:rdf="http://www.w3.org/1999/02/22-rdf-syntax-ns#" xmlns:dc="http://purl.org/dc/elements/1.1/" xmlns:cc="http://creativecommons.org/ns#"
	 xmlns="http://www.w3.org/2000/svg" xmlns:xlink="http://www.w3.org/1999/xlink" x="0px" y="0px" viewBox="144.5 696.5 300 200"
	 enable-background="new 144.5 696.5 300 200" xml:space="preserve">
<switch>
	<g>
		<g>
			<rect id="_x35_" x="144.5" y="696.5" fill="#CE1126" width="300" height="66.667"/>
			<rect id="_x34_" x="144.5" y="763.166" fill="#FFFFFF" width="300" height="66.667"/>
			<rect id="_x33_" x="144.5" y="829.833" width="300" height="66.667"/>
			<path id="_x32_" fill="#007A3D" d="M235.716,821.266l-1.724-1.892l1.74-1.875l1.74-1.875l1.724,1.892l1.724,1.892l-1.74,1.875
				l-1.74,1.875l-1.722-1.896L235.716,821.266z M223.88,820.313c-0.62-0.246-1.626-1.058-2.286-1.842
				c-1.243-1.479-1.526-2.169-0.691-1.683c1.245,0.725,3.712,1.196,4.589,0.879c3.238-1.176,3.973-5.876,1.388-8.858
				c-0.507-0.585-0.923-1.264-0.923-1.511s0.539-0.707,1.198-1.024c0.923-0.444,1.374-0.927,1.965-2.107
				c0.599-1.198,0.845-1.459,1.133-1.199c0.411,0.371,1.8,3.976,1.8,4.673c0,0.367,0.502,0.448,2.774,0.448h2.774l-0.433-1.131
				c-0.238-0.621-0.63-1.457-0.871-1.858c-0.39-0.649-0.393-0.764-0.018-1.054c0.231-0.179,0.999-0.768,1.708-1.307
				c0.708-0.539,1.369-1.217,1.468-1.506c0.245-0.717,1.78-2.786,2.064-2.786c0.126,0,0.231,2.169,0.231,4.82v4.821h34.632v-13.811
				l-0.964-0.648l-0.963-0.648l-0.976,0.81l-0.976,0.809v9.872H257.96c-8.001,0-14.547-0.055-14.547-0.12
				c0-0.105,7.238-10.737,8.123-11.932c0.184-0.248,0.639-0.926,1.01-1.506c0.372-0.58,0.75-1.122,0.84-1.205
				c0.092-0.083,0.466-0.625,0.836-1.205c0.368-0.58,0.799-1.213,0.956-1.406c0.158-0.194,2.78-4.016,5.827-8.494
				c3.048-4.478,5.632-8.15,5.745-8.16c0.112-0.01,0.271,0.355,0.353,0.81c0.457,2.522,0.808,3.934,1.17,4.711
				c0.464,0.993,0.192,1.364-1.032,1.405c-0.579,0.019-1.914,1.801-8.174,10.914c-4.114,5.99-7.522,10.997-7.573,11.129
				c-0.051,0.132,3.658,0.24,8.243,0.24h8.335l0.004-3.24c0.002-1.781,0.096-3.379,0.208-3.55c0.523-0.801,6.034-4.989,6.418-4.877
				c0.239,0.069,1.713,1.184,3.275,2.477l2.84,2.352v20.097h-48.126l-0.483,1.943c-0.58,2.329-1.529,4.009-2.803,4.958
				c-1.211,0.885-3.935,1.135-5.532,0.499L223.88,820.313z M283.863,797.259c0-10.938,0.091-15.717,0.301-15.859
				c0.165-0.111,0.882,0.461,1.593,1.271c0.711,0.811,1.978,2.112,2.817,2.892c1.323,1.233,1.461,1.46,1.053,1.73
				c-1.364,0.901-1.33,0.617-1.33,11.016v9.771h2.652c2.355,0,2.79-0.087,3.879-0.782c1.352-0.862,1.441-0.748,0.772,0.971
				c-0.251,0.641-0.53,1.913-0.624,2.824l-0.169,1.657l-5.472,0.082l-5.471,0.082V797.25V797.259z"/>
			<path id="_x31_" fill="#007A3D" d="M312.514,808.848c0.145-4.405,0.563-5.9,2.05-7.319c1.144-1.092,2.781-1.61,4.675-1.477
				l1.419,0.1l0.085-1.802c0.108-2.284-0.082-3.099-0.781-3.341c-0.838-0.289-0.667-1.236,0.349-1.925
				c0.497-0.337,1.714-1.505,2.703-2.596c0.989-1.091,1.897-1.983,2.016-1.983c0.119,0,0.217,4.355,0.217,9.679v9.68h3.893v-9.96
				c0-8.652-0.058-10.023-0.438-10.436c-0.24-0.261-0.553-0.476-0.695-0.476c-0.624,0-0.183-1.211,0.645-1.773
				c0.498-0.337,1.708-1.498,2.691-2.581c0.982-1.083,1.89-1.899,2.017-1.814c0.126,0.085,0.23,6.203,0.23,13.597v13.443h3.893
				v-27.529l-0.695-0.657c-0.382-0.361-0.695-0.822-0.695-1.023c0-0.201,0.865-1.125,1.923-2.054
				c1.057-0.93,2.192-2.101,2.522-2.605c1.419-2.169,1.396-2.493,1.396,18.895v19.811h-29.548l0.177-3.859L312.514,808.848z
				 M320.791,805.897v-1.966H319.7c-1.464,0-2.802,1.383-2.802,2.897v1.035h3.893v-1.964V805.897z M344.995,796.998
				c0-10.98,0.091-15.779,0.302-15.921c0.166-0.111,0.886,0.463,1.599,1.277c0.714,0.814,1.985,2.12,2.827,2.904
				c1.328,1.237,1.467,1.465,1.057,1.737c-1.369,0.905-1.335,0.621-1.335,11.059v9.809h2.717c2.464,0,2.815-0.073,3.776-0.783
				c0.584-0.43,1.128-0.708,1.212-0.617c0.084,0.091-0.067,0.749-0.335,1.463c-0.268,0.714-0.566,2.047-0.661,2.961l-0.173,1.664
				l-5.493,0.082l-5.493,0.082v-15.721L344.995,796.998z M323.097,780.54c-0.491-0.195-1.054-0.542-1.251-0.769
				c-0.303-0.347-0.153-0.382,0.948-0.21c1.977,0.306,3.188-0.058,4.291-1.294l0.97-1.085l1.347,0.52
				c0.741,0.286,1.516,0.45,1.722,0.363c0.534-0.224,1.503-1.893,1.406-2.424c-0.118-0.648,0.429-0.549,0.767,0.137
				c0.664,1.349,0.11,3.059-1.159,3.58c-0.621,0.255-1.221,0.262-2.227,0.028c-1.236-0.288-1.438-0.258-1.98,0.294
				c-1.211,1.237-3.058,1.566-4.833,0.863L323.097,780.54z M326.468,775.545c-0.67-0.497-2.084-3.045-2.137-3.856
				c-0.047-0.695,0.067-0.907,0.521-0.979c0.795-0.124,1.163,0.452,1.774,2.78c0.501,1.907,0.449,2.508-0.157,2.054H326.468z"/>
		</g>
	</g>
</switch>
</svg>