<?xml version="1.0" encoding="utf-8"?>
<svg version="1.1" id="Countryflags.com" width = "100%" height = "100%"
	 xmlns="http://www.w3.org/2000/svg" xmlns:xlink="http://www.w3.org/1999/xlink" x="0px" y="0px" viewBox="294.5 696.5 300 150"
	 enable-background="new 294.5 696.5 300 150" xml:space="preserve">
<switch>
	<g>
		<g>
			<rect id="_x31_8" x="294.5" y="696.5" fill="#006600" width="300" height="150"/>
			<rect id="_x31_7" x="294.5" y="696.5" fill="#FFFFFF" width="300" height="107.143"/>
			<rect id="_x31_6" x="294.5" y="696.5" fill="#CC0000" width="300" height="42.857"/>
			<path id="_x31_5" fill="#F8C300" d="M438.5,769.507c0.744-1.279,2.383-1.713,3.662-0.969c0.799,0.465,1.302,1.309,1.331,2.233
				v10.714h2.014v-10.714c0.045-1.479,1.281-2.64,2.76-2.595c0.924,0.029,1.769,0.531,2.233,1.331
				c1.099-3.314-0.696-6.891-4.01-7.99s-6.891,0.696-7.99,4.01C438.072,766.819,438.072,768.215,438.5,769.507"/>
			<path id="_x31_4" fill="#FFFFFF" d="M439.936,766.71c1.803-0.368,3.64,0.455,4.564,2.047c0.924-1.592,2.761-2.415,4.564-2.047
				c-0.346-2.521-2.67-4.283-5.191-3.937C441.826,763.054,440.217,764.664,439.936,766.71"/>
			<path id="_x31_3" fill="#F8C300" d="M443.493,777.206c-0.402,4.479-4.359,7.784-8.839,7.382
				c-1.811-0.163-3.516-0.927-4.842-2.171c-1.73,4.343-6.653,6.461-10.996,4.731c-0.639-0.255-1.245-0.586-1.804-0.988
				c0.782,7.805,12.483,6.212,13.354-1.378c3.676,6.453,11.759,4.605,14.124-3.3L443.493,777.206z"/>
			<path id="_x31_2" fill="#F8C300" d="M445.507,777.206c0.402,4.479,4.359,7.784,8.839,7.382c1.811-0.163,3.516-0.927,4.842-2.171
				c1.73,4.343,6.653,6.461,10.996,4.731c0.639-0.255,1.245-0.586,1.804-0.988c-0.782,7.805-12.483,6.212-13.354-1.378
				c-3.676,6.453-11.759,4.605-14.124-3.3L445.507,777.206z"/>
			<path id="_x31_1" fill="#F8C300" d="M435.68,791.066c-1.633,3.524-4.896,4.13-7.75,1.285c0,0,1.147-0.811,2.376-1.034
				c-0.23-0.98,0.242-2.336,0.907-3.07c0.698,0.477,1.672,1.433,1.92,2.544C434.854,790.569,435.68,791.066,435.68,791.066
				L435.68,791.066z"/>
			<path id="_x31_0" fill="#F8C300" d="M448.451,790.667c-2.184,3.211-5.502,3.277-7.855,0.006c0,0,1.264-0.613,2.512-0.634
				c-0.068-1.005,0.619-2.266,1.395-2.881c0.611,0.584,1.417,1.686,1.48,2.823C447.718,790.042,448.451,790.667,448.451,790.667
				L448.451,790.667z"/>
			<path id="_x39_" fill="#F8C300" d="M461.117,792.353c-2.678,2.813-5.963,2.338-7.751-1.273c0,0,1.347-0.399,2.582-0.216
				c0.097-1.002,0.979-2.135,1.845-2.615c0.508,0.676,1.123,1.895,1.001,3.026C460.495,791.617,461.117,792.353,461.117,792.353
				L461.117,792.353z"/>
			<path id="_x38_" fill="none" stroke="#F8C300" stroke-width="4" d="M423.714,798.928c13.563-4.037,28.008-4.037,41.572,0"/>
			<polygon id="_x37_" fill="#F8C300" points="444.5,742.571 447.649,752.262 439.405,746.273 449.595,746.273 441.351,752.262 			
				"/>
			<polygon id="_x36_" fill="#F8C300" points="429.5,746.591 432.649,756.282 424.405,750.292 434.595,750.292 426.351,756.282 			
				"/>
			<polygon id="_x35_" fill="#F8C300" points="418.519,757.571 421.668,767.262 413.424,761.273 423.614,761.273 415.371,767.262 
							"/>
			<polygon id="_x34_" fill="#F8C300" points="414.5,772.571 417.649,782.262 409.405,776.273 419.595,776.273 411.351,782.262 			
				"/>
			<polygon id="_x33_" fill="#F8C300" points="459.5,746.591 456.351,756.282 464.595,750.292 454.405,750.292 462.649,756.282 			
				"/>
			<polygon id="_x32_" fill="#F8C300" points="470.481,757.571 467.332,767.262 475.576,761.273 465.386,761.273 473.63,767.262 			
				"/>
			<polygon id="_x31_" fill="#F8C300" points="474.5,772.571 471.351,782.262 479.595,776.273 469.405,776.273 477.649,782.262 			
				"/>
		</g>
	</g>
</switch>
</svg>