<?xml version="1.0" encoding="utf-8"?>
<svg version="1.1" width = "100%" height = "100%"
	 id="Countryflags.com"  xmlns:cc="http://creativecommons.org/ns#" xmlns:svg="http://www.w3.org/2000/svg" xmlns:rdf="http://www.w3.org/1999/02/22-rdf-syntax-ns#" xmlns:dc="http://purl.org/dc/elements/1.1/"
	 xmlns="http://www.w3.org/2000/svg" xmlns:xlink="http://www.w3.org/1999/xlink" x="0px" y="0px" viewBox="194.5 696.5 300 180"
	 enable-background="new 194.5 696.5 300 180" xml:space="preserve">
<switch>
	<g>
		<g>
			<rect id="_x31_83" x="194.5" y="696.5" fill="#FFFFFF" width="300" height="180"/>
			<rect id="_x31_82" x="194.5" y="816.5" fill="#0038A8" width="300" height="60"/>
			<rect id="_x31_81" x="194.5" y="696.5" fill="#D52B1E" width="300" height="60"/>
			<path id="_x31_80" fill="none" stroke="#000000" stroke-width="0.9303" stroke-linecap="round" d="M367.517,786.5
				c0.001,12.712-10.303,23.018-23.014,23.019c-12.712,0.001-23.017-10.303-23.019-23.014c0-0.001,0-0.003,0-0.005
				c-0.001-12.712,10.303-23.018,23.014-23.019c12.712-0.001,23.017,10.303,23.019,23.014
				C367.517,786.497,367.517,786.498,367.517,786.5z"/>
			<path id="_x31_79" fill="#009B3A" stroke="#000000" stroke-width="0.075" d="M347.542,775.752c0,0,8.756,3.772,7.227,11.567
				c-1.529,7.795-6.403,7.743-8.315,8.605c-1.911,0.861-3.23,2.094-3.984,1.922c-0.754-0.173-1.751-0.754-1.751-0.754
				s-0.08,1.28,1.455,1.513c1.535,0.233,3.553-2.021,4.523-2.271c0.969-0.25,6.921-0.896,8.369-8.828
				C356.755,779.039,347.596,776,347.542,775.752z"/>
			<path id="_x31_78" fill="#009B3A" stroke="#000000" stroke-width="0.075" d="M351.965,777.412
				c0.164,0.643,0.167,1.174,0.008,1.186c-0.159,0.012-0.421-0.499-0.585-1.142l0,0c-0.164-0.643-0.168-1.174-0.008-1.186
				C351.539,776.258,351.8,776.769,351.965,777.412z"/>
			<path id="_x31_77" fill="#009B3A" stroke="#000000" stroke-width="0.075" d="M351.66,777.492
				c0.304,0.613,0.433,1.153,0.289,1.206c-0.144,0.053-0.507-0.4-0.81-1.013c0-0.001-0.001-0.001-0.001-0.002
				c-0.304-0.613-0.433-1.153-0.289-1.206c0.144-0.053,0.507,0.4,0.81,1.013C351.659,777.491,351.66,777.492,351.66,777.492z"/>
			<path id="_x31_76" fill="#009B3A" stroke="#000000" stroke-width="0.075" d="M350.786,778.071
				c0.621,0.182,1.112,0.462,1.097,0.625c-0.015,0.164-0.531,0.149-1.151-0.033l0,0c-0.621-0.182-1.112-0.462-1.097-0.625
				C349.649,777.875,350.165,777.89,350.786,778.071L350.786,778.071z"/>
			<path id="_x31_75" fill="#009B3A" stroke="#000000" stroke-width="0.075" d="M350.914,777.753
				c0.565,0.379,0.968,0.799,0.899,0.937c-0.069,0.139-0.583-0.057-1.148-0.435c-0.001-0.001-0.002-0.001-0.003-0.002
				c-0.565-0.379-0.968-0.798-0.899-0.937c0.069-0.138,0.583,0.057,1.148,0.436C350.912,777.751,350.913,777.752,350.914,777.753z"
				/>
			<path id="_x31_74" fill="#009B3A" stroke="#000000" stroke-width="0.075" d="M351.284,777.6c0.48,0.499,0.784,0.991,0.679,1.099
				c-0.105,0.108-0.58-0.209-1.06-0.708c-0.48-0.499-0.784-0.991-0.679-1.099C350.329,776.783,350.804,777.101,351.284,777.6z"/>
			<path id="_x31_73" fill="#009B3A" stroke="#000000" stroke-width="0.075" d="M351.895,778.698
				c0.005,0.005-0.338,0.19-0.415,0.218c-0.078,0.028-0.183-0.103-0.406,0.011s-0.376,0.323-0.425,0.446
				c-0.049,0.122,0.063,0.174,0.333,0.043c0.27-0.131,0.341-0.339,0.471-0.42c0.13-0.081,0.348-0.201,0.473-0.245
				c0.054-0.117,0.228-0.369,0.319-0.514c0.09-0.144,0.444-0.383,0.573-0.66c0.113-0.23,0.07-0.425-0.08-0.343
				c-0.151,0.082-0.345,0.312-0.436,0.478c-0.091,0.166-0.013,0.376-0.113,0.532C352.108,778.356,351.916,778.698,351.895,778.698
				L351.895,778.698z"/>
			<path id="_x31_72" fill="#009B3A" stroke="#000000" stroke-width="0.075" d="M354.605,779.597
				c0.015,0.994-0.156,1.757-0.38,1.705c-0.225-0.052-0.418-0.9-0.433-1.894c0-0.002,0-0.004,0-0.006
				c-0.014-0.994,0.156-1.757,0.381-1.705c0.225,0.052,0.418,0.9,0.433,1.894C354.605,779.593,354.605,779.595,354.605,779.597z"/>
			<path id="_x31_71" fill="#009B3A" stroke="#000000" stroke-width="0.075" d="M354.157,779.577c0.217,1.013,0.217,1.844,0,1.855
				c-0.217,0.011-0.569-0.802-0.786-1.815l0,0c-0.217-1.014-0.217-1.844,0-1.855C353.588,777.75,353.94,778.563,354.157,779.577
				L354.157,779.577z"/>
			<path id="_x31_70" fill="#009B3A" stroke="#000000" stroke-width="0.075" d="M352.755,780.015c0.8,0.538,1.389,1.159,1.315,1.388
				c-0.074,0.229-0.782-0.022-1.581-0.56c-0.002-0.001-0.004-0.003-0.006-0.004c-0.8-0.538-1.388-1.159-1.315-1.388
				s0.782,0.022,1.581,0.56C352.751,780.012,352.753,780.013,352.755,780.015z"/>
			<path id="_x31_69" fill="#009B3A" stroke="#000000" stroke-width="0.075" d="M353.038,779.616
				c0.658,0.796,1.077,1.577,0.936,1.745c-0.141,0.168-0.788-0.342-1.446-1.138c-0.001-0.001-0.002-0.003-0.004-0.004
				c-0.657-0.796-1.074-1.576-0.931-1.741C351.735,778.312,352.382,778.822,353.038,779.616z"/>
			<path id="_x31_68" fill="#009B3A" stroke="#000000" stroke-width="0.075" d="M353.601,779.562c0.5,0.929,0.76,1.772,0.58,1.882
				c-0.18,0.11-0.732-0.554-1.232-1.484c-0.002-0.003-0.004-0.006-0.005-0.009c-0.5-0.929-0.76-1.772-0.579-1.882
				c0.18-0.11,0.732,0.554,1.232,1.483C353.598,779.556,353.599,779.559,353.601,779.562z"/>
			<path id="_x31_67" fill="#009B3A" stroke="#000000" stroke-width="0.075" d="M354.084,781.409
				c0.005,0.01-0.531,0.121-0.647,0.126c-0.117,0.005-0.219-0.23-0.566-0.166c-0.347,0.064-0.628,0.295-0.737,0.449
				s0.03,0.277,0.447,0.21c0.417-0.067,0.584-0.333,0.791-0.391c0.207-0.058,0.549-0.132,0.735-0.14
				c0.113-0.144,0.439-0.426,0.611-0.593c0.173-0.166,0.742-0.349,1.013-0.689c0.232-0.278,0.238-0.577,0.003-0.528
				c-0.236,0.049-0.582,0.293-0.762,0.49c-0.18,0.197-0.142,0.534-0.333,0.711C354.491,781.014,354.112,781.418,354.084,781.409
				L354.084,781.409z"/>
			<path id="_x31_66" fill="#009B3A" stroke="#000000" stroke-width="0.075" d="M356.033,783.225
				c-0.166,0.984-0.47,1.704-0.68,1.607c-0.21-0.096-0.246-0.972-0.08-1.956c0.165-0.984,0.47-1.704,0.679-1.608
				C356.162,781.365,356.198,782.241,356.033,783.225L356.033,783.225z"/>
			<path id="_x31_65" fill="#009B3A" stroke="#000000" stroke-width="0.075" d="M355.598,783.119c0.03,1.043-0.12,1.864-0.334,1.833
				c-0.214-0.03-0.412-0.9-0.441-1.942c0-0.001,0-0.002,0-0.003c-0.03-1.043,0.12-1.864,0.334-1.833
				c0.214,0.03,0.412,0.9,0.442,1.942C355.598,783.117,355.598,783.118,355.598,783.119z"/>
			<path id="_x31_64" fill="#009B3A" stroke="#000000" stroke-width="0.075" d="M354.149,783.282
				c0.685,0.685,1.148,1.411,1.034,1.622c-0.114,0.211-0.761-0.173-1.446-0.858c-0.001-0.001-0.002-0.002-0.003-0.003
				c-0.685-0.685-1.148-1.411-1.034-1.622c0.114-0.211,0.761,0.173,1.445,0.858C354.147,783.28,354.148,783.281,354.149,783.282z"/>
			<path id="_x31_63" fill="#009B3A" stroke="#000000" stroke-width="0.075" d="M354.497,782.942c0.499,0.912,0.768,1.764,0.6,1.903
				c-0.168,0.139-0.709-0.489-1.208-1.401c-0.001-0.002-0.002-0.004-0.003-0.006c-0.499-0.912-0.768-1.764-0.6-1.903
				c0.168-0.139,0.709,0.489,1.208,1.401C354.495,782.939,354.496,782.94,354.497,782.942z"/>
			<path id="_x31_62" fill="#009B3A" stroke="#000000" stroke-width="0.075" d="M355.057,782.998
				c0.321,1.014,0.423,1.896,0.227,1.97c-0.196,0.074-0.615-0.688-0.937-1.702c-0.001-0.003-0.002-0.006-0.003-0.01
				c-0.321-1.014-0.423-1.896-0.227-1.969c0.196-0.074,0.615,0.688,0.937,1.702C355.055,782.991,355.056,782.994,355.057,782.998z"
				/>
			<path id="_x31_61" fill="#009B3A" stroke="#000000" stroke-width="0.075" d="M355.196,784.914c0.003,0.011-0.541,0.018-0.656,0
				s-0.173-0.269-0.523-0.272c-0.351-0.003-0.668,0.171-0.801,0.302c-0.133,0.131-0.021,0.28,0.399,0.294
				c0.42,0.014,0.631-0.216,0.844-0.234c0.213-0.018,0.56-0.025,0.744,0.003c0.137-0.12,0.506-0.337,0.705-0.468
				c0.199-0.131,0.789-0.202,1.114-0.486c0.277-0.23,0.337-0.524,0.098-0.521c-0.239,0.003-0.621,0.177-0.833,0.337
				c-0.212,0.16-0.236,0.5-0.454,0.638C355.666,784.602,355.222,784.928,355.196,784.914L355.196,784.914z"/>
			<path id="_x31_60" fill="#009B3A" stroke="#000000" stroke-width="0.075" d="M356.138,787.277
				c-0.532,0.844-1.087,1.386-1.24,1.211c-0.153-0.176,0.154-1.003,0.686-1.847c0-0.001,0.001-0.001,0.001-0.001
				c0.532-0.844,1.087-1.386,1.24-1.211c0.153,0.175-0.155,1.002-0.686,1.847C356.139,787.276,356.139,787.276,356.138,787.277z"/>
			<path id="_x31_59" fill="#009B3A" stroke="#000000" stroke-width="0.075" d="M355.786,786.998
				c-0.378,0.979-0.832,1.679-1.015,1.564c-0.183-0.116-0.024-1.003,0.354-1.982c0.001-0.002,0.001-0.004,0.002-0.006
				c0.379-0.979,0.832-1.676,1.013-1.557C356.322,785.135,356.163,786.021,355.786,786.998z"/>
			<path id="_x31_58" fill="#009B3A" stroke="#000000" stroke-width="0.075" d="M354.411,786.55c0.354,0.919,0.49,1.782,0.305,1.93
				c-0.185,0.148-0.622-0.477-0.976-1.395c-0.354-0.918-0.49-1.782-0.305-1.93C353.62,785.008,354.057,785.632,354.411,786.55
				L354.411,786.55z"/>
			<path id="_x31_57" fill="#009B3A" stroke="#000000" stroke-width="0.075" d="M354.858,786.38c0.098,1.053,0.01,1.952-0.196,2.01
				c-0.206,0.057-0.452-0.75-0.55-1.802l0,0c-0.098-1.053-0.009-1.952,0.197-2.009C354.515,784.52,354.761,785.327,354.858,786.38
				L354.858,786.38z"/>
			<path id="_x31_56" fill="#009B3A" stroke="#000000" stroke-width="0.075" d="M355.344,786.662
				c-0.103,1.073-0.354,1.931-0.56,1.915c-0.206-0.015-0.289-0.897-0.186-1.971c0.103-1.073,0.354-1.93,0.56-1.915
				C355.364,784.707,355.447,785.589,355.344,786.662z"/>
			<path id="_x31_55" fill="#009B3A" stroke="#000000" stroke-width="0.075" d="M354.725,788.497
				c-0.001,0.011-0.497-0.207-0.594-0.271c-0.097-0.064-0.052-0.321-0.368-0.469c-0.316-0.148-0.671-0.118-0.842-0.051
				c-0.172,0.066-0.127,0.251,0.247,0.437c0.374,0.186,0.655,0.06,0.855,0.132c0.2,0.071,0.517,0.208,0.673,0.311
				c0.171-0.055,0.589-0.103,0.82-0.143c0.231-0.039,0.792,0.138,1.197,0.01c0.34-0.099,0.509-0.347,0.291-0.443
				c-0.218-0.096-0.632-0.092-0.885-0.032c-0.254,0.06-0.407,0.366-0.659,0.404C355.271,788.402,354.743,788.521,354.725,788.497
				L354.725,788.497z"/>
			<path id="_x31_54" fill="#009B3A" stroke="#000000" stroke-width="0.075" d="M355.047,791.384
				c-0.863,0.74-1.652,1.137-1.763,0.888c-0.11-0.249,0.5-1.051,1.363-1.79c0.001,0,0.001-0.001,0.001-0.001
				c0.863-0.74,1.652-1.137,1.763-0.888c0.11,0.249-0.5,1.051-1.363,1.79C355.047,791.383,355.047,791.384,355.047,791.384z"/>
			<path id="_x31_53" fill="#009B3A" stroke="#000000" stroke-width="0.075" d="M354.751,790.949
				c-0.738,0.944-1.468,1.553-1.631,1.36c-0.163-0.193,0.303-1.116,1.04-2.06c0.002-0.002,0.004-0.004,0.005-0.007
				c0.738-0.944,1.468-1.553,1.631-1.359c0.163,0.193-0.303,1.115-1.04,2.06C354.754,790.945,354.752,790.947,354.751,790.949z"/>
			<path id="_x31_52" fill="#009B3A" stroke="#000000" stroke-width="0.075" d="M353.384,789.958
				c0.088,1.141-0.045,2.146-0.297,2.244c-0.253,0.098-0.529-0.747-0.616-1.889c0-0.003-0.001-0.005-0.001-0.008
				c-0.088-1.141,0.045-2.146,0.297-2.244c0.253-0.098,0.529,0.747,0.616,1.889C353.383,789.952,353.384,789.955,353.384,789.958z"
				/>
			<path id="_x31_51" fill="#009B3A" stroke="#000000" stroke-width="0.075" d="M353.932,789.931
				c-0.239,1.197-0.631,2.158-0.877,2.147c-0.246-0.011-0.251-0.991-0.013-2.188l0,0c0.239-1.197,0.631-2.158,0.877-2.147
				C354.165,787.755,354.171,788.734,353.932,789.931z"/>
			<path id="_x31_50" fill="#009B3A" stroke="#000000" stroke-width="0.075" d="M354.374,790.419
				c-0.466,1.147-1.024,2.003-1.246,1.911c-0.221-0.091-0.023-1.095,0.444-2.242c0.466-1.147,1.024-2.003,1.246-1.911
				C355.039,788.268,354.84,789.272,354.374,790.419z"/>
			<path id="_x31_49" fill="#009B3A" stroke="#000000" stroke-width="0.075" d="M353.09,792.22
				c-0.005,0.012-0.479-0.408-0.565-0.514c-0.086-0.106,0.048-0.373-0.251-0.651c-0.299-0.278-0.699-0.373-0.91-0.362
				c-0.211,0.011-0.223,0.231,0.128,0.572c0.351,0.341,0.702,0.304,0.898,0.455c0.196,0.151,0.501,0.417,0.638,0.586
				c0.206,0.001,0.682,0.099,0.949,0.139c0.267,0.04,0.827,0.439,1.315,0.444c0.407,0.014,0.674-0.199,0.465-0.383
				c-0.209-0.184-0.665-0.331-0.964-0.356c-0.299-0.025-0.568,0.257-0.858,0.207C353.722,792.313,353.102,792.253,353.09,792.22z"/>
			<path id="_x31_48" fill="#009B3A" stroke="#000000" stroke-width="0.075" d="M352.231,794.978
				c-1.237,0.205-2.217,0.126-2.188-0.174c0.028-0.301,1.054-0.71,2.291-0.914c0.002,0,0.004-0.001,0.006-0.001
				c1.237-0.204,2.216-0.127,2.188,0.174c-0.029,0.301-1.054,0.71-2.291,0.914C352.235,794.977,352.233,794.978,352.231,794.978z"/>
			<path id="_x31_47" fill="#009B3A" stroke="#000000" stroke-width="0.075" d="M352.183,794.393
				c-1.228,0.471-2.264,0.626-2.314,0.347c-0.05-0.279,0.905-0.887,2.133-1.358c0.001,0,0.001,0,0.002-0.001
				c1.228-0.471,2.264-0.626,2.314-0.347c0.05,0.279-0.905,0.887-2.133,1.358C352.184,794.393,352.184,794.393,352.183,794.393z"/>
			<path id="_x31_46" fill="#009B3A" stroke="#000000" stroke-width="0.075" d="M351.406,792.66
				c-0.539,1.136-1.216,2.013-1.512,1.958c-0.296-0.055-0.099-1.02,0.44-2.157c0.539-1.136,1.216-2.013,1.512-1.958
				C352.141,790.558,351.945,791.523,351.406,792.66z"/>
			<path id="_x31_45" fill="#009B3A" stroke="#000000" stroke-width="0.075" d="M351.95,792.952c-0.884,1-1.788,1.687-2.018,1.533
				c-0.23-0.153,0.299-1.087,1.182-2.087c0.884-1,1.788-1.688,2.02-1.536c0.232,0.152-0.297,1.086-1.181,2.087
				C351.951,792.95,351.95,792.951,351.95,792.952z"/>
			<path id="_x31_44" fill="#009B3A" stroke="#000000" stroke-width="0.075" d="M352.109,793.671
				c-1.076,0.821-2.083,1.314-2.248,1.1c-0.165-0.214,0.573-1.053,1.65-1.875c0.002-0.001,0.004-0.002,0.005-0.004
				c1.077-0.821,2.082-1.311,2.244-1.095C353.922,792.013,353.184,792.851,352.109,793.671z"/>
			<path id="_x31_43" fill="#009B3A" stroke="#000000" stroke-width="0.075" d="M349.886,794.641
				c-0.011,0.008-0.239-0.665-0.265-0.815c-0.025-0.15,0.25-0.327,0.113-0.764c-0.137-0.437-0.472-0.759-0.681-0.87
				c-0.21-0.111-0.341,0.091-0.189,0.618c0.152,0.528,0.512,0.694,0.618,0.952c0.107,0.257,0.255,0.686,0.296,0.927
				c0.198,0.12,0.604,0.488,0.84,0.681c0.236,0.193,0.558,0.896,1.027,1.183c0.385,0.248,0.759,0.2,0.658-0.096
				c-0.101-0.296-0.461-0.699-0.736-0.896c-0.275-0.197-0.689-0.085-0.941-0.299C350.446,795.095,349.88,794.68,349.886,794.641z"/>
			<path id="_x31_42" fill="#009B3A" stroke="#000000" stroke-width="0.075" d="M348.535,796.992
				c-1.271,0.018-2.299-0.263-2.295-0.629c0.003-0.364,1.031-0.674,2.299-0.694c1.271-0.018,2.299,0.263,2.295,0.629
				C350.831,796.663,349.803,796.973,348.535,796.992z"/>
			<path id="_x31_41" fill="#009B3A" stroke="#000000" stroke-width="0.075" d="M348.23,794.925
				c-0.805,1.04-1.678,1.699-1.949,1.472c-0.271-0.226,0.162-1.253,0.968-2.293l0,0c0.805-1.04,1.678-1.699,1.948-1.472
				C349.469,792.859,349.036,793.885,348.23,794.925z"/>
			<path id="_x31_40" fill="#009B3A" stroke="#000000" stroke-width="0.075" d="M348.555,795.981
				c-1.182,0.509-2.243,0.648-2.372,0.311c-0.128-0.337,0.724-1.023,1.904-1.532c1.182-0.509,2.243-0.648,2.372-0.311
				C350.588,794.786,349.736,795.472,348.555,795.981z"/>
			<path id="_x31_39" fill="#009B3A" stroke="#000000" stroke-width="0.075" d="M349.182,775.951
				c0.585,0.527,0.938,1.02,0.787,1.101c-0.15,0.081-0.745-0.279-1.33-0.805c-0.585-0.527-0.939-1.02-0.789-1.102
				c0.149-0.082,0.745,0.278,1.33,0.805C349.181,775.95,349.181,775.951,349.182,775.951z"/>
			<path id="_x31_38" fill="#009B3A" stroke="#000000" stroke-width="0.075" d="M348.475,776.543
				c0.791,0.103,1.457,0.319,1.488,0.483c0.03,0.164-0.586,0.214-1.378,0.111l0,0c-0.791-0.103-1.458-0.319-1.488-0.483
				C347.067,776.49,347.683,776.44,348.475,776.543z"/>
			<path id="_x31_37" fill="#009B3A" stroke="#000000" stroke-width="0.075" d="M348.759,776.17
				c0.745,0.379,1.286,0.792,1.207,0.922c-0.079,0.13-0.746-0.072-1.492-0.451c-0.001-0.001-0.002-0.001-0.003-0.001
				c-0.745-0.379-1.284-0.792-1.204-0.921C347.347,775.589,348.015,775.791,348.759,776.17z"/>
			<path id="_x31_36" fill="#009B3A" stroke="#000000" stroke-width="0.075" d="M338.386,794.751c0,0,1.929,0.414,3.605,1.023
				c1.677,0.609,4.224,2.701,4.909,2.82c0.768,0.035,1.833-0.227,2.237-1.336c-1.183,0.315-1.892,0.795-3.021,0.174
				c-0.399-0.151-1.705-1.341-3.138-1.977c-1.432-0.637-4.32-1.363-4.32-1.363L338.386,794.751z"/>
			<path id="_x31_35" fill="#009B3A" stroke="#000000" stroke-width="0.075" d="M340.442,777.316
				c-0.007-0.016,2.22-1.171,2.22-1.171l-2.448,0.626l-0.284,0.431L340.442,777.316z"/>
			<path id="_x31_34" fill="#009B3A" stroke="#000000" stroke-width="0.075" d="M342.548,777.856
				c-0.86-0.156-2.181-0.445-3.023-0.513c0.582-0.644,1.383-1.734,1.877-2.403c-0.326,0.638-0.838,1.479-1.04,2.09
				C340.955,777.35,341.886,777.601,342.548,777.856z"/>
			<path id="_x31_33" fill="#009B3A" stroke="#000000" stroke-width="0.075" d="M340.041,777.452
				c-0.01-0.015,1.973-1.527,1.973-1.527l-2.291,1.025l-0.204,0.474L340.041,777.452z"/>
			<path id="_x31_32" fill="#009B3A" stroke="#000000" stroke-width="0.075" d="M342.15,777.833
				c-0.865-0.165-2.197-0.468-3.043-0.541c0.571-0.664,1.355-1.787,1.838-2.476c-0.315,0.658-0.813,1.526-1.004,2.156
				C340.541,777.305,341.48,777.567,342.15,777.833z"/>
			<path id="_x31_31" fill="#009B3A" stroke="#000000" stroke-width="0.075" d="M339.714,777.575
				c-0.005-0.017,2.323-0.973,2.323-0.973l-2.502,0.412l-0.323,0.403L339.714,777.575z"/>
			<path id="_x31_30" fill="#009B3A" stroke="#000000" stroke-width="0.075" d="M341.89,777.852
				c-0.875-0.073-2.229-0.236-3.074-0.218c0.487-0.737,1.13-1.964,1.527-2.717c-0.234,0.703-0.625,1.639-0.74,2.301
				C340.236,777.49,341.196,777.654,341.89,777.852z"/>
			<path id="_x31_29" fill="#009B3A" stroke="#000000" stroke-width="0.075" d="M339.479,777.585
				c-0.013-0.013,1.574-1.918,1.574-1.918l-1.994,1.491l-0.093,0.509L339.479,777.585z"/>
			<path id="_x31_28" fill="#009B3A" stroke="#000000" stroke-width="0.075" d="M341.875,777.979
				c-0.938-0.018-2.393-0.101-3.289-0.021c0.444-0.838,1.004-2.223,1.35-3.073c-0.178,0.784-0.499,1.833-0.555,2.563
				C340.081,777.701,341.118,777.812,341.875,777.979z"/>
			<path id="_x31_27" fill="#009B3A" stroke="#000000" stroke-width="0.075" d="M339.16,778.04
				c-0.012-0.017,1.911-1.834,1.911-1.834l-2.313,1.279l-0.159,0.548L339.16,778.04z"/>
			<path id="_x31_26" fill="#009B3A" stroke="#000000" stroke-width="0.075" d="M341.457,778.041
				c-1.008,0.004-2.56-0.051-3.544,0.059c0.652-0.935,1.544-2.474,2.093-3.42c-0.355,0.868-0.918,2.032-1.13,2.838
				C339.58,777.779,340.675,777.876,341.457,778.041z"/>
			<path id="_x31_25" fill="#009B3A" stroke="#000000" stroke-width="0.075" d="M338.516,778.176
				c-0.01-0.018,2.441-2.068,2.441-2.068l-2.759,1.467l-0.284,0.608L338.516,778.176z"/>
			<path id="_x31_24" fill="#009B3A" stroke="#000000" stroke-width="0.075" d="M341.092,778.102
				c-0.998,0.144-2.544,0.306-3.503,0.551c0.512-1.002,1.175-2.627,1.583-3.625c-0.227,0.896-0.619,2.109-0.713,2.923
				C339.194,778.108,340.293,778.05,341.092,778.102z"/>
			<path id="_x31_23" fill="#009B3A" stroke="#000000" stroke-width="0.075" d="M338.191,778.584
				c-0.014-0.015,1.881-2.606,1.881-2.606l-2.348,2.123l-0.126,0.65L338.191,778.584z"/>
			<path id="_x31_22" fill="#009B3A" stroke="#000000" stroke-width="0.075" d="M340.54,778.411
				c-1.005,0.094-2.558,0.178-3.529,0.374c0.568-0.975,1.321-2.563,1.786-3.539c-0.277,0.883-0.737,2.074-0.876,2.883
				C338.645,778.321,339.746,778.319,340.54,778.411z"/>
			<path id="_x31_21" fill="#009B3A" stroke="#000000" stroke-width="0.075" d="M337.851,778.859
				c-0.01-0.018,2.395-2.072,2.395-2.072l-2.717,1.464l-0.275,0.611L337.851,778.859L337.851,778.859z"/>
			<path id="_x31_20" fill="#009B3A" stroke="#000000" stroke-width="0.075" d="M340.246,778.517
				c-1.002,0.211-2.557,0.479-3.514,0.787c0.468-1.024,1.056-2.671,1.42-3.683c-0.185,0.898-0.52,2.121-0.575,2.931
				C338.328,778.655,339.436,778.521,340.246,778.517z"/>
			<path id="_x31_19" fill="#009B3A" stroke="#000000" stroke-width="0.075" d="M337.451,778.966c-0.016-0.012,1.53-2.84,1.53-2.84
				l-2.07,2.456l-0.034,0.649L337.451,778.966L337.451,778.966z"/>
			<path id="_x31_18" fill="#009B3A" stroke="#000000" stroke-width="0.075" d="M340.246,778.676
				c-1.075,0.28-2.75,0.647-3.764,1.032c0.389-1.164,0.835-3.029,1.111-4.175c-0.093,1.012-0.313,2.392-0.274,3.299
				C338.156,778.914,339.357,778.716,340.246,778.676z"/>
			<path id="_x31_17" fill="#009B3A" stroke="#000000" stroke-width="0.075" d="M337.151,779.623
				c-0.016-0.017,1.927-2.846,1.927-2.846l-2.464,2.301l-0.104,0.718L337.151,779.623z"/>
			<path id="_x31_16" fill="#009B3A" stroke="#000000" stroke-width="0.075" d="M339.82,779.002
				c-1.057,0.334-2.707,0.787-3.698,1.222c0.333-1.171,0.689-3.038,0.91-4.185c-0.046,1.005-0.199,2.38-0.118,3.274
				C337.751,779.349,338.937,779.089,339.82,779.002z"/>
			<path id="_x31_15" fill="#009B3A" stroke="#000000" stroke-width="0.075" d="M336.764,780.041
				c-0.019-0.013,1.465-3.142,1.465-3.142l-2.083,2.706l0.009,0.722L336.764,780.041z"/>
			<path id="_x31_14" fill="#009B3A" stroke="#000000" stroke-width="0.075" d="M339.417,779.429
				c-1.083,0.247-2.766,0.563-3.793,0.916c0.438-1.14,0.962-2.972,1.286-4.098c-0.137,0.998-0.415,2.357-0.415,3.254
				C337.325,779.606,338.53,779.444,339.417,779.429z"/>
			<path id="_x31_13" fill="#009B3A" stroke="#000000" stroke-width="0.075" d="M336.417,780.344
				c-0.013-0.019,2.394-2.459,2.394-2.459l-2.822,1.821l-0.23,0.691L336.417,780.344z"/>
			<path id="_x31_12" fill="#009B3A" stroke="#000000" stroke-width="0.075" d="M338.934,779.856
				c-1.072,0.144-2.736,0.299-3.761,0.556c0.498-1.117,1.123-2.93,1.509-4.043c-0.195,1.002-0.55,2.358-0.606,3.271
				C336.88,779.829,338.067,779.783,338.934,779.856z"/>
			<path id="_x31_11" fill="#009B3A" stroke="#000000" stroke-width="0.075" d="M335.943,780.098
				c-0.018-0.015,1.629-3.077,1.629-3.077l-2.209,2.589l-0.035,0.733L335.943,780.098L335.943,780.098z"/>
			<path id="_x31_10" fill="#009B3A" stroke="#000000" stroke-width="0.075" d="M339.069,779.491
				c-1.166,0.478-2.988,1.143-4.081,1.732c0.358-1.385,0.736-3.578,0.97-4.926c-0.042,1.168-0.2,2.774-0.102,3.803
				C336.783,780.07,338.093,779.667,339.069,779.491z"/>
			<path id="_x31_09" fill="#009B3A" stroke="#000000" stroke-width="0.075" d="M335.719,781.027
				c-0.019-0.017,1.949-3.531,1.949-3.531l-2.573,2.988l-0.071,0.834L335.719,781.027z"/>
			<path id="_x31_08" fill="#009B3A" stroke="#000000" stroke-width="0.075" d="M338.619,779.925
				c-1.143,0.537-2.931,1.297-3.996,1.939c0.296-1.384,0.575-3.567,0.749-4.908c0.01,1.153-0.076,2.744,0.067,3.752
				C336.363,780.627,337.653,780.155,338.619,779.925z"/>
			<path id="_x31_07" fill="#009B3A" stroke="#000000" stroke-width="0.075" d="M335.318,781.561c-0.021-0.012,1.422-3.8,1.422-3.8
				l-2.129,3.394l0.054,0.823L335.318,781.561z"/>
			<path id="_x31_06" fill="#009B3A" stroke="#000000" stroke-width="0.075" d="M338.121,780.242
				c-1.14,0.546-2.925,1.32-3.986,1.971c0.287-1.386,0.553-3.569,0.718-4.911c0.018,1.152-0.059,2.743,0.091,3.749
				C335.867,780.961,337.155,780.479,338.121,780.242z"/>
			<path id="_x31_05" fill="#009B3A" stroke="#000000" stroke-width="0.075" d="M335,782.014c-0.017-0.018,2.201-3.351,2.201-3.351
				l-2.775,2.742l-0.135,0.831L335,782.014z"/>
			<path id="_x31_04" fill="#009B3A" stroke="#000000" stroke-width="0.075" d="M338.013,780.068
				c-1.017,0.812-2.625,2.005-3.541,2.896c-0.001-1.399-0.189-3.555-0.302-4.881c0.255,1.098,0.508,2.64,0.864,3.564
				C335.93,781.328,337.106,780.541,338.013,780.068z"/>
			<path id="_x31_03" fill="#009B3A" stroke="#000000" stroke-width="0.075" d="M335.106,782.177
				c-0.024-0.003,0.255-4.015,0.255-4.015l-1.06,3.904l0.296,0.735L335.106,782.177z"/>
			<path id="_x31_02" fill="#009B3A" stroke="#000000" stroke-width="0.075" d="M337.725,780.439
				c-1.02,0.806-2.632,1.991-3.552,2.878c0.004-1.4-0.174-3.558-0.282-4.884c0.251,1.1,0.497,2.643,0.849,3.57
				C335.637,781.688,336.816,780.906,337.725,780.439z"/>
			<path id="_x31_01" fill="#009B3A" stroke="#000000" stroke-width="0.075" d="M334.851,782.856
				c-0.023-0.01,1.025-3.923,1.025-3.923l-1.775,3.608l0.14,0.806L334.851,782.856z"/>
			<path id="_x31_00" fill="#009B3A" stroke="#000000" stroke-width="0.075" d="M337.612,780.534
				c-0.963,0.949-2.497,2.357-3.349,3.377c-0.151-1.436-0.575-3.627-0.833-4.974c0.381,1.097,0.807,2.651,1.274,3.558
				C335.594,782.065,336.725,781.123,337.612,780.534z"/>
			<path id="_x39_9" fill="#009B3A" stroke="#000000" stroke-width="0.075" d="M334.857,783.357
				c-0.025-0.003,0.192-4.173,0.192-4.173l-1.025,4.054l0.318,0.765L334.857,783.357z"/>
			<path id="_x39_8" fill="#009B3A" stroke="#000000" stroke-width="0.075" d="M337.306,781.226
				c-1.031,0.853-2.664,2.106-3.59,3.041c-0.032-1.454-0.273-3.693-0.419-5.069c0.287,1.139,0.582,2.738,0.97,3.696
				C335.184,782.554,336.38,781.725,337.306,781.226z"/>
			<path id="_x39_7" fill="#009B3A" stroke="#000000" stroke-width="0.075" d="M334.549,783.835
				c-0.022-0.013,1.453-3.925,1.453-3.925l-2.178,3.477l0.057,0.861L334.549,783.835z"/>
			<path id="_x39_6" fill="#009B3A" stroke="#000000" stroke-width="0.075" d="M337.289,781.242
				c-0.913,0.965-2.365,2.398-3.172,3.434c-0.144-1.455-0.548-3.676-0.794-5.041c0.362,1.112,0.767,2.685,1.21,3.604
				C335.377,782.801,336.449,781.842,337.289,781.242z"/>
			<path id="_x39_5" fill="#009B3A" stroke="#000000" stroke-width="0.075" d="M334.606,784.034c-0.026,0-0.172-4.149-0.172-4.149
				l-0.672,4.133l0.385,0.718L334.606,784.034z"/>
			<path id="_x39_4" fill="#009B3A" stroke="#000000" stroke-width="0.075" d="M336.841,781.551
				c-0.883,0.974-2.292,2.42-3.067,3.464c-0.187-1.456-0.655-3.675-0.941-5.04c0.394,1.11,0.845,2.682,1.314,3.598
				C334.978,783.127,336.02,782.158,336.841,781.551z"/>
			<path id="_x39_3" fill="#009B3A" stroke="#000000" stroke-width="0.075" d="M334.372,784.446
				c-0.023-0.007,0.463-4.215,0.463-4.215l-1.236,3.987l0.246,0.819L334.372,784.446z"/>
			<path id="_x39_2" fill="#009B3A" stroke="#000000" stroke-width="0.075" d="M336.652,781.715
				c-0.807,1.055-2.104,2.63-2.798,3.745c-0.297-1.43-0.933-3.592-1.322-4.922c0.477,1.065,1.047,2.585,1.585,3.451
				C334.912,783.465,335.878,782.399,336.652,781.715z"/>
			<path id="_x39_1" fill="#009B3A" stroke="#000000" stroke-width="0.075" d="M334.355,784.841c-0.024-0.001-0.267-4.22-0.267-4.22
				l-0.531,4.187l0.383,0.738L334.355,784.841z"/>
			<path id="_x39_0" fill="#009B3A" stroke="#000000" stroke-width="0.075" d="M336.568,781.958
				c-0.758,1.105-1.98,2.759-2.621,3.917c-0.371-1.424-1.119-3.568-1.577-4.886c0.534,1.048,1.182,2.548,1.767,3.392
				C334.909,783.811,335.825,782.687,336.568,781.958z"/>
			<path id="_x38_9" fill="#009B3A" stroke="#000000" stroke-width="0.075" d="M334.619,785.236
				c-0.023-0.008,0.429-4.239,0.429-4.239l-1.208,3.985l0.255,0.834L334.619,785.236z"/>
			<path id="_x38_8" fill="#009B3A" stroke="#000000" stroke-width="0.075" d="M336.415,782.35
				c-0.653,1.203-1.719,3.018-2.251,4.259c-0.496-1.364-1.432-3.391-2.006-4.639c0.624,0.968,1.404,2.369,2.06,3.126
				C334.933,784.423,335.742,783.179,336.415,782.35z"/>
			<path id="_x38_7" fill="#009B3A" stroke="#000000" stroke-width="0.075" d="M334.471,785.585c-0.024,0.007-1.185-4.02-1.185-4.02
				l0.401,4.237l0.534,0.598L334.471,785.585z"/>
			<path id="_x38_6" fill="#009B3A" stroke="#000000" stroke-width="0.075" d="M336.391,782.82c-0.681,1.2-1.789,3.009-2.346,4.246
				c-0.499-1.36-1.445-3.381-2.025-4.625c0.634,0.964,1.424,2.362,2.092,3.117C334.853,784.886,335.694,783.646,336.391,782.82z"/>
			<path id="_x38_5" fill="#009B3A" stroke="#000000" stroke-width="0.075" d="M334.525,786.342c-0.025,0-0.435-4.227-0.435-4.227
				l-0.392,4.228l0.423,0.724L334.525,786.342z"/>
			<path id="_x38_4" fill="#009B3A" stroke="#000000" stroke-width="0.075" d="M336.459,783.189c-0.7,1.184-1.838,2.967-2.414,4.191
				c-0.477-1.371-1.39-3.415-1.95-4.672c0.618,0.979,1.385,2.395,2.041,3.166C334.888,785.219,335.749,783.999,336.459,783.189z"/>
			<path id="_x38_3" fill="#009B3A" stroke="#000000" stroke-width="0.075" d="M334.483,786.681
				c-0.025,0.003-0.784-4.151-0.784-4.151l-0.038,4.251l0.481,0.669L334.483,786.681z"/>
			<path id="_x38_2" fill="#009B3A" stroke="#000000" stroke-width="0.075" d="M336.159,783.787
				c-0.755,1.133-1.975,2.835-2.609,4.018c-0.411-1.403-1.225-3.507-1.723-4.801c0.57,1.021,1.269,2.488,1.887,3.303
				C334.494,785.706,335.411,784.547,336.159,783.787z"/>
			<path id="_x38_1" fill="#009B3A" stroke="#000000" stroke-width="0.075" d="M334.12,787.142
				c-0.025-0.006,0.351-4.243,0.351-4.243l-1.156,4.023l0.28,0.82L334.12,787.142z"/>
			<path id="_x38_0" fill="#009B3A" stroke="#000000" stroke-width="0.075" d="M336.205,783.895
				c-0.645,1.228-1.701,3.082-2.222,4.342c-0.539-1.338-1.543-3.317-2.159-4.535c0.662,0.937,1.492,2.3,2.182,3.026
				C334.727,786.025,335.532,784.75,336.205,783.895z"/>
			<path id="_x37_9" fill="#009B3A" stroke="#000000" stroke-width="0.075" d="M333.976,787.496
				c-0.024,0.008-1.302-3.954-1.302-3.954l0.501,4.205l0.561,0.572L333.976,787.496z"/>
			<path id="_x37_8" fill="#009B3A" stroke="#000000" stroke-width="0.075" d="M336.028,784.211c-0.451,1.347-1.211,3.4-1.534,4.752
				c-0.731-1.197-2.018-2.922-2.807-3.984c0.792,0.776,1.815,1.933,2.603,2.496C334.893,786.626,335.494,785.197,336.028,784.211z"
				/>
			<path id="_x37_7" fill="#009B3A" stroke="#000000" stroke-width="0.075" d="M335.136,787.819c-0.024,0.009-1.41-3.9-1.41-3.9
				l0.616,4.182l0.577,0.55L335.136,787.819z"/>
			<path id="_x37_6" fill="#009B3A" stroke="#000000" stroke-width="0.075" d="M336.017,784.621
				c-0.441,1.351-1.186,3.413-1.499,4.767c-0.74-1.189-2.039-2.901-2.836-3.954c0.798,0.768,1.828,1.914,2.621,2.469
				C334.901,787.048,335.491,785.613,336.017,784.621z"/>
			<path id="_x37_5" fill="#009B3A" stroke="#000000" stroke-width="0.075" d="M335.147,788.484
				c-0.023,0.012-1.814-3.647-1.814-3.647l1.056,4.05l0.63,0.456L335.147,788.484z"/>
			<path id="_x37_4" fill="#009B3A" stroke="#000000" stroke-width="0.075" d="M335.88,784.963
				c-0.282,1.403-0.784,3.553-0.939,4.942c-0.871-1.073-2.356-2.583-3.268-3.514c0.88,0.647,2.034,1.636,2.884,2.072
				C335.051,787.529,335.472,786.022,335.88,784.963z"/>
			<path id="_x37_3" fill="#009B3A" stroke="#000000" stroke-width="0.075" d="M335.266,789.056c-0.025,0.005-0.978-4.09-0.978-4.09
				l0.161,4.246l0.512,0.635L335.266,789.056z"/>
			<path id="_x37_2" fill="#009B3A" stroke="#000000" stroke-width="0.075" stroke-miterlimit="10" d="M335.885,785.398
				c-0.149,1.435-0.447,3.642-0.472,5.045c-0.964-0.95-2.578-2.254-3.569-3.057c0.933,0.525,2.17,1.354,3.054,1.673
				C335.302,788.064,335.579,786.507,335.885,785.398z"/>
			<path id="_x37_1" fill="#009B3A" stroke="#000000" stroke-width="0.075" d="M335.313,789.357
				c-0.019,0.019-2.586-2.953-2.586-2.953l1.949,3.576l0.712,0.243L335.313,789.357z"/>
			<path id="_x37_0" fill="#009B3A" stroke="#000000" stroke-width="0.075" d="M335.94,785.9c-0.155,1.434-0.462,3.64-0.492,5.042
				c-0.96-0.956-2.569-2.268-3.557-3.078c0.931,0.53,2.165,1.366,3.048,1.691C335.346,788.563,335.629,787.008,335.94,785.9z"/>
			<path id="_x36_9" fill="#009B3A" stroke="#000000" stroke-width="0.075" d="M335.603,790.041
				c-0.022,0.013-1.986-3.559-1.986-3.559l1.248,3.995l0.652,0.426L335.603,790.041z"/>
			<path id="_x36_8" fill="#009B3A" stroke="#000000" stroke-width="0.075" d="M336.056,786.49
				c-0.094,1.442-0.309,3.666-0.279,5.069c-0.998-0.897-2.659-2.111-3.679-2.86c0.951,0.474,2.218,1.234,3.112,1.505
				C335.575,789.187,335.792,787.615,336.056,786.49z"/>
			<path id="_x36_7" fill="#009B3A" stroke="#000000" stroke-width="0.075" d="M335.854,790.692
				c-0.02,0.018-2.454-3.111-2.454-3.111l1.789,3.693l0.701,0.288L335.854,790.692z"/>
			<path id="_x36_6" fill="#009B3A" stroke="#000000" stroke-width="0.075" d="M336.083,787.153
				c-0.086,1.443-0.287,3.669-0.249,5.072c-1.003-0.888-2.672-2.089-3.696-2.828c0.954,0.465,2.225,1.215,3.121,1.478
				C335.618,789.855,335.826,788.282,336.083,787.153z"/>
			<path id="_x36_5" fill="#009B3A" stroke="#000000" stroke-width="0.075" d="M336.076,791.221
				c-0.023,0.011-1.721-3.751-1.721-3.751l0.952,4.107l0.619,0.493L336.076,791.221z"/>
			<path id="_x36_4" fill="#009B3A" stroke="#000000" stroke-width="0.075" d="M336.148,787.583c0.049,1.448,0.057,3.69,0.224,5.082
				c-1.078-0.749-2.844-1.719-3.929-2.318c0.99,0.335,2.32,0.91,3.233,1.051C335.938,790.334,335.998,788.74,336.148,787.583z"/>
			<path id="_x36_3" fill="#009B3A" stroke="#000000" stroke-width="0.075" d="M336.377,791.077
				c-0.015,0.024-3.143-2.152-3.143-2.152l2.664,2.936l0.74,0.038L336.377,791.077z"/>
			<path id="_x36_2" fill="#009B3A" stroke="#000000" stroke-width="0.075" d="M336.247,787.74c0.125,1.442,0.25,3.676,0.49,5.057
				c-1.119-0.706-2.938-1.606-4.056-2.162c1.009,0.296,2.371,0.819,3.293,0.925C336.181,790.491,336.157,788.9,336.247,787.74z"/>
			<path id="_x36_1" fill="#009B3A" stroke="#000000" stroke-width="0.075" d="M336.715,791.877c-0.019,0.018-2.618-3.01-2.618-3.01
				l1.983,3.614l0.717,0.261L336.715,791.877z"/>
			<path id="_x36_0" fill="#009B3A" stroke="#000000" stroke-width="0.075" d="M336.474,788.289
				c0.185,1.436,0.405,3.665,0.703,5.033c-1.145-0.639-2.996-1.431-4.133-1.92c1.018,0.236,2.397,0.677,3.32,0.728
				C336.524,791.047,336.434,789.456,336.474,788.289z"/>
			<path id="_x35_9" fill="#009B3A" stroke="#000000" stroke-width="0.075" d="M337.239,792.383
				c-0.015,0.023-3.119-2.204-3.119-2.204l2.631,2.979l0.74,0.051L337.239,792.383z"/>
			<path id="_x35_8" fill="#009B3A" stroke="#000000" stroke-width="0.075" d="M336.572,788.899c0.28,1.419,0.645,3.628,1.032,4.968
				c-1.179-0.531-3.07-1.148-4.232-1.529c1.026,0.139,2.426,0.45,3.346,0.414C336.805,791.653,336.609,790.07,336.572,788.899z"/>
			<path id="_x35_7" fill="#009B3A" stroke="#000000" stroke-width="0.075" d="M337.584,792.821c-0.019,0.018-2.58-3.058-2.58-3.058
				l1.936,3.649l0.714,0.275L337.584,792.821z"/>
			<path id="_x35_6" fill="#009B3A" stroke="#000000" stroke-width="0.075" d="M336.742,789.292c0.409,1.38,0.978,3.538,1.486,4.825
				c-1.216-0.373-3.143-0.736-4.327-0.961c1.028,0.002,2.44,0.126,3.347-0.034C337.23,792.012,336.888,790.456,336.742,789.292z"/>
			<path id="_x35_5" fill="#009B3A" stroke="#000000" stroke-width="0.075" d="M337.722,792.828
				c-0.006,0.028-3.604-0.772-3.604-0.772l3.427,1.704l0.692-0.26L337.722,792.828z"/>
			<path id="_x35_4" fill="#009B3A" stroke="#000000" stroke-width="0.075" d="M336.979,789.721
				c0.404,1.382,0.964,3.543,1.467,4.832c-1.214-0.38-3.141-0.753-4.324-0.986c1.028,0.008,2.441,0.139,3.347-0.015
				C337.457,792.443,337.121,790.885,336.979,789.721L336.979,789.721z"/>
			<path id="_x35_3" fill="#009B3A" stroke="#000000" stroke-width="0.075" d="M338.311,793.208
				c-0.011,0.025-3.448-1.665-3.448-1.665l3.092,2.507l0.741-0.069L338.311,793.208z"/>
			<path id="_x35_2" fill="#009B3A" stroke="#000000" stroke-width="0.075" d="M336.801,789.965
				c0.685,1.259,1.686,3.244,2.448,4.391c-1.263-0.096-3.219-0.026-4.421,0.015c1.003-0.225,2.407-0.416,3.258-0.772
				C337.84,792.517,337.184,791.071,336.801,789.965L336.801,789.965z"/>
			<path id="_x35_1" fill="#009B3A" stroke="#000000" stroke-width="0.075" d="M338.853,793.586c-0.007,0.028-3.583-0.99-3.583-0.99
				l3.362,1.904l0.707-0.216L338.853,793.586z"/>
			<path id="_x35_0" fill="#009B3A" stroke="#000000" stroke-width="0.075" d="M337.171,790.498
				c0.692,1.254,1.705,3.233,2.474,4.373c-1.263-0.086-3.217,0.001-4.418,0.052c1.001-0.233,2.403-0.437,3.251-0.8
				C338.225,793.044,337.561,791.602,337.171,790.498z"/>
			<path id="_x34_9" fill="#009B3A" stroke="#000000" stroke-width="0.075" d="M339.308,793.88
				c-0.013,0.024-3.338-1.997-3.338-1.997l2.917,2.791l0.75,0.008L339.308,793.88L339.308,793.88z"/>
			<path id="_x34_8" fill="#009B3A" stroke="#000000" stroke-width="0.075" d="M337.449,790.813c0.802,1.17,1.988,3.027,2.854,4.074
				c-1.249,0.078-3.159,0.42-4.334,0.628c0.961-0.365,2.318-0.752,3.116-1.228C338.731,793.234,337.939,791.872,337.449,790.813z"/>
			<path id="_x34_7" fill="#009B3A" stroke="#000000" stroke-width="0.075" d="M339.552,794.172
				c-0.001,0.029-3.604-0.085-3.604-0.085l3.565,1.054l0.634-0.394L339.552,794.172z"/>
			<path id="_x34_6" fill="#009B3A" stroke="#000000" stroke-width="0.075" d="M341.641,776.713c0-0.011,2.592-0.433,2.592-0.433
				l-2.579,0.06l-0.45,0.231L341.641,776.713z"/>
			<path id="_x34_5" fill="#009B3A" stroke="#000000" stroke-width="0.075" d="M343.065,777.268
				c-0.752-0.227-1.889-0.608-2.661-0.776c0.821-0.326,2.035-0.904,2.782-1.259c-0.575,0.36-1.411,0.822-1.857,1.183
				C341.76,776.708,342.542,777.006,343.065,777.268z"/>
			<path id="_x34_4" fill="#009B3A" stroke="#000000" stroke-width="0.075" d="M341.529,776.802
				c-0.003-0.011,2.508-0.689,2.508-0.689l-2.599,0.331l-0.392,0.269L341.529,776.802z"/>
			<path id="_x34_3" fill="#009B3A" stroke="#000000" stroke-width="0.075" d="M343.185,777.448
				c-0.879-0.083-2.227-0.251-3.094-0.26c0.653-0.579,1.569-1.547,2.134-2.141c-0.388,0.558-0.984,1.3-1.242,1.828
				C341.572,777.112,342.518,777.27,343.185,777.448z"/>
			<path id="_x34_2" fill="#009B3A" stroke="#000000" stroke-width="0.075" d="M340.597,776.979
				c0.002-0.011,2.607-0.294,2.607-0.294l-2.54-0.081l-0.475,0.209L340.597,776.979z"/>
			<path id="_x34_1" fill="#009B3A" stroke="#000000" stroke-width="0.075" d="M342.527,777.548
				c-0.799-0.153-2.014-0.419-2.822-0.514c0.768-0.377,1.888-1.026,2.577-1.424c-0.514,0.388-1.274,0.896-1.658,1.275
				C341.111,777.126,341.952,777.344,342.527,777.548z"/>
			<path id="_x34_0" fill="#009B3A" stroke="#000000" stroke-width="0.075" d="M340.37,776.953c-0.007-0.01,2.295-0.988,2.295-0.988
				l-2.513,0.664l-0.301,0.306L340.37,776.953z"/>
			<path id="_x33_9" fill="#009B3A" stroke="#000000" stroke-width="0.075" d="M342.452,777.84c-0.665-0.275-1.684-0.74-2.342-0.934
				c0.51-0.474,1.228-1.305,1.67-1.814c-0.308,0.509-0.778,1.167-0.985,1.673C341.235,777.141,341.95,777.51,342.452,777.84z"/>
			<path id="_x33_8" fill="#009B3A" stroke="#000000" stroke-width="0.075" d="M340.5,777.126c-0.005-0.015,1.785-0.774,1.785-0.774
				l-1.944,0.267l-0.239,0.346L340.5,777.126z"/>
			<path id="_x33_7" fill="#009B3A" stroke="#000000" stroke-width="0.075" d="M339.006,793.842c0.001,0.029-3.7,0.028-3.7,0.028
				l3.746,0.916l0.615-0.403L339.006,793.842z"/>
			<path id="_x33_6" fill="#009B3A" stroke="#000000" stroke-width="0.075" d="M339.671,794.083
				c-0.005,0.027-3.758-0.874-3.758-0.874l3.608,1.769l0.707-0.228L339.671,794.083z"/>
			<path id="_x33_5" fill="#009B3A" stroke="#000000" stroke-width="0.075" d="M340.289,794.333c0,0.028-3.731-0.188-3.731-0.188
				l3.731,1.124l0.64-0.363L340.289,794.333z"/>
			<path id="_x33_4" fill="#009B3A" stroke="#000000" stroke-width="0.075" d="M337.921,791.696c0.971,1.07,2.425,2.774,3.443,3.717
				c-1.253,0.189-3.14,0.696-4.301,1.005c0.923-0.443,2.244-0.943,2.987-1.48C339.549,793.942,338.561,792.684,337.921,791.696z"/>
			<path id="_x33_3" fill="#009B3A" stroke="#000000" stroke-width="0.075" d="M340.802,794.522c-0.007,0.026-3.729-1.22-3.729-1.22
				l3.504,2.084l0.734-0.155L340.802,794.522z"/>
			<path id="_x33_2" fill="#009B3A" stroke="#000000" stroke-width="0.075" d="M338.266,791.941
				c1.058,0.965,2.653,2.513,3.744,3.344c-1.201,0.346-2.986,1.091-4.084,1.547c0.852-0.562,2.086-1.232,2.754-1.867
				C340.088,794.018,338.994,792.865,338.266,791.941z"/>
			<path id="_x33_1" fill="#009B3A" stroke="#000000" stroke-width="0.075" d="M341.109,794.753
				c0.006,0.029-3.539,0.696-3.539,0.696l3.729,0.254l0.526-0.52L341.109,794.753z"/>
			<path id="_x33_0" fill="#009B3A" stroke="#000000" stroke-width="0.075" d="M340.369,794.531
				c0.004,0.028-3.691,0.283-3.691,0.283l3.808,0.654l0.583-0.444L340.369,794.531z"/>
			<path id="_x32_9" fill="#009B3A" stroke="#000000" stroke-width="0.075" d="M341.051,794.725
				c-0.003,0.027-3.816-0.612-3.816-0.612l3.735,1.514l0.689-0.275L341.051,794.725z"/>
			<path id="_x32_8" fill="#009B3A" stroke="#000000" stroke-width="0.075" d="M341.686,794.932c0.002,0.028-3.738,0.07-3.738,0.07
				l3.808,0.863l0.611-0.406L341.686,794.932z"/>
			<path id="_x32_7" fill="#009B3A" stroke="#000000" stroke-width="0.075" d="M339.125,792.466
				c1.049,0.999,2.629,2.598,3.716,3.468c-1.237,0.275-3.082,0.91-4.218,1.298c0.887-0.505,2.168-1.095,2.87-1.681
				C340.918,794.593,339.838,793.408,339.125,792.466z"/>
			<path id="_x32_6" fill="#009B3A" stroke="#000000" stroke-width="0.075" d="M342.212,795.084
				c-0.005,0.026-3.814-0.959-3.814-0.959l3.654,1.835l0.721-0.205L342.212,795.084z"/>
			<path id="_x32_5" fill="#009B3A" stroke="#000000" stroke-width="0.075" d="M339.487,792.687
				c1.128,0.889,2.837,2.322,3.988,3.075c-1.172,0.428-2.898,1.294-3.96,1.824c0.808-0.619,1.99-1.372,2.608-2.051
				C341.461,794.631,340.283,793.557,339.487,792.687z"/>
			<path id="_x32_4" fill="#009B3A" stroke="#000000" stroke-width="0.075" d="M342.536,795.294c0.008,0.028-3.48,0.938-3.48,0.938
				l3.741-0.004l0.486-0.554L342.536,795.294L342.536,795.294z"/>
			<path id="_x32_3" fill="#FEDF00" stroke="#000000" stroke-width="0.163" d="M347.343,790.058l-2.842-1.964l-2.843,1.964
				l1.066-3.143l-2.487-1.965h3.198l1.066-3.143l1.066,3.143h3.198l-2.487,1.965L347.343,790.058z"/>
			<path id="_x32_2" d="M332.243,795.38l-2.669,1.585l-0.816-1.374c-0.151-0.255-0.245-0.463-0.282-0.623
				c-0.036-0.161-0.02-0.318,0.05-0.47c0.069-0.153,0.189-0.28,0.359-0.381c0.148-0.088,0.294-0.132,0.439-0.133
				c0.145-0.001,0.284,0.035,0.416,0.105c0.084,0.045,0.177,0.121,0.277,0.226c-0.025-0.117-0.035-0.209-0.029-0.273
				c0.004-0.043,0.025-0.115,0.062-0.215c0.038-0.1,0.07-0.171,0.097-0.214l0.537-0.858l0.553,0.932l-0.554,0.925
				c-0.073,0.119-0.112,0.209-0.117,0.272c-0.006,0.084,0.013,0.163,0.058,0.239l0.043,0.073l1.083-0.643L332.243,795.38z
				 M330.164,795.495l-0.207-0.348c-0.022-0.038-0.078-0.103-0.166-0.197c-0.043-0.048-0.098-0.076-0.163-0.084
				c-0.065-0.008-0.127,0.005-0.185,0.04c-0.086,0.051-0.136,0.118-0.15,0.2c-0.013,0.082,0.024,0.198,0.114,0.349l0.215,0.362
				L330.164,795.495z"/>
			<path id="_x32_1" d="M327.651,793.43l-0.811-2.439l0.629-0.209l0.508,1.527l0.468-0.156l-0.471-1.416l0.601-0.2l0.471,1.416
				l0.58-0.193l-0.522-1.571l0.667-0.222l0.826,2.483L327.651,793.43z"/>
			<path id="_x32_0" d="M326.586,789.807l-0.181-1.584c-0.04-0.345,0.013-0.613,0.157-0.803c0.144-0.19,0.368-0.303,0.671-0.338
				c0.311-0.036,0.565,0.03,0.762,0.197c0.197,0.167,0.317,0.443,0.361,0.827l0.06,0.522l1.144-0.131l0.11,0.957L326.586,789.807z
				 M327.791,788.7l-0.027-0.233c-0.021-0.184-0.068-0.309-0.14-0.376c-0.072-0.067-0.158-0.095-0.258-0.083
				c-0.097,0.011-0.175,0.053-0.235,0.125c-0.06,0.072-0.08,0.197-0.059,0.376l0.031,0.271L327.791,788.7z"/>
			<path id="_x31_9" d="M326.488,783.982l0.103-0.952l1.84,0.198c0.183,0.02,0.352,0.067,0.508,0.141
				c0.156,0.074,0.288,0.179,0.396,0.313s0.18,0.271,0.214,0.41c0.049,0.192,0.059,0.419,0.031,0.678
				c-0.016,0.15-0.045,0.313-0.085,0.488c-0.04,0.175-0.098,0.319-0.173,0.432c-0.075,0.112-0.176,0.212-0.302,0.299
				c-0.126,0.086-0.252,0.142-0.378,0.165c-0.203,0.038-0.38,0.049-0.531,0.032l-1.84-0.198l0.103-0.952l1.884,0.203
				c0.168,0.018,0.305-0.014,0.41-0.098c0.105-0.083,0.166-0.207,0.184-0.373c0.018-0.164-0.015-0.298-0.098-0.401
				c-0.083-0.103-0.21-0.164-0.382-0.183L326.488,783.982z"/>
			<path id="_x31_8" d="M326.903,781.706l0.592-1.695c0.099-0.282,0.244-0.475,0.437-0.577c0.193-0.102,0.393-0.117,0.599-0.045
				c0.173,0.061,0.303,0.166,0.389,0.318c0.057,0.101,0.086,0.229,0.086,0.384c0.124-0.193,0.265-0.317,0.423-0.374
				c0.158-0.056,0.33-0.052,0.517,0.013c0.152,0.053,0.276,0.136,0.373,0.249c0.097,0.113,0.159,0.243,0.187,0.391
				c0.017,0.091,0.009,0.217-0.024,0.377c-0.045,0.213-0.079,0.353-0.102,0.419l-0.546,1.563L326.903,781.706z M328.371,781.194
				l0.138-0.394c0.049-0.141,0.06-0.248,0.03-0.32c-0.029-0.072-0.09-0.125-0.182-0.157c-0.085-0.03-0.162-0.025-0.229,0.013
				c-0.067,0.038-0.125,0.126-0.173,0.264l-0.139,0.4L328.371,781.194z M329.522,781.596l0.161-0.461
				c0.055-0.156,0.065-0.276,0.033-0.359c-0.033-0.083-0.096-0.141-0.19-0.174c-0.086-0.03-0.167-0.023-0.242,0.022
				c-0.075,0.045-0.14,0.147-0.195,0.305l-0.161,0.46L329.522,781.596z"/>
			<path id="_x31_7" d="M328.372,777.974l0.495-0.821l2.003,1.209l0.773-1.281l0.654,0.395l-1.269,2.103L328.372,777.974z"/>
			<path id="_x31_6" d="M330.246,775.133l0.615-0.738l2.384,1.987l-0.615,0.739L330.246,775.133z"/>
			<path id="_x31_5" d="M334.417,773.531l0.803-0.355c0.111,0.215,0.172,0.423,0.183,0.622c0.011,0.199-0.026,0.388-0.11,0.566
				c-0.084,0.178-0.231,0.358-0.442,0.539c-0.256,0.22-0.497,0.362-0.723,0.427c-0.226,0.065-0.479,0.055-0.757-0.032
				c-0.279-0.086-0.544-0.275-0.795-0.568c-0.335-0.39-0.489-0.778-0.461-1.165c0.028-0.387,0.231-0.744,0.609-1.069
				c0.297-0.255,0.581-0.395,0.854-0.421c0.273-0.026,0.557,0.05,0.853,0.227l-0.519,0.695c-0.084-0.052-0.153-0.085-0.206-0.097
				c-0.088-0.021-0.175-0.021-0.26,0c-0.084,0.021-0.163,0.062-0.236,0.125c-0.165,0.142-0.234,0.317-0.208,0.525
				c0.018,0.156,0.118,0.339,0.299,0.55c0.224,0.261,0.418,0.406,0.58,0.435c0.163,0.029,0.316-0.018,0.459-0.142
				c0.139-0.12,0.211-0.249,0.215-0.388C334.559,773.865,334.513,773.707,334.417,773.531z"/>
			<path id="_x31_4" d="M337.727,772.341l-0.964,0.514l0.108,0.523l-0.865,0.461l-0.431-3.288l0.923-0.492l2.489,2.19l-0.885,0.472
				L337.727,772.341z M337.234,771.843l-0.827-0.823l0.224,1.145L337.234,771.843z"/>
			<path id="_x31_3" d="M340.165,768.663l1.404-0.243c0.277-0.048,0.507-0.049,0.69-0.003c0.183,0.046,0.343,0.129,0.478,0.25
				c0.135,0.121,0.244,0.271,0.327,0.449c0.082,0.178,0.141,0.371,0.177,0.579c0.057,0.327,0.063,0.587,0.02,0.78
				c-0.043,0.193-0.121,0.362-0.232,0.506c-0.111,0.145-0.239,0.25-0.383,0.317c-0.198,0.091-0.381,0.152-0.549,0.181l-1.404,0.242
				L340.165,768.663z M341.23,769.193l0.289,1.671l0.231-0.04c0.197-0.034,0.334-0.08,0.41-0.138
				c0.076-0.058,0.128-0.146,0.156-0.263c0.028-0.117,0.021-0.299-0.021-0.543c-0.056-0.324-0.147-0.537-0.273-0.638
				c-0.127-0.101-0.312-0.131-0.557-0.088L341.23,769.193z"/>
			<path id="_x31_2" d="M344.15,768.129l2.568,0.11l-0.028,0.662l-1.608-0.069l-0.021,0.493l1.491,0.064l-0.027,0.633l-1.491-0.064
				l-0.026,0.611l1.654,0.071l-0.03,0.702l-2.614-0.112L344.15,768.129z"/>
			<path id="_x31_1" d="M347.888,768.424l0.932,0.228l-0.556,2.272l1.454,0.356l-0.182,0.742l-2.385-0.584L347.888,768.424z"/>
			<path id="_x31_0" d="M352.867,770.075l1.372,0.811c0.299,0.177,0.481,0.38,0.546,0.61c0.065,0.23,0.02,0.476-0.136,0.739
				c-0.159,0.27-0.365,0.433-0.617,0.489c-0.252,0.056-0.544-0.015-0.877-0.211l-0.452-0.267l-0.586,0.991l-0.829-0.49
				L352.867,770.075z M353.023,771.704l0.202,0.12c0.159,0.094,0.287,0.133,0.384,0.115c0.097-0.017,0.171-0.069,0.222-0.155
				c0.049-0.084,0.064-0.171,0.042-0.263c-0.021-0.091-0.109-0.183-0.264-0.274l-0.235-0.139L353.023,771.704z"/>
			<path id="_x39_" d="M355.713,775.321l-0.8-0.744l-0.459,0.273l-0.718-0.668l2.968-1.478l0.766,0.713l-1.259,3.067l-0.735-0.684
				L355.713,775.321z M356.022,774.693l0.509-1.051l-1.01,0.585L356.022,774.693z"/>
			<path id="_x38_" d="M356.396,776.759l2.559-1.756l0.904,1.318c0.168,0.244,0.275,0.446,0.322,0.604
				c0.047,0.158,0.04,0.315-0.019,0.472c-0.059,0.157-0.17,0.292-0.333,0.403c-0.142,0.098-0.285,0.151-0.43,0.161
				c-0.145,0.01-0.285-0.016-0.422-0.078c-0.087-0.04-0.184-0.109-0.292-0.208c0.033,0.116,0.049,0.206,0.047,0.271
				c-0.001,0.044-0.017,0.117-0.048,0.219c-0.03,0.103-0.058,0.176-0.083,0.22l-0.48,0.891l-0.613-0.894l0.492-0.959
				c0.064-0.123,0.097-0.216,0.099-0.279c0-0.084-0.024-0.162-0.074-0.234l-0.048-0.07l-1.039,0.713L356.396,776.759z
				 M358.463,776.508l0.229,0.333c0.025,0.036,0.084,0.098,0.179,0.185c0.047,0.045,0.103,0.07,0.168,0.073
				c0.066,0.004,0.127-0.014,0.183-0.052c0.083-0.057,0.128-0.126,0.136-0.209c0.008-0.083-0.037-0.196-0.136-0.341l-0.238-0.347
				L358.463,776.508z"/>
			<path id="_x37_" d="M359.425,781.155l-0.405-1.015l-0.532,0.05l-0.363-0.91l3.315-0.067l0.388,0.971l-2.45,2.234l-0.372-0.932
				L359.425,781.155z M359.974,780.72l0.909-0.732l-1.163,0.097L359.974,780.72z"/>
			<path id="_x36_" d="M360.78,784.109l0.639-0.096l0.219,1.466l-1.308,0.196c-0.233-0.252-0.401-0.48-0.502-0.686
				c-0.101-0.205-0.174-0.456-0.218-0.752c-0.054-0.364-0.037-0.671,0.053-0.919c0.09-0.248,0.248-0.454,0.475-0.617
				c0.227-0.163,0.499-0.268,0.818-0.316c0.335-0.05,0.637-0.025,0.905,0.076c0.268,0.101,0.487,0.275,0.655,0.523
				c0.13,0.193,0.221,0.465,0.274,0.817c0.051,0.339,0.058,0.598,0.022,0.775c-0.036,0.178-0.11,0.331-0.223,0.462
				c-0.112,0.13-0.264,0.238-0.454,0.323l-0.3-0.89c0.11-0.055,0.189-0.132,0.237-0.231c0.048-0.099,0.062-0.219,0.041-0.358
				c-0.031-0.208-0.128-0.363-0.291-0.465c-0.163-0.102-0.401-0.13-0.713-0.083c-0.332,0.05-0.56,0.148-0.684,0.294
				c-0.124,0.146-0.169,0.331-0.136,0.555c0.016,0.106,0.047,0.205,0.092,0.297c0.045,0.092,0.114,0.194,0.207,0.307l0.289-0.043
				L360.78,784.109z"/>
			<path id="_x35_" d="M362.809,788.616l-0.085,0.953l-1.843-0.164c-0.183-0.016-0.353-0.06-0.51-0.132
				c-0.157-0.071-0.292-0.173-0.402-0.306c-0.111-0.132-0.185-0.268-0.222-0.406c-0.052-0.192-0.067-0.418-0.044-0.678
				c0.013-0.151,0.038-0.314,0.075-0.49c0.037-0.176,0.092-0.321,0.165-0.435c0.073-0.114,0.172-0.215,0.296-0.304
				c0.124-0.089,0.249-0.146,0.374-0.172c0.202-0.042,0.379-0.056,0.531-0.042l1.843,0.164l-0.085,0.953l-1.887-0.168
				c-0.169-0.015-0.305,0.02-0.408,0.105c-0.103,0.085-0.162,0.211-0.177,0.376c-0.015,0.164,0.021,0.298,0.106,0.399
				c0.085,0.102,0.214,0.161,0.385,0.176L362.809,788.616z"/>
			<path id="_x34_" d="M359.378,791.902l0.341-1.038l-0.44-0.303l0.306-0.931l2.584,2.078l-0.327,0.994l-3.313,0.139l0.313-0.953
				L359.378,791.902z M360.079,791.92l1.167,0.023l-0.954-0.672L360.079,791.92z"/>
			<path id="_x33_" d="M361.19,794.44l-0.548,0.913l-1.221-0.001l0.577,1.076l-0.544,0.908l-0.927-1.963l-1.115-0.668l0.494-0.824
				l1.115,0.668L361.19,794.44z"/>
			<path id="_x32_" fill="none" stroke="#000000" stroke-width="0.5033" stroke-linecap="round" d="M363.411,786.5
				c0.001,10.444-8.465,18.912-18.909,18.913c-10.444,0.001-18.912-8.465-18.913-18.909c0-0.001,0-0.002,0-0.004
				c-0.001-10.444,8.465-18.912,18.909-18.913c10.444-0.001,18.912,8.465,18.913,18.909
				C363.411,786.497,363.411,786.499,363.411,786.5z"/>
			<path id="_x31_" fill="none" stroke="#000000" stroke-width="0.602" stroke-linecap="round" d="M358.986,786.5
				c0.001,8-6.484,14.487-14.485,14.488c-8,0.001-14.486-6.484-14.487-14.485c0-0.001,0-0.002,0-0.003
				c-0.001-8,6.484-14.486,14.485-14.487c8-0.001,14.486,6.484,14.487,14.484C358.986,786.498,358.986,786.499,358.986,786.5z"/>
		</g>
	</g>
</switch>
</svg>