<?xml version="1.0" encoding="utf-8"?>
<svg version="1.1" id="Countryflags.com" width = "100%" height = "100%"
	 xmlns="http://www.w3.org/2000/svg" xmlns:xlink="http://www.w3.org/1999/xlink" x="0px" y="0px" viewBox="144.5 621.5 300 150"
	 enable-background="new 144.5 621.5 300 150" xml:space="preserve">
<switch>
	<g>
		<g>
			<rect id="_x33_1" x="144.5" y="621.5" fill="#0038A8" width="300" height="150"/>
			<rect id="_x33_0" x="144.5" y="696.5" fill="#CE1126" width="300" height="75"/>
			<path id="_x32_9" fill="#FFFFFF" d="M274.404,696.5l-129.904,75v-150"/>
			<circle id="_x32_8" fill="#FCD116" cx="191.167" cy="696.5" r="15"/>
			<path id="_x32_7" fill="#FCD116" d="M159.5,696.5l1.948,1.948l29.719-1.948l-29.719-1.948L159.5,696.5z"/>
			<path id="_x32_6" fill="#FCD116" d="M162.834,700.23l1.59,1.589l26.744-5.32L162.834,700.23z"/>
			<path id="_x32_5" fill="#FCD116" d="M162.834,692.77l1.59-1.59l26.744,5.32L162.834,692.77z"/>
			<path id="_x32_4" fill="#FCD116" d="M168.775,674.108v2.755l22.392,19.637l-19.637-22.392H168.775z"/>
			<path id="_x32_3" fill="#FCD116" d="M168.494,679.103v2.248l22.673,15.149L168.494,679.103z"/>
			<path id="_x32_2" fill="#FCD116" d="M173.77,673.828h2.248l15.149,22.672L173.77,673.828z"/>
			<path id="_x32_1" fill="#FCD116" d="M191.167,664.833l-1.948,1.948l1.948,29.719l1.948-29.719L191.167,664.833z"/>
			<path id="_x32_0" fill="#FCD116" d="M187.437,668.166l-1.59,1.59l5.32,26.744L187.437,668.166z"/>
			<path id="_x31_9" fill="#FCD116" d="M194.897,668.166l1.59,1.59l-5.32,26.744L194.897,668.166z"/>
			<path id="_x31_8" fill="#FCD116" d="M213.559,674.108h-2.755L191.167,696.5l22.392-19.637V674.108z"/>
			<path id="_x31_7" fill="#FCD116" d="M208.564,673.828h-2.248L191.167,696.5L208.564,673.828z"/>
			<path id="_x31_6" fill="#FCD116" d="M213.839,679.103v2.248L191.167,696.5L213.839,679.103z"/>
			<path id="_x31_5" fill="#FCD116" d="M222.834,696.5l-1.948-1.948l-29.719,1.948l29.719,1.948L222.834,696.5z"/>
			<path id="_x31_4" fill="#FCD116" d="M219.5,692.77l-1.59-1.59l-26.744,5.32L219.5,692.77z"/>
			<path id="_x31_3" fill="#FCD116" d="M219.5,700.23l-1.59,1.589l-26.744-5.32L219.5,700.23z"/>
			<path id="_x31_2" fill="#FCD116" d="M213.559,718.892v-2.755L191.167,696.5l19.637,22.392H213.559z"/>
			<path id="_x31_1" fill="#FCD116" d="M213.839,713.897v-2.248L191.167,696.5L213.839,713.897z"/>
			<path id="_x31_0" fill="#FCD116" d="M208.564,719.172h-2.248L191.167,696.5L208.564,719.172z"/>
			<path id="_x39_" fill="#FCD116" d="M191.167,728.166l1.948-1.948l-1.948-29.719l-1.948,29.719L191.167,728.166z"/>
			<path id="_x38_" fill="#FCD116" d="M194.897,724.833l1.59-1.59l-5.32-26.744L194.897,724.833z"/>
			<path id="_x37_" fill="#FCD116" d="M187.437,724.833l-1.59-1.59l5.32-26.744L187.437,724.833z"/>
			<path id="_x36_" fill="#FCD116" d="M168.775,718.892h2.755l19.637-22.392l-22.392,19.637V718.892z"/>
			<path id="_x35_" fill="#FCD116" d="M173.77,719.172h2.248l15.149-22.673L173.77,719.172z"/>
			<path id="_x34_" fill="#FCD116" d="M168.494,713.897v-2.248l22.673-15.149L168.494,713.897z"/>
			<polygon id="_x33_" fill="#FCD116" points="148.016,643.44 153.936,644.184 155.296,649.995 157.834,644.594 163.78,645.096 
				159.427,641.014 161.743,635.514 156.515,638.392 152,634.49 153.122,640.351 			"/>
			<polygon id="_x32_" fill="#FCD116" points="148.016,749.56 153.122,752.648 152,758.51 156.515,754.607 161.743,757.485 
				159.427,751.986 163.78,747.903 157.834,748.406 155.296,743.005 153.936,748.816 			"/>
			<polygon id="_x31_" fill="#FCD116" points="244.329,691.602 247.737,696.5 244.329,701.398 250.041,699.67 253.646,704.425 
				253.767,698.459 259.404,696.5 253.767,694.54 253.646,688.574 250.041,693.33 			"/>
		</g>
	</g>
</switch>
</svg>