<?xml version="1.0" encoding="utf-8"?>
<svg width = "200px" height = "125px"
	 id="Countryflags.com" xmlns:dc="http://purl.org/dc/elements/1.1/" xmlns:svg="http://www.w3.org/2000/svg" xmlns:cc="http://creativecommons.org/ns#"
	 xmlns="http://www.w3.org/2000/svg" xmlns:xlink="http://www.w3.org/1999/xlink" x="0px" y="0px" viewBox="350 245 300 210"
	 style="enable-background:new 350 245 300 210;" xml:space="preserve">
<style type="text/css">
	.st0{fill:#0018A8;}
	.st1{fill:#D0103A;}
	.st2{fill:#FEDF00;}
	.st3{fill:none;stroke:#231F20;stroke-width:0.2961;stroke-linecap:round;stroke-miterlimit:3.8637;}
	.st4{fill:none;stroke:#C7B37F;stroke-width:0.2961;stroke-linecap:round;stroke-miterlimit:3.8637;}
	.st5{fill:#C7B37F;}
	.st6{fill:#FEDF00;stroke:#703D29;stroke-width:0.2392;stroke-miterlimit:3.8636;}
	.st7{fill:none;stroke:#703D29;stroke-width:0.2961;stroke-linecap:round;stroke-miterlimit:3.8637;}
	.st8{fill:none;stroke:#703D29;stroke-width:0.2961;stroke-miterlimit:3.8637;}
	.st9{fill:none;stroke:#703D29;stroke-width:0.3124;stroke-linejoin:round;stroke-miterlimit:3.8636;}
	.st10{fill:none;stroke:#703D29;stroke-width:0.2961;stroke-linecap:square;stroke-miterlimit:3.8636;}
	.st11{fill:none;stroke:#703D29;stroke-width:0.311;stroke-linecap:round;stroke-miterlimit:3.8636;}
	.st12{fill:none;stroke:#703D29;stroke-width:0.3828;stroke-miterlimit:3.8636;}
	.st13{fill:none;stroke:#703D29;stroke-width:0.3364;stroke-miterlimit:3.8636;}
	.st14{fill:none;stroke:#703D29;stroke-width:0.3124;stroke-linecap:round;stroke-miterlimit:3.8636;}
	.st15{fill:#D52B1E;}
	.st16{fill:#C7B37F;stroke:#C7B37F;stroke-width:0.1538;stroke-miterlimit:3.8637;}
	.st17{fill:none;stroke:#703D29;stroke-width:0.3172;stroke-miterlimit:3.8637;}
	.st18{fill:none;stroke:#703D29;stroke-width:0.359;stroke-miterlimit:3.8636;}
	.st19{fill:none;stroke:#231F20;stroke-width:0.2961;stroke-miterlimit:3.8637;}
	.st20{fill:none;stroke:#703D29;stroke-width:0.4068;stroke-miterlimit:3.8636;}
	.st21{fill:none;stroke:#703D29;stroke-width:0.2788;stroke-miterlimit:3.8636;}
	.st22{fill:#703D29;}
	.st23{fill:none;stroke:#703D29;stroke-width:0.2643;stroke-miterlimit:3.8637;}
	.st24{fill:none;stroke:#C7B37F;stroke-width:0.2961;stroke-miterlimit:3.8637;}
	.st25{fill:none;stroke:#703D29;stroke-width:0.3364;stroke-linecap:round;stroke-miterlimit:3.8636;}
	.st26{fill:#703D29;stroke:#703D29;stroke-width:0.083;stroke-miterlimit:3.8636;}
	.st27{fill:#D52B1E;stroke:#703D29;stroke-width:0.2392;stroke-miterlimit:3.8636;}
	.st28{fill:#FFFFFF;}
	.st29{fill:#0065BD;}
	.st30{fill:none;stroke:#FEDF00;stroke-width:0.2961;stroke-linecap:round;stroke-miterlimit:3.8637;}
	.st31{fill:#FCD900;stroke:#FEDF00;stroke-width:0.1538;stroke-miterlimit:3.8636;}
	.st32{fill:none;stroke:#FEDF00;stroke-width:0.2961;stroke-miterlimit:3.8637;}
	.st33{fill:#FEDF00;stroke:#FCD900;stroke-width:0.1538;stroke-miterlimit:3.8636;}
	.st34{fill:#D52B1E;stroke:#D52B1E;stroke-width:0.1538;stroke-miterlimit:3.8636;}
	.st35{fill:none;stroke:#703D29;stroke-width:0.299;stroke-miterlimit:3.8636;}
	.st36{fill:none;stroke:#703D29;stroke-width:0.311;stroke-miterlimit:3.8636;}
</style>
<switch>
	<g>
		<path id="_x32_74" class="st0" d="M350,245v210h96V245H350z"/>
		<path id="_x32_73" class="st1" d="M554,245v210h96V245H554z"/>
		<rect id="_x32_72" x="446" y="245" class="st2" width="108" height="210"/>
		<path id="_x32_71" class="st3" d="M505.341,313.947c-0.207-0.116-0.405-0.227-0.594-0.331c-0.495-0.272-1.022-0.216-1.278,0.093
			c-0.289,0.349-0.391,0.945,0.01,1.315"/>
		<path id="_x32_70" class="st4" d="M469.719,358.994c-0.115,0.268-0.181,0.357-0.301,0.583c-0.127,0.238-0.195,0.374-0.331,0.606
			c-0.133,0.227-0.211,0.353-0.357,0.572c-0.197,0.295-0.327,0.448-0.536,0.734"/>
		<path id="_x32_69" class="st5" d="M490.812,301.543c3.615,0,5.094,3.101,8.709,3.101c2.232,0,3.533-0.729,5.478-1.826
			c1.357-0.769,2.223-1.178,3.782-1.178c1.595,0,2.574,0.483,3.39,1.85c0.461,0.774,0.844,2.288,0.641,3.158
			c-0.384,1.648-0.621,2.364-1.278,3.886c-0.313,0.732-0.609,1.17-0.609,1.97c0,1.919,2.611,2.578,4.387,2.606
			c0.387,0.006,3.642,0.059,5.645-1.968c-1.087-0.048-2.303-0.889-2.303-1.976c0-1.23,0.864-2.062,2.036-2.417
			c0.223-0.064,0.602,0.133,0.803,0.027c0.286-0.149,0.152-0.47,0.407-0.672c0.583-0.466,0.962-0.758,1.71-0.758
			c0.487,0,0.773,0.069,1.165,0.35c0.207,0.148,0.283,0.332,0.537,0.332c0.536,0,0.8-0.339,1.336-0.339
			c0.434,0,0.7,0.058,1.081,0.255c0.318,0.164,0.311,0.705,0.672,0.705c0.18,0,1.133-0.388,1.632-0.388
			c1.034,0,1.586,0.374,2.253,1.159c0.18,0.212,0.295,0.641,0.479,0.641c0.369,0,1.22,0.238,1.75,0.768
			c0.228,0.228,0.329,0.336,0.504,0.611c0.122,0.196,0.309,0.675,0.524,0.758c0.253,0.097,0.465,0.078,0.797,0.292
			c0.758,0.486,1.341,1.399,1.313,2.283c-0.009,0.297-0.145,0.71-0.226,0.993c-0.882,3.086-2.982,4.064-5.102,6.715
			c-0.901,1.129-1.612,2.03-1.612,3.477c0,0.35,0.431,0.991,0.622,1.282c-0.117-0.68,0.194-1.515,0.913-1.554
			c0.985-0.053,1.745,0.695,1.878,1.671c0.026,0.228-0.058,0.622-0.156,0.855c0.53-0.35,1.229-0.586,1.865-0.66
			c0.345-0.037,0.544-0.047,0.894-0.039c1.574,0.039,3.31,0.924,4.364,1.819c3.225,2.739,3.615,6.748,3.438,7.861
			c-0.391,2.474-0.145,6.95-6.468,8.735c1.169,0.492,1.965,1.372,1.965,2.453c0,1.177-0.901,2.184-2.078,2.184
			c-0.673,0-1.14-0.164-1.612-0.636c-1.315,1.315-1.569,2.656-1.569,4.516c0,1.113,0.212,1.771,0.678,2.778
			c0.493,1.066,0.848,1.691,1.739,2.459c0.472-0.71,0.97-1.23,1.823-1.23c0.827,0,1.527,0.265,1.866,1.018
			c0.101,0.228,0.01,0.414,0.127,0.636c0.148,0.286,0.398,0.35,0.551,0.636c0.238,0.44,0.005,0.816,0.212,1.272
			c0.133,0.297,0.424,0.339,0.551,0.636c0.202,0.456,0.255,0.768,0.255,1.272c0,1.41-1.283,2.417-2.693,2.417
			c-0.424,0-0.657-0.17-1.081-0.127c0.806,0.806,1.421,1.155,2.036,2.12c0.891,1.394,1.113,2.385,1.315,4.029
			c0.037,0.308,0.042,0.493,0.042,0.806c0,2.11-0.329,3.371-1.272,5.258c-0.901,1.808-1.67,2.809-3.308,3.986
			c-2.555,1.84-4.416,2.37-7.506,2.969c-1.982,0.381-3.117,0.551-5.131,0.678c-2.576,0.165-4.044,0.17-6.615,0.34
			c-3.372,0.228-5.709,0.705-8.1,3.096c1.129,0.827,1.908,1.638,1.908,3.032c0,1.431-0.885,2.454-2.248,2.905
			c-0.318,0.106-0.551,0.011-0.848,0.17c-0.355,0.186-0.339,0.594-0.679,0.806c-0.599,0.381-1.065,0.466-1.781,0.466
			c-1.262,0-2.121-0.297-3.011-1.187c-1.034,0.859-1.383,1.633-2.544,2.29c-0.382,0.212-0.578,0.509-1.018,0.509
			c-0.694,0-1.012-0.44-1.569-0.848c-0.885-0.647-1.357-1.076-2.078-1.908c-1.055,0.631-1.702,1.145-2.926,1.145
			c-0.753,0-1.23-0.106-1.866-0.509c-0.334-0.207-0.387-0.514-0.721-0.721c-0.35-0.217-0.641-0.138-1.018-0.297
			c-1.415-0.61-2.332-1.659-2.332-3.202c0-1.352,0.853-2.21,2.078-2.778c-2.348-2.348-4.66-2.757-7.973-2.968
			c-2.56-0.164-4.018-0.17-6.573-0.339c-2.03-0.138-3.159-0.345-5.174-0.678c-1.521-0.249-2.423-0.329-3.816-0.976
			c-4.797-2.237-7.856-5.306-8.482-10.559c-0.053-0.451-0.042-0.71-0.042-1.166c0-2.735,1.076-4.405,3.011-6.34
			c-0.498-0.117-0.832,0.048-1.315-0.127c-1.209-0.44-2.078-1.278-2.078-2.566c0-0.477,0.021-0.795,0.255-1.208
			c0.164-0.292,0.477-0.35,0.551-0.678c0.096-0.435-0.032-0.742,0.17-1.145c0.132-0.27,0.382-0.323,0.509-0.594
			c0.419-0.869,0.944-1.569,1.908-1.569c0.827,0,1.357,0.435,1.781,1.145c0.806-0.371,1.028-0.976,1.484-1.739
			c0.758-1.267,1.102-2.152,1.102-3.626c0-1.028-0.1-1.633-0.424-2.608c-0.233-0.7-0.329-1.177-0.848-1.696
			c-0.472,0.472-0.938,0.636-1.612,0.636c-1.346,0-2.375-1.155-2.375-2.502c0-1.002,0.493-1.744,1.4-2.163
			c-0.726-0.625-1.357-0.679-2.163-1.187c-1.225-0.774-1.654-1.59-2.46-2.799c-0.525-0.79-0.662-1.341-0.933-2.247
			c-0.323-1.092-0.509-1.744-0.509-2.884c0-0.297,0.005-0.472,0.042-0.763c0.302-2.301,0.716-3.742,2.163-5.555
			c0.859-1.076,1.442-1.739,2.714-2.29c1.081-0.466,1.728-0.806,2.905-0.806c0.355,0,0.562,0,0.912,0.042
			c0.541,0.069,0.885,0.117,1.357,0.382c0.18,0.1,0.509,0.403,0.509,0.191c0-0.244-0.127-0.371-0.127-0.615
			c0-0.975,0.7-1.866,1.675-1.866c0.705,0,0.991,0.62,1.336,1.23c0.223-0.371,0.339-0.625,0.339-1.06
			c0-1.611-0.864-2.433-1.866-3.689c-2.184-2.73-4.92-4.008-4.92-7.506c0-1.044,0.504-1.755,1.4-2.29
			c0.26-0.154,0.609,0,0.863-0.163c0.217-0.138,0.192-0.418,0.33-0.641c0.217-0.345,0.41-0.492,0.712-0.758
			c0.498-0.434,0.936-0.304,1.487-0.686c0.276-0.191,0.341-0.439,0.553-0.693c0.615-0.742,1.167-1.1,2.137-1.1
			c0.487,0,0.761,0.003,1.212,0.182c0.154,0.058,0.441,0.29,0.478,0.245c0.097-0.117,0.36-0.396,0.673-0.544
			c0.408-0.196,0.574-0.272,1.03-0.272c0.519,0,0.86,0.291,1.379,0.291c0.191,0,0.235-0.19,0.388-0.291
			c0.461-0.313,0.727-0.49,1.289-0.49c0.541,0,0.839,0.178,1.295,0.47c0.43,0.27,0.491,0.633,0.931,0.887
			c0.244,0.143,0.451,0.079,0.721,0.17c1.209,0.403,2.121,1.208,2.121,2.481c0,0.689-0.164,1.182-0.679,1.633
			c-0.408,0.36-0.795,0.297-1.315,0.466c1.685,1.346,3.152,1.68,5.304,1.68c1.972,0,4.384-0.806,4.384-2.778
			c0-0.917-0.507-1.41-0.867-2.253c-0.647-1.5-0.998-2.382-0.998-4.015c0-1.293,0.141-2.078,0.894-3.128
			C488.536,301.795,489.482,301.543,490.812,301.543L490.812,301.543z"/>
		<path id="_x32_68" class="st6" d="M501.08,319.774h24.654v24.607H501.08V319.774z"/>
		<path id="_x32_67" class="st7" d="M464.284,332.358c0.718,0.376,1.446-0.175,1.297-1.109c-0.07-0.437-0.542-0.989-1.18-1.03"/>
		<path id="_x32_66" class="st7" d="M464.26,332.343c0.676,0.49,1.545-0.337,1.209-1.215c-0.227-0.592-1.069-1.232-2.235-0.439
			c-1.288,0.876-0.933,3.638,1.539,3.685c2.205,0.042,3.546-3.172,1.586-5.428c-1.885-2.17-5.318-1.663-7.557,0.119
			c-0.953,0.758-2.752,2.743-3.312,5.449c-0.174,0.843-0.287,1.534-0.274,2.379c0.009,0.557,0.06,1.181,0.227,1.959
			c0.337,1.572,0.89,2.724,1.442,3.524c0.211,0.306,0.404,0.561,0.611,0.768c0.384,0.384,0.499,0.587,0.886,0.91
			c1.267,1.054,2.9,1.881,4.898,1.796c2.193-0.093,3.452-1.633,3.219-3.452c-0.226-1.764-2.007-2.641-3.172-1.819
			c-0.793,0.56-1.075,2.293,0.327,2.706c0.793,0.233,1.493-0.77,0.933-1.353"/>
		<path id="_x32_65" class="st8" d="M509.535,391.228c0.213,0.145,0.35,0.448,0.35,0.448c0.059,0.141,0.135,0.273,0.156,0.398
			c0.121,0.713-0.347,1.158-0.925,1.225c-0.794,0.093-1.39-0.379-1.645-0.951"/>
		<path id="_x32_64" class="st8" d="M467.26,371.858c0.155,0.145,0.188,0.334,0.397,0.373c0.315,0.058,0.56,0.175,0.874-0.245
			c0.388-0.517,0.18-1.322-0.224-1.829c-0.432-0.542-1.684-1.022-2.734-0.438c-0.351,0.195-0.791,0.452-1.189,0.979
			c-0.151,0.199-0.405,0.522-0.536,0.746c-0.318,0.543-0.448,0.988-0.511,1.166c-0.96,2.729,0.18,5.599,1.946,7.348"/>
		<path id="_x32_63" class="st7" d="M509.477,391.17c0.191,0.199,0.303,0.373,0.303,0.373c0.059,0.14,0.107,0.273,0.128,0.398
			c0.121,0.714-0.347,1.158-0.925,1.225c-0.794,0.092-1.326-0.376-1.58-0.947"/>
		<path id="_x32_62" class="st7" d="M493.751,314.222c0.391-0.216,0.753-0.422,1.087-0.606c0.494-0.272,1.089-0.214,1.344,0.095
			c0.289,0.349,0.333,0.955-0.068,1.325"/>
		<path id="_x32_61" class="st9" d="M477.676,312.039c0.13,0.489,0.526,0.948,1.146,1.142c0.373,0.117,1.236,0.07,1.796-0.653
			c0.454-0.586,0.419-1.312,0.25-1.889c-0.11-0.373-0.411-0.734-0.809-1.04l-2.381,2.417L477.676,312.039L477.676,312.039z"/>
		<path id="_x32_60" class="st5" d="M479.721,309.348l0.327,0.233l0.35,0.373l0.233,0.466l0.117,0.397l0.023,0.513l-0.023,0.35
			l-0.117,0.397l-0.233,0.28l-0.28,0.303l-0.397,0.21l-0.513,0.117l-0.443,0.07l-0.466-0.21l-0.42-0.303l-0.257-0.373l-0.187-0.466
			v-0.187L479.721,309.348L479.721,309.348z"/>
		<path id="_x32_59" class="st8" d="M488.146,316.846c2.576-0.538,4.675-1.692,6.262-2.579"/>
		<path id="_x32_58" class="st8" d="M488.013,316.714c2.576-0.538,4.675-1.692,6.263-2.579"/>
		<path id="_x32_57" class="st8" d="M503.351,395.227c-0.606,0.933-2.053,2.333-3.568,2.892c-1.516-0.56-2.962-1.959-3.569-2.892"/>
		<path id="_x32_56" class="st7" d="M525.319,308.205c1.265-0.687,2.241-0.56,2.962,0.441c0.784,1.088,0.896,2.536,0.723,3.384
			c-0.257,1.259-0.621,1.782-1.622,2.696"/>
		<path id="_x32_55" class="st7" d="M528.374,308.765c1.446-0.956,3.013-0.55,3.872,0.723c0.63,0.933,0.791,1.714,0.746,2.869
			c-0.076,1.98-1.315,3.549-2.682,4.315"/>
		<path id="_x32_54" class="st8" d="M532.549,310.043c1.568,0.191,2.935,1.688,2.935,3.297c0,2.076-0.7,2.849-1.792,4.334
			c-1.169,1.589-4.991,4.501-4.991,7.813c0,2.006,0.56,3.289,2.006,3.942c0.932,0.421,2.023-0.035,2.519-0.483
			c1.213-1.096,0.728-3.019-0.536-3.248c-1.54-0.28-1.829,2.143-0.327,1.983"/>
		<path id="_x32_53" class="st8" d="M535.185,312.1c1.19,0.093,2.146,1.17,2.146,2.426c0,1.796-0.501,2.575-1.936,4.362
			c-1.236,1.539-4.945,4.245-4.852,6.834c0.035,0.979,0.861,1.902,1.573,1.953"/>
		<path id="_x32_52" class="st7" d="M535.325,332.343c-0.676,0.49-1.54-0.301-1.166-1.141c0.258-0.58,1.026-1.306,2.193-0.513
			c1.288,0.876,0.933,3.638-1.539,3.685c-2.205,0.042-3.695-3.089-1.586-5.428c1.925-2.135,5.494-1.717,7.734,0.064
			c0.953,0.758,2.87,2.84,3.281,5.572c0.497,3.306,0.434,7.372-2.981,9.876c-1.373,1.007-3.275,1.465-4.955,1.391
			c-2.193-0.096-3.452-1.633-3.219-3.452c0.226-1.764,1.924-2.51,3.172-1.819c1.295,0.718,1.069,2.54-0.327,2.706
			c-0.821,0.098-1.493-0.77-0.933-1.353"/>
		<path id="_x32_51" class="st8" d="M534.159,331.202c0.364-1.636,1.765-1.789,2.897-1.772c3.089,0.045,5.225,3.709,5.261,7.253
			c0.045,4.477-1.9,7.113-5.172,7.254c-0.847,0.036-2.305-0.367-2.33-1.4"/>
		<path id="_x32_50" class="st10" d="M536.061,330.471c3.258,0.724,4.401,3.659,4.401,6.46c0,2.285-0.226,5.406-4.672,6.505"/>
		<path id="_x32_49" class="st11" d="M537.984,348.182c-0.56-1.353-2.006-0.746-2.095,0c-0.205,1.72,1.302,2.239,2.375,1.959
			c0.531-0.139,0.92-0.473,1.169-0.909c0.28-0.492,0.365-1.134,0.183-1.747c-0.082-0.278-0.199-0.512-0.398-0.774
			c-0.2-0.263-0.406-0.444-0.6-0.567c-0.413-0.263-0.862-0.289-1.567-0.289c-2.612,0-4.898,3.087-5.666,6.293
			c-0.253,1.056-0.601,3.412-0.119,5.645c0.513,2.379,1.542,4.026,2.748,5.276c0.653,0.676,1.544,1.279,2.697,1.93
			c0.356,0.201,1.296,0.618,1.949,0.805c0.671,0.192,1.29,0.163,1.847,0.042c1.548-0.336,2.268-1.776,1.488-3.249
			c-0.638-1.206-2.519-1.866-3.405-0.327c-0.075,0.131-0.192,0.415-0.188,0.723c0.005,0.41,0.175,0.905,0.468,1.092
			c0.674,0.429,1.752,0.308,1.702-0.882"/>
		<path id="_x32_48" class="st8" d="M540.013,364.248c-0.49,0.189-0.758,0.163-1.367-0.108c-0.25-0.111-0.536-0.283-0.872-0.473
			c-1.194-0.678-2.612-1.747-3.942-4.243c-0.393-0.738-0.638-1.423-0.802-2.098c-0.127-0.521-0.215-1.035-0.234-1.563
			c-0.032-0.9,0.064-1.84,0.289-2.916c0.371-1.778,0.817-2.743,1.912-4.245c0.539-0.739,1.003-1.189,2.006-1.213"/>
		<path id="_x32_47" class="st8" d="M541.432,361.873c0.021-0.109,0.031-0.222,0.031-0.337c0-1.011-0.82-1.831-1.831-1.831
			c-1.011,0-1.831,0.82-1.831,1.831c0,0.582,0.271,1.1,0.694,1.436"/>
		<path id="_x32_46" class="st8" d="M540.721,360.053c-0.138-0.831-0.844-1.464-1.695-1.464c-0.949,0-1.719,0.788-1.719,1.761
			c0,0.476,0.185,0.908,0.485,1.225"/>
		<path id="_x32_45" class="st8" d="M537.378,359.959c-1.563-1.119-2.902-3.257-2.916-5.782c-0.011-1.942,0.77-3.918,1.679-4.688"/>
		<path id="_x32_44" class="st7" d="M534.899,359.098c0.613,0.91,1.355,1.921,2.922,2.771"/>
		<path id="_x32_43" class="st12" d="M529.908,365.921c0.524-0.617,1.727-1.542,3.103-1.711c1.396-0.172,2.609,0.235,3.848,0.901
			c2.418,1.301,3.766,2.699,4.665,5.292c0.228,0.659,0.417,1.652,0.391,2.706c-0.042,1.681-0.469,3.519-0.928,4.407
			c-0.4,0.775-1.446,4.199-7.184,6.561c-3.348,1.378-8.49,1.696-12.035,1.836c-4.877,0.192-9.376,0.373-11.989,3.592"/>
		<path id="_x32_42" class="st7" d="M537.234,366.814c-1.536-1.008-4.451-2.329-7.087-1.028c-0.978,0.483-1.633,1.079-2.003,2.052
			c-0.666,1.752,0.078,3.683,0.836,4.485c0.397,0.42,1.26,1.222,2.333,1.236c1.772,0.023,2.194-1.217,2.239-1.493
			c0.21-1.283-0.536-1.796-0.933-1.936c-0.304-0.108-1.294-0.08-1.503,0.62c-0.07,0.233-0.083,0.64,0.104,0.943"/>
		<path id="_x32_41" class="st13" d="M531.126,371.436c-0.14-0.513-0.01-1.005,0.397-1.563c0.544-0.746,1.703-1.003,2.753-0.42
			c0.351,0.195,0.791,0.452,1.189,0.98c0.151,0.199,0.405,0.521,0.536,0.746c0.318,0.543,0.448,0.988,0.511,1.166
			c1.153,3.278-0.68,6.831-3.077,8.257c-1.862,1.107-4.082,1.601-6.741,1.913c-1.195,0.14-1.877,0.131-3.079,0.187
			c-0.967,0.045-1.802,0.029-2.589,0.019c-0.647-0.008-1.261-0.005-1.889-0.019c-1.025-0.024-2.085-0.047-3.382,0.047
			c-1.365,0.099-2.392,0.134-3.545,0.326c-0.753,0.126-1.637,0.247-2.563,0.455c-0.278,0.062-0.56,0.113-0.843,0.198
			c-0.19,0.057-0.378,0.116-0.564,0.173c-1.672,0.51-3.296,1.131-4.577,1.956c-0.396,0.255-0.843,0.51-1.163,0.812
			c-0.199,0.188-0.441,0.377-0.637,0.569c-0.897,0.882-1.814,1.838-2.029,3.132c-0.04,0.238-0.04,0.489-0.04,0.752
			c0,0.84,0.683,1.983,2.526,2.356"/>
		<path id="_x32_40" class="st7" d="M509.598,391.448c0.49,1.003-0.067,1.507-0.746,1.586c-1.003,0.117-1.54-0.676-1.61-1.4
			c-0.113-1.172,0.875-2.235,2.053-2.216c1.061,0.017,1.925,0.701,2.329,1.643c0.147,0.342,0.215,0.718,0.236,1.109
			c0.04,0.74-0.221,1.422-0.667,1.942c-0.599,0.698-1.534,1.12-2.529,1.16c-1.98,0.079-3.522-1.772-3.522-3.662
			c0-3.615,5.362-5.587,7.487-6.094c2.612-0.623,4.202-0.857,8.397-1.09c1.679-0.093,2.909-0.046,4.758-0.238
			c1.655-0.172,2.519-0.252,4.222-0.649c2.125-0.495,4.105-1.376,5.878-2.985c1.365-1.239,2.146-2.123,2.778-3.825
			c0.546-1.469,0.796-4.379-0.585-6.531c-1.221-1.902-2.915-2.89-4.851-3.17c-1.749-0.253-3.282,0.502-4.199,2.237
			c-0.443,0.84-0.306,2.244,0.045,2.892c0.303,0.56,1.169,1.385,2.242,1.4c1.772,0.023,2.194-1.217,2.239-1.493
			c0.21-1.283-0.536-1.796-0.933-1.936c-0.304-0.108-1.294-0.08-1.503,0.62c-0.07,0.233-0.083,0.64,0.104,0.943"/>
		<path id="_x32_39" class="st7" d="M508.069,385.706c-2.273,1.008-3.939,1.763-5.352,3.993c-0.443,0.7-0.56,1.703-0.56,2.286
			c0,1.259,0.513,2.682,1.563,3.569c0.974,0.822,1.936,1.073,3.125,0.956c0.902-0.088,1.749-0.746,1.889-1.213"/>
		<path id="_x32_38" class="st8" d="M529.937,328.963c-0.834,0.709-1.236,1.586-1.236,2.682c0,1.452,1.215,3.825,4.201,4.665
			c1.144,0.322,2.237,0.291,2.922-0.125"/>
		<path id="_x32_37" class="st8" d="M530.52,342.561c-1.063,0.355-1.819,1.976-1.819,3.522c0,1.773,0.863,2.869,1.866,3.499"/>
		<path id="_x32_36" class="st7" d="M531.686,348.322c-1.913,2.379-2.927,3.791-2.985,6.624c-0.055,2.659,0.793,4.478,2.379,6.391"
			/>
		<path id="_x32_35" class="st8" d="M521.493,308.774c0.049-0.074,0.104-0.154,0.164-0.243c0.793-1.166,2.194-1.474,3.219-0.7
			c1.236,0.933,1.548,2.521,1.213,4.198c-0.21,1.05-0.922,1.924-1.898,2.556"/>
		<path id="_x32_34" class="st14" d="M479.004,311.172c-0.144-0.774-1.049-0.933-1.4-0.476c-0.54,0.704-0.146,1.877,0.953,2.22
			c0.373,0.117,1.236,0.07,1.796-0.653c0.454-0.586,0.419-1.312,0.25-1.889c-0.11-0.374-0.409-0.699-0.809-1.003
			c-1.276-0.97-3.335-0.746-4.012,0.886c-0.872,2.106,1.026,3.685,2.776,4.875c2.202,1.498,4.712,1.77,6.601,1.749
			c4.292-0.047,7.557-2.099,9.679-3.265c0.495-0.272,1.004-0.216,1.259,0.093c0.289,0.349,0.285,0.913-0.117,1.283"/>
		<path id="_x32_33" class="st7" d="M474.266,308.205c-1.213-0.56-2.211-0.452-2.962,0.441c-0.863,1.026-0.896,2.536-0.723,3.384
			c0.257,1.259,0.62,1.782,1.622,2.696"/>
		<path id="_x32_32" class="st8" d="M471.211,308.765c-1.446-0.956-3.013-0.55-3.872,0.723c-0.63,0.933-0.791,1.714-0.746,2.869
			c0.076,1.98,1.315,3.549,2.682,4.315"/>
		<path id="_x32_31" class="st8" d="M467.035,310.043c-1.568,0.191-2.82,1.521-2.82,3.13c0,2.076,0.511,2.915,1.677,4.501
			c1.169,1.59,4.991,4.501,4.991,7.813c0,2.006-0.56,3.289-2.006,3.942c-0.933,0.421-2.023-0.035-2.519-0.483
			c-1.213-1.096-0.728-3.019,0.536-3.248c1.54-0.28,1.829,2.143,0.327,1.983"/>
		<path id="_x32_30" class="st8" d="M464.4,312.1c-1.19,0.093-2.36,1.117-2.36,2.372c0,1.796,0.715,2.629,2.15,4.415
			c1.236,1.539,4.729,4.191,4.635,6.78c-0.035,0.979-0.693,2.176-1.346,2.036"/>
		<path id="_x32_29" class="st8" d="M462.684,331.341c-0.713,0.238-1.605,0.683-2.265,1.619c-0.557,0.789-0.882,1.886-1.083,2.845
			c-0.088,0.42-0.193,1.75,0.076,3.123c0.198,1.014,0.617,1.958,1.081,2.642c0.166,0.245,0.317,0.41,0.486,0.579
			c0.156,0.156,0.376,0.293,0.532,0.412"/>
		<path id="_x32_28" class="st7" d="M461.601,348.182c0.56-1.353,2.006-0.746,2.095,0c0.205,1.72-1.302,2.239-2.375,1.959
			c-0.531-0.139-0.921-0.473-1.169-0.909c-0.28-0.492-0.365-1.134-0.183-1.747c0.083-0.278,0.199-0.512,0.398-0.774
			c0.2-0.263,0.406-0.444,0.6-0.567c0.413-0.263,0.862-0.289,1.567-0.289c2.612,0,4.898,3.087,5.666,6.293
			c0.253,1.056,0.601,3.412,0.119,5.645c-0.513,2.379-1.542,4.026-2.748,5.276c-0.653,0.676-1.544,1.279-2.697,1.93
			c-0.356,0.201-1.296,0.618-1.949,0.805c-0.671,0.192-1.301,0.206-1.847,0.042c-1.327-0.398-2.178-1.638-1.488-3.249
			c0.538-1.254,2.519-1.866,3.405-0.327c0.075,0.131,0.192,0.415,0.188,0.723c-0.005,0.41-0.175,0.905-0.468,1.092
			c-0.674,0.429-1.751,0.308-1.701-0.882"/>
		<path id="_x32_27" class="st8" d="M459.571,364.248c0.49,0.189,0.758,0.163,1.367-0.108c0.25-0.111,0.536-0.283,0.872-0.473
			c1.194-0.678,2.612-1.747,3.942-4.243c0.393-0.738,0.638-1.423,0.802-2.098c0.127-0.521,0.215-1.035,0.234-1.563
			c0.032-0.9-0.065-1.84-0.289-2.916c-0.371-1.778-0.818-2.743-1.913-4.245c-0.538-0.739-1.003-1.189-2.006-1.213"/>
		<path id="_x32_26" class="st8" d="M458.152,361.873c-0.02-0.109-0.031-0.222-0.031-0.337c0-1.011,0.82-1.831,1.831-1.831
			c1.011,0,1.831,0.82,1.831,1.831c0,0.582-0.271,1.1-0.694,1.436"/>
		<path id="_x32_25" class="st8" d="M458.864,360.053c0.138-0.831,0.844-1.464,1.694-1.464c0.949,0,1.719,0.788,1.719,1.761
			c0,0.476-0.185,0.908-0.485,1.225"/>
		<path id="_x32_24" class="st8" d="M462.207,359.959c1.563-1.119,2.902-3.257,2.916-5.782c0.011-1.942-0.77-3.918-1.679-4.688"/>
		<path id="_x32_23" class="st7" d="M464.686,359.098c-0.613,0.91-1.355,1.921-2.922,2.771"/>
		<path id="_x32_22" class="st8" d="M469.345,365.79c-0.435-1.023-1.299-1.496-2.706-1.646c-1.399-0.149-2.61,0.235-3.849,0.901
			c-2.418,1.301-3.766,2.699-4.665,5.292c-0.228,0.659-0.417,1.652-0.391,2.706c0.042,1.681,0.469,3.519,0.928,4.407
			c0.4,0.775,1.446,4.198,7.184,6.56c3.348,1.379,8.49,1.696,12.035,1.836c4.877,0.193,9.376,0.373,11.989,3.592"/>
		<path id="_x32_21" class="st7" d="M462.351,366.814c1.536-1.008,4.451-2.329,7.087-1.028c0.978,0.483,1.633,1.079,2.003,2.052
			c0.666,1.752-0.079,3.683-0.836,4.485c-0.397,0.42-1.26,1.222-2.333,1.236c-1.772,0.023-2.194-1.217-2.239-1.493
			c-0.21-1.283,0.536-1.796,0.933-1.936c0.304-0.108,1.294-0.08,1.504,0.62c0.07,0.233,0.083,0.64-0.104,0.943"/>
		<path id="_x32_20" class="st8" d="M468.458,371.436c0.14-0.513,0.068-1.052-0.396-1.563c-0.466-0.513-1.703-1.003-2.752-0.42
			c-0.351,0.195-0.791,0.452-1.189,0.98c-0.151,0.199-0.405,0.521-0.536,0.746c-0.318,0.543-0.448,0.988-0.511,1.166
			c-1.153,3.278,0.724,6.76,3.077,8.257c2.052,1.306,4.152,1.679,6.741,1.913c1.198,0.108,1.877,0.131,3.079,0.187
			c0.967,0.045,1.802,0.029,2.589,0.019c0.647-0.008,1.262-0.005,1.889-0.019c1.025-0.024,2.085-0.047,3.382,0.047
			c1.365,0.099,2.392,0.134,3.545,0.326c0.754,0.126,1.637,0.247,2.563,0.455c0.278,0.062,0.56,0.113,0.843,0.198
			c0.19,0.057,0.378,0.116,0.564,0.173c1.671,0.51,3.296,1.131,4.577,1.956c0.396,0.255,0.852,0.501,1.163,0.812
			c0.239,0.239,0.442,0.377,0.637,0.569c0.897,0.882,1.814,1.838,2.029,3.132c0.04,0.238,0.04,0.489,0.04,0.752
			c0,0.84-0.683,1.983-2.526,2.356"/>
		<path id="_x32_19" class="st8" d="M489.987,391.448c-0.49,1.003,0.067,1.507,0.746,1.586c1.003,0.117,1.54-0.676,1.61-1.4
			c0.113-1.172-0.875-2.235-2.053-2.216c-1.061,0.017-1.924,0.701-2.329,1.643c-0.147,0.342-0.215,0.718-0.236,1.109
			c-0.04,0.74,0.221,1.422,0.667,1.942c0.599,0.698,1.534,1.12,2.529,1.16c1.98,0.079,3.522-1.772,3.522-3.662
			c0-3.615-5.362-5.587-7.487-6.094c-2.612-0.623-4.202-0.857-8.397-1.09c-1.679-0.093-2.909-0.046-4.758-0.238
			c-1.655-0.172-2.519-0.252-4.222-0.649c-2.125-0.495-4.105-1.376-5.878-2.985c-1.365-1.239-2.146-2.123-2.778-3.825
			c-0.546-1.469-0.796-4.379,0.585-6.531c1.221-1.902,2.916-2.89,4.852-3.17c1.749-0.253,3.283,0.502,4.199,2.237
			c0.443,0.84,0.306,2.244-0.045,2.892c-0.303,0.56-1.169,1.385-2.242,1.4c-1.772,0.023-2.194-1.217-2.239-1.493
			c-0.21-1.283,0.536-1.796,0.933-1.936c0.304-0.108,1.294-0.08,1.504,0.62c0.07,0.233,0.083,0.64-0.104,0.943"/>
		<path id="_x32_18" class="st8" d="M491.515,385.706c2.273,1.008,3.939,1.763,5.352,3.993c0.443,0.7,0.56,1.703,0.56,2.286
			c0,1.259-0.513,2.682-1.563,3.569c-0.974,0.822-1.936,1.073-3.125,0.956c-0.902-0.088-1.749-0.746-1.889-1.213"/>
		<path id="_x32_17" class="st8" d="M469.648,328.963c0.834,0.709,1.236,1.586,1.236,2.682c0,1.452-1.215,3.825-4.201,4.665
			c-1.144,0.322-2.276,0.062-2.961-0.354"/>
		<path id="_x32_16" class="st8" d="M470.137,333.885c0.537,0.373,0.746,0.792,0.746,1.521c0,0.5-0.323,1.147-0.872,1.76
			c-0.899,1.004-2.425,1.857-4.115,1.878c-0.917,0.011-1.869-0.18-2.827-0.821c-1.024-0.685-1.563-1.61-1.796-2.519"/>
		<path id="_x32_15" class="st8" d="M470.09,337.013c0.608,0.559,0.794,1.258,0.794,2.139c0,1.287-0.523,2.28-1.725,3.332
			c-0.269,0.235-0.571,0.456-0.91,0.653"/>
		<path id="_x32_14" class="st8" d="M469.065,342.561c1.283,1.003,1.819,1.976,1.819,3.522c0,1.773-0.863,2.869-1.866,3.499"/>
		<path id="_x32_13" class="st7" d="M467.898,348.322c1.913,2.379,2.927,3.791,2.985,6.624c0.055,2.659-0.793,4.478-2.379,6.391"/>
		<path id="_x32_12" class="st7" d="M478.092,308.774c-0.049-0.074-0.104-0.154-0.164-0.243c-0.793-1.166-2.194-1.474-3.219-0.7
			c-1.236,0.933-1.548,2.521-1.213,4.198c0.21,1.05,0.922,1.924,1.897,2.556"/>
		<path id="_x32_11" class="st8" d="M521.913,312.31c-1.889,2.053-3.779,2.708-6.601,2.799c-0.881,0.028-2.565-0.28-3.545-0.978
			c-0.629-0.448-1.329-1.215-0.886-2.544c0.296-0.889,1.724-3.382,1.794-5.108c0.107-2.637-0.908-4.082-2.494-4.642
			c-2.932-1.035-6.08,1.863-7.977,2.495c-0.992,0.331-1.497,0.37-2.403,0.373c-0.905-0.003-1.429-0.042-2.42-0.373
			c-1.897-0.632-5.045-3.531-7.977-2.495c-1.586,0.56-2.6,2.005-2.493,4.642c0.07,1.726,1.497,4.219,1.794,5.108
			c0.443,1.33-0.257,2.096-0.886,2.544c-0.98,0.698-2.664,1.006-3.545,0.978c-2.822-0.091-4.712-0.746-6.601-2.799"/>
		<path id="_x32_10" class="st13" d="M504.91,313.733c0.386,0.697,0.598,1.121,0.373,1.843c-0.254,0.817-0.834,1.306-1.656,1.306
			c-1.866,0-2.963-2.209-2.123-3.615c1.493-2.496,4.362-1.094,7.021,0.142c-0.128-0.64-0.352-0.848-0.329-1.641
			c0.058-1.969,1.518-2.863,2.101-4.682c0.347-1.084,0.485-2.025-0.308-2.795c-0.692-0.672-1.495-0.662-2.398-0.308
			c-1.805,0.708-3.974,2.741-7.791,2.798c-3.817-0.057-6.004-2.09-7.809-2.798c-0.903-0.354-1.706-0.364-2.398,0.308
			c-0.793,0.77-0.655,1.711-0.308,2.795c0.583,1.819,2.043,2.712,2.101,4.682c0.023,0.793-0.201,1.001-0.329,1.641
			c2.659-1.236,5.639-2.764,7.021-0.142c0.77,1.461-0.257,3.615-2.123,3.615c-0.823,0-1.4-0.524-1.656-1.306
			c-0.228-0.697,0-1.306,0.373-1.843"/>
		<path id="_x32_09" class="st8" d="M491.44,313.236c0.114-0.354,0.23-0.621,0.213-1.204c-0.058-1.969-1.518-2.862-2.101-4.682
			c-0.347-1.083-0.485-2.025,0.308-2.794c0.692-0.672,1.494-0.662,2.398-0.308c1.805,0.708,3.993,2.741,7.81,2.798
			c-3.817-0.057-6.004-2.09-7.81-2.798c-0.904-0.354-1.78-0.458-2.473,0.214c-0.793,0.77-0.58,1.804-0.233,2.888
			c0.583,1.819,1.969,2.713,2.027,4.682c0.017,0.583-0.137,0.85-0.25,1.204"/>
		<path id="_x32_08" class="st8" d="M500.054,306.912c3.755-0.198,6.974-2.721,8.012-2.927c0.926-0.183,1.443-0.1,2.122,0.517
			c-0.679-0.617-1.453-0.598-2.331-0.253c-1.805,0.708-3.974,2.741-7.791,2.798"/>
		<path id="_x32_07" class="st8" d="M504.568,316.871c0.348-0.229,0.603-0.594,0.749-1.046c0.226-0.698,0.231-1.292-0.142-1.829
			c0.46,0.602,0.503,1.111,0.373,1.842c-0.082,0.466-0.379,0.711-0.749,1.046"/>
		<path id="_x32_06" class="st8" d="M528.919,357.271v7.572h0.02c0,0.005-0.003,0.717-0.064,1.166
			c-0.04,0.295-0.081,0.561-0.128,0.811"/>
		<path id="_x32_05" class="st8" d="M528.787,356.544v8.167h0.02c0,0.006-0.003,0.717-0.064,1.166
			c-0.064,0.469-0.131,0.866-0.219,1.237"/>
		<path id="_x32_04" class="st8" d="M528.787,346.983v6.811"/>
		<path id="_x32_03" class="st8" d="M528.919,347.52v5.539"/>
		<path id="_x32_02" class="st8" d="M528.919,340.475v4.153"/>
		<path id="_x32_01" class="st8" d="M528.787,339.985v5.119"/>
		<path id="_x32_00" class="st8" d="M528.919,336.23v1.611"/>
		<path id="_x31_99" class="st8" d="M528.787,335.904v2.333"/>
		<path id="_x31_98" class="st8" d="M528.919,332.79v1.656"/>
		<path id="_x31_97" class="st8" d="M528.787,332.382v2.332"/>
		<path id="_x31_96" class="st8" d="M528.919,327.332v3.056"/>
		<path id="_x31_95" class="st8" d="M528.787,326.656v4.175"/>
		<path id="_x31_94" class="st8" d="M527.896,369.252c-0.579,1.151-1.042,1.755-1.959,2.659c-0.925,0.912-1.567,1.33-2.729,1.913
			c-1.132,0.567-1.845,0.747-3.079,1.026c-1.234,0.279-1.955,0.339-3.219,0.396c-1.159,0.052-1.816,0.004-2.973-0.076
			c-1.238-0.086-1.925-0.258-3.161-0.367c-1.021-0.09-1.598-0.172-2.623-0.17c-1.054,0.003-1.657,0.009-2.695,0.193
			c-0.967,0.171-1.516,0.308-2.426,0.676c-1.259,0.51-2.682,1.4-2.986,1.796c-0.303-0.396-1.726-1.286-2.986-1.796
			c-0.91-0.369-1.459-0.505-2.425-0.676c-1.038-0.184-1.641-0.19-2.695-0.193c-1.025-0.003-1.602,0.08-2.623,0.17
			c-1.236,0.109-1.923,0.281-3.161,0.367c-1.157,0.08-1.814,0.129-2.973,0.076c-1.264-0.057-1.985-0.117-3.219-0.396
			c-1.235-0.279-1.947-0.461-3.079-1.026c-1.163-0.581-1.803-1.001-2.729-1.913c-0.1-0.099-0.195-0.194-0.284-0.286"/>
		<path id="_x31_93" class="st8" d="M527.923,368.794c-0.05,0.105-0.103,0.213-0.159,0.325c-0.579,1.151-1.042,1.755-1.959,2.659
			c-0.925,0.912-1.567,1.33-2.729,1.913c-1.131,0.567-1.844,0.748-3.079,1.027c-1.234,0.278-1.955,0.339-3.219,0.396
			c-1.158,0.052-1.816,0.003-2.973-0.076c-1.238-0.086-1.925-0.258-3.161-0.367c-1.021-0.09-1.598-0.172-2.623-0.17
			c-1.054,0.003-1.657,0.009-2.695,0.193c-0.967,0.171-1.516,0.308-2.426,0.676c-1.259,0.51-2.682,1.4-2.985,1.796
			c-0.303-0.397-1.726-1.286-2.986-1.796c-0.91-0.369-1.459-0.505-2.426-0.676c-1.037-0.184-1.641-0.19-2.695-0.193
			c-1.025-0.003-1.602,0.08-2.623,0.17c-1.236,0.109-1.923,0.281-3.161,0.367c-1.157,0.08-1.814,0.129-2.973,0.076
			c-1.264-0.057-1.985-0.117-3.219-0.396c-1.234-0.28-1.946-0.46-3.079-1.027c-1.162-0.581-1.803-1-2.729-1.913
			c-0.485-0.478-0.843-0.872-1.158-1.307"/>
		<path id="_x31_92" class="st6" d="M525.643,365.717c-0.07,0.443-0.228,1.203-0.649,1.983c-0.443,0.7-0.28,0.681-1.283,1.8
			c-0.494,0.551-1.264,1.023-1.868,1.349c-0.606,0.326-1.055,0.487-2.053,0.749c-1.955,0.513-3.327,0.545-4.972,0.479
			c-1.284-0.051-2.263-0.209-3.075-0.318c-1.157-0.156-2.019-0.248-3.335-0.303c-0.64-0.027-1.245-0.033-1.842,0
			c-0.722,0.04-1.435,0.151-2.193,0.303c-1.633,0.326-3.31,0.956-3.31,0.956l0.017-25.697l24.658-0.007v17.563
			C525.738,364.574,525.688,365.432,525.643,365.717L525.643,365.717z"/>
		<path id="_x31_91" class="st15" d="M507.388,360.05c0,0-0.11,0.053-0.178,0.084c-0.09,0.098-0.134,0.156-0.234,0.244
			c-0.133,0.117-0.231,0.151-0.375,0.253c-0.069,0.049-0.126,0.065-0.178,0.131c-0.076,0.096-0.024,0.189-0.075,0.3
			c-0.056,0.122-0.111,0.179-0.197,0.281c-0.11,0.131-0.195,0.183-0.319,0.3c-0.126,0.119-0.176,0.218-0.328,0.3
			c-0.04,0.022-0.06,0.043-0.103,0.056c-0.065,0.02-0.105-0.003-0.169,0.019c-0.117,0.04-0.153,0.169-0.234,0.216
			c0.033,0.065,0.032,0.112,0.066,0.178c0.047,0.097,0.212,0.364,0.244,0.431c0.063,0.091,0.081,0.21,0.159,0.234
			c0.161,0.05,0.257,0.046,0.394,0.038c0.238,0.055,0.384,0.047,0.609,0.141c0.184,0.076,0.259,0.173,0.441,0.253
			c0.142,0.063,0.231,0.102,0.384,0.131c0.116,0.022,0.182,0.04,0.3,0.028c0.075-0.007,0.113-0.036,0.188-0.047
			c0.015-0.003,0.024,0,0.038,0l-0.009,0.112c-0.002,0,0.001,0.009,0,0.009v0.019h0.019l0.619,0.272
			c-0.022,0.035-0.046,0.077-0.056,0.112c-0.03,0.096-0.034,0.207-0.019,0.253c0.189,0.566,0.348,0.921,0.441,0.956
			c0.185,0.071,0.242,0.259,0.347,0.45c-0.037,0.04-0.068,0.06-0.103,0.094c-0.185,0.177-0.346,0.303-0.497,0.544
			c-0.224,0.356-0.375,0.361-0.094,0.834c0.165,0.277,0.244,0.33,0.459,0.722c0.108,0.197,0.168,0.352,0.234,0.591
			c0.062,0.226,0.083,0.357,0.094,0.591l0.291,0.113l0.197-0.197l0.188-0.356l0.009-0.272c-0.072-0.061-0.093-0.142-0.075-0.234
			c0.021-0.111,0.154-0.088,0.216-0.188c0.085-0.139-0.1-0.22-0.197-0.328c-0.182-0.201-0.429-0.25-0.488-0.553
			c-0.016-0.082,0.023-0.128,0.113-0.216c0.256-0.252,0.339-0.292,0.591-0.544c0.072,0.042,0.183,0.058,0.291,0.038
			c0.083-0.016,0.158,0.038,0.422,0.112c0.183,0.052,0.262,0.026,0.366,0.009l0.113-0.028c0.015,0.063,0.033,0.125,0.038,0.206
			c0.016,0.318-0.047,0.899,0.047,1.05c0.039,0.064,0.056,0.099,0.084,0.169c0.029,0.072,0.064,0.119,0.066,0.197
			c0.003,0.209,0.014,0.342,0,0.563c-0.013,0.207-0.031,0.313-0.066,0.525c-0.022,0.135-0.05,0.214-0.131,0.319
			c-0.085,0.109-0.179,0.125-0.291,0.206l-0.028,0.3l0.337,0.141l0.384,0.094l0.206-0.084c0-0.076,0.012-0.12,0.047-0.188
			c0.038-0.074,0.069-0.132,0.141-0.159c0.109-0.043,0.228,0.039,0.272-0.028c0.048-0.073,0.018-0.101,0.009-0.225
			c-0.014-0.199-0.055-0.297-0.084-0.497c-0.049-0.333-0.063-0.506-0.047-0.825c0.009-0.185,0.011-0.287,0.047-0.469
			c0.052-0.265,0.146-0.393,0.206-0.656c0.067-0.293,0.079-0.482,0.112-0.741c0.951,0.136,1.742,0.119,2.803-0.112
			c0.051-0.011,0.225-0.075,0.225-0.075c0.24,0.207,0.511,0.379,0.816,0.488c-0.002,0.03-0.005,0.254,0,0.291
			c0.011,0.086-0.013,0.144,0.037,0.216c0.032,0.045,0.059,0.072,0.112,0.084c0.079,0.018,0.136,0.007,0.197-0.047
			c0.068-0.061,0.055-0.137,0.075-0.225c0.009-0.042,0.002-0.169,0-0.206c0.11,0.016,0.147,0.018,0.263,0.018
			c0.107,0,0.159,0.004,0.263-0.009c0.001,0.024,0.006,0.11,0.009,0.141c0.008,0.073-0.023,0.13,0.009,0.197
			c0.033,0.069,0.075,0.108,0.15,0.122c0.062,0.012,0.106,0.005,0.159-0.028c0.089-0.055,0.079-0.149,0.094-0.253
			c0.004-0.033,0.004-0.207,0-0.234c0.064-0.02,0.248-0.087,0.309-0.113c-0.001,0.073-0.011,0.155-0.028,0.244
			c-0.021,0.113-0.036,0.174-0.075,0.281c-0.062,0.171-0.132,0.257-0.225,0.412c-0.113,0.19-0.172,0.296-0.309,0.469
			c-0.063,0.08-0.107,0.116-0.169,0.197c-0.076,0.101-0.103,0.17-0.178,0.272c-0.097,0.132-0.153,0.217-0.281,0.319
			c-0.208,0.165-0.345,0.033-0.628,0.253l-0.066,0.309l0.431,0.159l0.384,0.075l0.131-0.075c-0.004-0.09,0.01-0.154,0.066-0.225
			c0.064-0.081,0.133-0.105,0.234-0.122c0.108-0.018,0.224,0.01,0.309-0.066c0.105-0.093,0.105-0.274,0.188-0.441
			c0.258-0.517,0.486-0.769,0.9-1.172c0.184-0.179,0.341-0.227,0.497-0.431c0.074-0.097,0.156-0.141,0.159-0.263
			c0.003-0.085-0.043-0.125-0.066-0.206c-0.031-0.113-0.056-0.3-0.056-0.3c0.457,0.224,0.292,0.194,0.375,0.422
			c0.068,0.185-0.01,0.312,0.019,0.506c0.033,0.227,0.14,0.334,0.159,0.563c0.023,0.272-0.043,0.426-0.094,0.694
			c-0.045,0.236-0.039,0.383-0.141,0.6c-0.097,0.207-0.171,0.323-0.347,0.469c-0.063,0.053-0.11,0.075-0.178,0.122l-0.037,0.309
			l0.337,0.113l0.488,0.131l0.112-0.103c0.049-0.196-0.016-0.485,0.122-0.506c0.122-0.018,0.208,0,0.234-0.094
			c0.011-0.039,0.018-0.098,0.028-0.188c0.067-0.566,0.127-1.093,0.188-1.35c0.069-0.29,0.065-0.353,0.122-0.572
			c0.053-0.199-0.026-0.085,0.122-0.506c0.22-0.629-0.062-0.712-0.319-1.097c-0.139-0.208-0.186-0.283-0.206-0.45
			c-0.029-0.245,0.05-0.448,0.038-0.825c-0.012-0.396-0.007-0.648,0-0.863c0.035-0.016,0.066-0.036,0.103-0.056
			c0.351-0.193,0.491-0.251,0.713-0.741c0.067-0.149,0.096-0.298,0.094-0.441c-0.001-0.1-0.019-0.195-0.028-0.309
			c-0.009-0.12-0.057-0.191-0.094-0.281c-0.039-0.095-0.097-0.168-0.169-0.253c-0.232-0.277-0.533-0.34-0.816-0.441
			c-0.445-0.159-0.751-0.13-1.237-0.169c-0.502-0.04-0.782-0.047-1.284-0.018c-0.602,0.034-0.938,0.156-1.538,0.225
			c-0.574,0.067-0.893,0.111-1.472,0.122c-0.678,0.013-1.326-0.138-1.734-0.103c-0.735,0.063-0.748,0.228-1.856,0.319
			c-0.578,0.047-1.153,0.056-1.153,0.056l-0.647-0.206c0.257-0.092,0.32-0.146,0.441-0.309c0.082-0.11,0.07-0.204,0.169-0.319
			c0.08-0.093,0.133-0.187,0.234-0.291c-0.093-0.075-0.193-0.113-0.281-0.131c-0.109-0.023-0.172-0.013-0.281,0
			c-0.148,0.017-0.232,0.037-0.366,0.103c-0.108,0.053-0.187,0.107-0.253,0.178c0,0-0.386-0.249-0.656-0.366
			C507.952,360.176,507.807,360.108,507.388,360.05L507.388,360.05z M507.978,363.622c0.006,0,0.012,0,0.019,0
			c-0.004,0.003-0.006,0.007-0.009,0.009L507.978,363.622L507.978,363.622z"/>
		<path id="_x31_90" class="st16" d="M466.222,371.397c0-0.647,0.525-1.172,1.172-1.172c0.647,0,1.172,0.525,1.172,1.172
			c0,0.647-0.525,1.172-1.172,1.172C466.747,372.569,466.222,372.044,466.222,371.397z"/>
		<path id="_x31_89" class="st17" d="M466.281,369.304l-0.956,0.35l-0.98,0.746l-0.42,0.583l-0.537,0.933l-0.233,0.7l-0.187,0.863
			l-0.093,0.653"/>
		<path id="_x31_88" class="st8" d="M471.925,368.977c0.2,1.483-0.424,2.94-1.057,3.61c-0.397,0.42-1.26,1.222-2.333,1.236
			c-1.772,0.023-2.302-1.196-2.409-1.493"/>
		<path id="_x31_87" class="st17" d="M471.785,369.397l-0.07,0.84l-0.14,0.583l-0.42,1.003l-0.653,0.863l-0.7,0.56l-0.513,0.256
			l-0.723,0.163"/>
		<path id="_x31_86" class="st8" d="M469.822,368.21c0.329,0.325,0.621,0.722,0.868,1.189c0.443,0.84,0.307,2.244-0.045,2.892
			c-0.039,0.071-0.086,0.147-0.142,0.224"/>
		<path id="_x31_85" class="st8" d="M461.013,380.961c1.054,1.106,2.648,2.308,5.097,3.316c3.348,1.378,8.49,1.696,12.035,1.836
			c4.714,0.186,9.058,0.38,11.703,3.299"/>
		<path id="_x31_84" class="st8" d="M497.986,387.503c0.779,0.767,1.574,1.589,1.91,2.639"/>
		<path id="_x31_83" class="st18" d="M499.88,391.77c-0.174,0.776-0.901,1.665-2.484,1.985c0,0-0.188,0.039-0.308,0.064"/>
		<path id="_x31_82" class="st7" d="M497.384,393.417c-0.19,0.705-0.536,1.388-1.04,1.935"/>
		<path id="_x31_81" class="st7" d="M489.374,384.882c0.374,0.146,0.091-0.088,2.458,0.961c2.273,1.008,3.886,1.89,5.299,4.121
			c0.443,0.7,0.56,1.702,0.56,2.286c0,0.376-0.046,0.766-0.138,1.153"/>
		<path id="_x31_80" class="st8" d="M496.454,395.509c-0.102,0.109-0.21,0.212-0.325,0.309c-0.974,0.822-1.936,1.073-3.125,0.956
			c-0.902-0.088-1.772-0.764-2.006-1.208"/>
		<path id="_x31_79" class="st8" d="M497.535,392.441l-0.21,1.026"/>
		<path id="_x31_78" class="st8" d="M496.229,395.427l-0.443,0.443l-0.793,0.443l-0.91,0.28"/>
		<path id="_x31_77" class="st8" d="M503.484,395.359c-0.606,0.933-2.053,2.332-3.569,2.892c-1.516-0.56-2.962-1.959-3.569-2.892"/>
		<path id="_x31_67" class="st19" d="M503.616,395.491c-0.606,0.933-2.053,2.332-3.569,2.892c-1.516-0.56-2.962-1.959-3.569-2.892
			c-0.049-0.076-0.096-0.148-0.141-0.218"/>
		<path id="_x31_66" class="st8" d="M493.64,396.639l0.84-0.105"/>
		<path id="_x31_65" class="st8" d="M488.49,394.205c0.044,0.059,0.089,0.117,0.137,0.173c0.566,0.659,1.46,1.073,2.394,1.15"/>
		<path id="_x31_64" class="st8" d="M489.527,395.019c0.461,0.23,0.983,0.365,1.524,0.387c1.98,0.079,3.522-1.773,3.522-3.662
			c0-1.31-0.713-2.414-1.712-3.3"/>
		<path id="_x31_63" class="st7" d="M489.955,391.445c-0.478,1.066,0.203,1.642,0.882,1.721c1.003,0.117,1.567-0.676,1.637-1.399
			c0.076-0.786-0.343-1.551-0.983-1.946"/>
		<path id="_x31_62" class="st8" d="M503.616,395.491c-0.606,0.933-2.053,2.332-3.569,2.892c-1.516-0.56-2.962-1.959-3.569-2.892
			c-0.049-0.076-0.096-0.148-0.141-0.218"/>
		<path id="_x31_61" class="st8" d="M503.638,395.485c0.108,0.117,0.224,0.229,0.347,0.333c0.974,0.822,1.936,1.073,3.126,0.956
			c0.902-0.088,1.618-0.691,1.908-1.213c0,0,0.162-0.175,0.208-0.341"/>
		<path id="_x31_60" class="st8" d="M508.926,395.296l-0.348,0.56l-0.53,0.439l-0.802,0.333l-0.726,0.03"/>
		<path id="_x31_59" class="st8" d="M510.809,389.966c0.429,0.329,0.85,0.828,1.08,1.36c0.147,0.342,0.215,0.719,0.236,1.109
			c0.04,0.74-0.22,1.422-0.667,1.942c-0.599,0.698-1.534,1.12-2.529,1.16c-0.074,0.003-0.148,0.003-0.22,0"/>
		<path id="_x31_58" class="st8" d="M508.798,395.406L508.798,395.406c-0.951,0.038-1.801-0.369-2.428-1.013"/>
		<path id="_x31_57" class="st8" d="M508.67,395.432l0.848-0.081l0.807-0.323l0.565-0.343l0.767-0.908l0.161-0.343l0.121-0.787
			l0.04-0.363"/>
		<path id="_x31_56" class="st20" d="M539.477,366.97c1.002,0.934,1.706,2.071,2.247,3.633c0.228,0.658,0.417,1.652,0.391,2.706
			c-0.042,1.681-0.469,3.519-0.928,4.408c-0.4,0.775-1.446,4.198-7.184,6.56c-3.348,1.378-8.49,1.696-12.035,1.836
			c-4.806,0.19-9.247,0.368-11.875,3.455"/>
		<path id="_x31_55" class="st8" d="M509.921,389.432l0.84-0.77l0.583-0.443l1.096-0.676l1.026-0.49l0.723-0.187l1.446-0.326
			l1.679-0.257"/>
		<path id="_x31_54" class="st21" d="M531.636,370.083c0.356-0.486,1.655-1.102,2.705-0.519c0.345,0.192,0.755,0.435,1.114,0.973"/>
		<path id="_x31_53" class="st22" d="M473.936,375.326c0.243-0.262,0.427-0.163,0.472-0.284c0.033-0.089-0.039-0.098-0.138-0.135
			c-0.132-0.049-0.272-0.078-0.404-0.127c-0.137-0.051-0.261-0.121-0.398-0.173c-0.057-0.021-0.188-0.088-0.225,0.012
			c-0.069,0.183,0.48,0.168,0.296,0.66c-0.031,0.084-0.109,0.264-0.382,0.562l-1.242,1.352c-0.028,0.031-0.074,0.098-0.103,0.087
			c-0.028-0.011-0.025-0.093-0.025-0.135l0.018-1.917c0.001-0.364,0.032-0.633,0.091-0.791c0.082-0.22,0.336-0.036,0.389-0.177
			c0.033-0.089,0.008-0.093-0.143-0.149c-0.076-0.028-0.22-0.058-0.522-0.171c-0.161-0.06-0.313-0.141-0.469-0.199
			c-0.071-0.026-0.202-0.123-0.248,0.003c-0.014,0.037,0.036,0.091,0.048,0.102c0.174,0.125,0.218,0.207,0.222,0.442l0.034,3.491
			c0.003,0.252,0.03,0.322,0.077,0.34c0.052,0.019,0.087-0.003,0.19-0.12L473.936,375.326L473.936,375.326z"/>
		<path id="_x31_52" class="st22" d="M475.384,375.867c0.16-0.507,0.46-0.202,0.517-0.383c0.02-0.064,0-0.082-0.145-0.128
			c-0.274-0.086-0.454-0.12-0.626-0.174c-0.168-0.053-0.349-0.134-0.536-0.192c-0.043-0.014-0.158-0.068-0.187,0.023
			c-0.059,0.187,0.531,0.209,0.378,0.694l-0.808,2.562c-0.16,0.507-0.462,0.259-0.521,0.446c-0.009,0.027-0.011,0.067,0.033,0.081
			c0.125,0.039,0.338,0.083,0.545,0.148c0.375,0.118,0.546,0.195,0.724,0.252c0.11,0.035,0.161,0.027,0.179-0.032
			c0.054-0.171-0.562-0.095-0.355-0.752L475.384,375.867L475.384,375.867z"/>
		<path id="_x31_51" class="st22" d="M477.121,376.378c0.095-0.322,0.245-0.278,0.424-0.225c0.488,0.144,0.641,0.622,0.485,1.148
			c-0.094,0.316-0.212,0.608-0.946,0.391c-0.145-0.043-0.323-0.096-0.284-0.23L477.121,376.378L477.121,376.378z M475.79,378.687
			c-0.2,0.676-0.539,0.383-0.59,0.555c-0.032,0.108,0.074,0.121,0.127,0.137c0.241,0.071,0.489,0.122,0.75,0.199
			c0.203,0.06,0.327,0.12,0.409,0.144c0.111,0.033,0.159,0.012,0.173-0.036c0.057-0.193-0.486-0.115-0.316-0.689l0.275-0.928
			c0.056-0.188,0.038-0.234,0.294-0.158c0.241,0.072,0.314,0.146,0.355,0.415l0.154,0.968c0.057,0.356,0.112,0.74,0.494,0.853
			c0.193,0.057,0.547,0.033,0.596-0.133c0.013-0.043-0.007-0.083-0.05-0.096c-0.048-0.015-0.106,0.003-0.154-0.011
			c-0.039-0.011-0.13-0.039-0.148-0.137c-0.148-0.779-0.328-1.679-0.318-1.711c0.016-0.054,0.17-0.06,0.347-0.142
			c0.178-0.087,0.377-0.244,0.479-0.588c0.073-0.247,0.201-1.032-0.857-1.345c-0.323-0.096-0.658-0.172-0.982-0.268
			c-0.304-0.09-0.336-0.123-0.559-0.189c-0.058-0.017-0.114-0.005-0.13,0.049c-0.057,0.193,0.528,0.151,0.35,0.751L475.79,378.687
			L475.79,378.687z"/>
		<path id="_x31_50" class="st22" d="M479.74,379.844c-0.156,0.648-0.646,0.254-0.697,0.466c-0.029,0.12,0.056,0.134,0.144,0.156
			c0.196,0.047,0.363,0.064,0.691,0.143c0.328,0.079,0.485,0.139,0.681,0.186c0.142,0.034,0.236,0.074,0.267-0.057
			c0.037-0.153-0.628-0.145-0.468-0.815l0.591-2.46c0.063-0.261,0.118-0.277,0.319-0.229l0.416,0.1
			c0.568,0.113,0.267,0.68,0.463,0.727c0.127,0.031,0.125-0.195,0.13-0.262l0.066-0.514c0.008-0.055,0.026-0.132-0.047-0.149
			c-0.456-0.11-0.789-0.167-1.504-0.338c-0.715-0.172-1.038-0.272-1.494-0.381c-0.074-0.018-0.092,0.058-0.11,0.112l-0.251,0.7
			c-0.027,0.069-0.085,0.181,0.018,0.206c0.221,0.053,0.245-0.696,0.798-0.563l0.411,0.099c0.201,0.048,0.243,0.087,0.18,0.348
			L479.74,379.844L479.74,379.844z"/>
		<path id="_x31_49" class="st22" d="M485.689,378.325c0.194-0.3,0.392-0.235,0.415-0.361c0.017-0.093-0.055-0.09-0.159-0.109
			c-0.139-0.026-0.282-0.029-0.42-0.055c-0.144-0.027-0.278-0.074-0.422-0.101c-0.059-0.011-0.2-0.054-0.219,0.05
			c-0.036,0.193,0.502,0.082,0.406,0.599c-0.016,0.088-0.062,0.279-0.279,0.62l-0.989,1.547c-0.022,0.036-0.056,0.109-0.086,0.104
			c-0.03-0.006-0.04-0.087-0.048-0.129l-0.315-1.891c-0.062-0.359-0.078-0.629-0.047-0.794c0.043-0.231,0.325-0.093,0.352-0.242
			c0.017-0.093-0.009-0.093-0.167-0.122c-0.079-0.015-0.227-0.019-0.544-0.078c-0.168-0.031-0.333-0.084-0.496-0.115
			c-0.074-0.014-0.22-0.086-0.244,0.046c-0.007,0.039,0.051,0.083,0.065,0.092c0.193,0.093,0.251,0.166,0.295,0.396l0.64,3.432
			c0.046,0.248,0.086,0.312,0.135,0.321c0.054,0.01,0.085-0.018,0.166-0.151L485.689,378.325L485.689,378.325z"/>
		<path id="_x31_48" class="st22" d="M485.968,381.479c0.003,0.137-0.01,0.18,0.109,0.234c0.276,0.12,0.507,0.295,0.81,0.346
			c0.651,0.109,1.19-0.306,1.311-1.029c0.117-0.701-0.171-0.993-0.659-1.342c-0.611-0.437-0.872-0.555-0.811-0.924
			c0.062-0.37,0.321-0.542,0.649-0.487c0.855,0.143,0.757,1.182,0.871,1.201c0.109,0.018,0.135-0.045,0.146-0.168l0.069-0.749
			c0.011-0.128,0.04-0.209-0.035-0.221c-0.064-0.011-0.204,0.057-0.268,0.046c-0.149-0.025-0.322-0.275-0.729-0.343
			c-0.581-0.097-1.056,0.3-1.163,0.935c-0.097,0.58,0.16,0.844,0.552,1.125c0.734,0.526,1.035,0.65,0.957,1.119
			c-0.074,0.442-0.416,0.657-0.804,0.592c-0.552-0.092-0.776-0.646-0.846-1.203c-0.008-0.075-0.009-0.126-0.089-0.14
			c-0.124-0.021-0.101,0.148-0.099,0.228L485.968,381.479L485.968,381.479z"/>
		<path id="_x31_47" class="st22" d="M493.386,379.387c0.162-0.319,0.365-0.275,0.375-0.403c0.008-0.095-0.064-0.084-0.17-0.092
			c-0.141-0.011-0.283,0-0.424-0.011c-0.146-0.011-0.284-0.045-0.43-0.057c-0.06-0.005-0.204-0.033-0.213,0.073
			c-0.015,0.195,0.508,0.029,0.467,0.553c-0.007,0.089-0.033,0.284-0.213,0.646l-0.821,1.642c-0.018,0.038-0.044,0.115-0.074,0.112
			c-0.03-0.003-0.049-0.082-0.061-0.122l-0.512-1.848c-0.099-0.35-0.144-0.618-0.13-0.785c0.018-0.234,0.313-0.127,0.325-0.278
			c0.007-0.095-0.018-0.091-0.179-0.104c-0.08-0.006-0.228,0.005-0.549-0.021c-0.171-0.013-0.34-0.049-0.505-0.062
			c-0.075-0.006-0.228-0.063-0.238,0.071c-0.003,0.039,0.06,0.078,0.074,0.084c0.202,0.072,0.267,0.139,0.335,0.363l0.995,3.346
			c0.072,0.242,0.118,0.301,0.168,0.305c0.055,0.004,0.083-0.027,0.15-0.168L493.386,379.387L493.386,379.387z"/>
		<path id="_x31_46" class="st22" d="M494.18,382.1c-0.005,0.571-0.487,0.466-0.49,0.69c-0.001,0.095,0.1,0.068,0.156,0.069
			c0.136,0,0.272-0.02,0.433-0.018c0.176,0.003,0.347,0.025,0.594,0.028c0.066,0,0.192,0.007,0.192-0.071
			c0.002-0.263-0.646,0.112-0.636-0.963l0.016-1.903c0-0.05,0.011-0.09,0.041-0.089c0.026,0,0.055,0.028,0.09,0.074l2.398,2.932
			c0.035,0.045,0.06,0.079,0.13,0.079c0.061,0,0.061-0.044,0.062-0.167l0.027-3.14c0.005-0.588,0.432-0.449,0.434-0.618
			c0-0.017,0.001-0.073-0.095-0.074c-0.045,0-0.222,0.021-0.539,0.018c-0.347-0.003-0.493-0.027-0.574-0.027
			c-0.065,0-0.081,0.055-0.081,0.095c-0.001,0.185,0.614,0.089,0.609,0.599l-0.016,1.864c-0.001,0.14-0.012,0.207-0.042,0.207
			c-0.03,0-0.09-0.068-0.155-0.147l-2.004-2.486c-0.09-0.107-0.029-0.146-0.19-0.147c-0.267-0.003-0.398,0.019-0.529,0.018
			c-0.096,0-0.186-0.024-0.282-0.025c-0.06,0-0.086,0.044-0.086,0.094c-0.003,0.269,0.565-0.09,0.555,0.984L494.18,382.1
			L494.18,382.1z"/>
		<path id="_x31_45" class="st22" d="M499.058,379.58c0.005-0.532,0.381-0.327,0.382-0.517c0.001-0.067-0.024-0.079-0.176-0.08
			c-0.287-0.003-0.469,0.018-0.65,0.017c-0.176,0-0.373-0.026-0.569-0.027c-0.045-0.001-0.171-0.018-0.172,0.077
			c-0.001,0.196,0.541,0.044,0.536,0.553l0.005,2.687c-0.005,0.532-0.366,0.383-0.368,0.579c0,0.028,0.009,0.067,0.055,0.068
			c0.131,0.003,0.348-0.019,0.564-0.017c0.393,0.003,0.579,0.027,0.766,0.029c0.116,0,0.161-0.021,0.162-0.083
			c0.001-0.179-0.565,0.074-0.559-0.615L499.058,379.58L499.058,379.58z"/>
		<path id="_x31_44" class="st22" d="M501.169,382.181c0.006,0.666-0.566,0.402-0.564,0.621c0.001,0.123,0.086,0.117,0.177,0.116
			c0.202-0.003,0.367-0.025,0.705-0.028c0.337-0.003,0.504,0.018,0.705,0.016c0.146,0,0.247,0.015,0.246-0.12
			c-0.001-0.157-0.645,0.011-0.651-0.677l-0.022-2.53c-0.002-0.269,0.048-0.297,0.254-0.299l0.428-0.003
			c0.579-0.028,0.423,0.595,0.625,0.593c0.131,0,0.074-0.219,0.063-0.286l-0.06-0.514c-0.006-0.056-0.006-0.134-0.082-0.134
			c-0.469,0.004-0.806,0.029-1.541,0.036c-0.736,0.006-1.073-0.013-1.542-0.009c-0.076,0-0.075,0.079-0.08,0.135l-0.074,0.739
			c-0.009,0.073-0.038,0.196,0.067,0.195c0.227-0.003,0.069-0.734,0.638-0.739l0.423-0.004c0.207-0.003,0.257,0.026,0.26,0.294
			L501.169,382.181L501.169,382.181z"/>
		<path id="_x31_43" class="st22" d="M504.104,381.122c-0.091,0.007-0.161,0.018-0.165-0.038c-0.006-0.078,0.019-0.142,0.039-0.211
			l0.309-1.018c0.02-0.063,0.04-0.071,0.05-0.071c0.025-0.003,0.01,0,0.044,0.041l0.491,0.978c0.03,0.065,0.065,0.124,0.071,0.202
			c0.004,0.056-0.066,0.056-0.157,0.063L504.104,381.122L504.104,381.122z M504.966,381.357c0.131-0.01,0.16,0.044,0.36,0.466
			c0.067,0.146,0.11,0.244,0.12,0.367c0.027,0.34-0.335,0.307-0.322,0.469c0.006,0.078,0.07,0.062,0.161,0.055
			c0.146-0.011,0.33-0.048,0.551-0.066c0.332-0.026,0.469-0.014,0.65-0.029c0.135-0.011,0.182-0.003,0.174-0.098
			c-0.014-0.184-0.268,0.055-0.46-0.329l-1.625-3.308c-0.079-0.162-0.089-0.173-0.134-0.169c-0.065,0.006-0.082,0.113-0.11,0.205
			l-1.095,3.483c-0.101,0.322-0.359,0.309-0.35,0.437c0.006,0.073,0.085,0.055,0.156,0.049c0.146-0.011,0.289-0.045,0.44-0.057
			c0.161-0.013,0.313-0.003,0.474-0.015c0.105-0.008,0.264,0.019,0.255-0.099c-0.012-0.151-0.547-0.018-0.579-0.42
			c-0.011-0.134,0.044-0.335,0.071-0.449c0.087-0.377,0.19-0.408,0.276-0.415L504.966,381.357L504.966,381.357z"/>
		<path id="_x31_42" class="st22" d="M508.86,379.038c-0.05-0.383-0.031-0.391,0.573-0.471c0.964-0.127,0.66,0.574,0.895,0.543
			c0.115-0.015,0.066-0.195,0.051-0.266l-0.092-0.547c-0.007-0.05-0.049-0.101-0.114-0.092c-0.439,0.058-0.781,0.125-1.136,0.172
			c-0.764,0.1-1.127,0.126-1.332,0.153c-0.07,0.009-0.104,0.059-0.098,0.109c0.029,0.222,0.57-0.03,0.636,0.469l0.342,2.597
			c0.089,0.677-0.33,0.427-0.296,0.683c0.005,0.033,0.038,0.057,0.103,0.049c0.275-0.036,0.482-0.086,0.636-0.106
			c0.22-0.029,0.408-0.031,0.597-0.056c0.125-0.017,0.233-0.008,0.218-0.119c-0.02-0.15-0.566,0.063-0.647-0.553l-0.108-0.821
			c-0.042-0.322-0.071-0.386,0.158-0.416l0.37-0.049c0.519-0.069,0.457,0.538,0.617,0.517c0.12-0.016,0.064-0.212,0.049-0.283
			l-0.165-0.983c-0.025-0.149-0.078-0.131-0.113-0.126c-0.1,0.013-0.048,0.526-0.477,0.582l-0.315,0.042
			c-0.215,0.028-0.22-0.011-0.251-0.249L508.86,379.038L508.86,379.038z"/>
		<path id="_x31_41" class="st22" d="M510.7,380.309c0.207,1.117,1.014,1.736,2.009,1.552c1.58-0.293,1.632-1.697,1.489-2.468
			c-0.216-1.167-1.086-1.74-2.05-1.55C510.967,378.073,510.477,379.104,510.7,380.309L510.7,380.309z M511.251,379.882
			c-0.148-0.798-0.041-1.603,0.793-1.775c0.637-0.129,1.36,0.397,1.585,1.613c0.169,0.913,0.029,1.702-0.82,1.877
			C511.926,381.778,511.4,380.686,511.251,379.882L511.251,379.882z"/>
		<path id="_x31_40" class="st22" d="M515.158,377.933c-0.078-0.327,0.074-0.363,0.255-0.407c0.495-0.119,0.866,0.218,0.994,0.752
			c0.077,0.321,0.121,0.633-0.624,0.811c-0.147,0.035-0.328,0.079-0.361-0.057L515.158,377.933L515.158,377.933z M515.161,380.597
			c0.165,0.686-0.275,0.601-0.234,0.776c0.026,0.109,0.125,0.068,0.179,0.055c0.245-0.059,0.485-0.139,0.749-0.203
			c0.206-0.049,0.343-0.059,0.427-0.079c0.113-0.027,0.144-0.069,0.132-0.118c-0.047-0.196-0.478,0.144-0.618-0.439l-0.226-0.942
			c-0.046-0.19-0.084-0.221,0.175-0.284c0.245-0.059,0.345-0.031,0.515,0.181l0.618,0.761c0.228,0.279,0.467,0.585,0.854,0.492
			c0.196-0.047,0.49-0.244,0.45-0.413c-0.011-0.043-0.048-0.069-0.092-0.058c-0.049,0.012-0.09,0.056-0.139,0.068
			c-0.039,0.009-0.132,0.032-0.197-0.045c-0.517-0.601-1.123-1.29-1.131-1.323c-0.013-0.055,0.117-0.138,0.229-0.297
			c0.111-0.165,0.204-0.4,0.121-0.749c-0.06-0.25-0.342-0.994-1.415-0.737c-0.328,0.079-0.656,0.18-0.984,0.259
			c-0.309,0.074-0.353,0.062-0.578,0.116c-0.059,0.014-0.101,0.053-0.088,0.108c0.047,0.196,0.533-0.134,0.679,0.476
			L515.161,380.597L515.161,380.597z"/>
		<path id="_x31_39" class="st22" d="M519.202,379.694c0.167,0.645-0.451,0.527-0.397,0.739c0.031,0.119,0.112,0.093,0.2,0.07
			c0.195-0.05,0.35-0.114,0.677-0.198c0.327-0.084,0.493-0.104,0.688-0.155c0.141-0.036,0.243-0.045,0.21-0.175
			c-0.039-0.152-0.623,0.167-0.795-0.5l-0.633-2.449c-0.067-0.26-0.025-0.3,0.174-0.352l0.415-0.107
			c0.555-0.167,0.555,0.475,0.75,0.425c0.127-0.033,0.018-0.23-0.008-0.293l-0.182-0.485c-0.019-0.053-0.039-0.129-0.112-0.11
			c-0.454,0.117-0.775,0.224-1.487,0.408c-0.712,0.184-1.044,0.247-1.498,0.364c-0.073,0.019-0.054,0.095-0.045,0.15l0.107,0.735
			c0.008,0.073,0.01,0.2,0.112,0.173c0.219-0.057-0.11-0.729,0.441-0.871l0.41-0.106c0.2-0.052,0.256-0.037,0.323,0.223
			L519.202,379.694L519.202,379.694z"/>
		<path id="_x31_38" class="st22" d="M521.781,376.255c-0.142-0.512,0.276-0.419,0.225-0.603c-0.018-0.065-0.045-0.069-0.191-0.028
			c-0.277,0.077-0.446,0.147-0.62,0.195c-0.17,0.047-0.365,0.078-0.555,0.131c-0.044,0.012-0.17,0.029-0.144,0.121
			c0.052,0.189,0.559-0.115,0.695,0.376l0.718,2.589c0.142,0.512-0.246,0.469-0.194,0.658c0.007,0.027,0.028,0.062,0.071,0.05
			c0.126-0.035,0.329-0.115,0.538-0.173c0.379-0.105,0.564-0.133,0.744-0.183c0.112-0.031,0.149-0.065,0.133-0.124
			c-0.048-0.173-0.523,0.226-0.707-0.437L521.781,376.255L521.781,376.255z"/>
		<path id="_x31_37" class="st22" d="M522.855,377.508c0.36,1.078,1.245,1.578,2.205,1.257c1.524-0.51,1.38-1.908,1.131-2.651
			c-0.376-1.125-1.318-1.572-2.246-1.25C522.808,375.257,522.466,376.346,522.855,377.508z M523.341,377.009
			c-0.258-0.77-0.264-1.582,0.538-1.868c0.613-0.216,1.401,0.204,1.794,1.377c0.295,0.881,0.265,1.682-0.551,1.973
			C524.273,378.793,523.601,377.784,523.341,377.009L523.341,377.009z"/>
		<path id="_x31_36" class="st22" d="M526.915,374.468c-0.123-0.312,0.022-0.369,0.196-0.438c0.473-0.187,0.888,0.095,1.089,0.606
			c0.121,0.307,0.208,0.61-0.505,0.891c-0.141,0.055-0.314,0.124-0.365-0.007L526.915,374.468L526.915,374.468z M527.288,377.107
			c0.258,0.656-0.189,0.634-0.123,0.8c0.041,0.104,0.133,0.05,0.185,0.03c0.234-0.092,0.461-0.206,0.714-0.305
			c0.197-0.078,0.332-0.107,0.411-0.138c0.108-0.042,0.133-0.088,0.115-0.135c-0.074-0.188-0.454,0.209-0.673-0.348l-0.355-0.901
			c-0.072-0.183-0.114-0.208,0.134-0.306c0.234-0.092,0.337-0.079,0.535,0.108l0.718,0.668c0.264,0.245,0.543,0.514,0.914,0.368
			c0.188-0.074,0.452-0.31,0.388-0.472c-0.016-0.042-0.057-0.062-0.099-0.045c-0.047,0.019-0.081,0.068-0.128,0.087
			c-0.038,0.015-0.127,0.05-0.202-0.017c-0.596-0.523-1.292-1.121-1.304-1.153c-0.021-0.052,0.097-0.152,0.185-0.326
			c0.087-0.178,0.147-0.425,0.016-0.758c-0.094-0.24-0.477-0.937-1.504-0.533c-0.314,0.124-0.625,0.27-0.939,0.394
			c-0.295,0.116-0.341,0.11-0.556,0.195c-0.056,0.022-0.093,0.067-0.072,0.119c0.074,0.188,0.509-0.206,0.739,0.377L527.288,377.107
			L527.288,377.107z"/>
		<path id="_x31_35" class="st8" d="M536.216,362.58c-0.742-0.684-1.511-1.632-2.252-3.023c-0.393-0.738-0.637-1.423-0.802-2.098
			c-0.127-0.521-0.215-1.035-0.233-1.563c-0.033-0.9,0.064-1.84,0.289-2.917c0.371-1.777,1.033-3.153,1.913-4.245
			c0.3-0.373,0.646-0.838,0.975-1.046"/>
		<path id="_x31_34" class="st8" d="M537.362,359.951c-0.204-0.166-0.422-0.307-0.613-0.507c-1.148-1.201-2.011-2.977-2.023-5.003
			c-0.011-1.942,0.77-3.918,1.679-4.688"/>
		<path id="_x31_33" class="st23" d="M534.6,353.949l0.059-0.751l0.25-1.192l0.353-0.927l0.397-0.766l0.515-0.618"/>
		<path id="_x31_32" class="st20" d="M538.252,365.837c0.235,0.09,0.468,0.171,0.673,0.23c0.671,0.192,1.301,0.207,1.848,0.043
			c1.327-0.398,2.178-1.638,1.488-3.249c-0.16-0.374-0.467-0.732-0.815-1"/>
		<path id="_x31_31" class="st8" d="M541.697,362.137c0.02-0.109,0.031-0.222,0.031-0.338c0-0.543-0.227-1.04-0.603-1.375
			c-0.128-0.115-0.252-0.292-0.408-0.37"/>
		<path id="_x31_30" class="st8" d="M540.941,360.275c-0.022-0.874-0.737-1.499-1.623-1.654"/>
		<path id="_x31_29" class="st8" d="M536.463,349.813c0.472,0.616,1.361,0.777,2.065,0.593c0.531-0.139,0.92-0.473,1.169-0.909
			c0.28-0.492,0.365-1.134,0.183-1.747c-0.083-0.278-0.199-0.512-0.398-0.774c-0.2-0.263-0.448-0.543-0.64-0.669
			c-0.051-0.033-0.102-0.078-0.156-0.115"/>
		<path id="_x31_28" class="st23" d="M539.822,348.102l-0.058,0.734l-0.21,0.502l-0.326,0.478l-0.373,0.28l-0.571,0.21l-0.502,0.035
			l-0.373-0.058"/>
		<path id="_x31_27" class="st7" d="M538.773,364.149c0.04,0.043,0.174,0.065,0.221,0.093c0.665,0.396,1.973-0.098,1.589-1.124"/>
		<path id="_x31_26" class="st8" d="M535.461,312.149c1.19,0.093,2.292,1.374,2.277,2.629c-0.021,1.823-0.633,2.577-2.067,4.363
			c-1.236,1.539-4.945,4.245-4.852,6.834c0.016,0.459,0.264,0.935,0.541,1.317"/>
		<path id="_x31_25" class="st23" d="M530.7,325.525l0.163-0.793l0.35-0.735l0.455-0.735l0.781-1.003l0.618-0.688l1.003-1.015
			l0.863-0.875l0.548-0.63l0.723-0.875l0.641-0.968l0.385-0.793l0.21-1.026l0.064-1.272l-0.117-0.369"/>
		<path id="_x31_24" class="st8" d="M533.969,328.208c0.364-1.238-0.08-2.545-1.28-2.51"/>
		<path id="_x31_23" class="st8" d="M529.877,328.915c0.263,0.26,0.582,0.475,0.962,0.647c0.678,0.306,1.44,0.148,1.996-0.133"/>
		<path id="_x31_22" class="st8" d="M532.86,310.062c1.506,0,2.818,1.676,2.818,3.395c0,1.982-1.054,3.195-1.826,4.112
			c-0.622,0.738-1.295,1.399-2.095,2.205"/>
		<path id="_x31_21" class="st7" d="M531.075,308.474c0.512,0.237,0.961,0.638,1.304,1.146c0.63,0.933,0.79,1.714,0.746,2.869
			c-0.075,1.98-1.499,3.351-2.774,4.188"/>
		<path id="_x31_20" class="st7" d="M528.113,308.474c0.104,0.089,0.204,0.19,0.3,0.304c0.863,1.026,0.93,2.543,0.723,3.384
			c-0.311,1.264-0.728,1.809-1.754,2.565"/>
		<path id="_x31_19" class="st7" d="M525.008,307.955c1.236,0.933,1.604,2.546,1.194,4.208c-0.293,1.187-1.039,1.898-1.97,2.465"/>
		<path id="_x31_18" class="st8" d="M522.91,309.171c0.398,0.272,0.805,0.687,1.024,1.218c0.872,2.106-1.026,3.685-2.776,4.875
			c-1.254,0.853-2.608,1.308-3.89,1.538"/>
		<path id="_x31_17" class="st8" d="M520.906,313.23c-0.424-0.004-0.928-0.125-1.476-0.702c-0.126-0.133-0.274-0.308-0.331-0.466"/>
		<path id="_x31_16" class="st8" d="M512.136,314.358c-0.221-0.111-0.459-0.273-0.619-0.451c-0.416-0.465-0.693-1.095-0.373-2.056
			c0.296-0.889,1.724-3.382,1.794-5.108c0.107-2.637-0.907-4.193-2.493-4.8"/>
		<path id="_x31_15" class="st7" d="M512.806,306.155l-0.062,0.992l-0.269,1.012l-0.516,1.384l-0.393,0.888l-0.413,0.888
			l-0.207,0.62l-0.083,0.454l0.062,0.434"/>
		<path id="_x31_14" class="st7" d="M529.447,333.885c0.148,0.434,0.392,0.584,0.7,0.907c0.669,0.7,1.649,1.303,2.887,1.651
			c1.144,0.322,2.175,0.08,2.961-0.41"/>
		<path id="_x31_13" class="st7" d="M528.743,372.021c0.082,0.198,0.28,0.392,0.28,0.392c0.303,0.506,1.482,1.397,2.554,1.411
			c1.773,0.023,2.194-1.217,2.239-1.493c0.224-1.353-0.239-1.723-0.933-2.104c0,0-0.408-0.212-0.898-0.13"/>
		<path id="_x31_12" class="st23" d="M531.632,373.831l0.758-0.152l0.571-0.303l0.315-0.315l0.222-0.361l0.151-0.583l0.012-0.408"/>
		<path id="_x31_11" class="st8" d="M461.069,366.1c-0.626,0.16-1.214,0.164-1.727,0.01c-1.327-0.398-2.402-1.669-1.854-3.249"/>
		<path id="_x31_10" class="st23" d="M459.482,366.015l0.56,0.047l0.723-0.059l0.723-0.256"/>
		<path id="_x31_09" class="st7" d="M459.587,361.362c0.581-0.011,1.16,0.382,1.54,1.04c0.075,0.131,0.192,0.415,0.189,0.723
			c-0.005,0.41-0.185,0.849-0.478,1.036c-0.674,0.429-1.87,0.244-1.82-0.945"/>
		<path id="_x31_08" class="st16" d="M459.027,363.113c0-0.579,0.371-1.049,0.828-1.049c0.457,0,0.828,0.47,0.828,1.049
			c0,0.58-0.371,1.05-0.828,1.05C459.398,364.163,459.027,363.693,459.027,363.113z"/>
		<path id="_x31_07" class="st8" d="M463.2,345.919c2.311,0.432,4.536,3.219,5.264,6.26c0.253,1.056,0.6,3.411,0.119,5.644
			c-0.513,2.379-1.541,4.026-2.748,5.276c-0.286,0.296-0.618,0.578-0.997,0.857l-0.493,0.334"/>
		<path id="_x31_06" class="st8" d="M463.764,347.946c0.133,0.133,0.175,0.332,0.196,0.501c0.205,1.719-1.302,2.22-2.375,1.941
			c-0.531-0.139-1.165-0.632-1.413-1.068c-0.179-0.314-0.288-0.69-0.289-1.08"/>
		<path id="_x31_05" class="st23" d="M463.832,348.615l-0.093,0.653l-0.152,0.292l-0.221,0.28l-0.303,0.233l-0.338,0.151
			l-0.443,0.07l-0.303,0.023"/>
		<path id="_x31_04" class="st4" d="M462.176,347.162c-0.172,0.075-0.267,0.137-0.396,0.273c-0.124,0.13-0.149,0.177-0.245,0.389
			c-0.07,0.156-0.088,0.335-0.114,0.558"/>
		<path id="_x31_03" class="st8" d="M460.629,358.6c0.949,0,1.78,0.909,1.78,1.882c0,0.476-0.185,0.908-0.484,1.225"/>
		<path id="_x31_02" class="st8" d="M459.986,359.703c0.989,0,1.929,0.953,1.929,1.964c0,0.582-0.271,1.1-0.694,1.436"/>
		<path id="_x31_01" class="st4" d="M463.631,360.919c0.163-0.197,0.261-0.303,0.417-0.506c0.13-0.168,0.208-0.261,0.322-0.441
			c0.103-0.162,0.149-0.26,0.24-0.429c0.128-0.238,0.192-0.377,0.315-0.618"/>
		<path id="_x31_00" class="st4" d="M464.333,365.46c-0.277,0.127-0.442,0.184-0.712,0.327c-0.205,0.109-0.316,0.178-0.513,0.301
			c-0.232,0.145-0.362,0.23-0.583,0.392c-0.23,0.168-0.349,0.279-0.572,0.457"/>
		<path id="_x39_9" class="st4" d="M468.968,349.175c-0.15-0.155-0.231-0.245-0.385-0.396c-0.16-0.158-0.247-0.252-0.42-0.397
			c-0.167-0.141-0.273-0.205-0.448-0.336"/>
		<path id="_x39_8" class="st7" d="M469.052,349.76c0.908,1.219,1.507,2.268,1.786,3.621"/>
		<path id="_x39_7" class="st7" d="M470.806,357.359c-0.15,0.674-0.378,1.297-0.679,1.897c-0.382,0.759-1.048,1.604-1.666,2.176"/>
		<path id="_x39_6" class="st8" d="M470.836,347.526c-0.304,1.028-0.958,1.731-1.686,2.188"/>
		<path id="_x39_5" class="st8" d="M469.197,342.656c0.875,0.684,1.403,1.392,1.65,2.241"/>
		<path id="_x39_4" class="st8" d="M470.222,337.145c0.269,0.247,0.455,0.521,0.579,0.827"/>
		<path id="_x39_3" class="st7" d="M469.196,342.526c-0.338,0.303-0.675,0.489-0.98,0.609"/>
		<path id="_x39_2" class="st24" d="M469.152,342.94c-0.223,0.099-0.34,0.178-0.572,0.254c-0.265,0.088-0.445,0.133-0.702,0.145"/>
		<path id="_x39_1" class="st7" d="M470.87,340.377c-0.23,0.798-0.752,1.402-1.58,2.158"/>
		<path id="_x39_0" class="st8" d="M470.27,333.98c0.249,0.173,0.427,0.393,0.548,0.613"/>
		<path id="_x38_9" class="st7" d="M470.873,336.182c-0.145,0.357-0.395,0.742-0.729,1.115c-0.899,1.004-2.425,1.857-4.115,1.878
			c-0.917,0.011-1.869-0.18-2.827-0.821c-1.024-0.685-1.691-1.659-1.913-2.615"/>
		<path id="_x38_8" class="st4" d="M461.299,335.204c0.076,0.272,0.093,0.434,0.196,0.697c0.129,0.331,0.237,0.504,0.434,0.8
			c0.205,0.308,0.333,0.478,0.597,0.737c0.232,0.227,0.379,0.342,0.651,0.52c0.258,0.169,0.425,0.228,0.697,0.373"/>
		<path id="_x38_7" class="st8" d="M469.733,329.04c0.519,0.441,0.918,1.004,1.109,1.588"/>
		<path id="_x38_6" class="st7" d="M470.857,332.768c-0.415,1.372-1.653,3.069-4.042,3.674c-1.141,0.289-2.611-0.072-3.112-0.499"/>
		<path id="_x38_5" class="st4" d="M463.412,335.584c0.227,0.122,0.345,0.214,0.583,0.312c0.216,0.09,0.344,0.127,0.572,0.18
			c0.308,0.071,0.489,0.088,0.805,0.096c0.342,0.008,0.443,0,0.875-0.07"/>
		<path id="_x38_4" class="st8" d="M462.517,332.447c0.125,1.236,0.952,2.163,2.52,2.192c2.205,0.042,3.545-3.172,1.586-5.428"/>
		<path id="_x38_3" class="st7" d="M465,334.481l1.01-0.266l0.598-0.452l0.386-0.545l0.333-0.851l0.133-0.691"/>
		<path id="_x38_2" class="st8" d="M462.953,330.923c-0.319,0.08-0.723,0.198-1.147,0.4c-0.568,0.27-1.171,0.692-1.652,1.373
			c-0.557,0.789-0.882,1.886-1.083,2.846c-0.088,0.42-0.193,1.75,0.076,3.123c0.198,1.014,0.617,1.958,1.08,2.642
			c0.166,0.245,0.317,0.457,0.486,0.626c0.607,0.606,1.166,0.98,2.099,0.793"/>
		<path id="_x38_1" class="st14" d="M462.634,331.138c-0.891,0.551-1.555,0.682-2.248,1.484c-0.69,1.366-0.961,2.1-1.23,3.195"/>
		<path id="_x38_0" class="st5" d="M463.114,342.309c0-0.476,0.358-0.862,0.8-0.862s0.799,0.386,0.799,0.862
			s-0.358,0.862-0.799,0.862S463.114,342.785,463.114,342.309z"/>
		<path id="_x37_9" class="st7" d="M457.558,343.218c0.322,0.404,0.701,0.768,1.089,1.091c0.786,0.654,1.714,1.23,2.782,1.546"/>
		<path id="_x37_8" class="st7" d="M463.902,346.085c1.97-0.237,3.081-1.705,2.861-3.423c-0.168-1.309-1.369-2.316-2.186-2.374"/>
		<path id="_x37_7" class="st23" d="M466.619,342.994l-0.163,1.015l-0.198,0.443l-0.408,0.56l-0.548,0.42l-0.56,0.28l-1.085,0.268"
			/>
		<path id="_x37_6" class="st8" d="M470.86,327.816c-0.3,0.867-0.849,1.486-1.717,1.878c-0.866,0.391-1.868,0.026-2.404-0.388"/>
		<path id="_x37_5" class="st23" d="M470.829,327.344l-0.21,0.606l-0.257,0.443l-0.35,0.49l-0.49,0.443l-0.583,0.28l-0.49,0.117
			l-0.303-0.023"/>
		<path id="_x37_4" class="st8" d="M467.116,325.676c0.855-0.032,1.341,0.745,1.333,1.4"/>
		<path id="_x37_3" class="st7" d="M468.613,326.473c-0.164,0.602-0.487,1.348-1.432,1.267"/>
		<path id="_x37_2" class="st23" d="M468.322,326.796l0.012,0.466"/>
		<path id="_x37_1" class="st7" d="M466.916,313.942c0.468,1.225,1.381,2.183,2.358,2.73"/>
		<path id="_x37_0" class="st4" d="M469.607,317.046c-0.374-0.219-0.602-0.314-0.959-0.56c-0.362-0.25-0.562-0.404-0.877-0.711
			c-0.227-0.222-0.354-0.351-0.543-0.606c-0.169-0.228-0.233-0.377-0.383-0.618"/>
		<path id="_x36_9" class="st4" d="M470.36,312.416c0.117,0.314,0.151,0.505,0.301,0.805c0.204,0.407,0.361,0.62,0.667,0.956
			c0.424,0.466,0.784,0.598,1.285,0.98"/>
		<path id="_x36_8" class="st4" d="M473.294,312.381c0.117,0.282,0.152,0.456,0.299,0.723c0.13,0.236,0.219,0.362,0.39,0.571
			c0.218,0.267,0.359,0.406,0.63,0.618c0.315,0.247,0.538,0.32,0.882,0.525"/>
		<path id="_x36_7" class="st5" d="M477.472,311.542c-0.05-0.478,0.236-0.899,0.64-0.942c0.404-0.042,0.773,0.311,0.824,0.788
			c0.05,0.478-0.236,0.899-0.641,0.941C477.891,312.373,477.522,312.02,477.472,311.542L477.472,311.542z"/>
		<path id="_x36_6" class="st7" d="M536.858,331.186c0.806,1.104,0.278,3.28-1.914,3.321c-0.856,0.016-1.629-0.458-2.082-1.177"/>
		<path id="_x36_5" class="st8" d="M465.162,330.558c-0.907-0.887-2.829-1.118-4.74,0.091c-0.246,0.155-0.491,0.355-0.734,0.557
			c-0.263,0.219-0.473,0.471-0.675,0.745c-0.22,0.298-0.491,0.804-0.654,1.14c-0.225,0.463-0.318,0.767-0.442,1.242
			c-0.349,1.337-0.347,2.579-0.306,2.933c0.053,0.454,0.096,0.871,0.17,1.254c0.253,1.312,0.641,2.232,1.042,2.897
			c0.422,0.7,1.472,2.307,3.618,2.519c0.843,0.083,2.284-0.303,2.33-1.4"/>
		<path id="_x36_4" class="st7" d="M520.515,311.125c0.144-0.775,1.077-0.924,1.428-0.467c0.54,0.705,0.183,1.915-0.916,2.258
			c-0.373,0.117-1.236,0.07-1.796-0.653c-0.454-0.586-0.419-1.312-0.25-1.889c0.11-0.374,0.409-0.699,0.809-1.003
			c1.276-0.97,3.335-0.746,4.012,0.886c0.872,2.106-1.026,3.685-2.776,4.875c-2.202,1.498-4.711,1.77-6.601,1.749
			c-4.292-0.047-7.557-2.099-9.679-3.265c-0.495-0.272-1.004-0.216-1.26,0.093c-0.289,0.349-0.284,0.913,0.117,1.283"/>
		<path id="_x36_3" class="st7" d="M521.378,310.401c0.455,0.021,0.577,0.198,0.716,0.38c0.54,0.704,0.145,1.915-0.953,2.258"/>
		<path id="_x36_2" class="st25" d="M497.45,312.437c0.721,0.551,1.23,1.23,1.145,2.332c-0.092,1.196-0.382,1.484-1.315,2.12"/>
		<path id="_x36_1" class="st8" d="M528.919,316.774v7.406"/>
		<path id="_x36_0" class="st25" d="M498.404,315.108c-0.042,0.721-0.339,1.187-1.06,1.484"/>
		<path id="_x35_9" class="st26" d="M506.235,308.573c-0.024-0.795-0.807-0.877-1.107-0.877c-0.865,0-1.1,0.54-2.18,1.12
			c-1.354,0.727-1.936,0.889-3.139,0.899c-1.203-0.011-1.801-0.172-3.155-0.899c-1.08-0.58-1.262-1.102-2.127-1.102
			c-0.47,0-1.077,0.406-1.054,1.15c0,0-0.009,0.241,0.028,0.404c0.014,0.061,0.088,0.042,0.112,0.096
			c-0.011-0.361,0.062-0.548,0.24-0.79c0.228-0.311,0.607-0.394,0.762-0.394c0.866,0,1.186,0.555,2.266,1.136
			c1.354,0.727,1.936,0.888,3.139,0.899c1.203-0.011,1.802-0.172,3.156-0.899c1.08-0.58,1.39-1.182,2.256-1.182
			c0.3,0,0.512,0.194,0.61,0.5c0.061,0.188,0.026,0.313,0.042,0.388c0.008,0.036,0.052,0.033,0.062,0.072
			C506.175,308.953,506.245,308.903,506.235,308.573z"/>
		<path id="_x35_8" class="st14" d="M480.763,311.589c0,0.806-0.594,1.315-1.399,1.484"/>
		<path id="_x35_7" class="st7" d="M529.503,337.2c-1.635,1.78-0.131,4.835,1.091,5.525c0.423,0.329,0.604,0.155,0.942,0.352"/>
		<path id="_x35_6" class="st8" d="M529.589,333.797c-0.537,0.373-0.726,0.792-0.747,1.521c-0.018,0.61,0.089,1.287,0.661,1.882
			c0.891,0.928,2.636,1.735,4.326,1.756c0.917,0.011,1.869-0.18,2.827-0.821c1.024-0.685,1.563-1.609,1.796-2.519"/>
		<path id="_x35_5" class="st8" d="M528.675,364.579c0,0.006-0.003,0.717-0.064,1.166c-0.178,1.309-0.386,2.062-0.98,3.242
			c-0.579,1.151-1.042,1.755-1.959,2.659c-0.926,0.912-1.567,1.33-2.729,1.912c-1.131,0.567-1.845,0.747-3.079,1.026
			c-1.234,0.279-1.955,0.339-3.219,0.396c-1.158,0.052-1.816,0.004-2.973-0.076c-1.238-0.086-1.925-0.258-3.161-0.367
			c-1.021-0.09-1.598-0.172-2.623-0.17c-1.054,0.003-1.658,0.009-2.695,0.193c-0.967,0.171-1.516,0.308-2.426,0.676
			c-1.259,0.51-2.682,1.4-2.985,1.796c-0.304-0.396-1.726-1.286-2.986-1.796c-0.91-0.369-1.459-0.505-2.426-0.676
			c-1.037-0.184-1.641-0.19-2.695-0.193c-1.025-0.003-1.602,0.08-2.623,0.17c-1.236,0.108-1.923,0.281-3.161,0.367
			c-1.157,0.08-1.814,0.129-2.973,0.076c-1.264-0.057-1.985-0.118-3.219-0.396c-1.235-0.279-1.947-0.459-3.079-1.026
			c-1.162-0.582-1.803-1-2.729-1.912c-0.917-0.904-1.38-1.508-1.959-2.659c-0.594-1.18-0.802-1.933-0.98-3.242
			c-0.061-0.45-0.064-1.161-0.064-1.166l0,0v-47.706h57.765v47.706H528.675L528.675,364.579z"/>
		<path id="_x35_4" class="st15" d="M504.533,319.89h3.676v24.369h-3.676V319.89z"/>
		<path id="_x35_3" class="st27" d="M473.799,319.774h24.654v24.607h-24.654V319.774L473.799,319.774z"/>
		<path id="_x35_2" class="st28" d="M486.896,339.148c0,0,0.014,0.879,0.257,1.586c0.28,0.817,0.282,0.817,0.538,1.213
			c0.346,0.534,0.767,0.925,1.143,1.166c0.588,0.377,1.185,0.566,1.784,0.513c1.647-0.146,2.412-1.932,2.785-3.382
			c0.397-1.539,1.522-2.377,2.239-1.819c0.42,0.327,0.444,0.874,0.093,1.4c-0.373,0.56-1.23,0.84-1.23,0.84l0.88,1.12
			c0,0,1.891-0.246,2.261-2.218c0.14-0.746-0.223-2.14-1.467-2.557c-1.589-0.532-2.606,0.601-3.096,1.558
			c-0.674,1.315-0.963,3.73-2.829,3.357c-1.015-0.203-1.493-1.679-1.493-2.356l-0.74-0.793l-1.096,0.35L486.896,339.148
			L486.896,339.148z"/>
		<path id="_x35_1" class="st28" d="M485.36,339.148c0,0-0.014,0.879-0.257,1.586c-0.28,0.817-0.282,0.817-0.538,1.213
			c-0.346,0.534-0.767,0.925-1.143,1.166c-0.588,0.377-1.184,0.566-1.784,0.513c-1.647-0.146-2.411-1.932-2.785-3.382
			c-0.397-1.539-1.522-2.377-2.239-1.819c-0.42,0.327-0.444,0.874-0.093,1.4c0.373,0.56,1.23,0.84,1.23,0.84l-0.88,1.12
			c0,0-1.891-0.246-2.26-2.218c-0.14-0.746,0.222-2.14,1.467-2.557c1.589-0.532,2.606,0.601,3.096,1.558
			c0.674,1.315,0.963,3.73,2.829,3.357c1.015-0.203,1.493-1.679,1.493-2.356l0.74-0.793l1.096,0.35L485.36,339.148L485.36,339.148z"
			/>
		<path id="_x35_0" class="st2" d="M488.335,328.685l3.228-3.493c0,0,0.487-0.393,0.483-1.02l-0.665,0.103l-0.149-0.342
			l-0.033-0.344l0.894-0.189c0.014-0.145,0.002-0.255,0.028-0.415c0.024-0.148,0.057-0.228,0.093-0.373l-0.98,0.066
			c0.05-0.171,0.038-0.263,0.093-0.422c0.046-0.134,0.059-0.185,0.151-0.331c0.182-0.027,0.347-0.068,0.572-0.091
			c0.218-0.022,0.343-0.012,0.562-0.026c0.534-0.996,2.757-1.912,4.336-0.271c1.143,1.187,0.896,3.366-0.585,3.942
			c-0.84,0.326-1.516,0.133-2.058-0.333l0.591-1.16c0.816,0.488,1.493-0.119,1.446-0.749c-0.059-0.796-0.575-1.289-1.306-1.353
			c-0.676-0.059-1.162,0.328-1.47,0.933c-0.188,0.369-0.101,0.64-0.163,1.049c-0.068,0.445-0.03,0.693-0.161,1.143
			c-0.096,0.327-0.347,0.73-0.711,1.078l-3.309,3.58l-12.882,13.934l-0.968-0.895L488.335,328.685L488.335,328.685z"/>
		<path id="_x34_9" class="st28" d="M478.853,329.911c0,0,0.81,4.012,3.562,10.029c1.4-0.513,2.226-0.84,3.709-0.84
			s2.309,0.28,3.708,0.84c2.752-6.018,3.562-10.029,3.562-10.029l-7.271-9.353L478.853,329.911L478.853,329.911z"/>
		<path id="_x34_8" class="st2" d="M486.835,323.724l5.046,6.491c0,0-0.673,3.156-2.723,7.906c-0.794-0.181-1.475-0.338-2.32-0.396
			L486.835,323.724L486.835,323.724z"/>
		<path id="_x34_7" class="st2" d="M485.415,323.724l-5.046,6.491c0,0,0.673,3.156,2.723,7.906c0.794-0.181,1.475-0.338,2.32-0.396
			L485.415,323.724L485.415,323.724z"/>
		<path id="_x34_6" class="st29" d="M507.54,354.252c-0.239-0.072-0.59-0.248-0.59-0.248c0.097-0.075,0.176-0.08,0.259-0.166
			c0.117-0.122,0.112-0.237,0.178-0.396c0.065-0.156,0.055-0.286,0.201-0.403c0.087-0.069,0.229-0.081,0.335-0.049
			c0.106,0.034,0.228,0.12,0.255,0.23c0.041,0.168-0.048,0.266-0.074,0.436c-0.026,0.171-0.088,0.268-0.058,0.438
			c0.019,0.112,0.068,0.156,0.106,0.272C508.151,354.366,507.772,354.321,507.54,354.252L507.54,354.252z"/>
		<path id="_x34_5" class="st29" d="M507.241,354.537c-0.002-0.104,0.081-0.19,0.185-0.192c0.104-0.003,0.19,0.081,0.192,0.185
			c0.002,0.104-0.081,0.19-0.185,0.192C507.329,354.725,507.242,354.641,507.241,354.537z"/>
		<path id="_x34_4" class="st29" d="M506.715,349.583c0,0-0.027-0.018-0.043-0.031c-0.115-0.093-0.126-0.196-0.18-0.333
			c-0.052-0.13-0.077-0.207-0.094-0.346c-0.015-0.122,0-0.192,0-0.315c0-0.11,0.012-0.173,0-0.283
			c-0.012-0.112-0.009-0.184-0.063-0.283c-0.029-0.054-0.118-0.101-0.094-0.126c0.028-0.029,0.077-0.006,0.126,0
			c0.12,0.014,0.189,0.05,0.283,0.126c0.113,0.092,0.158,0.171,0.201,0.314c0.05,0.165,0.075,0.27,0.122,0.441
			c0.025,0.089,0.039,0.141,0.085,0.22c0.048,0.083,0.096,0.115,0.157,0.189l-0.003,0.007c-0.09,0.098-0.133,0.162-0.233,0.25
			c-0.091,0.081-0.168,0.121-0.254,0.172l-0.01-0.003L506.715,349.583z"/>
		<path id="_x34_3" class="st15" d="M507.388,349.072c0,0-0.11,0.053-0.178,0.084c-0.09,0.098-0.134,0.156-0.234,0.244
			c-0.133,0.117-0.231,0.151-0.375,0.253c-0.069,0.049-0.126,0.065-0.178,0.131c-0.076,0.096-0.024,0.189-0.075,0.3
			c-0.056,0.122-0.111,0.179-0.197,0.281c-0.11,0.13-0.195,0.183-0.319,0.3c-0.126,0.119-0.176,0.218-0.328,0.3
			c-0.04,0.022-0.06,0.043-0.103,0.056c-0.065,0.02-0.105-0.003-0.169,0.019c-0.117,0.04-0.153,0.169-0.234,0.216
			c0.033,0.065,0.032,0.112,0.066,0.178c0.047,0.097,0.212,0.364,0.244,0.431c0.063,0.091,0.081,0.21,0.159,0.234
			c0.161,0.05,0.257,0.046,0.394,0.038c0.238,0.054,0.384,0.047,0.609,0.141c0.184,0.076,0.259,0.173,0.441,0.253
			c0.142,0.063,0.231,0.102,0.384,0.131c0.116,0.022,0.182,0.04,0.3,0.028c0.075-0.007,0.113-0.036,0.188-0.047
			c0.015-0.003,0.024,0,0.038,0l-0.009,0.113c-0.002,0,0.001,0.008,0,0.009v0.018h0.019l0.619,0.272
			c-0.022,0.035-0.046,0.077-0.056,0.113c-0.03,0.096-0.034,0.207-0.019,0.253c0.189,0.566,0.348,0.92,0.441,0.956
			c0.185,0.071,0.242,0.26,0.347,0.45c-0.037,0.04-0.068,0.06-0.103,0.094c-0.185,0.177-0.346,0.303-0.497,0.544
			c-0.224,0.357-0.375,0.361-0.094,0.834c0.165,0.277,0.244,0.33,0.459,0.722c0.108,0.198,0.168,0.352,0.234,0.591
			c0.062,0.226,0.083,0.357,0.094,0.591l0.291,0.112l0.197-0.197l0.188-0.356l0.009-0.272c-0.072-0.061-0.093-0.142-0.075-0.234
			c0.021-0.11,0.154-0.087,0.216-0.188c0.085-0.138-0.1-0.22-0.197-0.328c-0.182-0.201-0.429-0.25-0.488-0.553
			c-0.016-0.082,0.023-0.128,0.113-0.216c0.256-0.252,0.339-0.292,0.591-0.544c0.072,0.043,0.183,0.058,0.291,0.037
			c0.083-0.016,0.158,0.038,0.422,0.113c0.183,0.052,0.262,0.026,0.366,0.009l0.113-0.028c0.015,0.063,0.033,0.125,0.038,0.206
			c0.016,0.318-0.047,0.898,0.047,1.05c0.039,0.064,0.056,0.099,0.084,0.169c0.029,0.072,0.064,0.119,0.066,0.197
			c0.003,0.209,0.014,0.342,0,0.563c-0.013,0.207-0.031,0.313-0.066,0.525c-0.022,0.135-0.05,0.214-0.131,0.319
			c-0.085,0.109-0.179,0.125-0.291,0.206l-0.028,0.3l0.337,0.141l0.384,0.094l0.206-0.084c0-0.076,0.012-0.12,0.047-0.188
			c0.038-0.074,0.069-0.132,0.141-0.159c0.109-0.043,0.228,0.039,0.272-0.028c0.048-0.073,0.018-0.101,0.009-0.225
			c-0.014-0.199-0.055-0.297-0.084-0.497c-0.049-0.333-0.063-0.506-0.047-0.825c0.009-0.185,0.011-0.287,0.047-0.469
			c0.052-0.265,0.146-0.393,0.206-0.656c0.067-0.293,0.079-0.482,0.112-0.741c0.951,0.136,1.742,0.119,2.803-0.113
			c0.051-0.011,0.225-0.075,0.225-0.075c0.24,0.207,0.511,0.379,0.816,0.487c-0.002,0.03-0.005,0.253,0,0.291
			c0.011,0.086-0.013,0.144,0.037,0.216c0.032,0.045,0.059,0.072,0.112,0.084c0.079,0.018,0.136,0.007,0.197-0.047
			c0.068-0.061,0.055-0.137,0.075-0.225c0.009-0.042,0.002-0.169,0-0.206c0.11,0.016,0.147,0.018,0.263,0.018
			c0.107,0,0.159,0.004,0.263-0.009c0.001,0.024,0.006,0.111,0.009,0.141c0.008,0.074-0.023,0.131,0.009,0.197
			c0.033,0.069,0.075,0.108,0.15,0.122c0.062,0.012,0.106,0.006,0.159-0.028c0.089-0.055,0.079-0.149,0.094-0.253
			c0.004-0.033,0.004-0.207,0-0.234c0.064-0.02,0.248-0.088,0.309-0.112c-0.001,0.073-0.011,0.155-0.028,0.244
			c-0.021,0.113-0.036,0.174-0.075,0.281c-0.062,0.17-0.132,0.257-0.225,0.413c-0.113,0.19-0.172,0.296-0.309,0.469
			c-0.063,0.08-0.107,0.116-0.169,0.197c-0.076,0.101-0.103,0.17-0.178,0.272c-0.097,0.132-0.153,0.217-0.281,0.319
			c-0.208,0.165-0.345,0.033-0.628,0.253l-0.066,0.309l0.431,0.159l0.384,0.075l0.131-0.075c-0.004-0.09,0.01-0.154,0.066-0.225
			c0.064-0.081,0.133-0.105,0.234-0.122c0.108-0.018,0.224,0.01,0.309-0.066c0.105-0.093,0.105-0.274,0.188-0.441
			c0.258-0.517,0.486-0.769,0.9-1.172c0.184-0.179,0.341-0.227,0.497-0.431c0.074-0.097,0.156-0.141,0.159-0.263
			c0.003-0.085-0.043-0.124-0.066-0.206c-0.031-0.113-0.056-0.3-0.056-0.3c0.457,0.224,0.292,0.194,0.375,0.422
			c0.068,0.185-0.01,0.312,0.019,0.506c0.033,0.227,0.14,0.334,0.159,0.563c0.023,0.272-0.043,0.426-0.094,0.694
			c-0.045,0.236-0.039,0.383-0.141,0.6c-0.097,0.207-0.171,0.323-0.347,0.469c-0.063,0.052-0.11,0.075-0.178,0.122l-0.037,0.309
			l0.337,0.112l0.488,0.131l0.112-0.103c0.049-0.196-0.016-0.485,0.122-0.506c0.122-0.018,0.208,0,0.234-0.094
			c0.011-0.039,0.018-0.098,0.028-0.188c0.067-0.566,0.127-1.094,0.188-1.35c0.069-0.29,0.065-0.353,0.122-0.572
			c0.053-0.199-0.026-0.085,0.122-0.506c0.22-0.629-0.062-0.712-0.319-1.097c-0.139-0.208-0.186-0.283-0.206-0.45
			c-0.029-0.245,0.05-0.448,0.038-0.825c-0.012-0.396-0.007-0.648,0-0.862c0.035-0.016,0.066-0.036,0.103-0.056
			c0.351-0.193,0.491-0.251,0.713-0.741c0.067-0.149,0.096-0.298,0.094-0.441c-0.001-0.1-0.019-0.196-0.028-0.309
			c-0.009-0.12-0.057-0.191-0.094-0.281c-0.039-0.096-0.097-0.168-0.169-0.253c-0.232-0.277-0.533-0.34-0.816-0.441
			c-0.445-0.159-0.751-0.13-1.237-0.169c-0.502-0.04-0.782-0.047-1.284-0.018c-0.602,0.034-0.938,0.156-1.538,0.225
			c-0.574,0.066-0.893,0.111-1.472,0.122c-0.678,0.013-1.326-0.138-1.734-0.103c-0.735,0.063-0.748,0.228-1.856,0.319
			c-0.578,0.047-1.153,0.056-1.153,0.056l-0.647-0.206c0.257-0.092,0.32-0.146,0.441-0.309c0.082-0.11,0.07-0.204,0.169-0.319
			c0.08-0.094,0.133-0.187,0.234-0.291c-0.093-0.075-0.193-0.113-0.281-0.131c-0.109-0.023-0.172-0.013-0.281,0
			c-0.148,0.017-0.232,0.037-0.366,0.103c-0.108,0.053-0.187,0.107-0.253,0.178c0,0-0.386-0.249-0.656-0.366
			C507.952,349.198,507.807,349.13,507.388,349.072L507.388,349.072z M507.978,352.643c0.006,0,0.012,0,0.019,0
			c-0.004,0.003-0.006,0.007-0.009,0.009L507.978,352.643L507.978,352.643z"/>
		<path id="_x34_2" class="st30" d="M520.63,352.855l-0.229,0.073c-0.26,0.121-0.473,0.125-0.78,0.149
			c-0.793,0.061-1.281-0.317-2.099-0.254c-0.421,0.032-0.608,0.357-1.038,0.464c-0.196,0.049-0.309,0.068-0.511,0.085l0.154-0.31
			c0,0-0.385,0.079-0.635,0.079c-0.179,0-0.281-0.008-0.457-0.039l0.306-0.285c0,0-0.244-0.04-0.388-0.1
			c-0.133-0.056-0.205-0.099-0.318-0.189c0.199-0.034,0.311-0.058,0.507-0.106c0.467-0.116,0.612-0.344,1.167-0.398
			c0.345-0.033,0.91-0.014,2.293,0.215c0.911,0.151,1.315,0.08,1.661-0.077c0.229-0.104,0.303-0.303,0.331-0.536
			c0.028-0.233-0.121-0.421-0.262-0.543c-0.037-0.032-0.133-0.1-0.334-0.109"/>
		<path id="_x34_1" class="st31" d="M507.439,350.182c-0.159-0.02-0.265,0.003-0.402,0.087c-0.144,0.089-0.162,0.209-0.266,0.343
			c0.134,0.03,0.209,0.108,0.342,0.076c0.104-0.025,0.158-0.072,0.229-0.152c0.095-0.109,0.129-0.203,0.128-0.347L507.439,350.182
			L507.439,350.182z"/>
		<path id="_x34_0" class="st30" d="M510.813,354.138c0,0,0.079,0.144,0.122,0.24c0.074,0.166,0.113,0.263,0.157,0.44
			c0.06,0.24,0.034,0.385,0.072,0.629c0.007,0.043,0.015,0.079,0.023,0.113l-0.016,0.339"/>
		<path id="_x33_9" class="st30" d="M513.211,353.812c0,0-0.066,0.243-0.106,0.4c-0.106,0.406-0.203,0.626-0.283,1.038
			c-0.013,0.069-0.023,0.133-0.031,0.193"/>
		<path id="_x33_8" class="st29" d="M507.795,352.774l0.669,0.309c0.344-0.19,0.742-0.577,1.049-1.176
			c0.264-0.515,0.306-0.795,0.409-1.294l-0.537-0.174l-0.107,0.022c-0.166,0.517-0.208,0.811-0.485,1.258
			c-0.241,0.387-0.515,0.691-0.795,0.91L507.795,352.774L507.795,352.774z"/>
		<path id="_x33_7" class="st29" d="M509.275,358.21c0.108-0.148,0.154-0.243,0.277-0.379c0.137-0.151,0.24-0.21,0.393-0.345
			c0.047,0.005,0.101-0.003,0.144,0.022c-0.009,0.163-0.017,0.284-0.054,0.462c-0.03,0.144-0.056,0.224-0.104,0.363
			c-0.04,0.116-0.047,0.192-0.117,0.294c-0.046,0.068-0.087,0.095-0.143,0.156C509.518,358.559,509.273,358.393,509.275,358.21
			L509.275,358.21z"/>
		<path id="_x33_6" class="st29" d="M519.178,358.765c0.172,0.063,0.276,0.081,0.441,0.161c0.183,0.09,0.269,0.173,0.44,0.283
			c0.008,0.046,0.031,0.095,0.019,0.145c-0.159,0.037-0.278,0.062-0.459,0.075c-0.147,0.011-0.231,0.008-0.378,0
			c-0.123-0.007-0.197,0.007-0.315-0.031c-0.078-0.026-0.115-0.057-0.189-0.094C518.91,359.096,519.002,358.813,519.178,358.765
			L519.178,358.765z"/>
		<path id="_x33_5" class="st29" d="M516.252,358.154c0.172,0.063,0.276,0.081,0.441,0.161c0.183,0.09,0.269,0.173,0.44,0.283
			c0.008,0.046,0.031,0.095,0.019,0.145c-0.16,0.037-0.278,0.062-0.459,0.075c-0.147,0.011-0.231,0.008-0.378,0
			c-0.123-0.007-0.197,0.007-0.314-0.031c-0.078-0.026-0.115-0.057-0.189-0.094C515.983,358.485,516.075,358.202,516.252,358.154
			L516.252,358.154z"/>
		<path id="_x33_4" class="st29" d="M511.048,358.793c0.172,0.063,0.276,0.081,0.441,0.161c0.183,0.09,0.269,0.173,0.441,0.283
			c0.008,0.046,0.031,0.096,0.019,0.145c-0.159,0.037-0.278,0.062-0.459,0.075c-0.147,0.011-0.23,0.008-0.377,0
			c-0.123-0.006-0.197,0.007-0.315-0.031c-0.078-0.026-0.115-0.057-0.189-0.094C510.779,359.124,510.871,358.842,511.048,358.793
			L511.048,358.793z"/>
		<path id="_x33_3" class="st29" d="M508.356,349.852c-0.184-0.083-0.315-0.313-0.198-0.478c0.047-0.066,0.124-0.052,0.17-0.119
			c0.057-0.082,0.042-0.152,0.041-0.252c-0.002-0.113-0.043-0.172-0.063-0.283c-0.022-0.122-0.042-0.191-0.041-0.315
			c0.001-0.188-0.011-0.323,0.104-0.472c0.073-0.095,0.198-0.178,0.247-0.184c0.044,0.041-0.017,0.151-0.01,0.246
			c0.011,0.139,0.039,0.215,0.086,0.346c0.061,0.169,0.144,0.243,0.211,0.409c0.062,0.155,0.12,0.242,0.126,0.409
			c0.005,0.137-0.007,0.221-0.063,0.346c-0.049,0.111-0.09,0.174-0.183,0.252c-0.081,0.068-0.138,0.098-0.239,0.126
			C508.47,349.891,508.424,349.882,508.356,349.852L508.356,349.852z"/>
		<path id="_x33_2" class="st30" d="M509.533,354.252c0.237,0.053,0.163,1.008,0.537,1.227"/>
		<path id="_x33_1" class="st32" d="M518.037,355.934l0.115-0.074c0.304-0.124,0.577-0.308,0.806-0.537"/>
		<path id="_x33_0" class="st30" d="M515.714,355.407c0,0,0.001,0,0.002,0c1.06-0.265,1.765-0.794,2.274-0.86"/>
		<path id="_x32_9" class="st30" d="M516.79,354.083c0.09-0.004,0.175-0.01,0.249-0.021c0.44-0.063,0.511,0.206,0.818,0.378
			c0.557,0.311,0.629,0.692,1.29,1.007c0.035,0.016,0.067,0.032,0.096,0.046l0.254,0.129"/>
		<path id="_x32_8" class="st31" d="M505.309,351.359c0.081,0.02,0.13,0.024,0.212,0.016c0.1-0.009,0.145-0.071,0.245-0.074
			c0.081-0.003,0.139-0.01,0.205,0.037c0.042,0.03,0.06,0.057,0.084,0.103c0.026,0.05,0.049,0.085,0.037,0.14
			c-0.018,0.085-0.097,0.125-0.184,0.126c-0.071,0-0.13-0.019-0.163-0.082c-0.021-0.04-0.025-0.073-0.012-0.117
			c-0.085,0.032-0.147,0.033-0.233,0.005C505.409,351.482,505.358,351.441,505.309,351.359L505.309,351.359z"/>
		<path id="_x32_7" class="st29" d="M507.54,365.229c-0.239-0.071-0.59-0.248-0.59-0.248c0.097-0.075,0.176-0.08,0.259-0.166
			c0.117-0.123,0.112-0.237,0.178-0.396c0.065-0.156,0.055-0.286,0.201-0.403c0.087-0.069,0.229-0.081,0.335-0.05
			c0.106,0.034,0.228,0.12,0.255,0.23c0.041,0.168-0.048,0.266-0.074,0.436c-0.026,0.171-0.088,0.268-0.058,0.438
			c0.019,0.112,0.068,0.156,0.106,0.272C508.151,365.343,507.772,365.299,507.54,365.229L507.54,365.229z"/>
		<path id="_x32_6" class="st29" d="M507.241,365.514c-0.002-0.104,0.081-0.19,0.185-0.192c0.104-0.003,0.19,0.081,0.192,0.185
			c0.002,0.104-0.081,0.19-0.185,0.192C507.329,365.703,507.242,365.618,507.241,365.514z"/>
		<path id="_x32_5" class="st29" d="M506.715,360.56c0,0-0.027-0.018-0.043-0.031c-0.115-0.093-0.126-0.196-0.18-0.333
			c-0.052-0.13-0.077-0.207-0.094-0.346c-0.015-0.122,0-0.192,0-0.315c0-0.11,0.012-0.173,0-0.283
			c-0.012-0.112-0.009-0.184-0.063-0.283c-0.029-0.054-0.118-0.101-0.094-0.126c0.028-0.029,0.077-0.006,0.126,0
			c0.12,0.014,0.189,0.05,0.283,0.126c0.113,0.092,0.158,0.171,0.201,0.315c0.05,0.164,0.075,0.27,0.122,0.44
			c0.025,0.089,0.039,0.141,0.085,0.22c0.048,0.083,0.096,0.115,0.157,0.189l-0.003,0.007c-0.09,0.098-0.133,0.162-0.233,0.25
			c-0.091,0.081-0.168,0.121-0.254,0.172l-0.01-0.003L506.715,360.56z"/>
		<path id="_x32_4" class="st30" d="M520.63,363.832l-0.229,0.073c-0.26,0.121-0.473,0.125-0.78,0.149
			c-0.793,0.061-1.281-0.317-2.099-0.254c-0.421,0.033-0.608,0.357-1.038,0.465c-0.196,0.049-0.309,0.068-0.511,0.085l0.154-0.31
			c0,0-0.385,0.078-0.635,0.079c-0.179,0-0.281-0.008-0.457-0.039l0.306-0.285c0,0-0.244-0.04-0.388-0.1
			c-0.133-0.056-0.205-0.099-0.318-0.189c0.199-0.034,0.311-0.058,0.507-0.106c0.467-0.115,0.612-0.344,1.167-0.398
			c0.345-0.033,0.91-0.014,2.293,0.215c0.911,0.151,1.315,0.08,1.661-0.077c0.229-0.104,0.303-0.303,0.331-0.536
			c0.028-0.233-0.121-0.422-0.262-0.543c-0.037-0.032-0.133-0.1-0.334-0.109"/>
		<path id="_x32_3" class="st33" d="M507.439,361.159c-0.159-0.02-0.265,0.003-0.402,0.087c-0.144,0.089-0.162,0.209-0.266,0.342
			c0.134,0.03,0.209,0.108,0.342,0.076c0.104-0.025,0.158-0.071,0.229-0.152c0.095-0.109,0.129-0.202,0.128-0.347L507.439,361.159
			L507.439,361.159z"/>
		<path id="_x32_2" class="st30" d="M510.813,364.606c0,0,0.079,0.144,0.122,0.24c0.074,0.166,0.113,0.264,0.157,0.441
			c0.06,0.239,0.034,0.385,0.072,0.629c0.007,0.043,0.015,0.079,0.023,0.113l-0.016,0.338"/>
		<path id="_x32_1" class="st30" d="M513.211,364.789c0,0-0.066,0.244-0.106,0.4c-0.106,0.406-0.203,0.626-0.283,1.038
			c-0.013,0.069-0.023,0.133-0.031,0.193"/>
		<path id="_x32_0" class="st29" d="M507.795,363.751l0.669,0.309c0.344-0.19,0.742-0.577,1.049-1.176
			c0.264-0.515,0.306-0.795,0.409-1.294l-0.537-0.175l-0.107,0.022c-0.166,0.517-0.208,0.811-0.485,1.258
			c-0.241,0.387-0.515,0.692-0.795,0.91L507.795,363.751L507.795,363.751z"/>
		<path id="_x31_9" class="st29" d="M509.275,369.187c0.108-0.148,0.154-0.243,0.277-0.379c0.137-0.151,0.24-0.211,0.393-0.345
			c0.047,0.005,0.101-0.004,0.144,0.021c-0.009,0.163-0.017,0.285-0.054,0.462c-0.03,0.144-0.056,0.224-0.104,0.363
			c-0.04,0.116-0.047,0.192-0.117,0.294c-0.046,0.068-0.087,0.095-0.143,0.155C509.518,369.536,509.273,369.37,509.275,369.187
			L509.275,369.187z"/>
		<path id="_x31_8" class="st29" d="M519.178,369.743c0.172,0.063,0.276,0.081,0.441,0.161c0.183,0.09,0.269,0.173,0.44,0.283
			c0.008,0.046,0.031,0.096,0.019,0.144c-0.159,0.037-0.278,0.062-0.459,0.076c-0.147,0.011-0.231,0.008-0.378,0
			c-0.123-0.007-0.197,0.007-0.315-0.031c-0.078-0.026-0.115-0.058-0.189-0.094C518.91,370.073,519.002,369.791,519.178,369.743
			L519.178,369.743z"/>
		<path id="_x31_7" class="st29" d="M516.252,369.132c0.172,0.063,0.276,0.081,0.441,0.161c0.183,0.09,0.269,0.173,0.44,0.283
			c0.008,0.046,0.031,0.096,0.019,0.145c-0.16,0.037-0.278,0.062-0.459,0.076c-0.147,0.011-0.231,0.008-0.378,0
			c-0.123-0.007-0.197,0.007-0.314-0.031c-0.078-0.026-0.115-0.058-0.189-0.095C515.983,369.462,516.075,369.18,516.252,369.132
			L516.252,369.132z"/>
		<path id="_x31_6" class="st29" d="M511.048,369.77c0.172,0.063,0.276,0.081,0.441,0.161c0.183,0.09,0.269,0.173,0.441,0.283
			c0.008,0.046,0.031,0.096,0.019,0.145c-0.159,0.037-0.278,0.062-0.459,0.076c-0.147,0.011-0.23,0.008-0.377,0
			c-0.123-0.007-0.197,0.007-0.315-0.031c-0.078-0.026-0.115-0.058-0.189-0.094C510.779,370.101,510.871,369.819,511.048,369.77
			L511.048,369.77z"/>
		<path id="_x31_5" class="st29" d="M508.356,360.83c-0.184-0.083-0.315-0.313-0.198-0.478c0.047-0.066,0.124-0.052,0.17-0.119
			c0.057-0.082,0.042-0.152,0.041-0.252c-0.002-0.113-0.043-0.172-0.063-0.283c-0.022-0.122-0.042-0.191-0.041-0.315
			c0.001-0.188-0.011-0.323,0.104-0.472c0.073-0.095,0.198-0.178,0.247-0.184c0.044,0.041-0.017,0.151-0.01,0.247
			c0.011,0.139,0.039,0.215,0.086,0.346c0.061,0.169,0.144,0.243,0.211,0.409c0.062,0.155,0.12,0.242,0.126,0.409
			c0.005,0.137-0.007,0.221-0.063,0.346c-0.049,0.111-0.09,0.174-0.183,0.252c-0.081,0.068-0.138,0.098-0.239,0.126
			C508.47,360.868,508.424,360.859,508.356,360.83L508.356,360.83z"/>
		<path id="_x31_4" class="st30" d="M509.533,365.229c0.237,0.053,0.163,1.008,0.537,1.227"/>
		<path id="_x31_3" class="st32" d="M518.037,366.911l0.115-0.075c0.304-0.124,0.577-0.308,0.806-0.537"/>
		<path id="_x31_2" class="st30" d="M515.714,366.384c0,0,0.001,0,0.002,0c1.06-0.265,1.765-0.794,2.274-0.861"/>
		<path id="_x31_1" class="st30" d="M516.79,365.06c0.09-0.003,0.175-0.01,0.249-0.02c0.44-0.063,0.511,0.206,0.818,0.378
			c0.557,0.311,0.629,0.692,1.29,1.007c0.035,0.016,0.067,0.032,0.096,0.047l0.254,0.129"/>
		<path id="_x31_0" class="st33" d="M505.309,362.336c0.081,0.02,0.13,0.024,0.212,0.016c0.1-0.009,0.145-0.071,0.245-0.075
			c0.081-0.003,0.139-0.01,0.205,0.038c0.042,0.03,0.06,0.057,0.084,0.103c0.026,0.05,0.049,0.085,0.037,0.14
			c-0.018,0.085-0.097,0.125-0.184,0.126c-0.071,0-0.13-0.018-0.163-0.081c-0.021-0.04-0.025-0.073-0.012-0.117
			c-0.085,0.032-0.147,0.033-0.233,0.005C505.409,362.46,505.358,362.418,505.309,362.336L505.309,362.336z"/>
		<path id="_x39_" class="st6" d="M473.891,365.722c0.07,0.443,0.228,1.203,0.649,1.983c0.443,0.7,0.28,0.681,1.283,1.8
			c0.494,0.551,1.264,1.023,1.868,1.349c0.606,0.326,1.055,0.487,2.053,0.749c1.955,0.513,3.327,0.545,4.972,0.48
			c1.283-0.051,2.263-0.209,3.075-0.318c1.157-0.156,2.019-0.248,3.335-0.303c0.64-0.027,1.245-0.033,1.842,0
			c0.722,0.04,1.435,0.152,2.193,0.303c1.633,0.326,3.289,0.956,3.289,0.956l0.004-25.697l-24.658-0.007v17.563
			C473.795,364.579,473.846,365.437,473.891,365.722L473.891,365.722z"/>
		<path id="_x38_" class="st34" d="M476.753,370.051c0.393,0.253,0.795,0.415,1.155,0.607c0.591,0.313,0.868,0.388,1.583,0.645
			l-0.001-24.133h-2.738v22.816l0-0.004V370.051L476.753,370.051z"/>
		<path id="_x37_" class="st34" d="M490.451,371.343l0.004-24.173h-2.743v24.39C487.711,371.56,489.588,371.399,490.451,371.343
			L490.451,371.343z"/>
		<path id="_x36_" class="st34" d="M495.922,347.17h-2.734v24.072c0.891,0.096,1.807,0.229,2.74,0.478L495.922,347.17
			L495.922,347.17z"/>
		<path id="_x35_" class="st35" d="M536.147,327.509c2.217-0.045,8.658,1.692,8.703,9.263c0.045,7.477-4.615,8.699-6.482,9.197"/>
		<path id="_x34_" class="st36" d="M536.728,327.508c3.823-0.166,7.768,2.648,7.942,9.671c0.136,5.487-3.755,7.975-5.622,8.473"/>
		<path id="_x33_" class="st15" d="M511.577,319.89h3.676v24.369h-3.676V319.89z"/>
		<path id="_x32_" class="st15" d="M518.622,319.89h3.676v24.369h-3.676V319.89z"/>
		<path id="_x31_" class="st34" d="M484.977,347.17v24.724c-0.027,0.003-1.83,0.042-2.752-0.054l0.001-24.666L484.977,347.17
			L484.977,347.17z"/>
	</g>
</switch>
</svg>