<?xml version="1.0" encoding="utf-8"?>
<svg id="Countryflags.com" width = "200px" height = "125px"
	 xmlns="http://www.w3.org/2000/svg" xmlns:xlink="http://www.w3.org/1999/xlink" x="0px" y="0px" viewBox="39.5 626.5 300 200"
	 enable-background="new 39.5 626.5 300 200" xml:space="preserve">
<switch>
	<g>
		<g>
			<rect id="_x35_" x="39.5" y="626.5" width="300" height="78.261"/>
			<rect id="_x34__1_" x="39.5" y="704.761" fill="#0072C6" width="300" height="43.478"/>
			<path id="_x33__1_" fill="#CE1126" d="M39.5,626.5v200h300v-200l-150,200L39.5,626.5z"/>
			<polygon id="_x32__1_" fill="#FFFFFF" points="189.5,826.5 130.805,748.239 248.196,748.239 			"/>
			<polygon id="_x31_" fill="#FCD116" points="222.109,698.274 249.753,679.803 217.144,686.289 235.616,658.645 207.971,677.116 
				214.458,644.508 195.986,672.152 189.5,639.543 183.014,672.152 164.543,644.508 171.029,677.116 143.384,658.645 
				161.856,686.289 129.247,679.803 156.891,698.274 124.283,704.761 254.718,704.761 			"/>
		</g>
	</g>
</switch>
</svg>