<?xml version="1.0" encoding="utf-8"?>
<svg id="Countryflags.com"
	 xmlns="http://www.w3.org/2000/svg" xmlns:xlink="http://www.w3.org/1999/xlink" x="0px" y="0px" viewBox="334.5 716.5 300 150"
	width = "100%" height = "100%">
<switch>
	<g>
		<rect id="_x31_2" x="334.5" y="716.5" fill="#00008B" width="300" height="150"/>
		<g id="_x31_1">
			<defs>
				<rect id="SVGID_1_" x="334.5" y="716.5" width="150" height="75"/>
			</defs>
			<clipPath id="SVGID_2_">
				<use xlink:href="#SVGID_1_"  overflow="visible"/>
			</clipPath>
			<path clip-path="url(#SVGID_2_)" stroke="#FFFFFF" stroke-width="17.5781" d="M334.5,716.5l150,75 M484.5,716.5l-150,75"/>
		</g>
		<g id="_x31_0">
			<defs>
				<path id="SVGID_3_" d="M334.5,716.5V754h175v37.5h-25L334.5,716.5z M484.5,716.5h-75V804h-75v-12.5L484.5,716.5z"/>
			</defs>
			<clipPath id="SVGID_4_">
				<use xlink:href="#SVGID_3_"  overflow="visible"/>
			</clipPath>
			<path clip-path="url(#SVGID_4_)" stroke="#FF0000" stroke-width="9.375" d="M334.5,716.5l150,75 M484.5,716.5l-150,75"/>
		</g>
		<path id="_x39_" stroke="#FFFFFF" stroke-width="23.4375" d="M409.5,716.5V804 M334.5,754h175"/>
		<path id="_x38_" stroke="#FF0000" stroke-width="14.0625" d="M409.5,716.5v80.273 M334.5,754h155.273"/>
		<path id="_x37_" fill="#00008B" d="M334.5,791.5h150v-75h50v100h-200V791.5z"/>
		<path id="_x36_" fill="#FFFFFF" d="M409.5,806.5l4.339,13.491l13.252-5.019l-7.842,11.803l12.187,7.232l-14.118,1.228
			l1.944,14.037L409.5,839l-9.762,10.272l1.944-14.037l-14.118-1.228l12.187-7.232l-7.842-11.803l13.252,5.019L409.5,806.5z"/>
		<path id="_x35_" fill="#FFFFFF" d="M559.5,830.785l2.066,6.424l6.311-2.39l-3.734,5.621l5.803,3.444l-6.722,0.585l0.926,6.684
			l-4.649-4.891l-4.649,4.891l0.926-6.684l-6.722-0.585l5.803-3.444l-3.734-5.621l6.31,2.39L559.5,830.785z"/>
		<path id="_x34_" fill="#FFFFFF" d="M522,771.411l2.066,6.424l6.311-2.39l-3.734,5.621l5.803,3.444l-6.722,0.585l0.926,6.684
			L522,786.887l-4.649,4.891l0.926-6.684l-6.723-0.585l5.803-3.444l-3.734-5.621l6.311,2.39L522,771.411z"/>
		<path id="_x33_" fill="#FFFFFF" d="M559.5,730.786l2.066,6.424l6.311-2.39l-3.734,5.62l5.803,3.444l-6.722,0.585l0.926,6.684
			l-4.649-4.891l-4.649,4.891l0.926-6.684l-6.722-0.585l5.803-3.444l-3.734-5.62l6.31,2.39L559.5,730.786z"/>
		<path id="_x32_" fill="#FFFFFF" d="M592.833,761.411l2.066,6.424l6.311-2.39l-3.734,5.621l5.803,3.444l-6.723,0.585l0.926,6.684
			l-4.649-4.891l-4.649,4.891l0.926-6.684l-6.723-0.585l5.803-3.444l-3.734-5.621l6.311,2.39L592.833,761.411z"/>
		<path id="_x31_" fill="#FFFFFF" d="M574.5,791.5l1.633,4.003l4.311,0.316l-3.302,2.79l1.032,4.198l-3.674-2.279l-3.674,2.279
			l1.032-4.198l-3.302-2.79l4.311-0.316L574.5,791.5z"/>
	</g>
</switch>
</svg>