<?xml version="1.0" encoding="utf-8"?>
<svg version="1.1" id="Countryflags.com" width = "100%" height = "100%"
	 xmlns="http://www.w3.org/2000/svg" xmlns:xlink="http://www.w3.org/1999/xlink" x="0px" y="0px" viewBox="444.5 896.5 300 200"
	 enable-background="new 444.5 896.5 300 200" xml:space="preserve">
<switch>
	<g>
		<title>Flag of Barbados</title>
		<rect id="_x34_" x="444.5" y="896.5" fill="#00267F" width="300" height="200"/>
		<rect id="_x33_" x="544.5" y="896.5" fill="#FFC726" width="100" height="200"/>
		<path id="_x32_" d="M594.5,948.05c3.25,8.862,6.563,18.088,13.65,25.15c-2.2-0.725-6.05-1.375-8.525-1.313v37.275l10.525,1.563
			c0.375-0.037,0.5-0.625,0.5-1.425c1.012-11.575,3.75-21.3,6.9-31.362c0.225-1.375,4.213-6.625,1.138-5.7
			c-0.375,0.05-4.487,1.725-3.838,0.925c5.6-5.8,13.788-9.975,21.738-11.212c0.7-0.175,1.112,0.175,0.487,0.987
			c-10.55,16.237-19.375,35.4-19.3,58.138c-4.1,0-14.038-2.425-18.15-2.425v26.3h-5.188l-1.188-73.45L594.5,948.05z"/>
		<path id="_x31_" d="M594.5,948.05c-3.25,8.862-6.563,18.088-13.65,25.15c2.2-0.725,6.05-1.375,8.525-1.313v37.275l-10.525,1.563
			c-0.375-0.037-0.5-0.625-0.5-1.425c-1.012-11.575-3.75-21.3-6.9-31.362c-0.225-1.375-4.213-6.625-1.138-5.7
			c0.375,0.05,4.487,1.725,3.838,0.925c-5.6-5.8-13.788-9.975-21.738-11.212c-0.7-0.175-1.112,0.175-0.487,0.987
			c10.55,16.237,19.375,35.4,19.3,58.138c4.1,0,14.038-2.425,18.15-2.425v26.3h5.188l1.188-73.45L594.5,948.05z"/>
	</g>
</switch>
</svg>