<?xml version="1.0" encoding="utf-8"?>
<svg version="1.1" id="Countryflags.com" width = "100%" height = "100%"
	 xmlns="http://www.w3.org/2000/svg" xmlns:xlink="http://www.w3.org/1999/xlink" x="0px" y="0px" viewBox="144.5 696.5 300 200"
	 style="enable-background:new 144.5 696.5 300 200;" xml:space="preserve">
<style type="text/css">
	.st0{fill:#EFB22D;}
	.st1{fill:#E23D28;}
	.st2{fill:#FFFFFF;stroke:#000000;stroke-width:0.1667;}
	.st3{fill:none;stroke:#000000;stroke-width:0.1667;}
	.st4{fill:none;stroke:#000000;stroke-width:0.1667;stroke-linecap:round;}
	.st5{fill:none;stroke:#000000;stroke-width:0.1667;stroke-linecap:round;stroke-linejoin:round;}
	.st6{fill:#FFFFFF;stroke:#000000;stroke-width:0.1667;stroke-linecap:round;}
</style>
<switch>
	<g>
		<g>
			<rect id="_x34_53" x="144.5" y="696.5" class="st0" width="300" height="200"/>
			<path id="_x34_52" class="st1" d="M144.5,896.5h300v-200L144.5,896.5z"/>
			<path id="_x34_51" class="st2" d="M305.081,759.03c-1.663-0.59-2.736,0.268-2.682,2.415c0.053,2.146,1.18,3.381,2.843,2.576
				L305.081,759.03z"/>
			<path id="_x34_50" class="st2" d="M306.542,755.01c-1.385-1.093-2.676-0.625-3.315,1.425c-0.639,2.05,0.032,3.581,1.865,3.353
				L306.542,755.01z"/>
			<path id="_x34_49" class="st2" d="M308.846,751.12c-1.193-1.302-2.543-1.046-3.503,0.875c-0.958,1.921-0.542,3.539,1.306,3.608
				L308.846,751.12z"/>
			<path id="_x34_48" class="st2" d="M307.335,770.03c-2.039,0.751-2.254,3.542-0.965,5.258c1.287,1.717,3.649,2.039,4.936,0
				L307.335,770.03z"/>
			<path id="_x34_47" class="st2" d="M304.974,764.127c-1.932-0.644-3.672,1.951-3.971,4.293c-0.375,2.952-4.561,3.917-2.253,8.371
				c0.482-2.844,2.361-4.4,3.863-4.507c1.503-0.107,3.757-0.429,4.722-2.254L304.974,764.127z"/>
			<path id="_x34_46" class="st2" d="M311.092,775.61c-2.254,0.537-2.577,3.542-0.967,5.688c1.378,1.838,5.688,1.395,5.581-0.429
				L311.092,775.61z"/>
			<path id="_x34_45" class="st2" d="M317.476,793.694c0.107-1.932-3.004-2.683-4.507-2.307c-1.503,0.376-4.373-0.054-5.044-1.663
				c-0.536,1.288,0.242,2.683,2.415,3.38c1.645,0.528,1.61,1.717,1.127,2.254C312.701,795.572,316.35,795.572,317.476,793.694z"/>
			<path id="_x34_44" class="st2" d="M315.706,781.352c-2.2-0.966-3.504,0.505-4.346,1.932c-1.235,2.093-5.044-0.59-6.332,2.2
				c1.744-0.751,3.52,0.851,4.346,1.395c2.361,1.556,6.922,1.073,7.567-2.576L315.706,781.352z"/>
			<path id="_x34_43" class="st2" d="M316.993,783.928c-2.2,1.663-3.058,3.649-3.004,4.99c0.054,1.341,1.932,4.293,3.971,4.454
				C319.14,790.957,319.73,785.859,316.993,783.928z"/>
			<path id="_x34_42" class="st2" d="M307.872,794.284c0-0.805,1.18-1.127,1.985-0.858c0.805,0.268,2.039,1.073,1.61,1.932
				L307.872,794.284z"/>
			<path id="_x34_41" class="st2" d="M295.744,789.884c-0.214-0.966,1.342-2.629,3.435-1.717c2.091,0.912,2.361,2.683,1.501,3.381
				L295.744,789.884z"/>
			<path id="_x34_40" class="st2" d="M300.842,791.655c-0.161-0.536,1.346-1.608,3.918-0.966c2.575,0.644,3.207,2.302,3.113,3.595
				L300.842,791.655z"/>
			<path id="_x34_39" class="st2" d="M295.476,789.884c1.341-1.02,0.833-2.951-0.377-3.541c-2.2-1.073-1.394-3.864-2.79-4.4
				c-1.395-0.537-2.736-1.503-2.79-2.468c-0.697,1.341-0.268,2.576,0.699,3.434c0.965,0.858-0.751,4.346,0.482,5.258
				L295.476,789.884z"/>
			<path id="_x34_38" class="st2" d="M266.715,789.133c-1.127-1.771-3.81-1.449-4.937-0.215c-1.127,1.234-0.966,3.059,0.107,3.864
				L266.715,789.133z"/>
			<path id="_x34_37" class="st2" d="M273.154,786.503c-0.429-2.361-3.273-2.629-4.829-2.039c-1.556,0.59-2.63,2.951-1.61,4.668
				L273.154,786.503z"/>
			<path id="_x34_36" class="st2" d="M277.447,786.181c1.02-1.985-0.966-4.937-3.219-5.366c-1.882-0.358-4.105-0.349-4.829-2.2
				c-0.456,1.61,0.751,2.63,2.146,3.542c1.395,0.912-0.269,3.273,1.985,4.615L277.447,786.181z"/>
			<path id="_x34_35" class="st2" d="M277.232,786.25c-0.47-1.422,0.483-3.314,2.411-3.182c1.928,0.133,3.027,1.534,2.176,3.285
				L277.232,786.25z"/>
			<path id="_x34_34" class="st2" d="M281.525,786.357c-0.265-1.474,0.943-3.213,2.834-2.812c1.89,0.402,2.781,1.943,1.694,3.558
				L281.525,786.357z"/>
			<path id="_x34_33" class="st2" d="M285.786,787.035c-0.192-1.486,1.103-3.163,2.971-2.667c1.868,0.496,2.681,2.08,1.514,3.639
				L285.786,787.035z"/>
			<path id="_x34_32" class="st2" d="M253.407,811.616c-3.595,0-4.474,0.856-4.991,4.561
				C247.773,820.792,254.051,821.329,253.407,811.616z"/>
			<path id="_x34_31" class="st2" d="M255.017,806.787c-5.527-2.093-8.532,6.654-14.005,5.097c1.958,3.112,6.706,0.006,8.478,0.322
				C252.495,812.743,258.988,811.616,255.017,806.787z"/>
			<path id="_x34_30" class="st2" d="M251.422,818.753c-2.737-1.234-5.688,2.951-5.151,4.776
				C246.951,825.846,253.192,823.958,251.422,818.753z"/>
			<path id="_x34_29" class="st2" d="M238.651,836.783c1.502,0.428,3.327,1.287,3.005,4.185c-0.322,2.897-5.795,8.8-10.732,9.122
				c-4.937,0.322-6.707,6.278-10.946,4.614c3.971-0.75,3.971-5.258,7.083-6.653c-2.254-0.805-3.434,4.293-6.332,4.293
				c-2.897,0-4.293,4.614-7.834,4.292c-3.541-0.321-3.914,5.618-11,5.689c-5.42,0.053-12.127,6.385-14.542,3.648
				c5.259-0.751,7.381-3.665,10.517-6.869c5.044-5.15,10.732-2.843,12.664-7.404c-2.307,1.555-4.99,2.307-7.619,2.254
				c-3.301-0.068-6.922,5.258-10.625,2.897c2.146-0.268,3.542-1.181,5.795-3.542c2.308-2.418,5.694-0.855,8.371-3.326
				c4.186-3.864,7.781-0.645,11.805-5.474c-1.127-0.536-3.542-0.161-5.795,1.02c-2.254,1.181-5.151-0.806-7.727,0.59
				c0.322-3.165,6.332-1.354,10.088-3.542c4.239-2.468,7.754-1.745,11.108-1.449c-4.668-0.026-6.493-4.454-12.932-3.167
				c-2.808,0.563-5.044-3.863-7.834-1.61c0.08-1.662,3.005-3.005,6.01-1.395c3.005,1.61,4.216-1.409,10.195,2.361
				c2.468,1.555,6.707-0.967,9.391,0.697c-0.349-1.02-1.878-1.664-3.676-1.529C228.214,834.18,235.485,834.475,238.651,836.783z"/>
			<path id="_x34_28" class="st2" d="M243.426,833.294c-2.361-1.824-5.634,0.376-7.888-0.483c0,1.502,0.751,3.756,3.219,4.615
				C239.509,836.89,242.89,833.939,243.426,833.294z"/>
			<path id="_x34_27" class="st2" d="M247.129,828.09c-3.702-1.878-4.346,2.79-7.244,1.824c0.107,1.342,1.181,3.005,3.541,3.381
				L247.129,828.09z"/>
			<path id="_x34_26" class="st2" d="M249.329,823.85c-5.473-2.146-6.171,3.112-9.39,2.093c0.751,1.825,5.366,2.79,7.727,2.146
				L249.329,823.85z"/>
			<path id="_x34_25" class="st2" d="M256.841,800.831c-1.449-2.039-4.507-0.376-4.99,2.039c-0.483,2.415,0.697,5.795,2.737,5.044
				L256.841,800.831z"/>
			<path id="_x34_24" class="st2" d="M260.544,794.391c-2.522-0.59-5.42-0.322-5.098,2.146c-0.966,0.429-1.234,3.595,1.395,4.293
				L260.544,794.391z"/>
			<path id="_x34_23" class="st2" d="M262.207,792.728c-2.468-2.898-5.221-2.83-6.761-1.61c-2.844,2.254-5.607,0.966-5.688,3.219
				c1.717-1.314,3.219,0.268,4.615-0.215c1.395-0.483,2.415,2.2,6.278,1.073L262.207,792.728z"/>
			<path id="_x34_22" class="st2" d="M256.251,836.032c0.376,0.697,2.683,1.02,3.81-0.161c1.493-1.565-0.161-5.903-2.522-6.225
				C255.178,829.324,254.963,834.529,256.251,836.032z"/>
			<path id="_x34_21" class="st2" d="M253.568,836.139c3.381,1.233,4.829-1.557,3.005-3.327
				C256.09,833.402,254.319,835.548,253.568,836.139z"/>
			<path id="_x34_20" class="st2" d="M240.905,840.753c-0.644,1.932-3.971,2.254-7.727,8.264c-3.756,6.009-7.352,3.487-8.264,7.62
				c4.508-3.649,8.047-1.225,10.732-4.829c4.078-5.474,7.437-4.688,9.015-8.371c2.254-5.258,12.127-5.151,12.663-13.415
				C253.997,829.377,243.48,838.285,240.905,840.753z"/>
			<path id="_x34_19" class="st2" d="M325.579,759.62c4.293,1.395,4.4,6.976,9.336,8.8c4.938,1.825,5.421,6.225,9.444,5.152
				c-3.756-1.02-3.487-5.366-7.404-6.439c-4.594-1.258-6.332-8.263-9.982-9.337"/>
			<path id="_x34_18" class="st2" d="M345.272,788.757c0.751,1.717,0.644,4.776-2.039,5.58c1.449,0.912,3.594,0.054,4.775-1.932
				c-1.771,3.917-0.59,7.459,2.2,8.156c-1.341-2.737,1.664-4.024,0.699-5.795c1.771,0.751,3.327,3.166,3.272,4.668
				c2.308-2.576-1.717-6.01-0.965-8.424L345.272,788.757z"/>
			<path id="_x34_17" class="st2" d="M317.476,816.338c-2.629-2.307-3.752,0.603-5.045-0.402c-1.207-0.939-2.817-1.073-3.433-0.134
				c2.254,0.08,1.153,1.824,5.526,2.254c-4.374,0.295-3.568,5.178-6.493,4.937c3.113,2.951,4.722-2.629,7.244-1.717
				c-0.751,0.214,1.181,1.985-0.161,4.346c2.174-0.054,3.058-3.059,3.328-4.615L317.476,816.338z"/>
			<path id="_x34_16" class="st2" d="M259.578,841.397c-0.966-0.804-3.756-1.181-4.829-0.536c-1.073,0.643-0.698,0.804,0.59,0.912
				c1.288,0.107,2.951,2.19,0.161,2.307c-1.288,0.053-0.859,3.165-3.542,3.38c1.1,1.342,4.239,0.455,5.366-1.02
				c-0.215,1.207,1.395,2.307,0.751,3.756c1.985,0.216,0.832-4.023,3.971-3.81c-1.288,0.161-0.751,3.058,1.502,2.307
				c-1.341,0.644-0.644,2.2,0.858,1.825c-0.966,0.322-1.288,1.556,0.054,2.254C265.749,851.003,264.3,844.671,259.578,841.397z"/>
			<path id="_x34_15" class="st2" d="M376.449,782.189c4.107,0,7.436-3.33,7.436-7.437c0-4.107-3.329-7.437-7.436-7.437
				c-4.108,0-7.438,3.33-7.438,7.437C369.011,778.859,372.34,782.189,376.449,782.189z"/>
			<path id="_x34_14" class="st2" d="M337.599,791.172c2.254-2.146,5.689-3.22,8.049-1.61c2.361,1.61,10.196,3.542,14.06,0.859
				c3.863-2.683,5.688-4.078,7.404-3.756c1.289,1.932,2.844,2.844,4.776,3.005c0.59,0.644,2.683,1.181,3.864,1.02
				c1.716,0.429,3.81-0.107,5.472-1.932c2.577,0.375,4.99-1.556,5.903-4.454c2.736-0.322,2.897-3.381,1.18-5.42
				c-1.61-0.322-0.375-5.742-6.225-4.668c2.469,1.502,0.59,4.507,2.631,5.902c-1.396,0-3.193,0.59-3.622,2.683
				c0.536-1.449-0.081-2.415-0.457-2.737c0.054-1.234-2.682-4.266-5.258-3.166c1.852,0.403,0.806,3.381,2.147,4.508
				c-0.967,0.054-1.986,0.537-2.577,1.395c-0.697-1.234-3.165-2.522-4.668-2.629c0-0.429-0.081-1.288-0.268-1.717
				c-0.671-1.288-1.235-2.817-0.966-4.776c-1.288,1.395-2.361,3.327-3.004,4.722c-2.039-1.395-7.083,0.644-9.445,1.18
				c-2.361,0.537-10.303-0.751-12.128-2.683c-1.824-1.932-5.365-3.112-8.692-4.078c-4.575-1.328-4.615-6.332-9.66-9.766
				C326.008,769.279,335.453,789.025,337.599,791.172z"/>
			<path id="_x34_13" class="st2" d="M285.012,838.607c3.971,0,7.19-3.219,7.19-7.19c0-3.971-3.219-7.19-7.19-7.19
				s-7.19,3.219-7.19,7.19C277.822,835.387,281.041,838.607,285.012,838.607z"/>
			<path id="_x34_12" class="st2" d="M267.842,833.08c1.449,1.878,3.917,1.771,4.937,1.61c0.858,2.253,3.595,2.2,4.776,3.433
				c1.18,1.235,5.204,1.128,6.385,0.429c-1.072-0.107-2.468-0.75-3.809-1.878c-1.619-1.36-0.859-4.078-2.147-5.044
				c0.966-1.073,1.127-2.844,0.912-3.541c1.02-0.591,1.771-1.556,1.878-2.039c1.771-0.107,3.327-1.02,3.971-1.717
				c0.912,0.858,3.219-0.268,4.454,1.18c0.268-3.541-3.112-5.42-5.367-4.239c-0.912-0.483-3.327-0.161-3.756,0.483
				c-0.751-0.322-2.844,0.751-3.81,1.449c1.073-0.59,1.234-2.361,0.805-3.005c0.912-0.376,1.932-1.61,2.039-2.522
				c1.288,0.215,3.219-0.644,4.077-0.429c-1.395-1.825-3.702-2.468-6.063-2.307c-2.442,0.134-3.488,1.851-3.81,3.702
				c-1.449,0.858-1.932,3.756-1.395,4.776c-0.832-0.027-1.61,0.778-1.932,1.234c-1.127-0.483-2.737-0.832-3.891-0.832"/>
			<path id="_x34_11" class="st2" d="M266.607,820.899c-0.483-1.395,0.157-2.651,0.483-3.756c0.832-2.817,0.322-3.542-2.2-3.166
				C264.676,815.318,265.963,819.719,266.607,820.899z"/>
			<path id="_x34_10" class="st2" d="M264.756,814.138c0.644,0.644,2.925,0.939,3.166-1.1c0.277-2.341-0.671-3.247-2.71-2.334
				C265.051,811.24,264.863,813.441,264.756,814.138z"/>
			<path id="_x34_09" class="st2" d="M265.239,810.623c0.858,0.349,2.71,1.046,3.73-0.939c0.855-1.665-0.268-2.951-2.039-2.844
				C266.5,807.323,265.642,809.04,265.239,810.623z"/>
			<path id="_x34_08" class="st2" d="M266.822,806.679c0.215,0.644,2.415,2.79,4.025,1.234c1.61-1.556,1.61-3.864-0.805-4.722
				C269.398,803.299,267.466,805.552,266.822,806.679z"/>
			<path id="_x34_07" class="st2" d="M270.042,803.191c0.483,1.341,1.985,3.649,4.776,2.576c2.79-1.073,1.61-4.561,0.322-5.258
				C274.388,800.562,271.329,801.957,270.042,803.191z"/>
			<path id="_x34_06" class="st2" d="M275.139,800.509c-0.215,1.181,0,4.4,3.81,4.346c3.81-0.054,2.737-4.508,1.771-5.151
				C279.164,799.704,276.534,799.757,275.139,800.509z"/>
			<path id="_x34_05" class="st2" d="M280.881,799.865c-0.429,0.912-1.396,6.916,6.063,5.258
				C287.91,804.909,290.432,799.382,280.881,799.865z"/>
			<path id="_x34_04" class="st2" d="M284.958,800.401c-0.75,0.751,1.181,6.815,6.225,5.795
				C296.228,805.177,291.989,799.435,284.958,800.401z"/>
			<path id="_x34_03" class="st2" d="M289.251,801.313c-0.804,1.664,0.404,6.6,6.628,6.6
				C301.519,807.914,295.583,801.421,289.251,801.313z"/>
			<path id="_x34_02" class="st2" d="M294.135,802.762c-0.404,0.922-0.899,6.156,6.439,6.6
				C305.886,809.684,304.599,802.172,294.135,802.762z"/>
			<path id="_x34_01" class="st2" d="M302.022,804.962c-0.911,1.61-1.878,5.634,6.171,5.956
				C313.35,811.125,310.179,805.07,302.022,804.962z"/>
			<path id="_x34_00" class="st2" d="M308.73,806.196c-1.18,1.61-0.311,4.768,2.682,5.366c3.757,0.751,4.293-2.79,1.718-4.507
				C310.554,805.338,308.73,806.196,308.73,806.196z"/>
			<path id="_x33_99" class="st2" d="M312.379,806.948c-0.858,1.503-0.327,5.151,5.365,5.151
				C318.925,812.099,323.433,807.484,312.379,806.948z"/>
			<path id="_x33_98" class="st2" d="M268.327,876.925c4.61,0,8.347-3.738,8.347-8.347c0-4.611-3.738-8.349-8.347-8.349
				c-4.611,0-8.348,3.738-8.348,8.349C259.979,873.187,263.716,876.925,268.327,876.925z"/>
			<path id="_x33_97" class="st2" d="M329.55,755.542c-0.645,0.644-1.985,2.576-2.254,3.327c-2.79,8.371,4.658,14.624,9.015,23.61
				c3.435,7.083,3.006,18.244-2.361,25.327c-1.836,2.423-1.288,3.112-3.649,5.58c-0.906,0.947-1.932,2.146-1.61,5.581
				c1.503-0.537,3.649,0.858,4.078,2.039c1.074-0.537,2.577-0.322,3.113,0.322c1.824-0.859,3.326-0.429,4.936,1.288
				c1.396-0.215,2.899,0,4.293,1.502c0.751-1.502,2.254-2.039,3.326-1.717c-0.107-1.932,1.825-3.327,3.542-2.576
				c-0.536-2.576,1.825-4.507,4.079-3.756c1.931-1.503,5.795-1.61,7.727,0.644c-3.435-0.966-3.326,2.683-6.225,2.361
				c0.751,2.146-1.181,3.381-3.111,4.078c1.233-0.59,2.575-1.288,3.004-0.536c1.074-0.939,3.219-0.59,3.757-0.107
				c1.421-0.456,2.79-0.107,3.433,1.61c1.932,1.181,3.219,4.186,1.825,6.439c-0.429-2.361-2.039-2.254-2.683-3.219
				c-1.503,0.537-3.006,0.537-3.435-0.429c-0.858,0.859-3.756,1.61-5.043,0.322c-0.483,1.932-2.147,3.542-4.079,3.542
				c0.537,1.502-0.965,4.079-2.146,5.366c1.825,0.965,1.287,3.113,0.858,4.4c2.79,0.429,0.429,2.897,5.258,4.507
				c-2.36,0.751-6.975,0-7.619-2.897c-2.361-0.107-3.971-2.468-3.862-4.938c-1.825-1.717-2.093-4.185,0.429-5.902
				c-2.147,0.644-3.328-2.79-6.44-1.395c-1.547,0.694-5.633-0.483-5.579-1.932c-0.645,1.073-4.561,0.644-5.099-1.18
				c-1.287,0.697-4.293-0.483-4.239-2.254c-1.664,0.751-3.917-0.59-3.81-2.307c-1.556-0.215-1.716-1.61-1.61-2.79
				c-1.396-0.644-1.02-1.985-0.483-3.595c-0.965-1.073-0.536-2.576,0.215-3.971c-1.074-1.073-0.858-2.361-0.538-3.863
				c-5.151-0.429-11.604-1.672-26.4-6.225c-22.322-6.868-28.332,9.23-23.396,19.317c5.696,11.64-0.644,14.167,1.288,22.86
				c2.039,0.429,3.112,2.146,3.005,3.971c1.207,0.053,2.066,1.179,1.636,3.326c1.02-0.188,2.334,0.107,3.193,0.966
				c0.751-1.395,3.22-1.717,4.508-0.107c2.79-0.215,4.186,2.039,4.079,4.829c1.501,2.684,0.965,5.957-0.645,8.049
				c0.161-1.126,0-2.736-0.053-3.701c-0.1-1.776-2.577-2.147-2.308-3.596c-1.288,0.107-2.522-0.591-2.951-1.556
				c-0.751,0.643-1.825,0.858-2.737,0.536c1.449,0.645,2.576,3.219,2.146,4.936c0.751,1.289,0.59,3.65-0.322,4.669
				c-0.429,2.092-2.039,2.843-4.132,1.931c1.18-0.75,1.61-2.092,1.556-3.219c-0.751-0.643-1.127-1.878-1.181-2.629
				c-2.092,0.322-4.99-1.449-5.524-2.149c-4.611,0-8.348,3.738-8.348,8.349c-0.214-1.718-2.386-3.41-2.118-4.858
				c-1.288-3.971,0.537-7.674,5.796-8.424c-0.644-1.503,1.61-3.06,0.751-4.776c-1.097-2.193-3.112-5.044-6.117-8.371
				c1.824-3.113,1.288-7.297,0.215-9.874c-1.541-3.699-3.005-2.79-8.478,3.219c-8.92,9.795-20.82,7.083-31.337,13.522
				c-2.795,1.711-5.58,2.361-2.576-0.643c3.005-3.006,10.947-6.01,16.098-8.586c9.647-4.824,17.815-12.879,21.034-28.547
				c7.566-36.821,35.415-24.683,53.015-17.815c16.524,6.449,13.522-8.156,5.151-16.956c-10.061-10.577-8.049-18.888-3.326-25.542
				C316.564,749.747,332.823,752.698,329.55,755.542z"/>
			<path id="_x33_96" class="st2" d="M359.44,845.994c5.072,0,9.185-4.111,9.185-9.183c0-5.073-4.112-9.185-9.185-9.185
				s-9.185,4.112-9.185,9.185C350.255,841.883,354.368,845.994,359.44,845.994z"/>
			<path id="_x33_95" class="st3" d="M324.399,755.971c-2.039,9.015-0.322,13.093,2.683,17.064
				c6.21,8.207,11.161,26.937,4.078,39.171"/>
			<path id="_x33_94" class="st4" d="M335.13,801.635c0.858-0.322,2.468-1.341,2.844-3.112"/>
			<path id="_x33_93" class="st4" d="M335.775,797.718c0.268-1.556,2.682-2.227,2.736-3.89"/>
			<path id="_x33_92" class="st4" d="M335.828,791.655c-0.161-1.61,2.415-3.059,2.039-4.668"/>
			<path id="_x33_91" class="st4" d="M334.433,785.859c-0.215-0.912,2.146-2.629,1.503-4.078"/>
			<path id="_x33_90" class="st4" d="M332.662,780.225c-0.483-1.02,1.127-2.2,0.429-3.273"/>
			<path id="_x33_89" class="st4" d="M330.086,775.718c-0.161-0.698,0.832-2.227,0.296-3.139"/>
			<path id="_x33_88" class="st4" d="M327.511,770.406c0.214-0.269,1.074-0.912,0.724-1.717"/>
			<path id="_x33_87" class="st4" d="M325.74,766.515c0.349-0.188,1.395-0.51,1.261-1.288"/>
			<path id="_x33_86" class="st5" d="M272.027,867.69c-2.147-0.751-4.829,0.322-5.366,2.147"/>
			<path id="_x33_85" class="st5" d="M268.271,871.5c0.268-1.824,3.059-2.629,3.917-1.771c-1.771-0.965-2.629,2.468-1.073,2.576"/>
			<path id="_x33_84" class="st5" d="M285.548,829.055c-1.287,0.644-1.662,3.005,0,4.776"/>
			<path id="_x33_83" class="st5" d="M287.48,829.592c-0.911,0.751-0.858,3.005,0.483,3.542c-1.126-0.805,0-2.2,0.806-2.254
				c0.804-0.053,1.34,0.912,0.375,1.878"/>
			<path id="_x33_82" class="st5" d="M362.872,834.904c-3.004-0.804-5.42,2.683-2.683,5.796c-0.053-3.006,2.093-4.991,4.722-4.454"
				/>
			<path id="_x33_81" class="st5" d="M363.704,838.325c-0.739,0-1.154,0.578-1.154,1.14c0,0.59,0.51,1.154,1.341,1.154
				c0.538,0,0.967-0.617,0.967-1.1"/>
			<path id="_x33_80" class="st5" d="M374.301,772.445c0.483,1.824,3.006,2.576,4.99,2.146"/>
			<path id="_x33_79" class="st5" d="M379.292,773.411c-1.555,0.054-2.843-1.395-2.736-2.63c0,0.912,2.093,1.342,2.736,0.751"/>
			<path id="_x33_78" class="st4" d="M272.778,834.69c-0.429-1.074,1.288-2.147,1.341-3.167c0.054-1.019,1.932-1.824,3.863,0.107"/>
			<path id="_x33_77" class="st4" d="M277.071,820.202c-0.376,0.161-0.698,0.376-1.02,0.483"/>
			<path id="_x33_76" class="st4" d="M280.773,826.051c-0.456,0.027-1.395-0.027-1.905-0.376"/>
			<path id="_x33_75" class="st4" d="M278.895,828.09c-0.376,0.188-1.208,0.51-1.691,0.617"/>
			<path id="_x33_74" class="st4" d="M260.49,860.5c-0.054,0.967,0.912,2.361,1.449,2.79"/>
			<path id="_x33_73" class="st4" d="M264.676,858.193c-0.537,0.804-0.858,2.2-0.537,3.165"/>
			<path id="_x33_72" class="st4" d="M272.671,861.413c-0.966-0.645-0.322-2.309-0.429-3.381c-0.107-1.074,1.127-2.79,3.542-1.342"
				/>
			<path id="_x33_71" class="st4" d="M263.656,855.296c0.966-0.161,1.985-0.108,2.629,0.16"/>
			<path id="_x33_70" class="st4" d="M275.89,852.236c-0.429,0.59-0.536,1.235-0.59,1.664"/>
			<path id="_x33_69" class="st4" d="M280.398,852.129c-0.751,0-1.395,0.536-1.717,1.074"/>
			<path id="_x33_68" class="st4" d="M269.988,824.655c0.859,0.295,3.085,1.663,3.166,3.086"/>
			<path id="_x33_67" class="st4" d="M279.11,817.68c-2.629-0.054-3.649-2.737-1.663-2.737"/>
			<path id="_x33_66" class="st4" d="M283.832,821.275c-1.02,0.429-0.536,2.2,0.912,3.059"/>
			<path id="_x33_65" class="st4" d="M277.554,838.123c-0.51-0.643,0.161-2.521,1.824-1.958"/>
			<path id="_x33_64" class="st4" d="M281.471,857.71c0.107-1.636,2.173-2.603,3.006-0.752"/>
			<path id="_x33_63" class="st4" d="M273.851,862.378c-0.134-1.797,0.778-2.387,1.583-2.494c0.805-0.107,1.959,0.563,2.495,1.743"
				/>
			<path id="_x33_62" class="st4" d="M257.861,863.719c0.107-1.074,1.02-2.2,1.986-2.039"/>
			<path id="_x33_61" class="st4" d="M356.058,816.07c-0.699,0.51-1.154,2.79,1.502,3.005"/>
			<path id="_x33_60" class="st4" d="M351.979,819.826c0,0.268,0.349,0.644,0.564,0.805"/>
			<path id="_x33_59" class="st4" d="M364.643,824.119c-0.697-0.536-2.496,1.637-0.858,3.22"/>
			<path id="_x33_58" class="st4" d="M347.579,842.148c-0.403-1.529,1.02-1.932,2.361-1.61"/>
			<path id="_x33_57" class="st4" d="M344.146,831.309c0.804-0.536,1.61-1.127,2.629-1.395"/>
			<path id="_x33_56" class="st4" d="M343.717,837.211c0-1.288,0.643-2.36,1.233-2.682"/>
			<path id="_x33_55" class="st4" d="M348.437,822.401c-0.107,1.556,0.537,3.059,1.021,3.864"/>
			<path id="_x33_54" class="st4" d="M361.21,822.509c-0.779,0.242-1.477,0.536-1.771,1.181"/>
			<path id="_x33_53" class="st4" d="M360.35,826.909c0.377-0.322,0.806-0.698,0.993-0.966"/>
			<path id="_x33_52" class="st4" d="M380.633,780.064c0,1.503-1.878,2.307-3.111,1.341"/>
			<path id="_x33_51" class="st4" d="M384.712,780.118c0.831,0.644,3.702,0.027,3.031-1.636"/>
			<path id="_x33_50" class="st4" d="M381.224,788.757c-0.59-0.107-1.61-0.751-2.039-1.288"/>
			<path id="_x33_49" class="st4" d="M387.127,784.303c-0.965,0.215-1.61,0-2.093-0.215"/>
			<path id="_x33_48" class="st4" d="M371.888,789.669c0.536,0,1.824-0.215,2.71-0.671"/>
			<path id="_x33_47" class="st4" d="M370.278,780.172c-0.697-0.08-1.208,0.054-1.61,0.322"/>
			<path id="_x33_46" class="st4" d="M381.09,782.801c-0.187,0.671-0.671,1.717-1.261,2.174"/>
			<path id="_x33_45" class="st5" d="M368.453,785.162c1.342-0.59,3.006,3.971,6.225,2.361"/>
			<path id="_x33_44" class="st5" d="M374.946,782.801c-0.429,0.59-0.697,1.503-0.751,2.307"/>
			<path id="_x33_43" class="st3" d="M310.769,775.825c0.429-0.054,1.181-0.215,1.341-0.751"/>
			<path id="_x33_42" class="st3" d="M255.553,825.782c1.61,0.912,2.737,2.468,2.039,4.776"/>
			<path id="_x33_41" class="st3" d="M329.335,770.888c0.483,0.322,2.309,0.322,3.328-0.054"/>
			<path id="_x33_40" class="st3" d="M333.95,771.962c-0.054,0.751,0.161,3.595-1.288,4.186"/>
			<path id="_x33_39" class="st3" d="M333.198,775.772c1.342,0.429,4.025,0.268,4.883-2.2"/>
			<path id="_x33_38" class="st3" d="M336.204,775.664c0.697,1.073,0.911,3.166-1.18,4.293"/>
			<path id="_x33_37" class="st3" d="M336.74,777.435c1.556,0.536,5.151,0.59,4.775-2.468"/>
			<path id="_x33_36" class="st3" d="M340.282,777.435c1.074,1.502,5.796,3.273,5.045,0.161"/>
			<path id="_x33_35" class="st3" d="M335.936,781.781c1.824,0.429,4.4-0.805,3.327-4.024"/>
			<path id="_x33_34" class="st3" d="M344.414,779.367c0.268,1.234,6.278,2.522,5.474-0.268"/>
			<path id="_x33_33" class="st3" d="M348.76,780.708c1.128,2.576,7.083,2.361,5.206-1.073"/>
			<path id="_x33_32" class="st3" d="M352.999,782.318c1.181,1.449,6.44,0.59,4.347-2.897"/>
			<path id="_x33_31" class="st3" d="M357.292,782.264c3.274,2.468,7.083-1.073,2.952-3.649"/>
			<path id="_x33_30" class="st3" d="M362.121,781.459c2.899,2.307,6.44-1.878,3.918-3.059"/>
			<path id="_x33_29" class="st3" d="M339.208,780.494c0.912,0.268,2.844,0.161,3.274-1.502"/>
			<path id="_x33_28" class="st3" d="M341.757,780.118c-0.107,2.442,3.998,3.381,5.044,0.563"/>
			<path id="_x33_27" class="st3" d="M345.433,782.211c0.752,1.61,4.346,2.254,4.936-0.054"/>
			<path id="_x33_26" class="st3" d="M349.779,783.23c0.59,1.61,3.703,1.449,4.561-0.214"/>
			<path id="_x33_25" class="st3" d="M353.214,784.089c0.965,2.093,4.936,2.093,5.849-0.966"/>
			<path id="_x33_24" class="st3" d="M358.365,784.464c1.556,0.966,4.883,0.59,4.614-2.414"/>
			<path id="_x33_23" class="st3" d="M362.336,784.196c2.307,1.878,5.58,0.054,3.971-3.112"/>
			<path id="_x33_22" class="st3" d="M366.146,786.664c1.235-0.215,1.878-2.683,0.59-3.327"/>
			<path id="_x33_21" class="st3" d="M337.546,787.094c2.575-1.395,3.058-3.756,1.287-6.063"/>
			<path id="_x33_20" class="st3" d="M339.746,784.732c1.61,0.966,4.668-0.053,5.204-2.415"/>
			<path id="_x33_19" class="st3" d="M341.946,785.001c0.911,1.18,1.072,2.629-0.108,3.971"/>
			<path id="_x33_18" class="st3" d="M342.697,786.503c2.843-1.771,6.385,1.503,3.756,3.488"/>
			<path id="_x33_17" class="st3" d="M345.969,786.343c0.645-0.161,1.771-1.341,1.878-2.683"/>
			<path id="_x33_16" class="st3" d="M347.257,787.577c1.18-1.234,9.23,1.288,4.132,3.864"/>
			<path id="_x33_15" class="st3" d="M351.014,784.196c1.556,0.59,2.361,2.79,0,3.541"/>
			<path id="_x33_14" class="st3" d="M353.053,789.562c1.717-1.771,7.083-0.644,5.151,1.61"/>
			<path id="_x33_13" class="st3" d="M356.917,788.864c0.966-3.273,6.707-1.234,4.829,0.107"/>
			<path id="_x33_12" class="st3" d="M355.736,785.591c0.161,0.644,0.214,2.254-0.858,3.112"/>
			<path id="_x33_11" class="st3" d="M360.565,784.947c0.214,0.536,0.161,1.556-0.322,2.2"/>
			<path id="_x33_10" class="st3" d="M364.214,785.001c0.322,0.59,0.858,1.717-0.322,2.629"/>
			<path id="_x33_09" class="st3" d="M318.282,760.318c0.053,3.058,1.127,5.098,5.258,3.166"/>
			<path id="_x33_08" class="st3" d="M319.569,763.967c-2.039,2.737,0.268,5.688,4.293,2.737"/>
			<path id="_x33_07" class="st3" d="M313.292,765.308c2.79,3.005,7.781,0.805,4.561-3.757"/>
			<path id="_x33_06" class="st3" d="M321.233,767.884c-0.537,2.951,1.878,3.542,3.863,2.2"/>
			<path id="_x33_05" class="st3" d="M310.822,765.791c0.508,2.967,3.542,5.312,6.493,3.488"/>
			<path id="_x33_04" class="st3" d="M314.472,769.869c0,4.239,5.849,4.722,7.19,0.322"/>
			<path id="_x33_03" class="st3" d="M319.569,772.874c1.878,3.864,5.956,2.308,7.298-0.053"/>
			<path id="_x33_02" class="st3" d="M315.437,766.703c0.751,1.878,2.254,3.971,5.742,2.415"/>
			<path id="_x33_01" class="st3" d="M304.706,765.791c0.483,1.556,3.273,3.434,6.493,1.288"/>
			<path id="_x33_00" class="st3" d="M306.692,767.776c-1.718,2.522,1.717,4.883,5.849,1.127"/>
			<path id="_x32_99" class="st3" d="M308.73,770.888c0.697,3.542,2.092,6.386,7.136,1.825"/>
			<path id="_x32_98" class="st3" d="M313.344,774.538c1.825,2.254,4.615,3.649,7.244-0.161"/>
			<path id="_x32_97" class="st3" d="M322.521,775.181c-0.161,2.683,0.375,4.024,2.468,3.917c1.65-0.085,3.219-1.395,4.132-2.79"/>
			<path id="_x32_96" class="st3" d="M324.614,779.098c-0.054,3.059,2.36,5.473,6.868,2.361"/>
			<path id="_x32_95" class="st3" d="M326.492,782.694c-0.858,2.307,1.716,6.064,6.761,4.132"/>
			<path id="_x32_94" class="st3" d="M315.812,776.576c-0.321,2.952,2.415,4.937,6.815,1.127"/>
			<path id="_x32_93" class="st3" d="M317.96,779.85c0.161,2.415,2.897,5.312,6.922,1.127"/>
			<path id="_x32_92" class="st3" d="M319.892,782.908c-0.322,4.132,3.488,5.312,6.707,2.146"/>
			<path id="_x32_91" class="st3" d="M314.15,779.85c0.858,0.054,1.556-0.698,1.985-1.234"/>
			<path id="_x32_90" class="st3" d="M315.974,782.855c0.751,0.161,2.04-0.537,2.469-1.395"/>
			<path id="_x32_89" class="st3" d="M317.853,787.737c0.858,0.912,3.756,0.269,4.131-0.966"/>
			<path id="_x32_88" class="st3" d="M321.072,787.684c1.61,3.756,5.901,3.595,7.672-0.644"/>
			<path id="_x32_87" class="st3" d="M327.94,788.542c0.804,2.2,2.844,3.595,6.171,2.844"/>
			<path id="_x32_86" class="st3" d="M329.55,790.796c-1.878,3.059,0.59,6.654,4.775,3.112"/>
			<path id="_x32_85" class="st3" d="M330.57,795.357c-0.214,1.932,1.557,4.132,3.971,4.4"/>
			<path id="_x32_84" class="st3" d="M322.628,789.723c-0.645,4.346,2.468,6.439,6.386,4.132"/>
			<path id="_x32_83" class="st3" d="M318.067,791.816c1.02,0.805,2.844,0.912,4.561,0.268"/>
			<path id="_x32_82" class="st3" d="M324.721,794.606c-0.967,3.649,2.79,6.278,6.009,2.2"/>
			<path id="_x32_81" class="st3" d="M319.515,792.406c0.054,1.878,1.879,3.917,5.045,3.327"/>
			<path id="_x32_80" class="st3" d="M333.414,799.489c-2.147,1.449-2.577,4.024,0.429,5.688"/>
			<path id="_x32_79" class="st3" d="M328.154,798.738c0.108,2.2,1.128,3.434,3.542,3.649"/>
			<path id="_x32_78" class="st3" d="M324.989,797.611c-3.219,2.951-0.054,6.386,3.756,3.488"/>
			<path id="_x32_77" class="st3" d="M327.243,802.011c-1.074,3.38,2.952,5.42,5.097,1.985"/>
			<path id="_x32_76" class="st3" d="M320.589,794.821c-1.18,3.327,0.322,5.527,3.058,5.312"/>
			<path id="_x32_75" class="st3" d="M316.35,794.177c0.161,1.985,1.878,2.683,3.81,2.254"/>
			<path id="_x32_74" class="st3" d="M317.583,796.27c-1.449,2.79,0.751,4.293,3.65,3.219"/>
			<path id="_x32_73" class="st3" d="M330.033,805.714c-0.483,1.771-0.216,3.059,2.414,3.649"/>
			<path id="_x32_72" class="st3" d="M330.195,808.235c-3.167,1.449-3.435,4.508-0.967,6.493"/>
			<path id="_x32_71" class="st3" d="M327.644,804.829c-1.662,1.502-1.342,4.104,0.483,5.124"/>
			<path id="_x32_70" class="st3" d="M313.56,795.035c-1.825,1.798-0.081,6.761,3.943,4.052"/>
			<path id="_x32_69" class="st3" d="M324.024,801.313c-2.469,2.039-1.342,5.742,2.736,4.722"/>
			<path id="_x32_68" class="st3" d="M319.944,799.757c-1.287,3.649-0.053,4.936,2.845,4.991"/>
			<path id="_x32_67" class="st3" d="M310.876,794.874c-2.2,1.663-1.61,4.024-0.643,5.098c0.965,1.073,2.789,0.59,3.379-0.805"/>
			<path id="_x32_66" class="st3" d="M306.261,793.426c-2.468,3.166,0,6.922,3.489,5.795"/>
			<path id="_x32_65" class="st3" d="M319.462,802.816c-2.522,0.912-4.446,3.203-2.899,5.205c0.913,1.181,4.883,1.341,6.01-3.22"/>
			<path id="_x32_64" class="st3" d="M314.901,799.865c-1.449,2.093-0.966,4.078,1.717,5.098"/>
			<path id="_x32_63" class="st3" d="M314.74,803.782c-1.557,0.859-2.576,1.878-2.2,3.756"/>
			<path id="_x32_62" class="st3" d="M311.253,800.509c-0.59,2.522,0.107,4.078,1.662,4.829"/>
			<path id="_x32_61" class="st3" d="M311.198,803.513c-2.415-0.161-3.648,0.858-2.844,3.22"/>
			<path id="_x32_60" class="st3" d="M308.569,804.104c-2.361-0.859-2.737-2.898-1.718-5.044"/>
			<path id="_x32_59" class="st3" d="M306.531,802.226c-2.577,0.107-3.703,1.395-3.703,3.166"/>
			<path id="_x32_58" class="st3" d="M303.042,792.191c-1.878,0.805-2.468,3.327-1.771,4.722c0.699,1.395,2.899,1.502,4.24,0.59"/>
			<path id="_x32_57" class="st3" d="M297.783,790.206c-1.717,1.932,0.268,5.688,3.327,4.776"/>
			<path id="_x32_55" class="st3" d="M293.383,788.704c-1.61,2.254,0.161,6.01,4.293,4.937"/>
			<path id="_x32_54" class="st3" d="M297.89,804.104c-0.429-2.683,2.361-4.454,5.796-0.966"/>
			<path id="_x32_53" class="st3" d="M302.022,797.718c-1.019,0.912-1.501,2.361-1.341,3.542"/>
			<path id="_x32_52" class="st3" d="M288.983,787.415c-1.771,3.005,0.376,5.742,4.186,4.669"/>
			<path id="_x32_51" class="st3" d="M298.911,794.874c-2.522,2.522-1.664,5.044,0.214,6.493"/>
			<path id="_x32_50" class="st3" d="M297.3,797.826c-3.81,0.054-4.024,4.454-0.911,5.849"/>
			<path id="_x32_49" class="st3" d="M294.403,793.426c-1.555,1.073-2.039,4.024,0.645,5.205"/>
			<path id="_x32_48" class="st3" d="M294.296,800.025c-1.61-0.751-3.542,0.161-3.381,2.039"/>
			<path id="_x32_47" class="st3" d="M291.88,800.079c-1.449-3.434-5.688-2.844-5.311,0.698"/>
			<path id="_x32_46" class="st3" d="M293.061,795.84c-0.911,0.161-2.736,0.698-3.433,2.093"/>
			<path id="_x32_45" class="st3" d="M289.896,791.977c-1.717,1.932-0.376,4.239,1.02,4.722"/>
			<path id="_x32_44" class="st3" d="M284.798,786.557c-0.322,2.307,0.591,3.434,3.488,3.22"/>
			<path id="_x32_43" class="st3" d="M285.818,789.508c-1.128,2.79,0.375,4.025,3.272,3.864"/>
			<path id="_x32_42" class="st3" d="M286.461,792.942c-1.717,2.039-0.536,4.239,1.126,5.151"/>
			<path id="_x32_41" class="st3" d="M285.657,795.518c-3.058-0.376-3.542,3.166-2.522,4.829"/>
			<path id="_x32_40" class="st3" d="M283.187,786.289c-1.877,0.805-2.951,3.166-1.931,4.615c1.02,1.449,3.059,0.966,4.185,0.215"/>
			<path id="_x32_39" class="st3" d="M281.9,791.547c-1.556,2.361-0.161,4.132,1.503,4.829"/>
			<path id="_x32_38" class="st3" d="M275.89,786.021c-1.234,1.288-0.483,3.917,2.522,3.971c2.419,0.043,3.649-2.254,2.898-3.864"/>
			<path id="_x32_37" class="st3" d="M277.983,789.991c-0.966,2.147-0.375,4.454,3.273,4.078"/>
			<path id="_x32_36" class="st3" d="M282.812,797.45c-2.254-1.02-5.258,0-3.971,2.683"/>
			<path id="_x32_35" class="st3" d="M278.52,793.64c-0.912,1.288-0.59,3.112,0.429,4.239"/>
			<path id="_x32_34" class="st3" d="M278.359,797.074c-1.503,0.268-2.952,1.073-2.039,3.434"/>
			<path id="_x32_33" class="st3" d="M276.105,798.577c-1.932-0.59-4.4,0.805-2.898,2.79"/>
			<path id="_x32_32" class="st3" d="M272.885,799.489c-1.663-0.268-3.649,1.502-2.039,3.273"/>
			<path id="_x32_31" class="st3" d="M270.203,801.313c-1.503,0.376-3.273,2.093-1.717,3.435"/>
			<path id="_x32_30" class="st3" d="M277.768,792.889c-2.146,0.966-2.361,3.381-1.341,5.151"/>
			<path id="_x32_29" class="st3" d="M275.515,788.435c-3.22,1.234-3.166,5.527,0.375,6.868"/>
			<path id="_x32_28" class="st3" d="M274.388,794.338c-1.932,1.127-2.307,3.273-1.02,4.668"/>
			<path id="_x32_27" class="st3" d="M271.007,786.825c-1.288,0.429-1.181,4.4,2.254,4.293"/>
			<path id="_x32_26" class="st3" d="M267.466,788.167c-2.576,1.717,0.537,6.063,4.722,2.952"/>
			<path id="_x32_25" class="st3" d="M269.88,792.191c-0.376,1.771,0.107,3.702,2.952,3.917"/>
			<path id="_x32_24" class="st3" d="M270.042,794.552c-2.039,0.751-2.415,4.937,1.288,5.258"/>
			<path id="_x32_23" class="st3" d="M263.549,790.743c-2.629,2.415,2.146,4.507,3.917,1.02"/>
			<path id="_x32_22" class="st3" d="M259.9,794.767c-1.288,1.556,3.219,5.634,5.205-1.181"/>
			<path id="_x32_21" class="st3" d="M265.588,793.479c0.107,1.61,1.073,2.576,3.059,2.683"/>
			<path id="_x32_20" class="st3" d="M268.593,797.718c-3.166,0.483-4.186,4.454-0.644,5.313"/>
			<path id="_x32_19" class="st3" d="M262.744,797.182c-0.107,1.502,1.449,2.737,3.22,2.468"/>
			<path id="_x32_18" class="st3" d="M267.573,802.923c-2.897,0.644-3.273,4.4-0.698,4.185"/>
			<path id="_x32_17" class="st3" d="M265.534,810.596c-2.415-0.724-2.468-3.595-0.322-4.668"/>
			<path id="_x32_16" class="st3" d="M263.549,808.075c-2.039,1.234-1.234,4.185-0.161,4.615c1.073,0.429,1.932-0.107,2.039-1.02"/>
			<path id="_x32_15" class="st3" d="M265.266,815.802c0.215,1.395-4.964,0.858-2.307-3.488"/>
			<path id="_x32_14" class="st3" d="M262.932,816.043c-1.744,2.737,1.1,4.964,2.897,2.63"/>
			<path id="_x32_13" class="st3" d="M263.173,819.343c-0.698,2.2,1.958,3.783,3.675,2.066"/>
			<path id="_x32_12" class="st3" d="M257.378,798.738c-0.966,1.986,3.864,2.737,4.186-1.341"/>
			<path id="_x32_11" class="st3" d="M256.036,801.689c-0.966,3.863,6.332,3.059,4.454-1.932"/>
			<path id="_x32_10" class="st3" d="M260.651,802.333c1.019,0.59,4.078,0.644,4.829-2.63"/>
			<path id="_x32_09" class="st3" d="M263.281,802.44c0.215,1.02,1.127,2.254,1.985,2.63"/>
			<path id="_x32_08" class="st3" d="M259.793,803.46c-0.322,2.093,1.771,3.81,4.186,3.649"/>
			<path id="_x32_07" class="st3" d="M260.168,805.499c-1.181,1.61-1.556,4.722,2.146,4.937"/>
			<path id="_x32_06" class="st3" d="M254.534,806.036c-0.59,1.663,2.897,3.38,4.937,0.644"/>
			<path id="_x32_05" class="st3" d="M253.461,810.274c-0.296,1.261,2.844,2.952,4.615-2.415"/>
			<path id="_x32_04" class="st3" d="M256.68,810.596c0.751,1.341,3.273,2.415,4.829-0.215"/>
			<path id="_x32_03" class="st3" d="M258.988,811.992c-0.644,1.878,1.127,3.649,3.273,3.112"/>
			<path id="_x32_02" class="st3" d="M254.963,811.562c-0.429,2.683,2.683,4.239,4.615,2.844"/>
			<path id="_x32_01" class="st3" d="M252.924,812.743c-0.912,3.434,3.488,4.722,5.151,2.146"/>
			<path id="_x32_00" class="st3" d="M256.948,815.909c0.161,1.932,3.166,3.595,5.527,1.985"/>
			<path id="_x31_99" class="st3" d="M251.583,817.519c-0.215,0.858,3.381,1.717,3.917-1.288"/>
			<path id="_x31_98" class="st3" d="M253.675,818.27c0.859,2.2,3.756,2.737,5.42,0.054"/>
			<path id="_x31_97" class="st3" d="M258.129,819.397c0.376,2.039,3.005,3.166,5.312,1.771"/>
			<path id="_x31_96" class="st3" d="M264.407,821.972c-0.59,2.737,2.254,4.937,4.025,3.434"/>
			<path id="_x31_95" class="st3" d="M259.846,821.489c-0.859,3.005,2.897,4.722,4.99,3.059"/>
			<path id="_x31_94" class="st3" d="M255.339,819.987c-0.214,2.79,1.985,4.453,4.508,3.219"/>
			<path id="_x31_93" class="st3" d="M250.563,820.255c-0.752,1.824,3.219,3.327,5.097,1.771"/>
			<path id="_x31_92" class="st3" d="M248.095,825.246c1.02,1.181,4.561,0,4.883-2.629"/>
			<path id="_x31_91" class="st3" d="M252.012,824.548c1.288,1.503,4.346,2.307,5.581-0.912"/>
			<path id="_x31_90" class="st3" d="M256.519,825.299c-0.054,2.307,4.078,3.971,5.42-0.268"/>
			<path id="_x31_89" class="st3" d="M266.795,825.863c-0.376,1.127,0.51,2.924,2.361,3.139"/>
			<path id="_x31_88" class="st3" d="M263.388,825.165c-0.268,1.288,1.61,3.085,3.595,2.361"/>
			<path id="_x31_87" class="st3" d="M267.359,828.063c-0.537,1.395-0.081,3.407,1.797,3.381"/>
			<path id="_x31_86" class="st3" d="M267.546,830.665c-1.395,1.181-0.805,3.273,1.208,3.354"/>
			<path id="_x31_85" class="st3" d="M266.822,832.65c-1.985,1.341-1.288,4.292,1.341,4.133"/>
			<path id="_x31_84" class="st3" d="M260.812,826.963c0,2.898,3.595,3.327,4.293,0.644"/>
			<path id="_x31_83" class="st3" d="M263.71,829.324c-0.537,1.717,0.858,3.38,3.058,2.898"/>
			<path id="_x31_82_1_" class="st3" d="M264.139,850.036c0.483,0.699,2.468-0.482,1.932-1.662c-0.537-1.181-2.64-0.539-2.415,0.697
				"/>
			<path id="_x31_82" class="st3" d="M265.588,847.89c0.268-2.361-2.522-2.736-3.22-0.697"/>
			<path id="_x31_81" class="st3" d="M263.388,846.012c0.698-1.181-1.663-2.79-2.629-1.074"/>
			<path id="_x31_80" class="st3" d="M261.617,844.242c0.644-1.718-2.039-2.468-2.254-0.912"/>
			<path id="_x31_79" class="st3" d="M258.773,841.075c0.322-0.858,3.327-0.322,2.039,1.449"/>
			<path id="_x31_78" class="st3" d="M263.119,844.671c1.181-1.074-0.805-3.273-2.039-2.468"/>
			<path id="_x31_77" class="st3" d="M271.061,847.944c-0.939,0.107-1.905,0.724-1.208,2.71c0.484,1.378,2.549,1.449,2.844,0.617"/>
			<path id="_x31_76" class="st3" d="M269.693,848.936c-0.912-0.59-2.898,0.403-1.985,2.335c0.687,1.454,2.415,0.858,2.683,0.107"/>
			<path id="_x31_75" class="st3" d="M264.568,851.7c0.456,0.804,2.736,0.457,3.139-0.429"/>
			<path id="_x31_74" class="st3" d="M266.124,849.044c0.483-0.322,1.368,0.079,1.556,0.482"/>
			<path id="_x31_73" class="st3" d="M265.963,835.816c-1.556,1.02-0.59,4.132,1.824,3.327"/>
			<path id="_x31_72" class="st3" d="M265.48,838.339c-1.234,0.966-0.107,3.971,2.2,2.845"/>
			<path id="_x31_71" class="st3" d="M265.856,841.183c-0.858,0.858-0.027,3.246,2.2,2.79"/>
			<path id="_x31_70" class="st3" d="M265.534,842.364c-0.483-0.215-1.744-0.054-2.281,0.75"/>
			<path id="_x31_69" class="st3" d="M264.139,831.497c-1.18,1.127-0.617,3.435,1.583,3.622"/>
			<path id="_x31_68" class="st3" d="M263.71,833.858c-1.691,0.832-1.691,4.185,1.69,4.319"/>
			<path id="_x31_67" class="st3" d="M263.575,837.642c-0.939,0.751-0.483,3.648,1.932,3.272"/>
			<path id="_x31_66" class="st3" d="M264.354,840.807c-0.349,0.349-0.403,1.235-0.107,1.61"/>
			<path id="_x31_65" class="st3" d="M263.281,839.707c-0.858,0.026-1.985,0.645-2.281,1.529"/>
			<path id="_x31_64" class="st3" d="M259.444,838.123c0.322-0.858,2.979-0.804,3.166,1.718"/>
			<path id="_x31_63" class="st3" d="M262.878,836.836c-0.376,0.08-1.1,0.429-1.288,1.154"/>
			<path id="_x31_62" class="st3" d="M261.724,828.975c-1.154,1.046-1.717,4.347,1.798,4.99"/>
			<path id="_x31_61" class="st3" d="M259.39,835.79c0-0.886,2.388-1.638,3.22-0.322"/>
			<path id="_x31_60" class="st3" d="M257.861,830.987c0.349,0.671,2.012,1.583,3.032,0.832"/>
			<path id="_x31_59" class="st3" d="M249.222,825.729c-0.053,1.556,1.234,2.951,3.005,2.737c1.771-0.215,2.146-1.771,1.61-2.79"/>
			<path id="_x31_58" class="st3" d="M252.495,828.519c-1.181,1.449,0.268,3.488,1.61,2.897"/>
			<path id="_x31_57" class="st3" d="M253.836,827.499c0.698-0.268,3.005-0.59,3.702,0.483"/>
			<path id="_x31_56" class="st3" d="M246.378,827.928c-0.536,0.805,2.791,1.61,3.917,0.054"/>
			<path id="_x31_55" class="st3" d="M249.168,828.787c-0.108,1.073,0.429,2.897,3.166,2.147"/>
			<path id="_x31_54" class="st3" d="M252.763,832.597c0.429-0.912-1.61-2.414-3.166-0.751c-1.556,1.663,0.215,3.542,1.181,2.897"/>
			<path id="_x31_53" class="st3" d="M245.627,829.002c-0.805,1.395,2.307,3.944,4.078,1.583"/>
			<path id="_x31_52" class="st3" d="M243.56,831.416c-1.127,1.154,0.268,3.274,1.959,2.629c1.69-0.644,1.529-2.415,1.127-2.87"/>
			<path id="_x31_51" class="st3" d="M241.388,833.563c-0.912,0.831-0.027,2.79,1.234,2.79c1.261,0,2.039-0.992,1.797-2.253"/>
			<path id="_x31_50" class="st3" d="M246.512,833.402c-0.161,1.234,1.663,2.092,2.844,0.94"/>
			<path id="_x31_49" class="st3" d="M249.409,832.087c0.161-0.268,0.027-0.725-0.241-0.939"/>
			<path id="_x31_48" class="st3" d="M239.429,835.226c-1.046,0.832,1.208,3.139,2.629,1.019"/>
			<path id="_x31_47" class="st3" d="M247.504,834.771c-0.671,0.643,0.402,2.333,1.476,1.824"/>
			<path id="_x31_46" class="st3" d="M243.829,835.951c0.161,1.153,2.415,2.011,3.837,0.242"/>
			<path id="_x31_45" class="st3" d="M245.063,837.104c-0.349,0.725,0.349,1.879,1.208,1.718"/>
			<path id="_x31_44" class="st3" d="M266.419,843.732c-0.831,1.636,1.825,3.542,3.756,1.556"/>
			<path id="_x31_43" class="st3" d="M268.351,846.174c-0.402,0.885,0.081,2.119,0.805,2.575"/>
			<path id="_x31_42" class="st3" d="M265.829,848.025c0.188-0.805,1.341-1.557,2.388-1.18"/>
			<path id="_x31_41" class="st3" d="M264.434,845.904c0.161-0.724,1.127-1.449,1.852-1.26"/>
			<path id="_x31_40" class="st3" d="M327.618,812.421c-3.81,0.054-2.2,6.171,1.074,4.936"/>
			<path id="_x31_39" class="st3" d="M326.385,816.928c-0.751,1.234,0.697,3.193,2.307,2.039"/>
			<path id="_x31_38" class="st3" d="M328.263,819.209c-1.128,1.878,2.897,4.749,4.507,1.798"/>
			<path id="_x31_37" class="st3" d="M331.482,822.133c0.053,1.771,5.204,2.898,4.454-0.644"/>
			<path id="_x31_36" class="st3" d="M335.453,823.421c1.233,2.092,5.849,2.307,5.365-0.805"/>
			<path id="_x31_35" class="st3" d="M339.799,824.763c0.966,1.395,5.474,2.254,5.313-0.644"/>
			<path id="_x31_34" class="st3" d="M321.501,807.109c0.643,1.663,2.843,2.254,5.258,1.288"/>
			<path id="_x31_33" class="st3" d="M320.105,808.289c1.503,0.966-0.697,5.366-3.004,3.595"/>
			<path id="_x31_32" class="st3" d="M320.105,811.026c1.664,0.805,3.703,0.214,4.293-2.146"/>
			<path id="_x31_31" class="st3" d="M323.379,810.704c0.161,1.234,1.932,2.2,4.239,1.717"/>
			<path id="_x31_30" class="st3" d="M319.247,811.992c2.147,1.825-0.966,5.581-2.361,3.864"/>
			<path id="_x31_29" class="st3" d="M320.053,813.387c1.02,0.751,3.649,0.322,3.917-1.663"/>
			<path id="_x31_28" class="st3" d="M322.789,813.387c0.215,1.288,1.235,1.771,2.683,1.825"/>
			<path id="_x31_27" class="st3" d="M319.462,815.158c1.072,1.502,3.756,1.932,4.936-0.054"/>
			<path id="_x31_26" class="st3" d="M323.218,816.231c-0.107,1.449,1.503,2.629,3.167,2.307"/>
			<path id="_x31_25" class="st3" d="M317.369,819.45c1.395,0.698,2.897-1.932,1.717-3.756"/>
			<path id="_x31_24" class="st3" d="M318.979,822.241c1.664,0.107,1.878-2.415,0.322-3.81"/>
			<path id="_x31_23" class="st3" d="M322.789,824.548c1.396-0.322,0.965-3.38-2.415-3.649"/>
			<path id="_x31_22" class="st3" d="M327.028,826.802c1.342-0.376,0.268-3.756-3.433-3.542"/>
			<path id="_x31_21" class="st3" d="M332.127,827.982c0.911-1.395-2.093-3.756-4.561-2.522"/>
			<path id="_x31_20" class="st3" d="M334.647,829.914c1.664,0.483,2.79-3.917-2.468-3.219"/>
			<path id="_x31_19" class="st3" d="M337.706,829.914c1.45-0.375,2.469-3.005-1.77-2.146"/>
			<path id="_x31_18" class="st3" d="M340.926,830.129c1.287,0.644,1.878-3.112-2.04-2.093"/>
			<path id="_x31_17" class="st3" d="M319.301,818.431c1.61,0.912,4.132-0.161,3.917-2.2"/>
			<path id="_x31_16" class="st3" d="M322.573,818.002c0.537,0.966,0.322,2.844-0.697,3.327"/>
			<path id="_x31_15" class="st3" d="M322.735,820.255c1.074,0.429,2.522,0.054,3.381-1.663"/>
			<path id="_x31_14" class="st3" d="M324.614,820.255c0.321,0.751,0.429,2.254-0.27,3.005"/>
			<path id="_x31_13" class="st3" d="M324.882,821.543c1.181,0.644,2.575-0.214,3.165-1.449"/>
			<path id="_x31_12" class="st3" d="M327.296,821.167c0.858,0.537,1.61,3.059,0.161,4.078"/>
			<path id="_x31_11" class="st3" d="M328.263,824.065c1.019,0.053,2.522,0.053,3.487-1.234"/>
			<path id="_x31_10" class="st3" d="M331.053,823.528c0.913,0.268,1.985,1.771,1.61,3.112"/>
			<path id="_x31_09" class="st3" d="M332.715,826.158c1.021-0.107,2.79-0.805,3.273-2.039"/>
			<path id="_x31_07" class="st3" d="M335.505,824.924c0.86,0.483,1.45,1.503,1.342,2.683"/>
			<path id="_x31_06" class="st3" d="M336.847,826.748c1.02-0.054,1.932-0.59,2.2-1.717"/>
			<path id="_x31_05" class="st3" d="M338.779,825.782c0.751,0.269,1.664,1.127,1.718,2.146"/>
			<path id="_x31_04" class="st3" d="M340.389,827.285c0.751-0.107,1.287-0.59,1.771-1.341"/>
			<path id="_x31_03" class="st3" d="M344.198,825.836c0.967,0.966-0.321,4.186-2.307,3.595"/>
			<path id="_x31_02" class="st3" d="M323.594,760.801c-1.986,1.18-7.621,0.805-4.83-3.864"/>
			<path id="_x31_01" class="st3" d="M324.13,757.635c-3.917,1.556-8.747-1.449-3.703-4.722"/>
			<path id="_x31_00" class="st3" d="M319.086,751.839c-3.274,0-5.474,5.259-1.072,7.083"/>
			<path id="_x39_9" class="st3" d="M306.369,754.039c-0.858,1.663,2.2,3.488,4.293,1.825c1.621-1.289,1.502-4.776,0.536-6.117"/>
			<path id="_x39_8" class="st3" d="M304.706,758.01c-1.074,3.541,6.815,3.756,5.58-1.878"/>
			<path id="_x39_7" class="st3" d="M304.276,763.269c0.268,2.683,7.567,1.824,5.204-3.595"/>
			<path id="_x39_6" class="st3" d="M310.34,758.171c0.59,0.805,2.2,2.2,4.936,1.932"/>
			<path id="_x39_5" class="st3" d="M311.628,754.361c0.242,0.966,1.878,1.717,3.971,0.993"/>
			<path id="_x39_4" class="st3" d="M238.409,836.004c-1.851,1.315,0.993,3.381,2.039,1.1"/>
			<path id="_x39_3" class="st3" d="M236.96,837.025c-1.851,1.314,0.993,3.379,2.039,1.099"/>
			<path id="_x39_2" class="st3" d="M235.431,838.017c-1.852,1.315,0.992,3.381,2.039,1.1"/>
			<path id="_x39_1" class="st3" d="M233.822,838.929c-1.771,0.939,0.295,3.246,2.092,1.207"/>
			<path id="_x39_0" class="st3" d="M232.077,839.815c-1.771,0.938,0.295,3.246,2.093,1.207"/>
			<path id="_x38_9" class="st3" d="M241.066,837.051c-0.027,1.368,2.576,1.932,3.514-0.108"/>
			<path id="_x38_8" class="st3" d="M242.702,838.312c-0.805,1.02,0.671,2.281,1.476,1.824"/>
			<path id="_x38_7" class="st3" d="M239.241,838.123c-0.081,1.154,2.173,1.825,3.273,0.564"/>
			<path id="_x38_6" class="st3" d="M240.475,839.332c-0.725,0.939,0.698,2.2,1.61,1.824"/>
			<path id="_x38_5" class="st3" d="M237.739,839.171c0.08,0.912,1.368,1.958,2.763,1.368"/>
			<path id="_x38_4" class="st3" d="M238.57,840.404c-0.537,0.483-0.268,1.611,0.483,1.96"/>
			<path id="_x38_3" class="st3" d="M235.78,840.323c-0.215,0.832,1.207,2.309,2.656,1.342"/>
			<path id="_x38_2" class="st3" d="M236.075,841.29c-0.858,0.671-0.751,1.69,0.349,1.824"/>
			<path id="_x38_1" class="st3" d="M234.009,841.183c-0.107,0.563,0.617,1.475,1.53,1.368"/>
			<path id="_x38_0" class="st3" d="M229.421,841.129c-0.859,0.456,1.341,2.79,2.709,0.617"/>
			<path id="_x37_9" class="st3" d="M227.302,842.094c-1.073,0.511,1.583,3.086,2.764,0.457"/>
			<path id="_x37_8" class="st3" d="M234.251,841.987c-0.832,0.188-1.368,1.396-0.671,1.878"/>
			<path id="_x37_7" class="st3" d="M231.541,842.416c-0.107,0.483,0.912,1.288,1.744,0.993"/>
			<path id="_x37_6" class="st3" d="M230.843,842.632c-0.805,0.51-0.376,1.93,0.564,1.716"/>
			<path id="_x37_5" class="st3" d="M227.973,843.571c-0.751,0.563-0.242,1.69,0.805,1.422"/>
			<path id="_x37_4" class="st3" d="M229.341,843.49c0.027,0.295,0.698,0.752,1.261,0.564"/>
			<path id="_x37_3" class="st3" d="M225.37,843.007c-0.939,0.403-0.885,2.764,2.281,1.476"/>
			<path id="_x37_2" class="st3" d="M223.251,843.946c-1.315,0.645-0.886,2.415,1.985,0.725"/>
			<path id="_x37_1" class="st3" d="M225.477,844.805c-0.349,0.268-0.724,1.449,0.59,0.992"/>
			<path id="_x37_0" class="st3" d="M223.062,845.368c-0.536,0.483-0.188,1.477,0.993,1.1"/>
			<path id="_x36_9" class="st3" d="M220.299,845.529c-0.966,0.564,1.153,1.315,2.576-0.188"/>
			<path id="_x36_8" class="st3" d="M220.943,846.226c-0.429,0.429-0.429,1.69,0.698,1.235"/>
			<path id="_x36_7" class="st3" d="M218.207,846.736c-0.644,0.483,0.456,1.128,2.468,0.242"/>
			<path id="_x36_6" class="st3" d="M219.011,847.435c-0.751,0.617-0.671,1.395,0.429,1.153"/>
			<path id="_x36_5" class="st3" d="M216.784,847.783c-0.832,0.751,0.376,1.261,1.825,0.643"/>
			<path id="_x36_4_1_" class="st3" d="M216.811,848.615c-1.422,0.643-0.805,1.824,0.08,1.368"/>
			<path id="_x36_3" class="st3" d="M264.3,852.719c-0.33,0.71,0.751,1.287,1.771,1.126c0.979-0.154,1.916-0.961,1.18-2.092"/>
			<path id="_x36_2" class="st3" d="M267.305,853.148c0.966,0.751,2.683-0.107,2.683-1.235"/>
			<path id="_x36_1" class="st2" d="M326.492,739.444c-4.293-2.146-13.2-6.117-15.722-2.898c2.307-0.966,9.068,0.054,14.648,5.205
				L326.492,739.444z"/>
			<path id="_x36_0" class="st2" d="M329.094,739.216c-4.964-5.782-7.887-4.488-11.457-6.479c-3.353-1.871-8.693-2.254-9.728,0.722
				c4.898-2.386,9.396,1.283,12.158,1.727c3.795,0.609,5.936,3.542,7.046,4.892L329.094,739.216z"/>
			<path id="_x35_9" class="st2" d="M347.794,738.478c-2.576-5.903-8.085-4.361-10.518-6.868c-3.54-3.649-12.501-7.029-16.204-4.508
				c8.156-0.429,11.629,5.622,15.99,7.727C340.175,736.332,343.502,739.552,347.794,738.478z"/>
			<path id="_x35_8" class="st2" d="M338.136,737.834c-4.4-5.473-11.162-10.303-14.273-8.478c4.078,0.215,5.365,3.059,8.264,4.883
				C335.024,736.064,333.736,738.693,338.136,737.834z"/>
			<path id="_x35_7" class="st2" d="M317.208,747.493c-4.615-1.717-13.629-2.576-17.815,2.683
				C306.369,751.357,316.886,750.713,317.208,747.493z"/>
			<path id="_x35_6" class="st2" d="M316.35,749.532c-4.615-2.146-8.219,0.852-12.557,0.429c-8.262-0.805-14.165-0.322-14.917,3.649
				c4.722-4.239,12.664-0.751,15.883-1.61c3.219-0.859,15.132-0.107,18.887,1.502C321.715,751.142,318.711,750.498,316.35,749.532z"
				/>
			<path id="_x35_5" class="st2" d="M330.837,737.244c-1.072-3.541-1.02-7.298,4.293-7.029c-1.341-1.663-6.278-2.522-7.083,3.703
				c-5.849-4.293-12.235-5.044-13.414-1.341c3.004-2.576,7.672-0.698,13.253,5.634C328.369,737.941,329.657,737.405,330.837,737.244
				z"/>
			<path id="_x35_4" class="st2" d="M322.789,742.127c-3.327-2.146-7.835-5.634,0.054-7.029c-3.381-1.825-8.318-1.02-7.781,5.205
				c-9.015-3.649-15.489-2.417-16.85,1.181c-1.503,3.971,4.079,6.171,5.044,3.649c-1.019,0.429-4.507-0.751-2.683-3.005
				c1.825-2.254,11.175-0.562,20.07,4.078C323.111,747.493,331.589,747.278,322.789,742.127z"/>
			<path id="_x35_3" class="st2" d="M320.428,748.03c-2.567-5.241-10.893-0.483-12.571-5.559
				C305.564,749.908,319.697,745.792,320.428,748.03z"/>
			<path id="_x35_2" class="st2" d="M373.39,753.718c1.746,0.868,3.256-0.496,0.585-1.566c1.747,0.867,3.271-0.464,0.6-1.534
				c1.747,0.867,3.271-0.464,0.6-1.534C374.462,749.8,373.443,752.429,373.39,753.718z"/>
			<path id="_x35_1" class="st2" d="M374.301,743.629c3.864-4.078-0.321-5.473,4.4-9.659c3.864-3.424,0.738-5.707,4.401-8.371
				c1.181-0.858,3.756-2.576,3.971-4.293c1.555,3.864-4.831,4.4-4.402,10.625c0.274,3.963-2.405,3.617-3.433,10.302
				C379.024,743.629,378.059,746.742,374.301,743.629z"/>
			<path id="_x35_0" class="st2" d="M376.019,745.454c2.146-4.615,4.61-4.526,5.795-6.332c2.254-3.434,7.029,0.59,11.054-2.468
				c-0.697,4.346-6.117,2.79-8.478,5.58C382.029,745.024,380.097,746.313,376.019,745.454z"/>
			<path id="_x34_9" class="st2" d="M376.556,746.956c3.757-3.005,6.525-1,9.122-2.576c6.546-3.971,9.176,0.805,15.025-1.073
				c-1.557,3.756-10.196,0.537-13.951,3.327C382.994,749.425,369.794,752.107,376.556,746.956z"/>
			<path id="_x34_8" class="st2" d="M365.61,768.367c-0.054-1.717-1.664-3.917-3.918-4.186c-2.253-0.268-3.219-2.63-4.936-2.737
				c-1.716-0.107-2.844-3.542-5.205-3.488c-2.361,0.054-3.327,3.112,2.2,5.903C359.278,766.649,365.394,769.869,365.61,768.367z"/>
			<path id="_x34_7" class="st2" d="M358.633,769.815c-2.361,0.107-2.683,3.542-4.936,3.649c3.111,1.663,5.365-0.751,6.975-2.898
				L358.633,769.815z"/>
			<path id="_x34_6" class="st2" d="M360.565,770.245c-2.039,1.717-2.629,5.312,0.322,6.332c-1.771-2.441,3.112-3.541,1.61-5.795
				L360.565,770.245z"/>
			<path id="_x34_5" class="st2" d="M362.604,770.352c-1.61,3.112,2.522,3.488,1.449,5.849c2.361-0.537,2.738-4.991,0.59-6.171
				L362.604,770.352z"/>
			<path id="_x34_4" class="st2" d="M346.828,763.698c3.864-0.214,7.397,1.876,9.767,5.259c1.503,2.146,6.546,3.005,8.264,1.288
				c1.717-1.717,0.751-5.366-3.542-4.185c-1.074-1.825-4.186-1.181-5.688-2.683C354.127,761.874,348.331,757.581,346.828,763.698z"
				/>
			<path id="_x34_3" class="st6" d="M361.317,766.059c-1.02,0.215-1.342,1.985-0.699,2.897"/>
			<path id="_x34_2" class="st6" d="M363.517,767.132c0.322,0.537,0.107,1.288-0.054,1.664"/>
			<path id="_x34_1" class="st6" d="M352.946,763.859c1.985,0.107,2.361,1.556,4.507,2.093"/>
			<path id="_x34_0" class="st2" d="M351.635,758.976c6.857,1.717,12.297,3.22,15.671,5.151c3.374,1.932,8.597,2.468,13.168,1.181
				c4.571-1.288,13.385-2.468,12.95,3.219c2.396-2.844-0.653-5.903-6.747-6.439c0.11-2.79-2.876-5.312-5.023-3.649
				c1.986-0.268,3.7,3.434-0.217,4.937c0.761-2.79-2.014-5.312-4.897-4.078c1.85,0.537,3.721,3.639-0.418,4.829
				c-2.613,0.751-6.421-0.215-9.25-1.932C364.042,760.479,348.153,754.254,351.635,758.976z"/>
			<path id="_x33_9" class="st2" d="M368.936,756.186c-2.146,0.966-0.751,3.219-4.078,4.507c-3.328,1.288-5.635,4.239-4.883,6.761
				c2.254-4.937,6.225-4.722,7.619-6.654C368.99,758.869,371.029,756.025,368.936,756.186z"/>
			<path id="_x33_8" class="st2" d="M369.526,756.508c-0.107,3.917-3.19,2.49-1.986,7.995c0.376,1.717,1.074,4.507-0.107,7.298
				c3.461-2.522,1.235-7.82,2.79-9.82c0.751-0.966,1.717-2.468,2.093-3.756c-0.806,2.254-0.751,6.439,1.449,7.512
				c-1.771-4.186,4.776-7.62,0.268-12.449C373.39,754.469,371.35,756.561,369.526,756.508z"/>
			<path id="_x33_7" class="st2" d="M358.579,752.591c0.538,0.805,1.074,2.844,0.59,3.971c1.074-0.644,2.631-2.307,3.112-3.434
				c2.2,0.322,3.059,3.059,0.967,4.239c1.287,0,3.488,0,4.721-1.449C366.468,754.254,361.8,751.678,358.579,752.591z"/>
			<path id="_x33_6" class="st2" d="M325.203,744.892c-0.347-0.316-0.933-0.617-1.985-0.833c-3.249-0.666-1.571-3.595,1.194-3.569
				c5.901-6.439,9.215-1.475,16.406-3.514c2.517-0.714,4.244-0.503,5.615,0.091c3.22-2.146,6.996-1.547,9.733,0.976
				c0.304-0.484,0.713-0.853,1.286-1.012c2.521-0.7,4.56,1.449,5.257,4.24c1.965-0.364,4.21,0.609,5.686,1.95
				c2.045-1.05,3.453-1.097,3.971-0.017c1.825-0.859,4.189-1.397,5.369,1.501c1.18,2.898-2.79,2.039-3.435,8.156
				c-0.397,3.774-4.614,5.259-7.942,3.005c-5.322-3.606-10.517-4.186-13.093,1.288c-2.575,5.473-4.593,8.653-10.839,6.868
				c-2.253-0.644-5.151,0.215-6.975,2.683c-1.825,2.468-4.615,0.161-7.942,0.429c4.185-0.644,2.582-1.696,6.225-1.932
				c3.326-0.215,2.468-3.327,4.614-3.756c-8.371,2.146-8.049-0.966-14.917,1.18c3.004-3.863,7.727-1.717,10.088-3.971
				c-6.225-0.107-9.008-4.174-11.806-2.468c-4.4,2.683-2.469,10.321-13.951,9.659c-5.581-0.322-9.122,0.429-12.449,3.756
				c5.796-12.02,13.679-5.416,17.493-9.229c2.254-2.254,3.971-3.971,5.151-6.117c0.415-0.755,0.978-1.187,1.681-1.354
				C310.089,749.895,315.865,745.214,325.203,744.892z"/>
			<path id="_x33_5" class="st6" d="M372.364,743.203c0.146,0.302,0.221,0.693,0.221,1.177c0,2.361-3.542,2.468-3.756,5.956
				c-0.112,1.825-0.322,2.844-1.557,2.629c-1.233-0.215-2.307-2.146-1.127-4.4"/>
			<path id="_x33_4" class="st2" d="M326.974,741.376c-0.889-0.624-1.778-0.878-2.575-0.886"/>
			<path id="_x33_3" class="st2" d="M346.414,737.049c2.841,1.23,4.228,4.182,8.355,4.326c3.974,0.14,6.44,5.903,13.093,2.146
				c0.181-0.102,0.357-0.197,0.528-0.285"/>
			<path id="_x33_2" class="st2" d="M356.167,738.042c-0.593,0.943-0.728,2.259-0.565,3.414"/>
			<path id="_x33_1" class="st2" d="M343.179,750.176c-5.043,0-6.332,2.576-6.332,5.044c0,2.468,2.361,5.688,6.547,5.688
				c4.185,0,6.439-2.576,6.439-5.366C349.833,752.751,347.257,750.176,343.179,750.176z"/>
			<path id="_x33_0" class="st2" d="M344.092,760.801c-0.107-1.395-2.629-1.181-2.522-2.254c0.107-1.073,1.396-1.503,1.396-3.005
				c0-1.503,2.253-1.61,3.004-0.429c0.752,1.18,3.006,3.488,3.489,2.307"/>
			<path id="_x32_9" class="st2" d="M345.969,755.113c-1.18,1.18-1.716,3.595-0.161,5.473"/>
			<path id="_x32_8" class="st2" d="M347.579,756.937c-0.375,0.805-0.482,2.039-0.053,2.79"/>
			<path id="_x32_7" class="st3" d="M367.621,752.993c3.945,0.322,4.616-4.024,1.664-4.293"/>
			<path id="_x32_6" class="st3" d="M362.765,741.268c-1.368-1.743-4.507-2.334-4.561,1.368"/>
			<path id="_x32_5_1_" class="st2" d="M357.829,746.849c-1.341-3.327-4.776-3.81-6.601-2.146c-1.518,1.384-1.556,4.991,1.718,5.742
				C354.072,749.103,356.272,747.332,357.829,746.849z"/>
			<path id="_x32_4" class="st2" d="M356.353,744.756c-1.932-1.717-4.776,1.53-2.2,4.507"/>
			<path id="_x32_3" d="M362.765,741.268c-1.18-1.261-3.756-0.268-3.032,2.281C360.297,742.369,361.504,741.376,362.765,741.268z"/>
			<path id="_x32_2" d="M355.471,748.143c0.813-0.59,1.651-1.075,2.358-1.294c-0.386-0.955-0.943-1.675-1.586-2.178
				C355.629,744.247,353.865,746.619,355.471,748.143z"/>
			<path id="_x32_1" class="st4" d="M352.301,743.79c-1.932-1.288-3.703-1.18-4.293-0.107c-1.395-0.054-2.548,0.966-2.603,3.005"/>
			<path id="_x32_0" class="st4" d="M348.385,747.547c-2.307-1.583-5.474-0.992-5.258,2.549"/>
			<path id="_x31_9" class="st4" d="M341.731,752.107c1.126-0.912,2.736-1.556,3.971,0.054"/>
			<path id="_x31_8" class="st4" d="M358.956,748.62c-0.429,0.59-0.752,1.502-0.054,2.897c-0.858-1.127-3.004-1.127-5.313,1.878"/>
			<path id="_x31_7" class="st4" d="M364.053,748.459c-2.79,0.322-2.736,2.146-0.483,2.951"/>
			<path id="_x31_6" class="st4" d="M344.198,741.644c-2.361-0.483-4.078,0.912-0.804,2.093"/>
			<path id="_x31_5" class="st4" d="M348.707,740.034c-3.328-0.805-4.67,0.054-3.167,0.805"/>
			<path id="_x31_4" class="st4" d="M339.101,753.395c-0.107,1.181,0.536,2.737,2.468,0.966"/>
			<path id="_x31_3" class="st4" d="M339.746,756.937c0,0.322-0.054,0.698-0.269,0.966"/>
			<path id="_x31_2" class="st4" d="M332.018,741.215c-2.039-0.59-2.414-2.468-0.053-2.307"/>
			<path id="_x31_1" class="st4" d="M331.321,745.561c-2.254-0.751-2.254-2.951-0.376-2.737"/>
			<path id="_x31_0" class="st4" d="M335.505,744.434c-2.629-0.644-2.736-2.468-0.75-2.2"/>
			<path id="_x39_" class="st4" d="M335.828,738.854c-1.395-0.107-3.542,1.449,0.054,2.361"/>
			<path id="_x38_" class="st4" d="M339.746,741.966c-3.273-0.483-3.219,0.859-1.289,1.717"/>
			<path id="_x37_" class="st4" d="M342.214,738.854c-2.522-0.483-3.381,1.02-1.664,1.664"/>
			<path id="_x36_" class="st4" d="M334.272,748.137c-0.618-0.509-1.127-2.951,1.824-2.227"/>
			<path id="_x35_" class="st4" d="M340.389,747.386c-1.985-0.537-3.863,1.395-2.039,2.522"/>
			<path id="_x34_" class="st4" d="M343.018,745.078c-2.092-0.376-3.863,0.215-2.736,0.966"/>
			<path id="_x33_" class="st2" d="M319.604,752.887c1.293-0.307,3.183,0.326,6.082,1.689c1.825,0.859,7.299,2.683,10.732,0.859
				c-3.542,1.288-6.224-4.078-8.907-3.434c-2.683,0.644-7.593,1.636-9.658-0.322c5.043,0.322,7.756-3.674,13.521-0.215
				c1.611,0.966,3.65,1.61,5.474,1.503c-4.721-5.688-10.946-2.039-11.59-6.654c2.845,3.059,9.793-0.698,13.335,5.044"/>
			<path id="_x32_" class="st2" d="M362.654,741.269c-1.179,0.218-2.236,0.911-2.921,2.28"/>
			<path id="_x31_" class="st2" d="M326.278,747.168c-0.664-0.826-0.364-1.65-1.076-2.302"/>
		</g>
	</g>
</switch>
</svg>