<?xml version="1.0" encoding="utf-8"?>
<svg version="1.1" id="Countryflags.com" width = "100%" height = "100%"
	 xmlns="http://www.w3.org/2000/svg" xmlns:xlink="http://www.w3.org/1999/xlink" x="0px" y="0px" viewBox="57.5 405.5 300 210"
	 enable-background="new 57.5 405.5 300 210" xml:space="preserve">
<switch>
	<g>
		<g>
			<rect id="_x34_8" x="57.5" y="405.5" fill="#009B3A" width="300" height="210"/>
			<path id="_x34_7" fill="#FEDF00" d="M83,510.5L207.5,590L332,510.5L207.5,431L83,510.5z"/>
			<circle id="_x34_6" fill="#002776" cx="207.5" cy="510.5" r="52.5"/>
			<g id="_x34_5">
				<defs>
					<circle id="SVGID_1_" cx="207.5" cy="510.5" r="52.5"/>
				</defs>
				<clipPath id="SVGID_2_">
					<use xlink:href="#SVGID_1_"  overflow="visible"/>
				</clipPath>
				<path clip-path="url(#SVGID_2_)" fill="#FFFFFF" d="M50,615.5C50,545.084,107.084,488,177.5,488S305,545.084,305,615.5h-7.5
					c0-66.274-53.726-120-120-120c-66.274,0-120,53.726-120,120H50z"/>
			</g>
			<path id="_x34_4" fill="#009B3A" d="M179.483,494.245l4.497,0.157l0.033-0.928l-3.641-0.127l0.045-1.285l2.855,0.1l0.03-0.857
				l-2.856-0.1l0.035-0.999l3.426,0.12l0.033-0.928l-4.283-0.15L179.483,494.245z"/>
			<path id="_x34_3" fill="#009B3A" d="M185.826,494.515l0.854,0.075l0.299-3.415l0.697,3.503l0.783,0.068l1.295-3.328l-0.299,3.415
				l0.854,0.075l0.436-4.981l-1.245-0.109l-1.295,3.328l-0.697-3.503l-1.245-0.109L185.826,494.515z"/>
			<path id="_x34_2" fill="#009B3A" d="M196.185,495.684l3.696,0.635l0.145-0.845l-2.851-0.49l0.194-1.126l2.323,0.399l0.145-0.845
				l-2.323-0.399l0.133-0.774l2.763,0.475l0.145-0.845l-3.608-0.62L196.185,495.684z"/>
			
				<rect id="_x34_1" x="226.952" y="502.504" transform="matrix(-0.9171 -0.3987 0.3987 -0.9171 236.4315 1054.8884)" fill="#009B3A" width="1.893" height="0.714"/>
			
				<rect id="_x34_0" x="227.725" y="502.665" transform="matrix(-0.9171 -0.3987 0.3987 -0.9171 236.3286 1056.9824)" fill="#009B3A" width="0.714" height="2.5"/>
			<path id="_x33_9" fill="#009B3A" d="M242.543,511.309c-0.269,0.422,0.004,0.892,0.606,1.275c0.602,0.384,1.013,0.37,1.186,0.099
				c0.547-0.859-2.615-2.11-1.641-3.607c0.84-1.286,2.278-0.285,2.82,0.06c0.542,0.345,1.413,1.239,0.736,2.268l-0.919-0.586
				c0.288-0.452-0.028-0.886-0.51-1.193c-0.467-0.297-0.846-0.433-1.125,0.003c-0.466,0.698,2.633,2.016,1.683,3.507
				c-0.7,1.099-1.919,0.619-2.732,0.101c-0.693-0.441-1.728-1.482-1.053-2.534L242.543,511.309z"/>
			<path id="_x33_8" fill="#009B3A" d="M235.248,508.861l3.916,2.216l0.457-0.808l-3.171-1.794l0.633-1.119l2.487,1.407l0.422-0.746
				l-2.487-1.407l0.493-0.87l2.984,1.688l0.457-0.808l-3.73-2.11L235.248,508.861z"/>
			<path id="_x33_7" fill="#009B3A" d="M247.907,514.856c-0.29,0.407-0.043,0.891,0.539,1.305c0.581,0.415,0.992,0.422,1.179,0.161
				c0.591-0.829-2.501-2.244-1.449-3.688c0.906-1.24,2.29-0.166,2.813,0.208c0.523,0.374,1.346,1.311,0.616,2.304l-0.887-0.632
				c0.311-0.436,0.018-0.886-0.447-1.218c-0.451-0.321-0.822-0.477-1.123-0.055c-0.502,0.673,2.524,2.151,1.497,3.59
				c-0.757,1.061-1.949,0.518-2.734-0.042c-0.669-0.477-1.648-1.57-0.92-2.585L247.907,514.856z"/>
			<path id="_x33_6" fill="#009B3A" d="M164.652,492.398c-0.168-1.37-1.305-2.359-2.538-2.207c-1.233,0.151-2.097,1.385-1.929,2.756
				c0.168,1.37,1.305,2.358,2.538,2.207C163.956,495.002,164.82,493.769,164.652,492.398z M162.419,491.151
				c1.699,0,1.699,3.047,0,3.047C160.719,494.198,160.719,491.151,162.419,491.151z"/>
			<path id="_x33_5" fill="#009B3A" d="M256.777,519.81c0.635-1.226,0.256-2.684-0.848-3.255c-1.103-0.572-2.513-0.041-3.148,1.185
				c-0.635,1.226-0.255,2.683,0.848,3.255C254.733,521.566,256.142,521.035,256.777,519.81z M255.639,517.519
				c1.403,0.96-0.319,3.475-1.721,2.514C252.516,519.073,254.237,516.559,255.639,517.519z"/>
			<path id="_x33_4" fill="#009B3A" d="M177.209,490.199c-0.551-0.887-1.662-0.929-1.662-0.929l-2.5,0.039l0.087,4.999
				c0,0,1.983,0.001,2.51-0.049s1.146-0.354,1.551-0.885c0.404-0.532,0.4-1.161,0.397-1.548
				C177.588,491.439,177.65,490.91,177.209,490.199z M175.169,493.358c-0.384,0-1.123,0.005-1.123,0.005s-0.044-2.525-0.055-3.142
				c1.034-0.014,1.07-0.014,1.471-0.014c0.742,0.013,1.055,0.566,1.211,0.924c0.056,0.399,0.059,0.56,0.072,0.905
				c-0.046,0.371-0.156,0.677-0.469,0.97C175.761,493.352,175.501,493.358,175.169,493.358z"/>
			<path id="_x33_3" fill="#009B3A" d="M170.38,492.364c0,0,0.523-0.442,0.657-1.075c0.135-0.633-0.257-1.15-0.423-1.298
				c-0.166-0.148-0.515-0.499-1.031-0.479c-0.516,0.02-3.063,0.198-3.063,0.198l0.278,4.993l0.926-0.065l-0.129-1.853l1.608-0.113
				l0.387-0.027c0,0,0.498,0.815,0.545,1.318c0.032,0.296,0.028,0.547,0.028,0.547h0.903c0,0,0.023-0.889-0.234-1.422
				S170.38,492.364,170.38,492.364z M169.817,491.587c-0.195,0.163-0.742,0.169-0.742,0.169l-1.546,0.102
				c0,0-0.061-0.872-0.09-1.283c0.235,0.002,1.464-0.102,1.486-0.102c0.248-0.008,0.527-0.033,0.527-0.033s0.202,0.007,0.404,0.182
				c0.039,0.026,0.208,0.176,0.202,0.43C170.052,491.307,169.907,491.538,169.817,491.587z"/>
			<path id="_x33_2" fill="#009B3A" d="M223.19,499.968c0.189-1.368-0.656-2.615-1.886-2.784c-1.231-0.17-2.382,0.801-2.571,2.168
				c-0.189,1.368,0.656,2.614,1.886,2.784S223.001,501.335,223.19,499.968z M221.351,498.189c1.643,0.436,0.861,3.381-0.782,2.945
				C218.927,500.698,219.709,497.753,221.351,498.189z"/>
			<path id="_x33_1" fill="#009B3A" d="M216.006,498.028c0,0,0.638-0.248,0.972-0.801c0.334-0.554,0.133-1.171,0.024-1.365
				c-0.108-0.195-0.323-0.64-0.817-0.79c-0.494-0.15-2.959-0.815-2.959-0.815l-1.371,4.809l0.897,0.242l0.483-1.793l1.557,0.42
				l0.374,0.101c0,0,0.204,0.933,0.085,1.423c-0.067,0.29-0.153,0.527-0.153,0.527l0.852,0.295c0,0,0.313-0.833,0.244-1.42
				C216.125,498.273,216.006,498.028,216.006,498.028z M215.728,497.11c-0.238,0.09-0.757-0.083-0.757-0.083l-1.495-0.409
				c0,0,0.227-0.844,0.335-1.241c0.221,0.078,1.416,0.383,1.438,0.389c0.236,0.074,0.509,0.142,0.509,0.142s0.189,0.072,0.322,0.304
				c0.028,0.037,0.139,0.234,0.05,0.472C216.041,496.922,215.828,497.093,215.728,497.11z"/>
			<path id="_x33_0" fill="#009B3A" d="M234.166,505.386c0,0,0.657-0.192,1.037-0.716c0.38-0.524,0.232-1.156,0.14-1.358
				c-0.092-0.203-0.268-0.665-0.747-0.857c-0.48-0.191-2.88-1.062-2.88-1.062l-1.773,4.676l0.872,0.317l0.634-1.746l1.515,0.55
				l0.365,0.132c0,0,0.124,0.946-0.036,1.425c-0.091,0.284-0.197,0.512-0.197,0.512l0.824,0.366c0,0,0.382-0.803,0.364-1.394
				C234.264,505.641,234.166,505.386,234.166,505.386z M233.967,504.448c-0.245,0.069-0.747-0.147-0.747-0.147l-1.454-0.534
				c0,0,0.298-0.822,0.438-1.209c0.213,0.097,1.379,0.501,1.4,0.51c0.23,0.093,0.495,0.184,0.495,0.184s0.181,0.088,0.295,0.33
				c0.024,0.039,0.119,0.245,0.01,0.475C234.295,504.287,234.069,504.439,233.967,504.448z"/>
			<path id="_x32_9" fill="#009B3A" d="M209.854,496.359c0,0,0.632-0.263,0.953-0.825c0.321-0.562,0.105-1.174-0.008-1.366
				c-0.114-0.192-0.339-0.632-0.836-0.77c-0.498-0.138-2.978-0.743-2.978-0.743l-1.255,4.84l0.902,0.22l0.44-1.804l1.566,0.382
				l0.377,0.092 M209.555,495.448c-0.235,0.096-0.758-0.065-0.758-0.065l-1.504-0.373c0,0,0.207-0.849,0.305-1.249
				c0.223,0.073,1.426,0.349,1.447,0.355c0.239,0.068,0.512,0.13,0.512,0.13s0.19,0.068,0.329,0.296
				c0.029,0.036,0.145,0.231,0.062,0.471C209.863,495.253,209.654,495.428,209.555,495.448z"/>
			<path id="_x32_8" fill="#009B3A" d="M228.452,502.677c-0.129-0.057-0.263-0.097-0.398-0.139
				c-0.391,0.738-1.257,1.263-2.028,0.734c-1.403-0.959,0.319-3.474,1.721-2.514c0.339,0.232,0.492,0.554,0.515,0.896
				c0.212,0.09,0.441,0.132,0.654,0.23c0.09,0.041,0.178,0.084,0.267,0.124c0.072-0.92-0.345-1.8-1.145-2.214
				c-1.103-0.572-2.513-0.041-3.148,1.184c-0.635,1.226-0.256,2.683,0.848,3.255c1.103,0.572,2.513,0.041,3.148-1.184
				c0.025-0.049,0.046-0.098,0.068-0.147C228.786,502.828,228.62,502.751,228.452,502.677z"/>
			<polygon id="_x32_7" fill="#FFFFFF" points="225.754,493.532 224.643,494.338 225.068,495.645 223.956,494.837 222.846,495.645 
				223.27,494.338 222.159,493.532 223.532,493.532 223.956,492.226 224.381,493.532 			"/>
			<polygon id="_x32_6" fill="#FFFFFF" points="162.503,500.376 163.825,501.337 163.32,502.892 164.643,501.931 165.965,502.892 
				165.46,501.337 166.783,500.376 165.148,500.376 164.643,498.822 164.138,500.376 			"/>
			<polygon id="_x32_5" fill="#FFFFFF" points="220.395,507.393 221.31,508.058 220.961,509.134 221.876,508.469 222.791,509.134 
				222.441,508.058 223.357,507.393 222.225,507.393 221.876,506.317 221.531,507.393 			"/>
			<polygon id="_x32_4" fill="#FFFFFF" points="173.485,519.71 174.045,520.102 173.829,520.769 174.386,520.364 174.942,520.769 
				174.729,520.114 175.286,519.71 174.598,519.71 174.386,519.055 174.173,519.71 			"/>
			<polyline id="_x32_3" fill="#FFFFFF" points="169.277,520.893 168.779,522.447 167.146,522.447 168.468,523.408 167.963,524.963 
				169.286,524.002 170.608,524.963 170.103,523.408 171.426,522.447 169.791,522.447 169.286,520.893 			"/>
			<polygon id="_x32_2" fill="#FFFFFF" points="161.074,527.278 162.176,528.078 161.755,529.374 162.857,528.573 163.959,529.374 
				163.538,528.079 164.64,527.278 163.278,527.278 162.857,525.982 162.436,527.278 			"/>
			<polygon id="_x32_1" fill="#FFFFFF" points="185.785,512.029 186.865,512.813 186.452,514.083 187.532,513.298 188.612,514.083 
				188.199,512.813 189.28,512.029 187.945,512.029 187.532,510.759 187.12,512.029 			"/>
			<polygon id="_x32_0" fill="#FFFFFF" points="178.724,527.708 179.72,528.432 179.34,529.603 180.336,528.879 181.332,529.603 
				180.951,528.432 181.948,527.708 180.717,527.708 180.336,526.538 179.956,527.708 			"/>
			<polygon id="_x31_9" fill="#FFFFFF" points="177.243,533.202 178.159,533.867 177.809,534.943 178.725,534.278 179.64,534.943 
				179.29,533.867 180.205,533.202 179.074,533.202 178.725,532.126 178.38,533.202 			"/>
			<polygon id="_x31_8" fill="#FFFFFF" points="184.333,537.383 185.656,538.344 185.151,539.899 186.473,538.938 187.796,539.899 
				187.29,538.344 188.613,537.383 186.978,537.383 186.473,535.829 185.968,537.383 			"/>
			<polygon id="_x31_7" fill="#FFFFFF" points="205.702,518.537 206.813,519.343 206.389,520.65 207.5,519.842 208.611,520.65 
				208.187,519.343 209.297,518.537 207.918,518.537 207.5,517.231 207.076,518.537 			"/>
			<polygon id="_x31_6" fill="#FFFFFF" points="200.713,523.265 201.628,523.93 201.279,525.006 202.191,524.339 203.109,525.006 
				202.759,523.93 203.674,523.265 202.543,523.265 202.194,522.189 201.844,523.265 			"/>
			<polygon id="_x31_5" fill="#FFFFFF" points="203.921,526.885 204.477,527.29 204.265,527.944 204.822,527.54 205.378,527.944 
				205.165,527.289 205.722,526.885 205.034,526.885 204.822,526.231 204.609,526.885 			"/>
			<polygon id="_x31_4" fill="#FFFFFF" points="211.77,523.125 212.881,523.932 212.457,525.238 213.567,524.43 214.679,525.238 
				214.254,523.932 215.365,523.125 213.992,523.125 213.567,521.819 213.15,523.125 			"/>
			<polygon id="_x31_3" fill="#FFFFFF" points="205.36,533.611 206.683,534.572 206.177,536.127 207.5,535.166 208.822,536.127 
				208.317,534.572 209.64,533.611 208.005,533.611 207.5,532.057 207.002,533.611 			"/>
			<polygon id="_x31_2" fill="#FFFFFF" points="206.78,551.346 207.205,551.654 207.043,552.153 207.467,551.845 207.891,552.153 
				207.729,551.654 208.153,551.346 207.629,551.346 207.467,550.848 207.307,551.346 			"/>
			<polygon id="_x31_1" fill="#FFFFFF" points="217.577,539.488 218.493,540.153 218.143,541.229 219.059,540.564 219.974,541.229 
				219.624,540.153 220.539,539.488 219.408,539.488 219.059,538.412 218.714,539.488 			"/>
			<polygon id="_x31_0" fill="#FFFFFF" points="221.395,545.251 222.506,546.058 222.081,547.364 223.192,546.556 224.304,547.364 
				223.879,546.058 224.99,545.251 223.617,545.251 223.192,543.945 222.768,545.251 			"/>
			<polygon id="_x39_" fill="#FFFFFF" points="228.302,541.346 229.217,540.681 228.086,540.681 227.737,539.605 227.392,540.681 
				226.255,540.681 227.171,541.346 226.821,542.422 227.737,541.757 228.652,542.422 			"/>
			<polygon id="_x38_" fill="#FFFFFF" points="232.094,538.938 233.009,539.603 232.66,540.679 233.575,540.014 234.49,540.679 
				234.14,539.603 235.055,538.938 233.924,538.938 233.575,537.862 233.225,538.938 			"/>
			<polygon id="_x37_" fill="#FFFFFF" points="231.912,543.903 233.023,544.709 232.598,546.016 233.709,545.208 234.82,546.016 
				234.396,544.709 235.507,543.903 234.134,543.903 233.709,542.597 233.285,543.903 			"/>
			<polygon id="_x36_" fill="#FFFFFF" points="232.353,549.386 233.268,550.051 232.919,551.127 233.834,550.462 234.749,551.127 
				234.4,550.051 235.315,549.386 234.179,549.386 233.834,548.31 233.49,549.386 			"/>
			<polygon id="_x35_" fill="#FFFFFF" points="237.579,539.877 238.494,540.542 238.145,541.618 239.06,540.953 239.975,541.618 
				239.626,540.542 240.541,539.877 239.41,539.877 239.06,538.802 238.71,539.877 			"/>
			<polyline id="_x34_" fill="#FFFFFF" points="241.464,537.158 242.575,537.965 242.151,539.271 243.262,538.463 244.373,539.271 
				243.948,537.965 245.059,537.158 243.686,537.158 243.261,535.852 242.844,537.158 241.496,537.151 			"/>
			<polygon id="_x33_" fill="#FFFFFF" points="244.619,533.062 245.73,533.868 245.306,535.175 246.417,534.367 247.528,535.175 
				247.103,533.869 248.214,533.062 246.841,533.062 246.417,531.756 245.992,533.062 			"/>
			<polygon id="_x32_" fill="#FFFFFF" points="242.137,528.195 243.459,529.155 242.954,530.71 244.277,529.749 245.599,530.71 
				245.094,529.155 246.417,528.195 244.782,528.195 244.277,526.64 243.771,528.195 			"/>
			<polygon id="_x31_" fill="#FFFFFF" points="250.147,528.987 251.062,529.652 250.713,530.728 251.628,530.063 252.543,530.728 
				252.193,529.652 253.109,528.987 251.978,528.987 251.628,527.911 251.284,528.987 			"/>
		</g>
	</g>
</switch>
</svg>