<?xml version="1.0" encoding="utf-8"?>
<svg version="1.1" width = "100%" height = "100%"
	 id="Countryflags.com" xmlns:dc="http://purl.org/dc/elements/1.1/" xmlns:svg="http://www.w3.org/2000/svg" xmlns:cc="http://creativecommons.org/ns#"
	 xmlns="http://www.w3.org/2000/svg" xmlns:xlink="http://www.w3.org/1999/xlink" x="0px" y="0px" viewBox="414.5 756.5 300 150"
	 enable-background="new 414.5 756.5 300 150" xml:space="preserve">
<switch>
	<g>
		<g>
			<rect id="_x36_7" x="414.5" y="756.5" fill="#F7E017" width="300" height="150"/>
			<polygon id="_x36_6" fill="#FFFFFF" points="714.5,829.416 714.5,864.833 414.5,802.333 414.5,766.917 414.5,766.917 			"/>
			<polygon id="_x36_5" points="714.5,864.833 714.5,896.083 414.5,833.583 414.5,802.333 414.5,802.333 			"/>
			<path id="_x36_4" fill="#CF1126" d="M559.447,875.191c-4.035-0.534-7.732-1.819-10.302-3.578c-0.498-0.341-0.965-0.62-1.039-0.62
				c-0.074,0-0.134,0.378-0.135,0.847c-0.001,1.329-0.535,1.996-1.877,2.344c-1.283,0.333-3.241-0.339-4.828-1.656
				c-1.644-1.364-3.542-2.405-5.148-2.823c-1.323-0.344-3.078-0.289-4.348,0.136c-0.589,0.198-1.261,0.477-1.494,0.62
				c-0.232,0.143-0.491,0.261-0.576,0.261c-0.225,0-0.193-1.428,0.043-1.883c0.31-0.599,1.075-1.188,1.965-1.512
				c0.45-0.164,0.819-0.376,0.819-0.47c0-0.094-0.152-0.437-0.337-0.761c-0.605-1.058-0.357-2.083,0.698-2.888
				c1.08-0.825,2.906-0.967,4.521-0.353c0.407,0.155,0.786,0.281,0.841,0.281c0.212,0,0.082-0.296-0.502-1.15
				c-0.676-0.988-0.81-1.475-0.725-2.649c0.108-1.489,1.321-2.705,2.806-2.812c1.213-0.088,1.968,0.319,3.756,2.024
				c5.345,5.096,11.155,7.904,17.932,8.665c1.71,0.192,5.151,0.089,7.17-0.215c6.098-0.918,12.242-3.984,17.04-8.504
				c1.329-1.252,1.968-1.583,3.058-1.588c0.948-0.003,1.612,0.302,2.29,1.053c0.62,0.686,0.829,1.339,0.763,2.382
				c-0.043,0.67-0.152,0.998-0.55,1.646c-0.588,0.957-0.488,1.045,0.674,0.594c1.571-0.611,3.506-0.329,4.551,0.663
				c0.919,0.872,1.006,1.745,0.293,2.93c-0.261,0.433-0.474,0.84-0.474,0.904c0,0.119,0.198,0.175,1.151,0.328
				c1.248,0.2,1.964,1.129,1.964,2.545c0,0.424-0.053,0.77-0.117,0.77c-0.064,0-0.537-0.173-1.05-0.385
				c-1.456-0.6-2.283-0.755-3.981-0.745c-1.295,0.008-1.741,0.069-2.642,0.363c-1.383,0.451-2.86,1.322-4.064,2.396
				c-1.326,1.183-2.161,1.556-3.454,1.545c-1.2-0.011-2.02-0.361-2.453-1.046c-0.232-0.366-0.264-0.59-0.208-1.417
				c0.037-0.54,0.03-0.982-0.015-0.982c-0.045,0-0.513,0.297-1.039,0.66c-1.382,0.952-2.265,1.422-3.848,2.048
				C571.75,875.072,564.782,875.898,559.447,875.191z"/>
			<path id="_x36_3" fill="#FFCC00" d="M581.734,868.947c0.86-0.438,1.985-1.585,2.447-2.491c0.368-0.722,0.419-0.971,0.463-2.235
				c0.041-1.165,0.006-1.508-0.192-1.897c-0.221-0.435-0.291-0.474-0.846-0.474c-0.536,0-0.639,0.052-0.915,0.46
				c-0.397,0.589-0.437,1.86-0.073,2.309c0.227,0.281,0.259,0.284,0.741,0.083c0.67-0.28,0.783-0.266,0.782,0.094
				c-0.004,0.92-1.322,2.692-2.705,3.635c-0.372,0.254-0.706,0.538-0.742,0.632C580.594,869.325,581.105,869.268,581.734,868.947z"
				/>
			<path id="_x36_2" fill="#FFD42A" d="M562.635,873.962c0.832-0.275,1.305-0.778,1.645-1.749c0.169-0.484,0.284-0.987,0.254-1.118
				c-0.071-0.31-0.429-0.294-0.825,0.036c-0.271,0.226-0.304,0.342-0.226,0.803c0.197,1.168-0.217,1.458-2.427,1.695
				c-0.218,0.023-0.852-0.014-1.409-0.083c-1.05-0.13-1.425-0.026-1.044,0.289c0.115,0.096,0.408,0.225,0.649,0.287
				C559.839,874.273,562.003,874.171,562.635,873.962z"/>
			<path id="_x36_1" fill="#FFD42A" d="M567.212,873.768c0.125-0.113,0.555-0.311,0.954-0.44c0.533-0.172,0.808-0.356,1.033-0.69
				c0.649-0.965,0.528-1.796-0.425-2.918c-0.516-0.608-0.746-0.591-1.158,0.084c-0.356,0.584-0.348,0.621,0.165,0.754
				c0.268,0.07,0.526,0.267,0.668,0.512c0.559,0.965,0.394,1.564-0.432,1.57c-0.751,0.006-0.957,0.112-1.16,0.598
				c-0.105,0.251-0.191,0.52-0.191,0.597C566.667,874.039,566.951,874.005,567.212,873.768z"/>
			<path id="_x36_0" fill="#FFD42A" d="M565.711,872.677c0.141-0.384,0.19-1.073,0.175-2.479c-0.011-1.071-0.054-1.981-0.094-2.021
				c-0.125-0.125-0.742,0.272-0.823,0.529c-0.042,0.133,0.026,0.442,0.152,0.684c0.192,0.371,0.217,0.719,0.158,2.18
				C565.204,873.417,565.325,873.727,565.711,872.677z"/>
			<path id="_x35_9" fill="#FFD42A" d="M562.186,871.798c0.074-0.344,0.171-1.047,0.215-1.562c0.044-0.515,0.148-1.166,0.232-1.447
				c0.213-0.72-0.001-0.91-0.569-0.506l-0.425,0.303l0.089,1.035c0.08,0.933-0.067,2.674-0.283,3.349
				c-0.057,0.178,0.026,0.133,0.262-0.143C561.896,872.605,562.112,872.142,562.186,871.798z"/>
			<path id="_x35_8" fill="#FFD42A" d="M559.059,872.3c0.496-0.454,0.598-0.737,0.786-2.187c0.097-0.745,0.215-1.553,0.263-1.795
				c0.108-0.542-0.106-0.579-0.683-0.118c-0.377,0.302-0.392,0.349-0.25,0.811c0.188,0.612,0.02,2.127-0.288,2.597
				c-0.234,0.357-0.714,0.438-1.166,0.196c-0.198-0.106-0.24-0.231-0.178-0.54c0.115-0.577-0.216-0.645-1.13-0.231
				c-0.856,0.387-1.185,0.353-1.069-0.11c0.047-0.186-0.003-0.371-0.126-0.473c-0.188-0.156-0.372-0.152-1.623,0.03
				c-0.209,0.031-0.271-0.038-0.271-0.299c0-0.186-0.042-0.403-0.093-0.482c-0.053-0.082-0.658-0.153-1.408-0.165
				c-1.445-0.024-2.469-0.263-3.179-0.742c-0.725-0.488-0.789-0.873-0.304-1.814c0.225-0.436,0.48-1.012,0.566-1.279
				c0.086-0.267,0.339-0.659,0.56-0.872c0.222-0.212,0.403-0.444,0.403-0.514c0-0.18-0.912-0.012-1.293,0.238
				c-0.259,0.17-0.303,0.289-0.242,0.661c0.082,0.505-0.238,1.255-0.841,1.971c-0.662,0.787-1.637,0.464-2.932-0.972
				c-0.488-0.541-0.671-0.667-0.796-0.544c-0.233,0.229-0.05,1.027,0.314,1.368c0.409,0.382,1.983,1.114,2.403,1.117
				c0.423,0.003,0.557,0.101,0.813,0.591c0.324,0.621,2.388,1.25,4.402,1.341c0.637,0.029,0.681,0.054,0.746,0.437
				c0.069,0.403,0.077,0.407,1.051,0.446c0.978,0.04,1.119,0.107,0.828,0.398c-0.084,0.084-0.116,0.252-0.07,0.372
				c0.069,0.181,0.229,0.205,0.931,0.139c0.466-0.044,0.97-0.108,1.12-0.144c0.206-0.049,0.322,0.044,0.476,0.378
				c0.156,0.34,0.313,0.462,0.677,0.527C558.124,872.757,558.69,872.638,559.059,872.3z"/>
			<path id="_x35_7" fill="#FFCC00" d="M577.147,871.555c1.218-0.6,1.937-1.274,2.399-2.252c0.219-0.463,0.398-0.902,0.398-0.976
				c0-0.168-0.6-0.449-0.959-0.449c-0.359,0-0.433-0.246-0.279-0.933c0.15-0.668-0.03-1.506-0.323-1.506
				c-0.107,0-0.295,0.155-0.42,0.345c-0.193,0.294-0.202,0.419-0.061,0.847c0.209,0.634,0.045,1.107-0.523,1.511
				c-0.269,0.191-0.416,0.412-0.416,0.625c0,0.181,0.023,0.33,0.051,0.33c0.028,0,0.324-0.153,0.658-0.34l0.607-0.34l0.358,0.282
				c0.197,0.155,0.358,0.407,0.358,0.561c0,0.74-2.114,1.988-3.565,2.104c-0.772,0.062-0.905,0.036-1.173-0.232
				c-0.218-0.218-0.281-0.402-0.227-0.661c0.041-0.197,0.116-0.556,0.167-0.799c0.134-0.646-0.145-0.558-0.623,0.196
				c-0.394,0.622-0.512,1.287-0.289,1.638c0.18,0.284,1.385,0.557,2.237,0.506C576.056,871.981,576.585,871.832,577.147,871.555z"/>
			<path id="_x35_6" fill="#CF1126" d="M583.115,863.747c-0.323-0.492-0.129-1.085,0.354-1.085c0.286,0,0.341,0.07,0.376,0.481
				c0.029,0.343-0.036,0.55-0.226,0.723C583.36,864.1,583.343,864.096,583.115,863.747z"/>
			<path id="_x35_5" fill="#FFCC00" d="M585.28,867.019c0.765-0.765,1.091-1.697,1.095-3.135l0.003-1.082l0.632-0.3
				c0.823-0.391,1.603-1.172,1.603-1.605c0-0.445-0.198-0.422-0.557,0.063c-0.26,0.352-0.609,0.565-1.882,1.15
				c-0.322,0.148-0.343,0.227-0.415,1.573c-0.084,1.552-0.296,2.134-1.162,3.193c-0.53,0.648-0.551,0.731-0.18,0.731
				C584.568,867.607,584.957,867.343,585.28,867.019z"/>
			<path id="_x35_4" fill="#FFD42A" d="M546.609,865.993c0.231-0.292,0.577-0.886,0.768-1.321s0.476-0.928,0.632-1.097
				c0.367-0.395,0.162-0.639-0.43-0.509c-0.313,0.069-0.438,0.185-0.492,0.454c-0.177,0.884-0.497,1.787-0.782,2.208
				c-0.517,0.764-0.529,0.795-0.317,0.795C546.098,866.523,546.378,866.284,546.609,865.993z"/>
			<path id="_x35_3" fill="#FFCC00" d="M576.929,866.151c0.074-0.222-0.351-0.381-0.532-0.199c-0.078,0.078-0.099,0.211-0.046,0.296
				C576.47,866.442,576.854,866.378,576.929,866.151z"/>
			<path id="_x35_2" fill="#FFD42A" d="M543.777,864.693c0.691-0.35,1.351-1.167,1.351-1.673c0-0.331-0.555-0.696-1.059-0.696
				c-0.223,0-0.643,0.183-0.979,0.426c-1.051,0.761-2.174,0.606-2.789-0.386c-0.506-0.816-1.034-1.26-1.5-1.26
				c-0.582,0-0.606,0.365-0.036,0.564c0.275,0.096,0.504,0.329,0.693,0.704c0.554,1.102,0.877,1.299,2.35,1.427l0.948,0.082
				l0.042,0.576c0.023,0.317,0.101,0.576,0.174,0.576S543.407,864.88,543.777,864.693z"/>
			<path id="_x35_1" fill="#CF1126" d="M543.551,863.746c-0.121-0.315,0.049-0.61,0.353-0.61c0.278,0,0.344,0.205,0.193,0.599
				C543.993,864.007,543.653,864.014,543.551,863.746z"/>
			<path id="_x35_0" fill="#FFCC00" d="M588.444,863.17c0.074-0.222-0.35-0.381-0.532-0.199c-0.078,0.078-0.099,0.211-0.046,0.296
				C587.985,863.461,588.369,863.397,588.444,863.17z"/>
			<path id="_x34_9" fill="#CF1126" d="M561.655,865.91c-0.112-0.022-0.752-0.112-1.423-0.2c-3.453-0.452-7.561-1.879-10.572-3.673
				c-6.795-4.048-11.764-11.071-13.327-18.836c-1.787-8.875-0.514-16.51,3.679-22.074c0.764-1.013,1.569-1.851,1.42-1.477
				c-0.045,0.112-0.363,0.888-0.708,1.724c-1.938,4.703-2.179,9.674-0.737,15.21c0.571,2.192,1.107,3.6,2.116,5.557
				c3.533,6.853,10.151,11.908,17.452,13.329c0.596,0.116,1.724,0.334,2.506,0.484c2.056,0.395,3.175,0.355,5.954-0.211
				c2.598-0.53,4.691-1.158,6.574-1.975c5.716-2.479,10.467-7.21,12.903-12.849c1.667-3.86,2.451-9.526,1.92-13.886
				c-0.321-2.634-1.15-5.518-2.173-7.552c-0.215-0.428-0.332-0.779-0.26-0.779c0.225,0,1.774,1.894,2.68,3.277
				c1.997,3.047,3.347,6.831,3.83,10.73c0.397,3.206,0.054,8.34-0.756,11.318c-1.664,6.117-5.304,11.926-9.707,15.491
				c-4.666,3.777-9.621,5.734-16.02,6.325C565.664,865.968,562.166,866.011,561.655,865.91z"/>
			<path id="_x34_8" fill="#FFCC00" d="M573.472,863.303c0.129-0.112,0.274-0.413,0.322-0.67c0.048-0.256,0.156-0.485,0.24-0.508
				c0.084-0.023,0.41-0.111,0.724-0.197c0.385-0.104,0.689-0.308,0.928-0.622c0.543-0.712,0.492-1.631-0.213-3.801
				c-0.313-0.964-0.614-1.904-0.668-2.091c-0.13-0.443-0.245-0.427-0.64,0.085l-0.327,0.424l0.34,0.404
				c0.45,0.535,1.177,2.735,1.198,3.625c0.011,0.475-0.063,0.83-0.226,1.078c-0.262,0.4-0.127,0.392-2.082,0.125
				c-0.434-0.059-0.71-0.009-1.122,0.206c-0.724,0.377-1.05,0.362-1.241-0.058c-0.237-0.52-0.448-0.322-0.448,0.421v0.666h0.741
				h0.741l0.086,0.522c0.048,0.287,0.166,0.571,0.263,0.631C572.336,863.697,573.19,863.548,573.472,863.303z"/>
			<path id="_x34_7" fill="#D40000" d="M572.413,862.664c-0.282-0.43-0.162-0.746,0.282-0.746c0.244,0,0.384,0.099,0.474,0.338
				C573.442,862.973,572.832,863.303,572.413,862.664z"/>
			<path id="_x34_6" fill="#FFCC00" d="M555.268,862.049c0.427-0.184,0.935-0.57,1.361-1.035l0.68-0.742l0.785,0.095
				c0.972,0.118,0.988,0.127,0.988,0.592c0,0.369,0.024,0.381,0.914,0.465c0.503,0.048,1.166,0.087,1.474,0.087
				c0.395,0.001,0.614,0.077,0.745,0.26c0.175,0.244,0.276,0.251,1.743,0.119c1.371-0.123,1.641-0.112,2.259,0.098
				c0.439,0.149,0.922,0.214,1.289,0.173c1.05-0.118,2.502-0.982,2.712-1.613c0.025-0.076,0.406-0.21,0.845-0.298
				c1.061-0.212,1.109-0.44,0.12-0.563c-0.429-0.054-1.074-0.213-1.433-0.355c-0.359-0.142-0.851-0.258-1.092-0.258
				c-0.533,0-1.041,0.33-1.041,0.675c0,0.225,0.081,0.245,0.711,0.181c0.594-0.06,0.773-0.024,1.085,0.224
				c0.206,0.163,0.339,0.353,0.295,0.423c-0.14,0.226-1.376,0.79-1.924,0.878c-0.366,0.058-0.664,0.017-0.953-0.132
				c-0.48-0.248-1.187-0.287-1.32-0.071c-0.058,0.093-0.207,0.035-0.415-0.16l-0.326-0.306l-0.739,0.306
				c-0.748,0.31-1.02,0.293-1.02-0.063c0-0.163-0.22-0.182-1.321-0.11c-1.215,0.078-1.34,0.063-1.567-0.19
				c-0.21-0.234-0.22-0.317-0.071-0.555c0.139-0.222,0.14-0.315,0.009-0.447c-0.131-0.131-0.297-0.132-0.778-0.003
				c-1.207,0.323-1.555,0.144-1.555-0.799c0-0.825-0.674-1.179-1.348-0.707c-1.107,0.776-1.394,1.693-0.642,2.052
				c0.553,0.264,0.412,0.576-0.457,1.01c-1.243,0.622-2.338,0.543-4.423-0.32c-0.513-0.213-0.645-0.127-0.527,0.341
				c0.115,0.459,0.534,0.711,1.58,0.95C553.033,862.507,554.392,862.425,555.268,862.049z"/>
			<path id="_x34_5" fill="#CF1126" d="M556.277,859.392c-0.052-0.137,0.012-0.294,0.167-0.408c0.215-0.157,0.282-0.156,0.447,0.009
				c0.107,0.107,0.157,0.29,0.112,0.408C556.896,859.682,556.386,859.676,556.277,859.392z"/>
			<path id="_x34_4" fill="#FFCC00" d="M554.52,859.75c0.736-0.467,0.719-0.431,0.825-1.728c0.074-0.914,0.062-0.982-0.187-0.982
				c-0.359,0-0.547,0.395-0.547,1.149c0,0.483-0.076,0.7-0.332,0.957c-0.612,0.612-2.134,0.332-2.325-0.427
				c-0.066-0.262,0.018-0.497,0.337-0.95c0.665-0.943,0.514-1.173-0.3-0.458c-0.559,0.491-0.66,0.506-0.554,0.083
				c0.098-0.39-0.105-0.545-0.562-0.43c-0.234,0.059-0.359,0.206-0.416,0.489c-0.056,0.277-0.182,0.43-0.403,0.485
				c-0.369,0.093-0.998-0.257-0.998-0.555c0-0.221,0.941-1.37,2.151-2.626c0.456-0.473,0.829-0.915,0.829-0.982
				c0-0.067-0.244-0.122-0.542-0.122c-0.436,0-0.542,0.049-0.542,0.25c0,0.138-0.61,0.937-1.355,1.776
				c-1.554,1.75-1.683,2.114-0.914,2.582c0.62,0.378,1.412,0.349,2.034-0.074l0.506-0.343v0.623c0,0.796,0.159,1.082,0.783,1.411
				C552.792,860.293,553.741,860.244,554.52,859.75z"/>
			<path id="_x34_3" fill="#FFCC00" d="M576.897,858.993c0.001-0.86,0.024-0.933,0.271-0.889c1.551,0.278,2.268,0.07,2.939-0.85
				c0.366-0.503,0.398-0.63,0.349-1.412l-0.053-0.859l0.752,0.09c1.364,0.163,1.379,0.172,1.285,0.729
				c-0.259,1.521-0.734,2.358-1.906,3.36c-0.82,0.7-0.817,1.043,0.004,0.653c0.696-0.33,1.503-1.16,1.938-1.992
				c0.319-0.611,0.375-0.883,0.381-1.848c0.006-1.016,0.039-1.159,0.32-1.386c0.236-0.191,0.498-0.246,1.058-0.222
				c0.672,0.029,0.777-0.007,1.083-0.362c0.266-0.309,0.321-0.486,0.257-0.828c-0.118-0.631,0.015-0.851,0.736-1.217
				c0.976-0.495,1.355-1.021,1.355-1.881c0-0.792-0.245-1.258-0.59-1.126c-0.262,0.101-0.301,0.785-0.066,1.162
				c0.086,0.138,0.119,0.35,0.072,0.472c-0.126,0.329-0.857,0.726-1.52,0.825c-0.836,0.126-1.415,0.573-1.852,1.43
				c-0.694,1.364-0.594,1.301-1.2,0.754c-0.93-0.84-1.752-0.618-2.102,0.568l-0.15,0.507l-0.25-0.508
				c-0.255-0.516-0.557-0.639-0.851-0.345c-0.263,0.263-0.185,0.678,0.246,1.314c0.222,0.328,0.404,0.742,0.404,0.921
				c0,0.834-0.788,1.509-1.542,1.32c-0.403-0.101-0.761-0.667-0.761-1.204c0-0.486-0.364-0.44-0.474,0.059
				c-0.185,0.839-0.562,0.498-0.727-0.659c-0.112-0.783-0.396-0.826-0.744-0.112c-0.223,0.456-0.229,0.541-0.051,0.745
				c0.369,0.425,0.948,2.119,1.017,2.978C576.62,860.354,576.895,860.216,576.897,858.993z"/>
			<path id="_x34_2" fill="#CF1126" d="M581.37,854.418c-0.331-0.242-0.179-0.629,0.246-0.629c0.387,0,0.693,0.319,0.582,0.608
				C582.1,854.651,581.703,854.662,581.37,854.418z"/>
			<path id="_x34_1" fill="#CF1126" d="M584.344,853.512c-0.106-0.333,0.142-0.671,0.493-0.671c0.26,0,0.333,0.313,0.172,0.734
				C584.891,853.882,584.448,853.839,584.344,853.512z"/>
			<path id="_x34_0" fill="#FFCC00" d="M548.897,858.892c0.025-0.131-0.043-0.226-0.161-0.226c-0.252,0-0.404,0.221-0.284,0.414
				C548.573,859.278,548.844,859.164,548.897,858.892z"/>
			<path id="_x33_9" fill="#FFCC00" d="M559.487,857.708c0-0.194-0.073-0.267-0.235-0.236c-0.353,0.068-0.393,0.517-0.045,0.517
				C559.4,857.989,559.487,857.902,559.487,857.708z"/>
			<path id="_x33_8" fill="#FFCC00" d="M544.793,856.549l0.375-0.491l1.405,0.094c1.711,0.115,1.916,0.019,3.185-1.49
				c0.466-0.555,0.926-1.008,1.021-1.008c0.095,0,0.174-0.152,0.174-0.339c0-0.491-0.59-0.469-0.904,0.034
				c-0.453,0.724-1.718,2.091-2.052,2.218c-0.186,0.071-0.612,0.088-0.945,0.038c-0.505-0.076-0.565-0.114-0.359-0.229
				c0.357-0.2,1.144-1.011,1.144-1.179c0-0.219-0.651-0.418-1.059-0.325c-0.2,0.046-0.676,0.256-1.058,0.466
				c-0.723,0.398-1.27,0.408-1.27,0.023c0-0.115,0.32-0.555,0.711-0.977c0.391-0.423,0.884-0.962,1.095-1.198
				s0.44-0.429,0.508-0.429c0.068,0,0.124-0.092,0.124-0.203c0-0.144-0.147-0.203-0.508-0.203c-0.465,0-0.536,0.053-0.834,0.614
				c-0.179,0.338-0.539,0.801-0.8,1.03c-0.385,0.338-0.557,0.402-0.916,0.344c-0.703-0.114-1.141-0.47-1.141-0.925
				c0-0.217-0.087-0.428-0.193-0.469c-0.286-0.11-0.756,0.19-0.756,0.483c0,0.497,0.179,0.701,0.956,1.094
				c0.692,0.349,0.792,0.451,0.83,0.84c0.038,0.392,0.086,0.44,0.422,0.416c0.536-0.037,0.745,0.44,0.447,1.017
				c-0.232,0.448-0.294,1.245-0.097,1.245C544.364,857.041,544.586,856.819,544.793,856.549z"/>
			<path id="_x33_7" fill="#FF00FF" d="M545.398,855.482c0-0.221,0.124-0.251,0.474-0.117c0.18,0.069,0.189,0.11,0.045,0.201
				C545.637,855.745,545.398,855.706,545.398,855.482z"/>
			<path id="_x33_6" fill="#CF1126" d="M545.94,854.895c0-0.118,0.593-0.428,0.819-0.428c0.264,0,0.118,0.378-0.176,0.457
				C546.157,855.037,545.94,855.028,545.94,854.895z"/>
			<path id="_x33_5" fill="#FFCC00" d="M554.949,855.821c0-0.294-0.529-0.253-0.586,0.045c-0.037,0.192,0.023,0.238,0.269,0.203
				C554.806,856.045,554.949,855.933,554.949,855.821z"/>
			<path id="_x33_4" fill="#FFCC00" d="M578.292,853.753c0.054-0.28-0.337-0.469-0.544-0.262c-0.206,0.206-0.018,0.598,0.262,0.544
				C578.141,854.01,578.267,853.883,578.292,853.753z"/>
			<path id="_x33_3" fill="#FFCC00" d="M541.963,850.894c0.366-0.315,0.37-0.336,0.211-1.026c-0.224-0.969-0.209-1.074,0.16-1.166
				c0.467-0.117,1.651,0.518,1.914,1.027c0.203,0.393,0.198,0.42-0.148,0.741c-0.372,0.345-0.37,0.746,0.002,0.746
				c0.308,0,1.16-0.806,1.16-1.097c0-0.401-0.946-1.351-1.693-1.7c-0.462-0.216-0.926-0.317-1.461-0.317
				c-0.958-0.002-1.088,0.205-0.829,1.32c0.304,1.306-0.108,1.482-1.161,0.497c-0.781-0.731-1.088-1.492-1.085-2.69
				c0.003-1.286,0.495-1.921,1.602-2.069c0.736-0.099,0.718-0.271-0.039-0.385c-1.104-0.165-2.037,0.571-2.392,1.888
				c-0.393,1.461,0.508,3.241,2.104,4.156C541.144,851.298,541.476,851.313,541.963,850.894z"/>
			<path id="_x33_2" fill="#FFCC00" d="M585.471,849.292c0.089-0.089,0.163-0.291,0.163-0.448s0.152-0.492,0.339-0.744
				c0.186-0.253,0.339-0.51,0.339-0.572c0-0.257-0.422-0.248-0.757,0.016c-0.341,0.269-0.598,0.275-0.598,0.014
				c0-0.066,0.163-0.2,0.363-0.297c0.497-0.242,0.539-0.481,0.118-0.672c-0.537-0.245-1.077,0.202-1.132,0.938
				c-0.037,0.492,0.003,0.577,0.382,0.799c0.347,0.204,0.411,0.313,0.353,0.605C584.94,849.435,585.15,849.612,585.471,849.292z"/>
			<path id="_x33_1" fill="#FFCC00" d="M589.561,848.829c0.298-0.269,0.542-0.574,0.542-0.677c0-0.102,0.259-0.373,0.576-0.6
				c0.898-0.645,1.095-1.298,0.694-2.301c-0.157-0.393-0.649-0.938-1.716-1.899c-0.823-0.742-1.577-1.349-1.676-1.349
				c-0.292,0-0.24,1.073,0.057,1.168c0.534,0.171,0.856,0.388,1.695,1.145c0.977,0.881,1.426,1.705,1.181,2.164
				c-0.237,0.442-0.549,0.305-1.409-0.617c-0.452-0.485-0.899-0.882-0.992-0.881c-0.099,0.001-0.169,0.177-0.169,0.422
				c0,0.307,0.164,0.602,0.61,1.098c0.726,0.808,0.798,1.294,0.253,1.723c-0.196,0.154-0.398,0.281-0.447,0.281
				c-0.05,0-0.209-0.24-0.354-0.534c-0.305-0.618-2.165-2.581-2.445-2.581c-0.126,0-0.189,0.158-0.189,0.471
				c0,0.377,0.074,0.509,0.374,0.664c0.37,0.191,1.281,1.111,2.2,2.22c0.261,0.315,0.52,0.573,0.575,0.573
				C588.974,849.318,589.263,849.098,589.561,848.829z"/>
			<path id="_x33_0" fill="#FFCC00" d="M591.385,843.605c-0.121-0.388-2.616-2.957-2.872-2.957c-0.134,0-0.174,0.157-0.144,0.567
				c0.036,0.495,0.091,0.58,0.431,0.67c0.214,0.057,0.871,0.572,1.46,1.145c0.589,0.573,1.105,1.008,1.147,0.966
				C591.449,843.955,591.439,843.778,591.385,843.605z"/>
			<path id="_x32_9" fill="#CF1126" d="M607.828,854.396c0.546-0.058,1.095,0.397,0.909,0.979c-0.046,0.105-0.23,0.309-0.536,0.517
				c-0.311,0.212-0.748,0.436-1.285,0.639c-1.074,0.406-2.553,0.72-4.276,0.674c0.049,0,0.174,0,0.245,0
				c-1.749,0.023-2.688-0.139-3.911-0.543c-1.034-0.338-1.925-0.595-1.988-1.509c0-0.157,0.047-0.25,0.127-0.325
				c0.079-0.075,0.202-0.133,0.357-0.167c0.311-0.068,0.67,0.112,0.982,0.214c0.665,0.219,2.073,0.814,4.433,0.829
				c1.244,0.032,2.161-0.264,3.11-0.581C607.131,854.745,607.29,854.473,607.828,854.396z"/>
			<path id="_x32_8" fill="#CF1126" d="M614.182,819.563c0.016,0.001,0.03,0.005,0.044,0.01c0.057,0.018,0.117,0.059,0.177,0.172
				v0.005c0.021,0.035,0.073,0.223,0.088,0.482c0.015,0.259,0.008,0.597-0.015,0.994c-0.045,0.794-0.16,1.814-0.33,2.903
				c-0.339,2.177-0.887,4.633-1.466,6.101c-0.567,1.359-1.81,2.577-3.021,3.675c-1.21,1.098-2.39,2.056-2.814,3.045
				c-0.079,0.177-0.117,0.424-0.157,0.777c-0.041,0.354-0.071,0.804-0.098,1.328c-0.054,1.049-0.086,2.396-0.098,3.843
				c-0.019,2.299,0.004,4.825,0.044,6.829c-0.057,0.025-0.116,0.051-0.177,0.079c-0.293,0.134-0.636,0.307-1.018,0.482
				c-0.765,0.349-1.688,0.688-2.647,0.659h-0.005c-1.933-0.014-2.794-0.579-3.449-0.832h-0.005
				c-0.125-0.048-0.263-0.085-0.403-0.108c0.025-1.838,0.194-14.58,0.192-16.792v-0.005c-0.021-0.605,0.553-1.377,1.299-2.066
				c0.746-0.689,1.63-1.301,2.145-1.687l0.005-0.005l0.01-0.005c0.306-0.272,0.931-0.931,1.52-1.584
				c0.295-0.327,0.579-0.653,0.802-0.92c0.223-0.267,0.376-0.452,0.453-0.605c0.022-0.044,0.143-0.202,0.31-0.364
				c0.167-0.162,0.383-0.337,0.615-0.487c0.232-0.15,0.482-0.273,0.704-0.325c0.221-0.051,0.403-0.037,0.551,0.054
				c0.133,0.082,0.184,0.212,0.177,0.452c-0.007,0.241-0.094,0.565-0.231,0.905c-0.275,0.68-0.743,1.436-1.082,1.899
				c-0.208,0.283-0.399,0.755-0.586,1.304c-0.187,0.549-0.359,1.164-0.482,1.692c-0.123,0.528-0.204,0.933-0.187,1.191
				c0.004,0.064-0.019,0.14,0.103,0.236c0.061,0.048,0.168,0.057,0.226,0.034c0.058-0.022,0.088-0.052,0.113-0.079
				c0.101-0.106,0.169-0.244,0.281-0.492v-0.005l0.005-0.005c0.169-0.432,0.829-0.914,1.668-1.402s1.837-0.999,2.642-1.619
				c0.194-0.157,0.243-0.389,0.3-0.664c0.057-0.275,0.113-0.618,0.231-1.038c0.236-0.841,0.722-1.998,1.973-3.469l0.064-0.074
				l-0.02-0.098c-0.274-1.401,0.096-2.749,0.6-3.582c0.252-0.417,0.546-0.7,0.758-0.797
				C614.07,819.57,614.133,819.558,614.182,819.563L614.182,819.563z"/>
			<path id="_x32_7" fill="#CF1126" d="M612.116,819.873c0.095,0.002,0.177,0.038,0.256,0.098c0.154,0.118,0.275,0.357,0.266,0.674
				c-0.409,0.883-0.654,2.071-0.433,3.321c-1.24,1.477-1.743,2.674-1.987,3.547c-0.125,0.444-0.182,0.804-0.236,1.063
				c-0.054,0.256-0.116,0.393-0.157,0.428c-0.76,0.585-1.736,1.089-2.588,1.584c-0.696,0.405-1.32,0.789-1.663,1.269
				c0.019-0.095,0.04-0.193,0.064-0.295c0.069-0.295,0.157-0.621,0.251-0.945c0.139-0.349,0.538-0.794,0.999-1.156
				c0.461-0.362,0.987-0.646,1.338-0.728l0.153-0.034l0.01-0.153c0.026-0.397,0.35-1.313,0.802-2.17
				c0.451-0.857,1.046-1.684,1.515-1.988l0.098-0.064l-0.005-0.118c-0.076-2.722,0.529-3.917,0.999-4.226
				C611.914,819.904,612.021,819.87,612.116,819.873z"/>
			<path id="_x32_6" fill="#CF1126" d="M610.389,820.379c0.072,0.004,0.124,0.027,0.187,0.103c0.059,0.072,0.122,0.202,0.162,0.394
				c-0.248,0.732-0.391,1.778-0.359,3.232c-0.573,0.419-1.117,1.23-1.56,2.071c-0.428,0.813-0.751,1.631-0.832,2.189
				c-0.426,0.133-0.912,0.418-1.358,0.768c-0.119,0.093-0.235,0.19-0.344,0.29c0.127-0.318,0.254-0.578,0.349-0.709
				c0.358-0.488,0.836-1.26,1.132-1.993c0.1-0.249,0.182-0.49,0.226-0.723c0.484-0.506,0.945-1.423,0.832-2.327
				c-0.101-1.16,0.38-2.299,0.9-2.883C609.985,820.5,610.246,820.371,610.389,820.379z"/>
			<path id="_x32_5" fill="#CF1126" d="M608.426,820.66c0.055,0.004,0.115,0.027,0.192,0.084c0.1,0.074,0.22,0.21,0.344,0.418
				c-0.383,0.688-0.635,1.6-0.551,2.553v0.005v0.005c0.069,0.537-0.147,1.149-0.423,1.599c-0.053-0.188-0.16-0.355-0.334-0.462
				c-0.187-0.115-0.396-0.149-0.605-0.138c0.096-1.43,0.394-2.753,0.772-3.478c0.198-0.379,0.41-0.566,0.551-0.585
				C608.389,820.657,608.408,820.658,608.426,820.66L608.426,820.66z"/>
			<path id="_x32_4" fill="#CF1126" d="M605.459,832.62c0.022,0.029,0.001,0.033,0,0.015
				C605.459,832.631,605.459,832.625,605.459,832.62z"/>
			<path id="_x32_3" fill="#CF1126" d="M598.827,850.43c0.092,0.019,0.182,0.043,0.261,0.074c0.342,0.132,0.849,0.406,1.638,0.61
				l-1.909-0.02C598.817,851.094,598.826,850.481,598.827,850.43z"/>
			<path id="_x32_2" fill="#CF1126" d="M606.525,850.16c0.405-0.058,0.812,0.397,0.674,0.978c-0.034,0.105-0.17,0.309-0.397,0.517
				c-0.231,0.211-0.555,0.436-0.953,0.639c-0.797,0.406-1.893,0.72-3.171,0.674c0.036,0,0.129,0,0.181,0
				c-1.297,0.023-1.993-0.139-2.9-0.543c-0.766-0.338-1.428-0.595-1.474-1.509c0-0.157,0.035-0.25,0.094-0.325
				c0.059-0.075,0.15-0.133,0.265-0.167c0.23-0.068,0.496,0.112,0.728,0.214c0.493,0.219,1.537,0.814,3.287,0.829
				c0.922,0.032,1.602-0.264,2.306-0.58C606.007,850.509,606.125,850.238,606.525,850.16z"/>
			<path id="_x32_1" fill="#CF1126" d="M607.244,852.234c0.474-0.057,0.951,0.398,0.79,0.979c-0.04,0.105-0.2,0.309-0.466,0.517
				c-0.271,0.212-0.65,0.437-1.117,0.64c-0.933,0.406-2.218,0.72-3.715,0.674c0.042,0,0.151,0,0.213,0
				c-1.52,0.023-2.335-0.139-3.398-0.543c-0.898-0.338-1.673-0.595-1.727-1.509c0-0.157,0.041-0.25,0.11-0.325
				c0.069-0.075,0.175-0.133,0.31-0.167c0.27-0.068,0.581,0.112,0.853,0.214c0.578,0.218,1.801,0.814,3.851,0.829
				c1.081,0.032,1.878-0.264,2.702-0.581C606.638,852.583,606.776,852.311,607.244,852.234z"/>
			<path id="_x32_0" fill="#CF1126" d="M521.172,854.396c-0.546-0.058-1.095,0.397-0.909,0.979c0.046,0.105,0.23,0.309,0.536,0.517
				c0.311,0.212,0.748,0.436,1.285,0.639c1.074,0.406,2.553,0.72,4.277,0.674c-0.049,0-0.174,0-0.245,0
				c1.749,0.023,2.688-0.139,3.911-0.543c1.034-0.338,1.925-0.595,1.988-1.509c0-0.157-0.047-0.25-0.127-0.325
				c-0.079-0.075-0.202-0.133-0.357-0.167c-0.31-0.068-0.669,0.112-0.981,0.214c-0.665,0.219-2.073,0.814-4.433,0.829
				c-1.244,0.032-2.161-0.264-3.11-0.581C521.869,854.745,521.71,854.473,521.172,854.396z"/>
			<path id="_x31_9" fill="#CF1126" d="M514.818,819.563c-0.016,0.001-0.03,0.005-0.044,0.01c-0.057,0.018-0.117,0.059-0.177,0.172
				v0.005c-0.021,0.035-0.073,0.223-0.089,0.482c-0.015,0.259-0.008,0.597,0.015,0.994c0.045,0.794,0.16,1.814,0.33,2.903
				c0.339,2.177,0.887,4.633,1.466,6.101c0.568,1.359,1.811,2.577,3.021,3.675c1.21,1.098,2.39,2.056,2.814,3.045
				c0.079,0.177,0.117,0.424,0.157,0.777c0.041,0.354,0.071,0.804,0.099,1.328c0.054,1.049,0.086,2.396,0.098,3.843
				c0.019,2.299-0.005,4.825-0.044,6.829c0.057,0.025,0.116,0.051,0.177,0.079c0.293,0.134,0.636,0.307,1.018,0.482
				c0.765,0.349,1.688,0.688,2.647,0.659h0.005c1.933-0.014,2.794-0.579,3.449-0.832h0.005c0.126-0.048,0.263-0.085,0.403-0.108
				c-0.025-1.838-0.194-14.58-0.192-16.792v-0.005c0.021-0.605-0.553-1.377-1.299-2.066c-0.746-0.689-1.63-1.301-2.145-1.687
				l-0.005-0.005l-0.01-0.005c-0.306-0.272-0.931-0.931-1.52-1.584c-0.295-0.327-0.579-0.653-0.802-0.92
				c-0.223-0.267-0.376-0.452-0.453-0.605c-0.022-0.044-0.143-0.202-0.31-0.364c-0.167-0.162-0.383-0.337-0.615-0.487
				c-0.232-0.15-0.482-0.273-0.704-0.325c-0.221-0.051-0.403-0.037-0.551,0.054c-0.133,0.082-0.184,0.212-0.177,0.452
				c0.007,0.241,0.094,0.565,0.231,0.905c0.275,0.68,0.743,1.436,1.082,1.899c0.208,0.283,0.399,0.755,0.586,1.304
				c0.187,0.549,0.359,1.164,0.482,1.692c0.123,0.528,0.204,0.933,0.187,1.191c-0.004,0.064,0.019,0.14-0.103,0.236
				c-0.061,0.048-0.168,0.057-0.226,0.034c-0.058-0.022-0.088-0.052-0.113-0.079c-0.101-0.106-0.169-0.244-0.281-0.492v-0.005
				l-0.005-0.005c-0.169-0.432-0.829-0.914-1.668-1.402s-1.837-0.999-2.642-1.619c-0.194-0.157-0.243-0.389-0.3-0.664
				c-0.057-0.275-0.113-0.618-0.231-1.038c-0.236-0.841-0.722-1.998-1.973-3.469l-0.064-0.074l0.02-0.098
				c0.274-1.401-0.096-2.749-0.6-3.582c-0.252-0.417-0.546-0.7-0.758-0.797C514.931,819.57,514.868,819.558,514.818,819.563
				L514.818,819.563z"/>
			<path id="_x31_8" fill="#CF1126" d="M516.884,819.873c-0.095,0.002-0.177,0.038-0.256,0.098
				c-0.154,0.118-0.275,0.357-0.266,0.674c0.409,0.883,0.654,2.071,0.433,3.321c1.24,1.477,1.743,2.674,1.988,3.547
				c0.125,0.444,0.182,0.804,0.236,1.063c0.053,0.256,0.116,0.393,0.157,0.428c0.76,0.585,1.736,1.089,2.588,1.584
				c0.696,0.405,1.32,0.789,1.663,1.269c-0.019-0.095-0.04-0.193-0.064-0.295c-0.069-0.295-0.157-0.621-0.251-0.945
				c-0.139-0.349-0.537-0.794-0.999-1.156c-0.461-0.362-0.987-0.646-1.338-0.728l-0.152-0.034l-0.01-0.153
				c-0.026-0.397-0.35-1.313-0.802-2.17c-0.451-0.857-1.046-1.684-1.515-1.988l-0.098-0.064l0.005-0.118
				c0.076-2.722-0.529-3.917-0.999-4.226C517.087,819.904,516.979,819.87,516.884,819.873z"/>
			<path id="_x31_7" fill="#CF1126" d="M518.611,820.379c-0.072,0.004-0.124,0.027-0.187,0.103
				c-0.059,0.072-0.122,0.202-0.162,0.394c0.248,0.732,0.391,1.778,0.359,3.232c0.573,0.419,1.117,1.23,1.56,2.071
				c0.428,0.813,0.751,1.631,0.831,2.189c0.426,0.133,0.912,0.418,1.358,0.768c0.119,0.093,0.235,0.19,0.344,0.29
				c-0.127-0.318-0.253-0.578-0.349-0.709c-0.358-0.488-0.836-1.26-1.132-1.993c-0.101-0.249-0.182-0.49-0.226-0.723
				c-0.484-0.506-0.945-1.423-0.831-2.327c0.101-1.16-0.38-2.299-0.9-2.883C519.015,820.5,518.755,820.371,518.611,820.379z"/>
			<path id="_x31_6" fill="#CF1126" d="M520.574,820.66c-0.055,0.004-0.115,0.027-0.192,0.084c-0.099,0.074-0.22,0.21-0.344,0.418
				c0.383,0.688,0.635,1.6,0.551,2.553v0.005v0.005c-0.069,0.537,0.147,1.149,0.423,1.599c0.053-0.188,0.16-0.355,0.334-0.462
				c0.187-0.115,0.396-0.149,0.605-0.138c-0.096-1.43-0.394-2.753-0.773-3.478c-0.198-0.379-0.41-0.566-0.551-0.585
				C520.611,820.657,520.593,820.658,520.574,820.66L520.574,820.66z"/>
			<path id="_x31_5" fill="#CF1126" d="M523.541,832.62c-0.022,0.029-0.001,0.033,0,0.015
				C523.541,832.631,523.541,832.625,523.541,832.62z"/>
			<path id="_x31_4" fill="#CF1126" d="M530.173,850.43c-0.092,0.019-0.181,0.043-0.261,0.074c-0.342,0.132-0.85,0.406-1.638,0.61
				l1.909-0.02C530.183,851.094,530.174,850.481,530.173,850.43z"/>
			<path id="_x31_3" fill="#CF1126" d="M522.476,850.16c-0.405-0.058-0.812,0.397-0.674,0.978c0.034,0.105,0.17,0.309,0.398,0.517
				c0.231,0.211,0.555,0.436,0.953,0.639c0.797,0.406,1.893,0.72,3.171,0.674c-0.036,0-0.129,0-0.181,0
				c1.297,0.023,1.993-0.139,2.9-0.543c0.766-0.338,1.428-0.595,1.474-1.509c0-0.157-0.035-0.25-0.094-0.325
				c-0.059-0.075-0.15-0.133-0.265-0.167c-0.23-0.068-0.496,0.112-0.728,0.214c-0.493,0.219-1.537,0.814-3.287,0.829
				c-0.922,0.032-1.602-0.264-2.306-0.58C522.993,850.509,522.875,850.238,522.476,850.16z"/>
			<path id="_x31_2" fill="#CF1126" d="M521.756,852.234c-0.474-0.057-0.951,0.398-0.79,0.979c0.04,0.105,0.2,0.309,0.466,0.517
				c0.271,0.212,0.65,0.437,1.117,0.64c0.933,0.406,2.218,0.72,3.715,0.674c-0.042,0-0.151,0-0.213,0
				c1.52,0.023,2.335-0.139,3.398-0.543c0.898-0.338,1.673-0.595,1.727-1.509c0-0.157-0.041-0.25-0.11-0.325
				c-0.069-0.075-0.175-0.133-0.31-0.167c-0.27-0.068-0.581,0.112-0.853,0.214c-0.578,0.218-1.801,0.814-3.851,0.829
				c-1.081,0.032-1.878-0.264-2.702-0.581C522.362,852.583,522.224,852.311,521.756,852.234z"/>
			<path id="_x31_1" fill="#CF1126" d="M563.597,855.663c-2.6-0.274-4.865-1.922-5.961-4.338c-0.367-0.808-0.357-1.018,0.034-0.736
				c0.661,0.476,1.604,0.897,2.01,0.897c0.334,0,0.611,0.172,1.265,0.783c1.267,1.186,2.688,1.493,2.07,0.447
				c-0.433-0.733-0.312-1.228,0.615-2.518c0.466-0.648,0.908-1.182,0.982-1.188c0.075-0.005,0.451,0.43,0.837,0.969
				c0.829,1.157,1.086,2.027,0.78,2.644c-0.268,0.541-0.249,0.894,0.049,0.894c0.327,0,1.455-0.716,2.126-1.35
				c0.364-0.344,0.764-0.564,1.219-0.673c0.373-0.089,1.004-0.345,1.402-0.568c0.399-0.224,0.753-0.379,0.787-0.344
				c0.163,0.163-0.919,2.001-1.62,2.752c-1.36,1.457-2.668,2.108-4.642,2.311C564.962,855.706,564.082,855.714,563.597,855.663z"/>
			<path id="_x31_0" fill="#CF1126" d="M566.902,852.379c-0.043-0.112-0.043-0.259,0-0.328c0.163-0.265-0.353-1.518-0.993-2.411
				c-0.367-0.512-0.767-1.069-0.887-1.237c-0.12-0.168-0.295-0.305-0.388-0.305c-0.198,0-1.481,1.743-2.02,2.744
				c-0.205,0.38-0.372,0.894-0.372,1.142c0,0.247-0.065,0.45-0.145,0.45c-0.373,0-1.108-0.779-1.514-1.605
				c-0.411-0.836-0.441-0.988-0.434-2.254c0.009-1.602,0.244-2.615,1.119-4.812c0.561-1.41,0.621-1.667,0.627-2.71
				c0.008-1.255-0.229-1.913-0.923-2.56c-0.413-0.385-0.352-0.556,0.199-0.556c0.513,0,1.318,0.41,1.722,0.878
				c0.385,0.446,0.632,0.3,0.751-0.44c0.045-0.278,0.261-0.719,0.481-0.98c0.331-0.392,0.442-0.449,0.647-0.329
				c0.37,0.215,0.857,1.266,0.857,1.849c0,0.669,0.21,0.659,0.887-0.04c0.598-0.618,1.004-0.859,1.653-0.982
				c0.587-0.111,0.577,0.131-0.029,0.718c-0.704,0.682-1.056,1.535-1.064,2.578c-0.008,1.004,0.129,1.493,0.87,3.129
				c0.699,1.542,1.07,3.037,1.07,4.319c0,1.381-0.278,2.257-0.961,3.034C567.373,852.446,567.013,852.667,566.902,852.379z"/>
			<path id="_x39_" fill="#CF1126" d="M565.902,837.672c-0.341-0.669-1.055-1.494-1.292-1.494c-0.214,0-1.284,1.188-1.284,1.425
				c0,0.092-0.084,0.237-0.187,0.323c-0.145,0.12-0.311,0.073-0.741-0.208c-0.699-0.458-1.015-1.309-1.006-2.715
				c0.008-1.226,0.204-2.063,0.882-3.755c0.492-1.229,0.533-1.427,0.487-2.371c-0.06-1.248-0.398-2.014-1.346-3.052
				c-0.365-0.399-0.663-0.763-0.663-0.808c0-0.045,0.282-0.083,0.628-0.083c0.698,0,1.273,0.292,1.852,0.942
				c0.202,0.227,0.42,0.413,0.485,0.413c0.064,0,0.159-0.32,0.21-0.711c0.103-0.783,0.382-1.321,0.686-1.321
				c0.287,0,0.61,0.715,0.61,1.352c0,0.775,0.277,0.824,0.88,0.156c0.271-0.3,0.702-0.614,0.958-0.699
				c0.481-0.159,1.213-0.075,1.356,0.155c0.045,0.072-0.174,0.407-0.485,0.745c-1.364,1.48-1.639,3.147-0.837,5.083
				c0.654,1.58,0.873,2.7,0.804,4.113c-0.074,1.528-0.349,2.229-1.057,2.698c-0.291,0.192-0.559,0.35-0.597,0.35
				C566.207,838.21,566.053,837.968,565.902,837.672z"/>
			<path id="_x38_" fill="#CF1126" d="M562.752,824.603c-0.7-0.513-0.931-1.004-0.931-1.972c0-0.497,0.092-0.764,0.418-1.214
				c0.482-0.666,0.393-0.876-0.287-0.681c-1.095,0.314-1.618,0.027-1.655-0.906c-0.018-0.456,0.079-0.651,0.693-1.389
				c0.492-0.591,0.671-0.902,0.574-0.998c-0.096-0.097-0.679,0.408-1.872,1.622c-0.952,0.969-2.023,1.959-2.379,2.2
				c-2.049,1.385-4.007,1.599-4.902,0.535c-0.458-0.544-0.433-0.851,0.097-1.18c0.242-0.15,0.654-0.496,0.914-0.768
				c0.614-0.641,2.444-1.962,3.353-2.42c0.737-0.372,0.914-0.625,0.435-0.625c-0.622,0-2.614,1.297-4.123,2.685
				c-0.445,0.409-1.084,0.866-1.42,1.014c-0.754,0.333-2.234,0.455-2.892,0.238c-0.466-0.154-1.313-0.953-1.313-1.239
				c0-0.075,0.193-0.241,0.429-0.368c0.236-0.127,0.658-0.432,0.938-0.677c1.208-1.06,3.497-2.15,5.315-2.532
				c0.577-0.121,0.364-0.413-0.281-0.385c-1.246,0.055-3.723,1.215-5.204,2.436c-1.734,1.43-4.348,1.295-5.19-0.268
				c-0.144-0.268-0.23-0.521-0.19-0.561c0.04-0.04,0.556-0.195,1.146-0.344c0.637-0.161,1.898-0.683,3.105-1.284
				c1.899-0.947,2.46-1.149,3.768-1.358c0.587-0.094,0.617-0.381,0.047-0.449c-0.736-0.087-1.863,0.282-3.853,1.261
				c-2.558,1.259-3.276,1.475-4.624,1.394c-1.23-0.073-1.922-0.39-2.92-1.333c-0.652-0.617-1.579-2.189-1.397-2.37
				c0.043-0.043,0.343,0,0.668,0.095c0.358,0.105,1.386,0.175,2.621,0.178c1.732,0.004,2.192-0.041,3.116-0.309
				c1.542-0.446,3.596-1.489,4.999-2.538c2.685-2.008,4.875-2.815,7.668-2.826c2.577-0.01,4.216,0.585,5.669,2.057
				c0.491,0.498,0.91,0.821,0.978,0.753c0.065-0.065,0.136-0.936,0.156-1.935c0,0,0.76-0.073,0.919,0.14
				c0,1.622,0.019,1.75,0.255,1.75c0.155,0,0.32-0.159,0.422-0.405c0.22-0.531,1.037-1.259,1.908-1.7
				c1.887-0.956,5.15-0.986,7.769-0.07c1.104,0.386,2.33,1.079,3.497,1.978c1.169,0.9,3.563,2.105,4.979,2.507
				c1.431,0.406,3.953,0.509,5.248,0.214c0.533-0.121,1.033-0.22,1.112-0.22c0.477,0-0.336,1.591-1.29,2.522
				c-1.744,1.703-4.012,1.695-7.205-0.025c-1.989-1.071-4.368-1.656-4.368-1.074c0,0.121,0.125,0.203,0.31,0.203
				c0.691,0,2.027,0.463,3.889,1.348c2.016,0.958,3.146,1.361,3.818,1.361c0.487,0,0.502,0.303,0.048,0.97
				c-0.482,0.71-1.299,1.063-2.452,1.059c-1.104-0.004-1.716-0.245-2.701-1.064c-1.647-1.37-5.754-2.9-5.596-2.084
				c0.031,0.164,0.23,0.264,0.653,0.328c1.429,0.218,3.106,1.019,4.822,2.305c0.53,0.397,1.078,0.789,1.219,0.871
				c0.235,0.138,0.239,0.18,0.053,0.528c-0.307,0.574-1.084,1.021-1.925,1.108c-1.09,0.113-2.039-0.212-3.019-1.032
				c-2.072-1.734-4.023-2.989-4.648-2.989c-0.511,0-0.282,0.281,0.618,0.759c1.183,0.627,2.4,1.476,3.294,2.299
				c0.425,0.39,0.901,0.779,1.058,0.863c0.376,0.201,0.361,0.494-0.051,1.034c-0.42,0.551-1.117,0.791-2.019,0.696
				c-1.8-0.19-3.204-1.059-5.411-3.347c-0.862-0.894-1.631-1.626-1.709-1.626c-0.294,0-0.122,0.399,0.447,1.035
				c0.705,0.788,0.841,1.233,0.574,1.871c-0.236,0.566-0.628,0.697-1.433,0.48c-0.823-0.221-0.951-0.019-0.412,0.651
				c0.805,1.002,0.686,2.228-0.3,3.072c-0.306,0.262-0.627,0.476-0.713,0.476s-0.304-0.224-0.484-0.497
				c-0.634-0.962-1.191-0.957-1.807,0.018c-0.214,0.338-0.395,0.613-0.403,0.611S563.097,824.856,562.752,824.603z"/>
			<path id="_x37_" fill="#CF1126" d="M565.889,805.047l-1.068,0.846l-0.959-0.723v5.781l2.027,0.025V805.047z"/>
			<path id="_x36_" fill="#CF1126" d="M563.865,797.659c-0.929,0.016-1.91,0.029-2.789,0.202c-0.612,0.12-1.166,0.317-1.629,0.645
				c0.077,1.777,8.542,2.518,10.814,0.034c-0.479-0.349-1.06-0.554-1.702-0.679c-0.848-0.164-1.786-0.182-2.676-0.197
				c0.002,0.489,0.005,0.977,0.005,1.466l-2.022-0.005C563.865,798.625,563.865,798.093,563.865,797.659z"/>
			<path id="_x35_" fill="#CF1126" d="M565.519,788.841l-0.503,4.925l5.068,2.475l-2.565-3.429l3.503-1.134L565.519,788.841z"/>
			<path id="_x34_" fill="#CF1126" d="M564.955,787.559c-0.77,0-1.338,0.287-1.338,0.628c0,0.341,0.569,0.631,1.338,0.631
				c0.769,0,1.333-0.29,1.333-0.631C566.288,787.846,565.724,787.559,564.955,787.559z"/>
			<path id="_x33_" fill="#CF1126" d="M565.521,788.577l-1.315,0.01v10.289l1.341,0.005L565.521,788.577z"/>
			<path id="_x32_" fill="#CF1126" d="M559.268,799.051c-0.213,2.733-0.906,4.639-1.87,6.741l2.312-2.144l1.608,1.91l1.742-1.943
				l1.776,1.642l1.709-1.709l1.776,2.077l1.541-1.709l2.614,1.876c-0.949-2.103-2.232-3.885-2.071-6.842
				C567.873,800.83,561.857,801.17,559.268,799.051z"/>
			<g id="_x31_" transform="matrix(2.6776684e-5,0,0,2.6776684e-5,-70.970375,143.85136)">
				<path id="path3068" fill="#FFCC00" d="M576.479,872.519c0,0.188-0.166,0.34-0.37,0.341c-0.205,0-0.371-0.152-0.371-0.34
					c0,0,0,0,0-0.001c0-0.188,0.166-0.34,0.37-0.34C576.312,872.178,576.478,872.33,576.479,872.519L576.479,872.519z"/>
				<path id="path3070" fill="#FFCC00" d="M577.79,872.082c0,0.188-0.166,0.34-0.37,0.34c-0.205,0-0.371-0.152-0.372-0.34v-0.001
					c0-0.188,0.166-0.34,0.37-0.341C577.623,871.741,577.789,871.893,577.79,872.082L577.79,872.082z"/>
			</g>
		</g>
	</g>
</switch>
</svg>