<?xml version="1.0" encoding="utf-8"?>
<svg version="1.1" id="Countryflags.com" width = "100%" height = "100%"
	 xmlns="http://www.w3.org/2000/svg" xmlns:xlink="http://www.w3.org/1999/xlink" x="0px" y="0px" viewBox="194.5 646.5 300 150"
	 enable-background="new 194.5 646.5 300 150" xml:space="preserve">
<switch>
	<g>
		<g>
			<rect id="_x34_" x="194.5" y="646.5" fill="#239E46" width="300" height="150"/>
			<rect id="_x33_" x="194.5" y="646.5" width="300" height="112.5"/>
			<rect id="_x32_" x="194.5" y="646.5" fill="#E70013" width="300" height="37.5"/>
			<path id="_x31_" fill="#FFFFFF" d="M357.76,708.24c-7.323-5.226-17.496-3.526-22.722,3.798
				c-5.226,7.323-3.526,17.496,3.798,22.722c5.661,4.04,13.263,4.04,18.925,0c-7.323,7.321-19.195,7.32-26.516-0.004
				c-7.322-7.323-7.32-19.195,0.004-26.516C338.569,700.92,350.438,700.92,357.76,708.24 M353.62,721.5l25.23-8.19l-15.6,21.45
				v-26.52l15.6,21.45L353.62,721.5z"/>
		</g>
	</g>
</switch>
</svg>