<?xml version="1.0" encoding="utf-8"?>
<svg version="1.1"
	 id="Countryflags.com" width = "100%" height = "100%" xmlns:sodipodi="http://sodipodi.sourceforge.net/DTD/sodipodi-0.dtd"
	 xmlns="http://www.w3.org/2000/svg" xmlns:xlink="http://www.w3.org/1999/xlink" x="0px" y="0px" viewBox="194.5 696.5 300 180"
	 enable-background="new 194.5 696.5 300 180" xml:space="preserve">
<switch>
	<g>
		<g>
			<rect id="_x37_3" x="194.5" y="696.5" fill="#002B7F" width="300" height="180"/>
			<rect id="_x37_2" x="194.5" y="786.5" fill="#CE1126" width="300" height="90"/>
			<path id="_x37_1" fill="#FFD83D" d="M259.413,733.186l-0.552,18.75h-19.026c-2.34-4.551-4.274-8.416-4.274-13.649
				c0-4.38,3.445-7.859,8.41-7.859C249.228,730.429,255.003,732.2,259.413,733.186z"/>
			<path id="_x37_0" fill="#FFD83D" stroke="#000000" stroke-width="0.45" stroke-linecap="round" stroke-linejoin="round" d="
				M237.837,734.048v10.823"/>
			<path id="_x36_9" fill="#FFD83D" stroke="#000000" stroke-width="0.45" stroke-linecap="round" stroke-linejoin="round" d="
				M239.365,732.944v14.41"/>
			<path id="_x36_8" fill="#FFD83D" stroke="#000000" stroke-width="0.45" stroke-linecap="round" stroke-linejoin="round" d="
				M240.893,732.185v17.167"/>
			<path id="_x36_7" fill="#FFD83D" stroke="#000000" stroke-width="0.45" stroke-linecap="round" stroke-linejoin="round" d="
				M242.421,731.831v13.464"/>
			<path id="_x36_6" fill="#FFD83D" stroke="#000000" stroke-width="0.45" stroke-linecap="round" stroke-linejoin="round" d="
				M243.949,731.764v13.598"/>
			<path id="_x36_5" fill="#FFD83D" stroke="#000000" stroke-width="0.45" stroke-linecap="round" stroke-linejoin="round" d="
				M245.477,731.289v14.065"/>
			<path id="_x36_4" fill="#FFD83D" stroke="#000000" stroke-width="0.45" stroke-linecap="round" stroke-linejoin="round" d="
				M247.005,731.289v14.065"/>
			<path id="_x36_3" fill="#FFD83D" stroke="#000000" stroke-width="0.45" stroke-linecap="round" stroke-linejoin="round" d="
				M248.533,731.427v14.065"/>
			<path id="_x36_2" fill="#FFD83D" stroke="#000000" stroke-width="0.45" stroke-linecap="round" stroke-linejoin="round" d="
				M250.061,731.565v14.066"/>
			<path id="_x36_1" fill="#FFD83D" stroke="#000000" stroke-width="0.45" stroke-linecap="round" stroke-linejoin="round" d="
				M251.589,732.461v14.065"/>
			<path id="_x36_0" fill="#FFD83D" stroke="#000000" stroke-width="0.45" stroke-linecap="round" stroke-linejoin="round" d="
				M253.117,732.599v15.858"/>
			<path id="_x35_9" fill="#FFD83D" stroke="#000000" stroke-width="0.45" stroke-linecap="round" stroke-linejoin="round" d="
				M254.645,732.599v14.065"/>
			<path id="_x35_8" fill="#FFD83D" stroke="#000000" stroke-width="0.45" stroke-linecap="round" stroke-linejoin="round" d="
				M256.173,732.599v14.065"/>
			<path id="_x35_7" stroke="#000000" stroke-width="0.45" stroke-linecap="round" stroke-linejoin="round" d="M247.419,731.877
				c3.229,0.533,10.322,3.851,9.513,8.341c-1.146,6.363-4.862,3.809-9.789,2.895l-3.722,1.241c-1.332,1.36-3.294,2.605-4.619,0.965
				h-2.206v8.616h24.403v-20.818L247.419,731.877z"/>
			
				<circle id="_x35_6" fill="#FFD83D" stroke="#000000" stroke-width="0.6" stroke-linecap="round" stroke-linejoin="round" cx="258.345" cy="730.395" r="1.482"/>
			
				<circle id="_x35_5" fill="#FFD83D" stroke="#000000" stroke-width="0.6" stroke-linecap="round" stroke-linejoin="round" cx="255.014" cy="729.593" r="1.482"/>
			
				<circle id="_x35_4" fill="#FFD83D" stroke="#000000" stroke-width="0.6" stroke-linecap="round" stroke-linejoin="round" cx="251.635" cy="728.744" r="1.482"/>
			
				<circle id="_x35_3" fill="#FFD83D" stroke="#000000" stroke-width="0.6" stroke-linecap="round" stroke-linejoin="round" cx="248.243" cy="728.179" r="1.482"/>
			
				<circle id="_x35_2" fill="#FFD83D" stroke="#000000" stroke-width="0.6" stroke-linecap="round" stroke-linejoin="round" cx="244.851" cy="727.844" r="1.482"/>
			
				<circle id="_x35_1" fill="#FFD83D" stroke="#000000" stroke-width="0.6" stroke-linecap="round" stroke-linejoin="round" cx="241.525" cy="728.034" r="1.482"/>
			
				<circle id="_x35_0" fill="#FFD83D" stroke="#000000" stroke-width="0.6" stroke-linecap="round" stroke-linejoin="round" cx="238.354" cy="729.119" r="1.482"/>
			
				<circle id="_x34_9" fill="#FFD83D" stroke="#000000" stroke-width="0.6" stroke-linecap="round" stroke-linejoin="round" cx="235.683" cy="731.084" r="1.482"/>
			
				<circle id="_x34_8" fill="#FFD83D" stroke="#000000" stroke-width="0.6" stroke-linecap="round" stroke-linejoin="round" cx="233.787" cy="733.824" r="1.482"/>
			
				<circle id="_x34_7" fill="#FFD83D" stroke="#000000" stroke-width="0.6" stroke-linecap="round" stroke-linejoin="round" cx="232.874" cy="737.047" r="1.482"/>
			
				<circle id="_x34_6" fill="#FFD83D" stroke="#000000" stroke-width="0.6" stroke-linecap="round" stroke-linejoin="round" cx="232.908" cy="740.39" r="1.482"/>
			
				<circle id="_x34_5" fill="#FFD83D" stroke="#000000" stroke-width="0.6" stroke-linecap="round" stroke-linejoin="round" cx="233.546" cy="743.664" r="1.482"/>
			<path id="_x34_4" fill="#FFD83D" stroke="#000000" stroke-width="0.6" stroke-linecap="round" stroke-linejoin="round" d="
				M259,732.359l-0.138,1.93c-3.687-0.565-8.914-2.62-13.787-2.62c-4.502,0-7.996,1.801-7.996,6.342
				c0,4.476,1.895,8.546,4.412,12.684l-2.619,1.241c-2.341-4.551-4.274-8.416-4.274-13.649c0-4.38,3.445-8.686,9.375-8.686
				C249.228,729.602,254.589,731.373,259,732.359z"/>
			<path id="_x34_3" fill="#FFD83D" d="M262.768,733.186l0.551,18.75h19.026c2.341-4.551,4.274-8.416,4.274-13.649
				c0-4.38-3.445-7.859-8.41-7.859C272.953,730.429,267.179,732.2,262.768,733.186z"/>
			<path id="_x34_2" fill="#FFD83D" stroke="#000000" stroke-width="0.45" stroke-linecap="round" stroke-linejoin="round" d="
				M284.344,734.048v10.823"/>
			<path id="_x34_1" fill="#FFD83D" stroke="#000000" stroke-width="0.45" stroke-linecap="round" stroke-linejoin="round" d="
				M282.817,732.944v14.41"/>
			<path id="_x34_0" fill="#FFD83D" stroke="#000000" stroke-width="0.45" stroke-linecap="round" stroke-linejoin="round" d="
				M281.288,732.185v17.167"/>
			<path id="_x33_9" fill="#FFD83D" stroke="#000000" stroke-width="0.45" stroke-linecap="round" stroke-linejoin="round" d="
				M279.761,731.831v13.464"/>
			<path id="_x33_8" fill="#FFD83D" stroke="#000000" stroke-width="0.45" stroke-linecap="round" stroke-linejoin="round" d="
				M278.232,731.764v13.598"/>
			<path id="_x33_7" fill="#FFD83D" stroke="#000000" stroke-width="0.45" stroke-linecap="round" stroke-linejoin="round" d="
				M276.704,731.289v14.065"/>
			<path id="_x33_6" fill="#FFD83D" stroke="#000000" stroke-width="0.45" stroke-linecap="round" stroke-linejoin="round" d="
				M275.177,731.289v14.065"/>
			<path id="_x33_5" fill="#FFD83D" stroke="#000000" stroke-width="0.45" stroke-linecap="round" stroke-linejoin="round" d="
				M273.648,731.427v14.065"/>
			<path id="_x33_4" fill="#FFD83D" stroke="#000000" stroke-width="0.45" stroke-linecap="round" stroke-linejoin="round" d="
				M272.12,731.565v14.066"/>
			<path id="_x33_3" fill="#FFD83D" stroke="#000000" stroke-width="0.45" stroke-linecap="round" stroke-linejoin="round" d="
				M270.592,732.461v14.065"/>
			<path id="_x33_2" fill="#FFD83D" stroke="#000000" stroke-width="0.45" stroke-linecap="round" stroke-linejoin="round" d="
				M269.064,732.599v15.858"/>
			<path id="_x33_1" fill="#FFD83D" stroke="#000000" stroke-width="0.45" stroke-linecap="round" stroke-linejoin="round" d="
				M267.536,732.599v14.065"/>
			<path id="_x33_0" fill="#FFD83D" stroke="#000000" stroke-width="0.45" stroke-linecap="round" stroke-linejoin="round" d="
				M266.008,732.599v14.065"/>
			<path id="_x32_9" stroke="#000000" stroke-width="0.45" stroke-linecap="round" stroke-linejoin="round" d="M274.763,731.877
				c-3.229,0.533-10.322,3.851-9.513,8.341c1.146,6.363,4.862,3.809,9.789,2.895l3.722,1.241c1.332,1.36,3.293,2.605,4.619,0.965
				h2.206v8.616h-24.403v-20.818L274.763,731.877z"/>
			
				<circle id="_x32_8" fill="#FFD83D" stroke="#000000" stroke-width="0.6" stroke-linecap="round" stroke-linejoin="round" cx="263.837" cy="730.395" r="1.482"/>
			
				<circle id="_x32_7" fill="#FFD83D" stroke="#000000" stroke-width="0.6" stroke-linecap="round" stroke-linejoin="round" cx="267.168" cy="729.593" r="1.482"/>
			
				<circle id="_x32_6" fill="#FFD83D" stroke="#000000" stroke-width="0.6" stroke-linecap="round" stroke-linejoin="round" cx="270.546" cy="728.744" r="1.482"/>
			
				<circle id="_x32_5" fill="#FFD83D" stroke="#000000" stroke-width="0.6" stroke-linecap="round" stroke-linejoin="round" cx="273.938" cy="728.179" r="1.482"/>
			
				<circle id="_x32_4" fill="#FFD83D" stroke="#000000" stroke-width="0.6" stroke-linecap="round" stroke-linejoin="round" cx="277.33" cy="727.844" r="1.482"/>
			
				<circle id="_x32_3" fill="#FFD83D" stroke="#000000" stroke-width="0.6" stroke-linecap="round" stroke-linejoin="round" cx="280.656" cy="728.034" r="1.482"/>
			
				<circle id="_x32_2" fill="#FFD83D" stroke="#000000" stroke-width="0.6" stroke-linecap="round" stroke-linejoin="round" cx="283.828" cy="729.119" r="1.482"/>
			
				<circle id="_x32_1" fill="#FFD83D" stroke="#000000" stroke-width="0.6" stroke-linecap="round" stroke-linejoin="round" cx="286.499" cy="731.084" r="1.482"/>
			
				<circle id="_x32_0" fill="#FFD83D" stroke="#000000" stroke-width="0.6" stroke-linecap="round" stroke-linejoin="round" cx="288.394" cy="733.824" r="1.482"/>
			
				<circle id="_x31_9" fill="#FFD83D" stroke="#000000" stroke-width="0.6" stroke-linecap="round" stroke-linejoin="round" cx="289.308" cy="737.047" r="1.482"/>
			
				<circle id="_x31_8" fill="#FFD83D" stroke="#000000" stroke-width="0.6" stroke-linecap="round" stroke-linejoin="round" cx="289.273" cy="740.39" r="1.482"/>
			
				<circle id="_x31_7" fill="#FFD83D" stroke="#000000" stroke-width="0.6" stroke-linecap="round" stroke-linejoin="round" cx="288.636" cy="743.664" r="1.482"/>
			<path id="_x31_6" fill="#FFD83D" stroke="#000000" stroke-width="0.6" stroke-linecap="round" stroke-linejoin="round" d="
				M263.182,732.359l0.138,1.93c3.687-0.565,8.914-2.62,13.787-2.62c4.502,0,7.996,1.801,7.996,6.342
				c0,4.476-1.895,8.546-4.412,12.684l2.619,1.241c2.341-4.551,4.274-8.416,4.274-13.649c0-4.38-3.445-8.686-9.375-8.686
				C272.953,729.602,267.592,731.373,263.182,732.359z"/>
			<path id="_x31_5" fill="#FFD83D" stroke="#000000" stroke-width="0.6" stroke-linecap="round" stroke-linejoin="round" d="
				M261.091,712.437l-1.547,2.897l1.547,2.888l1.547-2.888L261.091,712.437z M261.091,719.75l-1.547,2.888l1.547,2.897l1.547-2.897
				L261.091,719.75z"/>
			<path id="_x31_4" fill="#FFD83D" stroke="#000000" stroke-width="0.6" stroke-linecap="round" stroke-linejoin="round" d="
				M255.576,718.986l2.44,1.547l2.432-1.547l-2.432-1.547L255.576,718.986z M261.734,718.986l2.432,1.547l2.439-1.547l-2.439-1.547
				L261.734,718.986z"/>
			
				<circle id="_x31_3" fill="#FFD83D" stroke="#000000" stroke-width="0.6" stroke-linecap="round" stroke-linejoin="round" cx="261.091" cy="719.021" r="1.172"/>
			
				<circle id="_x31_2" fill="#FFD83D" stroke="#000000" stroke-width="0.6" stroke-linecap="round" stroke-linejoin="round" cx="261.091" cy="726.5" r="3.137"/>
			<path id="_x31_1" fill="none" stroke="#000000" stroke-width="0.45" stroke-linecap="round" stroke-linejoin="round" d="
				M260.303,723.462c0,0.934-0.007,1.477-0.009,1.987c-0.756,0.034-1.502,0.113-2.231,0.234 M264.119,725.684
				c-0.729-0.121-1.475-0.201-2.231-0.234c0-0.509,0-1.051,0-1.987 M258.053,727.268c0.988-0.165,2.002-0.253,3.038-0.253
				c1.035,0,2.049,0.088,3.038,0.253"/>
			<path id="_x31_0" fill="#FFD83D" stroke="#000000" stroke-width="0.6" stroke-linecap="round" stroke-linejoin="round" d="
				M258.025,731.806c-0.298,5.125-0.903,10.344-2.897,14.137l3.244-1.313c1.133-4.298,1.371-9.853,1.716-12.478L258.025,731.806z
				 M264.156,731.806l-2.063,0.347c0.345,2.625,0.583,8.18,1.716,12.478l3.244,1.313
				C265.059,742.15,264.454,736.931,264.156,731.806z"/>
			<path id="_x39_" fill="#FFD83D" stroke="#000000" stroke-width="0.6" stroke-linecap="round" stroke-linejoin="round" d="
				M261.086,742.906c-3.874,0-6.72,1.826-6.891,6.478c-0.947-1.666-4.953-6.908-8.691-6.206c-2.223,0.417-4.187,3.5-3.853,7.031
				c-1.84-5.289-7.232-6.156-11.166-3.028c3.492,2.872,5.046,11.35,7.988,15.028h22.613h22.612
				c2.941-3.678,4.504-12.156,7.997-15.028c-3.934-3.127-9.325-2.261-11.166,3.028c0.334-3.531-1.64-6.614-3.863-7.031
				c-3.738-0.701-7.734,4.54-8.681,6.206C267.815,744.732,264.96,742.906,261.086,742.906z"/>
			<path id="_x38_" stroke="#000000" stroke-width="0.45" stroke-linecap="round" stroke-linejoin="round" d="M283.632,762.208
				c0,1.674-10.099,3.516-22.541,3.516c-12.443,0-22.541-1.842-22.541-3.516c0-1.674,10.098-2.551,22.541-2.551
				C273.534,759.657,283.632,760.533,283.632,762.208z"/>
			
				<circle id="_x37_" fill="#FFD83D" stroke="#000000" stroke-width="0.45" stroke-linecap="round" stroke-linejoin="round" cx="261.091" cy="730.833" r="1.051"/>
			
				<circle id="_x36_" fill="#FFD83D" stroke="#000000" stroke-width="0.45" stroke-linecap="round" stroke-linejoin="round" cx="261.091" cy="733.108" r="1.12"/>
			
				<circle id="_x35_" fill="#FFD83D" stroke="#000000" stroke-width="0.45" stroke-linecap="round" stroke-linejoin="round" cx="261.091" cy="735.555" r="1.224"/>
			
				<circle id="_x34_" fill="#FFD83D" stroke="#000000" stroke-width="0.45" stroke-linecap="round" stroke-linejoin="round" cx="261.091" cy="738.278" r="1.396"/>
			
				<circle id="_x33_" fill="#FFD83D" stroke="#000000" stroke-width="0.45" stroke-linecap="round" stroke-linejoin="round" cx="261.091" cy="741.311" r="1.534"/>
			<path id="_x32_" d="M260.482,744.262c-0.166-0.002-0.323,0.138-0.281,0.403c0.049,0.313,0.11,0.899,0.169,1.294
				c0.066,0.448,0.327,0.339,0.394-0.009c0.066-0.348,0.04-0.572,0.056-1.219C260.827,744.407,260.647,744.264,260.482,744.262z
				 M261.7,744.262c-0.166,0.002-0.346,0.145-0.338,0.469c0.017,0.647-0.01,0.87,0.056,1.219c0.066,0.348,0.328,0.457,0.394,0.009
				c0.059-0.395,0.12-0.981,0.169-1.294C262.023,744.399,261.866,744.26,261.7,744.262z M259.394,744.43
				c-0.152,0.021-0.309,0.174-0.3,0.337c0.016,0.299,0.099,0.657,0.131,1.106c0.033,0.464,0.36,0.284,0.394,0.019
				c0.033-0.265,0.071-0.658,0.038-1.172c-0.013-0.193-0.097-0.278-0.197-0.291C259.439,744.428,259.416,744.427,259.394,744.43z
				 M262.722,744.43c-0.1,0.013-0.185,0.098-0.197,0.291c-0.033,0.514,0.004,0.906,0.038,1.172s0.361,0.446,0.394-0.019
				c0.032-0.449,0.115-0.808,0.131-1.106c0.009-0.163-0.148-0.316-0.3-0.337C262.766,744.427,262.743,744.428,262.722,744.43z
				 M258.091,744.955c-0.139,0.036-0.267,0.203-0.225,0.394c0.083,0.382,0.159,0.803,0.159,1.191c0,0.332,0.283,0.214,0.3-0.019
				c0.016-0.232,0.047-0.724,0.047-1.172C258.372,745.015,258.23,744.92,258.091,744.955z M263.997,744.955
				c-0.099,0.027-0.188,0.143-0.188,0.394c0,0.448,0.03,0.94,0.047,1.172c0.017,0.232,0.3,0.351,0.3,0.019
				c0-0.387,0.076-0.809,0.159-1.191c0.041-0.191-0.086-0.358-0.225-0.394C264.056,744.946,264.03,744.946,263.997,744.955z
				 M246.269,745.007c-0.166-0.006-0.283,0.22-0.169,0.469c0.182,0.398,0.376,0.65,0.563,1.078c0.166,0.382,0.42,0.144,0.337-0.122
				c-0.083-0.265-0.173-0.561-0.422-1.125C246.485,745.095,246.369,745.01,246.269,745.007z M275.913,745.007
				c-0.1,0.003-0.216,0.089-0.309,0.3c-0.249,0.564-0.339,0.86-0.422,1.125c-0.083,0.266,0.171,0.504,0.337,0.122
				c0.186-0.429,0.38-0.68,0.563-1.078C276.195,745.227,276.079,745.001,275.913,745.007z M247.469,745.025
				c-0.122,0.038-0.197,0.193-0.122,0.375c0.149,0.365,0.365,0.739,0.516,1.134c0.133,0.348,0.428,0.25,0.328-0.066
				c-0.1-0.315-0.129-0.5-0.328-1.097C247.763,745.074,247.591,744.988,247.469,745.025z M274.619,745.025
				c-0.105,0.022-0.225,0.123-0.3,0.347c-0.199,0.597-0.229,0.782-0.328,1.097c-0.1,0.315,0.195,0.414,0.328,0.066
				c0.151-0.395,0.366-0.769,0.516-1.134c0.075-0.182,0-0.337-0.122-0.375C274.682,745.016,274.654,745.018,274.619,745.025z
				 M248.969,745.316c-0.154,0.029-0.274,0.265-0.169,0.553c0.133,0.365,0.321,0.71,0.488,1.125
				c0.166,0.415,0.441,0.331,0.375,0.066c-0.067-0.265-0.148-0.705-0.347-1.369C249.229,745.401,249.089,745.293,248.969,745.316z
				 M273.213,745.316c-0.12-0.023-0.26,0.085-0.347,0.375c-0.199,0.664-0.281,1.103-0.347,1.369
				c-0.066,0.265,0.209,0.349,0.375-0.066c0.166-0.415,0.355-0.76,0.488-1.125C273.486,745.581,273.367,745.345,273.213,745.316z
				 M245.257,745.522c-0.167,0.017-0.319,0.29-0.216,0.497c0.166,0.332,0.271,0.445,0.431,0.797c0.166,0.365,0.347,0.082,0.281-0.15
				c-0.066-0.232-0.151-0.503-0.234-0.834C245.458,745.589,245.357,745.512,245.257,745.522z M276.925,745.522
				c-0.1-0.01-0.202,0.067-0.262,0.309c-0.083,0.332-0.168,0.602-0.234,0.834c-0.066,0.232,0.115,0.515,0.281,0.15
				c0.16-0.352,0.265-0.465,0.431-0.797C277.244,745.812,277.092,745.539,276.925,745.522z M256.816,746.362
				c-0.175,0-0.362,0.232-0.3,0.45c0.099,0.348,0.253,0.657,0.366,1.106c0.099,0.398,0.382,0.2,0.366-0.066
				s-0.062-0.626-0.178-1.191C257.025,746.45,256.921,746.362,256.816,746.362z M265.366,746.362c-0.105,0-0.21,0.089-0.253,0.3
				c-0.116,0.564-0.161,0.925-0.178,1.191s0.266,0.464,0.366,0.066c0.112-0.449,0.266-0.758,0.366-1.106
				C265.728,746.594,265.541,746.362,265.366,746.362z M261.091,746.718c-0.216,0-0.246,0.29-0.253,0.525
				c-0.025,0.771-0.345,1.52-0.619,1.894c-0.274,0.373-0.677,0.274-1.05,0.075c-0.373-0.199-0.596-0.348-0.994-0.647
				c-0.398-0.299-0.7-0.124-0.225,0.553c1.385,1.974,2.887,3.661,2.887,6.881c0,0.416,0.073,0.544,0.253,0.544
				c0.18,0,0.263-0.128,0.263-0.544c0-3.22,1.493-4.907,2.878-6.881c0.475-0.677,0.173-0.852-0.225-0.553
				c-0.398,0.299-0.621,0.448-0.994,0.647c-0.373,0.199-0.776,0.298-1.05-0.075c-0.274-0.373-0.594-1.122-0.619-1.894
				C261.336,747.008,261.306,746.718,261.091,746.718z M250.507,746.235c-0.019-0.001-0.04,0.004-0.056,0.009
				c-0.081,0.026-0.134,0.123-0.103,0.291c0.056,0.301,0.264,0.89,0.347,1.172c0.083,0.282,0.43,0.222,0.347-0.159
				c-0.083-0.381-0.079-0.497-0.178-0.928C250.808,746.383,250.639,746.239,250.507,746.235z M271.675,746.235
				c-0.132,0.004-0.302,0.148-0.356,0.384c-0.1,0.431-0.095,0.547-0.178,0.928c-0.083,0.381,0.264,0.441,0.347,0.159
				c0.083-0.282,0.291-0.871,0.347-1.172c0.031-0.168-0.023-0.265-0.103-0.291C271.715,746.239,271.694,746.234,271.675,746.235z
				 M244.216,746.357c-0.174,0.014-0.298,0.232-0.122,0.553c0.19,0.347,0.516,0.783,0.666,1.031
				c0.149,0.249,0.408,0.081,0.225-0.234c-0.182-0.315-0.244-0.677-0.459-1.125C244.444,746.414,244.32,746.348,244.216,746.357z
				 M277.966,746.357c-0.104-0.008-0.229,0.057-0.309,0.225c-0.216,0.448-0.277,0.81-0.459,1.125
				c-0.183,0.315,0.076,0.483,0.225,0.234c0.149-0.249,0.475-0.684,0.666-1.031C278.264,746.588,278.139,746.37,277.966,746.357z
				 M234.71,747.355c-0.2-0.011-0.263,0.351-0.075,0.591c0.274,0.348,0.464,0.533,0.778,0.816c0.249,0.224,0.321-0.067,0.197-0.291
				c-0.124-0.224-0.304-0.452-0.553-0.825C234.92,747.441,234.801,747.36,234.71,747.355z M287.472,747.355
				c-0.091,0.005-0.211,0.086-0.347,0.291c-0.249,0.373-0.429,0.601-0.553,0.825c-0.125,0.224-0.052,0.514,0.197,0.291
				c0.314-0.282,0.504-0.467,0.778-0.816C287.735,747.706,287.672,747.345,287.472,747.355z M236.219,747.655
				c-0.16,0.002-0.265,0.12-0.141,0.394c0.178,0.392,0.413,0.836,0.563,1.134c0.149,0.299,0.604,0.399,0.422-0.066
				c-0.183-0.464-0.219-0.703-0.384-1.134C236.595,747.768,236.379,747.653,236.219,747.655z M285.963,747.655
				c-0.16-0.002-0.376,0.112-0.459,0.328c-0.166,0.431-0.202,0.67-0.384,1.134c-0.183,0.464,0.272,0.364,0.422,0.066
				c0.149-0.299,0.384-0.742,0.563-1.134C286.228,747.775,286.122,747.657,285.963,747.655z M233.294,747.758
				c-0.232,0.002-0.252,0.235-0.047,0.384c0.274,0.199,0.6,0.42,0.919,0.675c0.373,0.299,0.518,0.024,0.319-0.225
				c-0.199-0.249-0.393-0.501-0.891-0.75C233.469,747.781,233.371,747.758,233.294,747.758z M288.888,747.758
				c-0.078-0.001-0.176,0.022-0.3,0.084c-0.498,0.249-0.692,0.501-0.891,0.75c-0.199,0.249-0.055,0.524,0.319,0.225
				c0.318-0.255,0.645-0.476,0.919-0.675C289.14,747.994,289.12,747.761,288.888,747.758z M255.991,747.974
				c-0.13,0.018-0.242,0.166-0.188,0.356c0.099,0.348,0.212,0.717,0.281,1.078c0.066,0.348,0.469,0.353,0.403,0.037
				c-0.066-0.315-0.1-0.71-0.216-1.191c-0.044-0.18-0.134-0.267-0.225-0.281C256.028,747.971,256.009,747.971,255.991,747.974z
				 M266.135,747.974c-0.091,0.014-0.182,0.101-0.225,0.281c-0.116,0.481-0.149,0.875-0.216,1.191
				c-0.067,0.315,0.337,0.311,0.403-0.037c0.069-0.361,0.182-0.73,0.281-1.078c0.054-0.19-0.058-0.338-0.188-0.356
				C266.172,747.971,266.153,747.971,266.135,747.974z M246.963,747.378c-0.102,0.028-0.161,0.223-0.084,0.497
				c0.423,1.518,0.553,2.317,0.478,2.691c-0.075,0.373-0.279,0.424-0.553,0.3c-0.274-0.124-0.595-0.304-0.844-0.478
				c-0.249-0.174-0.508,0.034-0.15,0.328c1.816,1.493,3.076,3.199,3.563,5.269c0.099,0.423,0.365,0.473,0.291,0
				c-0.412-2.607-0.491-4.75,0.131-6.094c0.234-0.505-0.002-0.99-0.375-0.169c-0.249,0.548-0.652,0.763-0.975,0.291
				c-0.323-0.473-0.992-1.734-1.191-2.306c-0.075-0.214-0.167-0.314-0.244-0.328C246.993,747.376,246.977,747.374,246.963,747.378z
				 M275.172,747.378c-0.077,0.014-0.169,0.114-0.244,0.328c-0.199,0.572-0.867,1.834-1.191,2.306
				c-0.324,0.473-0.726,0.257-0.975-0.291c-0.374-0.821-0.609-0.336-0.375,0.169c0.622,1.344,0.543,3.487,0.131,6.094
				c-0.075,0.473,0.191,0.423,0.291,0c0.487-2.07,1.746-3.776,3.563-5.269c0.357-0.294,0.099-0.502-0.15-0.328
				c-0.249,0.174-0.57,0.354-0.844,0.478c-0.274,0.125-0.479,0.073-0.553-0.3c-0.075-0.373,0.055-1.173,0.478-2.691
				c0.076-0.274,0.018-0.469-0.084-0.497C275.204,747.374,275.188,747.376,275.172,747.378z M237.831,748.105
				c-0.164,0.002-0.3,0.117-0.225,0.366c0.12,0.399,0.367,0.829,0.45,1.078c0.083,0.249,0.35,0.133,0.3-0.216
				c-0.05-0.348-0.074-0.556-0.141-0.938C238.182,748.205,237.995,748.103,237.831,748.105z M284.35,748.105
				c-0.164-0.002-0.351,0.1-0.384,0.291c-0.066,0.382-0.091,0.589-0.141,0.938c-0.05,0.348,0.217,0.464,0.3,0.216
				c0.083-0.249,0.33-0.679,0.45-1.078C284.65,748.222,284.514,748.107,284.35,748.105z M243.466,747.585
				c-0.191-0.034-0.218,0.457-0.056,0.656c0.216,0.266,0.515,0.587,0.816,0.947c0.249,0.299,0.403,0.033,0.253-0.216
				c-0.149-0.249-0.371-0.513-0.769-1.144C243.61,747.671,243.529,747.596,243.466,747.585z M278.716,747.585
				c-0.064,0.011-0.144,0.086-0.244,0.244c-0.398,0.63-0.62,0.895-0.769,1.144c-0.149,0.249,0.004,0.514,0.253,0.216
				c0.3-0.36,0.6-0.681,0.816-0.947C278.934,748.042,278.906,747.55,278.716,747.585z M239.116,748.771
				c-0.118-0.008-0.219,0.088-0.169,0.328c0.069,0.335,0.17,0.613,0.253,0.928c0.083,0.315,0.3,0.261,0.3-0.038
				c0-0.299-0.053-0.632-0.103-0.947C239.372,748.885,239.234,748.779,239.116,748.771z M283.066,748.771
				c-0.118,0.008-0.256,0.114-0.281,0.272c-0.05,0.315-0.103,0.648-0.103,0.947c0,0.299,0.217,0.353,0.3,0.038
				c0.083-0.315,0.184-0.593,0.253-0.928C283.284,748.859,283.184,748.763,283.066,748.771z M243.044,749.197
				c-0.186,0.028-0.349,0.208-0.131,0.487c0.348,0.448,0.73,0.762,0.862,0.928s0.469,0.105,0.253-0.244
				c-0.221-0.356-0.554-0.785-0.703-1.05C243.269,749.219,243.155,749.18,243.044,749.197z M279.063,749.197
				c-0.082,0.008-0.164,0.047-0.206,0.122c-0.149,0.265-0.483,0.694-0.703,1.05c-0.216,0.348,0.12,0.41,0.253,0.244
				s0.514-0.48,0.862-0.928c0.218-0.28,0.054-0.459-0.131-0.487C279.11,749.193,279.09,749.194,279.063,749.197z M236.847,750.449
				c-0.146-0.013-0.197,0.105,0,0.375c0.448,0.614,0.942,1.542,0.975,1.941c0.033,0.398-0.164,0.394-0.347,0.394
				c-0.548,0-0.815-0.4-1.313-0.516c-0.498-0.116-0.57,0.146-0.216,0.403c1.825,1.327,3.654,2.808,4.388,4.153
				c0.299,0.548,0.702,0.748,0.478,0.225c-0.686-1.601-0.853-2.957-0.703-3.778c0.149-0.821,0.353-1.374,0.328-1.847
				c-0.025-0.473-0.293-0.44-0.403,0c-0.075,0.299-0.219,0.694-0.319,0.844c-0.1,0.149-0.5,0.233-0.881-0.281
				c-0.382-0.514-1.344-1.504-1.659-1.753C237.057,750.515,236.935,750.457,236.847,750.449z M285.335,750.449
				c-0.088,0.008-0.21,0.066-0.328,0.159c-0.315,0.249-1.278,1.239-1.659,1.753c-0.382,0.514-0.782,0.431-0.881,0.281
				c-0.1-0.149-0.244-0.545-0.319-0.844c-0.11-0.44-0.378-0.473-0.403,0c-0.025,0.473,0.179,1.026,0.328,1.847
				c0.149,0.821-0.017,2.177-0.703,3.778c-0.224,0.523,0.18,0.323,0.478-0.225c0.734-1.345,2.563-2.826,4.387-4.153
				c0.354-0.258,0.282-0.519-0.216-0.403c-0.498,0.116-0.765,0.516-1.313,0.516c-0.183,0-0.38,0.004-0.347-0.394
				c0.033-0.398,0.527-1.327,0.975-1.941C285.531,750.554,285.481,750.436,285.335,750.449z"/>
			<path id="_x31_" fill="#FFD83D" stroke="#000000" stroke-width="0.45" stroke-linecap="round" stroke-linejoin="round" d="
				M239.538,760.295l0.585,1.852 M240.741,759.944l0.519,1.872 M242.041,759.73l0.356,1.91 M243.247,759.489l0.381,1.905
				 M244.794,759.336l0.31,1.918 M246.439,759.338l0.334,1.914 M248.045,758.795l0.241,1.927 M249.556,758.893l0.241,1.927
				 M251.019,758.698l0.241,1.927 M252.486,758.546l0.133,1.938 M254.055,758.546l0.115,1.939 M255.477,758.448l0.098,1.94
				 M257.045,758.35l0.081,1.941 M258.849,758.301l0.081,1.941 M282.643,760.295l-0.585,1.852 M281.44,759.944l-0.518,1.872
				 M280.141,759.73l-0.356,1.91 M278.934,759.489l-0.381,1.905 M277.388,759.336l-0.31,1.918 M275.743,759.338l-0.334,1.914
				 M274.136,758.795l-0.241,1.927 M272.625,758.893l-0.241,1.927 M271.163,758.698l-0.241,1.927 M269.695,758.546l-0.132,1.938
				 M268.127,758.546l-0.115,1.939 M266.704,758.448l-0.098,1.94 M265.136,758.35l-0.081,1.941 M263.333,758.301l-0.081,1.941
				 M261.091,758.175v2.137"/>
		</g>
	</g>
</switch>
</svg>