<?xml version="1.0" encoding="utf-8"?>
<svg version="1.1" id="Countryflags.com"  width = "100%" height = "100%"
	 xmlns="http://www.w3.org/2000/svg" xmlns:xlink="http://www.w3.org/1999/xlink" x="0px" y="0px" viewBox="0.5 792.5 300 200"
	 enable-background="new 0.5 792.5 300 200" xml:space="preserve">
<switch>
	<g>
		<g>
			<rect id="_x33_" x="0.5" y="792.5" fill="#FFFFFF" width="300" height="200"/>
			<path id="_x32_" fill="#2F4712" d="M145.434,958.583c-0.06-0.029-0.073-0.041-0.116-0.082l-0.042-0.039
				c-0.108-0.099-0.287-0.274-0.528-0.548c-0.444-0.505-1.039-1.243-1.563-1.895c-1.038-1.294-1.897-2.409-2.058-2.619l-0.265-0.344
				l-0.264,0.344c-0.161,0.211-1.021,1.326-2.058,2.619c-0.523,0.652-1.119,1.391-1.563,1.895c-0.24,0.274-0.419,0.449-0.527,0.548
				l-0.042,0.039c-0.045,0.043-0.056,0.054-0.094,0.072l-0.044,0.003l-0.669-0.064l0.323-0.25l0.299,0.19
				c-0.014-0.034-0.04-0.095-0.086-0.161c-0.075-0.109-0.185-0.244-0.31-0.381c-0.27-0.295-0.654-0.651-0.958-0.927
				c-0.683-0.62-1.369-1.191-1.376-1.198l-0.007-0.005l4.788-3.521l-1.89-0.881l1.01-1.135l3.469,1.485l3.47-1.485l1.01,1.135
				l-1.89,0.881l4.788,3.521l-0.004,0.003c-0.01,0.008-0.696,0.58-1.379,1.2c-0.304,0.276-0.688,0.632-0.959,0.927
				c-0.125,0.136-0.235,0.271-0.31,0.38c-0.046,0.067-0.071,0.128-0.084,0.157l0.297-0.185l0.322,0.25l-0.656,0.061l-0.03,0.007
				L145.434,958.583z M154.077,953.243c-3.634,0-6.109-1.631-6.19-1.685c3.157-1.498,5.89-2.257,8.125-2.257h0.039
				c1.886,0.007,3.053,0.575,3.7,1.05c0.649,0.476,0.933,0.985,0.961,1.035l-0.003,0.001c-2.14,1.234-4.37,1.857-6.63,1.857
				L154.077,953.243z M127.653,953.243c-2.259,0-4.49-0.625-6.632-1.856l-0.002-0.001l0.001-0.003c0,0,0.28-0.534,0.959-1.032
				c0.647-0.475,1.814-1.043,3.7-1.05h0.039c2.234,0,4.967,0.759,8.124,2.257C133.736,951.629,131.258,953.243,127.653,953.243
				l0.004,0.003L127.653,953.243z M163.863,951.073c-0.366,0-0.679-0.185-0.781-0.46c-0.1-0.27-0.069-0.614,0.091-1.023
				c0.265-0.674,0.882-1.383,1.664-1.446c0.015-0.001,0.031-0.001,0.046-0.001l0.106,0.002c0.168,0.004,0.348,0.045,0.52,0.118v0
				c0,0.001,0.059,0.701-0.117,1.405c-0.103,0.411-0.258,0.724-0.474,0.959c-0.263,0.287-0.637,0.447-1.057,0.447L163.863,951.073z
				 M117.863,951.073c-0.417,0-0.793-0.158-1.057-0.444c-0.216-0.236-0.371-0.549-0.474-0.959c-0.168-0.673-0.122-1.342-0.117-1.406
				c0.175-0.074,0.354-0.114,0.521-0.118l0.037-0.001c0.837,0,1.496,0.726,1.779,1.446c0.16,0.409,0.191,0.753,0.091,1.023
				c-0.1,0.27-0.414,0.457-0.78,0.457L117.863,951.073z M146.637,949.073c3.79-7.175,7.728-7.949,9.245-7.949
				c0.511,0.002,0.851,0.083,0.912,0.1l0.003,0.018c0,0.002,0.227,1.59-0.88,3.306c-1.038,1.609-3.491,3.701-9.277,4.528
				l-0.004,0.001L146.637,949.073z M135.09,949.077c-5.787-0.826-8.239-2.918-9.278-4.528c-1.108-1.717-0.88-3.304-0.878-3.32
				l0.001-0.004l0.004-0.001c0.002,0,0.354-0.095,0.886-0.098c1.54,0,5.477,0.774,9.266,7.947l0.002,0.004l-0.007-0.003
				L135.09,949.077z M158.5,947.93c-1.152,0-2.444-0.095-3.841-0.281l-0.002,0l0.001-0.002c3.067-2.971,5.972-3.595,7.87-3.595
				c0.148,0,0.277,0.004,0.405,0.01c1.508,0.071,2.52,0.519,2.589,0.55c-0.003,0.034-0.035,0.324-0.198,0.674
				c-0.168,0.361-0.516,0.891-1.229,1.375C162.854,947.503,160.972,947.93,158.5,947.93l-0.002,0.003L158.5,947.93z M123.23,947.93
				c-2.472,0-4.354-0.427-5.594-1.268c-0.713-0.483-1.061-1.014-1.228-1.375c-0.157-0.338-0.192-0.618-0.198-0.674
				c0.065-0.03,1.077-0.48,2.588-0.55c0.128-0.006,0.256-0.01,0.391-0.01c1.911,0,4.816,0.623,7.882,3.593l0.003,0.003h-0.004
				c-1.4,0.183-2.693,0.28-3.843,0.28L123.23,947.93z M170.267,947.47c-1.417-0.023-2.42-0.249-2.981-0.673
				c-0.265-0.2-0.396-0.468-0.352-0.717c0.054-0.298,0.291-0.602,0.726-0.928c1.188-0.891,2.948-1.362,5.233-1.402
				c0.146-0.002,0.295-0.004,0.442-0.004c0.127,0,0.253,0.001,0.377,0.004c2.727,0.066,5.151,0.682,5.175,0.687l0.006,0.001
				l-0.005,0.006c-2.231,2.23-5.812,3.026-8.419,3.026h-0.2L170.267,947.47z M111.26,947.47c-2.607,0-6.188-0.796-8.421-3.029
				l-0.002-0.002l0.007-0.002c0.023-0.006,2.447-0.621,5.174-0.688c0.163-0.004,0.327-0.006,0.492-0.006
				c2.444,0,4.315,0.474,5.561,1.408c0.435,0.326,0.673,0.63,0.726,0.928c0.045,0.248-0.087,0.516-0.352,0.717
				c-0.561,0.424-1.564,0.65-2.981,0.672l-0.2,0.007L111.26,947.47z M178.917,943.136c-0.306,0-0.534-0.204-0.6-0.406
				c-0.081-0.248-0.062-0.535,0.06-0.878c0.118-0.333,0.318-0.646,0.562-0.882c0.183-0.176,0.478-0.387,0.838-0.387
				c0.175,0.005,0.312,0.035,0.432,0.092c0.002,0.033,0.041,0.626-0.097,1.23c-0.083,0.369-0.201,0.636-0.369,0.841
				c-0.203,0.244-0.506,0.387-0.827,0.387L178.917,943.136z M102.813,943.136c-0.321,0-0.622-0.142-0.826-0.389
				c-0.168-0.205-0.286-0.472-0.369-0.841c-0.14-0.616-0.098-1.219-0.097-1.225l0-0.006c0.121-0.057,0.257-0.088,0.405-0.092h0.001
				c0.386,0,0.68,0.21,0.863,0.386c0.244,0.235,0.444,0.548,0.562,0.882c0.122,0.343,0.141,0.63,0.06,0.878
				c-0.067,0.197-0.293,0.404-0.6,0.404V943.136z M159.407,942.697c-0.366,0-0.679-0.184-0.781-0.46
				c-0.1-0.269-0.069-0.614,0.091-1.023c0.265-0.674,0.882-1.383,1.664-1.446c0.015-0.001,0.031-0.002,0.046-0.002l0.106,0.003
				c0.168,0.004,0.348,0.045,0.52,0.118v0c0,0.002,0.059,0.701-0.117,1.406c-0.103,0.41-0.258,0.724-0.474,0.959
				C160.2,942.539,159.823,942.696,159.407,942.697L159.407,942.697z M122.324,942.697c-0.418,0-0.793-0.158-1.057-0.444
				c-0.216-0.235-0.371-0.549-0.474-0.959c-0.168-0.673-0.122-1.342-0.117-1.406c0.175-0.074,0.354-0.114,0.521-0.118l0.037,0
				c0.837,0,1.496,0.726,1.779,1.446c0.16,0.409,0.191,0.753,0.091,1.022c-0.1,0.273-0.416,0.457-0.78,0.457L122.324,942.697z
				 M112.82,942.303c-5.246-0.185-7.968-1.676-9.328-2.894c-0.766-0.686-1.191-1.366-1.413-1.816
				c-0.21-0.425-0.289-0.75-0.303-0.813l0.007-0.003c0.001,0,0.496-0.178,1.295-0.193l0.123-0.001c1.769,0,5.371,0.743,9.618,5.718
				v0.003L112.82,942.303z M168.91,942.3c4.12-4.826,7.642-5.654,9.374-5.717c0.052-0.001,0.103-0.002,0.153-0.002
				c0.07,0,0.14,0.001,0.205,0.002c0.774,0.015,1.261,0.18,1.311,0.197v0.001c0,0-0.074,0.346-0.303,0.812
				c-0.222,0.449-0.647,1.129-1.413,1.815c-1.361,1.219-4.083,2.71-9.329,2.895l0.003-0.003L168.91,942.3z M118.517,941.774
				c-4.22-0.643-6.611-2.454-7.874-3.862c-1.324-1.475-1.72-2.849-1.738-2.913c0.008-0.002,0.524-0.136,1.3-0.156
				c0.056-0.002,0.115-0.002,0.175-0.002c0.06,0,0.122,0,0.184,0.002c2.123,0.046,5.978,1.008,7.952,6.928h0.003L118.517,941.774z
				 M163.213,941.774c1.974-5.923,5.829-6.884,7.952-6.931c0.063-0.001,0.124-0.002,0.185-0.002c0.06,0,0.118,0.001,0.175,0.002
				c0.776,0.02,1.293,0.154,1.297,0.156l0.003,0c-0.003,0.011-0.389,1.41-1.738,2.912c-1.267,1.407-3.657,3.22-7.877,3.86
				L163.213,941.774z M184.88,939.747c-2.348,0-4.022-0.468-4.038-0.473l-0.004-0.001l0.004-0.008
				c0.015-0.022,1.836-2.673,5.349-3.375c0.918-0.183,1.879-0.276,2.854-0.276c0.081,0,0.162,0,0.242,0.002
				c2.022,0.031,3.483,0.441,3.497,0.446l0.004,0.014c-0.001,0,0.016,0.152-0.013,0.344c-0.03,0.194-0.113,0.498-0.344,0.844
				c-0.406,0.61-1.354,1.454-3.564,2.007c-1.257,0.317-2.596,0.477-3.98,0.477L184.88,939.747z M96.85,939.747
				c-1.383,0-2.725-0.16-3.987-0.476c-2.21-0.552-3.158-1.396-3.564-2.007c-0.231-0.347-0.314-0.651-0.344-0.845
				c-0.028-0.185-0.013-0.333-0.01-0.358l0.01-0.004c0.006-0.001,1.467-0.411,3.488-0.442c0.079-0.001,0.16-0.002,0.242-0.002
				c0.976,0,1.936,0.093,2.855,0.276c3.512,0.703,5.333,3.353,5.351,3.38l0.001,0.003l-0.004,0.001
				c-0.02,0.003-1.693,0.473-4.04,0.473L96.85,939.747z M175.083,936.187c-0.364,0-0.667-0.18-0.771-0.46
				c-0.102-0.275-0.075-0.616,0.081-1.011c0.266-0.675,0.884-1.383,1.664-1.447c0.015-0.001,0.031-0.001,0.046-0.001l0.106,0.002
				c0.169,0.004,0.349,0.045,0.521,0.118v0c0,0.002,0.059,0.694-0.117,1.394c-0.106,0.422-0.261,0.739-0.474,0.969
				c-0.26,0.283-0.633,0.437-1.057,0.437L175.083,936.187z M106.647,936.187c-0.423,0-0.798-0.154-1.058-0.435
				c-0.213-0.23-0.368-0.548-0.473-0.969c-0.168-0.672-0.122-1.334-0.117-1.395c0.175-0.074,0.354-0.114,0.521-0.118l0.037-0.001
				c0.835,0,1.496,0.727,1.779,1.446c0.156,0.396,0.183,0.736,0.081,1.011C107.315,936.007,107.011,936.187,106.647,936.187
				L106.647,936.187z M99.28,935.176c-0.032-0.008-1.992-0.512-3.989-1.742c-1.848-1.137-4.108-3.15-4.384-6.277v-0.001l0.004-0.001
				c0,0,0.172-0.042,0.426-0.051c0.035-0.001,0.072-0.002,0.112-0.002c0.552,0,1.682,0.155,3.049,1.194
				c1.74,1.327,3.347,3.64,4.783,6.883L99.28,935.176z M182.45,935.176c1.435-3.243,3.044-5.557,4.783-6.88
				c1.23-0.936,2.265-1.165,2.916-1.192c0.041-0.002,0.079-0.002,0.116-0.002c0.045,0,0.089,0.001,0.129,0.002
				c0.252,0.01,0.423,0.051,0.43,0.053l0,0.006c-0.276,3.123-2.536,5.135-4.384,6.272c-1.993,1.224-3.95,1.73-3.993,1.74
				L182.45,935.176z M104.09,935c-0.012-0.005-1.41-0.564-3.156-2.028c-1.628-1.364-3.915-3.82-5.572-7.777
				c0.001,0,0.381-0.203,0.962-0.239c0.033-0.002,0.068-0.003,0.102-0.003c0.05,0,0.101,0.001,0.154,0.003
				c0.804,0.023,2.028,0.357,3.384,1.821c1.559,1.682,2.95,4.447,4.135,8.217l0.003,0.01l-0.01-0.003L104.09,935z M177.633,934.99
				c1.183-3.765,2.574-6.53,4.133-8.212c1.357-1.464,2.581-1.798,3.369-1.82c0.069-0.002,0.12-0.003,0.17-0.003
				c0.035,0,0.068,0,0.101,0.003c0.557,0.034,0.928,0.221,0.963,0.24c-1.658,3.957-3.945,6.412-5.573,7.776
				c-1.746,1.464-3.144,2.023-3.158,2.029l-0.012,0.004l0.003-0.017L177.633,934.99z M190.103,934.637
				c-0.61,0-1.006-0.137-1.176-0.407c-0.215-0.342,0.045-0.781,0.13-0.907c0.429-0.637,1.428-1.28,2.695-1.28l0.055,0
				c0.265,0.004,0.541,0.04,0.798,0.104l0.001,0.003c0.001,0.009,0.083,0.62-0.184,1.239
				C192.259,933.763,191.709,934.637,190.103,934.637L190.103,934.637z M91.627,934.637c-1.607,0-2.157-0.872-2.319-1.247
				c-0.266-0.616-0.185-1.23-0.184-1.236l0.001-0.007c0.26-0.065,0.535-0.101,0.799-0.105h0.055c1.267,0,2.266,0.643,2.695,1.28
				c0.085,0.126,0.346,0.565,0.13,0.907C92.63,934.5,92.236,934.637,91.627,934.637L91.627,934.637z M193.663,930.147
				c-0.95,0-1.573-0.06-1.579-0.061l-0.001-0.001c0-0.007,0.034-1.179,1.068-2.306c0.975-1.062,3.065-2.356,7.493-2.486h0.003
				l0,0.006c-0.001,0.005-0.133,1.017-0.599,2.078c-0.429,0.975-1.24,2.192-2.671,2.452c-1.443,0.257-2.813,0.314-3.713,0.314
				L193.663,930.147z M88.067,930.147c-0.898,0-2.27-0.055-3.714-0.317c-1.431-0.26-2.243-1.477-2.671-2.452
				c-0.467-1.062-0.598-2.074-0.599-2.085h0.004c4.428,0.13,6.519,1.424,7.493,2.486c1.006,1.096,1.066,2.235,1.068,2.307h-0.003
				c-0.007,0-0.63,0.06-1.58,0.06L88.067,930.147z M189.05,925.54c-0.003-0.024-0.248-2.534-0.248-5.029
				c0-2.492,2.657-3.489,2.77-3.531l0.004-0.001c-0.007,0.05-0.129,0.911-0.25,1.919c-0.094,0.784-0.252,2.199-0.252,2.873
				c0,0.696-0.485,1.547-1.009,2.361c-0.5,0.776-1.005,1.402-1.01,1.408l-0.003,0.004l0.003-0.003L189.05,925.54z M92.677,925.54
				c-0.006-0.008-0.512-0.633-1.011-1.409c-0.524-0.815-1.009-1.665-1.009-2.361c0-0.672-0.158-2.089-0.252-2.873
				c-0.12-0.995-0.24-1.846-0.25-1.919l0.004,0.001c0.112,0.041,2.769,1.038,2.769,3.53c0,2.496-0.246,5.005-0.248,5.03l0,0.004
				h-0.003L92.677,925.54z M192.497,925.303c-0.055,0-0.102-0.01-0.145-0.031c-0.05-0.024-0.101-0.084-0.129-0.149
				c-0.064-0.157-0.05-0.33-0.001-0.594c0.086-0.463,0.3-1.072,0.675-1.915c0.596-1.343,1.363-2.723,1.438-2.857l0.008-0.009
				c0.01-0.013,1.063-1.338,2.399-2.657c0.775-0.765,1.504-1.383,2.164-1.838c0.835-0.576,1.482-0.848,2.035-0.858h0.003
				c0.182,0,0.327,0.023,0.459,0.066l0.004,0.002l0,0.002c0,0,0.122,1.078,0.029,2.385c-0.126,1.756-0.561,3.071-1.293,3.909
				c-0.804,0.918-2.179,1.959-3.873,2.93c-1.526,0.875-2.906,1.475-3.691,1.606c-0.027,0-0.054,0.003-0.083,0.003L192.497,925.303z
				 M89.233,925.303c-0.028,0-0.056-0.002-0.083-0.007c-0.786-0.131-2.165-0.731-3.691-1.606c-1.694-0.971-3.07-2.012-3.874-2.93
				c-0.732-0.838-1.168-2.153-1.293-3.909c-0.089-1.246,0.018-2.284,0.029-2.387c0.137-0.046,0.283-0.068,0.438-0.068
				c0.588,0.01,1.215,0.274,2.063,0.858c0.661,0.455,1.389,1.074,2.164,1.838c1.337,1.319,2.389,2.644,2.399,2.657l0.011,0.013
				c0.088,0.158,0.845,1.524,1.436,2.853c0.374,0.844,0.589,1.452,0.674,1.915c0.049,0.264,0.063,0.437-0.001,0.594
				c-0.027,0.065-0.078,0.125-0.128,0.149c-0.046,0.02-0.093,0.03-0.146,0.03H89.233z"/>
			<path id="_x31_" fill="#FFAD2D" d="M233.443,824.325l-0.785,0.313l-0.308,0.123l-0.951-0.053l-0.891,0.428l-1.58,1.079
				l-0.069,0.05l-0.589,0.154l-0.547-0.236l-0.311,0.142l-0.107,0.64l-0.296,0.46l-0.364,0.256l-1.261,0.129l-1.063,0.549
				l-1.383-0.37l-0.643,0.252l-1.366,1.231l-0.698,0.33l-0.244-0.014l-0.926-0.047l-0.391,0.128l-0.584,0.564l-1.105,0.086
				l-0.344,0.238l-0.54,1.087l-0.584,0.603l-0.335,0.071l-0.362-0.133l-0.272,0.048l-0.123,0.696l-0.264,0.291l-0.74,0.255
				l-0.591,0.493l-0.519,0.266l-0.695-0.017h-0.159l-0.692,0.382l-1.302,0.114l-0.541,0.517l-0.119,0.11l-0.253,0.153l-0.413,0.247
				l-0.102,0.061l-0.498-0.089l-0.583,0.231l-0.236-0.363l-0.404,0.242l-0.535,0.023l-0.666-0.296l-0.507-0.226l-0.371,0.054
				l-0.129,0.647l-0.013,0.068l-0.39,0.519l-0.728,0.441l-0.099,0.129l-0.828,1.069l-1.574,1.655l-1.331,0.676l-1.38,0.42
				l-0.966,0.793l-2.533,1.256l-3.998,1.989l-0.818,0.262l-1.173,0.188l-2.092,0.77l-1.846,0.557l-0.103,0.031l-0.365,0.111
				l-2.603,0.787l-1.212-0.128l-0.718,0.26l-1.868-0.207l-1.299,0.026l-0.822,0.171l-1.546,0.741l-2.609,1.254l-0.862,0.788
				l-1.342,0.7l-1.572,0.498l0.003-0.66l-0.009-0.028l-0.545,0.172l-0.394,0.124l-1.275,0.197h-0.709l-0.44-0.128l-0.068,0.023
				l-2.606,0.859l-2.906,0.281l-1.454,0.467l-1.087-0.018l-0.679,0.203l-1.332,0.163l-0.476-0.127l-0.107-0.029l-3.917,0.17
				l-1.791-0.202l-0.854,0.194l-1.432-0.482l-2.09-0.242l-0.488-0.146l-1.098-0.326l-0.497,0.286l-0.372,0.04l-0.889-0.323
				l-0.32-0.008l-0.734,0.265l-0.422-0.108l-0.393-0.313l-0.921-0.137l-0.561-0.471l-3.134,0.415l-0.85-0.25l-2.851-0.831
				l-0.454,0.023l-0.565,0.424l-0.849,0.31l-0.737,0.191l-1.004,0.035l-1.166-0.306l-1.202-0.583l-0.444-0.106l-0.991,0.1
				l-0.303,0.028l-1.822-0.977l-2.348-1.468l-1.593-0.765l-0.598-0.097l-0.08,0.284l0.297,0.935l0.101,0.924l-0.031,0.854
				l-0.016,0.529l0.149,0.475l0.575,0.637l0.24,0.64l0.175,1.762l-0.002,1.787l-0.28,2.851l-0.094,0.434l-0.334,1.477l-0.305,1.356
				l-1.182,3.611l-0.325,0.448l-0.797,0.543l-1.807,1.229l-1.33,0.767l-0.421,0.174l-1.08,0.081l-0.673-0.035l-0.838-0.453
				l-0.822-0.212l-1.077-0.775l-1.198-0.248l-1.314-0.759l-0.342-0.411l-0.715-0.067l-0.992-0.298l0-0.002l-0.364-0.109
				l-0.252-0.073v0l-1.265-0.035l-1.18-0.544l-0.621-0.15l-0.849-0.043l-0.888,0.413l0-0.001l-0.45,0.21l-0.569-0.226l-0.412,0.026
				l-0.466,0.705l-0.07,0.109l-0.321,0.17l-0.4-0.006l-0.313-0.008l-0.339,0.148l-0.456,0.198v0.001l-0.403,0.176l-0.197,0.085
				l-0.003-0.003l-0.121,0.024l-0.215,0.037l-0.267,0.051l-0.47-0.275l-0.25-0.147l-0.419-0.085l-0.225,0.163l-0.045,0.767
				l-0.206,0.459l-0.653,0.578l-0.664,0.585l-0.463,0.682l-1.225,2.797l-0.768,1.128l-0.238,0.263l-0.803,0.885l-0.712,0.552
				l-1.64,1.272l-1.553,0.58l-1.338,0.273l-0.651,0.002l-1.232-0.164l-1.108-0.34l-1.217-0.761l-1.334-1.073l-1.932-1.908
				l-0.273-0.165l-0.057-0.038l-0.608-0.389l-0.451,0.012l-0.177,0.291l-0.097,0.421l-0.082,0.373l-0.221,2.122l0.016,0.123
				l0.116,0.874l1.467,2.05l0.453,1.089l0.074,0.125l0.303,0.508l0.231,0.388l0.023,0.039l0.501,1.496l-0.352,0.844l0.178,0.566
				l-0.446,0.346l-0.081,0.488l1.317,1.651l0.287,0.728l-0.321,1.01l-0.512,0.557l-0.143,0.152l0.072,0.427l0.606,0.545l1.03,0.917
				l0.549,1.362l0.418,0.365l0.485-0.103l0.27,0.206l0.409-0.007l0.403,0.403l0.261,0.126l0.412,0.205l0.326,0.424l0.072,1.304
				l0.607,1.62l0.009,0.878l0.003,0.125l0.378,0.649l0.119,0.513l-0.202,1.356l0.482,0.436l0.522-0.107l0.337,0.053l0.542,0.451
				l0.656,1l0.642-0.094l0.407,0.196l1.967,1.778l0.446,0.225l0.025,0.014l0.321,0.161l0.399,0.403l0.619-0.411l0.069-0.007
				l0.673-0.059l0.295,0.199l0.568,0.383l0.745-0.01l1.615,0.495l0.706,0.181l1.42,0.882l0.604,0.373l0.357,0.291l0.475,0.387
				l0.948,0.408l0.813,0.194l0.44,0.105l0.332,0.128l0.008-0.021l0.005,0.001l-0.008,0.021l1.762,0.674l0.954,0.223l0.882,0.325
				l0.642,0.235l0.472,0.008l0.667-0.561l0.645-0.037l0.537,0.134l0.523-0.088l0.828-0.51l0.162-0.24l0.587-0.28l1.981-0.246
				l0.579,0.188l1.487-0.647l0.996,0.277l0.882-0.313l1.926,0.428l0.512,0.36l0.572,0.655l0.07,0.003l0.637,0.012l-0.266,0.444
				l0.841,0.882l0.76,1.148l0.052,0.152l0.552,1.621l0.411,0.574l0.287,0.801l0.014,0.523l-0.447,0.341l-0.074,0.194l-0.025,0.072
				l0.09,0.218l0.169-0.092l0.321-0.178l0.389-0.06l0.688,0.073l0.455,0.048l0.718-0.357l0.476-0.237l0.764,0.329l0.84-0.009
				l0.353,0.157l0.998,0.452l0.51,0.048l0.188-0.124l0.12-0.285l-0.062-0.332l-0.382-0.441l-0.843-0.979l-0.346-0.504l-0.263-0.729
				l-0.082-0.931l-0.058-0.628l0.105-0.826l0.226-0.294l0.167-0.656h0.003l0.043-0.171l0.469-0.622l1.241-0.798l1.334-1.194
				l1.054-0.695l1.087-0.471l0.029-0.132l0.121,0.049l2.764-0.94l0.045-0.005l1.231-0.214l8.307,0.585l0.308-0.093l0.001-0.002
				l0.277-0.777l0.149-0.144l0.099-0.094l0.913-0.402l0.427-0.061l1.185,0.292l0.485,0.12l0.777-0.436l0.551,0.009l1.139-0.622
				l0.704,0.018l0.268-0.107l1.371-0.985l1.32-0.379l0.344-0.182l0.121-0.067l1.353-0.715l0.86-0.66l0.742-0.394l0.813-0.21
				l2.126-0.15l0.428-0.712l0.914-0.122l0.552-0.623l0.632-0.257l0.453-0.652l0.38-0.547l0.53-0.307l1.7-0.107l2.015,0.249
				l0.267-0.161l0.455-1.625l0.476-0.305l1.284-1.871l0.004-0.682l0.001-0.569l0.211-0.811l-0.144-1.463l0.17-1.482l0.798-1.883
				l0.703-0.76l1.134-0.767l0.576-0.251l0.816-0.137v-0.002l0.12-0.02l0.208-0.036l2.811-0.038c0.039-0.029,1.022-0.014,1.022-0.014
				l0.937-0.012l2.371,0.422l0.169,0.03l0.802,0.259l0.924,0.719l0.979,0.956l0.183,0.179l0.634,0.267l0.191,0.084l0.524-0.084
				l0.746-0.388l0.562-0.475l0.767-0.419l0.019-0.026l0.431-0.65l0.013-0.013l0.01,0.002l0.001-0.004l-0.007-0.001l0.17-0.258
				l1.483-0.577l1.743-0.102l0.196-0.106l0.109-0.058l0.46-0.541l0.432-0.004l1.045,0.378l0.735-0.146l0.583,0.233l0.453-0.054
				l0.855-0.102l0.918,0.646l0.535,0.068l1.886,1.103l0.098,0.016l0.051,0.009l0.108,0.018l0.224-0.067l0.333-0.096l0.044-0.013
				l0.042,0.058l0.214,0.303l0.294,0.042l0.348-0.464l-0.138-0.211l-0.052-0.077l-0.674-0.137l-0.605-1.034l0.576-0.62l-0.904-1.109
				l-0.15-0.184l-0.051-0.078l-0.312-0.474l-1.582-2.412l-2.06-1.645l-0.001,0.001l-0.721-0.577l-0.005-0.003l-0.253-0.199
				l-1.101-1.119l-0.786-1.044l-0.103-0.225l-0.162-0.354l-0.471-1.026l-0.821-0.632l-0.668-0.731l-0.033-0.043l-1.38-1.875
				l-0.227-0.315l-0.326-0.188l-0.689-0.005l-0.065-0.065l-0.039-0.041l0.023-0.024l0.33-0.328l0.368-0.093l0.159-0.363
				l-0.703-2.035l-0.005-0.071l-0.052-0.65l0.573-2.952l0.073-0.36l0.976-1.986l0.605-0.495l0.66-1.297l0.565-0.83l0.541-0.527
				l0.095-0.056l0.978-0.592l0.822-0.115l0.783-0.111l1.366,0.421l1.3-0.025l0.254-0.027l0.59-0.068l0.97-0.306l0.458-0.283
				l0.238-0.364l0.495-1.662l0.159-0.529l0.306-0.575l1.768-2.036l1.337-1.236l3.006-2.204l1.472-0.879l0.751-0.449l6.709-2.982
				l1.743-1.767l0.908-0.919l1.607-1.079l1.88-0.77l1.618-1.281l0.353-0.445l0.446-1.435l0.371-0.089l0.335-0.725l0.095-0.206
				l1.321-0.931l0.149-0.074l5.129-2.57l0.745,0.102l0.399-0.598l1.492-0.25l0.275-0.046l0.368-0.184l0.313-0.533v-0.105
				l0.043-1.425l0.318-0.385l0.174-0.939l0.164-0.216l0.171-0.225l0.423-0.297l-0.073-0.177L233.443,824.325z"/>
		</g>
	</g>
</switch>
</svg>