<?xml version="1.0" encoding="utf-8"?>
<svg id="Countryflags.com_1_" xmlns="http://www.w3.org/2000/svg" xmlns:xlink="http://www.w3.org/1999/xlink" x="0px" y="0px" viewBox="150 100 300 200"
	 style="width: 300px; height: 125px;">
<style type="text/css">
	.st0{fill:#009900;}
	.st1{fill:#BF0000;}
	.st2{fill:#FFFFFF;stroke:#BD6B00;stroke-width:0.25;}
	.st3{fill:#FFFFFF;}
	.st4{fill:none;stroke:#BD6B00;stroke-width:0.25;}
	.st5{fill:#BF0000;stroke:#BD6B00;stroke-width:0.25;}
	.st6{fill:#BD6B00;}
</style>
<switch>
	<g>
		<g>
			<rect id="_x32_99_1_" x="150" y="100" class="st0" width="300" height="200"/>
			<rect id="_x32_98_1_" x="150" y="100" class="st1" width="200" height="200"/>
			<rect id="_x32_97_1_" x="150" y="100" width="100" height="200"/>
			<path id="_x32_96_1_" class="st2" d="M309.75,212.92l4.177,0.001c0.016,1.579,0.941,3.275,2.24,4.247h-8.004
				C309.415,216.031,309.758,214.686,309.75,212.92L309.75,212.92z"/>
			<path id="_x32_95_1_" class="st3" d="M283.355,189.265l2.287,2.52l28.467,0.047l2.333-2.52l-7.28-0.093l-3.547-2.474
				l-11.434-0.047l-3.313,2.567H283.355L283.355,189.265z"/>
			<path id="_x32_94_1_" class="st2" d="M295.01,186.37l9.83-0.01c1.331-0.704,1.746-2.951,1.739-4.208
				c-0.019-3.714-2.616-5.496-5.224-5.59c-0.391-0.02-0.844-0.324-0.947-0.68c-0.257-0.806-0.191-1.321-0.472-1.292
				c-0.25-0.003-0.177,0.47-0.4,1.226c-0.122,0.376-0.545,0.747-0.967,0.769c-3.245,0.162-5.338,2.531-5.256,5.567
				C293.368,184.16,293.602,185.358,295.01,186.37L295.01,186.37z"/>
			<path id="_x32_93_1_" class="st3" d="M278.83,221.415h42.234l-3.781-3.08H282.61L278.83,221.415L278.83,221.415z"/>
			<path id="_x32_92_1_" class="st2" d="M298.195,209.845l0.77,2.31h1.75l-1.4-2.31H298.195L298.195,209.845z M297.216,212.155
				l0.443,2.287l2.053,0.023l-0.747-2.311L297.216,212.155L297.216,212.155z M300.692,212.178l1.423,2.264h2.917l-2.287-2.287
				L300.692,212.178L300.692,212.178z M283.471,217.358c1.547-1.439,2.536-2.668,2.543-4.434h3.78
				c0.008,0.988,0.365,1.579,0.91,1.54l3.827-0.023l-0.023-2.263h-2.777l-0.001-12.344c-0.101-4.363,5.304-6.906,7.514-6.884
				l-13.137-0.023v-0.397h27.627l0.023,0.397l-13.323,0.023c3.951,0.008,7.762,3.749,7.794,6.908v3.5h-0.514l-0.023-3.453
				c0-3.454-4.35-6.681-7.84-6.581c-3.018,0.087-7.7,2.964-7.653,6.558v1.073l7.163,0.047l-0.07,1.236l1.125,0.718l2.243,0.715
				l-0.033,1.855l1.607,0.474l0.014,1.853l1.928,0.827v1.918l1.223,0.753l-0.056,1.948l1.657,1.166h-3.92l2.45,2.73h-3.617
				l-1.798-2.73h-2.38l1.073,2.707l-2.543-0.023l-0.607-2.684h-3.103l0.023,2.893L283.471,217.358L283.471,217.358z
				 M294.555,209.868v2.287h2.66l-0.538-2.287H294.555z"/>
			<rect id="_x32_91_1_" x="294.695" y="205.83" class="st4" width="1.657" height="3.803"/>
			<path id="_x32_90_1_" class="st4" d="M292.355,209.9h1.617l-0.01-2.798c-0.021-1.217,1.071-2.442,1.594-2.483
				c0.579-0.022,1.433,1.149,1.462,2.388l0.023,2.903l1.715-0.004V202.7l-6.401,0.034V209.9L292.355,209.9z"/>
			<rect id="_x32_89_1_" x="305.15" y="211.57" class="st4" width="2.006" height="1.563"/>
			<rect id="_x32_88_1_" x="303.96" y="208.885" class="st4" width="2.006" height="1.564"/>
			<rect id="_x32_87_1_" x="302.025" y="206.2" class="st4" width="2.006" height="1.563"/>
			<rect id="_x32_86_1_" x="300.37" y="203.94" class="st4" width="2.007" height="1.563"/>
			<path id="_x32_85_1_" class="st4" d="M299.04,209.91l2.053,0.07l3.663,3.244v-1.913l-1.236-0.886v-1.518l-1.797-1.026v-1.634
				l-1.75-0.583v-2.217l-0.887-0.723L299.04,209.91L299.04,209.91z"/>
			<rect id="_x32_84_1_" x="307.715" y="205.175" class="st2" width="0.49" height="3.523"/>
			<path id="_x32_83_1_" class="st2" d="M278.66,193.265c-0.617-0.991-1.355,1.374-3.894,3.135
				c-1.182,0.804-2.005,2.947-2.013,4.356c-0.039,0.968,0.108,1.934,0,2.87c-0.068,0.593-0.686,1.908-0.263,2.244
				c1.117,0.83,2.563,2.716,3.234,3.366c0.58,0.508,1.082-2.624,1.518-4.026c0.467-1.502,0.257-3.297,1.551-4.686
				c0.917-0.937,3.23-1.86,2.97-2.277L278.66,193.265L278.66,193.265z"/>
			<path id="_x32_82_1_" class="st5" d="M278.53,200.94c-0.192-0.443-0.479-0.901-0.828-1.297c-0.349-0.396-0.762-0.728-1.219-0.891
				c-0.441-0.162-0.89-0.376-1.203-0.766c-0.157-0.195-0.292-0.441-0.359-0.734c-0.063-0.272-0.061-0.605-0.016-0.984
				c-0.055,0.04-0.084,0.086-0.141,0.125c-1.181,0.804-2.008,2.95-2.016,4.359c-0.016,0.389-0.016,0.769,0,1.156
				c0.087,0.243,0.172,0.478,0.297,0.625c0.163,0.192,0.357,0.318,0.563,0.406c0.412,0.176,0.888,0.212,1.328,0.375
				c0.457,0.163,0.926,0.529,1.328,0.969c0.383,0.419,0.679,0.9,0.875,1.328c0.033-0.122,0.077-0.302,0.109-0.406
				C277.672,203.845,277.597,202.261,278.53,200.94L278.53,200.94z"/>
			<path id="_x32_81_1_" class="st4" d="M274.91,196.195c-0.242,1.678,0.692,2.236,1.574,2.561c0.913,0.324,1.661,1.303,2.046,2.189
				"/>
			<path id="_x32_80_1_" class="st4" d="M272.65,201.72c0.385,1.447,1.399,1.266,2.28,1.591c0.913,0.324,1.873,1.479,2.258,2.364"/>
			<path id="_x32_79_1_" class="st2" d="M277.805,192.24l0.462-0.297l8.876,14.949l-0.461,0.297L277.805,192.24L277.805,192.24z"/>
			<path id="_x32_78_1_" class="st2" d="M278.76,191.645c0,0.565-0.458,1.023-1.023,1.023c-0.565,0-1.023-0.458-1.023-1.023l0,0
				c0-0.565,0.458-1.023,1.023-1.023C278.302,190.622,278.76,191.08,278.76,191.645z"/>
			<rect id="_x32_77_1_" x="286.35" y="179.635" class="st2" width="3.597" height="0.825"/>
			<rect id="_x32_76_1_" x="286.35" y="181.2" class="st2" width="3.597" height="6.892"/>
			<path id="_x32_75_1_" class="st2" d="M286.13,178.695l3.99,0.023c0.156-1.353-1.195-2.814-1.983-2.8
				C287.358,175.956,286.099,177.397,286.13,178.695L286.13,178.695z"/>
			<path id="_x32_74_1_" class="st6" d="M296.31,177.88c-0.761,0.32-1.344,1.188-1.703,2.188c-0.359,0.999-0.496,2.134-0.328,3.047
				v0.016c0.064,0.315,0.15,0.541,0.25,0.703c0.1,0.162,0.211,0.257,0.344,0.281c0.132,0.025,0.257-0.046,0.328-0.156
				c0.071-0.11,0.106-0.254,0.094-0.422c-0.072-0.939-0.068-1.866,0.156-2.703c0.224-0.837,0.669-1.582,1.484-2.188
				c0.147-0.108,0.232-0.232,0.25-0.359c0.018-0.128-0.05-0.237-0.141-0.313C296.863,177.823,296.576,177.77,296.31,177.88
				L296.31,177.88z M296.388,178.099c0.185-0.077,0.421-0.032,0.516,0.047c0.047,0.039,0.053,0.067,0.046,0.109
				c-0.006,0.043-0.039,0.117-0.156,0.203c-0.857,0.636-1.328,1.436-1.563,2.313c-0.234,0.877-0.229,1.83-0.156,2.781
				c0.01,0.129-0.027,0.228-0.063,0.281c-0.035,0.054-0.053,0.07-0.094,0.063c-0.04-0.007-0.124-0.059-0.203-0.188
				c-0.079-0.129-0.158-0.328-0.219-0.625c-0.157-0.857-0.019-1.974,0.328-2.937C295.173,179.182,295.727,178.377,296.388,178.099
				L296.388,178.099z"/>
			<path id="_x32_73_1_" class="st6" d="M297.595,178.865c-0.759,0.319-1.25,1.146-1.516,2.094
				c-0.265,0.948-0.307,2.033-0.141,2.938c0.13,0.642,0.467,0.98,0.797,1.031c0.165,0.025,0.324-0.04,0.422-0.172
				c0.098-0.132,0.13-0.309,0.078-0.531c-0.186-0.749-0.258-1.683-0.125-2.531c0.133-0.848,0.47-1.606,1.109-2.063
				c0.148-0.107,0.232-0.231,0.25-0.359c0.018-0.128-0.049-0.253-0.141-0.328C298.148,178.792,297.861,178.755,297.595,178.865
				L297.595,178.865z M297.689,179.084c0.185-0.077,0.405-0.032,0.5,0.047c0.047,0.039,0.069,0.067,0.063,0.109
				c-0.006,0.043-0.054,0.117-0.172,0.203c-0.706,0.504-1.064,1.332-1.203,2.219c-0.139,0.887-0.052,1.832,0.141,2.609
				c0.042,0.176,0,0.296-0.047,0.359c-0.047,0.064-0.107,0.093-0.203,0.078c-0.192-0.03-0.491-0.277-0.609-0.859
				c-0.159-0.866-0.114-1.934,0.141-2.844C296.552,180.096,297.027,179.362,297.689,179.084L297.689,179.084z"/>
			<rect id="_x32_72_1_" x="286.155" y="193.695" class="st2" width="4.014" height="5.553"/>
			<rect id="_x32_71_1_" x="286.39" y="202.425" class="st2" width="3.873" height="1.167"/>
			<rect id="_x32_70_1_" x="286.295" y="204.475" class="st2" width="3.967" height="4.34"/>
			<rect id="_x32_69_1_" x="286.015" y="209.705" class="st2" width="4.34" height="2.427"/>
			<path id="_x32_68_1_" class="st2" d="M286.55,201.38h3.497l0.693-1.155h-4.818L286.55,201.38L286.55,201.38z"/>
			<path id="_x32_67_1_" class="st2" d="M291.265,197.125l0.033-3.036h2.409C292.761,194.87,291.881,195.816,291.265,197.125z"/>
			<path id="_x32_66_1_" class="st4" d="M286.78,198.37c0.024,0.649,0.759,0.36,0.759,0.033c0-1.002,0.013-2.085-0.027-2.794
				c-0.005-0.522,1.246-0.392,1.238-0.07c0.005,0.846,0.014,2.006,0.019,2.996c-0.009,0.482,0.808,0.44,0.796,0
				c-0.005-1.106-0.005-2.712,0-3.526c0.007-1.048-2.751-1.025-2.772-0.023C286.795,195.808,286.779,197.281,286.78,198.37
				L286.78,198.37z"/>
			<rect id="_x32_65_1_" x="286.785" y="204.99" class="st4" width="2.847" height="3.547"/>
			<rect id="_x32_64_1_" x="288.605" y="206.46" class="st2" width="1.003" height="0.583"/>
			<rect id="_x32_63_1_" x="286.855" y="206.46" class="st2" width="0.98" height="0.583"/>
			<rect id="_x32_62_1_" x="287.835" y="205.035" class="st2" width="0.77" height="1.446"/>
			<rect id="_x32_61_1_" x="287.835" y="207.02" class="st2" width="0.77" height="1.54"/>
			<path id="_x32_60_1_" class="st2" d="M271.995,169.485c0.178,2.784-0.686,4.311-2.16,4.079
				C269.429,172.02,270.353,170.984,271.995,169.485z"/>
			<path id="_x32_59_1_" class="st2" d="M268.76,175.655c-1.311-0.666-0.365-5.757,0.138-7.89
				C269.27,170.513,269.893,174.42,268.76,175.655z"/>
			<path id="_x32_58_1_" class="st2" d="M269.225,175.895c2.203,0.766,3.947-1.606,4.536-4.354
				C271.944,174.051,268.985,174.054,269.225,175.895z"/>
			<path id="_x32_57_1_" class="st2" d="M267.555,178.465c-1.723-0.455-0.685-5.855-0.372-8.015
				C267.562,172.681,268.749,177.726,267.555,178.465z"/>
			<path id="_x32_56_1_" class="st2" d="M268.145,178.295c0.096-1.862,1.953-1.324,3.234-2.318
				C271.17,176.908,270.382,178.557,268.145,178.295z"/>
			<path id="_x32_55_1_" class="st2" d="M266.035,180.79c-1.707-0.461-0.681-6.272-0.777-8.665
				C265.758,174.193,267.343,180.23,266.035,180.79z"/>
			<path id="_x32_54_1_" class="st2" d="M266.83,180.54c1.398,0.455,3.25-0.454,3.396-2.119
				C269.022,179.238,267.099,178.613,266.83,180.54z"/>
			<path id="_x32_53_1_" class="st2" d="M264.76,183.355c-1.632,0.13-0.902-4.819-0.901-9.428
				C264.459,178.235,266.093,182.179,264.76,183.355z"/>
			<path id="_x32_52_1_" class="st2" d="M265.325,183.13c1.103,0.553,3.078-0.331,3.642-2.193
				C266.975,181.803,265.643,180.956,265.325,183.13z"/>
			<path id="_x32_51_1_" class="st2" d="M278.14,172.065c-0.29,2.414-1.277,3.819-2.751,3.587
				C274.983,174.108,276.178,173.121,278.14,172.065z"/>
			<path id="_x32_50_1_" class="st2" d="M274.24,178.26c2.449,0.348,3.332-1.532,4.98-3.935
				C276.909,175.997,274.147,176.345,274.24,178.26L274.24,178.26z"/>
			<path id="_x32_49_1_" class="st2" d="M273.545,177.985c-1.335-1.602-0.045-3.614,0.976-5.329
				C274.301,175.208,275.171,176.627,273.545,177.985z"/>
			<path id="_x32_48_1_" class="st2" d="M272.955,180.63c-0.151-1.567,2.519-1.915,3.726-2.786
				C276.275,178.75,275.66,181.187,272.955,180.63z"/>
			<path id="_x32_47_1_" class="st2" d="M272.395,180.665c-1.846-0.209-1.08-3.343,0.244-5.085
				C272.081,177.984,273.614,179.655,272.395,180.665z"/>
			<path id="_x32_46_1_" class="st2" d="M271.005,183.275c-2.101-0.929-0.754-3.563,0.035-5.119
				C270.703,180.199,272.387,181.754,271.005,183.275z"/>
			<path id="_x32_45_1_" class="st2" d="M271.42,183.03c1.103,1.439,3.25-0.429,3.691-2.612
				C273.242,181.974,271.862,181.718,271.42,183.03z"/>
			<path id="_x32_44_1_" class="st2" d="M266.62,193.16c-0.216-2.144,1.396-6.042,0.252-8.12c-0.156-0.286,0.342-1.044,0.665-0.584
				c0.503,0.734,1.021,2.826,1.237,2.054c0.229-0.84,0.265-2.325,1.008-2.614c0.475-0.169,1.145-0.279,0.962,0.467
				c-0.182,0.718-0.589,1.71-0.138,1.773c0.261,0.039,1.015-0.977,1.649-1.447c0.512-0.419,1.275,0.237,0.527,0.863
				C270.353,187.572,267.998,188.48,266.62,193.16L266.62,193.16z"/>
			<path id="_x32_43_1_" class="st2" d="M262.255,225.425c-0.285-0.055-0.676-0.151-0.32,0.292c2.839,3.498,3.661,4.462,7.801,3.97
				c4.183-0.55,5.179-1.682,8.107-3.325c1.565-0.917,3.852-1.121,5.585-0.553c0.807,0.265,1.295,0.28,0.717-0.299
				c-0.579-0.579-1.262-1.366-1.974-1.908c-1.559-1.197-4.203-1.716-6.361-1.331c-3.052,0.478-5.574,2.422-8.588,3.156
				C265.638,225.789,263.901,225.734,262.255,225.425L262.255,225.425z"/>
			<path id="_x32_42_1_" class="st2" d="M286.15,231.675c0.528,0.066,0.862,1.089,1.122,0.396c0.441-1.121,0.132-2.013-0.363-1.915
				C286.324,230.313,285.335,231.624,286.15,231.675L286.15,231.675z"/>
			<path id="_x32_41_1_" class="st3" d="M260.3,191.46c-0.607-0.634-0.432-0.877,0.467-0.887c0.712-0.045,2.124,0.437,2.66,0.047
				c0.491-0.357,0.296-1.869,0.514-2.567c0.095-0.389,0.368-0.999,0.979-0.047c1.811,2.902,4.073,6.386,5.04,9.8
				c0.529,1.913,0.031,4.9-1.727,6.907c0.062-1.711-0.576-2.862-1.354-4.294C265.92,198.539,262.352,193.444,260.3,191.46
				L260.3,191.46z"/>
			<path id="_x32_40_1_" class="st2" d="M267.765,206.72c1.992,0.01,2.334-2.66,2.334-3.406
				C269.118,203.5,267.392,205.134,267.765,206.72z"/>
			<path id="_x32_39_1_" class="st2" d="M284.975,232.63c1.416,0.322,1.396-3.089-0.05-4.535
				C285.562,230.286,283.861,232.289,284.975,232.63z"/>
			<path id="_x32_38_1_" class="st2" d="M284.425,232.6c0.094,1.622-3.979-0.212-5.026-1.473
				C281.805,232.149,284.306,231.303,284.425,232.6z"/>
			<path id="_x32_37_1_" class="st2" d="M282.64,230.285c0.146,1.57-3.532,0.189-4.619-1.037
				C280.436,230.028,282.479,228.992,282.64,230.285z"/>
			<path id="_x32_36_1_" class="st2" d="M283.315,230.505c1.416,0.322,1.187-3.206-0.19-4.418
				C283.786,228.441,282.201,230.164,283.315,230.505z"/>
			<path id="_x32_35_1_" class="st2" d="M281.825,228.36c1.416,0.322,0.603-2.716-0.446-3.929
				C281.549,226.647,280.851,228.183,281.825,228.36z"/>
			<path id="_x32_34_1_" class="st2" d="M281.075,228.35c0.146,1.618-2.715,0.376-3.825-1.155
				C279.641,227.976,280.914,227.058,281.075,228.35z"/>
			<path id="_x32_33_1_" class="st2" d="M280.295,227.12c0.928-0.667-0.057-2.432-1.823-2.322
				C278.645,225.863,279.256,227.737,280.295,227.12z"/>
			<path id="_x32_32_1_" class="st2" d="M287.27,234.435c0.093,1.622-3.98,0.815-5.26-0.913
				C284.58,234.008,287.151,233.138,287.27,234.435z"/>
			<path id="_x32_31_1_" class="st2" d="M271.09,231.535c0.146,1.617-4.301-0.161-5.412-1.691
				C268.07,230.624,270.929,230.242,271.09,231.535z"/>
			<path id="_x32_30_1_" class="st2" d="M273.815,232.225c0.928-0.668-0.966-2.385-2.476-2.789
				C271.512,230.502,272.776,232.843,273.815,232.225z"/>
			<path id="_x32_29_1_" class="st2" d="M274.1,233.345c0.099,1.454-4.769,0.657-6.042-0.687
				C272.247,233.415,273.963,232.1,274.1,233.345z"/>
			<path id="_x32_28_1_" class="st2" d="M276.38,234.315c0.54,1.351-4.132,1.021-5.772,0.236
				C273.258,234.527,276.009,233.374,276.38,234.315z"/>
			<path id="_x32_27_1_" class="st2" d="M278.565,235.3c0.517,1.211-3.805,1.185-5.912,0.516
				C275.444,235.792,278.053,234.103,278.565,235.3z"/>
			<path id="_x32_26_1_" class="st2" d="M281.71,235.95c0.766,1.432-3.794,1.571-5.273,0.866
				C279.073,236.454,281.058,234.823,281.71,235.95z"/>
			<path id="_x32_25_1_" class="st2" d="M276.37,233.5c-1.45,0.915-1.373-1.782-2.526-3.649
				C275.657,231.501,277.353,232.628,276.37,233.5z"/>
			<path id="_x32_24_1_" class="st2" d="M278.94,234.47c-1.217,1.078-2.189-2.623-3.297-4.699
				C277.433,231.747,280.063,233.575,278.94,234.47z"/>
			<path id="_x32_23_1_" class="st2" d="M282.34,235.5c-1.03,1.194-4.01-3.509-5.093-5.959
				C278.896,231.448,283.159,234.488,282.34,235.5z"/>
			<path id="_x32_22_1_" class="st2" d="M279.44,239.09c-0.514,1.816-8.096-1.712-8.942-3.539
				C274.836,237.85,279.544,237.369,279.44,239.09z"/>
			<path id="_x32_21_1_" class="st2" d="M255.075,202.19c-0.177-0.23-0.686,0.006-0.56,0.56c0.118,0.751,1.225,4.602,3.126,5.927
				c1.355,0.978,8.482,2.551,11.713,3.22c1.778,0.357,3.267,1.245,4.434,2.66c-0.482-1.851-0.87-3.223-1.493-4.9
				c-0.605-1.475-2.211-3.087-3.873-3.174c-3.087-0.111-7.084-0.374-9.987-1.634C256.937,204.224,256.039,203.378,255.075,202.19
				L255.075,202.19z"/>
			<path id="_x32_20_1_" class="st2" d="M272.77,217.435c0.973,0.717,2.048-1.852,0.811-4.294
				C273.543,215.492,271.674,216.28,272.77,217.435z"/>
			<path id="_x32_19_1_" class="st2" d="M273.705,219.79c1.346,0.413,1.768-1.969,0.881-3.874
				C274.734,217.963,272.469,219.196,273.705,219.79z"/>
			<path id="_x32_18_1_" class="st2" d="M274.73,221.68c1.3,0.647,1.792-1.759,0.858-3.546
				C275.69,220.414,273.728,221.086,274.73,221.68z"/>
			<path id="_x32_17_1_" class="st2" d="M274.195,221.825c-0.515,1.54-3.503-1.328-4.007-2.888
				C272.043,220.78,274.567,220.577,274.195,221.825z"/>
			<path id="_x32_16_1_" class="st2" d="M272.84,219.47c-0.586,1.54-4.343-2.425-5.174-4.334
				C269.521,216.979,273.258,218.385,272.84,219.47z"/>
			<path id="_x32_15_1_" class="st2" d="M272.095,217.16c-0.585,1.75-4.67-2.915-5.827-4.567
				C268.217,214.412,272.536,215.889,272.095,217.16z"/>
			<path id="_x32_14_1_" class="st2" d="M271.965,215.43c1.439-0.279-0.081-1.477-1.845-3.424
				C270.038,214.056,270.375,215.489,271.965,215.43z"/>
			<path id="_x32_13_1_" class="st2" d="M269.54,214.265c0.621-0.676-0.596-0.964-2.102-2.654
				C267.217,212.75,268.836,214.837,269.54,214.265z"/>
			<path id="_x32_12_1_" class="st2" d="M276.5,221.865c0.787,0.46,1.326-1.152,0.345-2.613
				C276.62,220.832,275.779,221.271,276.5,221.865z"/>
			<path id="_x32_11_1_" class="st2" d="M259.405,211.69c-1.671,1.002-4.326-2.996-5.034-4.641
				C255.838,208.937,259.72,210.661,259.405,211.69z"/>
			<path id="_x32_10_1_" class="st2" d="M260.825,214.02c-0.925,1.025-3.836-1.759-4.847-3.17
				C257.538,212.2,261.234,212.361,260.825,214.02z"/>
			<path id="_x32_09_1_" class="st2" d="M262.41,216.11c-0.305,1.4-4.553-1.748-5.546-3.238
				C258.696,214.598,262.689,214.442,262.41,216.11z"/>
			<path id="_x32_08_1_" class="st2" d="M261.76,217.625c-0.655,1.261-4.11-1.863-4.939-3.493
				C258.931,215.974,262.295,216.378,261.76,217.625z"/>
			<path id="_x32_07_1_" class="st2" d="M259.985,211.485c1.09-1.149,0.626-1.689-0.169-3.5
				C259.382,209.846,258.726,210.588,259.985,211.485z"/>
			<path id="_x32_06_1_" class="st2" d="M261.43,213.655c1.978,0.087,0.019-2.319-0.448-4.34
				C261.154,211.618,260.475,213.434,261.43,213.655z"/>
			<path id="_x32_05_1_" class="st2" d="M262.69,215.565c1.37-0.31,0.975-2.249-0.075-4.597
				C262.833,213.505,261.455,214.971,262.69,215.565z"/>
			<path id="_x32_04_1_" class="st2" d="M262.225,219.4c-0.516,1.541-4.414-2.028-5.034-3.377
				C259.163,217.678,262.573,218.245,262.225,219.4z"/>
			<path id="_x32_03_1_" class="st2" d="M264.56,221.805c-0.585,1.541-4.67-1.583-5.92-3.283
				C261.102,220.457,264.862,220.277,264.56,221.805z"/>
			<path id="_x32_02_1_" class="st2" d="M266.94,224.23c-0.655,2.147-4.926-1.281-6.2-2.957
				C263.459,223.348,267.289,222.702,266.94,224.23z"/>
			<path id="_x32_01_1_" class="st2" d="M262.925,218.715c1.16,0.601,1.629-2.691,0.975-5.017
				C263.908,216.235,261.572,218.121,262.925,218.715z"/>
			<path id="_x32_00_1_" class="st2" d="M264.905,221.33c1.394,0.414,0.952-3.135-0.239-5.436
				C264.512,218.174,263.483,220.34,264.905,221.33z"/>
			<path id="_x31_99_1_" class="st2" d="M267.38,223.78c1.557,0.087,0.486-3.042-0.799-4.807
				C266.8,221.277,266.075,223.513,267.38,223.78z"/>
			<path id="_x31_98_1_" class="st2" d="M264.65,225.115c-0.468,0.793-1.613-0.674-3.493-1.745
				C262.848,223.813,264.858,224.38,264.65,225.115z"/>
			<path id="_x31_97_1_" class="st2" d="M263.76,198.745c1.453-1.075,0.345-3.086,0-4.999
				C263.292,195.56,262.061,197.941,263.76,198.745z"/>
			<path id="_x31_96_1_" class="st2" d="M263.71,201.425c-2.183-0.262-1.855-3.085-1.921-4.875
				C262.446,198.979,264.236,199.389,263.71,201.425z"/>
			<path id="_x31_95_1_" class="st2" d="M264.055,201.06c1.847-0.107,1.749-2.208,1.848-4.334
				C264.967,198.68,263.858,198.983,264.055,201.06z"/>
			<path id="_x31_94_1_" class="st2" d="M263.98,203.67c-1.437,0.115-2.183-1.297-2.512-3.496
				C262.831,202.201,264.071,201.568,263.98,203.67z"/>
			<path id="_x31_93_1_" class="st2" d="M264.495,203.495c1.847,0.237,1.552-1.913,1.478-3.497
				C265.406,201.508,263.905,201.984,264.495,203.495z"/>
			<path id="_x31_92_1_" class="st2" d="M261.615,202.585c0.147,1.404,1.035,3.817,2.463,3.275
				C264.669,204.136,262.822,203.792,261.615,202.585z"/>
			<path id="_x31_91_1_" class="st2" d="M264.52,206.01c-0.641-1.23,1.453-1.847,1.896-3.447
				C266.671,204.853,266.457,206.355,264.52,206.01z"/>
			<path id="_x31_90_1_" class="st2" d="M258.565,191.42c1.15-1.238,0.134-3.203-0.211-5.115
				C257.887,188.118,257.076,190.522,258.565,191.42z"/>
			<path id="_x31_89_1_" class="st2" d="M258.53,193.725c-2.02,0.205-2.508-3.902-2.713-5.669
				C256.473,190.486,258.799,191.596,258.53,193.725z"/>
			<path id="_x31_88_1_" class="st2" d="M258.945,193.685c1.427-0.737,1.096-2.325,1.544-3.518
				C259.53,191.631,258.655,191.841,258.945,193.685z"/>
			<path id="_x31_87_1_" class="st2" d="M258.545,196.375c-2.113,0.181-3.371-4.369-3.437-6.159
				C255.764,192.645,258.791,193.966,258.545,196.375z"/>
			<path id="_x31_86_1_" class="st2" d="M258.95,196.305c1.987-0.457,1.749-1.742,1.451-3.821
				C259.768,194.578,258.66,194.135,258.95,196.305z"/>
			<path id="_x31_85_1_" class="st2" d="M258.52,199c-2.323,0.394-2.16-3.28-4.004-5.946
				C256.111,195.034,258.984,197.529,258.52,199z"/>
			<path id="_x31_84_1_" class="st2" d="M259.045,198.875c1.753,0.051,1.925-2.589,1.828-3.66
				C260.469,196.282,258.408,197.295,259.045,198.875z"/>
			<path id="_x31_83_1_" class="st2" d="M254.89,196.17c0.871,2.827,2.108,5.66,3.629,5.445
				C259.25,200.008,257.076,199.803,254.89,196.17z"/>
			<path id="_x31_82_1_" class="st2" d="M259.07,201.2c-0.64-1.231,1.453-1.848,1.896-3.448
				C261.22,200.043,261.007,201.545,259.07,201.2z"/>
			<path id="_x31_81_1_" class="st2" d="M255.49,199.4c1.244,2.547,1.805,5.474,3.512,5.048
				C259.64,202.468,257.116,202.053,255.49,199.4z"/>
			<path id="_x31_80_1_" class="st2" d="M259.355,203.965c-0.733-1.348,1.359-1.824,1.872-3.681
				C261.506,202.714,261.246,204.449,259.355,203.965z"/>
			<path id="_x31_79_1_" class="st2" d="M262.935,186.725c1.225,0.331,2.511-1.045,2.065-3.104
				C263.6,183.97,262.957,185.241,262.935,186.725z"/>
			<path id="_x31_78_1_" class="st2" d="M259.015,185.695c0.107,0.579,0.812,0.632,0.607-0.187c-0.171-0.664-0.2-1.164,0-1.703
				c0.274-0.677,0.183-1.829-0.023-2.31c-0.208-0.508-0.897-0.21-0.607,0.187c0.319,0.46,0.335,1.419,0.116,1.866
				C258.82,184.209,258.898,185.086,259.015,185.695z"/>
			<path id="_x31_77_1_" class="st2" d="M270.45,193.655c-0.473,0.697-1.44,0.271-0.704-0.686c0.603-0.774,1.464-1.407,1.527-2.207
				c0.05-1.014,0.645-2.553,1.186-3.072c0.559-0.553,1.205,0.225,0.607,0.594c-0.671,0.436-1.108,2.228-1.093,2.918
				C271.952,192.202,270.954,192.925,270.45,193.655L270.45,193.655z"/>
			<path id="_x31_76_1_" class="st2" d="M268.96,192.535c-0.474,0.697-1.228,0.292-0.801-0.826c0.361-0.774,0.4-1.734,0.802-2.3
				c0.563-0.858,1.515-1.573,2.056-2.093c0.559-0.553,1.023-0.02,0.51,0.454c-0.622,0.623-1.297,1.398-1.672,1.985
				C269.156,190.895,269.464,191.805,268.96,192.535L268.96,192.535z"/>
			<path id="_x31_75_1_" class="st2" d="M261.09,188.93c-0.056,0.983,0.735,1.222,0.7-0.204c-0.036-1.489-1.09-2.851-0.443-5.117
				c0.34-1.109,0.346-3.141,0.14-4.221c-0.181-1.071-0.943-0.371-0.653,0.463c0.319,0.967-0.06,2.822-0.303,3.755
				C259.798,186.322,261.133,187.646,261.09,188.93L261.09,188.93z"/>
			<path id="_x31_74_1_" class="st2" d="M263.25,183.49c-0.116,0.905-0.882,0.987-0.66-0.291c0.185-1.037,0.217-1.817,0-2.661
				c-0.298-1.057-0.199-2.857,0.025-3.608c0.226-0.793,0.974-0.328,0.66,0.292c-0.347,0.719-0.365,2.216-0.127,2.914
				C263.462,181.169,263.377,182.538,263.25,183.49L263.25,183.49z"/>
			<path id="_x31_73_1_" class="st2" d="M255.47,202c0.379,0.451,1.018,0.149,0.436-0.462c-0.477-0.493-0.32-0.648-0.61-1.25
				c-0.287-0.671-0.272-1.042-0.619-1.521c-0.306-0.455-0.768,0.009-0.458,0.392c0.388,0.453,0.281,0.787,0.518,1.225
				C255.175,201.134,255.068,201.528,255.47,202L255.47,202z"/>
			<path id="_x31_72_1_" class="st2" d="M265.67,214.305c1.22,0.6,2.146,2.098,2.207,3.318c0.103,1.404,0.306,2.59,0.937,3.588
				c-1.004-0.279-1.485-1.88-1.628-3.412C267.041,216.212,266.186,215.524,265.67,214.305L265.67,214.305z"/>
			<path id="_x31_71_1_" class="st2" d="M268.21,217.245c0.844,1.558,2.024,2.152,2.084,3.309c0.102,1.33,0.203,1.398,0.564,2.707
				c-0.994-0.265-1.244-0.352-1.512-2.342C269.181,219.519,268.061,218.532,268.21,217.245L268.21,217.245z"/>
			<path id="_x31_70_1_" class="st3" d="M294.485,231.66c0.474,0.894,1.019,2.255,2.006,2.006
				C296.507,232.982,295.426,232.508,294.485,231.66z"/>
			<path id="_x31_69_1_" class="st3" d="M295.955,231.965c1.917,0.786,3.573,0.592,3.78,1.797
				C297.936,233.956,297.278,233.218,295.955,231.965z"/>
			<path id="_x31_68_1_" class="st3" d="M287.925,225.62c1.291,1.058,2.129,2.266,2.52,3.826c0.407,1.454,0.98,2.613,1.821,3.92
				c-1.369-0.934-2.23-2.203-2.661-3.733C289.227,228.129,288.781,227.005,287.925,225.62L287.925,225.62z"/>
			<path id="_x31_67_1_" class="st3" d="M289.515,225.615c1.385,1.104,2.69,2.359,3.081,3.92c0.407,1.454,0.653,2.566,1.587,4.014
				c-1.462-0.934-2.043-2.344-2.473-3.875C291.331,228.171,290.464,227.047,289.515,225.615L289.515,225.615z"/>
			<path id="_x31_66_1_" class="st3" d="M294.085,229.235c-0.039-0.273,0.148-0.512,0.373-0.583c0.437-0.164,0.873-0.297,1.307-0.42
				c0.493-0.117,0.769,0.235,0.77,0.466c0.003,0.385,0.02,0.712,0,1.003c-0.027,0.363-0.096,0.391-0.327,0.444
				c-0.369,0.062-0.842,0.125-1.213,0.373c-0.294,0.181-0.576,0.038-0.723-0.279C294.177,229.997,294.125,229.523,294.085,229.235z"
				/>
			<path id="_x31_65_1_" class="st3" d="M299.4,229.235c0.034-0.273-0.11-0.535-0.311-0.607c-0.391-0.164-0.78-0.204-1.19-0.188
				c-0.456-0.007-0.571,0.096-0.572,0.327c-0.002,0.385-0.018,0.758,0,1.05c0.024,0.363,0.016,0.39,0.222,0.443
				c0.33,0.063,0.892,0.079,1.224,0.327c0.262,0.18,0.561,0.037,0.576-0.303C299.343,230.029,299.364,229.523,299.4,229.235
				L299.4,229.235z"/>
			<path id="_x31_64_1_" class="st2" d="M321.34,193.265c0.617-0.991,1.356,1.374,3.894,3.135c1.182,0.804,2.005,2.947,2.013,4.356
				c0.038,0.968-0.107,1.934,0,2.87c0.068,0.593,0.686,1.908,0.263,2.244c-1.117,0.83-2.563,2.716-3.234,3.366
				c-0.58,0.508-1.082-2.624-1.518-4.026c-0.466-1.502-0.257-3.297-1.551-4.686c-0.917-0.937-3.229-1.86-2.97-2.277L321.34,193.265
				L321.34,193.265z"/>
			<path id="_x31_63_1_" class="st5" d="M321.47,200.94c0.193-0.443,0.479-0.901,0.828-1.297c0.35-0.396,0.762-0.728,1.219-0.891
				c0.441-0.162,0.89-0.376,1.203-0.766c0.157-0.195,0.292-0.441,0.359-0.734c0.063-0.272,0.062-0.605,0.016-0.984
				c0.055,0.04,0.084,0.086,0.141,0.125c1.182,0.804,2.008,2.95,2.016,4.359c0.016,0.389,0.016,0.769,0,1.156
				c-0.087,0.243-0.172,0.478-0.297,0.625c-0.163,0.192-0.357,0.318-0.563,0.406c-0.412,0.176-0.887,0.212-1.328,0.375
				c-0.456,0.163-0.926,0.529-1.328,0.969c-0.383,0.419-0.679,0.9-0.875,1.328c-0.033-0.122-0.077-0.302-0.109-0.406
				C322.329,203.845,322.403,202.261,321.47,200.94L321.47,200.94z"/>
			<path id="_x31_62_1_" class="st4" d="M325.09,196.195c0.242,1.678-0.692,2.236-1.574,2.561c-0.913,0.324-1.661,1.303-2.046,2.189
				"/>
			<path id="_x31_61_1_" class="st4" d="M327.35,201.72c-0.385,1.447-1.399,1.266-2.28,1.591c-0.913,0.324-1.873,1.479-2.258,2.364"
				/>
			<path id="_x31_60_1_" class="st2" d="M322.195,192.24l-0.462-0.297l-8.876,14.949l0.462,0.297L322.195,192.24L322.195,192.24z"/>
			<path id="_x31_59_1_" class="st2" d="M321.24,191.645c0,0.565,0.458,1.023,1.023,1.023s1.023-0.458,1.023-1.023l0,0
				c0-0.565-0.458-1.023-1.023-1.023S321.24,191.08,321.24,191.645z"/>
			<rect id="_x31_58_1_" x="310.053" y="179.635" class="st2" width="3.597" height="0.825"/>
			<rect id="_x31_57_1_" x="310.053" y="181.2" class="st2" width="3.597" height="6.892"/>
			<path id="_x31_56_1_" class="st2" d="M313.87,178.695l-3.99,0.023c-0.156-1.353,1.194-2.814,1.983-2.8
				C312.642,175.956,313.901,177.397,313.87,178.695L313.87,178.695z"/>
			<path id="_x31_55_1_" class="st6" d="M303.69,177.88c0.761,0.32,1.344,1.188,1.703,2.188c0.359,0.999,0.496,2.134,0.328,3.047
				v0.016c-0.064,0.315-0.151,0.541-0.25,0.703c-0.1,0.162-0.211,0.257-0.344,0.281c-0.133,0.025-0.257-0.046-0.328-0.156
				c-0.071-0.11-0.107-0.254-0.094-0.422c0.072-0.939,0.067-1.866-0.156-2.703c-0.224-0.837-0.669-1.582-1.485-2.188
				c-0.147-0.108-0.232-0.232-0.25-0.359c-0.017-0.128,0.05-0.237,0.141-0.313C303.137,177.823,303.424,177.77,303.69,177.88
				L303.69,177.88z M303.612,178.099c-0.186-0.077-0.421-0.032-0.516,0.047c-0.047,0.039-0.053,0.067-0.047,0.109
				c0.006,0.043,0.039,0.117,0.156,0.203c0.856,0.636,1.328,1.436,1.562,2.313c0.234,0.877,0.229,1.83,0.156,2.781
				c-0.01,0.129,0.027,0.228,0.063,0.281c0.035,0.054,0.053,0.07,0.094,0.063c0.04-0.007,0.124-0.059,0.203-0.188
				c0.079-0.129,0.159-0.328,0.219-0.625c0.157-0.857,0.019-1.974-0.328-2.937C304.828,179.182,304.273,178.377,303.612,178.099
				L303.612,178.099z"/>
			<path id="_x31_54_1_" class="st6" d="M302.405,178.865c0.76,0.319,1.251,1.146,1.516,2.094c0.265,0.948,0.307,2.033,0.141,2.938
				c-0.13,0.642-0.467,0.98-0.797,1.031c-0.165,0.025-0.324-0.04-0.422-0.172c-0.098-0.132-0.13-0.309-0.078-0.531
				c0.186-0.749,0.258-1.683,0.125-2.531c-0.133-0.848-0.47-1.606-1.109-2.063c-0.148-0.107-0.232-0.231-0.25-0.359
				c-0.018-0.128,0.05-0.253,0.141-0.328C301.852,178.792,302.139,178.755,302.405,178.865L302.405,178.865z M302.311,179.084
				c-0.185-0.077-0.405-0.032-0.5,0.047c-0.047,0.039-0.068,0.067-0.063,0.109c0.006,0.043,0.054,0.117,0.172,0.203
				c0.706,0.504,1.064,1.332,1.203,2.219s0.052,1.832-0.141,2.609c-0.041,0.176,0,0.296,0.047,0.359
				c0.047,0.064,0.107,0.093,0.203,0.078c0.192-0.03,0.491-0.277,0.609-0.859c0.159-0.866,0.114-1.934-0.141-2.844
				C303.447,180.096,302.973,179.362,302.311,179.084L302.311,179.084z"/>
			<rect id="_x31_53_1_" x="309.832" y="193.695" class="st2" width="4.013" height="5.553"/>
			<rect id="_x31_52_1_" x="309.737" y="202.425" class="st2" width="3.874" height="1.167"/>
			<rect id="_x31_51_1_" x="309.738" y="204.475" class="st2" width="3.967" height="4.34"/>
			<rect id="_x31_50_1_" x="309.645" y="209.705" class="st2" width="4.34" height="2.427"/>
			<path id="_x31_49_1_" class="st2" d="M313.45,201.38h-3.497l-0.694-1.155h4.818L313.45,201.38L313.45,201.38z"/>
			<path id="_x31_48_1_" class="st2" d="M308.735,197.125l-0.033-3.036h-2.409C307.239,194.87,308.119,195.816,308.735,197.125z"/>
			<path id="_x31_47_1_" class="st4" d="M313.22,198.37c-0.024,0.649-0.759,0.36-0.759,0.033c0-1.002-0.013-2.085,0.027-2.794
				c0.005-0.522-1.245-0.392-1.238-0.07c-0.005,0.846-0.014,2.006-0.019,2.996c0.009,0.482-0.808,0.44-0.796,0
				c0.005-1.106,0.005-2.712,0-3.526c-0.007-1.048,2.75-1.025,2.772-0.023C313.205,195.808,313.221,197.281,313.22,198.37
				L313.22,198.37z"/>
			<rect id="_x31_46_1_" x="310.368" y="204.99" class="st4" width="2.847" height="3.547"/>
			<rect id="_x31_45_1_" x="310.392" y="206.46" class="st2" width="1.003" height="0.583"/>
			<rect id="_x31_44_1_" x="312.165" y="206.46" class="st2" width="0.98" height="0.583"/>
			<rect id="_x31_43_1_" x="311.395" y="205.035" class="st2" width="0.77" height="1.446"/>
			<rect id="_x31_42_1_" x="311.395" y="207.02" class="st2" width="0.77" height="1.54"/>
			<path id="_x31_41_1_" class="st2" d="M328.005,169.485c-0.178,2.784,0.686,4.311,2.16,4.079
				C330.571,172.02,329.647,170.984,328.005,169.485z"/>
			<path id="_x31_40_1_" class="st2" d="M331.24,175.655c1.311-0.666,0.365-5.757-0.138-7.89
				C330.73,170.513,330.108,174.42,331.24,175.655z"/>
			<path id="_x31_39_1_" class="st2" d="M330.775,175.895c-2.203,0.766-3.947-1.606-4.537-4.354
				C328.056,174.051,331.016,174.054,330.775,175.895z"/>
			<path id="_x31_38_1_" class="st2" d="M332.445,178.465c1.723-0.455,0.685-5.855,0.372-8.015
				C332.438,172.681,331.251,177.726,332.445,178.465z"/>
			<path id="_x31_37_1_" class="st2" d="M331.855,178.295c-0.096-1.862-1.953-1.324-3.234-2.318
				C328.83,176.908,329.618,178.557,331.855,178.295z"/>
			<path id="_x31_36_1_" class="st2" d="M333.965,180.79c1.707-0.461,0.681-6.272,0.778-8.665
				C334.242,174.193,332.657,180.23,333.965,180.79z"/>
			<path id="_x31_35_1_" class="st2" d="M333.17,180.54c-1.398,0.455-3.251-0.454-3.397-2.119
				C330.978,179.238,332.901,178.613,333.17,180.54z"/>
			<path id="_x31_34_1_" class="st2" d="M335.24,183.355c1.632,0.13,0.902-4.819,0.901-9.428
				C335.541,178.235,333.908,182.179,335.24,183.355z"/>
			<path id="_x31_33_1_" class="st2" d="M334.675,183.13c-1.103,0.553-3.078-0.331-3.642-2.193
				C333.025,181.803,334.357,180.956,334.675,183.13z"/>
			<path id="_x31_32_1_" class="st2" d="M321.86,172.065c0.29,2.414,1.277,3.819,2.751,3.587
				C325.017,174.108,323.822,173.121,321.86,172.065z"/>
			<path id="_x31_31_1_" class="st2" d="M325.76,178.26c-2.449,0.348-3.331-1.532-4.98-3.935
				C323.091,175.997,325.853,176.345,325.76,178.26L325.76,178.26z"/>
			<path id="_x31_30_1_" class="st2" d="M326.455,177.985c1.335-1.602,0.045-3.614-0.975-5.329
				C325.699,175.208,324.83,176.627,326.455,177.985z"/>
			<path id="_x31_29_1_" class="st2" d="M327.045,180.63c0.15-1.567-2.519-1.915-3.726-2.786
				C323.725,178.75,324.341,181.187,327.045,180.63z"/>
			<path id="_x31_28_1_" class="st2" d="M327.605,180.665c1.846-0.209,1.079-3.343-0.244-5.085
				C327.919,177.984,326.387,179.655,327.605,180.665z"/>
			<path id="_x31_27_1_" class="st2" d="M328.995,183.275c2.101-0.929,0.754-3.563-0.035-5.119
				C329.297,180.199,327.614,181.754,328.995,183.275z"/>
			<path id="_x31_26_1_" class="st2" d="M328.58,183.03c-1.103,1.439-3.25-0.429-3.691-2.612
				C326.758,181.974,328.138,181.718,328.58,183.03z"/>
			<path id="_x31_25_1_" class="st2" d="M333.38,193.16c0.216-2.144-1.396-6.042-0.253-8.12c0.156-0.286-0.342-1.044-0.664-0.584
				c-0.503,0.734-1.021,2.826-1.237,2.054c-0.229-0.84-0.264-2.325-1.008-2.614c-0.474-0.169-1.145-0.279-0.962,0.467
				c0.182,0.718,0.589,1.71,0.138,1.773c-0.262,0.039-1.016-0.977-1.65-1.447c-0.512-0.419-1.274,0.237-0.527,0.863
				C329.648,187.572,332.002,188.48,333.38,193.16L333.38,193.16z"/>
			<path id="_x31_24_1_" class="st2" d="M337.745,225.425c0.285-0.055,0.676-0.151,0.32,0.292c-2.839,3.498-3.661,4.462-7.801,3.97
				c-4.182-0.55-5.179-1.682-8.107-3.325c-1.564-0.917-3.851-1.121-5.585-0.553c-0.807,0.265-1.295,0.28-0.717-0.299
				c0.579-0.579,1.262-1.366,1.974-1.908c1.559-1.197,4.204-1.716,6.361-1.331c3.052,0.478,5.574,2.422,8.588,3.156
				C334.362,225.789,336.099,225.734,337.745,225.425L337.745,225.425z"/>
			<path id="_x31_23_1_" class="st2" d="M313.85,231.675c-0.528,0.066-0.862,1.089-1.122,0.396
				c-0.441-1.121-0.132-2.013,0.363-1.915C313.676,230.313,314.665,231.624,313.85,231.675L313.85,231.675z"/>
			<path id="_x31_22_1_" class="st3" d="M339.7,191.46c0.608-0.634,0.432-0.877-0.466-0.887c-0.713-0.045-2.125,0.437-2.661,0.047
				c-0.491-0.357-0.296-1.869-0.514-2.567c-0.095-0.389-0.367-0.999-0.979-0.047c-1.811,2.902-4.073,6.386-5.04,9.8
				c-0.529,1.913-0.031,4.9,1.727,6.907c-0.063-1.711,0.576-2.862,1.353-4.294C334.081,198.539,337.648,193.444,339.7,191.46
				L339.7,191.46z"/>
			<path id="_x31_21_1_" class="st2" d="M332.235,206.72c-1.992,0.01-2.334-2.66-2.334-3.406
				C330.882,203.5,332.608,205.134,332.235,206.72z"/>
			<path id="_x31_20_1_" class="st2" d="M315.025,232.63c-1.417,0.322-1.397-3.089,0.05-4.535
				C314.438,230.286,316.139,232.289,315.025,232.63z"/>
			<path id="_x31_19_1_" class="st2" d="M315.575,232.6c-0.093,1.622,3.979-0.212,5.026-1.473
				C318.195,232.149,315.694,231.303,315.575,232.6z"/>
			<path id="_x31_18_1_" class="st2" d="M317.36,230.285c-0.146,1.57,3.532,0.189,4.619-1.037
				C319.564,230.028,317.521,228.992,317.36,230.285z"/>
			<path id="_x31_17_1_" class="st2" d="M316.685,230.505c-1.416,0.322-1.187-3.206,0.19-4.418
				C316.214,228.441,317.799,230.164,316.685,230.505z"/>
			<path id="_x31_16_1_" class="st2" d="M318.175,228.36c-1.417,0.322-0.604-2.716,0.446-3.929
				C318.451,226.647,319.149,228.183,318.175,228.36z"/>
			<path id="_x31_15_1_" class="st2" d="M318.925,228.35c-0.146,1.618,2.715,0.376,3.825-1.155
				C320.359,227.976,319.086,227.058,318.925,228.35z"/>
			<path id="_x31_14_1_" class="st2" d="M319.705,227.12c-0.928-0.667,0.057-2.432,1.823-2.322
				C321.355,225.863,320.744,227.737,319.705,227.12z"/>
			<path id="_x31_13_1_" class="st2" d="M312.73,234.435c-0.094,1.622,3.979,0.815,5.259-0.913
				C315.42,234.008,312.849,233.138,312.73,234.435z"/>
			<path id="_x31_12_1_" class="st2" d="M328.91,231.535c-0.146,1.617,4.301-0.161,5.412-1.691
				C331.93,230.624,329.071,230.242,328.91,231.535z"/>
			<path id="_x31_11_1_" class="st2" d="M326.185,232.225c-0.928-0.668,0.966-2.385,2.476-2.789
				C328.488,230.502,327.224,232.843,326.185,232.225z"/>
			<path id="_x31_10_1_" class="st2" d="M325.9,233.345c-0.1,1.454,4.769,0.657,6.042-0.687
				C327.754,233.415,326.037,232.1,325.9,233.345z"/>
			<path id="_x31_09_1_" class="st2" d="M323.62,234.315c-0.54,1.351,4.132,1.021,5.772,0.236
				C326.742,234.527,323.991,233.374,323.62,234.315z"/>
			<path id="_x31_08_1_" class="st2" d="M321.435,235.3c-0.517,1.211,3.805,1.185,5.912,0.516
				C324.556,235.792,321.947,234.103,321.435,235.3z"/>
			<path id="_x31_07_1_" class="st2" d="M318.29,235.95c-0.765,1.432,3.794,1.571,5.274,0.866
				C320.927,236.454,318.943,234.823,318.29,235.95z"/>
			<path id="_x31_06_1_" class="st2" d="M323.63,233.5c1.45,0.915,1.372-1.782,2.526-3.649
				C324.344,231.501,322.647,232.628,323.63,233.5z"/>
			<path id="_x31_05_1_" class="st2" d="M321.06,234.47c1.217,1.078,2.19-2.623,3.297-4.699
				C322.567,231.747,319.937,233.575,321.06,234.47z"/>
			<path id="_x31_04_1_" class="st2" d="M317.66,235.5c1.031,1.194,4.01-3.509,5.094-5.959
				C321.104,231.448,316.841,234.488,317.66,235.5z"/>
			<path id="_x31_03_1_" class="st2" d="M320.56,239.09c0.514,1.816,8.096-1.712,8.943-3.539
				C325.164,237.85,320.456,237.369,320.56,239.09z"/>
			<path id="_x31_02_1_" class="st2" d="M344.925,202.19c0.177-0.23,0.687,0.006,0.56,0.56c-0.118,0.751-1.225,4.602-3.126,5.927
				c-1.356,0.978-8.483,2.551-11.714,3.22c-1.778,0.357-3.267,1.245-4.434,2.66c0.482-1.851,0.87-3.223,1.493-4.9
				c0.606-1.475,2.211-3.087,3.873-3.174c3.087-0.111,7.083-0.374,9.987-1.634C343.064,204.224,343.961,203.378,344.925,202.19
				L344.925,202.19z"/>
			<path id="_x31_01_1_" class="st2" d="M327.23,217.435c-0.974,0.717-2.048-1.852-0.812-4.294
				C326.458,215.492,328.326,216.28,327.23,217.435z"/>
			<path id="_x31_00_1_" class="st2" d="M326.295,219.79c-1.347,0.413-1.768-1.969-0.881-3.874
				C325.266,217.963,327.53,219.196,326.295,219.79z"/>
			<path id="_x39_9_1_" class="st2" d="M325.27,221.68c-1.3,0.647-1.792-1.759-0.858-3.546
				C324.31,220.414,326.272,221.086,325.27,221.68z"/>
			<path id="_x39_8_1_" class="st2" d="M325.805,221.825c0.515,1.54,3.503-1.328,4.007-2.888
				C327.957,220.78,325.434,220.577,325.805,221.825z"/>
			<path id="_x39_7_1_" class="st2" d="M327.16,219.47c0.585,1.54,4.343-2.425,5.174-4.334
				C330.479,216.979,326.742,218.385,327.16,219.47z"/>
			<path id="_x39_6_1_" class="st2" d="M327.905,217.16c0.585,1.75,4.67-2.915,5.827-4.567
				C331.783,214.412,327.464,215.889,327.905,217.16z"/>
			<path id="_x39_5_1_" class="st2" d="M328.035,215.43c-1.438-0.279,0.082-1.477,1.845-3.424
				C329.962,214.056,329.626,215.489,328.035,215.43z"/>
			<path id="_x39_4_1_" class="st2" d="M330.46,214.265c-0.621-0.676,0.595-0.964,2.101-2.654
				C332.784,212.75,331.164,214.837,330.46,214.265z"/>
			<path id="_x39_3_1_" class="st2" d="M323.5,221.865c-0.787,0.46-1.326-1.152-0.345-2.613
				C323.38,220.832,324.222,221.271,323.5,221.865z"/>
			<path id="_x39_2_1_" class="st2" d="M340.595,211.69c1.671,1.002,4.326-2.996,5.034-4.641
				C344.162,208.937,340.28,210.661,340.595,211.69z"/>
			<path id="_x39_1_1_" class="st2" d="M339.175,214.02c0.925,1.025,3.835-1.759,4.847-3.17
				C342.462,212.2,338.766,212.361,339.175,214.02z"/>
			<path id="_x39_0_1_" class="st2" d="M337.59,216.11c0.305,1.4,4.553-1.748,5.546-3.238
				C341.305,214.598,337.311,214.442,337.59,216.11z"/>
			<path id="_x38_9_1_" class="st2" d="M338.24,217.625c0.655,1.261,4.11-1.863,4.94-3.493
				C341.069,215.974,337.705,216.378,338.24,217.625z"/>
			<path id="_x38_8_1_" class="st2" d="M340.015,211.485c-1.09-1.149-0.625-1.689,0.169-3.5
				C340.618,209.846,341.274,210.588,340.015,211.485z"/>
			<path id="_x38_7_1_" class="st2" d="M338.57,213.655c-1.977,0.087-0.019-2.319,0.448-4.34
				C338.846,211.618,339.525,213.434,338.57,213.655z"/>
			<path id="_x38_6_1_" class="st2" d="M337.31,215.565c-1.37-0.31-0.975-2.249,0.076-4.597
				C337.167,213.505,338.546,214.971,337.31,215.565z"/>
			<path id="_x38_5_1_" class="st2" d="M337.775,219.4c0.515,1.541,4.413-2.028,5.033-3.377
				C340.837,217.678,337.427,218.245,337.775,219.4z"/>
			<path id="_x38_4_1_" class="st2" d="M335.44,221.805c0.584,1.541,4.669-1.583,5.919-3.283
				C338.898,220.457,335.138,220.277,335.44,221.805z"/>
			<path id="_x38_3_3_" class="st2" d="M333.06,224.23c0.655,2.147,4.927-1.281,6.2-2.957
				C336.542,223.348,332.712,222.702,333.06,224.23z"/>
			<path id="_x38_3_2_" class="st2" d="M337.075,218.715c-1.16,0.601-1.629-2.691-0.974-5.017
				C336.092,216.235,338.427,218.121,337.075,218.715z"/>
			<path id="_x38_2_1_" class="st2" d="M335.095,221.33c-1.393,0.414-0.952-3.135,0.239-5.436
				C335.489,218.174,336.517,220.34,335.095,221.33z"/>
			<path id="_x38_1_1_" class="st2" d="M332.62,223.78c-1.557,0.087-0.485-3.042,0.799-4.807
				C333.2,221.277,333.925,223.513,332.62,223.78z"/>
			<path id="_x38_0_1_" class="st2" d="M335.35,225.115c0.468,0.793,1.613-0.674,3.493-1.745
				C337.152,223.813,335.142,224.38,335.35,225.115z"/>
			<path id="_x37_9_1_" class="st2" d="M336.24,198.745c-1.453-1.075-0.345-3.086,0-4.999
				C336.708,195.56,337.939,197.941,336.24,198.745z"/>
			<path id="_x37_8_1_" class="st2" d="M336.29,201.425c2.184-0.262,1.855-3.085,1.92-4.875
				C337.554,198.979,335.764,199.389,336.29,201.425z"/>
			<path id="_x37_7_1_" class="st2" d="M335.945,201.06c-1.847-0.107-1.749-2.208-1.848-4.334
				C335.033,198.68,336.142,198.983,335.945,201.06z"/>
			<path id="_x37_6_1_" class="st2" d="M336.02,203.67c1.436,0.115,2.184-1.297,2.512-3.496
				C337.169,202.201,335.93,201.568,336.02,203.67z"/>
			<path id="_x37_5_1_" class="st2" d="M335.505,203.495c-1.847,0.237-1.552-1.913-1.478-3.497
				C334.593,201.508,336.096,201.984,335.505,203.495z"/>
			<path id="_x37_4_1_" class="st2" d="M338.385,202.585c-0.147,1.404-1.035,3.817-2.463,3.275
				C335.331,204.136,337.178,203.792,338.385,202.585z"/>
			<path id="_x37_3_1_" class="st2" d="M335.48,206.01c0.64-1.23-1.453-1.847-1.896-3.447
				C333.33,204.853,333.543,206.355,335.48,206.01z"/>
			<path id="_x37_2_1_" class="st2" d="M341.435,191.42c-1.15-1.238-0.134-3.203,0.21-5.115
				C342.113,188.118,342.924,190.522,341.435,191.42z"/>
			<path id="_x37_1_1_" class="st2" d="M341.47,193.725c2.02,0.205,2.508-3.902,2.714-5.669
				C343.527,190.486,341.201,191.596,341.47,193.725z"/>
			<path id="_x37_0_1_" class="st2" d="M341.055,193.685c-1.427-0.737-1.095-2.325-1.544-3.518
				C340.47,191.631,341.345,191.841,341.055,193.685z"/>
			<path id="_x36_9_1_" class="st2" d="M341.455,196.375c2.113,0.181,3.371-4.369,3.437-6.159
				C344.236,192.645,341.209,193.966,341.455,196.375z"/>
			<path id="_x36_8_1_" class="st2" d="M341.05,196.305c-1.987-0.457-1.749-1.742-1.451-3.821
				C340.232,194.578,341.34,194.135,341.05,196.305z"/>
			<path id="_x36_7_1_" class="st2" d="M341.48,199c2.323,0.394,2.16-3.28,4.004-5.946C343.889,195.034,341.016,197.529,341.48,199z
				"/>
			<path id="_x36_6_1_" class="st2" d="M340.955,198.875c-1.754,0.051-1.925-2.589-1.828-3.66
				C339.53,196.282,341.593,197.295,340.955,198.875z"/>
			<path id="_x36_5_1_" class="st2" d="M345.11,196.17c-0.871,2.827-2.108,5.66-3.629,5.445
				C340.75,200.008,342.924,199.803,345.11,196.17z"/>
			<path id="_x36_4_1_" class="st2" d="M340.93,201.2c0.64-1.231-1.453-1.848-1.896-3.448
				C338.78,200.043,338.993,201.545,340.93,201.2z"/>
			<path id="_x36_3_1_" class="st2" d="M344.51,199.4c-1.244,2.547-1.805,5.474-3.512,5.048
				C340.361,202.468,342.884,202.053,344.51,199.4z"/>
			<path id="_x36_2_1_" class="st2" d="M340.645,203.965c0.734-1.348-1.359-1.824-1.873-3.681
				C338.495,202.714,338.755,204.449,340.645,203.965z"/>
			<path id="_x36_1_1_" class="st2" d="M337.065,186.725c-1.226,0.331-2.511-1.045-2.066-3.104
				C336.4,183.97,337.043,185.241,337.065,186.725z"/>
			<path id="_x36_0_1_" class="st2" d="M340.985,185.695c-0.107,0.579-0.812,0.632-0.607-0.187c0.171-0.664,0.2-1.164,0-1.703
				c-0.275-0.677-0.183-1.829,0.023-2.31c0.207-0.508,0.896-0.21,0.606,0.187c-0.319,0.46-0.335,1.419-0.116,1.866
				C341.18,184.209,341.102,185.086,340.985,185.695z"/>
			<path id="_x35_9_1_" class="st2" d="M329.55,193.655c0.474,0.697,1.44,0.271,0.704-0.686c-0.604-0.774-1.464-1.407-1.528-2.207
				c-0.05-1.014-0.646-2.553-1.187-3.072c-0.559-0.553-1.204,0.225-0.607,0.594c0.671,0.436,1.107,2.228,1.093,2.918
				C328.048,192.202,329.046,192.925,329.55,193.655L329.55,193.655z"/>
			<path id="_x35_8_1_" class="st2" d="M331.04,192.535c0.474,0.697,1.229,0.292,0.801-0.826c-0.361-0.774-0.4-1.734-0.802-2.3
				c-0.563-0.858-1.515-1.573-2.056-2.093c-0.559-0.553-1.022-0.02-0.51,0.454c0.622,0.623,1.297,1.398,1.672,1.985
				C330.844,190.895,330.536,191.805,331.04,192.535L331.04,192.535z"/>
			<path id="_x35_7_1_" class="st2" d="M338.91,188.93c0.056,0.983-0.735,1.222-0.7-0.204c0.036-1.489,1.089-2.851,0.443-5.117
				c-0.34-1.109-0.346-3.141-0.14-4.221c0.181-1.071,0.943-0.371,0.653,0.463c-0.319,0.967,0.06,2.822,0.304,3.755
				C340.202,186.322,338.867,187.646,338.91,188.93L338.91,188.93z"/>
			<path id="_x35_6_1_" class="st2" d="M336.75,183.49c0.116,0.905,0.882,0.987,0.659-0.291c-0.186-1.037-0.217-1.817,0-2.661
				c0.298-1.057,0.199-2.857-0.025-3.608c-0.226-0.793-0.974-0.328-0.659,0.292c0.347,0.719,0.365,2.216,0.126,2.914
				C336.538,181.169,336.623,182.538,336.75,183.49L336.75,183.49z"/>
			<path id="_x35_5_1_" class="st2" d="M344.53,202c-0.379,0.451-1.018,0.149-0.436-0.462c0.476-0.493,0.319-0.648,0.61-1.25
				c0.287-0.671,0.272-1.042,0.619-1.521c0.307-0.455,0.768,0.009,0.458,0.392c-0.388,0.453-0.28,0.787-0.518,1.225
				C344.826,201.134,344.932,201.528,344.53,202L344.53,202z"/>
			<path id="_x35_4_1_" class="st2" d="M334.33,214.305c-1.22,0.6-2.146,2.098-2.207,3.318c-0.103,1.404-0.306,2.59-0.936,3.588
				c1.004-0.279,1.485-1.88,1.628-3.412C332.959,216.212,333.814,215.524,334.33,214.305L334.33,214.305z"/>
			<path id="_x35_3_1_" class="st2" d="M331.79,217.245c-0.844,1.558-2.024,2.152-2.085,3.309c-0.102,1.33-0.203,1.398-0.564,2.707
				c0.994-0.265,1.244-0.352,1.512-2.342C330.819,219.519,331.939,218.532,331.79,217.245L331.79,217.245z"/>
			<path id="_x35_2_1_" class="st3" d="M305.515,231.66c-0.474,0.894-1.019,2.255-2.006,2.006
				C303.493,232.982,304.574,232.508,305.515,231.66z"/>
			<path id="_x35_1_1_" class="st3" d="M304.045,231.965c-1.918,0.786-3.574,0.592-3.78,1.797
				C302.064,233.956,302.722,233.218,304.045,231.965z"/>
			<path id="_x35_0_1_" class="st3" d="M312.075,225.62c-1.292,1.058-2.129,2.266-2.52,3.826c-0.407,1.454-0.98,2.613-1.821,3.92
				c1.369-0.934,2.23-2.203,2.661-3.733C310.773,228.129,311.219,227.005,312.075,225.62L312.075,225.62z"/>
			<path id="_x34_9_1_" class="st3" d="M310.485,225.615c-1.385,1.104-2.69,2.359-3.081,3.92c-0.407,1.454-0.653,2.566-1.587,4.014
				c1.462-0.934,2.043-2.344,2.474-3.875C308.669,228.171,309.536,227.047,310.485,225.615L310.485,225.615z"/>
			<path id="_x34_8_1_" class="st3" d="M305.915,229.235c0.039-0.273-0.148-0.512-0.373-0.583c-0.438-0.164-0.872-0.297-1.306-0.42
				c-0.493-0.117-0.769,0.235-0.771,0.466c-0.002,0.385-0.02,0.712,0,1.003c0.027,0.363,0.096,0.391,0.327,0.444
				c0.369,0.062,0.842,0.125,1.213,0.373c0.294,0.181,0.577,0.038,0.724-0.279C305.823,229.997,305.875,229.523,305.915,229.235z"/>
			<path id="_x34_7_1_" class="st3" d="M300.6,229.235c-0.034-0.273,0.11-0.535,0.311-0.607c0.391-0.164,0.78-0.204,1.19-0.188
				c0.456-0.007,0.57,0.096,0.572,0.327c0.002,0.385,0.018,0.758,0,1.05c-0.024,0.363-0.016,0.39-0.222,0.443
				c-0.33,0.063-0.892,0.079-1.224,0.327c-0.262,0.18-0.561,0.037-0.576-0.303C300.657,230.029,300.636,229.523,300.6,229.235
				L300.6,229.235z"/>
			<g id="XMLID_1_">
				<g>
					<path class="st1" d="M293.563,244.75c0.281,0.375,0.094,1.5-1.406,0.844c-2.25-0.844-4.594-1.594-6.844-0.75
						c0.188-0.469,0.281-0.938,0.281-1.5c1.688,0,4.688,0,5.438,0C292.156,243.344,293.094,244.094,293.563,244.75z"/>
					<path class="st3" d="M292.156,245.594c1.5,0.656,1.688-0.469,1.406-0.844c-0.469-0.656-1.406-1.406-2.531-1.406
						c-0.75,0-3.75,0-5.438,0c0,0.563-0.094,1.031-0.281,1.5C287.563,244,289.906,244.75,292.156,245.594z M314.281,243.344
						c-2.438,0.281-5.906-0.469-7.313,0.75c-1.031,0.844,0,1.781,0.938,1.313c1.969-0.844,4.781-1.313,6.844-0.469
						C314.375,244.375,314.281,243.906,314.281,243.344z M315.125,245.875c-1.219-0.938-4.219-0.938-6.281,0
						c-1.031,0.469-2.438,0.375-2.813-0.094c-0.563-0.563-0.656-2.156-1.688-1.969c-1.781,0.188-7.594,0.094-8.719-0.094
						c-0.469,0-1.219,0.75-1.219,1.781c0,0.938-1.219,1.031-1.969,0.844c-2.813-0.938-5.813-1.969-7.688-0.375
						c-0.375,0.375-1.031-0.188-0.469-0.656s0.375-0.656,0.656-1.219c0.094-0.188,0.094-1.125-0.563-1.125
						c-1.5,0-3.844-0.938-3.938-0.938c-3.281-1.219-2.531-2.438-1.781-3.094c2.063-1.594,4.594-3.656,6.75-5.813
						c0.656-0.656,1.406-0.844,1.969-0.656c2.438,1.031,8.156,3,12.375,2.906c4.406-0.094,9-1.219,12.656-2.906
						c1.125-0.469,1.5-0.281,2.156,0.375c2.063,2.25,4.5,4.125,6.656,6.094c1.688,1.5-0.094,3.375-5.625,4.125
						c-0.469,0.094-0.844,0.281-0.375,1.219c0.188,0.469,0.188,0.75,0.563,1.219C316.063,245.969,315.688,246.25,315.125,245.875z"
						/>
				</g>
				<g>
				</g>
			</g>
			<path id="_x34_5_1_" class="st6" d="M313.31,232.77c-0.29,0.029-0.599,0.119-0.828,0.203c-4.46,1.567-8.558,2.664-12.828,2.656
				c-4.167-0.008-8.533-1.155-12.453-2.766c-0.223-0.095-0.48-0.081-0.734-0.016c-0.254,0.065-0.506,0.183-0.672,0.344
				c-1.82,1.813-3.791,3.574-5.906,5.172c-0.32,0.244-0.268,0.865,0.25,1.078h0.015c4.152,1.489,8.206,4.266,19.813,4.156
				c11.717-0.111,15.873-2.82,19.594-4.062c0.262-0.101,0.532-0.25,0.656-0.484c0.062-0.118,0.079-0.264,0.031-0.406
				c-0.048-0.144-0.142-0.277-0.313-0.422h-0.016c-2.112-1.727-4.375-3.104-5.859-5.203
				C313.894,232.781,313.601,232.741,313.31,232.77L313.31,232.77z M313.325,232.989c0.254-0.025,0.448,0.013,0.547,0.156
				c1.521,2.151,3.81,3.537,5.906,5.25c0.15,0.128,0.221,0.24,0.25,0.328c0.029,0.088,0.022,0.148-0.016,0.219
				c-0.075,0.142-0.295,0.285-0.531,0.375c-3.767,1.258-7.834,3.952-19.516,4.063c-11.557,0.109-15.547-2.651-19.734-4.156
				c-0.377-0.155-0.343-0.581-0.203-0.687c2.121-1.603,4.114-3.371,5.938-5.188c0.125-0.122,0.326-0.225,0.547-0.281
				s0.457-0.066,0.609,0c3.939,1.619,8.307,2.789,12.516,2.797c4.309,0.008,8.451-1.102,12.922-2.672
				C312.782,233.11,313.072,233.014,313.325,232.989L313.325,232.989z"/>
			<path id="_x34_4_1_" class="st3" d="M284.855,157.28c-0.034-0.689,1.035-0.742,0.912,0.206c-0.157,1.181,2.229,4.171,2.427,6.014
				c0.133,1.236-0.727,2.319-1.577,2.992c-1.043,0.808-2.647,0.697-3.397,0.233c-0.454-0.365-0.868-1.617-0.528-2.112
				c0.12-0.167,0.664,1.837,1.861,1.829c1.629-0.011,2.948-1.234,2.996-2.326C287.633,162.217,284.885,159.212,284.855,157.28
				L284.855,157.28z"/>
			<path id="_x34_3_1_" class="st3" d="M289.62,161.975c0.27-0.193,0.7,0.648,0.396,0.858
				C289.763,163.001,289.27,162.208,289.62,161.975z"/>
			<path id="_x34_2_1_" class="st3" d="M290.345,160.27c-0.136,0.066-0.407-0.028-0.326-0.143c0.381-0.544,1.194-1.364,1.783-1.65
				c0.181-0.088,0.498,0.232,0.388,0.388C291.837,159.368,290.98,159.962,290.345,160.27L290.345,160.27z"/>
			<path id="_x34_1_1_" class="st3" d="M296.64,155.275c0.151-0.315,1.059-0.672,1.29-0.885c0.213-0.219,0.316,0.185,0.224,0.376
				c-0.151,0.315-0.934,0.848-1.277,0.862C296.692,155.636,296.549,155.466,296.64,155.275L296.64,155.275z"/>
			<path id="_x34_0_1_" class="st3" d="M298.795,155.375c0.196-0.554,0.83-1.393,1.266-1.669c0.224-0.142,0.626-0.03,0.551,0.182
				c-0.167,0.47-0.942,1.29-1.463,1.677C298.991,155.706,298.75,155.503,298.795,155.375z"/>
			<path id="_x33_9_1_" class="st3" d="M296.95,156.76c-0.131,0.066-0.06,0.346,0.066,0.388c0.27,0.09,0.76,0.107,0.982-0.015
				c0.323-0.199,0.176-1.422-0.256-0.769C297.452,156.767,297.241,156.638,296.95,156.76L296.95,156.76z"/>
			<path id="_x33_8_1_" class="st3" d="M293.305,159.57c-0.659-0.513,0.178-1.232,0.866-0.73c1.342,1.012-2.001,4.889-3.82,6.701
				c-0.333,0.355-0.625-0.539-0.198-0.924c1.304-1.106,2.525-2.428,3.374-3.793C293.69,160.562,293.846,159.995,293.305,159.57
				L293.305,159.57z"/>
			<path id="_x33_7_1_" class="st3" d="M300.94,156.235c0.081-0.491-0.795,0.01-0.811-0.641c-0.008-0.344,0.957-0.586,1.361-0.19
				c0.682,0.692,0.172,1.859-0.962,1.933c-0.946,0.042-2.523,1.343-2.283,1.616c0.273,0.338,2.725,0.561,4.15,0.337
				c0.883-0.124,0.698,0.666-0.207,0.773c-0.874,0.101-1.586,0.007-2.402,0.264c-0.961,0.275-1.38,1.565-1.915,2.046
				c-0.119,0.084-0.439-0.423-0.317-0.614c0.384-0.602,0.998-1.522,1.673-1.786c0.426-0.173-1.174-0.227-1.685-0.373
				c-0.405-0.122-0.287-0.637-0.132-0.924c0.206-0.448,1.714-1.958,2.322-1.933C300.304,156.768,300.884,156.602,300.94,156.235
				L300.94,156.235z"/>
			<path id="_x33_6_1_" class="st3" d="M303.48,156.365c0.284-0.25,0.429-0.669,0.726-0.924c0.163-0.163,0.423,0.032,0.38,0.427
				c-0.037,0.31-0.453,0.578-0.733,0.811C303.625,156.85,303.359,156.481,303.48,156.365z"/>
			<path id="_x33_5_1_" class="st3" d="M306.715,155.215c0.422-0.047,0.527,0.769,0.065,0.9
				C306.501,156.209,306.256,155.263,306.715,155.215z"/>
			<path id="_x33_4_1_" class="st3" d="M305.65,157.735c-0.007,0.702,0.34,0.637,1.001,0.613c0.642-0.024,1.206,0.016,1.204-0.617
				c-0.003-0.657-0.364-1.232-0.47-0.785c-0.093,0.42-0.167,1.108-0.411,0.808c-0.231-0.257-0.139-0.314-0.536,0.109
				c-0.22,0.233-0.245-0.113-0.377-0.33C305.969,157.404,305.651,157.637,305.65,157.735L305.65,157.735z"/>
			<path id="_x33_3_1_" class="st3" d="M301.04,161.315c-0.158,0.929-0.013,2.23,0.462,2.244c0.588,0.019,1.804-2.031,2.38-3.094
				c0.345-0.593,0.938-0.697,0.691-0.078c-0.374,0.955-0.341,2.999-0.012,3.599c0.177,0.323,1.482-0.297,1.693-0.757
				c0.383-0.837,0.071-2.381,0.206-3.323c0.065-0.619,0.631-0.748,0.602-0.175c-0.056,1.026-0.154,2.908-0.081,3.762
				c0.043,0.491,1.447,1.216,1.673-0.271c0.119-0.936,0.601-1.859-0.023-2.897c-0.387-0.648,0.568-0.567,1.083,0.319
				c0.36,0.603-0.304,1.601-0.28,2.372c0.06,1.187-0.863,1.861-1.533,1.875c-0.599,0.012-0.988-0.723-1.479-0.733
				c-0.544-0.035-1.103,0.846-1.553,0.815c-1.743-0.119-0.82-2.667-1.351-2.698c-0.591-0.035-1.288,2.497-2.015,2.407
				c-0.717-0.086-1.459-2.064-1.161-2.9C300.611,161.003,301.12,160.82,301.04,161.315L301.04,161.315z"/>
			<path id="_x33_2_1_" class="st3" d="M309.48,157.3c-0.851-0.519,0.054-1.868,0.469-1.394c0.803,0.962,1.612,3.243,2.178,3.432
				c0.358,0.119,0.342-1.687,0.594-2.508c0.163-0.607,0.897-0.409,0.756,0.369c-0.048,0.26-0.958,3.211-0.888,3.327
				c0.631,1.261,1.255,2.541,1.65,3.894c0.163,0.584-0.538,0.191-0.621,0.07c-0.448-0.669-1.23-3.226-1.23-3.109
				c-0.36,1.799-0.445,2.33-0.828,3.859c-0.116,0.49-0.837,0.401-0.675-0.462c0.156-0.709,1.187-4.196,1.129-4.297
				C311.204,159.049,310.463,157.917,309.48,157.3L309.48,157.3z"/>
			<path id="_x33_1_1_" class="st3" d="M311.015,165.6c-0.237-0.027-0.605,0.527,0.576,0.745c1.578,0.286,3.306-0.246,3.835-1.793
				c0.607-1.843,1.007-3.588,1.324-4.247c0.396-0.767,0.901-0.705,0.528-1.825c-0.263-0.806-0.755-0.563-0.858-0.132
				c-0.276,1.175-1.323,4.976-1.649,5.676C314.153,165.301,312.91,165.807,311.015,165.6L311.015,165.6z"/>
			<path id="_x33_0_1_" class="st3" d="M314.175,159.535c-0.169-0.363-0.563-0.082-0.493,0.315c0.041,0.359,0.332,0.553,0.624,0.544
				c0.346-0.012,1.078,0.012,1.08-0.563c0.001-0.403-0.316-0.74-0.551-0.295C314.61,159.938,314.32,159.896,314.175,159.535
				L314.175,159.535z"/>
			<path id="_x32_9_1_" class="st3" d="M314.57,158.015c-0.121,0.084-0.013,0.533,0.132,0.528c0.516-0.017,1.246-0.182,1.637-0.454
				c0.115-0.08,0.067-0.351-0.096-0.345C315.746,157.76,314.955,157.747,314.57,158.015L314.57,158.015z"/>
			<path id="_x32_8_1_" class="st3" d="M318.95,159.145c0.373-0.583,1.403-0.643,1.033,0.19c-0.262,0.574-2.826,5.528-3.176,6.158
				c-0.382,0.708-0.694,0.358-0.423-0.194C316.749,164.589,318.833,159.318,318.95,159.145z"/>
			<path id="_x32_7_1_" class="st3" d="M315.09,166.52c-0.109-0.394-0.721-0.977-0.652,0.077c0.122,1.914,2.752,1.309,3.548,0.629
				c0.723-0.641,0.096,2.161,1.056,2.461c0.529,0.17,1.526-0.552,2.016-1.188c1.358-1.762,2.222-4.289,3.529-6.029
				c0.493-0.68-0.27-1.166-0.579-0.624c-1.136,1.905-2.547,5.792-4.088,6.802c-1.256,0.804-0.884-1.035-0.928-1.588
				c-0.055-0.405-0.549-1.002-1.207-0.454c-0.46,0.36-1.176,0.653-1.824,0.594C315.584,167.179,315.267,167.185,315.09,166.52
				L315.09,166.52z"/>
			<path id="_x32_6_1_" class="st3" d="M319.785,162.965c0.014-0.108-0.556-0.157-0.528,0.396c0.02,0.409,0.509,0.52,0.594,0.462
				C320.621,163.263,319.687,163.542,319.785,162.965L319.785,162.965z"/>
			<path id="_x32_5_1_" class="st3" d="M318.665,165.21c-0.151,0.035-0.291,0.52,0.066,0.547c0.327,0.023,1.607-0.114,1.961-0.093
				c0.229-0.009,0.316-0.446-0.174-0.423C319.923,165.271,319.14,165.122,318.665,165.21L318.665,165.21z"/>
			<path id="_x32_4_1_" class="st3" d="M287.685,156.88c0.203,0.009,0.76,0.731,0.723,0.956c-0.025,0.106-0.596-0.016-0.77-0.163
				C287.51,157.564,287.561,156.874,287.685,156.88z M285.001,162.106c-0.509,0.278,0.081,0.825,0.462,0.594
				c1.43-0.926,3.577-1.899,4.026-3.734c0.144-0.621,0.721-1.574,1.27-1.787c0.53-0.205,1.299,0.959,1.802,0.043
				c0.295-0.523,1.327,0.344,1.576-0.216c0.303-0.677,0.159-1.049,0.172-1.697c-0.022-0.424-0.346-0.551-0.582,0.136
				c-0.122,0.311,0.021,0.626-0.079,0.788c-0.076,0.124-0.312,0.243-0.45,0.14c-0.126-0.095-0.039-0.36-0.342-0.477
				c-0.118-0.059-0.306-0.108-0.388,0.043c-0.36,0.642-0.56,1.241-1.064,0.559c-0.449-0.588-0.677-1.604-1.006-0.213
				c-0.118,0.491-0.864,1.203-1.304,1.203c-0.55,0-0.412-1.447-1.619-1.227c-0.62,0.132-0.577,1.32-0.485,1.759
				c0.152,0.61,1.966,0.172,1.876,0.57C288.554,159.974,286.631,161.291,285.001,162.106L285.001,162.106z"/>
			<path id="_x32_3_1_" class="st3" d="M273.65,168.71c-0.077,0.232,0.231,0.861,0.551,0.908c0.314,0.023,0.474-0.68,0.373-0.908
				C274.499,168.542,273.705,168.546,273.65,168.71L273.65,168.71z"/>
			<path id="_x32_2_1_" class="st3" d="M275.315,171.15c-0.201-0.217-0.794,0.365-0.315,0.777c0.27,0.218,1.256,0.535,1.526,0.074
				c0.365-0.592-0.36-2.744-0.039-3.028c0.251-0.222,1.414,1.437,1.988,1.557c1.349,0.187,1.025-2.309,2.478-2.14
				c0.99,0.132,1.099-1.106,0.961-1.878c-0.11-0.742-1.311-1.812-1.863-2.291c-0.727-0.604-1.05,0.446-0.594,0.792
				c0.586,0.47,1.618,1.419,1.782,2.046c0.078,0.296-0.717,0.885-1.009,0.726c-0.676-0.369-1.304-1.949-1.895-2.31
				c-0.201-0.123-0.696,0.155-0.458,0.648c0.268,0.528,1.453,1.347,1.522,1.91c0.063,0.514-0.528,1.626-0.915,1.626
				c-0.427,0-1.514-1.344-1.853-1.976c-0.17-0.303-0.757-0.274-0.819,0.145c-0.098,0.628,0.091,1.956,0.241,2.779
				C276.172,171.386,275.614,171.425,275.315,171.15L275.315,171.15z"/>
			<path id="_x32_1_1_" class="st3" d="M273.28,166.865c-0.169,0.192,0.396,0.567,0.508,0.47c0.218-0.189,1.065-1.154,0.901-1.491
				c-0.145-0.301-1.309-0.96-1.499-0.633c-0.351,0.564,1.097,0.817,0.87,0.983C273.95,166.257,273.551,166.532,273.28,166.865z"/>
			<path id="_x32_0_1_" class="st3" d="M275.365,162.635c0,0,0.364,1.245,0.66,0.726
				C276.265,163.002,275.365,162.635,275.365,162.635z"/>
			<path id="_x31_9_1_" class="st3" d="M275.96,164.615c-0.133,0.073-0.508,0.37-0.264,0.528c0.387,0.229,1.438,0.409,1.211-0.338
				c-0.138-0.44,1.585,0.012,1.165-1.18c-0.11-0.33-0.629-0.806-0.885-0.873c-0.162-0.043-0.714,0.26-0.369,0.427
				c0.252,0.13,1.013,0.577,0.73,0.87c-0.321,0.306-0.544-0.138-0.943-0.066c-0.201,0.038-0.07,0.609-0.183,0.765
				C276.359,164.834,276.069,164.556,275.96,164.615L275.96,164.615z"/>
			<path id="_x31_8_1_" class="st3" d="M278.7,159.885c-0.217,0.109-0.607,0.698-0.621,0.971c-0.008,0.145,0.152,0.346,0.276,0.283
				c0.229-0.114,0.581-0.672,0.594-0.928C278.957,160.049,278.835,159.818,278.7,159.885L278.7,159.885z"/>
			<path id="_x31_7_1_" class="st3" d="M280.12,159.73c-0.419-0.513,0.446-1.275,0.835-0.248c0.235,0.645,2.744,3.946,3.257,5.066
				c0.363,0.758-0.013,1.071-0.462,0.528C282.48,163.455,281.437,161.434,280.12,159.73L280.12,159.73z"/>
			<path id="_x31_6_1_" class="st3" d="M282.695,159.8c0.447-0.485,1.361-1.475,1.115-2.027c-0.189-0.475-0.744-0.428-0.839-0.318
				c-0.543,0.648,0.386,0.485,0.252,0.707c-0.276,0.519-0.552,0.805-0.694,1.304C282.495,159.583,282.614,159.888,282.695,159.8
				L282.695,159.8z"/>
			<path id="_x31_5_1_" class="st3" d="M321.585,161.42c-0.322-0.26,0.316-1.522,0.747-1.027c1.184,1.37,1.734,5.818,2.076,9.147
				c0,0-0.532,0.444-0.536,0.373C323.872,168.14,323.159,162.715,321.585,161.42L321.585,161.42z"/>
			<path id="_x31_4_1_" class="st3" d="M295.035,157.09c-0.383-0.88,0.575-1.206,0.718-0.579c0.665,2.891,2.258,5.08,3.471,7.046
				c0.365,0.615,0.072,0.981-0.815,0.415c-0.615-0.421-1.239-1.958-1.541-2.019c-0.547-0.102-1.857,2.496-4.535,1.755
				c-0.693-0.194-0.647-2.254-0.66-3.164c-0.029-0.426,0.442-0.539,0.458,0.043c0.024,0.839-0.001,2.582,1.072,2.641
				c0.875,0.049,2.813-1.188,3.222-2.155C296.789,160.079,295.449,158.103,295.035,157.09L295.035,157.09z"/>
			<path id="_x31_3_1_" class="st3" d="M322.305,169.19c0.214-0.595,3.057-5.367,3.43-6.417c0.191-0.506,1.007,0.868,0.21,1.61
				c-0.7,0.63-2.766,4.017-3.151,5.204C322.617,170.122,322.079,169.868,322.305,169.19L322.305,169.19z"/>
			<path id="_x31_2_1_" class="st3" d="M327.14,164.64c0.525-1.967,1.797,0.304,0.677,1.424c-1.729,1.694-2.25,4.927-4.994,5.413
				c-0.739,0.159-2.041-0.332-2.427-0.607c-0.15-0.107,0.098-0.809,0.56-0.467c0.668,0.522,2.049,0.64,2.778,0.047
				C325.293,168.92,326.562,166.893,327.14,164.64L327.14,164.64z"/>
			<path id="_x31_1_1_" class="st3" d="M298.635,171.01c-0.124,0.142-0.501,0.119-0.536,0.318c-0.149,0.74,0,1.115-0.163,1.828
				c-0.156,0.682-0.629,0.708-0.597,0.152c0.043-0.721,0.637-1.739,0.217-1.809c-0.28-0.066-0.495-0.44-0.206-0.624
				c0.546-0.379,0.839-0.321,1.214-0.206C298.696,170.708,298.729,170.901,298.635,171.01L298.635,171.01z"/>
			<path id="_x31_0_1_" class="st3" d="M298.25,170.045c-0.724,0.633-1.396,0.892-2.061,1.692c-0.273,0.328-0.265,0.785-0.427,1.203
				c-0.163,0.444-0.687,0.531-0.85,0.438c-0.272-0.179-0.232-1.002-0.536-0.559c-0.257,0.408-0.423,0.97-0.804,0.963
				c-0.344-0.007-0.994-0.711-0.665-0.745c1.126-0.115,1.112-1.017,1.534-1.076c0.473-0.063,0.504,0.744,0.796,0.582
				c0.229-0.118,0.338-1.058,0.587-1.312c0.763-0.78,1.367-1.192,2.146-1.766C298.364,169.153,298.646,169.72,298.25,170.045
				L298.25,170.045z"/>
			<path id="_x39__2_" class="st3" d="M300.89,172.47c-0.579,0.117-0.481,0.862-0.31,0.955c0.281,0.131,0.715,0.186,0.878-0.671
				c0.076-0.352,0.144,1.749,0.915,0.94c0.444-0.49,1.543,0.089,2.004-0.528c0.329-0.411,0.431-0.698,0.174-1.304
				c-0.075-0.185-0.526-0.094-0.5,0.354c0.022,0.378-0.268,0.843-0.645,0.764c-0.184-0.033,0.103-0.923-0.081-1.165
				c-0.102-0.132-0.255-0.118-0.357,0.019c-0.142,0.192,0.142,1.045-0.323,1.158c-0.587,0.136-0.279-0.571-0.528-0.7
				C301.318,171.888,301.241,172.396,300.89,172.47L300.89,172.47z"/>
			<path id="_x38__2_" class="st3" d="M305.415,171.04c0.425-0.119,0.293-0.12,0.961-0.667c0.261-0.197,0.312,0.38,0.285,0.608
				c-0.048,0.388-0.509,0.114-0.652,0.455c-0.209,0.443-0.124,1.474-0.194,1.894c-0.048,0.216-0.394,0.197-0.427,0.027
				c-0.099-0.512,0.07-1.013,0.054-1.653C305.436,171.486,305.125,171.145,305.415,171.04L305.415,171.04z"/>
			<path id="_x37__2_" class="st3" d="M302.915,169.73c-0.103,0.463-0.095,0.845-0.095,1.163c0.023,0.257,0.493,0.091,0.491,0.059
				c-0.023-0.407,0.069-0.969-0.051-1.126C303.195,169.741,302.939,169.643,302.915,169.73z"/>
			<path id="_x36__2_" class="st3" d="M299.77,165.095l-0.729,2.797l-1.014-1.875v1.922l-2.188-2.594l0.761,2.781l-1.966-1.672
				l1.046,1.891l-3.487-2.25l2.219,2.594l-2.79-1.375l1.998,1.688l-4.565-1.719l4.407,2.172c1.611-0.794,3.82-1.281,6.277-1.281
				c2.448,0,4.668,0.492,6.277,1.281c0.006,0.003,0.026-0.003,0.032,0l4.375-2.172l-4.501,1.734l1.965-1.703l-2.758,1.359
				l2.188-2.578l-3.487,2.25l1.046-1.89l-1.966,1.672l0.761-2.781l-2.187,2.609l0.032-1.938l-1.015,1.875L299.77,165.095
				L299.77,165.095z"/>
			<path id="_x35__1_" class="st3" d="M295.91,225.815c0,0.296-0.044,0.725-0.133,1.284h-0.208c0-0.381-0.018-0.674-0.054-0.879
				c-0.033-0.205-0.1-0.449-0.2-0.732c-0.083-0.238-0.173-0.441-0.271-0.608c-0.098-0.17-0.255-0.395-0.472-0.676l0.415-1.023
				c0.192,0.246,0.328,0.434,0.408,0.565c0.091,0.151,0.177,0.342,0.257,0.572c0.083,0.229,0.146,0.47,0.19,0.722
				C295.888,225.291,295.91,225.55,295.91,225.815"/>
			<path id="_x34__1_" class="st3" d="M299.16,223.835c0,0.312-0.059,0.546-0.177,0.702c-0.118,0.156-0.32,0.268-0.605,0.335
				c0.083,0.29,0.137,0.516,0.164,0.679c0.029,0.163,0.043,0.344,0.043,0.545c0,0.129-0.008,0.268-0.023,0.414
				c-0.014,0.148-0.039,0.346-0.077,0.595h-0.187c0-0.223-0.012-0.414-0.037-0.575c-0.022-0.163-0.057-0.315-0.104-0.458
				c-0.011-0.036-0.07-0.193-0.177-0.471c-0.104-0.281-0.21-0.514-0.314-0.699c-0.103-0.187-0.27-0.444-0.505-0.773l0.321-0.963
				c0.169,0.243,0.317,0.411,0.444,0.505c0.127,0.092,0.278,0.138,0.452,0.138c0.379,0,0.568-0.205,0.568-0.615h0.194
				c0,0.134,0.003,0.245,0.01,0.334C299.156,223.614,299.16,223.717,299.16,223.835"/>
			<path id="_x33__1_" class="st3" d="M302.145,226.095l-0.241,1.003c-0.151-0.042-0.275-0.162-0.371-0.358
				c-0.08-0.163-0.138-0.369-0.174-0.618c-0.033-0.25-0.05-0.509-0.05-0.776c-0.203,0.054-0.364,0.081-0.482,0.081
				c-0.234,0-0.428-0.061-0.582-0.184c-0.152-0.125-0.228-0.282-0.228-0.471c0-0.408,0.105-0.775,0.314-1.1
				c0.212-0.328,0.45-0.491,0.715-0.491c0.205,0,0.348,0.058,0.428,0.174c0.089,0.127,0.143,0.271,0.163,0.435
				c0.02,0.163,0.03,0.477,0.03,0.942c0,0.417,0.034,0.712,0.101,0.883C301.824,225.747,301.949,225.908,302.145,226.095
				 M301.242,224.43c-0.041-0.254-0.174-0.381-0.401-0.381c-0.098,0-0.189,0.026-0.271,0.08s-0.124,0.101-0.124,0.141
				c0,0.134,0.16,0.2,0.481,0.2C301.031,224.47,301.135,224.457,301.242,224.43"/>
			<path id="_x32__1_" class="st3" d="M305.305,225.845l-0.12,1.217c-0.239-0.167-0.459-0.469-0.662-0.906
				c-0.212-0.457-0.426-1.105-0.642-1.943c-0.185,0.807-0.338,1.399-0.458,1.775c-0.118,0.374-0.235,0.64-0.351,0.796
				c-0.078,0.105-0.203,0.21-0.375,0.318l0.027-1.164c0.221-0.301,0.375-0.53,0.464-0.689c0.132-0.234,0.24-0.507,0.325-0.819
				c0.087-0.314,0.164-0.734,0.234-1.261h0.221c0.136,0.528,0.268,0.949,0.395,1.261c0.118,0.294,0.256,0.554,0.415,0.779
				C304.888,225.368,305.064,225.58,305.305,225.845"/>
			<path id="_x31__1_" class="st1" d="M314.49,237.325c0.163,0.19,0.277,0.377,0.342,0.561c0.064,0.181,0.11,0.439,0.139,0.776
				l-0.362,0.029c-0.155-0.302-0.305-0.539-0.451-0.71c-0.111-0.131-0.291-0.316-0.539-0.557c-0.249-0.241-0.503-0.475-0.762-0.704
				c-0.261-0.23-0.594-0.497-0.999-0.799c-0.142-0.106-0.231-0.181-0.27-0.226c-0.057-0.066-0.101-0.197-0.134-0.392
				c-0.035-0.197-0.056-0.442-0.065-0.736l1.266,1.03c0.478,0.394,0.873,0.741,1.186,1.042
				C314.082,236.872,314.298,237.101,314.49,237.325 M309.999,234.619l-0.076,0.931l-1.491-0.04l0.112-0.95L309.999,234.619
				 M313.921,238.787l-3.552,1.082l-0.654-0.903l3.071-0.936c-0.14-0.193-0.247-0.327-0.324-0.404
				c-0.119-0.118-0.254-0.21-0.407-0.277c-0.01,0.171-0.081,0.32-0.212,0.45c-0.131,0.129-0.301,0.226-0.509,0.289
				c-0.273,0.083-0.546,0.094-0.819,0.035c-0.273-0.061-0.473-0.179-0.601-0.357c-0.189-0.261-0.29-0.608-0.304-1.042
				c-0.016-0.477,0.115-0.757,0.391-0.841c0.358-0.109,0.843-0.01,1.453,0.299c0.611,0.309,1.08,0.688,1.407,1.141L313.921,238.787
				 M311.193,236.89c-0.167-0.076-0.301-0.123-0.402-0.141c-0.099-0.021-0.189-0.019-0.271,0.006
				c-0.102,0.031-0.173,0.089-0.211,0.174c-0.039,0.085-0.029,0.167,0.029,0.246c0.037,0.051,0.099,0.085,0.186,0.102
				c0.089,0.014,0.183,0.005,0.282-0.025c0.079-0.024,0.147-0.062,0.205-0.115C311.068,237.081,311.13,236.999,311.193,236.89
				 M307.387,236.163l-0.218,0.921l-1.477-0.136l0.225-0.931L307.387,236.163 M310.889,239.761l-0.789,0.181
				c-0.281,0.064-0.548,0.084-0.802,0.059c-0.253-0.025-0.491-0.104-0.711-0.238c-0.13,0.237-0.36,0.437-0.688,0.598
				c-0.217,0.107-0.47,0.193-0.758,0.26l-0.56,0.128l-0.513-0.941l0.56-0.128c0.295-0.068,0.496-0.124,0.603-0.169
				c0.109-0.049,0.247-0.131,0.412-0.246c-0.181-0.112-0.327-0.189-0.438-0.23c-0.135-0.05-0.254-0.063-0.357-0.039
				c-0.039,0.009-0.071,0.026-0.097,0.054c-0.023,0.023-0.042,0.064-0.059,0.122l-0.246,0.033c-0.228-0.417-0.28-0.74-0.156-0.969
				c0.126-0.231,0.429-0.401,0.908-0.512c0.494-0.113,0.917-0.139,1.266-0.076c0.352,0.059,0.588,0.198,0.708,0.417
				c0.064,0.118,0.088,0.239,0.073,0.365c-0.017,0.123-0.078,0.301-0.184,0.532c0.074,0.032,0.16,0.052,0.259,0.058
				c0.099,0.006,0.188,0,0.266-0.019l0.789-0.181L310.889,239.761 M307.117,240.639l-0.77,0.121
				c-0.429,0.067-0.781,0.001-1.057-0.197c-0.307-0.219-0.571-0.626-0.793-1.223l-0.378-1.017c-0.086-0.23-0.203-0.402-0.349-0.515
				c-0.071-0.055-0.214-0.126-0.43-0.216l0.262-0.985c0.283,0.157,0.501,0.322,0.655,0.494c0.179,0.201,0.332,0.469,0.457,0.804
				l0.262,0.703c0.185,0.497,0.365,0.834,0.539,1.01c0.138,0.142,0.295,0.199,0.471,0.171l0.77-0.121L307.117,240.639
				 M303.828,237.107l-0.496,0.874l-1.406-0.325l0.501-0.883L303.828,237.107 M304.646,241.066l-3.506,0.318l-0.213-0.989
				l2.946-0.267c-0.077-0.161-0.181-0.294-0.314-0.397c-0.07-0.058-0.224-0.155-0.462-0.292l0.262-0.905
				c0.325,0.181,0.561,0.379,0.71,0.595c0.153,0.216,0.277,0.545,0.373,0.989L304.646,241.066 M301.832,241.516
				c-0.422-0.014-0.771-0.045-1.046-0.094c-0.276-0.048-0.546-0.12-0.81-0.214c-0.226,0.093-0.427,0.152-0.603,0.178
				c-0.172,0.026-0.429,0.034-0.771,0.022l-0.921-0.031c-0.252-0.008-0.448-0.058-0.588-0.148c-0.14-0.091-0.261-0.236-0.362-0.439
				c-0.223,0.198-0.466,0.337-0.73,0.417c-0.224,0.068-0.489,0.098-0.794,0.087l-0.808-0.026l0.079-0.997l0.808,0.027
				c0.396,0.013,0.73-0.048,1.006-0.184c0.358-0.177,0.551-0.457,0.582-0.841l0.37,0.049c-0.014,0.077-0.028,0.167-0.043,0.267
				c-0.016,0.1-0.028,0.211-0.038,0.333c-0.01,0.125,0.048,0.23,0.173,0.318c0.125,0.087,0.272,0.134,0.442,0.14l0.695,0.023
				c0.46,0.016,0.79-0.015,0.993-0.092c0.245-0.092,0.378-0.275,0.4-0.549c0.004-0.059,0.037-0.11,0.097-0.155
				c0.036-0.026,0.109-0.064,0.219-0.114l0.223-0.103c0.004,0.046,0.004,0.11,0.002,0.191c-0.003,0.079-0.004,0.13-0.006,0.154
				c-0.011,0.135-0.055,0.312-0.133,0.532c0.136,0.049,0.289,0.092,0.46,0.129c0.17,0.037,0.351,0.068,0.542,0.092
				c0.006-0.083-0.032-0.192-0.116-0.327c-0.084-0.135-0.124-0.226-0.12-0.273c0.005-0.063,0.022-0.112,0.051-0.146
				c0.008-0.012,0.053-0.048,0.133-0.109l0.513-0.405c0.089,0.157,0.15,0.3,0.181,0.429c0.036,0.126,0.046,0.283,0.031,0.471
				L301.832,241.516 M296.51,237.42l-0.886,0.627l-0.668-0.412l-0.657,0.49l-0.878-0.53l0.839-0.597l0.709,0.397l0.685-0.501
				L296.51,237.42 M295.117,241.237l-3.433-0.562l0.377-0.968l2.884,0.473c0.023-0.168,0.002-0.316-0.06-0.445
				c-0.031-0.071-0.117-0.199-0.259-0.384l0.769-0.774c0.196,0.246,0.3,0.488,0.312,0.725c0.017,0.237-0.06,0.573-0.228,1.007
				L295.117,241.237 M292.227,240.79l-0.742-0.178c-0.414-0.1-0.65-0.282-0.708-0.546c-0.066-0.293,0.065-0.727,0.395-1.303
				l0.56-0.98c0.127-0.223,0.178-0.407,0.153-0.554c-0.012-0.071-0.068-0.183-0.17-0.335l1.064-0.722
				c0.1,0.233,0.14,0.449,0.119,0.647c-0.024,0.231-0.129,0.509-0.313,0.833l-0.387,0.678c-0.275,0.48-0.415,0.824-0.422,1.033
				c-0.007,0.168,0.074,0.272,0.243,0.313l0.743,0.178L292.227,240.79 M290.469,237.075l-1.205,0.508l-0.828-0.806l1.215-0.513
				L290.469,237.075 M289.957,240.187c-0.251,0.296-0.497,0.518-0.738,0.667c-0.24,0.146-0.509,0.237-0.806,0.273
				c-0.294,0.038-0.667,0.021-1.118-0.051c-0.45-0.068-0.883-0.177-1.299-0.325c-0.803-0.286-1.342-0.602-1.616-0.949
				c-0.273-0.343-0.262-0.688,0.034-1.038c0.253-0.298,0.552-0.546,0.9-0.743c0.382-0.218,0.979-0.466,1.79-0.743l0.183,0.241
				c-0.634,0.246-1.071,0.432-1.311,0.559c-0.237,0.127-0.429,0.278-0.576,0.452c-0.191,0.225-0.162,0.475,0.087,0.751
				c0.254,0.275,0.683,0.52,1.287,0.735c0.595,0.212,1.158,0.317,1.69,0.313c0.532-0.003,0.888-0.111,1.07-0.326
				c0.112-0.133,0.188-0.277,0.226-0.434c0.042-0.156,0.066-0.418,0.075-0.79l1.171-0.713c0,0.354-0.016,0.593-0.05,0.715
				c-0.059,0.222-0.21,0.477-0.453,0.764L289.957,240.187"/>
		</g>
	</g>
</switch>
</svg>