<?xml version="1.0" encoding="utf-8"?>
<svg id="Countryflags.com" width = "200px" height = "125px"
	 xmlns="http://www.w3.org/2000/svg" xmlns:xlink="http://www.w3.org/1999/xlink" x="0px" y="0px" viewBox="300 200 300 200"
	 style="enable-background:new 300 200 300 200;" xml:space="preserve">
<style type="text/css">
	.st0{fill:#FFFFFF;}
	.st1{fill:#006233;}
	.st2{clip-path:url(#SVGID_2_);fill:#D21034;}
	.st3{fill:#D21034;}
</style>
<switch>
	<g>
		<g id="Layer_3">
			<path class="st0" d="M300,200h300v200H300V200z"/>
			<path class="st1" d="M300,200h150v200H300V200z"/>
		</g>
		<g>
			<g>
				<g>
					<defs>
						<path id="SVGID_1_" d="M300,200h300v200H300V200z M462.076,340c22.091,0,40-17.909,40-40c0-22.091-17.909-40-40-40
							s-40,17.909-40,40C422.076,322.091,439.985,340,462.076,340"/>
					</defs>
					<clipPath id="SVGID_2_">
						<use xlink:href="#SVGID_1_"  style="overflow:visible;"/>
					</clipPath>
					<circle class="st2" cx="450" cy="300" r="50"/>
				</g>
			</g>
		</g>
		<g id="Layer_2">
			<path id="o_2_" class="st3" d="M477.951,323.776v-25h-15L477.951,323.776z"/>
			<path id="o_3_" class="st3" d="M477.951,323.776l-14.694-20.225l12.135-8.817L477.951,323.776z"/>
			<path id="o_1_" class="st3" d="M495.225,300l-23.776,7.726l-4.635-14.266L495.225,300z"/>
			<path id="o" class="st3" d="M495.225,300l-23.776-7.725l-4.635,14.266L495.225,300z"/>
			<path id="o_5_" class="st3" d="M477.951,276.223v25h-15L477.951,276.223z"/>
			<path id="o_6_" class="st3" d="M450,314.694l23.776-7.725l-4.635-14.266L450,314.694z"/>
			<path id="o_7_" class="st3" d="M450,314.694l14.694-20.225l12.135,8.817L450,314.694z"/>
			<path id="o_8_" class="st3" d="M450,285.305l14.694,20.226l12.135-8.817L450,285.305z"/>
			<path id="o_9_" class="st3" d="M450,285.305l23.776,7.726l-4.635,14.266L450,285.305z"/>
			<path id="o_4_" class="st3" d="M477.951,276.223l-14.694,20.226l12.135,8.817L477.951,276.223z"/>
		</g>
	</g>
</switch>
</svg>