<?xml version="1.0" encoding="utf-8"?>
<svg id="Countryfags.com" width = "200px" height = "125px"
	 xmlns="http://www.w3.org/2000/svg" xmlns:xlink="http://www.w3.org/1999/xlink" x="0px" y="0px" viewBox="75 50 300 200"
	 enable-background="new 75 50 300 200" xml:space="preserve">
<switch>
	<g>
		<rect id="_x31_2" x="75" y="50" fill="#CE1126" width="300" height="200"/>
		<rect id="_x31_1" x="75" y="150" width="300" height="100"/>
		<path id="_x31_0" fill="#F9D616" d="M207.883,126.437h13.077L225,114l4.04,12.437h13.077l-10.578,7.686l4.04,12.437L225,138.875
			l-10.579,7.686l4.04-12.437L207.883,126.437z"/>
		<path id="_x39_" fill="#F9D616" d="M276.75,144.903c0.334,3.39,0.334,6.804,0,10.194l-9.952-0.98c0.27-2.738,0.27-5.496,0-8.234
			L276.75,144.903 M274.761,165.095c-0.989,3.259-2.295,6.414-3.901,9.418l-8.819-4.714c1.297-2.426,2.352-4.974,3.151-7.607
			L274.761,165.095 M265.197,182.988c-2.161,2.633-4.576,5.048-7.208,7.208l-6.344-7.73c2.126-1.745,4.076-3.695,5.822-5.822
			L265.197,182.988 M249.513,195.86c-3.004,1.606-6.158,2.912-9.418,3.901l-2.902-9.57c2.632-0.798,5.18-1.854,7.606-3.151
			L249.513,195.86 M230.097,201.75c-3.39,0.333-6.805,0.333-10.194,0l0.98-9.952c2.738,0.27,5.496,0.27,8.234,0L230.097,201.75
			 M209.905,199.761c-3.259-0.989-6.414-2.295-9.418-3.901l4.714-8.82c2.426,1.297,4.974,2.353,7.607,3.151L209.905,199.761
			 M240.095,100.239c3.26,0.989,6.414,2.295,9.418,3.901l-4.714,8.819c-2.426-1.297-4.974-2.352-7.606-3.151L240.095,100.239
			 M257.988,109.804c2.633,2.161,5.048,4.575,7.208,7.208l-7.73,6.344c-1.745-2.127-3.695-4.077-5.822-5.822L257.988,109.804
			 M270.86,125.488c1.606,3.004,2.912,6.158,3.901,9.418l-9.569,2.903c-0.799-2.633-1.854-5.18-3.151-7.607L270.86,125.488z"/>
		<path id="_x38_" fill="#F9D616" d="M262.057,199.911l4.862-5.701c2.559,2.477,6.004,4.917,8.503,7.135
			c2.499,2.217,4.414,4.061,5.964,6.581c2.272,3.693-0.279,7.875-3.816,5.42c-1.913-1.328-3.115-4.911-6.044-7.876
			c-2.171-1.848-3.88-3.785-9.335-4.719C261.929,200.706,261.852,200.152,262.057,199.911z"/>
		<path id="_x37_" d="M269.271,198.198c0,0.24-0.128,0.462-0.336,0.582c-0.208,0.12-0.464,0.12-0.672,0
			c-0.208-0.12-0.335-0.342-0.335-0.582c0-0.24,0.128-0.462,0.335-0.582c0.208-0.12,0.464-0.12,0.672,0
			C269.143,197.736,269.271,197.958,269.271,198.198L269.271,198.198z"/>
		<path id="_x36_" fill="#F9D616" d="M230,102.521l-0.95,8.9c19.598,2.056,34.95,18.46,34.95,38.6c0,21.528-17.472,39-39,39
			c-9.387,0-17.868-3.469-24.6-9l-5.7,6.95c8.284,6.801,18.753,11.05,30.3,11.05c26.496,0,48-21.504,48-48
			C273,125.24,254.112,105.06,230,102.521z"/>
		<path id="_x35_" d="M229.241,181.897l13.498,7.981l2.934,11.385l15.494-1.174l6.807-7.982l-25.236-17.488L229.241,181.897z"/>
		<path id="_x34_" fill="#F9D616" d="M261.442,199.126c-17.357-11.543-28.394-17.775-45.028-27.233
			c-6.535-3.716-16.682-13.055-8.678-28.68c0.504,10.258,41.046,38.415,58.177,50.658L261.442,199.126z"/>
		<path id="_x33_" fill="none" stroke="#000000" stroke-linecap="round" d="M219.057,161.68
			c13.364,12.594,30.193,22.868,45.208,34.224"/>
		<path id="_x32_" d="M274.217,202.508c0.001,0.241-0.128,0.462-0.335,0.583c-0.208,0.12-0.464,0.12-0.672,0
			c-0.208-0.12-0.336-0.342-0.335-0.583c-0.001-0.24,0.128-0.462,0.335-0.582c0.208-0.12,0.464-0.12,0.672,0
			C274.089,202.046,274.218,202.268,274.217,202.508L274.217,202.508z"/>
		<path id="_x31_" d="M278.563,206.924c0,0.241-0.128,0.462-0.335,0.582c-0.208,0.121-0.464,0.121-0.672,0
			c-0.208-0.12-0.336-0.341-0.335-0.582c-0.001-0.24,0.128-0.462,0.335-0.582s0.464-0.12,0.672,0
			C278.435,206.462,278.563,206.685,278.563,206.924L278.563,206.924z"/>
	</g>
</switch>
</svg>