<?xml version="1.0" encoding="utf-8"?>
<svg version="1.1" id="Countryflags.com" width = "100%" height = "100%"
	 xmlns="http://www.w3.org/2000/svg" xmlns:xlink="http://www.w3.org/1999/xlink" x="0px" y="0px" viewBox="69.5 646.5 300 200"
	 enable-background="new 69.5 646.5 300 200" xml:space="preserve">
<switch>
	<g>
		<g>
			<rect id="_x32_" x="69.5" y="646.5" fill="#006C35" width="300" height="200"/>
			<path id="_x31_" fill="#FFFFFF" d="M198.812,693.736c-0.155-0.004-0.387,0.082-0.713,0.275c-0.731,0.49-2.18,2-2.225,3.738
				c-0.044,0.98-0.229,0.977,0.413,1.6c0.464,0.669,0.927,0.603,1.862,0.112c0.538-0.396,0.719-0.648,0.9-1.312
				c0.223-1.114-1.172,0.527-1.35-0.713c-0.312-1.151,0.579-1.624,1.425-2.737C199.144,694.174,199.153,693.746,198.812,693.736
				L198.812,693.736z M212.437,693.811c-0.261,0.036-0.581,0.37-1.025,1.175c-0.318,0.843-1.69,2.119-0.7,4.75
				c0.81,1.668,1.143,4.38,0.775,7.4c-0.561,0.859-0.689,1.154-1.425,2.013c-1.034,1.112-2.154,0.827-3.013,0.412
				c-0.803-0.541-1.434-0.819-1.8-2.537c0.066-2.739,0.226-7.223-0.275-8.175c-0.738-1.474-1.955-0.945-2.475-0.5
				c-2.499,2.285-3.733,6.143-4.487,9.212c-0.693,2.237-1.432,1.59-1.95,0.688c-1.263-1.183-1.351-10.433-2.875-8.913
				c-2.441,6.976,1.4,14.618,4.062,13.875c1.92,0.795,3.139-2.86,3.925-6.862c0.538-1.123,0.949-1.252,1.225-0.675
				c-0.071,5.322,0.382,6.509,1.75,8.125c3.053,2.355,5.577,0.298,5.775,0.1c0.198-0.198,2.375-2.375,2.375-2.375
				c0.529-0.556,1.228-0.59,1.975-0.1c0.726,0.66,0.633,1.797,2.188,2.587c1.308,0.523,4.102,0.127,4.75-1
				c0.872-1.495,1.084-2.008,1.487-2.575c0.622-0.828,1.688-0.462,1.688-0.2c-0.099,0.462-0.725,0.918-0.3,1.75
				c0.74,0.555,0.912,0.198,1.35,0.075c1.548-0.74,2.712-4.1,2.712-4.1c0.068-1.253-0.645-1.158-1.1-0.9
				c-0.594,0.363-0.631,0.487-1.225,0.85c-0.757,0.112-2.224,0.612-2.95-0.513c-0.741-1.352-0.746-3.236-1.312-4.6
				c0-0.099-0.991-2.144-0.075-2.275c0.462,0.086,1.455,0.343,1.612-0.487c0.485-0.809-1.046-3.105-2.087-4.263
				c-0.904-0.993-2.153-1.113-3.363-0.1c-0.847,0.779-0.721,1.65-0.887,2.475c-0.216,0.948-0.175,2.122,0.787,3.375
				c0.845,1.667,2.381,3.806,1.875,6.825c0,0-0.893,1.437-2.462,1.25c-0.654-0.143-1.721-0.426-2.288-4.613
				c-0.429-3.169,0.107-7.609-1.237-9.687C213.133,694.514,212.873,693.752,212.437,693.811L212.437,693.811z M208.125,694.147
				c-0.407,0.036-0.857,0.509-1.225,1.425c-0.315,0.696-0.7,4.338-0.637,4.338c-0.252,1.084,1.132,1.543,1.762,0.15
				c0.945-2.554,0.949-3.642,1.013-4.725C208.89,694.51,208.531,694.112,208.125,694.147L208.125,694.147z M224.049,694.435
				c-0.418,0.038-0.75,0.282-0.875,0.9c-0.166,1.452-0.081,2.241,0.163,3.45c0.187,0.806,1.36,2.155,1.938,2.938
				c2.758,3.708,5.412,7.433,7.975,11.287c0.403,2.862,0.698,5.662,0.888,8.45c0.415,6.114,0.541,13.724,0.162,20.163
				c1.145,0.045,2.981-1.85,3.625-4.625c0.419-3.839-0.149-11.672-0.187-13.938c-0.027-0.941-0.085-2.063-0.15-3.237
				c2.981,4.872,5.873,10.033,8.712,15.7c1.035-0.492,0.805-6.319,0.2-7.138c-2.272-4.891-5.412-9.719-6.412-11.575
				c-0.361-0.67-1.592-2.542-3.05-4.7c-0.268-3.079-0.56-5.688-0.75-6.475c-0.469-3.255,1.338,0.367,1.087-1.525
				c-0.586-3.251-2.38-5.46-4.5-8.438c-0.683-0.968-0.67-1.166-1.725,0.237c-0.63,1.431-0.622,2.621-0.437,3.737
				c-0.277-0.403-0.621-0.881-1.113-1.475c-1.83-1.57-1.943-1.656-3.462-2.938C225.658,694.894,224.746,694.371,224.049,694.435
				L224.049,694.435z M271.249,694.922c-0.203-0.032-0.425,0.068-0.675,0.437c-0.477,0.418-0.991,1.176-0.975,2.15
				c0.116,1.715,0.422,3.472,0.538,5.188c0.041,0.23,0.084,0.458,0.125,0.688c-0.184-0.235-0.345-0.419-0.438-0.512
				c-3.344-3.513,1.537-0.574-0.637-3.288c-1.838-2.019-2.376-2.661-3.95-3.875c-0.789-0.51-1.266-1.484-1.525,0.175
				c-0.103,1.458-0.21,3.146-0.113,4.375c-0.005,0.683,0.702,1.968,1.313,2.725c2.231,2.741,4.509,5.657,6.8,8.7
				c0.482,6.206,0.611,11.895,1.1,18.112c-0.069,2.659-0.887,6.191-1.663,6.525c0,0-1.184,0.68-1.975-0.075
				c-0.575-0.231-2.875-3.838-2.875-3.838c-1.177-1.079-1.962-0.771-2.8,0c-2.31,2.23-3.355,6.409-4.925,9.287
				c-0.405,0.642-1.545,1.189-2.812-0.05c-3.22-4.398-1.337-10.659-1.738-9.05c-2.868,3.231-1.598,8.586-0.95,9.737
				c0.945,1.891,1.71,3.102,3.55,4.038c1.675,1.234,2.98,0.464,3.7-0.4c1.686-1.747,1.709-6.216,2.5-7.1
				c0.555-1.624,1.947-1.345,2.625-0.625c0.657,0.946,1.434,1.56,2.4,2.075c1.573,1.388,3.45,1.639,5.3,0.375
				c1.264-0.709,2.085-1.631,2.825-3.45c0.794-2.124,0.402-13.257,0.225-19.45c1.188,1.673,2.36,3.383,3.525,5.112
				c0.511,5.436,0.743,10.791,0.575,15.925c-0.121,1.021,3.563-3.048,3.538-4.975c-0.017-1.686,0.003-3.214,0-4.638
				c1.786,2.852,3.516,5.752,5.15,8.688c1.013-0.537,0.666-6.271,0.025-7.063c-1.711-2.871-3.903-5.974-5.6-8.375
				c-0.336-3.03-0.792-6.605-1-7.7c-0.324-1.708-0.648-4.273-1.138-6.3c-0.134-0.791-0.539-3.32-0.412-3.563
				c0.2-0.566,0.954,0.018,1.325-0.637c0.556-0.606-1.927-7.039-3.188-8.875c-0.453-0.823-1.273-0.538-2.287,0.8
				c-0.941,0.881-0.597,2.889-0.238,4.8c0.933,4.87,1.766,9.829,2.425,14.775c-1.22-1.814-2.709-4.009-4.175-6.125
				c-0.039-0.204-0.187-0.952-0.187-0.963c0-0.088-0.202-3.984-0.375-4.912c-0.03-0.377-0.12-0.486,0.275-0.438
				c0.419,0.352,0.476,0.371,0.737,0.487c0.423,0.077,0.793-0.638,0.538-1.3c-1.308-2.413-2.616-4.837-3.925-7.25
				C271.63,695.117,271.453,694.954,271.249,694.922L271.249,694.922z M149.438,695.047c-0.725-0.021-1.525,0.429-1.213,1.3
				c-0.182,0.475,1.419,2.08,1.7,2.962c0.252,0.628-0.25,2.651,0.275,2.838c0.483,0.209,1.147-1.4,1.4-2.888
				c0.14-0.815,0.034-3.604-1.862-4.175C149.64,695.062,149.541,695.05,149.438,695.047L149.438,695.047z M288.202,695.063
				c-0.165,0.016-0.367,0.283-0.675,0.938c-0.742,1.215-0.997,3.391-0.7,5.312c1.786,12.081,3.113,23.78,3.388,34.488
				c-0.154,1.016-0.198,1.557-0.675,2.838c-1.054,1.351-2.217,3.046-3.313,3.862c-1.095,0.816-3.426,1.595-4.188,2.2
				c-2.418,1.397-2.43,3.004-0.475,3.063c3.368-0.391,7.354-0.668,10.1-4.813c0.734-1.162,1.599-4.311,1.637-6.238
				c0.257-11.299-0.145-22.346-1.837-30.512c-0.109-0.796-0.46-2.624-0.325-2.863c0.218-0.559,1.32,0.056,1.712-0.587
				c0.576-0.588-2.85-4.975-4.05-6.85C288.562,695.429,288.414,695.042,288.202,695.063L288.202,695.063z M252.877,695.251
				c-0.139,0.024-0.345,0.236-0.725,0.737c-0.941,3.077-1.271,5.589-0.912,7.5c2.417,12.613,4.894,24.105,4.5,36.112
				c1.146,0.008,2.471-2.622,3.037-5.225c0.31-3.586-0.207-5.768-0.3-7.875c-0.093-2.107-2.386-19.206-2.85-20.8
				c-0.56-3.015,2.23-0.396,1.925-2.15c-0.964-2.211-3.371-5.429-4.125-7.35C253.144,695.686,253.109,695.21,252.877,695.251
				L252.877,695.251z M166.865,695.488c-0.297,0.051-0.584,0.296-0.687,0.7c-0.066,0.264,0.114,0.704-0.125,0.838
				c-0.138,0.139-0.659,0.045-0.638-0.688c0-0.234-0.171-0.477-0.275-0.625c-0.104-0.068-0.174-0.087-0.362-0.087
				c-0.23,0.009-0.224,0.07-0.35,0.263c-0.056,0.196-0.128,0.388-0.128,0.612c-0.028,0.261-0.133,0.349-0.325,0.388
				c-0.214,0-0.164,0.023-0.337-0.088c-0.103-0.113-0.225-0.157-0.225-0.35c0-0.2-0.052-0.518-0.113-0.65
				c-0.091-0.12-0.235-0.182-0.4-0.225c-0.899,0.004-0.964,1.036-0.912,1.425c-0.067,0.073-0.101,1.904,1.125,2.412
				c1.645,0.785,4.731,0.453,4.6-2.2c0-0.234-0.052-1.023-0.075-1.237c-0.168-0.391-0.478-0.539-0.775-0.487L166.865,695.488z
				 M188.94,695.513c-0.569,0.029-1.071,0.192-1.5,0.412c-1.091,1.044-1.346,2.718-0.487,3.763c0.836,0.395,1.67,1.236,1.112,1.7
				c-2.363,2.524-8.515,6.743-8.825,7.512c-0.003,0.006-0.011,0.02-0.013,0.025c-0.001,0.005,0,0.02,0,0.025c0,0.002,0,0.01,0,0.013
				c0.002,0.006,0.008,0.02,0.013,0.025c0.002,0.002,0.011,0.011,0.012,0.013c0.002,0.001,0.011-0.001,0.012,0
				c0.003,0.001,0.01,0.012,0.013,0.012c0.003,0.001,0.009-0.001,0.012,0c0.001,0.001,0.012,0.012,0.013,0.013
				c0.312,0.21,4.162,0.205,4.587,0.013c0.004-0.002,0.01-0.011,0.013-0.013c0.001-0.001,0.012,0.001,0.012,0
				c0.001-0.001-0.001-0.012,0-0.013c1.323-0.487,7.6-7.662,7.6-7.662c-0.325-0.279-0.625-0.484-0.95-0.763
				c-0.348-0.302-0.313-0.598,0-0.9c1.555-0.905,1.062-2.895,0.25-3.8C190.142,695.586,189.509,695.484,188.94,695.513
				L188.94,695.513z M246.64,695.538c-0.165,0.016-0.366,0.271-0.675,0.925c-0.742,1.215-1.246,3.331-1.187,5.312
				c1.607,11.126,2.1,20.862,3.15,31.988c0.086,1.076-0.072,2.639-0.788,3.263c-2.646,2.762-6.461,6.169-10.612,7.737
				c-0.447,0.502,1.111,2.639,3.125,2.638c3.368-0.391,6.329-2.282,9.075-7.263c0.734-1.161,2.025-3.648,2.062-5.575
				c0.257-11.299-0.57-20.084-2.262-28.25c-0.109-0.796-0.035-1.736,0.1-1.975c0.218-0.261,0.957,0.006,1.35-0.637
				c0.575-0.588-1.538-5.462-2.738-7.338C247.001,695.892,246.853,695.517,246.64,695.538L246.64,695.538z M157.252,695.878
				c-0.465,0.054-0.902,0.433-1.113,0.938c-0.078,1.784-0.088,3.568,0.113,5.212c0.812,2.884,1.069,5.421,1.462,8.375
				c0.109,3.957-2.285,1.712-2.175-0.25c0.553-2.548,0.404-6.558-0.087-7.575c-0.389-1.016-0.841-1.268-1.788-1.1
				c-0.752-0.046-2.695,2.071-3.237,5.575c0,0-0.452,1.799-0.65,3.4c-0.266,1.81-1.465,3.092-2.3-0.25
				c-0.722-2.429-1.166-8.412-2.375-7.012c-0.346,4.672-0.758,12.894,3.212,13.738c4.802,0.462,2.149-8.118,3.888-9.675
				c0.329-0.77,0.937-0.783,0.987,0.188v7.288c-0.044,2.369,1.515,3.073,2.725,3.563c1.259-0.097,2.094-0.063,2.588,1.162
				c0.197,4.201,0.403,8.412,0.6,12.613c0,0,2.911,0.837,3.05-7.088c0.139-4.653-0.927-8.557-0.3-9.463
				c0.022-0.889,1.162-0.933,1.95-0.5c1.255,0.886,1.812,1.975,3.762,1.537c2.968-0.818,4.756-2.258,4.8-4.537
				c-0.173-2.166-0.424-4.334-1.362-6.5c0.131-0.394-0.568-1.419-0.438-1.813c0.533,0.836,1.34,0.766,1.525,0
				c-0.505-1.665-1.292-3.26-2.562-3.95c-1.05-0.925-2.587-0.73-3.15,1.2c-0.261,2.223,0.806,4.859,2.425,7.013
				c0.344,0.841,0.825,2.241,0.612,3.5c-0.862,0.491-1.716,0.287-2.437-0.475c0,0-2.363-1.769-2.363-2.163
				c0.627-4.014,0.135-4.474-0.212-5.587c-0.243-1.538-0.971-2.025-1.563-3.075c-0.591-0.627-1.393-0.627-1.775,0
				c-1.044,1.81-0.554,5.696,0.2,7.438c0.545,1.601,1.381,2.6,0.988,2.6c-0.324,0.905-1,0.694-1.488-0.35
				c-0.696-2.158-0.837-5.375-0.837-6.825c-0.209-1.798-0.442-5.638-1.625-6.612C157.987,695.986,157.614,695.836,157.252,695.878
				L157.252,695.878z M174.115,695.903c-0.238,0.03-0.502,0.166-0.812,0.237c-1.021,0.325-1.977,1.207-1.675,2.925
				c1.207,7.333,1.993,12.929,3.2,20.262c0.185,0.859-0.534,1.991-1.463,1.875c-1.578-1.068-1.97-3.23-4.662-3.137
				c-1.949,0.023-4.172,2.144-4.45,4.187c-0.325,1.623-0.441,3.384,0,4.8c1.37,1.647,3.011,1.472,4.45,1.1
				c1.183-0.487,2.157-1.653,2.575-1.375c0.001,0.001,0.011-0.002,0.012,0c0.001,0.002-0.001,0.011,0,0.013
				c0.258,0.451-0.024,4.265-5.575,7.212c-3.411,1.532-6.126,1.898-7.588-0.887c-0.905-1.741,0.066-8.37-2.162-6.838
				c-6.59,16.987,15.439,19.358,17.9,0.7c0.159-0.526,0.645-1.054,0.987-0.925c0.15,0.064,0.288,0.268,0.338,0.65
				c-0.511,16.894-17.042,18.052-19.85,12.738c-0.696-1.253-0.905-4.042-0.975-5.713c-0.127-1.011-0.381-1.594-0.675-1.825
				c-0.67-0.504-1.57,0.809-1.763,3.088c-0.279,1.833-0.2,2.336-0.2,4.1c0.882,13.344,22.155,7.611,25.613-3.413
				c1.711-5.698-0.035-9.997,0.537-10.525c0.005-0.004,0.02-0.009,0.025-0.012c0.005-0.003,0.019-0.01,0.025-0.012
				c0.006-0.003,0.019-0.011,0.025-0.013c0.02-0.005,0.052-0.013,0.075-0.013c2.112,2.275,5.075,0.289,5.725-0.5
				c0.279-0.395,0.975-0.648,1.463-0.138c1.647,1.184,4.534,0.626,5.137-1.462c0.348-2.042,0.643-4.145,0.713-6.325
				c-1.073,0.333-1.939,0.583-2.288,0.95c-0.083,0.091-0.144,0.191-0.162,0.3c-0.093,0.604-0.182,1.209-0.275,1.813
				c-0.01,0.05-0.026,0.096-0.05,0.138c-0.046,0.074-0.122,0.143-0.2,0.187c-0.379,0.207-1.041,0.089-1.075-0.462
				c-0.511-2.321-2.611-2.622-3.888,0.975c-0.859,0.696-2.425,0.832-2.587-0.213c0.209-2.413-0.764-2.737-2.713-1.6
				c-0.627-4.78-1.248-9.344-1.875-14.125c0.812-0.023,1.557,0.566,2.3-0.362c-0.804-2.5-2.504-7.585-3.462-8.063
				c-0.008-0.003-0.018-0.01-0.025-0.012c-0.044-0.052-0.095-0.1-0.138-0.138c-0.018-0.015-0.045-0.037-0.062-0.05
				c-0.018-0.012-0.045-0.027-0.063-0.037c-0.039-0.021-0.087-0.038-0.125-0.05C174.289,695.904,174.205,695.892,174.115,695.903
				L174.115,695.903z M239.851,695.94c-0.843-0.025-1.776,0.506-1.413,1.562c-0.212,0.576,1.811,2.531,2.138,3.6
				c0.587,1.643-0.448,3.211,0.162,3.438c0.562,0.254,1.344-1.696,1.638-3.5c0.339-1.458-0.701-4.446-2.175-5.063
				C240.087,695.951,239.971,695.944,239.851,695.94L239.851,695.94z M188.639,697.74c0.384-0.039,0.848,0.314,1.075,0.812
				c0.242,0.532,0.121,1.041-0.275,1.138c-0.396,0.097-0.908-0.255-1.15-0.788c-0.242-0.532-0.121-1.053,0.275-1.15
				C188.588,697.747,188.613,697.743,188.639,697.74z M283.639,700.203c-0.769-0.027-1.606,0.557-1.275,1.7
				c-0.193,0.624,1.64,2.742,1.938,3.9c0.267,0.824-0.407,3.48,0.15,3.725c0.512,0.275,1.233-1.835,1.5-3.787
				c0.148-1.069-0.644-4.82-1.988-5.488C283.86,700.224,283.748,700.206,283.639,700.203L283.639,700.203z M231.114,701.503
				c0.07,0.313,0.141,0.629,0.187,0.95c0.158,0.693,0.293,1.381,0.438,2.063c-0.607-0.836-1.109-1.511-1.325-1.75
				C229.042,701.134,230.446,701.694,231.114,701.503L231.114,701.503z M243.214,707.453c-0.297,0.052-0.584,0.309-0.688,0.713
				c-0.065,0.264,0.127,0.692-0.112,0.825c-0.138,0.139-0.672,0.058-0.65-0.675c0-0.234-0.171-0.49-0.275-0.638
				c-0.104-0.068-0.174-0.087-0.363-0.087c-0.229,0.009-0.224,0.07-0.35,0.263c-0.053,0.196-0.125,0.39-0.125,0.612
				c-0.029,0.261-0.12,0.349-0.312,0.388c-0.214,0-0.176,0.023-0.35-0.088c-0.103-0.113-0.225-0.157-0.225-0.35
				c0-0.2-0.052-0.518-0.113-0.65c-0.091-0.12-0.235-0.17-0.4-0.213c-0.898,0.003-0.952,1.023-0.9,1.413
				c-0.067,0.073-0.113,1.916,1.113,2.425c1.645,0.784,4.743,0.44,4.612-2.213c0-0.235-0.064-1.023-0.087-1.237
				C243.821,707.549,243.511,707.401,243.214,707.453L243.214,707.453z M187.967,708.003c-0.203-0.021-0.469,0.054-0.775,0.238
				c-1.455,0.787-2.018,3.121-1.112,4.487c0.846,1.203,2.184,0.763,2.362,0.763c1.425,0.178,2.275-2.675,2.275-2.675
				s0.043-0.802-1.65,0.712c-0.712,0.134-0.809-0.124-0.987-0.525c-0.148-0.742-0.117-1.495,0.225-2.237
				C188.462,708.32,188.305,708.037,187.967,708.003L187.967,708.003z M266.067,708.365c-0.808-0.039-1.668,0.484-1.888,1.587
				c0.004,0.651,0.294,1.009,0.237,1.6c-0.084,0.338-0.432,0.56-1.262,0.163c0.13-0.12-0.538-1.063-0.538-1.063
				c-0.647-0.394-1.512,0.021-2.075,0.388c-0.309,0.563-0.539,1.528-0.187,2.512c0.929,1.717,4.117,4.647,5.638,4.675
				c0.028-1.548,0.179-3.607,0.263-4.888c0.036-0.483,0.149-1.016,0.612-1.138c0.463-0.121,1.266,0.466,1.275-0.037
				c-0.084-0.985-0.281-2.438-0.837-3.125C267.019,708.618,266.551,708.389,266.067,708.365L266.067,708.365z M201.419,713.753
				c-0.021,0.008-0.043,0.026-0.063,0.038c-0.01,0.006-0.028,0.018-0.037,0.025c-0.161,0.121-0.351,0.4-0.775,0.7
				c-0.716,0.814-0.844,1.381-0.8,3.013c0.041,0.173,1.359,3.837,2.475,6.413c0.753,2.677,1.449,5.742,0.937,8.637
				c-1.762,3.827-5.305,7.26-8.725,9.125c-1.742,0.558-3.247,0.368-3.65-0.012c-0.003-0.004-0.009-0.01-0.012-0.013
				c-1-0.673-1.023-1.87-0.963-2.075c0-0.001,0-0.011,0-0.013c0.003-0.002,0.011-0.011,0.013-0.013
				c2.886-2.01,6.182-3.637,8.762-9.063c0.762-2.073,0.995-3.319,0.238-6.525c-0.295-1.195-0.66-2.178-1.475-3.025
				c0.002-0.003,0.011-0.01,0.012-0.012c0.491-0.235,1.766,0.703,1.963,0.112c-0.302-1.531-1.338-3.586-2.513-4.638
				c-1.028-0.934-2.146-1.042-3.087-0.187c-1.06,0.59-1.286,2.709-0.775,4.562c0.567,1.396,2.097,1.641,3.187,4.45
				c0,0.003,0,0.012,0,0.013c0.023,0.176,0.374,2.097-0.175,2.875c-0.446,1.39-6.17,5.904-6.575,6.175
				c-0.004,0.004-0.033,0.021-0.037,0.025c-0.003,0.002-0.011,0.01-0.013,0.012c-0.001,0.001-0.01,0.01-0.012,0.013
				c-0.001,0.002-0.011,0.011-0.013,0.012c-0.001,0-0.011,0-0.012,0c-0.001,0-0.01,0-0.013,0c-0.002-0.002-0.01-0.01-0.012-0.012
				c0-0.001,0-0.011,0-0.013c-0.002-0.004-0.01-0.02-0.013-0.025c-0.017-0.112,0.013-0.4,0-0.862
				c-0.037-0.846,0.313-2.759,0.288-3.088c0-0.001,0-0.011,0-0.012c-0.002-0.003-0.01-0.011-0.013-0.013c0-0.002,0-0.011,0-0.013
				c-0.003,0-0.012,0-0.012,0c-1.892,1.221-2.517,4.966-2.863,6.075c-4.79,3.31-10.229,5.772-13.362,9.125
				c-1.632,2.548,11.241-2.926,12.737-3.587c0.013,0.009,0.026,0.025,0.038,0.037c0.284,0.313,0.309,1.404,1.162,2.388
				c1.338,1.812,4.182,2.929,6.95,2.237c4.641-1.678,7.315-4.841,10.038-8.35c0.389-0.566,0.999-1.012,1.562-0.575
				c1.871,4.188,7.264,7.168,14.238,7.475c1.614-1.962,0.842-2.927,0.187-3.337c-0.202-0.134-3.468-1.407-3.975-2.675
				c-0.319-1.18,0.457-2.226,2.013-3.013c4.477-0.541,8.879-1.143,13.137-2.512c0.043-1.431,0.886-3.571,1.45-4.5
				c0.392-0.645,0.643-0.709,0.738-0.8c0.003-0.003,0.01-0.009,0.012-0.013c0.001-0.002,0.011-0.01,0.013-0.012
				c0.002-0.002,0.01-0.01,0.012-0.013c0-0.004,0-0.02,0-0.025c0.002-0.028,0-0.077-0.012-0.125l-0.725-0.425l-14.288-0.063
				c-0.177-0.068-0.308-0.136-0.387-0.2c-0.006-0.005-0.02-0.02-0.025-0.025c-0.002-0.002-0.01-0.01-0.013-0.013
				c-0.002-0.002-0.011-0.01-0.012-0.013c-0.002-0.004-0.011-0.02-0.013-0.025c-0.001-0.001-0.011-0.011-0.012-0.013
				c0-0.001,0-0.011,0-0.012c-0.001-0.002-0.011-0.011-0.013-0.013c0-0.002,0-0.011,0-0.013c0-0.001,0-0.011,0-0.013
				s0-0.011,0-0.013c0-0.002,0-0.011,0-0.013c0-0.001,0-0.01,0-0.012c0-0.001,0-0.011,0-0.013s0-0.011,0-0.013s0-0.011,0-0.013
				c0.002-0.002,0.01-0.01,0.013-0.012c0.003-0.007,0.008-0.018,0.012-0.025c0.07-0.094,0.239-0.182,0.45-0.263
				c3.412-0.465,9.473-1.459,9.875-7.287c-0.063-3.036-1.3-5.025-5.025-5.575c-2.737,0.212-4.69,2.86-4.375,5.775
				c-0.131,0.785,0.266,2.325-0.538,2.5c-5.251,0.48-10.982,3.77-11.175,6.125c-0.001,0-0.011,0-0.013,0
				c-0.002,0.002-0.01,0.01-0.012,0.013c-0.004,0.002-0.018,0.009-0.025,0.013c-0.004,0-0.021,0-0.025,0
				c-0.008,0.003-0.029,0.01-0.038,0.012c-0.002,0-0.009,0-0.012,0c-0.007,0-0.02,0-0.025,0c-0.002,0-0.009,0-0.013,0
				c-0.005,0-0.021,0-0.025,0c-0.013-0.003-0.038-0.009-0.05-0.012c-0.341-0.095-0.781-0.659-0.712-1.45
				c-0.2-4.071-1.525-8.677-3.6-12.225c-0.74-0.741-1.063-1.041-1.275-1.075c-0.007-0.001-0.018,0-0.025,0c-0.009,0-0.026,0-0.038,0
				c-0.002,0-0.011,0-0.012,0c-0.001,0-0.011,0-0.012,0C201.43,713.754,201.421,713.753,201.419,713.753L201.419,713.753z
				 M215.094,715.903c-0.297,0.052-0.584,0.296-0.688,0.7c-0.065,0.264,0.127,0.705-0.112,0.838
				c-0.138,0.139-0.672,0.058-0.65-0.675c0-0.233-0.171-0.489-0.275-0.638c-0.104-0.068-0.162-0.087-0.35-0.087
				c-0.229,0.009-0.237,0.07-0.363,0.262c-0.053,0.196-0.125,0.39-0.125,0.613c-0.028,0.261-0.121,0.349-0.312,0.387
				c-0.214,0-0.164,0.023-0.338-0.087c-0.103-0.113-0.237-0.157-0.237-0.35c0-0.2-0.04-0.518-0.1-0.65
				c-0.091-0.12-0.248-0.17-0.413-0.213c-0.899,0.003-0.952,1.023-0.9,1.413c-0.067,0.073-0.113,1.916,1.113,2.425
				c1.645,0.785,5.566,0.323,4.612-2.213c0-0.235-0.064-1.023-0.087-1.237C215.701,715.999,215.39,715.851,215.094,715.903
				L215.094,715.903z M270.281,718.165c-0.041-0.007-0.089-0.005-0.137,0.012c0,0-7.623,5.423-7.812,5.613
				c-0.756,0.672-0.378,3.036,0,2.762c0.546,0.21,8.221-4.991,8.075-5.6C270.742,720.972,270.902,718.277,270.281,718.165
				L270.281,718.165z M222.298,718.969c0.311-0.033,0.72,0.073,1.112,0.3c0.569,0.329,0.92,0.827,0.875,1.188
				c-0.002,0.01,0.002,0.028,0,0.037c-0.002,0.01-0.022,0.029-0.025,0.038c-0.003,0.009-0.009,0.029-0.012,0.037
				c-0.002,0.006-0.009,0.019-0.013,0.025c-0.003,0.006-0.009,0.02-0.012,0.025c-0.019,0.031-0.05,0.063-0.075,0.088
				c-0.274,0.255-0.905,0.219-1.5-0.125c-0.564-0.326-0.912-0.827-0.875-1.188c0.001-0.01,0.011-0.028,0.012-0.037
				c0.01-0.045,0.027-0.086,0.05-0.125c0.008-0.014,0.016-0.037,0.025-0.05c0.002-0.002,0.011-0.01,0.013-0.013
				c0.017-0.019,0.042-0.046,0.062-0.062C222.026,719.036,222.155,718.984,222.298,718.969L222.298,718.969z M155.534,720.344
				c-3.95,0.072-9.735,5.178-9.888,8.013c4.168-2.002,8.263-3.929,12.5-6C157.462,721.336,158.105,720.416,155.534,720.344
				L155.534,720.344z M168.334,722.119c0.387,0.005,0.796,0.196,1.012,0.738c0.195,0.497,0.009,1.017-0.225,1.275
				c-0.001,0.002,0.001,0.011,0,0.013c-0.004,0.006-0.009,0.02-0.012,0.025c-0.166,0.214-0.748,0.125-1.163,0.125
				c-0.502-0.022-0.749-0.104-1.05-0.512c-0.144-0.453,0.294-0.899,0.488-1.238c0.002-0.003,0.011-0.009,0.012-0.012
				c0.021-0.031,0.055-0.069,0.088-0.1c0.15-0.137,0.409-0.266,0.687-0.3C168.225,722.125,168.278,722.119,168.334,722.119
				L168.334,722.119z M268.798,723.692c-0.702,0.086-1.37,0.751-1.063,1.812c-0.193,0.623,0.953,2.804,1.25,3.963
				c0.268,0.824-0.344,3.155,0.213,3.4c0.512,0.274,1.86-1.384,1.813-3.463c0.148-1.069-0.381-5.007-1.725-5.675
				C269.131,723.686,268.96,723.671,268.798,723.692L268.798,723.692z M183.474,727.542c-0.621,0.043-1.175,0.375-0.925,1.25
				c-0.038,0.634,1.754,1.406,1.862,2.875c0.256,0.605-0.383,2.544,0.15,2.725c0.489,0.202,1.169-1.341,1.425-2.775
				c0.142-0.786-0.614-3.534-1.9-4.025C183.889,727.549,183.681,727.527,183.474,727.542L183.474,727.542z M209.011,731.029
				c0.047-0.003,0.089,0,0.138,0c0.008,0,0.017,0,0.025,0c1.592,0.432,3.938,0.477,5.975,0.688c1.659,0.105,2.479,1.404,0.925,1.95
				c-1.533,0.525-3.006,0.935-3.013,3.15c0.202,1.097,0.159,1.673-0.012,1.938c-0.014,0.02-0.035,0.046-0.05,0.063
				c-0.002,0.002-0.011,0.01-0.013,0.013c-0.002,0.002-0.01,0.01-0.012,0.013c-0.002,0.002-0.01,0.011-0.013,0.013l-0.012,0.013
				c-0.004,0.002-0.021,0.01-0.025,0.012c-0.022,0.014-0.051,0.029-0.075,0.038c-0.021,0.007-0.052,0.009-0.075,0.012
				c-0.364,0.054-0.894-0.294-1.288-0.5c-0.945-0.678-3.597-2.322-3.975-5.85C207.458,731.783,208.054,731.096,209.011,731.029
				L209.011,731.029z M146.635,733.742c-0.1,0.003-0.298,0.3-0.563,0.637c-2.35,3.744-2.559,9.332-1.262,11
				c0.689,0.788,1.825,1.134,2.662,0.888c1.477-0.64,2.125-3.631,1.775-4.725c-0.493-0.771-0.883-0.893-1.375-0.238
				c-1.039,2.109-1.471,0.666-1.562-0.512c-0.159-2.236,0.057-4.294,0.3-5.925C146.74,734.031,146.735,733.739,146.635,733.742
				L146.635,733.742z M226.699,738.658c-0.175-0.009-0.361,0.018-0.55,0.113c-0.037,0-1.682,1.112-2.212,1.887
				c-0.323,0.246-0.287,0.46-0.188,0.888c0.252,0.579,0.696,0.397,1.2,0.125c0.669-0.091,0.992,0.347,0.938,1.15
				c-0.309,1.001,0.137,1.375,0.137,1.438c0,0.063,0.644,0.616,1.4,0.175c1.596-0.609,2.59-1.202,4.825-1.688
				c0.587-0.012,0.553-1.582-0.375-1.638c-1.21,0.061-2.327,0.123-3.538,1.075c-0.745,0.172-0.872-0.281-1.037-0.688
				c-0.189-1.009,0.426-1.719,0.3-2.475C227.633,739.053,227.223,738.686,226.699,738.658L226.699,738.658z M277.963,740.57
				c-0.297,0.009-0.609,0.05-1.063,0.087c-0.49,0.104-0.661,0.318-0.75,0.913c0.035,0.9,0.586,0.856,1.15,1.212
				c0.327,0.416,0.539,0.792-0.025,1.475c-0.534,0.49-0.915,0.76-1.45,1.25c-0.252,0.431-0.409,1.092,0.362,1.3
				c1.426,0.401,4.725-1.743,4.725-1.788c0.534-0.401,0.357-1.162,0.313-1.162c-0.312-0.356-1.015-0.142-1.488-0.2
				c-0.225,0-0.964-0.109-0.612-0.762c0.293-0.407,0.401-0.65,0.6-1.15c0.223-0.49,0.027-0.82-0.775-1.088
				C278.542,740.583,278.26,740.561,277.963,740.57L277.963,740.57z M256.547,783.93c-0.003,0.002-0.009,0.011-0.013,0.013
				c-2.371,0.609-2.297,3.07-0.775,4.15c-25.037,0-63.46-0.425-71.7-0.425c-4.61,0-19.195-0.55-19.475-0.55
				c3.128,4.575,7.659,5.506,13.588,5.6c11.121,0,62.648-0.138,77.312-0.138c-1.043,1.851,0.095,4.83,0.912,5.375
				c0.017,0.011,0.045,0.029,0.063,0.037c0.03,0.015,0.071,0.03,0.1,0.037c0.01,0.003,0.028-0.001,0.037,0
				c0.971,0.229,1.398-0.474,1.725-0.988c1.575,0.139,10.439,0.267,11.25-0.012c0.003-0.001,0.01-0.011,0.013-0.012
				c0.548,0.807,1.093,1.57,2.137,1.438c1.827-0.392,3.267-0.591,3.313-4.3c0,0-0.187-6.321-4.338-5.925
				c-0.982,0.148-3.737,0.425-3.737,0.425c-3.189-0.379-5.527-0.418-9.112-0.55c0.331-0.42,0.915-2.121,0.2-2.737
				c-0.187-0.155-0.465-0.241-0.85-0.213c-0.003,0-0.01,0-0.012,0c-0.005,0-0.02,0.001-0.025,0c-0.003-0.001-0.01-0.012-0.013-0.013
				c-0.011-0.003-0.028-0.006-0.037-0.012c-0.02-0.013-0.045-0.041-0.063-0.063c-0.004-0.005-0.021-0.019-0.025-0.025
				c-0.181-0.264-0.28-0.911-0.4-1.075c-0.002-0.002-0.011-0.011-0.012-0.012c-0.002-0.001-0.011-0.011-0.013-0.013
				c-0.004-0.003-0.021-0.011-0.025-0.013c-0.002,0-0.011,0-0.012,0C256.558,783.931,256.548,783.93,256.547,783.93L256.547,783.93z
				 M258.247,792.967c0.005-0.002,0.008,0.002,0.012,0c3.653,0.178,7.085,0.034,10.738,0.212c0.579,0.492,0.289,1.62-0.088,1.825
				c-0.017,0.009-0.046,0.021-0.062,0.025c-0.014,0.004-0.036,0-0.05,0c-0.014,0-0.036,0.004-0.05,0
				c-1.188-0.03-1.875-0.057-3.063-0.088c-0.002-0.059-0.009-0.123-0.025-0.175c-0.282-0.834-2.32-0.778-2.8-0.125
				c-0.007,0.009-0.019,0.028-0.025,0.037c-0.008,0.013-0.019,0.037-0.025,0.05c-0.008,0.017-0.02,0.045-0.025,0.062
				c-0.008,0.025-0.009,0.062-0.012,0.088c-0.004,0.03-0.015,0.069-0.013,0.1c-1.604,0.193-3.046-0.053-4.65-0.113
				C257.639,794.282,257.694,793.222,258.247,792.967L258.247,792.967z"/>
		</g>
	</g>
</switch>
</svg>