<?xml version="1.0" encoding="utf-8"?>
<svg version="1.1" id="Countryflags.com" width = "100%" height = "100%"
	 xmlns="http://www.w3.org/2000/svg" xmlns:xlink="http://www.w3.org/1999/xlink" x="0px" y="0px" viewBox="294.5 696.5 300 150"
	 enable-background="new 294.5 696.5 300 150" xml:space="preserve">
<switch>
	<g>
		<g>
			<rect id="_x39_" x="294.5" y="696.5" fill="#215B33" width="300" height="150"/>
			<path id="_x38_" fill="#0051BA" d="M294.5,846.5v-150h300"/>
			<g id="Group_1">
				<defs>
					<rect id="_x36_" x="294.5" y="696.5" width="300" height="150"/>
				</defs>
				<clipPath id="_x36__1_">
					<use xlink:href="#_x36_"  overflow="visible"/>
				</clipPath>
				<path id="_x37_" clip-path="url(#_x36__1_)" fill="none" stroke="#FCD116" stroke-width="15" d="M594.5,696.5l-300,150"/>
			</g>
			<polygon id="_x35_" fill="#FFFFFF" points="303.123,711.484 311.939,717.89 308.572,728.255 317.389,721.849 326.205,728.255 
				322.838,717.89 331.655,711.484 320.756,711.484 317.389,701.12 314.021,711.484 			"/>
			<polygon id="_x34_" fill="#FFFFFF" points="362.346,711.484 371.163,717.89 367.795,728.255 376.612,721.849 385.428,728.255 
				382.061,717.89 390.878,711.484 379.98,711.484 376.612,701.12 373.244,711.484 			"/>
			<polygon id="_x33_" fill="#FFFFFF" points="332.734,736.865 341.551,743.27 338.183,753.635 347,747.229 355.817,753.635 
				352.449,743.27 361.266,736.865 350.368,736.865 347,726.5 343.633,736.865 			"/>
			<polygon id="_x32_" fill="#FFFFFF" points="303.123,762.245 311.939,768.651 308.572,779.015 317.389,772.61 326.205,779.015 
				322.838,768.651 331.655,762.245 320.756,762.245 317.389,751.88 314.021,762.245 			"/>
			<polygon id="_x31_" fill="#FFFFFF" points="362.346,762.245 371.163,768.651 367.795,779.015 376.612,772.61 385.428,779.015 
				382.061,768.651 390.878,762.245 379.98,762.245 376.612,751.88 373.244,762.245 			"/>
		</g>
	</g>
</switch>
</svg>