<?xml version="1.0" encoding="utf-8"?>
<svg version="1.1" id="Countryflags.com" width = "100%" height = "100%"
	 xmlns="http://www.w3.org/2000/svg" xmlns:xlink="http://www.w3.org/1999/xlink" x="0px" y="0px" viewBox="144.5 696.5 300 200"
	 enable-background="new 144.5 696.5 300 200" xml:space="preserve">
<switch>
	<g>
		<g>
			<rect id="_x31_5" x="144.5" y="696.5" fill="#FFFFFF" width="300" height="200"/>
			<rect id="_x31_4" x="144.5" y="696.5" width="300" height="60"/>
			<rect id="_x31_3" x="144.5" y="836.5" fill="#006600" width="300" height="60"/>
			<path id="_x31_2" stroke="#000000" stroke-width="0.3333" stroke-miterlimit="10" d="M258.777,855.875l2.165,1.25l58.391-101.136
				c3.415-0.915,5.29-4.163,7.165-7.41c1.25-2.165,6.25-10.826,8.417-22.079c-8.662,7.503-13.662,16.163-14.912,18.329
				c-1.875,3.247-3.75,6.495-2.835,9.91L258.777,855.875z"/>
			<path id="_x31_1" fill="#FFFFFF" d="M258.777,855.875l2.165,1.25l58.391-101.136c3.415-0.915,5.29-4.163,7.165-7.41
				c1.25-2.165,6.25-10.826,8.417-22.079c-8.662,7.503-13.662,16.163-14.912,18.329c-1.875,3.247-3.75,6.495-2.835,9.91
				L258.777,855.875z"/>
			<path id="_x31_0" stroke="#000000" stroke-width="0.3333" stroke-miterlimit="10" d="M330.224,855.875l-2.165,1.25
				l-58.391-101.136c-3.415-0.915-5.29-4.163-7.165-7.41c-1.25-2.165-6.25-10.826-8.417-22.079
				c8.662,7.503,13.662,16.163,14.912,18.329c1.875,3.247,3.75,6.495,2.835,9.91L330.224,855.875z"/>
			<path id="_x39_" fill="#FFFFFF" d="M330.224,855.875l-2.165,1.25l-58.391-101.136c-3.415-0.915-5.29-4.163-7.165-7.41
				c-1.25-2.165-6.25-10.826-8.417-22.079c8.662,7.503,13.662,16.163,14.912,18.329c1.875,3.247,3.75,6.495,2.835,9.91
				L330.224,855.875z"/>
			<path id="_x38_" fill="#BB0000" d="M144.5,766.5v60h126.25c3.75,10,16.25,30,23.75,30s20-20,23.75-30H444.5v-60H318.25
				c-3.75-10-16.25-30-23.75-30s-20,20-23.75,30H144.5z"/>
			<path id="_x37_" d="M318.25,826.5c3.75-10,6.25-20,6.25-30s-2.5-20-6.25-30c-3.75,10-6.25,20-6.25,30S314.5,816.5,318.25,826.5"
				/>
			<path id="_x36_" d="M270.75,826.5c-3.75-10-6.25-20-6.25-30s2.5-20,6.25-30c3.75,10,6.25,20,6.25,30S274.5,816.5,270.75,826.5"/>
			<ellipse id="_x35_" fill="#FFFFFF" cx="294.5" cy="796.5" rx="5" ry="7.5"/>
			<path id="_x34_" fill="#FFFFFF" d="M295.75,803.812c0,0,5,10,5,26.25s-5,26.25-5,26.25V803.812z"/>
			<path id="_x33_" fill="#FFFFFF" d="M293.25,789.187c0,0-5-10-5-26.25s5-26.25,5-26.25V789.187z"/>
			<path id="_x32_" fill="#FFFFFF" d="M293.25,803.812c0,0-5,10-5,26.25s5,26.25,5,26.25V803.812z"/>
			<path id="_x31_" fill="#FFFFFF" d="M295.75,789.187c0,0,5-10,5-26.25s-5-26.25-5-26.25V789.187z"/>
		</g>
	</g>
</switch>
</svg>