<?xml version="1.0" encoding="utf-8"?>
<svg version="1.1"
	 id="Countryflags.com" width = "100%" height = "100%" sodipodi:docbase="C:\Documents and Settings\Jeff\Desktop" inkscape:output_extension="org.inkscape.output.svg.inkscape" sodipodi:docname="KG flag v2.svg" sodipodi:version="0.32" inkscape:version="0.45.1" xmlns:rdf="http://www.w3.org/1999/02/22-rdf-syntax-ns#" xmlns:svg="http://www.w3.org/2000/svg" xmlns:dc="http://purl.org/dc/elements/1.1/" xmlns:cc="http://web.resource.org/cc/" xmlns:sodipodi="http://sodipodi.sourceforge.net/DTD/sodipodi-0.dtd" xmlns:inkscape="http://www.inkscape.org/namespaces/inkscape"
	 xmlns="http://www.w3.org/2000/svg" xmlns:xlink="http://www.w3.org/1999/xlink" x="0px" y="0px" viewBox="194.5 696.5 300 180"
	 enable-background="new 194.5 696.5 300 180" xml:space="preserve">
<switch>
	<g>
		<g>
			<rect id="_x35_0" x="194.5" y="696.5" fill="#E8112D" width="300" height="180"/>
			<path id="_x34_9" fill="#FFEF00" d="M347.224,754.281c-2.52-6.6,2.88-16.8-2.52-21.6c1.8,7.2-4.2,15-2.52,21.6
				C343.864,760.881,349.744,760.881,347.224,754.281z"/>
			<path id="_x34_8" fill="#FFEF00" d="M352.262,755.074c-1.457-6.913,5.473-16.143,0.89-21.728
				c0.652,7.393-6.495,14.158-5.868,20.94C347.91,761.068,353.718,761.987,352.262,755.074z"/>
			<path id="_x34_7" fill="#FFEF00" d="M357.113,756.646c-0.357-7.056,7.931-15.088,4.278-21.322
				c-0.513,7.404-8.63,12.968-9.071,19.764C351.878,761.885,357.47,763.702,357.113,756.646z"/>
			<path id="_x34_6" fill="#FFEF00" d="M361.659,758.957c0.751-7.025,10.193-13.661,7.561-20.39
				c-1.665,7.232-10.552,11.458-12.052,18.102C355.668,763.312,360.908,765.982,361.659,758.957z"/>
			<path id="_x34_5" fill="#FFEF00" d="M365.787,761.95c1.841-6.821,12.205-11.899,10.657-18.956
				c-2.776,6.883-12.214,9.667-14.735,15.993C359.189,765.315,363.946,768.771,365.787,761.95z"/>
			<path id="_x34_4" fill="#FFEF00" d="M369.396,765.553c2.885-6.449,13.916-9.843,13.492-17.055
				c-3.819,6.364-13.576,7.637-17.055,13.492C362.353,767.844,366.511,772.002,369.396,765.553z"/>
			<path id="_x34_3" fill="#FFEF00" d="M372.397,769.676c3.858-5.918,15.284-7.545,15.994-14.735
				c-4.767,5.688-14.604,5.419-18.956,10.658C365.083,770.837,368.539,775.594,372.397,769.676z"/>
			<path id="_x34_2" fill="#FFEF00" d="M374.717,774.217c4.737-5.242,16.276-5.061,18.102-12.051
				c-5.598,4.872-15.272,3.067-20.39,7.561C367.311,774.22,369.98,779.459,374.717,774.217z"/>
			<path id="_x34_1" fill="#FFEF00" d="M376.297,779.066c5.498-4.436,16.868-2.452,19.764-9.071
				c-6.291,3.937-15.564,0.641-21.321,4.278C368.982,777.91,370.799,783.502,376.297,779.066z"/>
			<path id="_x34_0" fill="#FFEF00" d="M377.099,784.102c6.125-3.521,17.044,0.216,20.94-5.868
				c-6.83,2.904-15.472-1.802-21.728,0.89C370.055,781.816,370.975,787.623,377.099,784.102z"/>
			<path id="_x33_9" fill="#FFEF00" d="M377.104,789.202c6.6-2.52,16.8,2.88,21.6-2.52c-7.2,1.8-15-4.2-21.6-2.52
				C370.504,785.841,370.504,791.721,377.104,789.202z"/>
			<path id="_x33_8" fill="#FFEF00" d="M376.311,794.239c6.913-1.456,16.143,5.473,21.728,0.89
				c-7.393,0.652-14.158-6.495-20.94-5.868C370.318,789.888,369.398,795.695,376.311,794.239z"/>
			<path id="_x33_7" fill="#FFEF00" d="M374.74,799.09c7.056-0.357,15.088,7.931,21.321,4.278
				c-7.404-0.513-12.968-8.63-19.764-9.071C369.501,793.855,367.684,799.448,374.74,799.09z"/>
			<path id="_x33_6" fill="#FFEF00" d="M372.429,803.636c7.025,0.751,13.661,10.193,20.39,7.561
				c-7.233-1.665-11.458-10.552-18.102-12.052C368.073,797.646,365.404,802.885,372.429,803.636z"/>
			<path id="_x33_5" fill="#FFEF00" d="M369.435,807.764c6.821,1.841,11.899,12.205,18.956,10.658
				c-6.883-2.776-9.666-12.215-15.994-14.735C366.07,801.167,362.614,805.924,369.435,807.764z"/>
			<path id="_x33_4" fill="#FFEF00" d="M365.832,811.374c6.449,2.885,9.843,13.916,17.055,13.491
				c-6.364-3.818-7.637-13.576-13.492-17.055C363.541,804.331,359.384,808.489,365.832,811.374z"/>
			<path id="_x33_3" fill="#FFEF00" d="M361.71,814.375c5.918,3.858,7.545,15.284,14.735,15.993
				c-5.688-4.767-5.419-14.604-10.657-18.956C360.548,807.06,355.792,810.516,361.71,814.375z"/>
			<path id="_x33_2" fill="#FFEF00" d="M357.168,816.694c5.242,4.737,5.061,16.276,12.052,18.102
				c-4.872-5.598-3.068-15.272-7.561-20.39C357.166,809.288,351.926,811.958,357.168,816.694z"/>
			<path id="_x33_1" fill="#FFEF00" d="M352.32,818.274c4.436,5.498,2.452,16.868,9.071,19.764
				c-3.937-6.292-0.641-15.564-4.278-21.322C353.476,810.959,347.883,812.776,352.32,818.274z"/>
			<path id="_x33_0" fill="#FFEF00" d="M347.283,819.077c3.522,6.125-0.216,17.044,5.868,20.94
				c-2.904-6.83,1.802-15.472-0.89-21.728S343.762,812.952,347.283,819.077z"/>
			<path id="_x32_9" fill="#FFEF00" d="M342.184,819.081c2.52,6.6-2.88,16.8,2.52,21.6c-1.8-7.2,4.2-15,2.52-21.6
				C345.544,812.481,339.664,812.481,342.184,819.081z"/>
			<path id="_x32_8" fill="#FFEF00" d="M337.147,818.288c1.456,6.913-5.473,16.143-0.89,21.728
				c-0.652-7.393,6.495-14.158,5.868-20.94C341.498,812.295,335.69,811.375,337.147,818.288z"/>
			<path id="_x32_7" fill="#FFEF00" d="M332.295,816.717c0.357,7.056-7.93,15.088-4.278,21.322
				c0.513-7.404,8.63-12.968,9.072-19.764C337.53,811.478,331.938,809.661,332.295,816.717z"/>
			<path id="_x32_6" fill="#FFEF00" d="M327.749,814.406c-0.751,7.025-10.193,13.661-7.561,20.39
				c1.665-7.233,10.552-11.459,12.052-18.102C333.74,810.051,328.5,807.381,327.749,814.406z"/>
			<path id="_x32_5" fill="#FFEF00" d="M323.621,811.412c-1.841,6.821-12.205,11.899-10.658,18.956
				c2.776-6.883,12.215-9.667,14.735-15.993C330.219,808.048,325.462,804.592,323.621,811.412z"/>
			<path id="_x32_4" fill="#FFEF00" d="M320.012,807.81c-2.885,6.449-13.916,9.843-13.492,17.055
				c3.818-6.364,13.576-7.637,17.055-13.491C327.055,805.519,322.897,801.361,320.012,807.81z"/>
			<path id="_x32_3" fill="#FFEF00" d="M317.011,803.687c-3.858,5.918-15.284,7.545-15.993,14.735
				c4.767-5.688,14.604-5.419,18.956-10.658C324.325,802.526,320.869,797.769,317.011,803.687z"/>
			<path id="_x32_2" fill="#FFEF00" d="M314.691,799.145c-4.736,5.242-16.276,5.061-18.102,12.052
				c5.598-4.873,15.272-3.068,20.39-7.561C322.098,799.143,319.428,793.904,314.691,799.145z"/>
			<path id="_x32_1" fill="#FFEF00" d="M313.111,794.297c-5.498,4.436-16.868,2.452-19.764,9.071
				c6.291-3.937,15.564-0.641,21.322-4.278C320.426,795.453,318.609,789.861,313.111,794.297z"/>
			<path id="_x32_0" fill="#FFEF00" d="M312.309,789.261c-6.125,3.521-17.044-0.216-20.94,5.868
				c6.83-2.904,15.472,1.802,21.728-0.89C319.353,791.547,318.433,785.74,312.309,789.261z"/>
			<path id="_x31_9" fill="#FFEF00" d="M312.304,784.161c-6.6,2.52-16.8-2.88-21.6,2.52c7.2-1.8,15,4.2,21.6,2.52
				C318.904,787.521,318.904,781.641,312.304,784.161z"/>
			<path id="_x31_8" fill="#FFEF00" d="M313.097,779.124c-6.913,1.456-16.143-5.473-21.728-0.89
				c7.393-0.652,14.158,6.495,20.94,5.868C319.09,783.475,320.01,777.667,313.097,779.124z"/>
			<path id="_x31_7" fill="#FFEF00" d="M314.669,774.273c-7.056,0.357-15.088-7.931-21.322-4.278
				c7.404,0.513,12.968,8.63,19.764,9.071C319.907,779.508,321.724,773.916,314.669,774.273z"/>
			<path id="_x31_6" fill="#FFEF00" d="M316.98,769.727c-7.025-0.751-13.661-10.193-20.39-7.561
				c7.233,1.665,11.459,10.552,18.102,12.051C321.335,775.717,324.004,770.478,316.98,769.727z"/>
			<path id="_x31_5" fill="#FFEF00" d="M319.973,765.599c-6.821-1.841-11.899-12.205-18.956-10.658
				c6.883,2.776,9.667,12.215,15.993,14.735C323.338,772.196,326.794,767.439,319.973,765.599z"/>
			<path id="_x31_4" fill="#FFEF00" d="M323.576,761.989c-6.449-2.885-9.843-13.916-17.055-13.492
				c6.364,3.819,7.637,13.576,13.492,17.055C325.867,769.032,330.025,764.874,323.576,761.989z"/>
			<path id="_x31_3" fill="#FFEF00" d="M327.698,758.988c-5.918-3.858-7.545-15.284-14.735-15.993
				c5.688,4.767,5.419,14.604,10.658,18.956C328.86,766.302,333.617,762.846,327.698,758.988z"/>
			<path id="_x31_2" fill="#FFEF00" d="M332.24,756.669c-5.242-4.737-5.061-16.276-12.052-18.102
				c4.873,5.598,3.068,15.272,7.561,20.39C332.243,764.075,337.482,761.405,332.24,756.669z"/>
			<path id="_x31_1" fill="#FFEF00" d="M337.089,755.089c-4.436-5.498-2.452-16.868-9.072-19.764
				c3.937,6.292,0.641,15.564,4.278,21.322C335.933,762.404,341.525,760.587,337.089,755.089z"/>
			<path id="_x31_0" fill="#FFEF00" d="M342.125,754.286c-3.521-6.125,0.216-17.044-5.868-20.94
				c2.904,6.83-1.802,15.473,0.89,21.728C339.839,761.331,345.646,760.411,342.125,754.286z"/>
			
				<circle id="_x39_" sodipodi:cx="0" sodipodi:rx="54" sodipodi:cy="0" sodipodi:ry="54" fill="#E8112D" cx="344.704" cy="786.681" r="32.4">
			</circle>
			
				<path id="_x38_" sodipodi:cx="-197.78358" sodipodi:type="arc" sodipodi:rx="38.825226" sodipodi:cy="112.0634" sodipodi:ry="38.825226" fill="none" stroke="#FFEF00" stroke-width="2.4" stroke-linecap="round" stroke-linejoin="round" d="
				M376.599,786.195c0.003,17.596-14.26,31.863-31.856,31.865c-17.596,0.003-31.862-14.26-31.865-31.856c0-0.003,0-0.006,0-0.009
				c-0.003-17.596,14.26-31.862,31.856-31.865c17.596-0.003,31.862,14.26,31.865,31.856
				C376.599,786.189,376.599,786.192,376.599,786.195z"/>
			
				<ellipse id="_x37_" sodipodi:cx="0" sodipodi:rx="45" sodipodi:cy="-3" sodipodi:ry="45" fill="#FFEF00" cx="344.704" cy="784.911" rx="24.029" ry="24.293">
			</ellipse>
			<g id="Group_1">
				<defs>
					<ellipse id="SVGID_1_" cx="344.704" cy="784.912" rx="24.563" ry="24.833"/>
				</defs>
				<clipPath id="SVGID_2_">
					<use xlink:href="#SVGID_1_"  overflow="visible"/>
				</clipPath>
				<path id="_x36_" clip-path="url(#SVGID_2_)" fill="#E8112D" d="M368.733,771.61c-18.768,0-33.982,15.381-33.982,34.355
					s15.214,34.355,33.982,34.355l-1.922,1.331c-19.494,0-35.298-15.977-35.298-35.686c0-19.709,15.804-35.686,35.298-35.686
					L368.733,771.61z"/>
				<path id="_x35_" clip-path="url(#SVGID_2_)" fill="#E8112D" d="M365.529,769.338c-20.009,0-36.229,16.399-36.229,36.628
					c0,20.229,16.22,36.628,36.229,36.628l-1.922,1.486c-20.821,0-37.7-17.064-37.7-38.114c0-21.05,16.879-38.114,37.7-38.114
					L365.529,769.338z"/>
				<path id="_x34_" clip-path="url(#SVGID_2_)" fill="#E8112D" d="M362.325,766.815c-21.387,0-38.724,17.528-38.724,39.15
					c0,21.622,17.337,39.15,38.724,39.15l-1.922,1.614c-22.268,0-40.32-18.25-40.32-40.764c0-22.513,18.052-40.763,40.32-40.763
					L362.325,766.815z"/>
				<path id="_x33_" clip-path="url(#SVGID_2_)" fill="#E8112D" d="M320.675,771.61c18.768,0,33.982,15.381,33.982,34.355
					s-15.214,34.355-33.982,34.355l1.922,1.331c19.495,0,35.298-15.977,35.298-35.686c0-19.709-15.803-35.686-35.298-35.686
					L320.675,771.61z"/>
				<path id="_x32_" clip-path="url(#SVGID_2_)" fill="#E8112D" d="M323.879,769.338c20.009,0,36.23,16.399,36.23,36.628
					c0,20.229-16.22,36.628-36.23,36.628l1.922,1.486c20.821,0,37.699-17.064,37.699-38.114c0-21.05-16.879-38.114-37.699-38.114
					L323.879,769.338z"/>
				<path id="_x31_" clip-path="url(#SVGID_2_)" fill="#E8112D" d="M327.083,766.815c21.387,0,38.724,17.528,38.724,39.15
					c0,21.622-17.338,39.15-38.724,39.15l1.922,1.614c22.268,0,40.32-18.25,40.32-40.764c0-22.513-18.052-40.763-40.32-40.763
					L327.083,766.815z"/>
			</g>
		</g>
	</g>
</switch>
</svg>