<?xml version="1.0" encoding="utf-8"?>
<svg version="1.1" id="Countryflags.com" width = "100%" height = "100%"
	 xmlns="http://www.w3.org/2000/svg" xmlns:xlink="http://www.w3.org/1999/xlink" x="0px" y="0px" viewBox="144.5 696.5 300 200"
	 enable-background="new 144.5 696.5 300 200" xml:space="preserve">
<switch>
	<g>
		<g>
			<rect id="_x33_7" x="144.5" y="696.5" fill="#FFFFFF" width="300" height="200"/>
			<rect id="_x33_6" x="255.611" y="718.722" fill="#0038A8" width="188.889" height="22.222"/>
			<rect id="_x33_5" x="255.611" y="763.166" fill="#0038A8" width="188.889" height="22.222"/>
			<rect id="_x33_4" x="144.5" y="807.611" fill="#0038A8" width="300" height="22.222"/>
			<rect id="_x33_3" x="144.5" y="852.055" fill="#0038A8" width="300" height="22.222"/>
			<path id="_x33_2" fill="#FCD116" stroke="#000000" stroke-width="0.2" stroke-linecap="square" stroke-miterlimit="20" d="
				M197.54,762.92l3.678,5.492c-15.114,10.938-5.886,17.406-16.597,20.907c6.662-6.501-1.049-7.049,4.564-20.599"/>
			<path id="_x33_1" fill="none" stroke="#000000" stroke-width="0.2" stroke-miterlimit="20" d="M194.911,764.476
				c-8.339,13.744-2.87,21.301-10.29,24.842"/>
			<path id="_x33_0" fill="#FCD116" stroke="#000000" stroke-width="0.2" stroke-miterlimit="20" d="M200.056,752.055h7.333
				l-7.333,40.333l-7.333-40.333H200.056v40.333"/>
			<path id="_x32_9" fill="#FCD116" stroke="#000000" stroke-width="0.2" stroke-linecap="square" stroke-miterlimit="20" d="
				M190.595,757.959l-1.283,6.484c-18.421-2.953-16.47,8.145-26.519,3.047c9.308,0.114,4.243-5.726,17.793-11.339"/>
			<path id="_x32_8" fill="none" stroke="#000000" stroke-width="0.2" stroke-miterlimit="20" d="M187.635,757.2
				c-15.615,3.822-17.091,13.033-24.842,10.29"/>
			<path id="_x32_7" fill="#FCD116" stroke="#000000" stroke-width="0.2" stroke-miterlimit="20" d="M200.056,752.055l5.186,5.186
				l-33.705,23.334l23.335-33.705L200.056,752.055l-28.52,28.52"/>
			<path id="_x32_6" fill="#FCD116" stroke="#000000" stroke-width="0.2" stroke-linecap="square" stroke-miterlimit="20" d="
				M189.191,749.54l-5.492,3.678c-10.938-15.114-17.406-5.887-20.907-16.597c6.501,6.661,7.049-1.049,20.599,4.564"/>
			<path id="_x32_5" fill="none" stroke="#000000" stroke-width="0.2" stroke-miterlimit="20" d="M187.635,746.911
				c-13.744-8.339-21.301-2.87-24.842-10.29"/>
			<path id="_x32_4" fill="#FCD116" stroke="#000000" stroke-width="0.2" stroke-miterlimit="20" d="M200.056,752.055v7.333
				l-40.333-7.333l40.333-7.333V752.055h-40.333"/>
			<path id="_x32_3" fill="#FCD116" stroke="#000000" stroke-width="0.2" stroke-linecap="square" stroke-miterlimit="20" d="
				M194.153,742.594l-6.485-1.283c2.953-18.421-8.145-16.47-3.047-26.519c-0.113,9.307,5.726,4.242,11.339,17.793"/>
			<path id="_x32_2" fill="none" stroke="#000000" stroke-width="0.2" stroke-miterlimit="20" d="M194.911,739.634
				c-3.822-15.615-13.033-17.091-10.29-24.842"/>
			<path id="_x32_1" fill="#FCD116" stroke="#000000" stroke-width="0.2" stroke-miterlimit="20" d="M200.056,752.055l-5.185,5.186
				l-23.335-33.705l33.705,23.334L200.056,752.055l-28.52-28.52"/>
			<path id="_x32_0" fill="#FCD116" stroke="#000000" stroke-width="0.2" stroke-linecap="square" stroke-miterlimit="20" d="
				M202.572,741.191l-3.678-5.492c15.114-10.938,5.887-17.406,16.597-20.907c-6.661,6.501,1.049,7.049-4.563,20.599"/>
			<path id="_x31_9" fill="none" stroke="#000000" stroke-width="0.2" stroke-miterlimit="20" d="M205.201,739.634
				c8.339-13.744,2.87-21.301,10.29-24.842"/>
			<path id="_x31_8" fill="#FCD116" stroke="#000000" stroke-width="0.2" stroke-miterlimit="20" d="M200.056,752.055h-7.333
				l7.333-40.333l7.333,40.333H200.056v-40.333"/>
			<path id="_x31_7" fill="#FCD116" stroke="#000000" stroke-width="0.2" stroke-linecap="square" stroke-miterlimit="20" d="
				M209.517,746.152l1.283-6.484c18.421,2.953,16.47-8.145,26.519-3.047c-9.308-0.114-4.243,5.726-17.793,11.339"/>
			<path id="_x31_6" fill="none" stroke="#000000" stroke-width="0.2" stroke-miterlimit="20" d="M212.477,746.911
				c15.615-3.822,17.091-13.033,24.842-10.29"/>
			<path id="_x31_5" fill="#FCD116" stroke="#000000" stroke-width="0.2" stroke-miterlimit="20" d="M200.056,752.055l-5.185-5.186
				l33.705-23.334l-23.335,33.705L200.056,752.055l28.52-28.52"/>
			<path id="_x31_4" fill="#FCD116" stroke="#000000" stroke-width="0.2" stroke-linecap="square" stroke-miterlimit="20" d="
				M210.92,754.571l5.492-3.678c10.938,15.114,17.406,5.887,20.907,16.597c-6.501-6.662-7.049,1.049-20.599-4.564"/>
			<path id="_x31_3" fill="none" stroke="#000000" stroke-width="0.2" stroke-miterlimit="20" d="M212.477,757.2
				c13.744,8.339,21.301,2.87,24.842,10.29"/>
			<path id="_x31_2" fill="#FCD116" stroke="#000000" stroke-width="0.2" stroke-miterlimit="20" d="M200.056,752.055v-7.333
				l40.333,7.333l-40.333,7.333V752.055h40.333"/>
			<path id="_x31_1" fill="#FCD116" stroke="#000000" stroke-width="0.2" stroke-linecap="square" stroke-miterlimit="20" d="
				M205.959,761.516l6.485,1.283c-2.953,18.421,8.145,16.47,3.047,26.519c0.114-9.307-5.726-4.243-11.339-17.793"/>
			<path id="_x31_0" fill="none" stroke="#000000" stroke-width="0.2" stroke-miterlimit="20" d="M205.201,764.476
				c3.822,15.615,13.033,17.091,10.29,24.842"/>
			<path id="_x39_" fill="#FCD116" stroke="#000000" stroke-width="0.2" stroke-miterlimit="20" d="M200.056,752.055l5.186-5.186
				l23.335,33.705l-33.705-23.334L200.056,752.055l28.52,28.52"/>
			
				<circle id="_x38_" fill="#FCD116" stroke="#000000" stroke-width="0.2" stroke-miterlimit="20" cx="200.056" cy="752.055" r="13.444"/>
			<path id="_x37_" d="M209.956,746.677c-0.855,0.978-1.344-0.733-4.4-0.733c-3.055,0-3.544,1.833-4.033,1.466
				c-0.489-0.367,2.567-2.567,3.545-2.689C206.045,744.6,208.856,745.578,209.956,746.677 M206.411,747.778
				c0.855,0.733,0.122,2.322-0.733,2.322s-2.444-1.466-1.711-2.444"/>
			<path id="_x36_" d="M202.378,748.878c0.122-1.467,1.344-1.711,3.3-1.711c1.955,0,2.811,1.467,3.544,1.833
				c-0.855,0-1.589-1.222-3.544-1.222c-1.956,0-1.956,0-3.3,1.222 M202.745,749.244c0.489-0.733,1.1,0.733,2.444,0.733
				c1.344,0,2.078-0.367,2.933-0.978c0.855-0.611-1.222,1.467-2.567,1.467C204.211,750.467,202.378,749.733,202.745,749.244"/>
			<path id="_x35_" d="M206.9,749.978c1.589-0.855,0.611-2.078,0-2.322C207.144,747.9,208.122,749.122,206.9,749.978
				 M200.056,757.311c0.733,0,0.978-0.245,1.956-0.245c0.978,0,3.3,1.344,4.645,0.855c-2.811,1.1-1.711,0.367-6.6,0.367h-0.611
				 M207.144,759.022c-0.489-0.856-0.367-0.611-1.344-1.956C206.778,757.8,207.022,758.166,207.144,759.022 M200.056,760.244
				c3.056,0,2.567-0.611,6.6-2.322c-2.934,0.367-3.545,1.344-6.6,1.344h-0.611 M200.056,755.722c0.856,0,1.1-0.611,2.078-0.611
				c0.978,0,2.322,0.367,2.934,0.855c0.122,0.122-0.367-0.978-1.345-1.1c-0.978-0.122-0.611-1.711-1.711-1.956
				c0,0.489,0.367,0.367,0.489,1.1c0,0.611-1.1,0.611-1.344,0c0.244,0.978-0.489,0.978-1.1,0.978"/>
			<path id="_x34_" d="M190.156,746.677c0.855,0.978,1.344-0.733,4.4-0.733c3.056,0,3.545,1.833,4.034,1.466
				c0.489-0.367-2.567-2.567-3.545-2.689C194.067,744.6,191.256,745.578,190.156,746.677 M193.7,747.778
				c-0.855,0.733-0.122,2.322,0.733,2.322s2.444-1.466,1.711-2.444"/>
			<path id="_x33_" d="M197.734,748.878c-0.122-1.467-1.345-1.711-3.3-1.711c-1.956,0-2.811,1.467-3.545,1.833
				c0.856,0,1.589-1.222,3.545-1.222c1.955,0,1.955,0,3.3,1.222 M197.367,749.244c-0.489-0.733-1.1,0.733-2.444,0.733
				c-1.344,0-2.078-0.367-2.933-0.978c-0.856-0.611,1.222,1.467,2.566,1.467C195.9,750.467,197.734,749.733,197.367,749.244"/>
			<path id="_x32_" d="M193.211,749.978c-1.589-0.855-0.611-2.078,0-2.322C192.967,747.9,191.989,749.122,193.211,749.978
				 M200.056,757.311c-0.733,0-0.978-0.245-1.955-0.245c-0.978,0-3.3,1.344-4.645,0.855c2.811,1.1,1.711,0.367,6.6,0.367h0.611
				 M192.967,759.022c0.489-0.856,0.367-0.611,1.344-1.956C193.334,757.8,193.089,758.166,192.967,759.022 M200.056,760.244
				c-3.055,0-2.566-0.611-6.6-2.322c2.933,0.367,3.545,1.344,6.6,1.344h0.611 M200.056,755.722c-0.855,0-1.1-0.611-2.078-0.611
				c-0.978,0-2.322,0.367-2.933,0.855c-0.122,0.122,0.367-0.978,1.344-1.1c0.978-0.122,0.611-1.711,1.711-1.956
				c0,0.489-0.367,0.367-0.489,1.1c0,0.611,1.1,0.611,1.344,0c-0.244,0.978,0.489,0.978,1.1,0.978"/>
			<path id="_x31_" d="M200.056,761.344c-0.611,0-2.2,0.367,0,0.367C202.256,761.711,200.667,761.344,200.056,761.344"/>
		</g>
	</g>
</switch>
</svg>