<?xml version="1.0" encoding="utf-8"?>
<svg version="1.1" id="Countryflags.com" width = "100%" height = "100%"
	 xmlns="http://www.w3.org/2000/svg" xmlns:xlink="http://www.w3.org/1999/xlink" x="0px" y="0px" viewBox="-55.5 521.5 300 150"
	 enable-background="new -55.5 521.5 300 150" xml:space="preserve">
<switch>
	<g>
		<g>
			<rect id="_x31_8" x="-55.5" y="521.5" fill="#0099B5" width="300" height="48"/>
			<rect id="_x31_7" x="-55.5" y="569.5" fill="#CE1126" width="300" height="54"/>
			<rect id="_x31_6" x="-55.5" y="572.5" fill="#FFFFFF" width="300" height="48"/>
			<rect id="_x31_5" x="-55.5" y="623.5" fill="#1EB53A" width="300" height="48"/>
			<circle id="_x31_4" fill="#FFFFFF" cx="-13.5" cy="545.5" r="18"/>
			<circle id="_x31_3" fill="#0099B5" cx="-7.5" cy="545.5" r="18"/>
			<polygon id="_x31_2" fill="#FFFFFF" points="22.596,529.988 24.712,531.525 23.904,534.012 26.02,532.475 28.136,534.012 
				27.327,531.525 29.444,529.988 26.828,529.988 26.02,527.5 25.212,529.988 			"/>
			<polygon id="_x31_1" fill="#FFFFFF" points="36.996,529.988 39.112,531.525 38.304,534.012 40.42,532.475 42.536,534.012 
				41.727,531.525 43.844,529.988 41.228,529.988 40.42,527.5 39.612,529.988 			"/>
			<polygon id="_x31_0" fill="#FFFFFF" points="51.396,529.988 53.512,531.525 52.704,534.012 54.82,532.475 56.936,534.012 
				56.127,531.525 58.244,529.988 55.628,529.988 54.82,527.5 54.012,529.988 			"/>
			<polygon id="_x39_" fill="#FFFFFF" points="22.852,544.383 24.968,545.92 24.16,548.407 26.276,546.87 28.392,548.407 
				27.584,545.92 29.7,544.383 27.084,544.383 26.276,541.895 25.468,544.383 			"/>
			<polygon id="_x38_" fill="#FFFFFF" points="37.252,544.383 39.368,545.92 38.56,548.407 40.676,546.87 42.792,548.407 
				41.984,545.92 44.1,544.383 41.484,544.383 40.676,541.895 39.868,544.383 			"/>
			<polygon id="_x37_" fill="#FFFFFF" points="51.652,544.383 53.768,545.92 52.96,548.407 55.076,546.87 57.192,548.407 
				56.384,545.92 58.5,544.383 55.884,544.383 55.076,541.895 54.268,544.383 			"/>
			<polygon id="_x36_" fill="#FFFFFF" points="8.452,544.383 10.568,545.92 9.76,548.407 11.876,546.87 13.992,548.407 
				13.184,545.92 15.3,544.383 12.684,544.383 11.876,541.895 11.068,544.383 			"/>
			<polygon id="_x35_" fill="#FFFFFF" points="22.676,558.788 24.792,560.325 23.984,562.812 26.1,561.275 28.216,562.812 
				27.408,560.325 29.524,558.788 26.908,558.788 26.1,556.3 25.292,558.788 			"/>
			<polygon id="_x34_" fill="#FFFFFF" points="37.076,558.788 39.192,560.325 38.384,562.812 40.5,561.275 42.616,562.812 
				41.808,560.325 43.924,558.788 41.308,558.788 40.5,556.3 39.692,558.788 			"/>
			<polygon id="_x33_" fill="#FFFFFF" points="51.476,558.788 53.592,560.325 52.784,562.812 54.9,561.275 57.016,562.812 
				56.208,560.325 58.324,558.788 55.708,558.788 54.9,556.3 54.092,558.788 			"/>
			<polygon id="_x32_" fill="#FFFFFF" points="8.276,558.788 10.392,560.325 9.584,562.812 11.7,561.275 13.816,562.812 
				13.008,560.325 15.124,558.788 12.508,558.788 11.7,556.3 10.892,558.788 			"/>
			<polygon id="_x31_" fill="#FFFFFF" points="-6.124,558.788 -4.008,560.325 -4.816,562.812 -2.7,561.275 -0.584,562.812 
				-1.392,560.325 0.724,558.788 -1.892,558.788 -2.7,556.3 -3.508,558.788 			"/>
		</g>
	</g>
</switch>
</svg>