<?xml version="1.0" encoding="utf-8"?>
<svg version="1.1" id="Countryflags.com" width = "100%" height = "100%"
	 xmlns="http://www.w3.org/2000/svg" xmlns:xlink="http://www.w3.org/1999/xlink" x="0px" y="0px" viewBox="0 0 300 157.91"
	 enable-background="new 0 0 300 157.91" xml:space="preserve">
<switch>
	<g>
		<g>
			<rect id="_x34_" x="0" fill="#00285E" stroke="#000000" stroke-width="0.2741" width="300" height="157.907"/>
			<polygon id="_x33_" fill="#F8991D" stroke="#000000" stroke-width="0.2741" stroke-linejoin="bevel" points="300,39.032 
				0,145.578 0,140.066 300,6.895 			"/>
			<polygon id="_x32_" fill="#FFFFFF" stroke="#000000" stroke-width="0.2741" stroke-linejoin="bevel" points="0,151.058 
				300,71.247 300,39.032 0,145.578 			"/>
			<polygon id="_x31_" fill="#FFFFFF" points="58.289,107.882 60.686,76.657 68.393,95.456 65.48,75.325 77.955,91.487 
				69.874,72.662 85.893,85.352 73.203,69.333 92.028,77.233 75.866,65.071 95.997,67.851 77.065,60.145 108.382,57.748 
				77.065,55.351 95.997,47.644 75.866,50.424 92.028,38.262 73.203,46.163 85.893,30.143 69.874,42.834 77.955,24.009 65.48,40.17 
				68.393,20.04 60.686,38.839 58.289,7.613 55.892,38.839 48.185,20.04 51.098,40.17 38.624,24.009 46.704,42.834 30.685,30.143 
				43.375,46.163 24.551,38.262 40.712,50.424 20.581,47.644 39.514,55.351 8.196,57.748 39.514,60.145 20.581,67.851 
				40.712,65.071 24.551,77.233 43.375,69.333 30.685,85.352 46.704,72.662 38.624,91.487 51.098,75.325 48.185,95.456 
				55.892,76.657 			"/>
		</g>
	</g>
</switch>
</svg>