<?xml version="1.0" encoding="utf-8"?>
<svg version="1.1" id="Countryflags.com" width = "100%" height = "100%"
	 xmlns="http://www.w3.org/2000/svg" xmlns:xlink="http://www.w3.org/1999/xlink" x="0px" y="0px"
	 viewBox="74.5 517.552 300 157.895" enable-background="new 74.5 517.552 300 157.895" xml:space="preserve">
<switch>
	<g>
		<g>
			<rect id="_x35_" x="74.5" y="517.552" fill="#75B2DD" width="300" height="157.895"/>
			<polygon id="_x34_" fill="#FFFFFF" points="209.483,544.252 218.764,550.995 215.219,561.905 224.5,555.162 233.781,561.905 
				230.236,550.995 239.517,544.252 228.045,544.252 224.5,533.342 221.007,544.252 			"/>
			<polygon id="_x33_" fill="#FFFFFF" points="161.342,596.5 172.252,600.045 172.252,611.517 178.995,602.236 189.906,605.781 
				183.163,596.5 189.906,587.219 178.995,590.764 172.252,581.483 172.252,592.955 			"/>
			<polygon id="_x32_" fill="#FFFFFF" points="209.483,648.748 220.955,648.748 224.5,659.658 228.045,648.748 239.517,648.748 
				230.236,642.005 233.781,631.094 224.5,637.837 215.219,631.094 218.764,642.005 			"/>
			<polygon id="_x31_" fill="#FFFFFF" points="259.094,587.219 265.838,596.5 259.094,605.781 270.005,602.236 276.748,611.517 
				276.748,600.045 287.658,596.5 276.748,592.955 276.748,581.483 270.005,590.764 			"/>
		</g>
	</g>
</switch>
</svg>