<?xml version="1.0" encoding="utf-8"?>
<svg version="1.1" id="Countryflags.com" width = "100%" height = "100%"
	 xmlns="http://www.w3.org/2000/svg" xmlns:xlink="http://www.w3.org/1999/xlink" x="0px" y="0px" viewBox="894.5 996.5 300 150"
	 enable-background="new 894.5 996.5 300 150" xml:space="preserve">
<switch>
	<g>
		<g>
			<rect id="_x31_6" x="894.5" y="996.5" fill="#C4272F" width="300" height="150"/>
			<rect id="_x31_5" x="994.5" y="996.5" fill="#015197" width="100" height="150"/>
			<circle id="_x31_4" fill="#F9CF02" cx="944.5" cy="1047.75" r="13.75"/>
			<circle id="_x31_3" fill="#C4272F" cx="944.5" cy="1041.5" r="15"/>
			<circle id="_x31_2" fill="#F9CF02" cx="944.5" cy="1044" r="10"/>
			<path id="_x31_1" fill="#F9CF02" d="M938.25,1025.25c0,3.451,2.799,6.25,6.25,6.25s6.25-2.799,6.25-6.25
				c0-2.5-1.563-2.813-1.563-3.75s0.938-2.188-0.938-3.75c0.938,1.563-0.625,1.875-0.625,3.438s0.625,1.563,0.625,2.813
				c0,0.69-0.56,1.25-1.25,1.25c-0.69,0-1.25-0.56-1.25-1.25c0-1.25,1.25-2.5,1.25-4.375s-0.313-2.5-1.25-4.063
				s-2.5-2.813-1.25-4.063c-1.875,0.625-0.938,3.125-0.938,4.688s-1.25,2.5-1.25,4.375s0.938,2.188,0.938,3.438
				c0,0.69-0.56,1.25-1.25,1.25c-0.69,0-1.25-0.56-1.25-1.25c0-1.25,0.625-1.25,0.625-2.813s-1.563-1.875-0.625-3.438
				c-1.875,1.563-0.938,2.813-0.938,3.75S938.25,1022.75,938.25,1025.25z"/>
			<rect id="_x31_0" x="917" y="1064" fill="#F9CF02" width="12.5" height="60"/>
			<rect id="_x39_" x="959.5" y="1064" fill="#F9CF02" width="12.5" height="60"/>
			<rect id="_x38_" x="932" y="1074" fill="#F9CF02" width="25" height="5"/>
			<rect id="_x37_" x="932" y="1109" fill="#F9CF02" width="25" height="5"/>
			<polygon id="_x36_" fill="#F9CF02" points="932,1064 944.5,1071.5 957,1064 			"/>
			<polygon id="_x35_" fill="#F9CF02" points="932,1116.5 944.5,1124 957,1116.5 			"/>
			<circle id="_x34_" fill="#F9CF02" stroke="#C4272F" stroke-width="1.5" cx="944.5" cy="1094" r="13.25"/>
			<path id="_x33_" fill="none" stroke="#C4272F" stroke-width="1.5" d="M944.5,1080.75c3.659,0,6.625,2.966,6.625,6.625
				c0,3.659-2.966,6.625-6.625,6.625c-3.659,0-6.625,2.966-6.625,6.625c0,3.659,2.966,6.625,6.625,6.625"/>
			<circle id="_x32_" fill="#C4272F" cx="944.5" cy="1087.375" r="2.5"/>
			<circle id="_x31_" fill="#C4272F" cx="944.5" cy="1100.625" r="2.5"/>
		</g>
	</g>
</switch>
</svg>