<?xml version="1.0" encoding="utf-8"?>
<svg version="1.1" id="Countryflags.com" width = "100%" height = "100%"
	 xmlns="http://www.w3.org/2000/svg" xmlns:xlink="http://www.w3.org/1999/xlink" x="0px" y="0px" viewBox="144.5 696.5 300 200"
	 enable-background="new 144.5 696.5 300 200" xml:space="preserve">
<switch>
	<g>
		<g>
			<rect id="_x32_" x="144.5" y="696.5" fill="#C1272D" width="300" height="200"/>
			<path id="_x31_" fill="#006233" d="M294.49,763.166l-7.479,23.094l-24.26,0.021l19.615,14.271l-7.479,23.115
				c5.055-3.707,14.208-10.352,19.615-14.271l19.635,14.26l-7.5-23.094l19.615-14.292h-24.24L294.49,763.166z M294.49,778.979
				l2.385,7.281l-4.75,0.01L294.49,778.979z M285.417,791.146l-1.458,4.531l-6.198-4.51L285.417,791.146z M290.542,791.146h7.917
				l2.448,7.542l-6.406,4.667l-6.406-4.667L290.542,791.146z M303.584,791.146h7.646l-6.177,4.531L303.584,791.146z
				 M286.511,803.583l3.854,2.781l-6.198,4.51L286.511,803.583z M302.511,803.583l2.344,7.292l-6.188-4.5v-0.01L302.511,803.583z"/>
		</g>
	</g>
</switch>
</svg>