<?xml version="1.0" encoding="utf-8"?>
<svg version="1.1" id="Countryflags.com" width = "100%" height = "100%"
	 xmlns="http://www.w3.org/2000/svg" xmlns:xlink="http://www.w3.org/1999/xlink" x="0px" y="0px" viewBox="144.5 696.5 300 200"
	 enable-background="new 144.5 696.5 300 200" xml:space="preserve">
<switch>
	<g>
		<g>
			<rect id="_x31_1" x="144.5" y="696.5" width="300" height="200"/>
			<rect id="_x31_0" x="144.5" y="696.5" fill="#FFFFFF" width="300" height="68.75"/>
			<rect id="_x39_" x="144.5" y="696.5" fill="#007168" width="300" height="62.5"/>
			<rect id="_x38_" x="144.5" y="827.666" fill="#FFFFFF" width="300" height="68.833"/>
			<rect id="_x37_" x="144.5" y="834" fill="#FCE100" width="300" height="62.5"/>
			<path id="_x36_" fill="#D21034" d="M144.5,696.5v200l131.25-100L144.5,696.5z"/>
			<path id="_x35_" fill="#FCE100" d="M212.623,833.995l-24.385-17.854L163.887,834l9.444-28.708l-24.509-17.641l30.221,0.111
				L188.247,759l9.234,28.777l30.198-0.134l-24.515,17.674L212.623,833.995z"/>
			<path id="_x34_" fill="#FFFFFF" stroke="#000000" stroke-width="0.4167" stroke-linecap="round" stroke-linejoin="round" d="
				M167.075,813.976h17.566c1.413,1.586,4.567,2.232,7.57-0.019c5.506-3.015,16.158,0.019,16.158,0.019l2.098-2.229l-5.113-16.78
				l-1.835-1.966c0,0-3.933-2.36-11.405-1.573c-7.472,0.786-10.094-0.262-10.094-0.262s-6.554,0.786-8.39,1.704
				c-0.202,0.163-2.098,2.097-2.098,2.097L167.075,813.976z"/>
			<path id="_x33_" fill="none" stroke="#000000" stroke-width="0.4167" stroke-linecap="round" stroke-linejoin="round" d="
				M170.615,809.65c0,0,16.78-2.097,21.63,4.326c-2.739,1.874-5.151,2.029-7.735,0.132c0.411-0.686,6.03-6.555,20.319-4.589"/>
			<path id="_x32_" stroke="#000000" stroke-width="0.4167" stroke-linecap="round" stroke-linejoin="round" d="M188.574,792.87
				l-0.131,18.484 M203.518,793.132l3.146,14.682 M173.802,792.901l-1.746,7.572"/>
			<path id="_x31_" stroke="#000000" stroke-width="0.4167" stroke-linecap="round" stroke-linejoin="round" d="M155.666,815.988
				l4.131,4.843c0.485,0.289,0.916,0.271,1.347,0l6.122-7.347l2.572-3.184c0.398-0.472,0.525-0.998,0.49-1.469l4.916-4.368
				c0.402,0.028,0.642,0.073,1.044,0.1c-0.475-0.123-0.824-0.354-0.45-0.875l1.102-0.857l0.857,1.102c0,0-1.224,1.592-1.347,1.592
				c-0.122,0-1.347,0-1.347,0l-2.572,2.327l1.124,0.994l1.692,4.639l2.082-1.47l-1.347-4.775l2.939-3.184l-1.102-1.715l0.735-0.98
				c0,0,10.171,6.404,14.09,4.69c0.106,0.038,0.237-4.567,0.237-4.567s-10.53-1.102-10.776-3.184
				c-0.245-2.082,2.327-2.326,2.327-2.326l-1.102-1.592l0.245-0.857l1.837,2.327l4.163-3.551l24.49,27.919
				c1.337-0.542,1.622-0.87,1.715-2.204c-0.035-0.034-24-27.551-24-27.551l1.837-1.959c0.362-0.408,0.489-0.582,0.49-1.225
				l2.816-2.449c0.847,0.291,1.387,0.798,1.837,1.469l7.743-6.562c0.204,0.204,0.824,0.408,1.244,0.179l12.801-12.287l-13.951,9.854
				l-0.49-0.367c0-0.408,0.506-0.509,0-1.225c-0.542-0.65-1.347,0.612-1.469,0.612c-0.122,0-2.019-0.67-2.435-1.52l-0.136,2.254
				l-3.551,3.306l-2.694-0.122l-3.919,3.796l-0.49,1.469l0.612,1.225c0,0-2.082,1.837-2.082,1.714c0-0.122-0.421-0.541-0.439-0.595
				l1.786-1.609l0.245-1.102l-0.596-0.931c-0.181,0.132-2.465,2.522-2.588,2.277c-0.204-0.229-6.612-7.469-6.612-7.469l0.367-1.347
				l-4.163-4.531c-1.518-0.524-3.919-0.612-4.408,2.694c-0.382,0.777-3.551,0.122-3.551,0.122l-1.714,0.368l-9.673,13.714
				l5.388,6.49l11.02-13.959l0.327-3.954l2.312,2.586c0.771,0.099,1.506,0.108,2.204-0.245l6.529,7.288l-1.087,1.061
				c0.368,0.408,0.62,0.669,0.988,1.077c0.368-0.245,0.718-0.539,1.085-0.784c0.123,0.164,0.327,0.474,0.45,0.637
				c-0.547,0.298-0.931,0.694-1.478,0.992c-0.876-0.571-1.721-1.281-1.657-2.412l-3.673,3.061l-0.123,0.612l-10.898,9.061
				l-0.98,0.123l-0.245,2.816l7.102-5.877v-0.857l0.735,0.612l5.51-4.408c0,0,0.367,0.49,0.245,0.49
				c-0.123,0-4.898,4.408-4.898,4.408l-0.122,0.49l-0.857,0.735l-0.49-0.367l-6.612,5.877h-0.979l-3.674,3.674
				c-0.948,0.082-1.769,0.183-2.571,0.734L155.666,815.988z"/>
		</g>
	</g>
</switch>
</svg>