<?xml version="1.0" encoding="utf-8"?>
<svg version="1.1" width = "100%" height = "100%"
	 id="Countryflags.com" xmlns:svg="http://www.w3.org/2000/svg"
	 xmlns="http://www.w3.org/2000/svg" xmlns:xlink="http://www.w3.org/1999/xlink" x="0px" y="0px" viewBox="294.5 796.5 300 200"
	 enable-background="new 294.5 796.5 300 200" xml:space="preserve">
<switch>
	<g>
		<title>Flag of Equatorial Guinea</title>
		<g>
			<rect id="_x34_4" x="294.5" y="796.5" fill="#E32118" width="300" height="200"/>
			<rect id="_x34_3" x="294.5" y="796.5" fill="#FFFFFF" width="300" height="133.333"/>
			<rect id="_x34_2" x="294.5" y="796.5" fill="#3E9A00" width="300" height="66.667"/>
			<polygon id="_x34_1" fill="#0073CE" points="294.5,796.5 294.5,996.5 369.5,896.5 			"/>
			<polygon id="_x34_0" fill="#FFFFFF" stroke="#000000" stroke-width="0.5" points="463.417,909.167 465.5,912.167 465.5,912.167 
				467.417,909.333 466.083,906.917 			"/>
			<path id="_x33_9" fill="#FFFFFF" stroke="#000000" stroke-width="0.5" d="M450.167,917.917l0.167,3c0,0,0.833,0,1.583-0.25
				c0.667-0.25,1.25-0.75,1.25-0.75l-0.083-1.583L450.167,917.917L450.167,917.917z"/>
			<path id="_x33_8" fill="#FFFFFF" stroke="#000000" stroke-width="0.5" d="M439,917.917l-0.167,2.917c0,0-0.75,0-1.5-0.167
				c-0.667-0.167-1.25-0.583-1.25-0.583l-0.833-2L439,917.917L439,917.917z"/>
			<path id="_x33_7" fill="#FFFFFF" stroke="#000000" stroke-width="0.5" d="M428.5,876.4h31.917v33.433
				c0,11.25-14.667,2.583-15.917,8.583c-2.167-6.167-15.917,2.75-15.917-9.25C428.583,897.5,428.5,876.4,428.5,876.4L428.5,876.4z"
				/>
			<polygon id="_x33_6" fill="#FFFFFF" stroke="#000000" stroke-width="0.5" points="425.583,909.167 423.417,912.167 
				421.083,908.333 422.833,906.5 			"/>
			<polygon id="_x33_5" fill="#FFD700" stroke="#000000" stroke-width="0.5" points="443.417,871.717 441.583,871.8 
				440.667,873.441 439.667,871.875 437.833,871.95 438.667,870.3 437.667,868.733 439.583,868.65 440.417,867.008 441.417,868.575 
				443.25,868.5 442.417,870.15 			"/>
			<polygon id="_x33_4" fill="#FFD700" stroke="#000000" stroke-width="0.5" points="435.583,872.325 433.75,872.775 433.25,874.55 
				431.917,873.217 430.167,873.65 430.667,871.875 429.417,870.525 431.167,870.083 431.667,868.3 433,869.633 434.833,869.2 
				434.25,870.983 			"/>
			<polygon id="_x33_3" fill="#FFD700" stroke="#000000" stroke-width="0.5" points="428,873.883 426.333,874.708 426.25,876.558 
				424.667,875.542 423,876.358 423.167,874.508 421.583,873.483 423.25,872.65 423.417,870.8 424.917,871.816 426.583,871 
				426.5,872.85 			"/>
			<polygon id="_x33_2" fill="#FFD700" stroke="#000000" stroke-width="0.5" points="445.833,871.717 447.667,871.8 448.5,873.441 
				449.5,871.875 451.333,871.95 450.5,870.3 451.5,868.733 449.667,868.65 448.75,867.008 447.75,868.575 445.917,868.5 
				446.75,870.15 			"/>
			<polygon id="_x33_1" fill="#FFD700" stroke="#000000" stroke-width="0.5" points="453.667,872.325 455.417,872.775 
				455.917,874.55 457.25,873.217 459,873.65 458.5,871.875 459.833,870.525 458,870.083 457.5,868.3 456.167,869.633 
				454.417,869.2 454.917,870.983 			"/>
			<polygon id="_x33_0" fill="#FFD700" stroke="#000000" stroke-width="0.5" points="461.167,873.883 462.833,874.708 
				462.917,876.558 464.5,875.542 466.167,876.358 466.083,874.508 467.583,873.483 465.917,872.65 465.833,870.8 464.25,871.816 
				462.583,871 462.75,872.85 			"/>
			<path id="_x32_9" fill="#FFFFFF" stroke="#000000" stroke-width="0.5" d="M436,919.917v4c0,2.833,17.167,2.833,17.167,0v-4
				C453.167,922,436,921.583,436,919.917z"/>
			<path id="_x32_8" fill="#FFFFFF" stroke="#000000" stroke-width="0.5" d="M420.667,914.667c1.5,7.667,15.333,7.833,15.333,7.833
				v-2.583c-0.333-1,0.25-1.333,2.5-1.667c0.917-0.083,0.5-1.417,0.5-1.417s-6,1.083-10.25-0.583
				c-5.75-2.333-6.583-6.833-6.583-6.833S421.75,912.917,420.667,914.667L420.667,914.667z"/>
			<path id="_x32_7" fill="#FFFFFF" stroke="#000000" stroke-width="0.5" d="M468.417,914.667c-1.417,7.667-15.25,7.833-15.25,7.833
				v-2.583c0.25-1-0.333-1.333-2.583-1.667c-0.917-0.083-0.417-1.417-0.417-1.417s6,1.083,10.25-0.583
				c5.667-2.333,6.333-6.833,6.333-6.833S467.333,912.917,468.417,914.667L468.417,914.667z"/>
			<path id="_x32_6" fill="#FFFFFF" stroke="#000000" stroke-width="0.5" d="M421.75,911.75c-3.833-2.083-0.833-4.25-0.5-10.417
				c0.583,3.75,4.833,5.333,4.333,7.75c-1.75,0.083-2.583-2.583-3.417,0.333L421.75,911.75L421.75,911.75z"/>
			<path id="_x32_5" fill="#FFFFFF" stroke="#000000" stroke-width="0.5" d="M467.333,911.75c3.833-2.167,0.667-4.25,0.333-10.417
				c-0.583,3.75-4.75,5.333-4.25,7.75c1.667,0.083,2.5-2.583,3.333,0.333l0.583,2.25V911.75z"/>
			<path id="_x32_4" d="M441.25,924.917v-2.667h0.833c0.333,0,0.583,0,0.667,0c0.167,0.083,0.333,0.167,0.417,0.25
				c0.083,0.167,0.167,0.333,0.167,0.5c0,0.167-0.083,0.333-0.083,0.417c-0.083,0.167-0.167,0.25-0.25,0.333
				c-0.083,0-0.167,0.083-0.25,0.083c-0.167,0-0.333,0.083-0.583,0.083h-0.333v1H441.25L441.25,924.917z M441.833,922.667v0.75h0.25
				c0.25,0,0.333,0,0.417,0c0.083-0.083,0.167-0.083,0.167-0.167c0.083-0.083,0.083-0.083,0.083-0.167c0-0.167,0-0.25-0.083-0.25
				c-0.083-0.083-0.167-0.167-0.25-0.167c0,0-0.167,0-0.333,0H441.833L441.833,922.667z M445.917,924.917h-0.583l-0.25-0.667H444
				l-0.25,0.667h-0.583l1.083-2.667h0.583L445.917,924.917L445.917,924.917z M444.917,923.833l-0.417-1l-0.333,1H444.917z
				 M445.917,924.917v-0.5l1.417-1.75h-1.25v-0.417h2v0.417l-1.5,1.75h1.5v0.5H445.917L445.917,924.917z"/>
			<path id="_x32_3" fill="#73452B" stroke="#000000" stroke-width="0.25" d="M446.75,913.083c0,0-0.417,0.417-1.167,0.083
				s-0.833-21.417-0.833-21.417c1.667-1.833,3-2.417,3-2.417l1,0.833c-3.75,1.917-3.417,4.667-3.083,9.417
				c0.083,1.75,0.083,4,0.5,6.167c0.583,2.75,1.75,5.083,1.833,6.833C448.083,913.667,446.75,913.083,446.75,913.083L446.75,913.083
				z"/>
			<path id="_x32_2" fill="#73452B" stroke="#000000" stroke-width="0.25" d="M444.167,888.833h1.5
				c-1.25,12.083-0.167,19.25-0.167,22.75c0,1.167,0.667,1.583,0.583,1.583c-1.5,1.667-2.25-0.083-2.25-0.083L444.167,888.833
				L444.167,888.833z"/>
			<path id="_x32_1" fill="#A36629" stroke="#000000" stroke-width="0.25" d="M441.833,913.083c-1.417,0.667-1.583-0.667-1.5-0.833
				c3.083-6.25,4.417-20,1.583-21.5l0.167-1.333c1.083,0.333,2.083,1.75,2.083,1.75c0.417,15.417,0,21.75-0.25,22
				c-1.5,1.583-2.083-0.25-2.167-0.417"/>
			<path id="_x32_0" fill="none" stroke="#000000" stroke-width="0.25" d="M441.75,912.833c-0.25-1.333,2.167-4.75,2-8.333"/>
			<path id="_x31_9" fill="none" stroke="#000000" stroke-width="0.25" d="M445.833,907.417c0.75,2.083,1.083,3.917,0.917,5.667"/>
			<path id="_x31_8" fill="#009A3B" stroke="#000000" stroke-width="0.25" d="M449.083,883.167c0.5-0.583,0.5-0.583,1.417-0.583
				c0.167-1.25,2.25-1.25,2.417,0.333c1.667-0.333,2,0.667,1.333,1.667c1.583-0.417,3,0,2.583,1.833c2.833,0.75,1.75,2.75,0.5,3.167
				c-0.167,1.25-1.333,1.667-2.917,1.167c-2,1.417-3.167,0.917-4.083-0.5c-2.25,0.333-2.417-0.167-3.417-1.417
				c-1.75,0.75-2.083,0.75-3.583-0.167c-0.083,1.167-0.5,0.833-1.25,0.75c0.083,1.5-0.5,2.167-1.833,1.667
				c1,2.083-1.583,3-2.833,1.25c-1.167,0.083-1.25-0.25-1.833-0.667c-0.5,1.667-2.333,1.417-2.667,0.5
				c-2.333-0.333-2.083-1.583-0.167-1.667c0.167-1.333,1.333-1.083,2.083-0.917c0.083-0.833,0.583-0.667,1-0.5
				c-0.25-0.583-0.083-0.917,0.667-1.083c-1.083-1.417-0.417-1.917,0.667-2.417c-0.583-1.333,0.417-1.25,1.167-1.333
				c-0.083-1.417,0.333-1.667,1.833-1.833c-0.167-0.5,0.083-0.917,0.917-0.917c-0.5-1.417,0.167-1.742,1.667-1.5
				c0.25-2.058,4.667-1.083,4.333,1.75C448.333,881.917,448.75,882.167,449.083,883.167L449.083,883.167z"/>
			<path id="_x31_7" fill="none" stroke="#000000" stroke-width="0.25" d="M440.167,882.417c0.333,0.167,0.75,0,0.833,0.917
				c0.667-1.167,1.5-0.5,1.5,0.833"/>
			<path id="_x31_6" fill="none" stroke="#000000" stroke-width="0.25" d="M447.083,881.75c-0.333,0.5-1.583,0.5-1.417,1.833
				c-0.417-0.583-1.25-0.75-1.583-0.167"/>
			<path id="_x31_5" fill="none" stroke="#000000" stroke-width="0.25" d="M449.083,883.167c0,0.333-0.083,1.333-0.417,1.833"/>
			<path id="_x31_4" fill="none" stroke="#000000" stroke-width="0.25" d="M454.25,884.583c0.083,0.083-1.167,0-1.75,0.417"/>
			<path id="_x31_3" fill="none" stroke="#000000" stroke-width="0.25" d="M457.333,889.583c-0.333-0.167-1-0.583-1.5,0.083
				c0-0.333,0-1.25-0.917-1.25"/>
			<path id="_x31_2" fill="none" stroke="#000000" stroke-width="0.25" d="M454.417,890.75c0-0.833-0.167-1.083-0.333-1.333"/>
			<path id="_x31_1" fill="none" stroke="#000000" stroke-width="0.25" d="M451.667,889.583c-0.667-0.5-1.333,0.25-1.333,0.667"/>
			<path id="_x31_0" fill="none" stroke="#000000" stroke-width="0.25" d="M446.833,888.833c0-0.333-0.25-1,0.333-1.25"/>
			<path id="_x39_" fill="none" stroke="#000000" stroke-width="0.25" d="M437.333,892.333c0.167-0.833,0.75-0.833,0.667-1.25
				c-0.083-0.667-0.833-1.25-1.75-0.333"/>
			<path id="_x38_" fill="none" stroke="#000000" stroke-width="0.25" d="M438,891.083c0.5-0.167,1-0.083,1.167,0.167"/>
			<path id="_x37_" fill="none" stroke="#000000" stroke-width="0.25" d="M436.583,888c0.333-0.333,1.167-0.25,1.667,0"/>
			<path id="_x36_" fill="none" stroke="#000000" stroke-width="0.25" d="M438.25,886c0.417,0,1.167-0.167,1.417,0.583
				c0.917-1.417,1.583-1.25,1.75-0.917"/>
			<path id="_x35_" fill="none" stroke="#000000" stroke-width="0.25" d="M443.083,885.5c0.667-0.25,1.833,0.417,2.5,1.583
				c0.333-0.917,0.833-0.75,1.333-0.833"/>
			<path id="_x34_" fill="none" stroke="#000000" stroke-width="0.25" d="M450.083,887.083c1.083-0.5,1.75,0.5,2.083,0.917
				c0.5-0.667,0.917-0.667,1.417-0.667"/>
			<path id="_x33_" fill="none" stroke="#000000" stroke-width="0.25" d="M440,889.083c0.25-0.417,0.833-0.5,1.25-0.25
				c-0.083-0.75,0.417-1.083,0.75-0.917"/>
			<path id="_x32_" d="M424.083,914.583l0.417,0.333l-0.917,1c-0.167,0.167-0.25,0.333-0.25,0.333
				c-0.083,0.167-0.083,0.25-0.083,0.333c0,0.083,0.083,0.167,0.167,0.25C423.5,917,423.667,917,423.75,917
				c0.083,0,0.167,0,0.25-0.083c0.083,0,0.167-0.083,0.25-0.25l1-1.083l0.333,0.333l-0.833,1c-0.25,0.25-0.417,0.417-0.5,0.5
				c-0.083,0.083-0.167,0.083-0.333,0.083c-0.083,0-0.25,0-0.333,0c-0.167-0.083-0.25-0.167-0.417-0.25
				c-0.167-0.167-0.333-0.333-0.333-0.5c-0.083-0.083-0.083-0.25-0.083-0.333s0-0.25,0.083-0.333c0-0.083,0.167-0.25,0.333-0.5
				L424.083,914.583L424.083,914.583z M424.333,918.167L425.75,916l0.417,0.25l-0.083,2l0.917-1.417l0.417,0.25l-1.333,2.167
				l-0.5-0.25l0.083-2l-0.917,1.417L424.333,918.167L424.333,918.167z M426.5,919.5l1.167-2.333l0.417,0.25l-1.083,2.25L426.5,919.5
				L426.5,919.5z M428.333,917.5l0.833,0.333c0.25,0.083,0.333,0.167,0.417,0.25c0.167,0.083,0.25,0.167,0.333,0.333
				c0.083,0.167,0.083,0.25,0.083,0.417c0,0.25-0.083,0.417-0.167,0.667c0,0.167-0.083,0.333-0.25,0.417
				c-0.083,0.167-0.25,0.333-0.417,0.333c-0.083,0.083-0.25,0.083-0.333,0.083c-0.167,0-0.333,0-0.5-0.083l-0.917-0.333
				L428.333,917.5L428.333,917.5z M428.667,918.083l-0.583,1.583l0.333,0.167c0.167,0,0.25,0.083,0.333,0.083
				c0.083,0,0.167,0,0.25,0c0-0.083,0.083-0.167,0.167-0.25c0.083-0.083,0.167-0.25,0.167-0.417
				c0.083-0.167,0.167-0.333,0.167-0.417c0-0.083,0-0.25-0.083-0.25c0-0.083-0.083-0.167-0.167-0.25
				c-0.083,0-0.167-0.083-0.417-0.167L428.667,918.083L428.667,918.083z M432.167,921.167l-0.583-0.083L431.5,920.5l-1-0.25
				l-0.333,0.583l-0.583-0.167l1.5-2.25l0.5,0.083L432.167,921.167L432.167,921.167z M431.417,920l-0.167-1l-0.5,0.917L431.417,920
				L431.417,920z M432.5,918.667h1c0.167,0.083,0.333,0.083,0.417,0.083c0.167,0.083,0.333,0.167,0.417,0.25
				c0.083,0.167,0.167,0.25,0.167,0.417c0.083,0.167,0.083,0.417,0.083,0.667c0,0.167,0,0.333-0.083,0.5
				c-0.083,0.167-0.167,0.333-0.333,0.417c-0.083,0.083-0.167,0.167-0.333,0.25c-0.083,0-0.25,0-0.5,0l-0.917-0.083L432.5,918.667
				L432.5,918.667z M433,919.083l-0.083,1.75h0.417c0.167,0,0.25,0,0.333,0c0.083-0.083,0.083-0.083,0.167-0.083
				c0.083-0.083,0.083-0.167,0.167-0.25c0-0.167,0.083-0.333,0.083-0.5c0-0.167,0-0.333-0.083-0.417c0-0.167,0-0.25-0.083-0.25
				c-0.083-0.083-0.167-0.167-0.25-0.167c-0.083,0-0.25,0-0.417,0L433,919.083L433,919.083z"/>
			<path id="_x31_" d="M454.333,919.25l0.5-0.083l0.25,1.5c0,0.25,0,0.417,0,0.5c-0.083,0.167-0.167,0.25-0.25,0.417
				c-0.083,0.083-0.25,0.167-0.5,0.167s-0.417,0-0.583-0.167c-0.167-0.083-0.25-0.25-0.25-0.583l0.417-0.083
				c0.083,0.167,0.083,0.25,0.167,0.333c0,0.083,0.083,0.083,0.25,0.083c0.083,0,0.167-0.083,0.167-0.167
				c0.083-0.083,0.083-0.167,0.083-0.417l-0.25-1.583V919.25z M455.167,919.083l0.5-0.083l0.25,1.333
				C456,920.5,456,920.667,456,920.75c0.083,0.083,0.167,0.167,0.25,0.167c0.083,0.083,0.167,0.083,0.333,0
				c0.167,0,0.25-0.083,0.25-0.083c0.083-0.083,0.167-0.167,0.083-0.25c0-0.083,0-0.25,0-0.417l-0.333-1.333l0.5-0.083l0.25,1.25
				c0.083,0.25,0.083,0.5,0.083,0.583c0,0.167,0,0.25-0.083,0.333c0,0.083-0.083,0.167-0.167,0.25
				c-0.167,0.083-0.333,0.167-0.5,0.167c-0.25,0.083-0.417,0.083-0.5,0.083c-0.167-0.083-0.25-0.083-0.333-0.167
				c-0.083-0.083-0.167-0.167-0.25-0.25c0-0.167-0.083-0.333-0.167-0.583L455.167,919.083L455.167,919.083z M457.75,920.25
				l0.417-0.167c0.083,0.167,0.167,0.25,0.333,0.25c0.083,0.083,0.25,0.083,0.333,0c0.167,0,0.25-0.083,0.333-0.167
				c0.083-0.083,0.083-0.167,0.083-0.25c-0.083-0.083-0.083-0.083-0.083-0.167c-0.083,0-0.167,0-0.25,0c-0.083,0-0.167,0-0.417,0
				s-0.5,0-0.583-0.083c-0.167-0.083-0.333-0.25-0.417-0.417c0-0.083,0-0.25,0-0.333c0.083-0.167,0.167-0.25,0.25-0.333
				c0.083-0.083,0.25-0.167,0.417-0.25c0.333-0.083,0.583-0.083,0.75,0c0.167,0.083,0.333,0.25,0.417,0.417l-0.5,0.167
				c-0.083-0.083-0.083-0.167-0.167-0.167c-0.083-0.083-0.25-0.083-0.333,0c-0.167,0-0.25,0.083-0.333,0.167
				c0,0.083,0,0.083,0,0.167c0,0.083,0,0.083,0.083,0.167c0.083,0,0.25,0,0.5,0s0.417,0,0.583,0c0.083,0,0.25,0.083,0.333,0.167
				c0.083,0.083,0.167,0.167,0.167,0.333c0.083,0.167,0.083,0.25,0,0.417c0,0.167-0.083,0.25-0.167,0.333
				c-0.167,0.083-0.333,0.167-0.5,0.25c-0.333,0.083-0.583,0.083-0.75,0C458,920.667,457.833,920.5,457.75,920.25L457.75,920.25z
				 M460.833,920.083L460,918.167l-0.667,0.333l-0.167-0.417l1.833-0.75l0.167,0.333L460.5,918l0.75,1.833L460.833,920.083
				L460.833,920.083z M462.25,919.417l-1.167-2.167L461.5,917l1.167,2.167L462.25,919.417L462.25,919.417z M463.917,917.417
				l0.5-0.167c0.083,0.25,0.083,0.5,0,0.667c-0.083,0.25-0.167,0.417-0.417,0.583c-0.333,0.167-0.583,0.167-0.917,0.083
				c-0.25-0.083-0.5-0.25-0.75-0.583c-0.167-0.333-0.25-0.667-0.167-1c0-0.25,0.167-0.5,0.5-0.75c0.25-0.083,0.5-0.167,0.75-0.083
				c0.167,0,0.333,0.083,0.5,0.25l-0.417,0.333c-0.083-0.083-0.167-0.167-0.333-0.167c-0.083,0-0.167,0-0.333,0.083
				s-0.25,0.25-0.25,0.417c0,0.167,0.083,0.333,0.167,0.583c0.167,0.333,0.333,0.417,0.5,0.5c0.167,0.083,0.333,0,0.5-0.083
				c0.083-0.083,0.167-0.167,0.25-0.25C464,917.667,464,917.583,463.917,917.417L463.917,917.417z M465.167,917.667l-1.5-2
				l0.417-0.333l1.5,2L465.167,917.667L465.167,917.667z M467.583,915.583l-0.417,0.333l-0.5-0.25l-0.75,0.667l0.25,0.5
				l-0.417,0.417l-0.917-2.5l0.417-0.333L467.583,915.583L467.583,915.583z M466.25,915.417L465.417,915l0.333,0.917L466.25,915.417
				L466.25,915.417z"/>
		</g>
	</g>
</switch>
</svg>