<?xml version="1.0" encoding="utf-8"?>
<svg version="1.1" id="Countryflags.com" width = "100%" height = "100%"
	 xmlns="http://www.w3.org/2000/svg" xmlns:xlink="http://www.w3.org/1999/xlink" x="0px" y="0px" viewBox="69.5 646.5 300 200"
	 enable-background="new 69.5 646.5 300 200" xml:space="preserve">
<switch>
	<g>
		<g>
			<rect id="_x33_" x="69.5" y="646.5" fill="#ED1C24" width="300" height="200"/>
			<rect id="_x32_" x="69.5" y="696.5" fill="#FFFFFF" width="300" height="100"/>
			<path id="_x31_" fill="#00A651" d="M218.136,696.5l-1.64,2.732c-0.902,1.503-3.087,3.759-4.849,5.009
				c-1.762,1.25-3.886,3.111-4.731,4.137l-1.546,1.86l1.64-0.429c0.898-0.237,2.069-0.618,2.608-0.845
				c0.539-0.228,0.979-0.101,0.979,0.286c0,0.01,0.001,0.029,0,0.039c-0.002,0.022-0.007,0.055-0.012,0.078
				c-0.238,0.964-3.052,3.172-5.286,4.098c-2.137,0.886-5.307,3.2-5.722,4.124c-0.01,0.023-0.018,0.057-0.024,0.078
				c-0.003,0.01-0.01,0.029-0.012,0.039c-0.002,0.01,0.001,0.03,0,0.039c0,0.003,0,0.01,0,0.013c0,0.003,0,0.011,0,0.013
				c0,0.002,0,0.011,0,0.013c0,0.002,0,0.011,0,0.013c0.002,0.01,0.008,0.03,0.012,0.039c0.003,0.007,0.008,0.02,0.012,0.026
				c0.002,0.002,0.011,0.011,0.012,0.013c0.003,0.004,0.008,0.009,0.012,0.013c0.002,0.002,0.01,0.011,0.012,0.013
				c0.008,0.007,0.026,0.019,0.036,0.026c0.25,0.175,0.939,0.202,1.734,0.026c1.395-0.308,1.97-0.117,2.43,0.832
				c0.705,1.452,0.301,2.107-1.321,2.107c-1.962,0-4.755,1.971-5.132,3.63c-0.254,1.112-1.324,2.02-3.622,3.07
				c-3.753,1.715-8.596,4.989-8.932,5.997c-0.008,0.028-0.011,0.067-0.012,0.091c0,1.429,3.161,1.329,7.74-0.247
				c1.027-0.353,1.479,0.007,2.254,1.77c0.959,2.182,0.943,2.236-1.286,5.112c-1.557,2.009-2.926,3.045-4.413,3.356
				c-2.963,0.62-3.884,1.221-7.729,5.061c-1.84,1.837-3.687,3.357-4.106,3.369c-0.164,0.005-0.273,0.03-0.33,0.078
				c-0.002,0.002-0.01,0.011-0.012,0.013c-0.002,0.002-0.011,0.011-0.012,0.013c-0.001,0.002-0.011,0.011-0.012,0.013
				c-0.001,0.002,0.001,0.011,0,0.013c-0.001,0.002-0.011,0.011-0.012,0.013c-0.001,0.002,0,0.01,0,0.013c0,0.002,0,0.011,0,0.013
				c0,0.002,0,0.011,0,0.013c0,0.005,0,0.021,0,0.026c0,0.003,0,0.011,0,0.013c0.002,0.011,0.008,0.028,0.012,0.039
				c0.002,0.005,0.009,0.02,0.012,0.026c0.003,0.006,0.009,0.02,0.012,0.026c0.309,0.569,2.339,1.691,3.48,1.691
				c0.836,0,2.872-0.956,4.519-2.12c2.89-2.045,3.033-2.076,4.2-0.911c0.665,0.664,1.215,1.95,1.215,2.849
				c0,1.37-0.736,1.995-4.531,3.929c-2.807,1.43-6.105,3.889-8.684,6.466c-3.466,3.463-4.45,4.102-5.923,3.864
				c-0.93-0.151-1.451-0.214-1.616-0.117c-0.005,0.003-0.019,0.009-0.024,0.013c-0.002,0.002-0.01,0.011-0.012,0.013
				c-0.002,0.002-0.01,0.01-0.012,0.013c-0.006,0.013-0.011,0.037-0.012,0.052c-0.001,0.177,0.312,0.539,0.873,1.158
				c0.531,0.586,1.764,1.067,2.738,1.067c2.654,0,11.043-3.127,13.628-5.073c2.4-1.807,4.732-2.156,6.666-1.015
				c2.992,1.766-2.011,5.321-11.433,8.13c-3.466,1.034-6.47,2.04-6.855,2.29c-0.006,0.004-0.02,0.009-0.024,0.013
				c-0.002,0.002-0.01,0.012-0.012,0.013c-0.001,0.002-0.011,0.011-0.012,0.013c-0.001,0.002,0.001,0.011,0,0.013
				c-0.135,0.223,0.064,0.811,0.472,1.353c0.984,1.307,5.934,1.37,10.159,0.117c1.691-0.501,5.901-2.205,9.357-3.773
				c6.267-2.843,6.291-2.838,8.484-1.691c5.095,2.666,4.624,7.33-1.498,14.999c-2.667,3.34-5.032,4.829-9.333,5.88
				c-1.591,0.389-4.861,3.47-4.861,4.579c0,0.109,0.021,0.196,0.047,0.273h1.097c0.241-0.176,0.487-0.43,0.732-0.754
				c1.356-1.801,4.09-3.003,6.855-3.018c3.005-0.017,6.686-1.667,9.451-4.241c2.429-2.261,4.87-2.936,6.714-1.847
				c1.022,0.603,1.951,0.663,3.186,0.195c2.195-0.832,3.28-0.43,3.28,1.21c0,0.737,0.773,1.727,1.829,2.329
				c1.01,0.576,2.812,1.985,4,3.135c0.905,0.876,1.564,1.276,1.912,1.275c0.013,0,0.035,0.002,0.047,0
				c0.009-0.001,0.027,0.002,0.036,0c0.005-0.002,0.018-0.011,0.023-0.013c0.005-0.002,0.019-0.011,0.024-0.013
				c0.014-0.007,0.035-0.016,0.047-0.026c0.002-0.002,0.01-0.011,0.012-0.013c0.002-0.002,0.01-0.011,0.012-0.013
				c0.002-0.002,0.01-0.011,0.012-0.013c0.002-0.002,0.01-0.011,0.012-0.013c0.004-0.007,0.007-0.018,0.012-0.026
				c0.002-0.005,0.009-0.02,0.012-0.026c0.002-0.006,0.01-0.02,0.012-0.026c0.003-0.009,0.01-0.029,0.012-0.039
				c0.003-0.013-0.002-0.037,0-0.052c0.036-0.385-0.263-1.16-0.955-2.25c-0.407-0.641-0.614-1.28-0.555-1.6
				c0.003-0.015,0.007-0.038,0.012-0.052c0.002-0.005,0.01-0.021,0.012-0.026c0.001-0.002-0.001-0.011,0-0.013
				c0.002-0.002,0.011-0.011,0.012-0.013c0.007-0.011,0.015-0.03,0.023-0.039c0.002-0.002,0.01-0.011,0.012-0.013
				c0.005-0.005,0.018-0.009,0.024-0.013c0.002-0.001,0.009-0.012,0.012-0.013c0.005-0.003,0.018-0.011,0.023-0.013
				c0.384-0.148,2.415-0.073,4.637,0.182c3.909,0.448,4.383,0.683,6.69,3.356c1.139,1.32,2.074,2.15,2.832,2.498h1.569
				c0.335-0.15,0.571-0.369,0.625-0.585c0.002-0.006,0.011-0.02,0.012-0.026c0.002-0.009-0.001-0.03,0-0.039c0-0.006,0-0.02,0-0.026
				c0-0.006,0-0.02,0-0.026c0-0.002,0-0.012,0-0.013c0-0.003,0.001-0.01,0-0.013c-0.134-0.449-2.449-2.651-5.227-4.969
				c-6.313-5.269-7.281-7.194-7.304-14.492c-0.013-4.364,0.194-5.482,1.215-6.609c1.591-1.754,2.466-1.712,6.371,0.325
				c2.95,1.538,3.866,1.667,10.572,1.522c7.202-0.155,7.412-0.111,11.032,2.016c2.029,1.192,4.507,2.789,5.522,3.552
				c2.239,1.684,4.513,1.802,5.05,0.26c0.634-1.821-3.623-5.352-11.622-9.614c-7.954-4.237-8.787-5.423-5.121-7.35
				c2.086-1.096,2.23-1.076,5.534,0.768c2.648,1.477,3.86,1.795,5.557,1.444l2.171-0.455l-4.779-3.916
				c-2.627-2.153-5.169-4.438-5.652-5.087c-1.396-1.877-4.095-3.122-6.749-3.122c-1.244,0-2.406-0.238-2.725-0.533
				c-0.011-0.01-0.027-0.029-0.036-0.039c-0.002-0.002-0.01-0.011-0.012-0.013c-0.004-0.005-0.009-0.021-0.012-0.026
				c-0.746-1.332,1.502-1.964,7.776-2.211c8.452-0.333,9.615-1.318,3.787-3.2c-2.327-0.752-5.814-1.703-7.752-2.12
				c-2.364-0.509-3.674-1.064-4-1.704c-0.036-0.073-0.06-0.159-0.071-0.234c-0.007-0.056-0.007-0.125,0-0.182
				c0.029-0.217,0.158-0.447,0.378-0.689c0.397-0.438,2.293-0.389,5.522,0.156c3.619,0.611,5.6,0.748,5.959,0.325
				c0.373-0.486-1.295-1.695-4.979-3.733c-3.357-1.857-7.593-4.862-9.522-6.765c-1.912-1.885-4.752-4.029-6.301-4.761
				c-2.045-0.966-2.706-1.622-2.442-2.38c0.461-1.324,3.677-1.337,5.758-0.026c0.845,0.533,3.061,0.963,4.92,0.95l3.386-0.026
				l-2.242-0.911c-2.239-0.908-8.33-5.24-8.802-6.218c-0.009-0.019-0.02-0.048-0.023-0.065c-0.001-0.006,0-0.02,0-0.026
				c0-0.002,0-0.011,0-0.013c0-0.002-0.001-0.011,0-0.013c0.001-0.002,0.011-0.011,0.012-0.013c0.002-0.003,0.009-0.009,0.012-0.013
				c0.002-0.002,0.01-0.011,0.012-0.013c0.249-0.184,1.654-0.263,3.339-0.169l3.386,0.195l-4.873-3.759
				c-3.575-2.755-5.779-3.941-8.295-4.475c-1.886-0.401-4.048-0.877-4.802-1.054c-2.021-0.474-5.415-4.012-6.796-7.09L218.136,696.5
				z M207.033,715.467c0.073-0.003,0.154,0,0.236,0c0.628,0,1.085,0.153,1.274,0.39c0.004,0.005,0.02,0.02,0.023,0.026
				c0.004,0.005,0.008,0.02,0.012,0.026c0.02,0.035,0.038,0.079,0.047,0.117c0.002,0.01,0.011,0.029,0.012,0.039
				c0.001,0.013,0,0.039,0,0.052c0,0.01,0.001,0.029,0,0.039c-0.002,0.017-0.008,0.047-0.012,0.065
				c-0.002,0.011-0.008,0.028-0.012,0.039c-0.131,0.434-0.839,1.226-1.581,1.769c-0.568,0.415-0.906,0.641-1.098,0.611
				c-0.013-0.003-0.035-0.008-0.047-0.013c-0.006-0.003-0.018-0.009-0.024-0.013c-0.011-0.008-0.026-0.029-0.035-0.039
				c-0.129-0.157-0.153-0.579-0.153-1.327C205.676,715.881,205.927,715.507,207.033,715.467z M223.469,717.158
				c0.015,0,0.02,0,0.036,0c0.959,0,1.604,0.449,1.734,1.197c0.162,0.927-0.223,1.184-1.734,1.184c-0.85,0-1.343-0.089-1.581-0.325
				c-0.177-0.184-0.211-0.46-0.141-0.859C221.91,717.619,222.535,717.172,223.469,717.158z M218.655,717.561
				c0.834-0.065,1.168,0.428,1.168,1.483c0,1.27-0.486,1.666-2.773,2.251c-1.443,0.369-2.766,0.539-3.044,0.403
				c-0.007-0.003-0.018-0.009-0.023-0.013c-0.002-0.002-0.011-0.012-0.012-0.013c-0.792-0.873-0.098-1.993,1.876-3.031
				C217.117,717.974,218.027,717.61,218.655,717.561z M229.734,717.574c1.221-0.04,1.375,0.537,0.779,2.251
				c-0.205,0.589-1.055,1.066-1.888,1.066c-1.218,0-1.48-0.294-1.321-1.522c0.141-1.092,0.677-1.59,1.888-1.743
				C229.392,717.601,229.572,717.58,229.734,717.574z M211.044,720.892c0.042-0.003,0.09,0,0.13,0c1.481,0,0.557,2.793-1.345,4.072
				c-1.694,1.139-3.495,1.628-4,1.184c-0.002-0.002-0.01-0.011-0.012-0.013c-0.032-0.032-0.063-0.075-0.082-0.117
				c-0.002-0.006-0.01-0.02-0.012-0.026c-0.003-0.009-0.009-0.03-0.012-0.039c-0.002-0.006-0.011-0.02-0.012-0.026
				c-0.002-0.01,0.002-0.029,0-0.039c-0.002-0.017-0.011-0.047-0.012-0.065c0-0.003,0-0.009,0-0.013
				C205.729,724.284,209.294,721.042,211.044,720.892z M224.956,727.357c0.705-0.085,1.153,0.689,0.909,2.107
				c-0.136,0.79-0.841,1.335-1.9,1.47c-0.809,0.103-1.307,0.067-1.498-0.156c-0.002-0.002-0.01-0.011-0.012-0.013
				c-0.008-0.011-0.016-0.027-0.023-0.039c-0.003-0.005-0.009-0.021-0.012-0.026c-0.001-0.003-0.011-0.011-0.012-0.013
				c-0.005-0.013-0.008-0.038-0.012-0.052c-0.094-0.379,0.294-1.083,1.156-2.224C224.051,727.75,224.546,727.406,224.956,727.357z
				 M219.422,727.669c0.034-0.003,0.066,0,0.095,0c1.417,0,1.647,1.248,0.366,2.004c-0.591,0.349-1.165,0.609-1.357,0.638
				c-0.006,0.001-0.018,0.013-0.024,0.013c-0.005,0-0.02-0.012-0.023-0.013c-0.107-0.037-0.889-0.289-1.734-0.573l-1.534-0.52
				l1.734-0.78C217.837,728.038,218.908,727.709,219.422,727.669z M231.351,729.231c0.67-0.036,1.395,0.094,2.1,0.39
				c1.28,0.537,1.53,1.002,1.286,2.407c-0.33,1.907-1.372,2.121-4.932,0.989c-1.749-0.557-1.929-0.824-1.368-1.977
				C228.971,729.938,230.072,729.298,231.351,729.231z M204.944,729.699c0.04,0,0.077,0,0.118,0c2.591,0,2.948,0.45,1.687,2.108
				c-0.423,0.555-1.225,1.401-1.794,1.873c-0.868,0.721-1.134,0.645-1.687-0.494c-0.658-1.356-0.863-2.247-0.543-2.784
				C203.022,729.922,203.75,729.711,204.944,729.699z M198.124,730.844c1.105-0.03,1.786,0.492,2.667,2.004l1.239,2.133
				l-1.852,0.716c-1.691,0.65-1.975,0.527-3.375-1.444c-0.882-1.243-1.219-2.067-0.979-2.589c0.022-0.046,0.051-0.102,0.083-0.143
				c0.008-0.01,0.027-0.029,0.035-0.039c0.009-0.01,0.026-0.029,0.036-0.039c0.316-0.316,0.953-0.488,1.923-0.572
				C197.978,730.863,198.051,730.845,198.124,730.844z M238.926,737.231c1.228-0.099,2.481,0.765,2.301,2.159
				c-0.228,1.771-2.162,2.283-3.752,1.002c-0.949-0.766-0.984-1.049-0.248-2.16C237.649,737.597,238.283,737.283,238.926,737.231z
				 M215.764,740.548c0.045-0.003,0.094,0,0.141,0c0.104,0,0.2,0.022,0.283,0.052c0.052,0.02,0.11,0.047,0.154,0.078
				c0.012,0.009,0.036,0.029,0.047,0.039c0.005,0.005,0.018,0.021,0.023,0.026c0.005,0.005,0.018,0.02,0.023,0.026
				c0.005,0.006,0.019,0.02,0.024,0.026c0.187,0.241,0.253,0.655,0.177,1.223c-0.244,1.825-1.452,2.361-1.97,0.872
				C214.204,741.56,214.653,740.619,215.764,740.548z M208.024,741.953c0.52-0.071,1.374,0.275,2.23,0.989
				c0.581,0.485,0.822,0.955,0.814,1.301c-0.001,0.032-0.006,0.074-0.012,0.104c-0.004,0.018-0.007,0.047-0.012,0.065
				c-0.004,0.014-0.018,0.039-0.023,0.052c-0.009,0.02-0.025,0.047-0.036,0.065c-0.004,0.006-0.008,0.02-0.012,0.026
				c-0.004,0.005-0.019,0.02-0.023,0.026c-0.02,0.025-0.047,0.056-0.071,0.078c-0.005,0.005-0.018,0.021-0.024,0.026
				c-0.355,0.275-1.109,0.21-1.97-0.455c-0.712-0.55-1.304-1.269-1.357-1.639c-0.001-0.006,0-0.02,0-0.026c0-0.005,0-0.02,0-0.026
				C207.528,742.186,207.712,741.995,208.024,741.953z M220.33,742.213c0.24-0.021,0.489,0.214,0.909,0.677
				c0.526,0.58,1.144,1.691,1.369,2.471c0.54,1.877-0.313,2.661-1.982,1.808c-1.792-0.915-2.227-2.363-1.191-3.994
				C219.829,742.554,220.075,742.236,220.33,742.213z M224.625,744.763c0.455-0.062,1.074,0.62,1.227,1.769
				c0.089,0.67-0.004,1.242-0.213,1.418c-0.002,0.002-0.01,0.011-0.012,0.013c-0.006,0.004-0.018,0.009-0.024,0.013
				c-0.008,0.005-0.027,0.01-0.035,0.013c-0.002,0.001-0.01,0.013-0.012,0.013c-0.002,0-0.009-0.001-0.012,0
				c-0.005,0.001-0.019-0.001-0.023,0c-0.002,0-0.009,0-0.012,0c-0.002,0-0.01,0-0.012,0c-0.878,0-1.38-0.792-1.38-2.198
				C224.118,745.131,224.343,744.802,224.625,744.763z M197.653,747.469c0.903-0.001,1.696,0.048,2.218,0.156
				c0.861,0.178,1.435,0.424,1.711,0.716c0.058,0.063,0.111,0.139,0.141,0.208c0.015,0.034,0.028,0.081,0.036,0.117
				c0.014,0.071,0.013,0.158,0,0.234c-0.103,0.528-0.861,1.172-2.266,1.912c-1.165,0.614-3.136,1.323-4.389,1.561
				c-2.08,0.396-2.366,0.249-3.233-1.6c-0.514-1.096-0.931-2.139-0.944-2.341c0-0.003,0-0.011,0-0.013
				c0.001-0.005-0.002-0.021,0-0.026c0.001-0.002,0.011-0.01,0.012-0.013c0.003-0.005,0.008-0.021,0.012-0.026
				c0.002-0.002,0.01-0.011,0.012-0.013C191.398,747.891,195.001,747.472,197.653,747.469z M239.492,753.557
				c2.423-0.107,3.73,1.532,1.097,3.564c-1.693,1.308-4.18,1.361-5.722,0.117c-1.11-0.895-1.053-1.023,0.967-2.381
				C237.112,753.999,238.411,753.605,239.492,753.557z M248.318,755.47c0.043-0.005,0.091,0,0.13,0
				c0.358-0.002,1.184,0.42,1.841,0.95c1.169,0.943,1.165,1.005-0.295,2.719c-0.755,0.887-1.526,1.582-1.793,1.639
				c-0.002,0-0.01,0-0.012,0c-0.002,0-0.01,0-0.012,0c-0.002,0-0.01,0-0.012,0c-0.002,0-0.01,0-0.012,0
				c-0.195-0.059-1.261-0.227-2.36-0.377c-1.223-0.168-1.994-0.66-1.994-1.262c0-0.027,0.007-0.062,0.012-0.091
				C244.005,758.034,247.03,755.628,248.318,755.47z M203.942,758.176c0.112-0.006,0.246,0,0.389,0c1.666,0,2.584,1.371,2.584,3.864
				c0,3.349-2.042,3.081-2.986-0.39C203.108,758.627,203.026,758.227,203.942,758.176z M216.626,759.125
				c1.004-0.032,3.435,0.529,3.752,0.911c0.002,0.002,0.011,0.011,0.012,0.013c0.001,0.002,0.011,0.011,0.012,0.013
				c0.001,0.002-0.001,0.011,0,0.013c0,0.002,0.011,0.011,0.012,0.013c0,0.002,0,0.011,0,0.013c0,0.002,0,0.011,0,0.013
				c0,0.002,0,0.011,0,0.013c-0.032,0.259-0.682,1.314-1.463,2.368l-1.439,1.938l-0.755-2.498c-0.373-1.245-0.602-2.368-0.555-2.654
				c0-0.002,0-0.01,0-0.013c0.001-0.004,0.011-0.009,0.012-0.013c0-0.002-0.001-0.011,0-0.013c0.001-0.003,0.01-0.011,0.012-0.013
				c0.003-0.003,0.008-0.01,0.012-0.013c0.002-0.001,0.01-0.012,0.012-0.013c0.002-0.002,0.01,0.001,0.012,0
				c0.002-0.001,0.01-0.012,0.012-0.013c0.005-0.002,0.018-0.011,0.023-0.013C216.37,759.148,216.486,759.129,216.626,759.125z
				 M210.455,760.231c0.182-0.018,0.467,0.029,0.861,0.091c0.791,0.124,1.519,0.781,1.64,1.483c0.147,0.852,0.066,1.447-0.142,1.756
				c-0.016,0.024-0.041,0.058-0.059,0.078c-0.021,0.023-0.048,0.047-0.071,0.065c-0.009,0.007-0.027,0.02-0.036,0.026
				c-0.041,0.027-0.095,0.052-0.141,0.065c-0.02,0.005-0.05,0.01-0.071,0.013c-0.035,0.003-0.081,0.004-0.118,0
				c-0.411-0.052-0.941-0.561-1.404-1.548c-0.534-1.138-0.779-1.677-0.684-1.899c0.008-0.016,0.024-0.04,0.036-0.052
				C210.307,760.269,210.369,760.239,210.455,760.231z"/>
		</g>
	</g>
</switch>
</svg>