<?xml version="1.0" encoding="utf-8"?>
<svg id="Countryflags.com" width = "100%" height = "100%"
	 xmlns="http://www.w3.org/2000/svg" xmlns:xlink="http://www.w3.org/1999/xlink" x="0px" y="0px" viewBox="-5.5 546.5 300 150"
	 enable-background="new -5.5 546.5 300 150" xml:space="preserve">
<switch>
	<g>
		<g>
			<rect id="_x33_04" x="-5.5" y="546.5" fill="#DB161B" width="300" height="150"/>
			<rect id="_x33_03" x="69.5" y="546.5" fill="#FFFFFF" width="225" height="50"/>
			<rect id="_x33_02" x="69.5" y="646.5" fill="#008000" width="225" height="50"/>
			<path id="_x33_01" fill="#FFFFFF" stroke="#DB161B" stroke-width="0.1417" d="M11.767,572.16h8.06
				c0.444,0,0.804,0.338,0.804,0.754v3.797c0,0.416-0.36,0.754-0.804,0.754h-8.06c-0.444,0-0.804-0.337-0.804-0.754v-3.797
				C10.964,572.498,11.323,572.16,11.767,572.16z"/>
			<path id="_x33_00" fill="#FFFFFF" stroke="#DB161B" stroke-width="0.1321" d="M11.974,572.38h7.646
				c0.421,0,0.763,0.309,0.763,0.691v3.48c0,0.382-0.341,0.691-0.763,0.691h-7.646c-0.421,0-0.763-0.309-0.763-0.691v-3.48
				C11.212,572.689,11.553,572.38,11.974,572.38z"/>
			<path id="_x32_99" fill="#FFFFFF" stroke="#DB161B" stroke-width="0.0834" d="M15.476,573.708l0.463,0.015l0.021,0.21
				l0.379,0.193l0.295-0.24l0.357,0.192l-0.336,0.21l0.084,0.29l0.421-0.015v0.387l-0.336-0.018l-0.168,0.243l0.379,0.275
				l-0.295,0.225l-0.316-0.243l-0.463,0.098l0.021,0.355l-0.505,0.032l-0.063-0.34l-0.421-0.177l-0.232,0.243l-0.358-0.177
				l0.211-0.275l-0.253-0.177h-0.358l-0.021-0.5l0.358,0.032l0.252-0.29l-0.295-0.225l0.379-0.26l0.273,0.21l0.463-0.063
				L15.476,573.708z"/>
			<ellipse id="_x32_98" fill="#FFFFFF" stroke="#DB161B" stroke-width="0.5" cx="15.616" cy="574.755" rx="0.509" ry="0.436"/>
			<path id="_x32_97" fill="#FFFFFF" stroke="#DB161B" stroke-width="0.1321" d="M12.451,572.603l-0.744,0.662"/>
			<path id="_x32_96" fill="#FFFFFF" stroke="#DB161B" stroke-width="0.1321" d="M12.947,572.603l-0.744,0.662"/>
			<path id="_x32_95" fill="#FFFFFF" stroke="#DB161B" stroke-width="0.1321" d="M13.442,572.603l-0.743,0.662"/>
			<path id="_x32_94" fill="#FFFFFF" stroke="#DB161B" stroke-width="0.1321" d="M13.938,572.603l-0.744,0.662"/>
			<path id="_x32_93" fill="#FFFFFF" stroke="#DB161B" stroke-width="0.1321" d="M14.434,572.603l-0.744,0.662"/>
			<path id="_x32_92" fill="#FFFFFF" stroke="#DB161B" stroke-width="0.1321" d="M14.929,572.603l-0.743,0.662"/>
			<path id="_x32_91" fill="#FFFFFF" stroke="#DB161B" stroke-width="0.1321" d="M15.426,572.603l-0.744,0.662"/>
			<path id="_x32_90" fill="#FFFFFF" stroke="#DB161B" stroke-width="0.1321" d="M15.921,572.603l-0.744,0.662"/>
			<path id="_x32_89" fill="#FFFFFF" stroke="#DB161B" stroke-width="0.1321" d="M16.417,572.603l-0.744,0.662"/>
			<path id="_x32_88" fill="#FFFFFF" stroke="#DB161B" stroke-width="0.1321" d="M16.913,572.603l-0.744,0.662"/>
			<path id="_x32_87" fill="#FFFFFF" stroke="#DB161B" stroke-width="0.1321" d="M17.408,572.603l-0.744,0.662"/>
			<path id="_x32_86" fill="#FFFFFF" stroke="#DB161B" stroke-width="0.1321" d="M17.905,572.603l-0.744,0.662"/>
			<path id="_x32_85" fill="#FFFFFF" stroke="#DB161B" stroke-width="0.1321" d="M15.921,572.603l-0.744,0.662"/>
			<path id="_x32_84" fill="#FFFFFF" stroke="#DB161B" stroke-width="0.1321" d="M18.4,572.603l-0.744,0.662"/>
			<path id="_x32_83" fill="#FFFFFF" stroke="#DB161B" stroke-width="0.1321" d="M18.896,572.603l-0.744,0.662"/>
			<path id="_x32_82" fill="#FFFFFF" stroke="#DB161B" stroke-width="0.1321" d="M19.392,572.603l-0.744,0.662"/>
			<path id="_x32_81" fill="#FFFFFF" stroke="#DB161B" stroke-width="0.1321" d="M19.887,572.603l-0.744,0.662"/>
			<path id="_x32_80" fill="#FFFFFF" stroke="#DB161B" stroke-width="0.1321" d="M19.144,572.603l0.744,0.662"/>
			<path id="_x32_79" fill="#FFFFFF" stroke="#DB161B" stroke-width="0.1321" d="M18.648,572.603l0.744,0.662"/>
			<path id="_x32_78" fill="#FFFFFF" stroke="#DB161B" stroke-width="0.1321" d="M18.152,572.603l0.744,0.662"/>
			<path id="_x32_77" fill="#FFFFFF" stroke="#DB161B" stroke-width="0.1321" d="M17.656,572.603l0.744,0.662"/>
			<path id="_x32_76" fill="#FFFFFF" stroke="#DB161B" stroke-width="0.1321" d="M17.16,572.603l0.744,0.662"/>
			<path id="_x32_75" fill="#FFFFFF" stroke="#DB161B" stroke-width="0.1321" d="M16.665,572.603l0.744,0.662"/>
			<path id="_x32_74" fill="#FFFFFF" stroke="#DB161B" stroke-width="0.1321" d="M16.169,572.603l0.744,0.662"/>
			<path id="_x32_73" fill="#FFFFFF" stroke="#DB161B" stroke-width="0.1321" d="M15.674,572.603l0.744,0.662"/>
			<path id="_x32_72" fill="#FFFFFF" stroke="#DB161B" stroke-width="0.1321" d="M15.177,572.603l0.744,0.662"/>
			<path id="_x32_71" fill="#FFFFFF" stroke="#DB161B" stroke-width="0.1321" d="M14.682,572.603l0.744,0.662"/>
			<path id="_x32_70" fill="#FFFFFF" stroke="#DB161B" stroke-width="0.1321" d="M14.186,572.603l0.744,0.662"/>
			<path id="_x32_69" fill="#FFFFFF" stroke="#DB161B" stroke-width="0.1321" d="M13.69,572.603l0.744,0.662"/>
			<path id="_x32_68" fill="#FFFFFF" stroke="#DB161B" stroke-width="0.1321" d="M15.674,572.603l0.744,0.662"/>
			<path id="_x32_67" fill="#FFFFFF" stroke="#DB161B" stroke-width="0.1321" d="M13.195,572.603l0.744,0.662"/>
			<path id="_x32_66" fill="#FFFFFF" stroke="#DB161B" stroke-width="0.1321" d="M12.699,572.603l0.743,0.662"/>
			<path id="_x32_65" fill="#FFFFFF" stroke="#DB161B" stroke-width="0.1321" d="M12.203,572.603l0.744,0.662"/>
			<path id="_x32_64" fill="#FFFFFF" stroke="#DB161B" stroke-width="0.1321" d="M11.707,572.603l0.744,0.662"/>
			<path id="_x32_63" fill="#FFFFFF" stroke="#DB161B" stroke-width="0.1321" d="M12.451,576.357l-0.744,0.665"/>
			<path id="_x32_62" fill="#FFFFFF" stroke="#DB161B" stroke-width="0.1321" d="M12.947,576.357l-0.744,0.665"/>
			<path id="_x32_61" fill="#FFFFFF" stroke="#DB161B" stroke-width="0.1321" d="M13.442,576.357l-0.743,0.665"/>
			<path id="_x32_60" fill="#FFFFFF" stroke="#DB161B" stroke-width="0.1321" d="M13.938,576.357l-0.744,0.665"/>
			<path id="_x32_59" fill="#FFFFFF" stroke="#DB161B" stroke-width="0.1321" d="M14.434,576.357l-0.744,0.665"/>
			<path id="_x32_58" fill="#FFFFFF" stroke="#DB161B" stroke-width="0.1321" d="M14.929,576.357l-0.743,0.665"/>
			<path id="_x32_57" fill="#FFFFFF" stroke="#DB161B" stroke-width="0.1321" d="M15.426,576.357l-0.744,0.665"/>
			<path id="_x32_56" fill="#FFFFFF" stroke="#DB161B" stroke-width="0.1321" d="M15.921,576.357l-0.744,0.665"/>
			<path id="_x32_55" fill="#FFFFFF" stroke="#DB161B" stroke-width="0.1321" d="M16.417,576.357l-0.744,0.665"/>
			<path id="_x32_54" fill="#FFFFFF" stroke="#DB161B" stroke-width="0.1321" d="M16.913,576.357l-0.744,0.665"/>
			<path id="_x32_53" fill="#FFFFFF" stroke="#DB161B" stroke-width="0.1321" d="M17.408,576.357l-0.744,0.665"/>
			<path id="_x32_52" fill="#FFFFFF" stroke="#DB161B" stroke-width="0.1321" d="M17.905,576.357l-0.744,0.665"/>
			<path id="_x32_51" fill="#FFFFFF" stroke="#DB161B" stroke-width="0.1321" d="M15.921,576.357l-0.744,0.665"/>
			<path id="_x32_50" fill="#FFFFFF" stroke="#DB161B" stroke-width="0.1321" d="M18.4,576.357l-0.744,0.665"/>
			<path id="_x32_49" fill="#FFFFFF" stroke="#DB161B" stroke-width="0.1321" d="M18.896,576.357l-0.744,0.665"/>
			<path id="_x32_48" fill="#FFFFFF" stroke="#DB161B" stroke-width="0.1321" d="M19.392,576.357l-0.744,0.665"/>
			<path id="_x32_47" fill="#FFFFFF" stroke="#DB161B" stroke-width="0.1321" d="M19.887,576.357l-0.744,0.665"/>
			<path id="_x32_46" fill="#FFFFFF" stroke="#DB161B" stroke-width="0.1321" d="M19.144,576.357l0.744,0.665"/>
			<path id="_x32_45" fill="#FFFFFF" stroke="#DB161B" stroke-width="0.1321" d="M18.648,576.357l0.744,0.665"/>
			<path id="_x32_44" fill="#FFFFFF" stroke="#DB161B" stroke-width="0.1321" d="M18.152,576.357l0.744,0.665"/>
			<path id="_x32_43" fill="#FFFFFF" stroke="#DB161B" stroke-width="0.1321" d="M17.656,576.357l0.744,0.665"/>
			<path id="_x32_42" fill="#FFFFFF" stroke="#DB161B" stroke-width="0.1321" d="M17.16,576.357l0.744,0.665"/>
			<path id="_x32_41" fill="#FFFFFF" stroke="#DB161B" stroke-width="0.1321" d="M16.665,576.357l0.744,0.665"/>
			<path id="_x32_40" fill="#FFFFFF" stroke="#DB161B" stroke-width="0.1321" d="M16.169,576.357l0.744,0.665"/>
			<path id="_x32_39" fill="#FFFFFF" stroke="#DB161B" stroke-width="0.1321" d="M15.674,576.357l0.744,0.665"/>
			<path id="_x32_38" fill="#FFFFFF" stroke="#DB161B" stroke-width="0.1321" d="M15.177,576.357l0.744,0.665"/>
			<path id="_x32_37" fill="#FFFFFF" stroke="#DB161B" stroke-width="0.1321" d="M14.682,576.357l0.744,0.665"/>
			<path id="_x32_36" fill="#FFFFFF" stroke="#DB161B" stroke-width="0.1321" d="M14.186,576.357l0.744,0.665"/>
			<path id="_x32_35" fill="#FFFFFF" stroke="#DB161B" stroke-width="0.1321" d="M13.69,576.357l0.744,0.665"/>
			<path id="_x32_34" fill="#FFFFFF" stroke="#DB161B" stroke-width="0.1321" d="M15.674,576.357l0.744,0.665"/>
			<path id="_x32_33" fill="#FFFFFF" stroke="#DB161B" stroke-width="0.1321" d="M13.195,576.357l0.744,0.665"/>
			<path id="_x32_32" fill="#FFFFFF" stroke="#DB161B" stroke-width="0.1321" d="M12.699,576.357l0.743,0.665"/>
			<path id="_x32_31" fill="#FFFFFF" stroke="#DB161B" stroke-width="0.1321" d="M12.203,576.357l0.744,0.665"/>
			<path id="_x32_30" fill="#FFFFFF" stroke="#DB161B" stroke-width="0.1321" d="M11.707,576.357l0.744,0.665"/>
			<path id="_x32_29" fill="#FFFFFF" stroke="#DB161B" stroke-width="0.1417" d="M52.233,572.16h-8.06
				c-0.444,0-0.804,0.338-0.804,0.754v3.797c0,0.416,0.36,0.754,0.804,0.754h8.06c0.444,0,0.804-0.337,0.804-0.754v-3.797
				C53.036,572.498,52.676,572.16,52.233,572.16z"/>
			<path id="_x32_28" fill="#FFFFFF" stroke="#DB161B" stroke-width="0.1321" d="M52.026,572.38H44.38
				c-0.421,0-0.763,0.309-0.763,0.691v3.48c0,0.382,0.342,0.691,0.763,0.691h7.646c0.421,0,0.763-0.309,0.763-0.691v-3.48
				C52.789,572.689,52.447,572.38,52.026,572.38z"/>
			<path id="_x32_27" fill="#FFFFFF" stroke="#DB161B" stroke-width="0.0834" d="M48.524,573.708l-0.463,0.015l-0.021,0.21
				l-0.379,0.193l-0.295-0.24l-0.358,0.192l0.337,0.21l-0.084,0.29l-0.421-0.015v0.387l0.337-0.018l0.168,0.243l-0.379,0.275
				l0.294,0.225l0.316-0.243l0.463,0.098l-0.021,0.355l0.505,0.032l0.063-0.34l0.421-0.177l0.231,0.243l0.358-0.177l-0.21-0.275
				l0.252-0.177h0.358l0.021-0.5l-0.358,0.032l-0.252-0.29l0.295-0.225l-0.379-0.26l-0.274,0.21l-0.463-0.063L48.524,573.708z"/>
			<ellipse id="_x32_26" fill="#FFFFFF" stroke="#DB161B" stroke-width="0.5" cx="48.384" cy="574.755" rx="0.509" ry="0.436"/>
			<path id="_x32_25" fill="#FFFFFF" stroke="#DB161B" stroke-width="0.1321" d="M51.55,572.603l0.743,0.662"/>
			<path id="_x32_24" fill="#FFFFFF" stroke="#DB161B" stroke-width="0.1321" d="M51.053,572.603l0.744,0.662"/>
			<path id="_x32_23" fill="#FFFFFF" stroke="#DB161B" stroke-width="0.1321" d="M50.558,572.603l0.744,0.662"/>
			<path id="_x32_22" fill="#FFFFFF" stroke="#DB161B" stroke-width="0.1321" d="M50.062,572.603l0.743,0.662"/>
			<path id="_x32_21" fill="#FFFFFF" stroke="#DB161B" stroke-width="0.1321" d="M49.566,572.603l0.744,0.662"/>
			<path id="_x32_20" fill="#FFFFFF" stroke="#DB161B" stroke-width="0.1321" d="M49.071,572.603l0.744,0.662"/>
			<path id="_x32_19" fill="#FFFFFF" stroke="#DB161B" stroke-width="0.1321" d="M48.574,572.603l0.744,0.662"/>
			<path id="_x32_18" fill="#FFFFFF" stroke="#DB161B" stroke-width="0.1321" d="M48.079,572.603l0.744,0.662"/>
			<path id="_x32_17" fill="#FFFFFF" stroke="#DB161B" stroke-width="0.1321" d="M47.583,572.603l0.744,0.662"/>
			<path id="_x32_16" fill="#FFFFFF" stroke="#DB161B" stroke-width="0.1321" d="M47.087,572.603l0.744,0.662"/>
			<path id="_x32_15" fill="#FFFFFF" stroke="#DB161B" stroke-width="0.1321" d="M46.592,572.603l0.744,0.662"/>
			<path id="_x32_14" fill="#FFFFFF" stroke="#DB161B" stroke-width="0.1321" d="M46.096,572.603l0.744,0.662"/>
			<path id="_x32_13" fill="#FFFFFF" stroke="#DB161B" stroke-width="0.1321" d="M48.079,572.603l0.744,0.662"/>
			<path id="_x32_12" fill="#FFFFFF" stroke="#DB161B" stroke-width="0.1321" d="M45.6,572.603l0.744,0.662"/>
			<path id="_x32_11" fill="#FFFFFF" stroke="#DB161B" stroke-width="0.1321" d="M45.104,572.603l0.744,0.662"/>
			<path id="_x32_10" fill="#FFFFFF" stroke="#DB161B" stroke-width="0.1321" d="M44.609,572.603l0.744,0.662"/>
			<path id="_x32_09" fill="#FFFFFF" stroke="#DB161B" stroke-width="0.1321" d="M44.113,572.603l0.744,0.662"/>
			<path id="_x32_08" fill="#FFFFFF" stroke="#DB161B" stroke-width="0.1321" d="M44.857,572.603l-0.744,0.662"/>
			<path id="_x32_07" fill="#FFFFFF" stroke="#DB161B" stroke-width="0.1321" d="M45.352,572.603l-0.744,0.662"/>
			<path id="_x32_06" fill="#FFFFFF" stroke="#DB161B" stroke-width="0.1321" d="M45.848,572.603l-0.744,0.662"/>
			<path id="_x32_05" fill="#FFFFFF" stroke="#DB161B" stroke-width="0.1321" d="M46.344,572.603l-0.744,0.662"/>
			<path id="_x32_04" fill="#FFFFFF" stroke="#DB161B" stroke-width="0.1321" d="M46.84,572.603l-0.744,0.662"/>
			<path id="_x32_03" fill="#FFFFFF" stroke="#DB161B" stroke-width="0.1321" d="M47.335,572.603l-0.744,0.662"/>
			<path id="_x32_02" fill="#FFFFFF" stroke="#DB161B" stroke-width="0.1321" d="M47.831,572.603l-0.744,0.662"/>
			<path id="_x32_01" fill="#FFFFFF" stroke="#DB161B" stroke-width="0.1321" d="M48.327,572.603l-0.744,0.662"/>
			<path id="_x32_00" fill="#FFFFFF" stroke="#DB161B" stroke-width="0.1321" d="M48.822,572.603l-0.744,0.662"/>
			<path id="_x31_99" fill="#FFFFFF" stroke="#DB161B" stroke-width="0.1321" d="M49.319,572.603l-0.744,0.662"/>
			<path id="_x31_98" fill="#FFFFFF" stroke="#DB161B" stroke-width="0.1321" d="M49.814,572.603l-0.744,0.662"/>
			<path id="_x31_97" fill="#FFFFFF" stroke="#DB161B" stroke-width="0.1321" d="M50.31,572.603l-0.744,0.662"/>
			<path id="_x31_96" fill="#FFFFFF" stroke="#DB161B" stroke-width="0.1321" d="M48.327,572.603l-0.744,0.662"/>
			<path id="_x31_95" fill="#FFFFFF" stroke="#DB161B" stroke-width="0.1321" d="M50.805,572.603l-0.743,0.662"/>
			<path id="_x31_94" fill="#FFFFFF" stroke="#DB161B" stroke-width="0.1321" d="M51.301,572.603l-0.744,0.662"/>
			<path id="_x31_93" fill="#FFFFFF" stroke="#DB161B" stroke-width="0.1321" d="M51.797,572.603l-0.744,0.662"/>
			<path id="_x31_92" fill="#FFFFFF" stroke="#DB161B" stroke-width="0.1321" d="M52.293,572.603l-0.743,0.662"/>
			<path id="_x31_91" fill="#FFFFFF" stroke="#DB161B" stroke-width="0.1321" d="M51.55,576.357l0.743,0.665"/>
			<path id="_x31_90" fill="#FFFFFF" stroke="#DB161B" stroke-width="0.1321" d="M51.053,576.357l0.744,0.665"/>
			<path id="_x31_89" fill="#FFFFFF" stroke="#DB161B" stroke-width="0.1321" d="M50.558,576.357l0.744,0.665"/>
			<path id="_x31_88" fill="#FFFFFF" stroke="#DB161B" stroke-width="0.1321" d="M50.062,576.357l0.743,0.665"/>
			<path id="_x31_87" fill="#FFFFFF" stroke="#DB161B" stroke-width="0.1321" d="M49.566,576.357l0.744,0.665"/>
			<path id="_x31_86" fill="#FFFFFF" stroke="#DB161B" stroke-width="0.1321" d="M49.071,576.357l0.744,0.665"/>
			<path id="_x31_85" fill="#FFFFFF" stroke="#DB161B" stroke-width="0.1321" d="M48.574,576.357l0.744,0.665"/>
			<path id="_x31_84" fill="#FFFFFF" stroke="#DB161B" stroke-width="0.1321" d="M48.079,576.357l0.744,0.665"/>
			<path id="_x31_83" fill="#FFFFFF" stroke="#DB161B" stroke-width="0.1321" d="M47.583,576.357l0.744,0.665"/>
			<path id="_x31_82" fill="#FFFFFF" stroke="#DB161B" stroke-width="0.1321" d="M47.087,576.357l0.744,0.665"/>
			<path id="_x31_81" fill="#FFFFFF" stroke="#DB161B" stroke-width="0.1321" d="M46.592,576.357l0.744,0.665"/>
			<path id="_x31_80" fill="#FFFFFF" stroke="#DB161B" stroke-width="0.1321" d="M46.096,576.357l0.744,0.665"/>
			<path id="_x31_79" fill="#FFFFFF" stroke="#DB161B" stroke-width="0.1321" d="M48.079,576.357l0.744,0.665"/>
			<path id="_x31_78" fill="#FFFFFF" stroke="#DB161B" stroke-width="0.1321" d="M45.6,576.357l0.744,0.665"/>
			<path id="_x31_77" fill="#FFFFFF" stroke="#DB161B" stroke-width="0.1321" d="M45.104,576.357l0.744,0.665"/>
			<path id="_x31_76" fill="#FFFFFF" stroke="#DB161B" stroke-width="0.1321" d="M44.609,576.357l0.744,0.665"/>
			<path id="_x31_75" fill="#FFFFFF" stroke="#DB161B" stroke-width="0.1321" d="M44.113,576.357l0.744,0.665"/>
			<path id="_x31_74" fill="#FFFFFF" stroke="#DB161B" stroke-width="0.1321" d="M44.857,576.357l-0.744,0.665"/>
			<path id="_x31_73" fill="#FFFFFF" stroke="#DB161B" stroke-width="0.1321" d="M45.352,576.357l-0.744,0.665"/>
			<path id="_x31_72" fill="#FFFFFF" stroke="#DB161B" stroke-width="0.1321" d="M45.848,576.357l-0.744,0.665"/>
			<path id="_x31_71" fill="#FFFFFF" stroke="#DB161B" stroke-width="0.1321" d="M46.344,576.357l-0.744,0.665"/>
			<path id="_x31_70" fill="#FFFFFF" stroke="#DB161B" stroke-width="0.1321" d="M46.84,576.357l-0.744,0.665"/>
			<path id="_x31_69" fill="#FFFFFF" stroke="#DB161B" stroke-width="0.1321" d="M47.335,576.357l-0.744,0.665"/>
			<path id="_x31_68" fill="#FFFFFF" stroke="#DB161B" stroke-width="0.1321" d="M47.831,576.357l-0.744,0.665"/>
			<path id="_x31_67" fill="#FFFFFF" stroke="#DB161B" stroke-width="0.1321" d="M48.327,576.357l-0.744,0.665"/>
			<path id="_x31_66" fill="#FFFFFF" stroke="#DB161B" stroke-width="0.1321" d="M48.822,576.357l-0.744,0.665"/>
			<path id="_x31_65" fill="#FFFFFF" stroke="#DB161B" stroke-width="0.1321" d="M49.319,576.357l-0.744,0.665"/>
			<path id="_x31_64" fill="#FFFFFF" stroke="#DB161B" stroke-width="0.1321" d="M49.814,576.357l-0.744,0.665"/>
			<path id="_x31_63" fill="#FFFFFF" stroke="#DB161B" stroke-width="0.1321" d="M50.31,576.357l-0.744,0.665"/>
			<path id="_x31_62" fill="#FFFFFF" stroke="#DB161B" stroke-width="0.1321" d="M48.327,576.357l-0.744,0.665"/>
			<path id="_x31_61" fill="#FFFFFF" stroke="#DB161B" stroke-width="0.1321" d="M50.805,576.357l-0.743,0.665"/>
			<path id="_x31_60" fill="#FFFFFF" stroke="#DB161B" stroke-width="0.1321" d="M51.301,576.357l-0.744,0.665"/>
			<path id="_x31_59" fill="#FFFFFF" stroke="#DB161B" stroke-width="0.1321" d="M51.797,576.357l-0.744,0.665"/>
			<path id="_x31_58" fill="#FFFFFF" stroke="#DB161B" stroke-width="0.1321" d="M52.293,576.357l-0.743,0.665"/>
			<path id="_x31_57" fill="#FFFFFF" stroke="#DB161B" stroke-width="0.2118" d="M26.128,583.28
				c-12.028,11.762-17.16,13.25-14.751,14.198c2.408,0.948,10.154-5.123,18.214-13.188c8.06-8.063,12.995-15.239,10.587-16.187
				C37.77,567.155,38.92,570.769,26.128,583.28z"/>
			<path id="_x31_56" fill="#FFFFFF" stroke="#DB161B" stroke-width="0.1651" d="M16.002,591.827l4.213,1.105
				c-3.965,3.758-8.427,5.305-9.666,4.643C9.309,596.913,12.78,595.365,16.002,591.827L16.002,591.827z"/>
			<path id="_x31_55" fill="#FFFFFF" stroke="#DB161B" stroke-width="0.1651" d="M16.002,592.27l3.47,0.885
				c-3.863,3.613-7.684,4.64-8.673,4.2C9.805,596.913,12.863,595.67,16.002,592.27z"/>
			<path id="_x31_54" fill="none" stroke="#DB161B" stroke-width="0.1651" d="M28.947,582.765c-0.01,0.058-0.038,0.31-0.063,0.41
				c0,0.14-0.015,0.245-0.03,0.355c-0.04,0.095-0.033,0.182-0.155,0.218c-0.082,0.115-0.135,0.145-0.245,0.192
				c-0.075,0.058-0.19,0.115-0.31,0.163c-0.123,0.047-0.235,0.052-0.368,0.028c-0.11-0.068-0.188-0.135-0.277-0.19
				c-0.022-0.087-0.04-0.215-0.063-0.3c0.032,0.088,0.058,0.228,0.063,0.353c-0.013,0.138-0.063,0.198-0.123,0.3"/>
			<path id="_x31_53" fill="none" stroke="#DB161B" stroke-width="0.1651" d="M27.808,584.593c-0.01-0.008-0.02-0.018-0.03-0.028
				c0.073,0.065,0.042,0.035-0.125-0.052c-0.118-0.055-0.245-0.085-0.4-0.11h-0.43c-0.167,0-0.28,0.022-0.4,0.055
				c-0.087,0.077-0.217,0.12-0.308,0.19c-0.095,0.058-0.135,0.125-0.185,0.218c-0.085,0.075-0.14,0.19-0.217,0.248
				c-0.033,0.125-0.105,0.12-0.152,0.218c0.145,0.01,0.262,0.027,0.337,0.107c0.13,0.06-0.107-0.057-0.153-0.107
				c-0.102-0.028-0.127-0.055-0.277-0.055c-0.14-0.04-0.225,0.032-0.37,0.055c-0.083,0.042-0.107,0.055-0.215,0.055"/>
			<path id="_x31_52" fill="none" stroke="#DB161B" stroke-width="0.1651" d="M26.145,585.958c-0.063,0.002-0.35,0.05-0.462,0
				c-0.125-0.03-0.2-0.09-0.278-0.193c-0.038-0.072,0,0.133,0,0.22c-0.012,0.16-0.067,0.162-0.152,0.272
				c-0.09,0.05-0.185,0.123-0.277,0.162c-0.078,0.06-0.173,0.1-0.278,0.137c-0.092,0.038-0.202,0.078-0.277,0.135
				c-0.103,0.065-0.093,0.145-0.152,0.245c0.01,0.135,0.035,0.21,0.122,0.275c0.035,0.09,0.118,0.183,0.185,0.245
				c0.075,0.125,0.16,0.182-0.032,0.218c-0.105,0.04-0.163,0.007-0.275,0"/>
			<path id="_x31_51" fill="none" stroke="#DB161B" stroke-width="0.1651" d="M24.205,587.865c-0.075-0.015-0.345-0.095-0.463-0.135
				h-0.43c-0.167,0.01-0.2,0.055-0.34,0.107c-0.09,0.083-0.152,0.14-0.277,0.193c-0.065,0.075-0.195,0.202-0.245,0.3
				c-0.037,0.093-0.063,0.218-0.063,0.355c0.002,0.157,0.05,0.185,0.063,0.327c0.035,0.115,0.09,0.223,0.185,0.325
				c0.013,0.035,0.022,0.045,0.06,0.055"/>
			<path id="_x31_50" fill="none" stroke="#DB161B" stroke-width="0.1651" d="M22.738,589.75c-0.012,0-0.043,0.07-0.087,0.13
				c-0.098,0.1-0.11,0.107-0.263,0.107c-0.135-0.005-0.123-0.052-0.217-0.088c-0.045-0.067-0.103-0.122-0.152-0.215
				c-0.035-0.055-0.068-0.143-0.11-0.193c-0.04-0.065-0.09-0.112-0.132-0.172c-0.04-0.018-0.055-0.035-0.107-0.042
				c0.125,0.02,0.135,0.063,0.217,0.127c0.038,0.063,0.078,0.125,0.11,0.195c0.012,0.093,0.042,0.165,0.042,0.28
				c0,0.117,0,0.202-0.042,0.3c-0.053,0.055-0.09,0.11-0.153,0.153c-0.052,0.048-0.115,0.113-0.155,0.17
				c-0.067,0.042-0.118,0.078-0.195,0.13c-0.067,0.037-0.137,0.077-0.24,0.087c-0.13-0.01-0.168-0.045-0.263-0.087
				c-0.083-0.06-0.147-0.098-0.22-0.15c-0.058-0.04-0.115-0.117-0.153-0.172c-0.117-0.03-0.192-0.018-0.262,0.042
				c-0.06,0.04-0.113,0.093-0.153,0.15c-0.037,0.018-0.095,0.07-0.132,0.088"/>
			<path id="_x31_49" fill="none" stroke="#DB161B" stroke-width="0.1651" d="M20.33,590.64c0.035,0.015,0.16,0.103,0.217,0.135
				c0.035,0.113,0.09,0.175,0.107,0.295c0.03,0.117,0.028,0.245,0.028,0.377c-0.03,0.137-0.088,0.238-0.135,0.347
				c-0.087,0.06-0.13,0.1-0.245,0.163c-0.107,0.015-0.215,0.028-0.353,0.028c-0.085,0.027-0.245,0.04-0.327,0
				c-0.12-0.018-0.211-0.065-0.299-0.108c-0.101-0.057-0.162-0.11-0.272-0.162c-0.053-0.078-0.136-0.147-0.217-0.243
				c-0.067-0.09-0.117-0.14-0.163-0.24c0.04,0.115,0.101,0.215,0.136,0.323c0.062,0.113,0.098,0.155,0.108,0.295
				c0.038,0.113,0.027,0.248,0.027,0.375c-0.012,0.088-0.018,0.253-0.055,0.323v0.083"/>
			<path id="_x31_48" fill="none" stroke="#DB161B" stroke-width="0.1651" d="M16.311,593.057v0.04c0-0.105-0.003-0.052,0.043,0.155
				c0.083,0.093,0.276,0.117,0.438,0.078c0.142-0.103,0.137-0.183,0.394-0.233c0.248,0.015,0.342,0.08,0.481,0.155
				c0.165,0.073,0.24,0.11,0.35,0.272c0.054,0.133,0.084,0.223-0.087,0.273c-0.137,0.087-0.299,0.135-0.481,0.157
				c-0.202,0-0.348-0.023-0.438,0.077c-0.139,0.127-0.131,0.205-0.131,0.427c-0.047,0.07-0.056,0.275-0.087,0.353
				c-0.122,0.05-0.193,0.077-0.394,0.077c-0.047-0.12-0.1-0.337-0.131-0.467c-0.034-0.14-0.045-0.335-0.131-0.43
				c-0.082-0.105-0.186-0.2-0.306-0.272c-0.054-0.067-0.156-0.123-0.263-0.155c0.172,0.078,0.196,0.163,0.219,0.35
				c-0.151,0.067-0.191,0.115-0.438,0.117c-0.242-0.018-0.3-0.073-0.393-0.195c-0.017,0.195-0.087,0.26-0.131,0.43
				c-0.09,0.117-0.128,0.238-0.219,0.387c0.039,0.19,0.122,0.198,0.131,0.43c0.057,0.153,0.051,0.298,0.175,0.39
				c0.056,0.06,0.097,0.073,0.219,0.077c-0.253,0-0.401-0.025-0.568-0.117c-0.13-0.07-0.228-0.16-0.35-0.233
				c-0.155-0.1-0.346-0.192-0.524-0.235c-0.202,0-0.348-0.02-0.438,0.077c-0.123,0.08-0.207,0.215-0.262,0.39
				c-0.04,0.202-0.056,0.337,0.044,0.468c0.074,0.152,0.091,0.21,0,0.39c-0.102,0.127-0.253,0.143-0.481,0.195
				c-0.167-0.008-0.327-0.04-0.438-0.078"/>
			<path id="_x31_47" fill="#FFFFFF" stroke="#DB161B" stroke-width="0.1676" d="M39.853,572.665
				c5.337-9.215,8.88-17.055,7.905-17.504c-0.973-0.448-6.092,6.667-11.43,15.88L39.853,572.665z"/>
			<path id="_x31_46" fill="#FFFFFF" stroke="#DB161B" stroke-width="0.1472" d="M39.5,572.502
				c5.147-8.889,8.695-16.393,7.917-16.752c-0.778-0.358-5.587,6.564-10.738,15.453"/>
			<path id="_x31_45" fill="#FFFFFF" stroke="#DB161B" stroke-width="0.1671" d="M38.615,567.865
				c-0.627,1.039-1.29,2.227-1.935,3.338l2.82,1.299c0.643-1.112,1.345-2.282,1.933-3.339L38.615,567.865z"/>
			<path id="_x31_44" fill="#FFFFFF" stroke="#DB161B" stroke-width="0.1671" d="M38.853,568.224
				c-0.625,1.039-1.063,1.834-1.705,2.945l2.112,0.973c0.645-1.111,1.12-1.889,1.708-2.945L38.853,568.224z"/>
			<polygon id="_x31_43" fill="#FFFFFF" stroke="#DB161B" stroke-width="0.1675" points="40.386,569.427 38.977,568.778 
				37.726,570.938 39.135,571.587 			"/>
			<path id="_x31_42" fill="#FFFFFF" stroke="#DB161B" stroke-width="0.1671" d="M40.387,569.428l-2.66,1.511"/>
			<path id="_x31_41" fill="#FFFFFF" stroke="#DB161B" stroke-width="0.1671" d="M39.135,571.587l-0.157-2.809"/>
			<path id="_x31_40" fill="#FFFFFF" stroke="#DB161B" stroke-width="0.1671" d="M46.758,558.432l-1.41-0.649"/>
			
				<ellipse id="_x31_39" transform="matrix(-0.2488 -0.9686 0.9686 -0.2488 -481.2766 740.8395)" fill="#DB161B" stroke="#DB161B" stroke-width="0.5" cx="46.669" cy="557.065" rx="0.36" ry="0.41"/>
			<path id="_x31_38" fill="#FFFFFF" stroke="#DB161B" stroke-width="0.2118" d="M37.873,583.28
				c12.028,11.762,17.159,13.25,14.751,14.198c-2.408,0.948-10.154-5.123-18.214-13.188c-8.06-8.063-12.995-15.239-10.587-16.187
				C26.23,567.155,25.08,570.769,37.873,583.28z"/>
			<path id="_x31_37" fill="#FFFFFF" stroke="#DB161B" stroke-width="0.1651" d="M47.998,591.827l-4.213,1.105
				c3.965,3.758,8.427,5.305,9.667,4.643C54.691,596.913,51.22,595.365,47.998,591.827L47.998,591.827z"/>
			<path id="_x31_36" fill="#FFFFFF" stroke="#DB161B" stroke-width="0.1651" d="M47.998,592.27l-3.47,0.885
				c3.863,3.613,7.684,4.64,8.673,4.2C54.195,596.913,51.137,595.67,47.998,592.27z"/>
			<path id="_x31_35" fill="none" stroke="#DB161B" stroke-width="0.1651" d="M35.052,582.765c0.01,0.058,0.038,0.31,0.063,0.41
				c0,0.14,0.015,0.245,0.03,0.355c0.04,0.095,0.032,0.182,0.155,0.218c0.083,0.115,0.135,0.145,0.245,0.192
				c0.075,0.058,0.19,0.115,0.31,0.163c0.123,0.047,0.235,0.052,0.367,0.028c0.11-0.068,0.188-0.135,0.278-0.19
				c0.022-0.087,0.04-0.215,0.063-0.3c-0.033,0.088-0.058,0.228-0.063,0.353c0.012,0.138,0.063,0.198,0.123,0.3"/>
			<path id="_x31_34" fill="none" stroke="#DB161B" stroke-width="0.1651" d="M36.193,584.593c0.01-0.008,0.02-0.018,0.03-0.028
				c-0.072,0.065-0.042,0.035,0.125-0.052c0.118-0.055,0.245-0.085,0.4-0.11h0.43c0.167,0,0.28,0.022,0.4,0.055
				c0.088,0.077,0.218,0.12,0.308,0.19c0.095,0.058,0.135,0.125,0.185,0.218c0.085,0.075,0.14,0.19,0.218,0.248
				c0.032,0.125,0.105,0.12,0.152,0.218c-0.145,0.01-0.263,0.027-0.337,0.107c-0.13,0.06,0.107-0.057,0.152-0.107
				c0.102-0.028,0.127-0.055,0.277-0.055c0.14-0.04,0.225,0.032,0.37,0.055c0.083,0.042,0.107,0.055,0.215,0.055"/>
			<path id="_x31_33" fill="none" stroke="#DB161B" stroke-width="0.1651" d="M37.855,585.958c0.063,0.002,0.35,0.05,0.462,0
				c0.125-0.03,0.2-0.09,0.277-0.193c0.038-0.072,0,0.133,0,0.22c0.013,0.16,0.068,0.162,0.153,0.272
				c0.09,0.05,0.185,0.123,0.277,0.162c0.078,0.06,0.172,0.1,0.277,0.137c0.093,0.038,0.203,0.078,0.278,0.135
				c0.102,0.065,0.092,0.145,0.152,0.245c-0.01,0.135-0.035,0.21-0.123,0.275c-0.035,0.09-0.118,0.183-0.185,0.245
				c-0.075,0.125-0.16,0.182,0.033,0.218c0.105,0.04,0.163,0.007,0.275,0"/>
			<path id="_x31_32" fill="none" stroke="#DB161B" stroke-width="0.1651" d="M39.795,587.865c0.075-0.015,0.345-0.095,0.462-0.135
				h0.43c0.167,0.01,0.2,0.055,0.34,0.107c0.09,0.083,0.152,0.14,0.277,0.193c0.065,0.075,0.195,0.202,0.245,0.3
				c0.038,0.093,0.063,0.218,0.063,0.355c-0.002,0.157-0.05,0.185-0.063,0.327c-0.035,0.115-0.09,0.223-0.185,0.325
				c-0.012,0.035-0.022,0.045-0.06,0.055"/>
			<path id="_x31_31" fill="none" stroke="#DB161B" stroke-width="0.1651" d="M41.262,589.75c0.013,0,0.042,0.07,0.088,0.13
				c0.097,0.1,0.11,0.107,0.262,0.107c0.135-0.005,0.123-0.052,0.218-0.088c0.045-0.067,0.103-0.122,0.152-0.215
				c0.035-0.055,0.067-0.143,0.11-0.193c0.04-0.065,0.09-0.112,0.133-0.172c0.04-0.018,0.055-0.035,0.107-0.042
				c-0.125,0.02-0.135,0.063-0.218,0.127c-0.038,0.063-0.077,0.125-0.11,0.195c-0.013,0.093-0.042,0.165-0.042,0.28
				c0,0.117,0,0.202,0.042,0.3c0.053,0.055,0.09,0.11,0.152,0.153c0.053,0.048,0.115,0.113,0.155,0.17
				c0.067,0.042,0.117,0.078,0.195,0.13c0.067,0.037,0.138,0.077,0.24,0.087c0.13-0.01,0.168-0.045,0.262-0.087
				c0.083-0.06,0.147-0.098,0.22-0.15c0.058-0.04,0.115-0.117,0.152-0.172c0.118-0.03,0.192-0.018,0.263,0.042
				c0.06,0.04,0.112,0.093,0.152,0.15c0.038,0.018,0.095,0.07,0.132,0.088"/>
			<path id="_x31_30" fill="none" stroke="#DB161B" stroke-width="0.1651" d="M43.67,590.64c-0.035,0.015-0.16,0.103-0.218,0.135
				c-0.035,0.113-0.09,0.175-0.107,0.295c-0.03,0.117-0.027,0.245-0.027,0.377c0.03,0.137,0.087,0.238,0.135,0.347
				c0.088,0.06,0.13,0.1,0.245,0.163c0.107,0.015,0.215,0.028,0.353,0.028c0.085,0.027,0.245,0.04,0.328,0
				c0.12-0.018,0.21-0.065,0.298-0.108c0.101-0.057,0.162-0.11,0.272-0.162c0.053-0.078,0.136-0.147,0.217-0.243
				c0.068-0.09,0.118-0.14,0.164-0.24c-0.041,0.115-0.102,0.215-0.136,0.323c-0.062,0.113-0.098,0.155-0.109,0.295
				c-0.038,0.113-0.027,0.248-0.027,0.375c0.012,0.088,0.019,0.253,0.055,0.323v0.083"/>
			<path id="_x31_29" fill="none" stroke="#DB161B" stroke-width="0.1651" d="M47.69,593.057v0.04c0-0.105,0.002-0.052-0.044,0.155
				c-0.083,0.093-0.276,0.117-0.437,0.078c-0.142-0.103-0.137-0.183-0.394-0.233c-0.248,0.015-0.342,0.08-0.481,0.155
				c-0.165,0.073-0.241,0.11-0.35,0.272c-0.054,0.133-0.084,0.223,0.088,0.273c0.137,0.087,0.299,0.135,0.481,0.157
				c0.202,0,0.347-0.023,0.437,0.077c0.139,0.127,0.131,0.205,0.131,0.427c0.046,0.07,0.056,0.275,0.087,0.353
				c0.122,0.05,0.193,0.077,0.394,0.077c0.047-0.12,0.099-0.337,0.131-0.467c0.035-0.14,0.045-0.335,0.131-0.43
				c0.082-0.105,0.186-0.2,0.306-0.272c0.053-0.067,0.155-0.123,0.262-0.155c-0.171,0.078-0.196,0.163-0.218,0.35
				c0.15,0.067,0.191,0.115,0.437,0.117c0.242-0.018,0.3-0.073,0.394-0.195c0.017,0.195,0.087,0.26,0.131,0.43
				c0.09,0.117,0.128,0.238,0.219,0.387c-0.039,0.19-0.122,0.198-0.131,0.43c-0.057,0.153-0.05,0.298-0.174,0.39
				c-0.056,0.06-0.097,0.073-0.219,0.077c0.253,0,0.4-0.025,0.568-0.117c0.13-0.07,0.228-0.16,0.35-0.233
				c0.155-0.1,0.346-0.192,0.525-0.235c0.202,0,0.347-0.02,0.437,0.077c0.124,0.08,0.207,0.215,0.262,0.39
				c0.041,0.202,0.056,0.337-0.043,0.468c-0.074,0.152-0.091,0.21,0,0.39c0.102,0.127,0.253,0.143,0.481,0.195
				c0.167-0.008,0.327-0.04,0.437-0.078"/>
			<path id="_x31_28" fill="#FFFFFF" stroke="#DB161B" stroke-width="0.1676" d="M24.148,572.665
				c-5.337-9.215-8.88-17.055-7.905-17.504c0.973-0.448,6.093,6.667,11.43,15.88L24.148,572.665z"/>
			<path id="_x31_27" fill="#FFFFFF" stroke="#DB161B" stroke-width="0.1472" d="M24.5,572.502
				c-5.147-8.889-8.695-16.393-7.917-16.752c0.777-0.358,5.587,6.564,10.737,15.453"/>
			<path id="_x31_26" fill="#FFFFFF" stroke="#DB161B" stroke-width="0.1671" d="M25.385,567.865
				c0.627,1.039,1.29,2.227,1.935,3.338l-2.82,1.299c-0.643-1.112-1.345-2.282-1.933-3.339L25.385,567.865z"/>
			<path id="_x31_25" fill="#FFFFFF" stroke="#DB161B" stroke-width="0.1671" d="M25.148,568.224
				c0.625,1.039,1.063,1.834,1.705,2.945l-2.113,0.973c-0.645-1.111-1.12-1.889-1.708-2.945L25.148,568.224z"/>
			<polygon id="_x31_24" fill="#FFFFFF" stroke="#DB161B" stroke-width="0.1675" points="23.614,569.427 25.023,568.778 
				26.275,570.938 24.865,571.587 			"/>
			<path id="_x31_23" fill="#FFFFFF" stroke="#DB161B" stroke-width="0.1671" d="M23.613,569.428l2.66,1.511"/>
			<path id="_x31_22" fill="#FFFFFF" stroke="#DB161B" stroke-width="0.1671" d="M24.865,571.587l0.158-2.809"/>
			<path id="_x31_21" fill="#FFFFFF" stroke="#DB161B" stroke-width="0.1671" d="M17.242,558.432l1.41-0.649"/>
			
				<ellipse id="_x31_20" transform="matrix(0.2494 -0.9684 0.9684 0.2494 -526.4535 434.9144)" fill="#DB161B" stroke="#DB161B" stroke-width="0.5" cx="17.331" cy="557.065" rx="0.36" ry="0.41"/>
			<path id="_x31_19" fill="#FFFFFF" stroke="#DB161B" stroke-width="0.1526" d="M28.315,567.74c0,7.736,0.045,10.65-0.525,11.051
				c-0.54,0.427-15.587,0-15.587,2.21s12.395,4.42,16.112,4.42c4.957,0,7.437-2.21,7.437-6.63V567.74H28.315z"/>
			<path id="_x31_18" fill="#FFFFFF" stroke="#DB161B" stroke-width="0.1321" d="M28.315,569.949v1.105
				c2.48,0.369,4.957,0.369,7.437,0v-1.105C33.273,570.318,30.795,570.318,28.315,569.949z"/>
			<path id="_x31_17" fill="#FFFFFF" stroke="#DB161B" stroke-width="0.1321" d="M28.315,567.74v1.105
				c2.48,0.368,4.957,0.368,7.437,0v-1.105C33.273,568.108,30.795,568.108,28.315,567.74z"/>
			<path id="_x31_16" fill="#FFFFFF" stroke="#DB161B" stroke-width="0.1321" d="M28.315,568.844v1.105
				c2.48,0.369,4.957,0.369,7.437,0v-1.105C33.273,569.213,30.795,569.213,28.315,568.844z"/>
			<path id="_x31_15" fill="#FFFFFF" stroke="#DB161B" stroke-width="0.1321" d="M28.315,571.054v1.105
				c2.48,0.368,4.957,0.368,7.437,0v-1.105C33.273,571.423,30.795,571.423,28.315,571.054z"/>
			<ellipse id="_x31_14" fill="#FFFFFF" stroke="#DB161B" stroke-width="2.2314" cx="28.653" cy="569.473" rx="0.338" ry="0.238"/>
			<ellipse id="_x31_13" fill="#FFFFFF" stroke="#DB161B" stroke-width="2.2314" cx="30.005" cy="569.592" rx="0.338" ry="0.238"/>
			<ellipse id="_x31_12" fill="#FFFFFF" stroke="#DB161B" stroke-width="2.2315" cx="31.358" cy="569.711" rx="0.338" ry="0.238"/>
			<ellipse id="_x31_11" fill="#FFFFFF" stroke="#DB161B" stroke-width="2.2315" cx="32.71" cy="569.711" rx="0.338" ry="0.238"/>
			<ellipse id="_x31_10" fill="#FFFFFF" stroke="#DB161B" stroke-width="2.2314" cx="34.061" cy="569.592" rx="0.338" ry="0.238"/>
			<ellipse id="_x31_09" fill="#FFFFFF" stroke="#DB161B" stroke-width="2.2314" cx="35.414" cy="569.473" rx="0.338" ry="0.238"/>
			<path id="_x31_08" fill="#FFFFFF" stroke="#DB161B" stroke-width="0.1321" d="M28.315,573.265l7.437,5.968"/>
			<path id="_x31_07" fill="#FFFFFF" stroke="#DB161B" stroke-width="0.1321" d="M29.058,573.265l6.695,5.303"/>
			<path id="_x31_06" fill="#FFFFFF" stroke="#DB161B" stroke-width="0.1321" d="M30.05,573.485l5.703,4.42"/>
			<path id="_x31_05" fill="#FFFFFF" stroke="#DB161B" stroke-width="0.1321" d="M30.795,573.485l4.958,3.757"/>
			<path id="_x31_04" fill="#FFFFFF" stroke="#DB161B" stroke-width="0.1321" d="M31.538,573.485l4.215,3.095"/>
			<path id="_x31_03" fill="#FFFFFF" stroke="#DB161B" stroke-width="0.1321" d="M32.28,573.485l3.473,2.432"/>
			<path id="_x31_02" fill="#FFFFFF" stroke="#DB161B" stroke-width="0.1321" d="M33.025,573.485l2.728,1.767"/>
			<path id="_x31_01" fill="#FFFFFF" stroke="#DB161B" stroke-width="0.1321" d="M33.768,573.485l1.985,1.327"/>
			<path id="_x31_00" fill="#FFFFFF" stroke="#DB161B" stroke-width="0.1321" d="M34.512,573.485l1.24,0.885"/>
			<path id="_x39_9" fill="#FFFFFF" stroke="#DB161B" stroke-width="0.1321" d="M35.255,573.485l0.498,0.442"/>
			<path id="_x39_8" fill="#FFFFFF" stroke="#DB161B" stroke-width="0.1321" d="M28.315,573.927l7.437,5.968"/>
			<path id="_x39_7" fill="#FFFFFF" stroke="#DB161B" stroke-width="0.1321" d="M35.753,573.265l-8.18,6.63"/>
			<path id="_x39_6" fill="#FFFFFF" stroke="#DB161B" stroke-width="0.1321" d="M35.008,573.265l-7.188,5.745"/>
			<path id="_x39_5" fill="#FFFFFF" stroke="#DB161B" stroke-width="0.1321" d="M34.018,573.485l-5.703,4.42"/>
			<path id="_x39_4" fill="#FFFFFF" stroke="#DB161B" stroke-width="0.1321" d="M33.273,573.485l-4.957,3.757"/>
			<path id="_x39_3" fill="#FFFFFF" stroke="#DB161B" stroke-width="0.1321" d="M32.53,573.485l-4.215,3.095"/>
			<path id="_x39_2" fill="#FFFFFF" stroke="#DB161B" stroke-width="0.1321" d="M31.785,573.485l-3.47,2.432"/>
			<path id="_x39_1" fill="#FFFFFF" stroke="#DB161B" stroke-width="0.1321" d="M31.043,573.485l-2.728,1.767"/>
			<path id="_x39_0" fill="#FFFFFF" stroke="#DB161B" stroke-width="0.1321" d="M30.298,573.485l-1.982,1.327"/>
			<path id="_x38_9" fill="#FFFFFF" stroke="#DB161B" stroke-width="0.1321" d="M29.555,573.485l-1.24,0.885"/>
			<path id="_x38_8" fill="#FFFFFF" stroke="#DB161B" stroke-width="0.1321" d="M28.81,573.485l-0.495,0.442"/>
			<path id="_x38_7" fill="#FFFFFF" stroke="#DB161B" stroke-width="0.1321" d="M35.753,573.927l-8.18,6.63"/>
			<path id="_x38_6" fill="#FFFFFF" stroke="#DB161B" stroke-width="0.1321" d="M35.753,574.59l-8.18,6.63"/>
			<path id="_x38_5" fill="#FFFFFF" stroke="#DB161B" stroke-width="0.1321" d="M35.753,575.252l-8.18,6.633"/>
			<path id="_x38_4" fill="#FFFFFF" stroke="#DB161B" stroke-width="0.1321" d="M35.753,575.917l-8.18,6.63"/>
			<path id="_x38_3" fill="#FFFFFF" stroke="#DB161B" stroke-width="0.1321" d="M35.753,576.58l-8.18,6.63"/>
			<path id="_x38_2" fill="#FFFFFF" stroke="#DB161B" stroke-width="0.1321" d="M35.753,577.242l-8.18,6.63"/>
			<path id="_x38_1" fill="#FFFFFF" stroke="#DB161B" stroke-width="0.1321" d="M35.753,577.905l-8.18,6.63"/>
			<path id="_x38_0" fill="#FFFFFF" stroke="#DB161B" stroke-width="0.1321" d="M35.753,578.57l-8.18,6.63"/>
			<path id="_x37_9" fill="#FFFFFF" stroke="#DB161B" stroke-width="0.1321" d="M35.753,579.232l-7.685,6.188"/>
			<path id="_x37_8" fill="#FFFFFF" stroke="#DB161B" stroke-width="0.1321" d="M35.753,579.895l-6.942,5.525"/>
			<path id="_x37_7" fill="#FFFFFF" stroke="#DB161B" stroke-width="0.1321" d="M35.503,580.78l-5.453,4.42"/>
			<path id="_x37_6" fill="#FFFFFF" stroke="#DB161B" stroke-width="0.1321" d="M35.255,581.663l-4.46,3.537"/>
			<path id="_x37_5" fill="#FFFFFF" stroke="#DB161B" stroke-width="0.1321" d="M34.76,582.768l-2.23,1.767"/>
			<path id="_x37_4" fill="#FFFFFF" stroke="#DB161B" stroke-width="0.1321" d="M28.315,574.59l7.187,5.747"/>
			<path id="_x37_3" fill="#FFFFFF" stroke="#DB161B" stroke-width="0.1321" d="M28.315,575.252L35.503,581"/>
			<path id="_x37_2" fill="#FFFFFF" stroke="#DB161B" stroke-width="0.1321" d="M28.315,575.917l6.94,5.525"/>
			<path id="_x37_1" fill="#FFFFFF" stroke="#DB161B" stroke-width="0.1321" d="M28.315,576.58l6.94,5.525"/>
			<path id="_x37_0" fill="#FFFFFF" stroke="#DB161B" stroke-width="0.1321" d="M28.315,577.242l6.692,5.305"/>
			<path id="_x36_9" fill="#FFFFFF" stroke="#DB161B" stroke-width="0.1321" d="M28.068,577.685l6.692,5.305"/>
			<path id="_x36_8" fill="#FFFFFF" stroke="#DB161B" stroke-width="0.1321" d="M28.068,578.347l6.197,4.863"/>
			<path id="_x36_7" fill="#FFFFFF" stroke="#DB161B" stroke-width="0.1321" d="M27.82,578.79l6.198,4.863"/>
			<path id="_x36_6" fill="#FFFFFF" stroke="#DB161B" stroke-width="0.1321" d="M27.572,579.232l5.948,4.64"/>
			<path id="_x36_5" fill="#FFFFFF" stroke="#DB161B" stroke-width="0.1321" d="M27.572,579.895l5.7,4.42"/>
			<path id="_x36_4" fill="#FFFFFF" stroke="#DB161B" stroke-width="0.1321" d="M27.572,580.557l4.958,3.978"/>
			<path id="_x36_3" fill="#FFFFFF" stroke="#DB161B" stroke-width="0.1321" d="M28.315,572.16v1.105
				c2.48,0.368,4.957,0.368,7.437,0v-1.105C33.273,572.528,30.795,572.528,28.315,572.16z"/>
			<path id="_x36_2" fill="#FFFFFF" stroke="#DB161B" stroke-width="0.1321" d="M27.572,581.22l4.46,3.538"/>
			<path id="_x36_1" fill="#FFFFFF" stroke="#DB161B" stroke-width="0.1321" d="M27.572,581.885l3.965,3.093"/>
			<path id="_x36_0" fill="#FFFFFF" stroke="#DB161B" stroke-width="0.1321" d="M27.572,582.548l3.47,2.652"/>
			<path id="_x35_9" fill="#FFFFFF" stroke="#DB161B" stroke-width="0.1321" d="M27.572,583.21l2.478,1.99"/>
			<path id="_x35_8" fill="#FFFFFF" stroke="#DB161B" stroke-width="0.1321" d="M27.572,583.873l1.982,1.547"/>
			<path id="_x35_7" fill="#FFFFFF" stroke="#DB161B" stroke-width="0.1321" d="M27.572,584.535l1.238,0.885"/>
			<ellipse id="_x35_6" fill="#FFFFFF" stroke="#DB161B" stroke-width="2.2314" cx="28.653" cy="572.788" rx="0.338" ry="0.238"/>
			<ellipse id="_x35_5" fill="#FFFFFF" stroke="#DB161B" stroke-width="2.2314" cx="30.005" cy="572.907" rx="0.338" ry="0.238"/>
			<ellipse id="_x35_4" fill="#FFFFFF" stroke="#DB161B" stroke-width="2.2315" cx="31.358" cy="573.026" rx="0.338" ry="0.238"/>
			<ellipse id="_x35_3" fill="#FFFFFF" stroke="#DB161B" stroke-width="2.2315" cx="32.71" cy="573.026" rx="0.338" ry="0.238"/>
			<ellipse id="_x35_2" fill="#FFFFFF" stroke="#DB161B" stroke-width="2.2314" cx="34.061" cy="572.907" rx="0.338" ry="0.238"/>
			<ellipse id="_x35_1" fill="#FFFFFF" stroke="#DB161B" stroke-width="2.2314" cx="35.414" cy="572.788" rx="0.338" ry="0.238"/>
			<path id="_x35_0" fill="#FFFFFF" stroke="#DB161B" stroke-width="0.1321" d="M17.656,583.653l8.924-4.643"/>
			<path id="_x34_9" fill="#FFFFFF" stroke="#DB161B" stroke-width="0.1321" d="M17.16,583.43l8.427-4.42"/>
			<path id="_x34_8" fill="#FFFFFF" stroke="#DB161B" stroke-width="0.1321" d="M16.913,582.99l7.685-3.98"/>
			<path id="_x34_7" fill="#FFFFFF" stroke="#DB161B" stroke-width="0.1321" d="M16.665,582.548l6.693-3.538"/>
			<path id="_x34_6" fill="#FFFFFF" stroke="#DB161B" stroke-width="0.1321" d="M16.169,582.105l6.196-3.095"/>
			<path id="_x34_5" fill="#FFFFFF" stroke="#DB161B" stroke-width="0.1321" d="M16.417,581.443l4.213-2.21"/>
			<path id="_x34_4" fill="#FFFFFF" stroke="#DB161B" stroke-width="0.1321" d="M16.169,581l3.223-1.768"/>
			<path id="_x34_3" fill="#FFFFFF" stroke="#DB161B" stroke-width="0.1321" d="M16.169,580.337l2.231-1.105"/>
			<path id="_x34_2" fill="#FFFFFF" stroke="#DB161B" stroke-width="0.1321" d="M18.4,583.873l8.427-4.42"/>
			<path id="_x34_1" fill="#FFFFFF" stroke="#DB161B" stroke-width="0.1321" d="M19.144,584.095l7.931-4.2"/>
			<path id="_x34_0" fill="#FFFFFF" stroke="#DB161B" stroke-width="0.1321" d="M19.887,584.315l7.435-3.978"/>
			<path id="_x33_9" fill="#FFFFFF" stroke="#DB161B" stroke-width="0.1321" d="M20.63,584.535l6.197-3.315"/>
			<path id="_x33_8" fill="#FFFFFF" stroke="#DB161B" stroke-width="0.1321" d="M21.623,584.535l5.452-2.872"/>
			<path id="_x33_7" fill="#FFFFFF" stroke="#DB161B" stroke-width="0.1321" d="M22.365,584.758l4.71-2.433"/>
			<path id="_x33_6" fill="#FFFFFF" stroke="#DB161B" stroke-width="0.1321" d="M23.11,584.978l3.717-1.988"/>
			<path id="_x33_5" fill="#FFFFFF" stroke="#DB161B" stroke-width="0.1321" d="M24.1,584.978l2.975-1.548"/>
			<path id="_x33_4" fill="#FFFFFF" stroke="#DB161B" stroke-width="0.1321" d="M25.093,585.2l1.982-1.105"/>
			<path id="_x33_3" fill="#FFFFFF" stroke="#DB161B" stroke-width="0.1321" d="M26.085,585.2l1.237-0.665"/>
			<path id="_x33_2" fill="#FFFFFF" stroke="#DB161B" stroke-width="0.1321" d="M27.82,578.79h-1.24c-0.413,2.21-0.413,4.42,0,6.63
				h1.24C27.405,583.21,27.405,581,27.82,578.79z"/>
			<path id="_x33_1" fill="#FFFFFF" stroke="#DB161B" stroke-width="0.1321" d="M13.195,581.885l2.975-2.21"/>
			<path id="_x33_0" fill="#FFFFFF" stroke="#DB161B" stroke-width="0.1321" d="M13.195,580.337l2.975,2.653"/>
			<path id="_x32_9" fill="#FFFFFF" stroke="#DB161B" stroke-width="0.094" d="M17.656,579.232l-1.487,0.22
				c-0.331,1.4-0.331,2.578,0,3.978l1.487,0.443C17.326,582.472,17.326,580.633,17.656,579.232L17.656,579.232z"/>
			<path id="_x32_8" fill="#FFFFFF" stroke="#DB161B" stroke-width="0.1617" d="M35.742,568.181v-1.114
				c-1.112,0.009-1.857-0.654-1.857-1.326l-3.712,0.009c0,0.663-0.743,1.326-1.857,1.326v1.105H35.742z"/>
			<rect id="_x32_7" x="30.438" y="564.424" fill="#FFFFFF" stroke="#DB161B" stroke-width="0.1367" width="3.184" height="1.326"/>
			<rect id="_x32_6" x="30.702" y="563.098" fill="#FFFFFF" stroke="#DB161B" stroke-width="0.1367" width="2.653" height="1.326"/>
			<rect id="_x32_5" x="30.702" y="561.772" fill="#FFFFFF" stroke="#DB161B" stroke-width="0.1367" width="2.653" height="1.326"/>
			<rect id="_x32_4" x="30.968" y="560.004" fill="#FFFFFF" stroke="#DB161B" stroke-width="0.1367" width="2.123" height="1.768"/>
			<rect id="_x32_3" x="30.878" y="558.457" fill="#FFFFFF" stroke="#DB161B" stroke-width="0.1424" width="2.305" height="1.547"/>
			<ellipse id="_x32_2" fill="#FFFFFF" stroke="#DB161B" stroke-width="0.5" cx="32.157" cy="557.021" rx="3.073" ry="2.099"/>
			<path id="_x32_1" fill="#FFFFFF" stroke="#DB161B" stroke-width="0.1343" d="M33.695,556.91c0,0.58,0.768,1.547,0.768,1.547
				c-0.558,0.38-1.457,0.663-2.305,0.663c-0.847,0-1.905-0.158-2.305-0.663c0,0,0.768-0.968,0.768-1.547
				c0-0.579-0.768-1.326-0.768-1.326c0.555-0.38,1.457-0.663,2.305-0.663c0.848,0,1.748,0.283,2.305,0.663
				C34.463,555.584,33.695,556.331,33.695,556.91z"/>
			<path id="_x32_0" fill="#FFFFFF" stroke="#DB161B" stroke-width="0.1343" d="M33.183,556.91c0,0.58,0.767,1.768,0.767,1.768
				c-0.555,0.38-0.945,0.442-1.792,0.442c-0.847,0-1.393,0.063-1.792-0.442c0,0,0.768-1.188,0.768-1.768
				c0-0.579-0.768-1.547-0.768-1.547c0.555-0.38,0.945-0.442,1.792-0.442c0.848,0,1.238,0.062,1.792,0.442
				C33.95,555.363,33.183,556.331,33.183,556.91z"/>
			<ellipse id="_x31_9" fill="#FFFFFF" stroke="#DB161B" stroke-width="0.5" cx="29.084" cy="557.131" rx="0.768" ry="0.663"/>
			<ellipse id="_x31_8" fill="#FFFFFF" stroke="#DB161B" stroke-width="0.5" cx="35.231" cy="557.131" rx="0.769" ry="0.663"/>
			<ellipse id="_x31_7" fill="#FFFFFF" stroke="#DB161B" stroke-width="0.5" cx="32.157" cy="557.131" rx="0.769" ry="0.663"/>
			<ellipse id="_x31_6" fill="#FFFFFF" stroke="#DB161B" stroke-width="0.5" cx="32.157" cy="554.921" rx="0.769" ry="0.663"/>
			<ellipse id="_x31_5" fill="#FFFFFF" stroke="#DB161B" stroke-width="0.5" cx="29.907" cy="567.519" rx="0.796" ry="0.663"/>
			<ellipse id="_x31_4" fill="#FFFFFF" stroke="#DB161B" stroke-width="0.5" cx="34.152" cy="567.519" rx="0.796" ry="0.663"/>
			<path id="_x31_3" fill="#FFFFFF" stroke="#DB161B" stroke-width="0.1367" d="M30.173,565.75h3.712l-1.855,1.989L30.173,565.75z"
				/>
			<ellipse id="_x31_2" fill="#FFFFFF" stroke="#DB161B" stroke-width="0.5" cx="32.029" cy="567.298" rx="1.061" ry="0.884"/>
			<path id="_x31_1" fill="#FFFFFF" stroke="#DB161B" stroke-width="0.1651" d="M28.252,573.93h5.082c0.171,0,0.31,0.105,0.31,0.235
				v0.857c0,0.13-0.139,0.235-0.31,0.235h-5.082c-0.171,0-0.31-0.105-0.31-0.235v-0.857C27.943,574.035,28.081,573.93,28.252,573.93
				z"/>
			<path id="_x31_0" fill="#FFFFFF" stroke="#DB161B" stroke-width="0.1651" d="M35.38,572.825c-0.688,0-1.24,0.515-1.24,1.155
				v1.005c0,0.64,0.553,1.155,1.24,1.155s1.24-0.515,1.24-1.155v-1.005C36.62,573.34,36.068,572.825,35.38,572.825z M35.38,573.268
				c-0.413,0-0.745,0.412-0.745,0.925v0.582c0,0.513,0.333,0.923,0.745,0.923c0.413,0,0.743-0.41,0.743-0.923v-0.582
				C36.123,573.68,35.793,573.268,35.38,573.268z"/>
			<path id="_x39_" fill="#FFFFFF" stroke="#DB161B" stroke-width="0.1651" d="M28.935,573.048c-0.413,0-0.743,0.41-0.743,0.922
				v1.025c0,0.513,0.33,0.925,0.743,0.925c0.412,0,0.742-0.412,0.742-0.925v-1.025C29.677,573.458,29.347,573.048,28.935,573.048z
				 M28.935,572.605c-0.688,0-1.24,0.515-1.24,1.155v1.448c0,0.64,0.553,1.155,1.24,1.155s1.24-0.515,1.24-1.155v-1.448
				C30.175,573.12,29.623,572.605,28.935,572.605z"/>
			<path id="_x38_" fill="#FFFFFF" stroke="#DB161B" stroke-width="0.1651" d="M26.952,573.488c-0.412,0-0.745,0.412-0.745,0.925
				v0.24c0,0.512,0.333,0.925,0.745,0.925c0.413,0,0.743-0.412,0.743-0.925v-0.24C27.695,573.9,27.365,573.488,26.952,573.488z
				 M26.952,573.048c-0.688,0-1.24,0.515-1.24,1.155v0.663c0,0.64,0.552,1.155,1.24,1.155c0.685,0,1.24-0.515,1.24-1.155v-0.663
				C28.193,573.563,27.637,573.048,26.952,573.048z"/>
			<path id="_x37_" fill="#FFFFFF" stroke="#DB161B" stroke-width="0.1651" d="M23.978,572.877c-0.743,0-1.338,0.46-1.338,1.032
				v1.145c0,0.573,0.595,1.032,1.338,1.032c0.742,0,1.337-0.46,1.337-1.032v-1.145C25.315,573.337,24.72,572.877,23.978,572.877z
				 M23.978,572.383c-1.235,0-2.23,0.577-2.23,1.292v1.617c0,0.715,0.995,1.29,2.23,1.29c1.235,0,2.23-0.575,2.23-1.29v-1.617
				C26.208,572.96,25.213,572.383,23.978,572.383z"/>
			<path id="_x36_" fill="#FFFFFF" stroke="#DB161B" stroke-width="0.1651" d="M40.09,573.097c-0.743,0-1.34,0.463-1.34,1.035v1.145
				c0,0.573,0.597,1.032,1.34,1.032c0.74,0,1.337-0.46,1.337-1.032v-1.145C41.427,573.56,40.83,573.097,40.09,573.097z
				 M40.09,572.605c-1.237,0-2.232,0.575-2.232,1.29v1.617c0,0.715,0.995,1.29,2.232,1.29c1.235,0,2.23-0.575,2.23-1.29v-1.617
				C42.32,573.18,41.325,572.605,40.09,572.605z"/>
			<path id="_x35_" fill="#FFFFFF" stroke="#DB161B" stroke-width="0.1651" d="M36.036,573.93h2.652
				c0.089,0,0.162,0.105,0.162,0.235v0.857c0,0.13-0.073,0.235-0.162,0.235h-2.652c-0.089,0-0.161-0.105-0.161-0.235v-0.857
				C35.875,574.035,35.947,573.93,36.036,573.93z"/>
			<path id="_x34_" fill="#FFFFFF" stroke="#DB161B" stroke-width="0.1651" d="M33.244,573.71h1.547c0.052,0,0.094,0.14,0.094,0.313
				v1.143c0,0.173-0.042,0.313-0.094,0.313h-1.547c-0.052,0-0.094-0.14-0.094-0.313v-1.143
				C33.15,573.85,33.192,573.71,33.244,573.71z"/>
			<path id="_x33_" fill="#FFFFFF" stroke="#DB161B" stroke-width="0.1651" d="M25.064,573.71h1.547c0.052,0,0.094,0.14,0.094,0.313
				v1.143c0,0.173-0.042,0.313-0.094,0.313h-1.547c-0.052,0-0.094-0.14-0.094-0.313v-1.143
				C24.97,573.85,25.012,573.71,25.064,573.71z"/>
			<path id="_x32_" fill="#FFFFFF" stroke="#DB161B" stroke-width="0.1651" d="M19.703,573.488h3.094
				c0.104,0,0.188,0.175,0.188,0.391v1.428c0,0.216-0.084,0.391-0.188,0.391h-3.094c-0.104,0-0.188-0.175-0.188-0.391v-1.428
				C19.515,573.663,19.599,573.488,19.703,573.488z"/>
			<path id="_x31_" fill="#FFFFFF" stroke="#DB161B" stroke-width="0.1651" d="M41.255,573.71h2.873
				c0.097,0,0.175,0.175,0.175,0.391v1.428c0,0.216-0.078,0.391-0.175,0.391h-2.873c-0.097,0-0.175-0.175-0.175-0.391v-1.428
				C41.08,573.885,41.158,573.71,41.255,573.71z"/>
		</g>
	</g>
</switch>
</svg>