<?xml version="1.0" encoding="utf-8"?>
<svg version="1.1" id="Countryflags.com" width = "100%" height = "100%"
	 xmlns="http://www.w3.org/2000/svg" xmlns:xlink="http://www.w3.org/1999/xlink" x="0px" y="0px" viewBox="-5.5 546.5 300 150"
	 enable-background="new -5.5 546.5 300 150" xml:space="preserve">
<switch>
	<g>
		<g>
			<rect id="_x35_3" x="-5.5" y="546.5" fill="#00AFCA" width="300" height="150"/>
			<path id="_x35_2" fill="#FEC50C" d="M12.197,590.32c0,3.041,2.729,4.603,4.875,4.603c2.89,0,4.429-1.728,4.429-3.99
				c0-1.282-0.235-2.087-0.826-3.314c0,0-4.767-9.914-6.623-13.748c-0.231-0.478-0.306-1.023-0.306-1.821
				c0-1.233,1.195-2.24,2.449-2.271c1.143-0.029,2.388,1.065,2.388,2.312c0,1.514-0.786,2.189-1.592,2.189
				c-0.993,0-1.388-0.408-1.388-1.105c0-0.485,0.235-0.696,0.572-0.696c0.851,0,0.612,1.146,0.612,1.146
				c0.422-0.093,0.77-0.524,0.571-1.064c0.309-0.069,0.599-0.231,0.827-0.491c-0.229-0.221-0.49-0.392-0.827-0.45
				c0.199-0.658-0.067-0.98-0.643-1.115c0.116,0.253,0.121,0.486,0.082,0.706c-0.907-0.258-2.296,0.152-2.296,1.719
				c0,1.555,1.079,2.864,3.103,2.537c-0.481,0.23-0.726,0.701-0.775,1.228c0.367-0.143,0.775-0.164,0.775-0.164
				c-0.237,0.417-0.565,0.777-0.551,1.596c0.375-0.171,0.724-0.486,1.204-0.286c-0.754,1.484,0.172,3.527,2.531,4.01
				c-0.863-1.012-1.286-2.104-1.286-3.192c0-3.524,0.979-4.117,0.979-6.567c0-1.025-0.527-2.132-1.571-2.885v0.041
				c0.69-0.185,1.132-0.525,1.387-0.987c-1.577-0.447-3.87-0.439-5.101,0.045c-1.415,0.164-2.403,1.25-2.694,1.801
				s-0.856,2.543,0,4.337c0.937,1.963,5.356,11.334,6.734,14.28c0.292,0.625,0.47,1.287,0.47,2.005c0,1.804-1.653,2.434-2.592,2.434
				c-1.122,0-2.265-0.855-2.265-1.923c0-0.677,0.367-1.084,0.898-1.084c1.269,0,1.192,1.079,0.939,1.76
				c0.79-0.355,1.249-0.989,1.123-1.657c0.447-0.061,0.873-0.273,1.265-0.716c-0.309-0.39-0.686-0.685-1.265-0.696
				c0.253-1.037-0.441-1.475-1.123-1.718c0.215,0.761,0.357,1.636-0.939,1.636c-0.945,0-1.688,0.164-2.123,0.778
				c-0.025-0.818-0.102-4.051-0.102-4.051c-0.054-1.215,1.626-1.18,2.694-0.818c-0.403-1.399-1.229-2.156-3.143-1.964
				c0.464-0.194,0.959-0.631,0.959-1.473c0-1.139-0.924-2.401-1.531-2.774L12.197,590.32L12.197,590.32z"/>
			<path id="_x35_1" fill="#FEC50C" d="M161.043,587.016c1.179,0.219,1.767-0.428,1.942-1.311c0.234-1.176-0.269-7.101-0.269-7.101
				s-2.732,5.281-2.966,6.457C159.574,585.945,159.866,586.782,161.043,587.016z"/>
			<path id="_x35_0" fill="#FEC50C" d="M165.343,588.321c1.114,0.445,1.816-0.075,2.161-0.906c0.459-1.108,1.121-7.017,1.121-7.017
				s-3.709,4.646-4.168,5.755C164.113,586.983,164.235,587.862,165.343,588.321z"/>
			<path id="_x34_9" fill="#FEC50C" d="M169.307,590.439c1.005,0.654,1.796,0.281,2.296-0.467c0.666-0.997,2.468-6.663,2.468-6.663
				s-4.545,3.833-5.211,4.831C168.36,588.887,168.309,589.773,169.307,590.439z"/>
			<path id="_x34_8" fill="#FEC50C" d="M172.78,593.29c0.859,0.837,1.707,0.625,2.343-0.011c0.848-0.848,3.721-6.053,3.721-6.053
				s-5.205,2.873-6.053,3.721C172.155,591.583,171.932,592.442,172.78,593.29z"/>
			<path id="_x34_7" fill="#FEC50C" d="M175.632,596.764c0.679,0.989,1.552,0.946,2.3,0.447c0.997-0.666,4.831-5.211,4.831-5.211
				s-5.666,1.802-6.663,2.469C175.351,594.968,174.965,595.767,175.632,596.764z"/>
			<path id="_x34_6" fill="#FEC50C" d="M177.75,600.727c0.473,1.103,1.337,1.231,2.169,0.887c1.108-0.459,5.754-4.168,5.754-4.168
				s-5.909,0.662-7.017,1.121C177.825,598.911,177.291,599.619,177.75,600.727z"/>
			<path id="_x34_5" fill="#FEC50C" d="M179.054,605.028c0.249,1.173,1.072,1.468,1.954,1.293c1.176-0.234,6.457-2.966,6.457-2.966
				s-5.924-0.503-7.101-0.269C179.483,603.261,178.821,603.851,179.054,605.028z"/>
			<path id="_x34_4" fill="#FEC50C" d="M179.495,609.5c0.015,1.199,0.765,1.649,1.664,1.649c1.2,0,6.912-1.649,6.912-1.649
				s-5.712-1.649-6.912-1.649C180.26,607.851,179.495,608.301,179.495,609.5z"/>
			<path id="_x34_3" fill="#FEC50C" d="M179.054,613.972c-0.219,1.179,0.428,1.767,1.311,1.942c1.176,0.234,7.101-0.269,7.101-0.269
				s-5.281-2.732-6.457-2.966C180.126,612.504,179.288,612.796,179.054,613.972z"/>
			<path id="_x34_2" fill="#FEC50C" d="M177.75,618.273c-0.445,1.114,0.075,1.816,0.906,2.16c1.108,0.459,7.017,1.121,7.017,1.121
				s-4.646-3.709-5.754-4.168C179.087,617.042,178.209,617.165,177.75,618.273z"/>
			<path id="_x34_1" fill="#FEC50C" d="M175.632,622.236c-0.654,1.005-0.281,1.796,0.467,2.296c0.997,0.667,6.663,2.469,6.663,2.469
				s-3.833-4.545-4.831-5.211C177.183,621.29,176.298,621.239,175.632,622.236z"/>
			<path id="_x34_0" fill="#FEC50C" d="M172.78,625.71c-0.837,0.858-0.625,1.707,0.011,2.343c0.848,0.848,6.053,3.721,6.053,3.721
				s-2.873-5.206-3.721-6.053C174.488,625.084,173.629,624.861,172.78,625.71z"/>
			<path id="_x33_9" fill="#FEC50C" d="M169.307,628.561c-0.989,0.679-0.947,1.552-0.447,2.3c0.666,0.998,5.211,4.831,5.211,4.831
				s-1.802-5.666-2.468-6.663C171.103,628.28,170.304,627.895,169.307,628.561z"/>
			<path id="_x33_8" fill="#FEC50C" d="M165.343,630.679c-1.103,0.473-1.231,1.338-0.887,2.169c0.459,1.108,4.168,5.755,4.168,5.755
				s-0.662-5.909-1.121-7.017C167.16,630.754,166.451,630.22,165.343,630.679z"/>
			<path id="_x33_7" fill="#FEC50C" d="M143.835,628.561c-1.005-0.654-1.796-0.28-2.296,0.468c-0.666,0.997-2.468,6.663-2.468,6.663
				s4.544-3.833,5.211-4.831C144.781,630.113,144.832,629.227,143.835,628.561z"/>
			<path id="_x33_6" fill="#FEC50C" d="M140.361,625.71c-0.859-0.838-1.707-0.626-2.343,0.011c-0.848,0.848-3.721,6.053-3.721,6.053
				s5.205-2.873,6.053-3.721C140.987,627.417,141.209,626.558,140.361,625.71z"/>
			<path id="_x33_5" fill="#FEC50C" d="M137.51,622.236c-0.679-0.989-1.552-0.946-2.3-0.447c-0.997,0.667-4.831,5.211-4.831,5.211
				s5.665-1.802,6.663-2.469C137.791,624.032,138.176,623.233,137.51,622.236z"/>
			<path id="_x33_4" fill="#FEC50C" d="M135.392,618.273c-0.473-1.103-1.337-1.231-2.169-0.887
				c-1.108,0.459-5.754,4.168-5.754,4.168s5.909-0.662,7.017-1.121C135.317,620.089,135.851,619.381,135.392,618.273z"/>
			<path id="_x33_3" fill="#FEC50C" d="M134.087,613.972c-0.249-1.173-1.072-1.468-1.954-1.293
				c-1.176,0.234-6.457,2.966-6.457,2.966s5.924,0.503,7.101,0.269C133.659,615.739,134.321,615.149,134.087,613.972z"/>
			<path id="_x33_2" fill="#FEC50C" d="M133.647,609.5c-0.015-1.199-0.765-1.649-1.664-1.649c-1.2,0-6.912,1.649-6.912,1.649
				s5.712,1.649,6.912,1.649C132.882,611.149,133.647,610.699,133.647,609.5z"/>
			<path id="_x33_1" fill="#FEC50C" d="M134.087,605.028c0.219-1.179-0.428-1.767-1.311-1.942c-1.176-0.234-7.101,0.269-7.101,0.269
				s5.281,2.732,6.457,2.966C133.015,606.496,133.853,606.204,134.087,605.028z"/>
			<path id="_x33_0" fill="#FEC50C" d="M135.392,600.727c0.445-1.114-0.075-1.816-0.906-2.16c-1.108-0.459-7.017-1.121-7.017-1.121
				s4.646,3.709,5.754,4.168C134.054,601.958,134.933,601.835,135.392,600.727z"/>
			<path id="_x32_9" fill="#FEC50C" d="M137.51,596.764c0.654-1.006,0.281-1.796-0.467-2.296c-0.998-0.667-6.663-2.469-6.663-2.469
				s3.833,4.545,4.831,5.211C135.958,597.71,136.844,597.761,137.51,596.764z"/>
			<path id="_x32_8" fill="#FEC50C" d="M140.361,593.29c0.837-0.859,0.626-1.707-0.011-2.343c-0.848-0.848-6.053-3.721-6.053-3.721
				s2.873,5.205,3.721,6.053C138.654,593.916,139.513,594.138,140.361,593.29z"/>
			<circle id="_x32_7" fill="#FEC50C" cx="156.545" cy="609.526" r="20.182"/>
			<path id="_x32_6" fill="#FEC50C" d="M156.571,586.576c1.2-0.015,1.649-0.765,1.649-1.664c0-1.199-1.649-6.912-1.649-6.912
				s-1.649,5.712-1.649,6.912C154.922,585.811,155.371,586.576,156.571,586.576z"/>
			<path id="_x32_5" fill="#FEC50C" d="M161.043,631.983c-1.174,0.249-1.469,1.072-1.293,1.954c0.234,1.177,2.966,6.457,2.966,6.457
				s0.503-5.924,0.269-7.101C162.81,632.412,162.219,631.75,161.043,631.983z"/>
			<path id="_x32_4" fill="#FEC50C" d="M156.571,632.424c-1.199,0.016-1.649,0.765-1.649,1.665c0,1.2,1.649,6.912,1.649,6.912
				s1.649-5.712,1.649-6.912C158.22,633.188,157.77,632.424,156.571,632.424z"/>
			<path id="_x32_3" fill="#FEC50C" d="M152.098,631.983c-1.179-0.219-1.767,0.429-1.942,1.311
				c-0.234,1.177,0.269,7.101,0.269,7.101s2.732-5.28,2.966-6.457C153.567,633.056,153.275,632.218,152.098,631.983z"/>
			<path id="_x32_2" fill="#FEC50C" d="M147.798,630.679c-1.114-0.445-1.816,0.076-2.161,0.907
				c-0.459,1.108-1.121,7.017-1.121,7.017s3.71-4.646,4.168-5.755C149.029,632.017,148.906,631.138,147.798,630.679z"/>
			<path id="_x32_1" fill="#FEC50C" d="M143.835,590.439c0.989-0.679,0.947-1.552,0.447-2.3c-0.667-0.997-5.211-4.831-5.211-4.831
				s1.802,5.666,2.468,6.663C142.039,590.72,142.838,591.106,143.835,590.439z"/>
			<path id="_x32_0" fill="#FEC50C" d="M147.798,588.321c1.103-0.473,1.231-1.338,0.887-2.169c-0.459-1.108-4.168-5.755-4.168-5.755
				s0.662,5.909,1.121,7.017C145.982,588.246,146.69,588.78,147.798,588.321z"/>
			<path id="_x31_9" fill="#FEC50C" d="M152.098,587.016c1.173-0.249,1.468-1.072,1.293-1.954c-0.234-1.177-2.966-6.457-2.966-6.457
				s-0.503,5.924-0.269,7.101C150.332,586.588,150.922,587.25,152.098,587.016z"/>
			<path id="_x31_8" fill="#FEC50C" d="M155.87,644.742l-0.348,0.697l-0.387,0.89l-0.232,0.426l-0.193,0.387l-0.155,0.31
				l-0.193,0.193l-0.464-0.387l-0.503-0.349l-0.542-0.271l-0.58-0.232l-0.619-0.155l-0.619-0.155l-0.619-0.116l-0.658-0.077
				l-1.355-0.116l-1.354-0.039l-1.316-0.078l-1.238-0.154l-0.696-0.116l-0.658-0.155l-0.348-0.116l-0.348-0.116l-0.31-0.155
				l-0.271-0.154l-0.426-0.271l-0.425-0.31l-0.464-0.348l-0.426-0.387l-0.89-0.851l-0.89-0.852l-0.89-0.813l-0.813-0.735
				l-0.387-0.271l-0.387-0.271l-0.348-0.155l-0.348-0.116l-0.658-0.154l-0.58-0.193l-0.581-0.194l-0.581-0.271l-0.503-0.232
				l-0.503-0.31l-0.464-0.31l-0.426-0.31l-0.464-0.348l-0.387-0.349l-0.387-0.387l-0.387-0.387l-0.735-0.813l-0.697-0.852
				l-1.393-1.818l-1.47-1.857l-0.851-0.89l-0.89-0.89l-0.503-0.464l-0.503-0.426l-0.542-0.387l-0.58-0.426l-0.116,0.039
				l-0.116,0.116l-0.116,0.155l-0.077,0.193l-0.116,0.348l-0.039,0.155l-0.271-0.116l-0.232-0.116l-0.271-0.116l-0.232-0.078h-0.503
				l-0.271,0.078l-0.271,0.116l0.271,0.349l0.348,0.464l0.348,0.542l0.31,0.581l0.31,0.619l0.232,0.581l0.078,0.31l0.077,0.232
				l0.039,0.271v0.232h-0.426h-1.664l0.31,0.464l0.348,0.464l0.387,0.464l0.426,0.426l0.426,0.426l0.425,0.425l0.426,0.348
				l0.387,0.271l-0.425,0.039l-0.581,0.039l-0.581,0.077l-0.425,0.039l0.348,0.31l0.426,0.31l0.464,0.348l0.503,0.349l0.503,0.31
				l0.503,0.271l0.464,0.155l0.426,0.116l0.193,0.039l0.155,0.039l0.116,0.038l0.077,0.078l0.039,0.039v0.155l-0.039,0.077
				l-0.077,0.232l-0.039,0.231l-0.039,0.155v0.116l0.039,0.193l0.039,0.154l0.077,0.078l0.116,0.078l0.155,0.077l0.193,0.039
				l0.193,0.077l0.193,0.077l0.194,0.078l0.155,0.116l0.039,0.039v0.077l-0.039,0.039l-0.155,0.116l-0.155,0.116l-0.155,0.155
				l-0.155,0.193v0.155l-0.039,0.155l0.039,0.193l0.039,0.232l0.658,0.232l0.697,0.231l0.31,0.078l0.309,0.116l0.232,0.116
				l0.193,0.116l-1.277,1.006l0.348,0.31l0.426,0.232l0.542,0.271l0.542,0.194l0.619,0.193l0.58,0.116l0.503,0.116h0.464
				l-0.426,0.31l-0.542,0.348l-0.58,0.31l-0.426,0.31l0.387,0.271l0.541,0.271l0.619,0.31l0.735,0.348l1.702,0.735l1.857,0.735
				l1.935,0.696l1.896,0.619l0.852,0.271l0.774,0.193l0.696,0.194l0.619,0.116l-1.238-0.116l-1.161-0.155l-1.161-0.193l-1.083-0.232
				l-1.083-0.31l-1.045-0.31l-1.006-0.348l-0.967-0.387l-1.896-0.774l-1.78-0.773l-0.851-0.349l-0.851-0.348l-0.813-0.31
				l-0.813-0.31l0.194-0.116l0.232-0.078l0.31-0.116l0.348-0.078l0.735-0.232l0.658-0.232l-1.161-0.193l-1.586-0.31l-0.774-0.232
				l-0.658-0.193l-0.271-0.116l-0.232-0.116l-0.193-0.116l-0.116-0.116v-0.038l0.039-0.039l0.116-0.039l0.116-0.078l0.31-0.116
				l0.426-0.116l0.929-0.271l0.774-0.271l-1.896-0.349l-1.471-0.232l-0.542-0.116l-0.426-0.155l-0.155-0.077l-0.155-0.116
				l-0.116-0.077l-0.078-0.116l0.116-0.077l0.348-0.078l0.503-0.078l0.581-0.116l0.619-0.077l0.541-0.155l0.271-0.078l0.232-0.077
				l0.155-0.116l0.155-0.116l-0.31-0.116l-0.31-0.116l-0.387-0.078l-0.387-0.077l-0.89-0.116l-0.89-0.116l-0.464-0.116l-0.425-0.078
				l-0.426-0.154l-0.426-0.155l-0.387-0.193l-0.348-0.271l-0.31-0.271l-0.232-0.348l0.078-0.039l0.155-0.038h0.193l0.31,0.038
				l0.696,0.039l0.774,0.039l0.851,0.078h1.083l0.31-0.039l0.232-0.077l0.155-0.077l-0.929-0.387l-1.238-0.542l-0.696-0.349
				l-0.735-0.348l-0.735-0.387l-0.735-0.387l-0.697-0.426l-0.658-0.464l-0.619-0.465l-0.541-0.464l-0.232-0.271l-0.232-0.232
				l-0.155-0.232l-0.155-0.271l-0.155-0.232l-0.078-0.271l-0.039-0.232l-0.039-0.271h0.271l0.31,0.039l0.31,0.116l0.31,0.116
				l0.619,0.387l0.696,0.387l0.31,0.193l0.348,0.194l0.348,0.155l0.31,0.116l0.348,0.077l0.31,0.039h0.349l0.31-0.116l-0.929-0.696
				l-1.045-0.891l-1.199-1.044l-1.2-1.161l-1.2-1.238l-1.122-1.238l-0.503-0.658l-0.503-0.619l-0.426-0.619l-0.387-0.581
				l-0.078-0.154v-0.271l0.039-0.116l0.039-0.116l0.116-0.078l0.116-0.116l0.116-0.078l0.155-0.038l0.155-0.039h0.31l0.193,0.039
				l0.155,0.038l0.155,0.116l0.116,0.116l0.696,0.696l0.813,0.813l0.852,0.89l0.929,0.89l0.928,0.813l0.929,0.773l0.464,0.31
				l0.426,0.271l0.464,0.232l0.426,0.155l-0.31-0.193l-0.349-0.349l-0.464-0.464l-0.503-0.581l-1.122-1.354l-1.238-1.587
				l-0.619-0.851l-0.58-0.851l-0.542-0.852l-0.541-0.813l-0.464-0.774l-0.387-0.697l-0.271-0.658l-0.232-0.542l-0.039-0.193v-0.31
				l0.039-0.116l0.078-0.116l0.077-0.116l0.078-0.077l0.116-0.078l0.271-0.077l0.232-0.078h0.542l0.155,0.039l0.116,0.039
				l0.155,0.077l0.116,0.116l0.31,0.271l0.31,0.387l0.696,0.89l0.735,1.122l0.851,1.199l0.89,1.238l0.464,0.58l0.464,0.581
				l0.503,0.503l0.541,0.464l-0.658-1.277l-0.735-1.47l-0.387-0.813l-0.348-0.813l-0.349-0.851l-0.31-0.851l-0.271-0.89
				l-0.271-0.851l-0.193-0.851l-0.155-0.851l-0.078-0.813l-0.039-0.774l0.039-0.387l0.039-0.348l0.039-0.348l0.077-0.348
				l0.078-0.116l0.039-0.116l0.116-0.116l0.077-0.077l0.271-0.116l0.271-0.077h0.271l0.232,0.039l0.116,0.039l0.077,0.039
				l0.039,0.078l0.039,0.116l0.387,1.238l0.348,1.315l0.348,1.354l0.349,1.316l0.348,1.316l0.464,1.238l0.232,0.581l0.271,0.58
				l0.31,0.542l0.348,0.542l-0.232-1.122l-0.155-1.006l-0.155-0.929l-0.078-0.851l-0.077-0.735l-0.039-0.658l0.039-0.542
				l0.039-0.464l0.077-0.387l0.116-0.31l0.078-0.116l0.077-0.116l0.078-0.077l0.116-0.077l0.116-0.039h0.348l0.31,0.116l0.31,0.155
				l0.271,1.238l0.271,1.199l0.31,1.122l0.348,1.083l0.387,1.083l0.426,1.083l0.464,1.122l0.541,1.122l0.387,0.735l0.387,0.735
				l0.426,0.735l0.426,0.735l0.464,0.697l0.464,0.696l0.503,0.696l0.503,0.696l0.929,1.161l0.967,1.083l1.006,1.084l1.045,1.006
				l1.083,1.006l1.122,0.929l1.161,0.89l1.2,0.852l0.813,0.542l0.851,0.503l0.89,0.503l0.851,0.464l1.354,0.658l1.315,0.619
				l1.393,0.542l1.393,0.503l1.316,0.425l1.354,0.348l1.393,0.31l1.354,0.271l1.432,0.193l1.393,0.155l1.432,0.116L155.87,644.742"
				/>
			<path id="_x31_7" fill="#FEC50C" d="M159.395,656.506l0.658,0.077l0.31,0.116l0.077,0.038v0.039h-0.077l-0.078,0.039
				l-0.619,0.116h-0.503l-1.625-0.116l-1.974-0.039l-2.128-0.039l-2.206,0.039l-1.045,0.039l-1.045,0.078l-0.928,0.077l-0.89,0.077
				l-0.735,0.116l-0.658,0.155l-0.232,0.077l-0.232,0.077l-0.193,0.078l-0.155,0.116l0.078-0.387l0.154-0.387l-0.271,0.077
				l-0.271,0.077l-0.232,0.116l-0.232,0.116l-0.193,0.116l-0.155,0.155l-0.116,0.193l-0.039,0.194l-0.116-0.271l-0.077-0.232
				l-0.039-0.271l-0.039-0.232l0.039-0.194l0.039-0.231l0.039-0.194l0.116-0.194l0.077-0.154l0.155-0.193l0.155-0.155l0.155-0.154
				l0.426-0.271l0.464-0.271c0.251,0.152,0.533,0.263,0.813,0.349c0.243,0.032,0.532-0.008,0.813-0.078
				c0.472,0.416,1.104,0.365,1.509-0.078c0.074-0.081,0.164-0.204,0.194-0.31c0.064-0.223,0.052-0.516,0-0.773l0.464-0.039
				l0.541-0.077l0.581-0.155l0.619-0.155l0.619-0.116l0.58-0.155l0.542-0.078l0.464-0.038l-0.194,0.154l-0.464,0.349l-0.542,0.426
				l-0.387,0.271l0.503,0.116l0.425,0.077l-0.31,0.349l-0.309,0.348l-0.31,0.349l-0.232,0.31l0.31,0.116l0.31,0.077l0.348,0.077
				h0.697l0.348-0.077l0.348-0.077l0.271-0.155l0.31,0.155l0.31,0.116l0.31,0.077l0.31,0.077l0.696,0.077l0.735,0.078H159.395"/>
			<path id="_x31_6" fill="#FEC50C" d="M147.515,654.301l0.116,0.038l0.116,0.039l0.039,0.116l0.039,0.116l-0.039,0.116
				l-0.039,0.116l-0.116,0.078h-0.271l-0.077-0.078l-0.078-0.116l-0.039-0.116l0.039-0.116l0.078-0.116l0.077-0.039L147.515,654.301
				"/>
			<path id="_x31_5" fill="#FEC50C" d="M147.47,654.455l0.078,0.039l0.039,0.078l-0.039,0.077l-0.078,0.039l-0.077-0.039
				l-0.039-0.077l0.039-0.078L147.47,654.455"/>
			<path id="_x31_4" fill="#FEC50C" d="M147.5,654.987c-0.196,0-0.355-0.158-0.355-0.354s0.159-0.354,0.355-0.354
				c0.196,0,0.355,0.158,0.355,0.354S147.696,654.987,147.5,654.987z"/>
			<path id="_x31_3" fill="#FEC50C" d="M176.33,658.401l-0.27,0.116l-0.271,0.039l-0.232,0.038l-0.193-0.038l-0.193-0.039
				l-0.193-0.077l-0.155-0.078l-0.193-0.116l-0.31-0.232l-0.31-0.232l-0.155-0.116l-0.194-0.077l-0.155-0.039h-0.193l-0.348,0.735
				l-0.464,0.929l-0.155,0.232l-0.155,0.193l-0.155,0.116l-0.155,0.116l-0.193,0.077h-0.193l-0.193-0.077l-0.232-0.116l-0.077-0.116
				l-0.078-0.116l-0.077-0.154l-0.078-0.194l-0.077-0.348l-0.039-0.232l-0.232,0.193l-0.232,0.271l-0.193,0.31l-0.232,0.348
				l-0.271,0.349l-0.271,0.271l-0.155,0.155l-0.193,0.116l-0.193,0.077l-0.232,0.077h-0.116l-0.194,0.039l-0.193-0.039l-0.155-0.077
				l-0.464-0.542l-0.503-0.542l-0.348,0.542l-0.387,0.465l-0.193,0.193l-0.193,0.193l-0.193,0.154l-0.193,0.116l-0.155,0.078
				l-0.194,0.039h-0.193l-0.155-0.039l-0.155-0.078l-0.116-0.116l-0.155-0.193l-0.077-0.232l-0.078-0.232l-0.155-0.387l-0.039-0.193
				l-0.077-0.155l-0.078-0.077H163.6l-1.045,1.702l-0.155,0.155l-0.271,0.116l-0.31,0.078l-0.309,0.077h-0.349l-0.27-0.077
				l-0.078-0.039l-0.116-0.116l-0.039-0.077v-0.155l0.155-1.703l-0.116,0.039l-0.155,0.077l-0.155,0.077l-0.155,0.155l-0.31,0.348
				l-0.348,0.387l-0.348,0.425l-0.426,0.349l-0.193,0.154l-0.193,0.155l-0.232,0.116l-0.193,0.038L157.718,662l-0.193-0.039
				l-0.077-0.038l-0.078-0.078l-0.039-0.116v-0.116l0.039-0.503l0.078-0.503l0.039-0.271l-0.039-0.232l-0.039-0.232l-0.155-0.271
				l-0.232,0.348l-0.387,0.503l-0.464,0.503l-0.503,0.503l-0.271,0.193l-0.271,0.194l-0.232,0.078L154.7,662l-0.077-0.039h-0.116
				l-0.077-0.077l-0.039-0.039l-0.077-0.116l-0.039-0.116v-0.155l-0.039-0.193l0.039-1.47l-0.967,0.658l-1.161,0.735l-0.27,0.116
				l-0.31,0.154l-0.271,0.078l-0.31,0.078l-0.271,0.077h-0.27l-0.271-0.039l-0.232-0.078l0.116-0.31l0.116-0.271l0.116-0.271
				l0.155-0.232l0.155-0.232l0.155-0.232l0.193-0.193l0.193-0.193l0.426-0.31l0.503-0.31l0.503-0.232l0.581-0.193l0.58-0.154
				l0.658-0.116l0.658-0.116l0.658-0.077l1.432-0.078l1.47-0.039h2.941l0.735-0.039l0.696-0.038l0.696-0.039l0.658-0.077
				l0.658-0.116l0.58-0.116l0.581-0.155l0.542-0.232l0.503-0.232l0.425-0.31l0.426-0.31l0.348-0.426l-0.387-0.773l0.31-0.039
				l0.31-0.077l0.31-0.155l0.27-0.194l0.116-0.077l0.116-0.116l0.077-0.154l0.078-0.116l0.039-0.155v-0.271l-0.077-0.155
				l0.658-0.116l0.696-0.078l0.735-0.039h0.774l1.586,0.077l1.625,0.116l1.664,0.193l1.625,0.155l1.586,0.155l1.471,0.077v0.542
				l-0.039,0.232l-0.077,0.232l-0.078,0.232l-0.077,0.193l-0.116,0.155l-0.155,0.193l-0.27,0.271l-0.349,0.232l-0.348,0.155
				l-0.387,0.078l-0.426,0.077l-0.426-0.039l-0.387-0.038l-0.426-0.116l-0.387-0.193l-0.387-0.193l-0.31-0.271l-0.31-0.31v0.658
				l-0.116,0.851l-0.078,0.426l-0.116,0.387l-0.077,0.154l-0.116,0.116l-0.077,0.116L176.33,658.401 M145.22,654.764l0.89,0.387
				l0.232-0.193l0.31-0.232l0.348-0.193l0.31-0.193l1.161-0.465l1.006-0.464l0.503-0.193l0.425-0.232l0.426-0.232l0.348-0.232
				l0.89-0.581l0.89-0.58l0.851-0.542l0.774-0.542l0.581-0.464l0.464-0.426l0.503-0.464l0.542-0.503l0.193-0.193l0.232-0.155
				l0.27-0.155l0.31-0.155l0.658-0.31l0.658-0.232l0.89-0.232l0.967-0.232l1.006-0.193l1.122-0.194l1.354-0.155l1.354-0.193
				l1.393-0.155l1.354-0.232l0.464-0.078l0.426-0.116l0.464-0.116l0.464-0.116l0.464-0.581l0.735-0.813l0.503-0.503l0.58-0.464
				l0.658-0.503l0.773-0.503l1.161-0.697l1.238-0.619l1.277-0.658l1.238-0.58l1.161-0.581l1.083-0.541l0.89-0.465l0.697-0.464
				l0.193-0.581l0.271-0.58l0.348-0.58l0.426-0.581l0.464-0.619l0.581-0.619l0.619-0.697l0.774-0.735l0.696-0.619l0.735-0.619
				l0.387-0.271l0.387-0.271l0.426-0.232l0.425-0.232l0.426-0.193l0.426-0.154l0.464-0.116l0.425-0.116l0.464-0.039l0.426-0.038
				l0.464,0.038l0.426,0.078l-0.039,0.464l-0.116,0.464l-0.155,0.464l-0.194,0.503l-0.27,0.503l-0.349,0.503l-0.425,0.542
				l-0.503,0.542l0.387-0.039l0.348-0.077l0.271-0.078l0.271-0.116l0.232-0.078l0.271-0.078l0.348-0.038l0.387-0.039l0.039,0.271
				v0.271l-0.039,0.271l-0.077,0.232l-0.116,0.232l-0.155,0.232l-0.155,0.194l-0.193,0.193l-0.813,0.774l-0.813,0.735l0.464,0.039
				l0.503,0.155l0.503,0.154l0.387,0.078l-0.464,0.348l-0.542,0.349l-0.542,0.348l-0.619,0.348l-0.619,0.348l-0.619,0.387
				l-0.619,0.426l-0.581,0.464l0.271,0.039l0.348,0.154l0.155,0.039l0.155,0.077l0.116,0.039l0.116-0.039l-0.774,0.426l-0.967,0.464
				l-0.464,0.232l-0.387,0.232l-0.193,0.116l-0.116,0.116l-0.077,0.116l-0.078,0.116l0.039,0.155l0.077,0.116l0.155,0.116
				l0.116,0.116l-0.039,0.155l-0.078,0.116l-0.155,0.116l-0.155,0.116l-0.348,0.194l-0.464,0.193l-0.464,0.154l-0.426,0.155
				l-0.31,0.154l-0.232,0.116l0.774,0.774l-0.271,0.271l-0.271,0.193l-0.232,0.116l-0.271,0.116l-0.542,0.077h-0.735l0.078,0.348
				l0.116,0.348l0.078,0.387l0.077,0.388l-0.658,0.503l-0.813,0.58l-0.89,0.58l-1.006,0.581l-0.581,0.31l-0.58,0.271l-0.619,0.232
				l-0.658,0.232l-0.697,0.232l-0.735,0.155l-0.774,0.154l-0.813,0.116l1.432,0.039h1.238l1.161-0.116l1.044-0.116l0.967-0.193
				l0.852-0.232l0.851-0.31l0.813-0.31l1.083-0.503l1.045-0.58l1.006-0.619l1.045-0.619l-0.619-0.31l-0.619-0.193l-0.31-0.116
				l-0.31-0.155l-0.348-0.154l-0.348-0.193l0.31-0.232l0.348-0.155l0.425-0.155l0.464-0.116l0.929-0.193l0.967-0.116l0.852-0.116
				l0.774-0.077l0.31-0.077l0.271-0.077l0.155-0.078l0.116-0.116l-0.039-0.039l-0.078-0.077l-0.116-0.039l-0.155-0.077l-0.426-0.078
				l-0.542-0.078l-0.541-0.038l-0.542-0.078l-0.464-0.116l-0.31-0.116l1.044-0.232l1.045-0.232l0.929-0.193l0.774-0.193l0.658-0.193
				l0.581-0.232l0.271-0.116l0.193-0.116l0.194-0.116l0.155-0.155l-0.039-0.039l-0.077-0.078l-0.155-0.039l-0.193-0.039
				l-0.503-0.039h-0.581l-0.619-0.038l-0.581-0.039l-0.503-0.077l-0.31-0.078l0.271-0.116l0.271-0.116l0.928-0.271l0.813-0.232
				l0.735-0.193l0.697-0.232l0.735-0.232l0.735-0.31l0.348-0.193l0.31-0.193l0.116-0.116l0.116-0.154l0.116-0.116l0.039-0.116
				l-0.039-0.116l-0.116-0.077l-0.116-0.039h-1.083l-0.503,0.039h-0.697l-0.193-0.039l-0.155-0.077l-0.155-0.077l1.548-1.006
				l1.432-0.929l1.277-0.813l1.122-0.774l0.464-0.387l0.426-0.387l0.348-0.387l0.31-0.387l0.232-0.426l0.194-0.425l0.116-0.464
				v-0.503h-0.27l-0.271,0.039l-0.31,0.116l-0.31,0.116l-0.619,0.387l-0.658,0.387l-0.348,0.193l-0.31,0.193l-0.348,0.155
				l-0.349,0.116l-0.309,0.078l-0.31,0.039h-0.349l-0.31-0.116l0.929-0.696l1.045-0.89l1.199-1.045l1.2-1.161l1.2-1.238l1.122-1.238
				l0.503-0.658l0.503-0.619l0.426-0.619l0.387-0.58l0.078-0.155l0.039-0.116l-0.039-0.154l-0.039-0.116l-0.039-0.116l-0.116-0.077
				l-0.116-0.116l-0.116-0.039l-0.155-0.077l-0.155-0.039h-0.31l-0.155,0.039l-0.193,0.039l-0.116,0.116l-0.155,0.116l-0.696,0.697
				l-0.813,0.813l-0.852,0.89l-0.929,0.89l-0.929,0.813l-0.928,0.774l-0.464,0.31l-0.426,0.271l-0.464,0.232l-0.387,0.193
				l0.271-0.232l0.348-0.348l0.464-0.465l0.503-0.58l1.122-1.354l1.238-1.586l0.619-0.852l0.581-0.852l0.581-0.813l0.503-0.851
				l0.464-0.774l0.387-0.697l0.31-0.658l0.193-0.542l0.039-0.193v-0.31l-0.039-0.116l-0.077-0.116l-0.078-0.116l-0.077-0.077
				l-0.116-0.039l-0.232-0.116l-0.271-0.078h-0.541l-0.155,0.039l-0.116,0.039l-0.155,0.077l-0.116,0.116l-0.31,0.271l-0.31,0.387
				l-0.696,0.89l-0.735,1.122l-0.813,1.199l-0.89,1.238l-0.503,0.581l-0.464,0.58l-0.503,0.503l-0.542,0.464l0.696-1.277l0.696-1.47
				l0.387-0.813l0.348-0.812l0.348-0.851l0.31-0.851l0.271-0.89l0.271-0.851l0.193-0.851l0.155-0.851l0.077-0.813l0.039-0.774
				l-0.039-0.387l-0.039-0.348l-0.039-0.348l-0.078-0.348l-0.039-0.116l-0.077-0.116l-0.116-0.116l-0.078-0.077l-0.27-0.116
				l-0.271-0.077h-0.271l-0.232,0.039l-0.078,0.039l-0.116,0.039l-0.039,0.078l-0.039,0.116l-0.387,1.277l-0.349,1.277l-0.348,1.354
				l-0.348,1.316l-0.348,1.316l-0.464,1.238l-0.232,0.619l-0.271,0.542l-0.31,0.58l-0.348,0.503l0.232-1.122l0.155-1.006
				l0.155-0.929l0.077-0.851l0.078-0.735l0.039-0.658l-0.039-0.542l-0.039-0.464l-0.078-0.387l-0.116-0.31l-0.077-0.116
				l-0.077-0.116l-0.078-0.077l-0.116-0.039l-0.116-0.039l-0.116-0.039h-0.116l-0.116,0.039l-0.31,0.077l-0.31,0.155l-0.271,1.238
				l-0.271,1.2l-0.31,1.122l-0.348,1.083l-0.387,1.083l-0.425,1.083l-0.464,1.122l-0.542,1.122l-0.387,0.735l-0.387,0.735
				l-0.425,0.735l-0.426,0.735l-0.464,0.696l-0.464,0.696l-0.503,0.697l-0.503,0.697l-0.929,1.16l-0.967,1.084l-1.006,1.083
				l-1.044,1.006l-1.084,1.006l-1.122,0.929l-1.161,0.89l-1.2,0.851l-0.813,0.542l-0.852,0.542l-0.851,0.503l-0.851,0.503
				l-1.354,0.619l-1.354,0.619l-1.393,0.503l-1.393,0.503l-1.161,0.349l-1.161,0.348l-1.199,0.271l-1.2,0.271l-1.199,0.193
				l-1.238,0.155l-1.2,0.154l-1.238,0.077l-0.116,0.039l-0.116,0.039l-0.232,0.116l-0.271,0.193l-0.387,0.348l-0.503,0.465
				l-0.619,0.619l-0.735,0.813l-0.696,0.813l-0.813,0.89l-0.426,0.426l-0.425,0.426l-0.503,0.387l-0.503,0.387l-0.387,0.271
				l-0.387,0.232l-0.425,0.194l-0.426,0.193l-0.929,0.387l-0.929,0.348l-0.929,0.349l-0.813,0.31l-0.348,0.155l-0.348,0.193
				l-0.31,0.155l-0.232,0.155l-0.232,0.232l-0.193,0.193l-0.116,0.194l-0.078,0.193l-0.039,0.271L145.22,654.764"/>
			<path id="_x31_2" fill="#FEC50C" stroke="#00AFCA" stroke-width="0.1906" d="M147.47,654.721c-0.08,0-0.145-0.065-0.145-0.145
				c0-0.08,0.064-0.145,0.145-0.145c0.08,0,0.145,0.065,0.145,0.145C147.615,654.656,147.55,654.721,147.47,654.721z"/>
			<path id="_x31_1" fill="#FEC50C" d="M12.5,685.562c0,0-1.442,1.212-1.931,0.604c-0.788-0.977,2.421-5.845,2.421-7.56
				c0-2.814-1.877-3.579-4.196-3.981c-1.556-0.27-4.089,0.113-4.089,0.113c0.477,0.641,0.787,0.829,1.591,0.881
				c-0.895,0.464-1.806,1.473-1.806,3.042c0,2.421,0.997,3.419,0.997,6.147c0,1.514-1.241,3.441-1.241,3.441
				c2.194-0.22,3.282-2.251,2.663-3.875c0.349-0.05,0.667,0.028,0.939,0.286c0.161-0.45-0.093-0.972-0.432-1.422
				c0.273-0.146,0.474-0.059,0.91,0.031c-0.042-0.464-0.319-0.957-0.999-1.42c1.973,0.512,3.186-0.863,3.186-2.303
				c0-1.087-0.762-1.866-1.506-1.866c-0.241,0-0.594,0.1-0.794,0.248c-0.141-0.299-0.068-0.699,0.077-0.999
				c-0.545,0.145-0.892,0.469-0.646,1.144c-0.419,0.038-0.752,0.18-0.98,0.45c0.23,0.294,0.579,0.464,0.98,0.45
				c-0.305,0.63,0.035,0.983,0.531,1.269c0,0-0.315-1.269,0.49-1.269c0.362,0,0.692,0.118,0.692,0.651
				c0,0.464-0.406,1.108-1.345,1.067c-0.939-0.041-1.7-0.647-1.7-2.146c0-1.383,1.115-2.07,2.585-2.114
				c1.325-0.041,2.325,0.677,2.325,2.044c0,1.819-2.627,5.966-2.627,7.587c0,1.216,1.094,1.896,2.164,1.896
				c1.388,0,2.559-1.375,2.559-1.375l-0.815-1.022L12.5,685.562z"/>
			<path id="_x31_0" fill="#FEC50C" d="M12.197,652.68c0-3.041,2.729-4.604,4.875-4.604c2.89,0,4.429,1.728,4.429,3.99
				c0,1.282-0.235,2.086-0.826,3.313c0,0-4.767,9.914-6.623,13.748c-0.231,0.478-0.306,1.022-0.306,1.82
				c0,1.233,1.195,2.24,2.449,2.271c1.143,0.028,2.388-1.065,2.388-2.312c0-1.514-0.786-2.189-1.592-2.189
				c-0.993,0-1.388,0.408-1.388,1.104c0,0.485,0.235,0.696,0.572,0.696c0.851,0,0.612-1.146,0.612-1.146
				c0.422,0.093,0.77,0.524,0.571,1.064c0.309,0.068,0.599,0.23,0.827,0.491c-0.229,0.221-0.49,0.392-0.827,0.45
				c0.199,0.658-0.067,0.98-0.643,1.115c0.116-0.253,0.121-0.486,0.082-0.706c-0.907,0.258-2.296-0.152-2.296-1.718
				c0-1.555,1.079-2.864,3.103-2.537c-0.481-0.23-0.726-0.701-0.775-1.228c0.367,0.143,0.775,0.164,0.775,0.164
				c-0.237-0.417-0.565-0.777-0.551-1.596c0.375,0.17,0.724,0.486,1.204,0.287c-0.754-1.484,0.172-3.527,2.531-4.01
				c-0.863,1.012-1.286,2.104-1.286,3.191c0,3.524,0.979,4.117,0.979,6.567c0,1.025-0.527,2.132-1.571,2.884v-0.041
				c0.69,0.185,1.132,0.525,1.387,0.987c-1.577,0.447-3.87,0.439-5.101-0.045c-1.415-0.164-2.403-1.25-2.694-1.8
				s-0.856-2.543,0-4.337c0.937-1.963,5.356-11.334,6.734-14.28c0.292-0.625,0.47-1.287,0.47-2.005c0-1.804-1.653-2.434-2.592-2.434
				c-1.122,0-2.265,0.855-2.265,1.923c0,0.677,0.367,1.084,0.898,1.084c1.269,0,1.192-1.079,0.939-1.76
				c0.79,0.355,1.249,0.989,1.123,1.657c0.447,0.062,0.873,0.273,1.265,0.716c-0.309,0.391-0.686,0.686-1.265,0.696
				c0.253,1.036-0.441,1.475-1.123,1.718c0.215-0.761,0.357-1.636-0.939-1.636c-0.945,0-1.688-0.164-2.123-0.778
				c-0.025,0.818-0.102,4.051-0.102,4.051c-0.054,1.215,1.626,1.18,2.694,0.818c-0.403,1.399-1.229,2.156-3.143,1.964
				c0.464,0.194,0.959,0.632,0.959,1.474c0,1.139-0.924,2.4-1.531,2.773L12.197,652.68L12.197,652.68z"/>
			<path id="_x39_" fill="#FEC50C" d="M12.803,652.68c0-3.041-2.73-4.604-4.874-4.604c-2.89,0-4.429,1.728-4.429,3.99
				c0,1.282,0.235,2.086,0.826,3.313c0,0,4.767,9.914,6.623,13.748c0.231,0.478,0.306,1.022,0.306,1.82
				c0,1.233-1.195,2.24-2.449,2.271c-1.143,0.028-2.388-1.065-2.388-2.312c0-1.514,0.785-2.189,1.592-2.189
				c0.992,0,1.388,0.408,1.388,1.104c0,0.485-0.234,0.696-0.571,0.696c-0.851,0-0.612-1.146-0.612-1.146
				c-0.423,0.093-0.77,0.524-0.571,1.064c-0.31,0.068-0.599,0.23-0.827,0.491c0.228,0.221,0.49,0.392,0.827,0.45
				c-0.2,0.658,0.067,0.98,0.643,1.115c-0.116-0.253-0.12-0.486-0.082-0.706c0.907,0.258,2.296-0.152,2.296-1.718
				c0-1.555-1.079-2.864-3.102-2.537c0.481-0.23,0.726-0.701,0.775-1.228c-0.367,0.143-0.775,0.164-0.775,0.164
				c0.236-0.417,0.565-0.777,0.551-1.596c-0.375,0.17-0.723,0.486-1.204,0.287c0.754-1.484-0.172-3.527-2.53-4.01
				c0.863,1.012,1.286,2.104,1.286,3.191c0,3.524-0.98,4.117-0.98,6.567c0,1.025,0.527,2.132,1.572,2.884v-0.041
				c-0.69,0.185-1.133,0.525-1.387,0.987c1.577,0.447,3.87,0.439,5.101-0.045c1.415-0.164,2.402-1.25,2.694-1.8
				c0.291-0.551,0.856-2.543,0-4.337c-0.938-1.963-5.357-11.334-6.735-14.28c-0.292-0.625-0.469-1.287-0.469-2.005
				c0-1.804,1.653-2.434,2.592-2.434c1.123,0,2.265,0.855,2.265,1.923c0,0.677-0.367,1.084-0.898,1.084
				c-1.269,0-1.191-1.079-0.939-1.76c-0.79,0.355-1.249,0.989-1.123,1.657c-0.447,0.062-0.873,0.273-1.265,0.716
				c0.309,0.391,0.686,0.686,1.265,0.696c-0.253,1.036,0.441,1.475,1.123,1.718c-0.216-0.761-0.357-1.636,0.939-1.636
				c0.945,0,1.689-0.164,2.123-0.778c0.025,0.818,0.102,4.051,0.102,4.051c0.055,1.215-1.626,1.18-2.694,0.818
				c0.403,1.399,1.229,2.156,3.143,1.964c-0.464,0.194-0.959,0.632-0.959,1.474c0.001,1.139,0.924,2.4,1.531,2.773L12.803,652.68
				L12.803,652.68z"/>
			<path id="_x38_" fill="#FEC50C" d="M12.5,685.562c0,0,1.441,1.212,1.931,0.604c0.787-0.977-2.421-5.845-2.421-7.56
				c0-2.814,1.877-3.579,4.196-3.981c1.556-0.27,4.089,0.113,4.089,0.113c-0.477,0.641-0.787,0.829-1.591,0.881
				c0.895,0.464,1.806,1.473,1.806,3.042c0,2.421-0.997,3.419-0.997,6.147c0,1.514,1.242,3.441,1.242,3.441
				c-2.194-0.22-3.282-2.251-2.663-3.875c-0.35-0.05-0.667,0.028-0.939,0.286c-0.161-0.45,0.093-0.972,0.433-1.422
				c-0.273-0.146-0.475-0.059-0.91,0.031c0.042-0.464,0.319-0.957,0.999-1.42c-1.973,0.512-3.186-0.863-3.186-2.303
				c0-1.087,0.762-1.866,1.507-1.866c0.241,0,0.594,0.1,0.793,0.248c0.141-0.299,0.068-0.699-0.077-0.999
				c0.546,0.145,0.892,0.469,0.646,1.144c0.419,0.038,0.753,0.18,0.98,0.45c-0.23,0.294-0.579,0.464-0.98,0.45
				c0.305,0.63-0.035,0.983-0.53,1.269c0,0,0.315-1.269-0.49-1.269c-0.362,0-0.692,0.118-0.692,0.651
				c0,0.464,0.406,1.108,1.345,1.067c0.939-0.041,1.7-0.647,1.7-2.146c0-1.383-1.115-2.07-2.584-2.114
				c-1.325-0.041-2.325,0.677-2.325,2.044c0,1.819,2.626,5.966,2.626,7.587c0,1.216-1.094,1.896-2.164,1.896
				c-1.388,0-2.559-1.375-2.559-1.375l0.815-1.022L12.5,685.562z"/>
			<path id="_x37_" fill="#FEC50C" d="M12.197,599.442c0-3.041,2.729-4.603,4.875-4.603c2.89,0,4.429,1.728,4.429,3.99
				c0,1.282-0.235,2.087-0.826,3.314c0,0-4.767,9.914-6.623,13.748c-0.231,0.478-0.306,1.022-0.306,1.821
				c0,1.233,1.195,2.24,2.449,2.271c1.143,0.029,2.388-1.065,2.388-2.312c0-1.514-0.786-2.189-1.592-2.189
				c-0.993,0-1.388,0.408-1.388,1.105c0,0.485,0.235,0.696,0.572,0.696c0.851,0,0.612-1.146,0.612-1.146
				c0.422,0.093,0.77,0.525,0.571,1.064c0.309,0.069,0.599,0.231,0.827,0.491c-0.229,0.221-0.49,0.392-0.827,0.45
				c0.199,0.658-0.067,0.98-0.643,1.115c0.116-0.253,0.121-0.486,0.082-0.706c-0.907,0.258-2.296-0.152-2.296-1.719
				c0-1.555,1.079-2.864,3.103-2.537c-0.481-0.23-0.726-0.701-0.775-1.228c0.367,0.143,0.775,0.164,0.775,0.164
				c-0.237-0.417-0.565-0.777-0.551-1.596c0.375,0.171,0.724,0.486,1.204,0.286c-0.754-1.484,0.172-3.527,2.531-4.01
				c-0.863,1.011-1.286,2.104-1.286,3.191c0,3.524,0.979,4.117,0.979,6.567c0,1.025-0.527,2.132-1.571,2.885v-0.041
				c0.69,0.185,1.132,0.525,1.387,0.987c-1.577,0.447-3.87,0.439-5.101-0.045c-1.415-0.164-2.403-1.25-2.694-1.801
				c-0.291-0.551-0.856-2.543,0-4.337c0.937-1.963,5.356-11.334,6.734-14.28c0.292-0.625,0.47-1.288,0.47-2.005
				c0-1.805-1.653-2.435-2.592-2.435c-1.122,0-2.265,0.855-2.265,1.923c0,0.677,0.367,1.084,0.898,1.084
				c1.269,0,1.192-1.079,0.939-1.76c0.79,0.355,1.249,0.989,1.123,1.657c0.447,0.061,0.873,0.273,1.265,0.716
				c-0.309,0.39-0.686,0.685-1.265,0.696c0.253,1.037-0.441,1.475-1.123,1.718c0.215-0.761,0.357-1.636-0.939-1.636
				c-0.945,0-1.688-0.164-2.123-0.777c-0.025,0.818-0.102,4.051-0.102,4.051c-0.054,1.215,1.626,1.18,2.694,0.818
				c-0.403,1.399-1.229,2.156-3.143,1.964c0.464,0.194,0.959,0.631,0.959,1.473c0,1.139-0.924,2.401-1.531,2.774L12.197,599.442
				L12.197,599.442z"/>
			<path id="_x36_" fill="#FEC50C" d="M12.803,599.442c0-3.041-2.73-4.603-4.874-4.603c-2.89,0-4.429,1.728-4.429,3.99
				c0,1.282,0.235,2.087,0.826,3.314c0,0,4.767,9.914,6.623,13.748c0.231,0.478,0.306,1.022,0.306,1.821
				c0,1.233-1.195,2.24-2.449,2.271c-1.143,0.029-2.388-1.065-2.388-2.312c0-1.514,0.785-2.189,1.592-2.189
				c0.992,0,1.388,0.408,1.388,1.105c0,0.485-0.234,0.696-0.571,0.696c-0.851,0-0.612-1.146-0.612-1.146
				c-0.423,0.093-0.77,0.525-0.571,1.064c-0.31,0.069-0.599,0.231-0.827,0.491c0.228,0.221,0.49,0.392,0.827,0.45
				c-0.2,0.658,0.067,0.98,0.643,1.115c-0.116-0.253-0.12-0.486-0.082-0.706c0.907,0.258,2.296-0.152,2.296-1.719
				c0-1.555-1.079-2.864-3.102-2.537c0.481-0.23,0.726-0.701,0.775-1.228c-0.367,0.143-0.775,0.164-0.775,0.164
				c0.236-0.417,0.565-0.777,0.551-1.596c-0.375,0.171-0.723,0.486-1.204,0.286c0.754-1.484-0.172-3.527-2.53-4.01
				c0.863,1.011,1.286,2.104,1.286,3.191c0,3.524-0.98,4.117-0.98,6.567c0,1.025,0.527,2.132,1.572,2.885v-0.041
				c-0.69,0.185-1.133,0.525-1.387,0.987c1.577,0.447,3.87,0.439,5.101-0.045c1.415-0.164,2.402-1.25,2.694-1.801
				c0.291-0.551,0.856-2.543,0-4.337c-0.938-1.963-5.357-11.334-6.735-14.28c-0.292-0.625-0.469-1.288-0.469-2.005
				c0-1.805,1.653-2.435,2.592-2.435c1.123,0,2.265,0.855,2.265,1.923c0,0.677-0.367,1.084-0.898,1.084
				c-1.269,0-1.191-1.079-0.939-1.76c-0.79,0.355-1.249,0.989-1.123,1.657c-0.447,0.061-0.873,0.273-1.265,0.716
				c0.309,0.39,0.686,0.685,1.265,0.696c-0.253,1.037,0.441,1.475,1.123,1.718c-0.216-0.761-0.357-1.636,0.939-1.636
				c0.945,0,1.689-0.164,2.123-0.777c0.025,0.818,0.102,4.051,0.102,4.051c0.055,1.215-1.626,1.18-2.694,0.818
				c0.403,1.399,1.229,2.156,3.143,1.964c-0.464,0.194-0.959,0.631-0.959,1.473c0.001,1.139,0.924,2.401,1.531,2.774L12.803,599.442
				L12.803,599.442z"/>
			<path id="_x35_" fill="#FEC50C" d="M12.803,590.32c0,3.041-2.73,4.603-4.874,4.603c-2.89,0-4.429-1.728-4.429-3.99
				c0-1.282,0.235-2.087,0.826-3.314c0,0,4.767-9.914,6.623-13.748c0.231-0.478,0.306-1.023,0.306-1.821
				c0-1.233-1.195-2.24-2.449-2.271c-1.143-0.029-2.388,1.065-2.388,2.312c0,1.514,0.785,2.189,1.592,2.189
				c0.992,0,1.388-0.408,1.388-1.105c0-0.485-0.234-0.696-0.571-0.696c-0.851,0-0.612,1.146-0.612,1.146
				c-0.423-0.093-0.77-0.524-0.571-1.064c-0.31-0.069-0.599-0.231-0.827-0.491c0.228-0.221,0.49-0.392,0.827-0.45
				c-0.2-0.658,0.067-0.98,0.643-1.115c-0.116,0.253-0.12,0.486-0.082,0.706c0.907-0.258,2.296,0.152,2.296,1.719
				c0,1.555-1.079,2.864-3.102,2.537c0.481,0.23,0.726,0.701,0.775,1.228c-0.367-0.143-0.775-0.164-0.775-0.164
				c0.236,0.417,0.565,0.777,0.551,1.596c-0.375-0.171-0.723-0.486-1.204-0.286c0.754,1.484-0.172,3.527-2.53,4.01
				c0.863-1.012,1.286-2.104,1.286-3.192c0-3.524-0.98-4.117-0.98-6.567c0-1.025,0.527-2.132,1.572-2.885v0.041
				c-0.69-0.185-1.133-0.525-1.387-0.987c1.577-0.447,3.87-0.439,5.101,0.045c1.415,0.164,2.402,1.25,2.694,1.801
				c0.291,0.551,0.856,2.543,0,4.337c-0.938,1.963-5.357,11.334-6.735,14.28c-0.292,0.625-0.469,1.287-0.469,2.005
				c0,1.804,1.653,2.434,2.592,2.434c1.123,0,2.265-0.855,2.265-1.923c0-0.677-0.367-1.084-0.898-1.084
				c-1.269,0-1.191,1.079-0.939,1.76c-0.79-0.355-1.249-0.989-1.123-1.657c-0.447-0.061-0.873-0.273-1.265-0.716
				c0.309-0.39,0.686-0.685,1.265-0.696c-0.253-1.037,0.441-1.475,1.123-1.718c-0.216,0.761-0.357,1.636,0.939,1.636
				c0.945,0,1.689,0.164,2.123,0.778c0.025-0.818,0.102-4.051,0.102-4.051c0.055-1.215-1.626-1.18-2.694-0.818
				c0.403-1.399,1.229-2.156,3.143-1.964c-0.464-0.194-0.959-0.631-0.959-1.473c0.001-1.139,0.924-2.401,1.531-2.774L12.803,590.32
				L12.803,590.32z"/>
			<path id="_x34_" fill="#FEC50C" d="M12.803,643.559c0,3.04-2.73,4.603-4.874,4.603c-2.89,0-4.429-1.728-4.429-3.99
				c0-1.282,0.235-2.087,0.826-3.313c0,0,4.767-9.914,6.623-13.748c0.231-0.479,0.306-1.022,0.306-1.821
				c0-1.233-1.195-2.24-2.449-2.271c-1.143-0.028-2.388,1.065-2.388,2.312c0,1.515,0.785,2.189,1.592,2.189
				c0.992,0,1.388-0.408,1.388-1.105c0-0.485-0.234-0.696-0.571-0.696c-0.851,0-0.612,1.146-0.612,1.146
				c-0.423-0.092-0.77-0.525-0.571-1.064c-0.31-0.069-0.599-0.231-0.827-0.491c0.228-0.221,0.49-0.392,0.827-0.45
				c-0.2-0.658,0.067-0.98,0.643-1.115c-0.116,0.253-0.12,0.485-0.082,0.706c0.907-0.258,2.296,0.152,2.296,1.718
				c0,1.555-1.079,2.864-3.102,2.537c0.481,0.23,0.726,0.701,0.775,1.228c-0.367-0.144-0.775-0.164-0.775-0.164
				c0.236,0.417,0.565,0.777,0.551,1.596c-0.375-0.17-0.723-0.486-1.204-0.286c0.754,1.484-0.172,3.526-2.53,4.01
				c0.863-1.012,1.286-2.104,1.286-3.191c0-3.524-0.98-4.117-0.98-6.567c0-1.025,0.527-2.132,1.572-2.885v0.041
				c-0.69-0.185-1.133-0.524-1.387-0.987c1.577-0.447,3.87-0.439,5.101,0.045c1.415,0.164,2.402,1.25,2.694,1.801
				c0.291,0.551,0.856,2.543,0,4.337c-0.938,1.963-5.357,11.334-6.735,14.279c-0.292,0.625-0.469,1.288-0.469,2.005
				c0,1.805,1.653,2.435,2.592,2.435c1.123,0,2.265-0.854,2.265-1.923c0-0.677-0.367-1.084-0.898-1.084
				c-1.269,0-1.191,1.079-0.939,1.759c-0.79-0.355-1.249-0.989-1.123-1.657c-0.447-0.061-0.873-0.273-1.265-0.716
				c0.309-0.39,0.686-0.685,1.265-0.695c-0.253-1.037,0.441-1.475,1.123-1.718c-0.216,0.761-0.357,1.636,0.939,1.636
				c0.945,0,1.689,0.164,2.123,0.777c0.025-0.818,0.102-4.05,0.102-4.05c0.055-1.215-1.626-1.18-2.694-0.818
				c0.403-1.399,1.229-2.156,3.143-1.964c-0.464-0.194-0.959-0.631-0.959-1.473c0.001-1.139,0.924-2.4,1.531-2.773L12.803,643.559
				L12.803,643.559z"/>
			<path id="_x33_" fill="#FEC50C" d="M12.197,643.559c0,3.04,2.729,4.603,4.875,4.603c2.89,0,4.429-1.728,4.429-3.99
				c0-1.282-0.235-2.087-0.826-3.313c0,0-4.767-9.914-6.623-13.748c-0.231-0.479-0.306-1.022-0.306-1.821
				c0-1.233,1.195-2.24,2.449-2.271c1.143-0.028,2.388,1.065,2.388,2.312c0,1.515-0.786,2.189-1.592,2.189
				c-0.993,0-1.388-0.408-1.388-1.105c0-0.485,0.235-0.696,0.572-0.696c0.851,0,0.612,1.146,0.612,1.146
				c0.422-0.092,0.77-0.525,0.571-1.064c0.309-0.069,0.599-0.231,0.827-0.491c-0.229-0.221-0.49-0.392-0.827-0.45
				c0.199-0.658-0.067-0.98-0.643-1.115c0.116,0.253,0.121,0.485,0.082,0.706c-0.907-0.258-2.296,0.152-2.296,1.718
				c0,1.555,1.079,2.864,3.103,2.537c-0.481,0.23-0.726,0.701-0.775,1.228c0.367-0.144,0.775-0.164,0.775-0.164
				c-0.237,0.417-0.565,0.777-0.551,1.596c0.375-0.17,0.724-0.486,1.204-0.286c-0.754,1.484,0.172,3.526,2.531,4.01
				c-0.863-1.012-1.286-2.104-1.286-3.191c0-3.524,0.979-4.117,0.979-6.567c0-1.025-0.527-2.132-1.571-2.885v0.041
				c0.69-0.185,1.132-0.524,1.387-0.987c-1.577-0.447-3.87-0.439-5.101,0.045c-1.415,0.164-2.403,1.25-2.694,1.801
				s-0.856,2.543,0,4.337c0.937,1.963,5.356,11.334,6.734,14.279c0.292,0.625,0.47,1.288,0.47,2.005
				c0,1.805-1.653,2.435-2.592,2.435c-1.122,0-2.265-0.854-2.265-1.923c0-0.677,0.367-1.084,0.898-1.084
				c1.269,0,1.192,1.079,0.939,1.759c0.79-0.355,1.249-0.989,1.123-1.657c0.447-0.061,0.873-0.273,1.265-0.716
				c-0.309-0.39-0.686-0.685-1.265-0.695c0.253-1.037-0.441-1.475-1.123-1.718c0.215,0.761,0.357,1.636-0.939,1.636
				c-0.945,0-1.688,0.164-2.123,0.777c-0.025-0.818-0.102-4.05-0.102-4.05c-0.054-1.215,1.626-1.18,2.694-0.818
				c-0.403-1.399-1.229-2.156-3.143-1.964c0.464-0.194,0.959-0.631,0.959-1.473c0-1.139-0.924-2.4-1.531-2.773L12.197,643.559
				L12.197,643.559z"/>
			<path id="_x32_" fill="#FEC50C" d="M12.5,557.438c0,0,1.441-1.211,1.931-0.604c0.787,0.977-2.421,5.845-2.421,7.56
				c0,2.814,1.877,3.579,4.196,3.981c1.556,0.27,4.089-0.113,4.089-0.113c-0.477-0.641-0.787-0.83-1.591-0.881
				c0.895-0.465,1.806-1.473,1.806-3.042c0-2.421-0.997-3.418-0.997-6.147c0-1.514,1.242-3.441,1.242-3.441
				c-2.194,0.22-3.282,2.251-2.663,3.875c-0.35,0.05-0.667-0.028-0.939-0.286c-0.161,0.45,0.093,0.972,0.433,1.422
				c-0.273,0.146-0.475,0.059-0.91-0.031c0.042,0.464,0.319,0.956,0.999,1.42c-1.973-0.512-3.186,0.863-3.186,2.302
				c0,1.087,0.762,1.866,1.507,1.866c0.241,0,0.594-0.099,0.793-0.248c0.141,0.299,0.068,0.7-0.077,0.999
				c0.546-0.144,0.892-0.468,0.646-1.143c0.419-0.039,0.753-0.18,0.98-0.45c-0.23-0.294-0.579-0.464-0.98-0.45
				c0.305-0.63-0.035-0.983-0.53-1.269c0,0,0.315,1.269-0.49,1.269c-0.362,0-0.692-0.118-0.692-0.651
				c0-0.465,0.406-1.108,1.345-1.067c0.939,0.041,1.7,0.647,1.7,2.146c0,1.383-1.115,2.07-2.584,2.115
				c-1.325,0.041-2.325-0.677-2.325-2.044c0-1.819,2.626-5.966,2.626-7.587c0-1.216-1.094-1.896-2.164-1.896
				c-1.388,0-2.559,1.374-2.559,1.374l0.815,1.022L12.5,557.438z"/>
			<path id="_x31_" fill="#FEC50C" d="M12.5,557.438c0,0-1.442-1.211-1.931-0.604c-0.788,0.977,2.421,5.845,2.421,7.56
				c0,2.814-1.877,3.579-4.196,3.981c-1.556,0.27-4.089-0.113-4.089-0.113c0.477-0.641,0.787-0.83,1.591-0.881
				c-0.895-0.465-1.806-1.473-1.806-3.042c0-2.421,0.997-3.418,0.997-6.147c0-1.514-1.241-3.441-1.241-3.441
				c2.194,0.22,3.282,2.251,2.663,3.875c0.349,0.05,0.667-0.028,0.939-0.286c0.161,0.45-0.093,0.972-0.432,1.422
				c0.273,0.146,0.474,0.059,0.91-0.031c-0.042,0.464-0.319,0.956-0.999,1.42c1.973-0.512,3.186,0.863,3.186,2.302
				c0,1.087-0.762,1.866-1.506,1.866c-0.241,0-0.594-0.099-0.794-0.248c-0.141,0.299-0.068,0.7,0.077,0.999
				c-0.545-0.144-0.892-0.468-0.646-1.143c-0.419-0.039-0.752-0.18-0.98-0.45c0.23-0.294,0.579-0.464,0.98-0.45
				c-0.305-0.63,0.035-0.983,0.531-1.269c0,0-0.315,1.269,0.49,1.269c0.362,0,0.692-0.118,0.692-0.651
				c0-0.465-0.406-1.108-1.345-1.067c-0.939,0.041-1.7,0.647-1.7,2.146c0,1.383,1.115,2.07,2.585,2.115
				c1.325,0.041,2.325-0.677,2.325-2.044c0-1.819-2.627-5.966-2.627-7.587c0-1.216,1.094-1.896,2.164-1.896
				c1.388,0,2.559,1.374,2.559,1.374l-0.815,1.022L12.5,557.438z"/>
		</g>
	</g>
</switch>
</svg>