<?xml version="1.0" encoding="utf-8"?>
<svg version="1.1"
	 id="Countryflags.com" xwidth = "100%" height = "100%" sodipodi:docname="AJAX1.svg" inkscape:version="0.48.2 r9819" xmlns:rdf="http://www.w3.org/1999/02/22-rdf-syntax-ns#" xmlns:svg="http://www.w3.org/2000/svg" xmlns:dc="http://purl.org/dc/elements/1.1/" xmlns:cc="http://creativecommons.org/ns#" xmlns:sodipodi="http://sodipodi.sourceforge.net/DTD/sodipodi-0.dtd" xmlns:inkscape="http://www.inkscape.org/namespaces/inkscape"
	 xmlns="http://www.w3.org/2000/svg" xmlns:xlink="http://www.w3.org/1999/xlink" x="0px" y="0px" viewBox="-5.5 546.5 300 150"
	 enable-background="new -5.5 546.5 300 150" xml:space="preserve">
<switch>
	<g>
		<g>
			<rect id="_x31_7" x="-5.5" y="546.5" fill="#CE1126" width="300" height="150"/>
			<path id="_x31_6" fill="#FCD116" stroke="#BD9C08" stroke-width="0.75" d="M169.195,617.146
				c4.379,1.173,11.006,0.882,13.982,4.354c-4.379-1.173-9.776,5.905-13.982,4.354c3.714,2.601-54.021,0-49.39,0
				c-4.379-1.174-11.006-0.882-13.982-4.354c4.379,1.173,9.776-5.905,13.982-4.354c-3.714-2.6-10.157-4.614-11.649-8.874
				c3.714,2.6,11.269-2.224,14.628,0.69c-2.6-3.714-8.035-7.789-7.912-12.323c2.601,3.714,11.353,1.725,13.51,5.652
				c-1.173-4.379-4.708-10.026-3.22-14.286c1.173,4.379,9.988,5.467,10.762,9.931c0.395-4.516-1.199-11.052,1.86-14.525
				c-0.395,4.516,7.566,8.548,6.716,13.013c1.916-4.109,2.975-10.746,6.716-13.013c-1.916,4.109,4.335,10.599,1.86,14.525
				c3.206-3.206,6.299-9.144,10.762-9.931c-3.206,3.206,0.213,11.372-3.22,14.286c4.109-1.916,8.958-6.439,13.51-5.652
				c-4.109,1.916-3.702,10.772-7.912,12.323c4.516-0.395,10.585-2.957,14.628-0.69C176.328,608.667,173.826,617.146,169.195,617.146
				z"/>
			<path id="_x31_5" fill="#FCD116" stroke="#BD9C08" stroke-width="0.75" stroke-linejoin="round" d="M123.679,621.501
				l-15.793-6.456l17.049-0.665l-12.633-11.468l16.248,5.206l-7.949-15.097l13.488,10.449l-2.306-16.905l9.101,14.432l3.615-16.675
				l3.615,16.675l9.1-14.432l-2.306,16.905l13.487-10.449l-7.949,15.097l16.249-5.206l-12.633,11.468l17.049,0.665l-15.793,6.456
				l15.793,6.456h-73.226L123.679,621.501z"/>
			<path id="_x31_4" fill="#FCD116" stroke="#BD9C08" stroke-width="0.9" stroke-linecap="round" d="M165.179,621.5
				c0,11.421-9.258,20.679-20.679,20.679c-11.42,0-20.678-9.258-20.678-20.679c0-11.421,9.258-20.679,20.678-20.679
				C155.921,600.821,165.179,610.079,165.179,621.5z"/>
			<rect id="_x31_3" x="-5.5" y="629" fill="#003F87" width="300" height="67.5"/>
			<path id="_x31_2" fill="#FFFFFF" d="M-5.5,675.071c10,0,20,6.429,30,6.429s20-6.429,30-6.429s20,6.429,30,6.429
				s20-6.429,30-6.429s20,6.429,29.999,6.429c10,0,20-6.429,30-6.429s20,6.429,30,6.429s20-6.429,30-6.429s20,6.429,30,6.429
				c10,0,20-6.429,30-6.429v-10.714c-10,0-20,6.428-30,6.428c-10,0-20-6.428-30-6.428s-20,6.428-30,6.428s-20-6.428-30-6.428
				s-20,6.428-30,6.428c-9.999,0-19.999-6.428-29.999-6.428s-20,6.428-30,6.428s-20-6.428-30-6.428s-20,6.428-30,6.428
				s-20-6.428-30-6.428V675.071z"/>
			<path id="_x31_1" fill="#FCD116" stroke="#BD9C08" stroke-width="0.6" d="M151.3,571.431l11.089,0.073
				c0.071-0.469-0.951-1.403-1.822-1.539c-2.808-0.441-4.913,0.468-8.32,0.503L151.3,571.431z"/>
			<path id="_x31_0" fill="#FCD116" stroke="#BD9C08" stroke-width="0.6" d="M129.216,568.822c2.604,3.29,7.652,5.576,12.476,5.606
				c6.5,0.04,13.707-5.22,22.425-6.831l-28.458-0.586c-3.682-2.522-6.476-2.202-8.381-0.639l-5.441,0.165
				c-0.77,0.419,0.636,2.171,1.776,2.236L129.216,568.822z"/>
			<path id="_x39_" fill="#FCD116" stroke="#BD9C08" stroke-width="0.6" d="M142.08,566.934c-1.035-4.759-4.854-6.81-9.446-7.418
				c-5.303-0.703-17.511-1.423-25.62-3.752c3.508,3.45,10.855,5.173,15.958,5.952c5.405,0.825,10.667,2.027,14.837,5.176
				L142.08,566.934z"/>
			<path id="_x38_" fill="#FCD116" stroke="#BD9C08" stroke-width="0.6" stroke-linecap="round" d="M138.634,570.111
				c1.697,2.177,4.328,2.054,7.157,0.155c2.819-1.893,5.882-7.224,7.362-7.311c10.347-0.601,22.862-4.968,28.833-8.341
				c-7.568,1.072-15.072,2.286-22.706,2.317c-13.025,0.052-14.566,5.984-19.874,10.143"/>
			<path id="_x37_" fill="none" stroke="#BD9C08" stroke-width="0.6" stroke-linecap="round" d="M140.655,567.552
				c2.776-1.768,5.032-4.075,7.631-6.003c4.304-3.191,9.275-3.285,14.612-3.35c4.73-0.058,13.023-2.035,17.521-3.09"/>
			<path id="_x36_" fill="none" stroke="#BD9C08" stroke-width="0.6" d="M137.767,566.718c-0.82-4.256-4.802-5.533-9.834-6.297
				c-5.475-0.832-11.059-1.294-16.519-2.803c-1.354-0.374-2.617-1.035-3.925-1.553"/>
			<path id="_x35_" fill="none" stroke="#BD9C08" stroke-width="0.6" stroke-linecap="round" d="M139.511,572.991
				c5.136,0.377,8.954-1.168,13.336-3.353"/>
			<path id="_x34_" fill="none" stroke="#BD9C08" stroke-width="0.6" stroke-linecap="round" d="M121.816,567.416h6.48"/>
			<path id="_x33_" fill="#BD9C08" d="M131.185,566.719c0,0.448-0.362,0.81-0.81,0.81c-0.447,0-0.81-0.363-0.81-0.81
				s0.363-0.811,0.81-0.811C130.823,565.908,131.185,566.271,131.185,566.719z"/>
			<path id="_x32_" fill="#FFFFFF" d="M-5.5,632.214c10,0,20,6.429,30,6.429s20-6.429,30-6.429s20,6.429,30,6.429s20-6.429,30-6.429
				s20,6.429,29.999,6.429c10,0,20-6.429,30-6.429s20,6.429,30,6.429s20-6.429,30-6.429s20,6.429,30,6.429c10,0,20-6.429,30-6.429
				V621.5c-10,0-20,6.429-30,6.429c-10,0-20-6.429-30-6.429s-20,6.429-30,6.429s-20-6.429-30-6.429s-20,6.429-30,6.429
				c-9.999,0-19.999-6.429-29.999-6.429s-20,6.429-30,6.429s-20-6.429-30-6.429s-20,6.429-30,6.429s-20-6.429-30-6.429V632.214z"/>
			<path id="_x31_" fill="#FFFFFF" d="M-5.5,653.643c10,0,20,6.429,30,6.429s20-6.429,30-6.429s20,6.429,30,6.429s20-6.429,30-6.429
				s20,6.429,29.999,6.429c10,0,20-6.429,30-6.429s20,6.429,30,6.429s20-6.429,30-6.429s20,6.429,30,6.429c10,0,20-6.429,30-6.429
				v-10.714c-10,0-20,6.429-30,6.429c-10,0-20-6.429-30-6.429s-20,6.429-30,6.429s-20-6.429-30-6.429s-20,6.429-30,6.429
				c-9.999,0-19.999-6.429-29.999-6.429s-20,6.429-30,6.429s-20-6.429-30-6.429s-20,6.429-30,6.429s-20-6.429-30-6.429V653.643z"/>
		</g>
	</g>
</switch>
</svg>