<?xml version="1.0" encoding="utf-8"?>
<svg version="1.1" id="Countryflags.com" width = "100%" height = "100%"
	 xmlns="http://www.w3.org/2000/svg" xmlns:xlink="http://www.w3.org/1999/xlink" x="0px" y="0px" viewBox="294.5 696.5 300 150"
	 enable-background="new 294.5 696.5 300 150" xml:space="preserve">
<switch>
	<g>
		<g>
			<rect id="_x31_5" x="294.5" y="696.5" fill="#00247D" width="300" height="150"/>
			<g id="Group_2">
				<defs>
					<rect id="_x31_3" x="294.5" y="696.5" width="150" height="75"/>
				</defs>
				<clipPath id="_x31_3_1_">
					<use xlink:href="#_x31_3"  overflow="visible"/>
				</clipPath>
				<path id="_x31_4" clip-path="url(#_x31_3_1_)" stroke="#FFFFFF" stroke-width="15" d="M294.5,696.5l150,75 M294.5,771.5l150-75"
					/>
			</g>
			<g id="Group_1">
				<defs>
					<path id="_x31_1" d="M294.5,696.5l75,37.5h-75V696.5z M369.5,696.5h75l-75,37.5V696.5z M369.5,734h75v37.5L369.5,734z
						 M369.5,734v37.5h-75L369.5,734z"/>
				</defs>
				<clipPath id="_x31_1_1_">
					<use xlink:href="#_x31_1"  overflow="visible"/>
				</clipPath>
				<path id="_x31_2" clip-path="url(#_x31_1_1_)" stroke="#CC142B" stroke-width="10" d="M294.5,696.5l150,75 M294.5,771.5l150-75"
					/>
			</g>
			<path id="_x31_0" stroke="#FFFFFF" stroke-width="25" d="M369.5,696.5v75 M294.5,734h150"/>
			<path id="_x39_" stroke="#CC142B" stroke-width="15" d="M369.5,696.5v75 M294.5,734h150"/>
			<polygon id="_x38_" fill="#FFFFFF" points="539.108,749.043 545.35,753.578 542.966,760.916 549.208,756.381 555.45,760.916 
				553.066,753.578 559.308,749.043 551.592,749.043 549.208,741.705 546.824,749.043 			"/>
			<polygon id="_x37_" fill="#CC142B" points="542.958,750.294 546.821,753.1 545.345,757.641 549.208,754.835 553.071,757.641 
				551.596,753.1 555.458,750.294 550.684,750.294 549.208,745.753 547.733,750.294 			"/>
			<polygon id="_x36_" fill="#FFFFFF" points="508.15,722.812 515.165,727.908 512.485,736.155 519.5,731.058 526.515,736.155 
				523.836,727.908 530.85,722.812 522.179,722.812 519.5,714.566 516.821,722.812 			"/>
			<polygon id="_x35_" fill="#CC142B" points="512,724.063 516.635,727.43 514.865,732.88 519.5,729.512 524.135,732.88 
				522.365,727.43 527,724.063 521.271,724.063 519.5,718.614 517.729,724.063 			"/>
			<polygon id="_x34_" fill="#FFFFFF" points="473.491,757.683 480.505,762.779 477.826,771.026 484.841,765.929 491.856,771.026 
				489.176,762.779 496.191,757.683 487.52,757.683 484.841,749.437 482.161,757.683 			"/>
			<polygon id="_x33_" fill="#CC142B" points="477.341,758.934 481.976,762.301 480.205,767.751 484.841,764.383 489.476,767.751 
				487.706,762.301 492.341,758.934 486.611,758.934 484.841,753.485 483.07,758.934 			"/>
			<polygon id="_x32_" fill="#FFFFFF" points="506.9,812.406 514.687,818.064 511.713,827.218 519.5,821.56 527.287,827.218 
				524.313,818.064 532.1,812.406 522.475,812.406 519.5,803.251 516.526,812.406 			"/>
			<polygon id="_x31_" fill="#CC142B" points="510.75,813.657 516.158,817.586 514.092,823.943 519.5,820.014 524.908,823.943 
				522.842,817.586 528.25,813.657 521.566,813.657 519.5,807.3 517.434,813.657 			"/>
		</g>
	</g>
</switch>
</svg>