<?xml version="1.0" encoding="utf-8"?>
<svg version="1.1" id="Countryflags.com" width = "100%" height = "100%"
	 xmlns="http://www.w3.org/2000/svg" xmlns:xlink="http://www.w3.org/1999/xlink" x="0px" y="0px" viewBox="0 0 300 180"
	 enable-background="new 0 0 300 180" xml:space="preserve">
<switch>
	<g>
		<g>
			<rect id="_x31_20" x="0" y="0" fill="#003976" width="300" height="179.999"/>
			<path id="_x31_19" fill="#003976" d="M150,90"/>
			<rect id="_x31_18" x="0" y="59.999" fill="#FFFFFF" width="300" height="59.999"/>
			<polygon id="_x31_17" fill="#003976" points="168.751,100.562 150,68.589 131.248,100.562 			"/>
			<polygon id="_x31_16" fill="#FFCF46" points="131.852,100.18 150,69.352 168.148,100.18 			"/>
			<polygon id="_x31_15" fill="#003976" points="132.456,99.799 150,70.114 167.544,99.799 			"/>
			<polygon id="_x31_14" fill="#FFFFFF" points="166.941,99.418 150,70.876 133.059,99.418 			"/>
			<path id="_x31_13" fill="#EF3E42" d="M148.949,86.588c-0.077,0-0.143-0.011-0.231-0.011s-0.055-0.033-0.055-0.209
				c0-0.671,0.033-1.254,0.275-1.485c0.242-0.231,0.538-0.264,0.748-0.264c0.209,0,0.297-0.209,0.044-0.286
				c-0.253-0.077-0.407-0.121-0.715-0.088c-0.011-0.407,0.132-0.825,0.615-0.825c0.253,0,0.407,0.022,0.803,0.022
				c0.396,0,0.858,0.582,0.858,1.209c0,0.77-0.022,1.511-0.022,1.748c0,0.236-0.132,0.297-0.346,0.297
				c-0.215,0-0.391-0.006-0.523-0.006s-0.22-0.016-0.22,0.225c0,0.242-0.033,0.484-0.033,0.715c0,0.231-0.187,0.363-0.506,0.198
				C149.323,87.665,149.169,87.412,148.949,86.588z"/>
			<polygon id="_x31_12" fill="#FFCF46" points="124.448,85.224 124.191,86.942 124.965,87.058 125.197,85.512 125.836,85.608 
				125.604,87.153 126.522,87.291 126.78,85.574 127.344,85.659 126.982,88.079 123.503,87.558 123.866,85.137 			"/>
			<path id="_x31_11" fill="#FFCF46" d="M125.417,83.214c0.286,0.09,0.602,0.19,0.602,0.19s0.104-0.333,0.2-0.642
				c0.097-0.31-0.09-0.596-0.414-0.697c-0.323-0.101-0.559,0.094-0.644,0.367c-0.084,0.268-0.2,0.642-0.2,0.642
				C124.96,83.071,125.178,83.14,125.417,83.214l-0.161,0.626l-1.054-0.329c0,0,0.186-0.596,0.438-1.404
				c0.176-0.563,0.75-0.825,1.351-0.638c0.537,0.167,0.983,0.717,0.799,1.309c-0.112,0.36-0.247,0.789-0.247,0.789l1.209,0.378
				l-0.192,0.614l-2.305-0.719L125.417,83.214z"/>
			<path id="_x31_10" fill="#FFCF46" d="M128.694,79.824c0.214-0.434-0.014-0.687-0.282-0.819c-0.264-0.131-2.082-1.029-2.082-1.029
				l0.3-0.607c0,0,1.66,0.82,2.074,1.025c0.508,0.251,0.95,0.799,0.511,1.687c-0.437,0.885-1.142,0.872-1.651,0.62
				c-0.414-0.205-2.074-1.025-2.074-1.025l0.3-0.607c0,0,1.818,0.899,2.082,1.029C128.141,80.23,128.482,80.253,128.694,79.824z"/>
			<path id="_x31_09" fill="#FFCF46" d="M129.823,76.716c0.196,0.141,0.4,0.288,0.4,0.288s0.404-0.562,0.539-0.751
				c0.133-0.184,0.076-0.415-0.159-0.585c-0.232-0.167-0.459-0.145-0.595,0.044c-0.138,0.192-0.538,0.751-0.538,0.751
				C129.477,76.469,129.646,76.59,129.823,76.716l-0.41,0.563c-0.375-0.269-0.805-0.577-1.165-0.836l0.41-0.563
				c0.161,0.115,0.327,0.234,0.327,0.234s0.313-0.436,0.502-0.699c0.186-0.259,0-0.483-0.079-0.539
				c-0.129-0.092-0.4-0.121-0.55,0.088c-0.15,0.208-0.502,0.699-0.502,0.699c0.007,0.006,0.153,0.11,0.302,0.217l-0.41,0.563
				c-0.445-0.319-0.785-0.563-0.785-0.563s0.223-0.31,0.788-1.096c0.386-0.538,0.972-0.85,1.458-0.501
				c0.218,0.156,0.371,0.427,0.404,0.719c0.294-0.07,0.562-0.074,0.912,0.178c0.35,0.251,0.707,0.787,0.196,1.498
				c-0.347,0.484-0.9,1.254-0.9,1.254c0.006,0.004-0.4-0.288-0.908-0.652L129.823,76.716z"/>
			<polygon id="_x31_08" fill="#FFCF46" points="130.615,71.864 132.669,73.877 133.762,72.761 134.221,73.211 132.637,74.828 
				130.124,72.364 			"/>
			
				<rect id="_x31_07" x="132.385" y="70.603" transform="matrix(0.631 0.7757 -0.7757 0.631 104.5341 -77.8831)" fill="#FFCF46" width="3.518" height="0.701"/>
			<path id="_x31_06" fill="#FFCF46" d="M137.086,68.194c-0.114-0.183-0.461-0.418-0.924-0.128c-0.463,0.29-0.436,0.808-0.067,1.397
				c0.364,0.581,0.894,0.81,1.292,0.56c0.397-0.248,0.41-0.693,0.268-0.92l0.516-0.323c0.388,0.619,0.176,1.348-0.509,1.776
				c-0.689,0.431-1.537,0.132-2.097-0.763c-0.565-0.902-0.458-1.789,0.272-2.246c0.733-0.459,1.472-0.143,1.764,0.322
				L137.086,68.194z"/>
			<path id="_x31_05" fill="#FFCF46" d="M146.174,65.402c0.067,0.587,0.136,1.19,0.137,1.196c0,0,0.341-0.039,0.553-0.063
				c0.216-0.025,0.82-0.192,0.694-1.297c-0.116-1.014-0.717-1.029-0.933-1.004c-0.115,0.013-0.577,0.066-0.577,0.066
				S146.111,64.843,146.174,65.402l-0.646,0.088c-0.098-0.857-0.192-1.697-0.19-1.697c0.346-0.04,0.875-0.1,1.303-0.15
				c0.428-0.049,1.394-0.035,1.568,1.485c0.107,0.944-0.245,1.905-1.048,1.997c-0.798,0.091-1.428,0.163-1.428,0.163
				s-0.104-0.908-0.204-1.799L146.174,65.402z"/>
			<polygon id="_x31_04" fill="#FFCF46" points="152.322,64.09 150.587,64.007 150.55,64.789 152.11,64.864 152.079,65.51 
				150.519,65.435 150.475,66.363 152.209,66.446 152.182,67.017 149.738,66.9 149.905,63.385 152.35,63.501 			"/>
			<polygon id="_x31_03" fill="#FFCF46" points="157.421,64.432 157.965,66.834 158.614,64.816 159.277,65.029 158.201,68.378 
				157.565,68.174 156.956,65.628 156.271,67.759 155.603,67.544 156.679,64.194 			"/>
			
				<rect id="_x31_02" x="158.613" y="67.048" transform="matrix(-0.4243 0.9055 -0.9055 -0.4243 289.4472 -49.2231)" fill="#FFCF46" width="3.516" height="0.702"/>
			<path id="_x31_01" fill="#FFCF46" d="M164.135,68.851c0.115-0.183,0.176-0.596-0.286-0.888c-0.462-0.292-0.916-0.043-1.287,0.545
				c-0.366,0.58-0.341,1.157,0.056,1.408c0.397,0.25,0.802,0.069,0.946-0.157l0.515,0.325c-0.389,0.618-1.138,0.744-1.821,0.313
				c-0.687-0.433-0.786-1.328-0.223-2.221c0.568-0.9,1.413-1.189,2.141-0.73c0.732,0.462,0.769,1.265,0.476,1.73L164.135,68.851z"/>
			<path id="_x31_00" fill="#FFCF46" d="M174.418,82.294c0.283-0.245,0.398-0.562,0.284-0.896c-0.172-0.499-0.726-0.666-1.392-0.438
				c-0.662,0.227-1.015,0.716-0.834,1.217c0.149,0.42,0.507,0.609,0.951,0.493l-0.223-0.65l0.519-0.178l0.411,1.199l-1.693,0.581
				l-0.132-0.384c0.112-0.039,0.264-0.111,0.355-0.184c-0.346-0.086-0.607-0.334-0.755-0.697c-0.306-0.755,0.212-1.659,1.198-1.997
				c0.987-0.338,1.828-0.014,2.126,0.856c0.236,0.686-0.021,1.403-0.632,1.614L174.418,82.294z"/>
			<path id="_x39_9" fill="#FFCF46" d="M173.454,85.975c0.078,0.477,0.411,0.55,0.706,0.502c0.291-0.048,2.292-0.375,2.292-0.375
				l0.109,0.668c0,0-1.827,0.299-2.283,0.374c-0.56,0.092-1.237-0.096-1.397-1.076c-0.159-0.974,0.421-1.373,0.981-1.465
				c0.456-0.075,2.283-0.374,2.283-0.374l0.109,0.669c0,0-2,0.328-2.292,0.375C173.668,85.321,173.377,85.502,173.454,85.975z"/>
			<path id="_x39_8" fill="#FFCF46" d="M128.278,103.206c0.122,0.198,0.25,0.407,0.25,0.407l0.983-1.127l-1.45,0.374
				C128.063,102.859,128.168,103.028,128.278,103.206l-0.515,0.284c-0.153-0.247-0.296-0.478-0.296-0.478l-0.727,0.188l-0.347-0.559
				l3.58-0.902l0.41,0.662l-2.403,2.802l-0.347-0.56l0.495-0.562c-0.001-0.003-0.19-0.307-0.366-0.591L128.278,103.206z"/>
			<polygon id="_x39_7" fill="#FFCF46" points="129.727,107.438 131.292,105.17 129.304,106.972 128.865,106.488 131.472,104.125 
				132.155,104.878 130.56,107.133 132.963,105.771 133.646,106.523 131.039,108.886 130.601,108.402 132.589,106.601 
				130.178,107.936 			"/>
			<polygon id="_x39_6" fill="#FFCF46" points="136.173,109.419 134.805,108.35 134.323,108.967 135.554,109.929 135.156,110.438 
				133.925,109.476 133.354,110.207 134.722,111.277 134.37,111.727 132.441,110.22 134.607,107.448 136.536,108.955 			"/>
			<path id="_x39_5" fill="#FFCF46" d="M137.464,111.362c0.201,0.113,0.483,0.27,0.601,0.337c0.19,0.106,0.443,0.031,0.585-0.222
				c0.139-0.25,0.046-0.499-0.178-0.624c-0.22-0.123-0.777-0.435-0.777-0.435l-0.457,0.817
				C137.238,111.236,137.334,111.29,137.464,111.362l-0.252,0.581c-0.164-0.092-0.281-0.158-0.281-0.158l-0.666,1.19l-0.612-0.343
				c0,0,1.72-3.075,1.718-3.071c0,0,1.25,0.7,1.676,0.938c0.422,0.236,0.431,0.816,0.186,1.253c-0.247,0.441-0.746,0.54-0.911,0.449
				c0.211,0.118,0.308,0.469,0.096,0.85c-0.107,0.192-0.481,0.86-0.481,0.86l-0.591-0.331c0,0,0.193-0.346,0.404-0.722
				c0.208-0.372,0.089-0.565-0.215-0.735c-0.114-0.064-0.226-0.126-0.322-0.18L137.464,111.362z"/>
			
				<rect id="_x39_4" x="138.525" y="112.693" transform="matrix(-0.3798 0.9251 -0.9251 -0.3798 298.1391 26.2089)" fill="#FFCF46" width="3.518" height="0.701"/>
			<path id="_x39_3" fill="#FFCF46" d="M144.12,113.754c0.057-0.208-0.006-0.621-0.532-0.766c-0.527-0.145-0.889,0.226-1.073,0.896
				c-0.182,0.662,0.01,1.207,0.462,1.331c0.452,0.125,0.788-0.167,0.86-0.425l0.588,0.161c-0.193,0.704-0.873,1.042-1.652,0.828
				c-0.784-0.215-1.139-1.042-0.86-2.06c0.281-1.026,1.007-1.548,1.837-1.32c0.835,0.229,1.104,0.987,0.958,1.517L144.12,113.754z"
				/>
			<path id="_x39_2" fill="#FFCF46" d="M154.438,114.083c-0.033-0.213-0.26-0.565-0.8-0.48c-0.54,0.085-0.719,0.571-0.61,1.258
				c0.106,0.678,0.505,1.096,0.968,1.023c0.464-0.073,0.65-0.476,0.609-0.741l0.602-0.095c0.114,0.721-0.368,1.308-1.165,1.434
				c-0.803,0.126-1.466-0.482-1.63-1.525c-0.165-1.051,0.281-1.825,1.132-1.958c0.855-0.134,1.411,0.446,1.497,0.989
				L154.438,114.083z"/>
			<polygon id="_x39_1" fill="#FFCF46" points="158.25,112.42 156.597,112.949 156.836,113.695 158.324,113.218 158.521,113.834 
				157.033,114.311 157.317,115.194 158.97,114.664 159.145,115.208 156.815,115.956 155.74,112.606 158.07,111.858 			"/>
			<polygon id="_x39_0" fill="#FFCF46" points="159.734,111.166 161.809,112.492 160.852,110.6 161.474,110.286 163.062,113.426 
				162.466,113.727 160.242,112.343 161.253,114.341 160.627,114.657 159.038,111.518 			"/>
			<polygon id="_x38_9" fill="#FFCF46" points="165.312,111.999 163.589,109.631 162.764,110.231 162.417,109.754 164.589,108.175 
				164.936,108.651 164.106,109.254 165.829,111.624 			"/>
			<polygon id="_x38_8" fill="#FFCF46" points="170.475,101.098 173.039,102.401 173.747,101.008 174.319,101.299 173.293,103.317 
				170.157,101.723 			"/>
			<path id="_x38_7" fill="#FFCF46" d="M147.132,115.315c0.231,0.025,0.475,0.05,0.475,0.05l-0.294-1.466l-0.587,1.377
				C146.726,115.274,146.924,115.294,147.132,115.315l-0.089,0.581c-0.289-0.029-0.56-0.057-0.56-0.057l-0.294,0.691l-0.654-0.067
				l1.469-3.387l0.775,0.079l0.755,3.613l-0.655-0.067l-0.143-0.735c-0.003-0.001-0.36-0.037-0.692-0.071L147.132,115.315z"/>
			<path id="_x38_6" fill="#FFCF46" d="M170.557,105.079c0.136-0.188,0.28-0.386,0.28-0.386l-1.417-0.477l0.9,1.196
				C170.319,105.41,170.435,105.249,170.557,105.079l0.46,0.366c-0.17,0.236-0.328,0.457-0.328,0.457l0.452,0.599l-0.385,0.534
				l-2.203-2.962l0.455-0.632l3.508,1.148l-0.384,0.534l-0.709-0.242c-0.001,0.003-0.211,0.294-0.405,0.565L170.557,105.079z"/>
			<path id="_x38_5" fill="#FFCF46" d="M167.115,107.973c0.164-0.164,0.391-0.392,0.487-0.488c0.154-0.154,0.15-0.417-0.056-0.623
				c-0.203-0.202-0.468-0.18-0.648,0.002c-0.178,0.178-0.629,0.63-0.629,0.63l0.663,0.662
				C166.932,108.156,167.011,108.078,167.115,107.973l0.49,0.399c-0.133,0.133-0.228,0.228-0.228,0.228l0.965,0.964l-0.496,0.496
				c0,0-2.493-2.489-2.49-2.486c0,0,1.012-1.013,1.357-1.359c0.342-0.342,0.902-0.194,1.257,0.161
				c0.358,0.357,0.317,0.864,0.184,0.998c0.171-0.172,0.536-0.17,0.844,0.138c0.156,0.156,0.697,0.697,0.697,0.697l-0.479,0.479
				c0,0-0.28-0.28-0.585-0.584c-0.302-0.302-0.52-0.239-0.766,0.007c-0.092,0.093-0.183,0.184-0.261,0.261L167.115,107.973z"/>
			<path id="_x38_4" fill="#FFCF46" d="M174.537,89.941c-0.001,0.232-0.004,0.477-0.004,0.477l1.431-0.435l-1.428-0.45
				C174.539,89.534,174.538,89.732,174.537,89.941l-0.587-0.031c0.001-0.291,0.002-0.563,0.002-0.563l-0.715-0.225l0.002-0.658
				l3.514,1.131l-0.003,0.779l-3.522,1.104l0.002-0.657l0.718-0.215c0-0.003,0.001-0.361,0.002-0.695L174.537,89.941z"/>
			<path id="_x38_3" fill="#FFCF46" d="M171.361,78.029c0.112,0.204,0.23,0.419,0.23,0.419l1.036-1.079l-1.466,0.305
				C171.163,77.672,171.26,77.846,171.361,78.029l-0.527,0.259c-0.141-0.254-0.273-0.492-0.273-0.492l-0.735,0.153l-0.319-0.575
				l3.619-0.73l0.378,0.681l-2.535,2.684l-0.319-0.575l0.521-0.538c-0.001-0.003-0.175-0.316-0.338-0.608L171.361,78.029z"/>
			<path id="_x38_2" fill="#FFCF46" d="M166.204,71.701c0.173,0.156,0.355,0.32,0.355,0.32l0.625-1.358l-1.285,0.768
				C165.9,71.429,166.048,71.562,166.204,71.701l-0.413,0.418c-0.217-0.194-0.419-0.375-0.419-0.375l-0.644,0.386l-0.49-0.438
				l3.179-1.877l0.58,0.519l-1.513,3.366l-0.491-0.438l0.316-0.679c-0.002-0.002-0.269-0.241-0.518-0.463L166.204,71.701z"/>
			<path id="_x38_1" fill="#FFCF46" d="M140.553,67.568c0.215-0.088,0.442-0.181,0.442-0.181l-0.952-1.154l0.133,1.491
				C140.175,67.723,140.359,67.647,140.553,67.568l0.197,0.553c-0.269,0.111-0.52,0.215-0.52,0.215l0.067,0.747l-0.608,0.251
				l-0.307-3.679l0.72-0.297l2.374,2.827l-0.609,0.25l-0.474-0.579c-0.002,0.001-0.334,0.137-0.642,0.264L140.553,67.568z"/>
			<path id="_x38_0" fill="#FFCF46" d="M124.958,90.855c-0.001-0.231-0.002-0.554-0.003-0.689c-0.001-0.218-0.192-0.4-0.482-0.399
				c-0.286,0.002-0.457,0.206-0.455,0.462c0.001,0.252,0.004,0.89,0.004,0.89l0.937-0.005
				C124.96,91.113,124.96,91.003,124.958,90.855l0.629-0.067c0.001,0.189,0.002,0.323,0.002,0.323l1.363-0.007l0.004,0.701
				c0,0-3.523,0.018-3.519,0.018c0,0-0.007-1.432-0.01-1.92c-0.002-0.483,0.498-0.777,0.999-0.779
				c0.505-0.003,0.838,0.383,0.838,0.571c-0.001-0.242,0.257-0.5,0.693-0.502c0.22-0.001,0.985-0.005,0.985-0.005l0.004,0.677
				c0,0-0.396,0.002-0.827,0.004c-0.427,0.002-0.536,0.201-0.534,0.549c0.001,0.131,0.001,0.259,0.002,0.369L124.958,90.855z"/>
			<path id="_x37_9" fill="#FFCF46" d="M169.367,73.947c0.145,0.181,0.346,0.433,0.43,0.538c0.136,0.17,0.399,0.196,0.625,0.015
				c0.224-0.179,0.231-0.444,0.071-0.645c-0.157-0.197-0.556-0.695-0.556-0.695l-0.731,0.584
				C169.206,73.745,169.275,73.831,169.367,73.947l-0.451,0.443c-0.118-0.147-0.202-0.252-0.202-0.252l-1.065,0.851l-0.438-0.548
				c0,0,2.753-2.199,2.749-2.196c0,0,0.894,1.119,1.199,1.5c0.302,0.379,0.092,0.918-0.3,1.231c-0.396,0.316-0.895,0.22-1.013,0.072
				c0.151,0.189,0.109,0.551-0.231,0.823c-0.172,0.137-0.77,0.615-0.77,0.615l-0.423-0.529c0,0,0.309-0.247,0.646-0.516
				c0.333-0.266,0.295-0.49,0.078-0.762c-0.081-0.102-0.162-0.202-0.23-0.288L169.367,73.947z"/>
			<circle id="_x37_8" fill="#FFCF46" cx="126.103" cy="96.647" r="0.606"/>
			<circle id="_x37_7" fill="#FFCF46" cx="173.896" cy="96.647" r="0.606"/>
			<path id="_x37_6" fill="#B3D2EF" d="M142.402,83.677l-0.684,1.151l5.453,1.072c-0.01-0.118-0.017-0.238-0.019-0.359
				L142.402,83.677z"/>
			<path id="_x37_5" fill="#B3D2EF" d="M144.161,80.711l-0.574,0.971l4.001,1.841c0.043-0.089,0.089-0.174,0.138-0.257
				L144.161,80.711z"/>
			<path id="_x37_4" fill="#B3D2EF" d="M143.345,82.088l-0.563,0.948l4.425,1.707c0.019-0.119,0.042-0.237,0.07-0.352
				L143.345,82.088z"/>
			<path id="_x37_3" fill="#B3D2EF" d="M152.287,87.642l6.239,4.392c0.585-0.024,2.209-0.095,2.54-0.109l-8.605-4.619
				C152.407,87.422,152.35,87.535,152.287,87.642z"/>
			<path id="_x37_2" fill="#B3D2EF" d="M149.741,89.101l-0.292,3.014c0.169-0.003,0.499-0.006,0.557-0.008v-2.99
				c-0.002,0-0.004,0-0.005,0C149.912,89.117,149.826,89.112,149.741,89.101z"/>
			<path id="_x37_1" fill="#B3D2EF" d="M150.166,81.821l0.735-9.427L150,70.876l-0.386,0.649l0.322,10.291
				c0.021-0.001,0.042-0.003,0.063-0.003C150.055,81.814,150.111,81.817,150.166,81.821z"/>
			<path id="_x37_0" fill="#B3D2EF" d="M161.72,90.623l-1.424-2.403l-7.588-1.618c-0.042,0.161-0.09,0.316-0.147,0.466
				L161.72,90.623z"/>
			<path id="_x36_9" fill="#B3D2EF" d="M159.251,86.461l-0.827-1.391l-5.594,0.813c-0.014,0.155-0.035,0.308-0.064,0.457
				L159.251,86.461z"/>
			<path id="_x36_8" fill="#B3D2EF" d="M157.984,84.328l-0.621-1.048l-4.542,1.678c0.016,0.142,0.024,0.285,0.027,0.432
				L157.984,84.328z"/>
			<path id="_x36_7" fill="#B3D2EF" d="M156.786,82.311l-0.432-0.728l-3.701,2.555c0.036,0.118,0.068,0.239,0.094,0.362
				L156.786,82.311z"/>
			<path id="_x36_6" fill="#B3D2EF" d="M155.967,80.928l-0.547-0.921l-3.086,3.366c0.062,0.112,0.118,0.228,0.17,0.349
				L155.967,80.928z"/>
			<path id="_x36_5" fill="#B3D2EF" d="M155.202,79.642l-0.366-0.616l-2.889,3.776c0.068,0.082,0.134,0.17,0.197,0.261
				L155.202,79.642z"/>
			<path id="_x36_4" fill="#B3D2EF" d="M154.521,78.493l-0.366-0.616l-2.735,4.424c0.078,0.057,0.153,0.119,0.225,0.185
				L154.521,78.493z"/>
			<path id="_x36_3" fill="#B3D2EF" d="M153.693,77.099l-0.516-0.871l-2.148,5.833c0.085,0.042,0.167,0.089,0.248,0.141
				L153.693,77.099z"/>
			<path id="_x36_2" fill="#B3D2EF" d="M152.522,75.129l-0.706-1.19l-1.383,7.918c0.075,0.015,0.149,0.034,0.222,0.057
				L152.522,75.129z"/>
			<path id="_x36_1" fill="#B3D2EF" d="M148.675,73.108l-0.745,1.254l1.519,7.521c0.073-0.018,0.147-0.033,0.223-0.044
				L148.675,73.108z"/>
			<path id="_x36_0" fill="#B3D2EF" d="M147.289,75.442l-0.549,0.926l2.222,5.697c0.055-0.028,0.111-0.054,0.168-0.077
				L147.289,75.442z"/>
			<path id="_x35_9" fill="#B3D2EF" d="M146.22,77.242l-0.432,0.728l2.8,4.323c0.049-0.035,0.098-0.07,0.148-0.101L146.22,77.242z"
				/>
			<path id="_x35_8" fill="#B3D2EF" d="M145.327,78.749l-0.726,1.223l3.486,2.787c0.054-0.063,0.111-0.123,0.169-0.18
				L145.327,78.749z"/>
			<path id="_x35_7" fill="#B3D2EF" d="M140.616,86.533l-0.924,1.671l7.637-1.464c-0.024-0.082-0.045-0.166-0.065-0.251
				L140.616,86.533z"/>
			<path id="_x35_6" fill="#B3D2EF" d="M138.461,90.32l-1.042,1.756l10.091-4.835c-0.033-0.077-0.065-0.156-0.094-0.236
				L138.461,90.32z"/>
			<path id="_x35_5" fill="#B3D2EF" d="M142.65,90.815l0.432,0.687l4.671-3.793c-0.033-0.054-0.065-0.109-0.096-0.166L142.65,90.815
				z"/>
			<path id="_x35_4" fill="#B3D2EF" d="M143.474,92.123l0.013,0.019c0.394,0.003,0.968,0.012,1.065,0.012l3.553-3.961
				c-0.048-0.054-0.093-0.111-0.138-0.169L143.474,92.123z"/>
			<path id="_x35_3" fill="#B3D2EF" d="M146.839,90.614c0.283-0.031,0.72-0.088,0.844-0.101l0.907-1.874
				c-0.081-0.06-0.161-0.125-0.236-0.194L146.839,90.614z"/>
			<path id="_x35_2" fill="#B3D2EF" d="M148.158,90.892c0.115,0.247,0.377,0.76,0.415,0.821l0.685-2.721
				c-0.093-0.032-0.184-0.07-0.272-0.113L148.158,90.892z"/>
			<path id="_x35_1" fill="#B3D2EF" d="M150.701,92.096c0.25-0.006,0.65-0.008,0.796-0.011l-0.884-3.053
				c-0.089,0.025-0.178,0.044-0.27,0.058L150.701,92.096z"/>
			<path id="_x35_0" fill="#B3D2EF" d="M152.312,92.073c0.18-0.003,0.717,0.001,1.007,0.004l-2.228-3.238
				c-0.09,0.048-0.184,0.09-0.279,0.127L152.312,92.073z"/>
			<path id="_x34_9" fill="#B3D2EF" d="M153.939,92.08c0.359,0.002,1.145-0.006,1.378-0.003l-3.712-3.595
				c-0.048,0.043-0.098,0.083-0.148,0.121L153.939,92.08z"/>
			<path id="_x34_8" fill="#B3D2EF" d="M155.882,92.078c0.422-0.004,1.257-0.01,1.494-0.015l-5.285-4.119
				c-0.078,0.109-0.162,0.212-0.25,0.308L155.882,92.078z"/>
			<path id="_x34_7" fill="#4E2F91" d="M160.439,88.465c0.154,0.722,0.236,1.471,0.236,2.239c0,0.458-0.029,0.91-0.085,1.353
				l0.217-0.006c0.054-0.442,0.082-0.892,0.082-1.348c0-0.581-0.047-1.15-0.134-1.706L160.439,88.465z"/>
			<path id="_x34_6" fill="#4E2F91" d="M156.648,82.078c-1.839-1.42-4.145-2.265-6.649-2.265c-2.503,0-4.808,0.844-6.647,2.264
				l-0.32,0.539c1.87-1.612,4.304-2.587,6.967-2.587c2.663,0,5.098,0.976,6.969,2.589L156.648,82.078z"/>
			<path id="_x34_5" fill="#4E2F91" d="M139.559,88.467l-0.316,0.532c-0.087,0.555-0.134,1.124-0.134,1.704
				c0,0.528,0.038,1.047,0.111,1.555l0.218,0.003c-0.075-0.508-0.113-1.029-0.113-1.557
				C139.324,89.937,139.405,89.188,139.559,88.467z"/>
			<path id="_x34_4" fill="#003976" d="M160.756,88.998c0.087,0.556,0.134,1.126,0.134,1.706c0,0.456-0.028,0.906-0.082,1.347h0.217
				c0.053-0.441,0.081-0.891,0.081-1.347c0-0.416-0.023-0.827-0.068-1.231L160.756,88.998z"/>
			<path id="_x34_3" fill="#003976" d="M156.368,81.605c-1.803-1.265-3.999-2.007-6.368-2.007c-2.369,0-4.564,0.742-6.367,2.006
				l-0.28,0.472c1.839-1.419,4.144-2.264,6.647-2.264c2.504,0,4.809,0.845,6.649,2.265L156.368,81.605z"/>
			<path id="_x34_2" fill="#003976" d="M139.243,88.999l-0.281,0.475c-0.045,0.403-0.068,0.814-0.068,1.229
				c0,0.528,0.037,1.048,0.108,1.557l0.217-0.002c-0.073-0.508-0.111-1.027-0.111-1.555
				C139.108,90.124,139.155,89.555,139.243,88.999z"/>
			<path id="_x34_1" fill="#009CDC" d="M161.038,89.473c0.045,0.404,0.068,0.815,0.068,1.231c0,0.456-0.028,0.906-0.081,1.348
				l0.217,0.001c0.053-0.443,0.079-0.893,0.079-1.348c0-0.271-0.011-0.539-0.03-0.805L161.038,89.473z"/>
			<path id="_x34_0" fill="#009CDC" d="M156.111,81.173c-1.763-1.132-3.861-1.79-6.112-1.79c-2.251,0-4.348,0.657-6.111,1.789
				l-0.256,0.432c1.803-1.264,3.998-2.006,6.367-2.006c2.369,0,4.565,0.742,6.368,2.007L156.111,81.173z"/>
			<path id="_x33_9" fill="#009CDC" d="M138.961,89.474l-0.253,0.426c-0.018,0.266-0.029,0.533-0.029,0.803
				c0,0.529,0.036,1.049,0.106,1.559l0.217-0.002c-0.071-0.509-0.108-1.029-0.108-1.557
				C138.893,90.288,138.917,89.878,138.961,89.474z"/>
			<path id="_x33_8" fill="#00AD8E" d="M161.291,89.899c0.019,0.266,0.03,0.534,0.03,0.805c0,0.456-0.027,0.906-0.079,1.348
				l0.217-0.001c0.051-0.442,0.078-0.892,0.078-1.348c0-0.136-0.003-0.271-0.007-0.405L161.291,89.899z"/>
			<path id="_x33_7" fill="#00AD8E" d="M155.876,80.777c-1.722-1.021-3.73-1.61-5.877-1.61c-2.146,0-4.155,0.588-5.876,1.609
				l-0.235,0.396c1.762-1.132,3.86-1.789,6.111-1.789c2.251,0,4.349,0.657,6.112,1.79L155.876,80.777z"/>
			<path id="_x33_6" fill="#00AD8E" d="M138.708,89.9l-0.237,0.399c-0.005,0.134-0.008,0.269-0.008,0.404
				c0,0.532,0.036,1.055,0.105,1.568l0.216-0.009c-0.07-0.51-0.106-1.031-0.106-1.559C138.678,90.433,138.689,90.166,138.708,89.9z"
				/>
			<path id="_x33_5" fill="#FFF200" d="M161.529,90.301c0.004,0.133,0.006,0.266,0.006,0.403c0,0.458-0.026,0.91-0.078,1.353
				l0.217-0.005c0.051-0.443,0.077-0.893,0.077-1.348c0-0.01-0.001-0.021-0.001-0.031L161.529,90.301z"/>
			<path id="_x33_4" fill="#FFF200" d="M155.654,80.402c-1.678-0.923-3.604-1.449-5.654-1.449c-2.049,0-3.976,0.526-5.653,1.449
				l-0.223,0.375c1.721-1.021,3.729-1.609,5.876-1.609c2.147,0,4.155,0.589,5.877,1.61L155.654,80.402z"/>
			<path id="_x33_3" fill="#FFF200" d="M138.472,90.299l-0.223,0.375c0,0.01-0.001,0.02-0.001,0.029
				c0,0.527,0.035,1.048,0.102,1.557l0.219,0.011c-0.07-0.513-0.105-1.036-0.105-1.568
				C138.463,90.568,138.467,90.433,138.472,90.299z"/>
			<path id="_x33_2" fill="#FAAB54" d="M161.75,90.673c0,0.01,0.001,0.021,0.001,0.031c0,0.455-0.026,0.905-0.076,1.347l0.216,0.001
				c0.038-0.337,0.062-0.679,0.071-1.024L161.75,90.673z"/>
			<path id="_x33_1" fill="#FAAB54" d="M155.442,80.046c-1.633-0.836-3.483-1.309-5.443-1.309c-1.96,0-3.809,0.473-5.442,1.308
				l-0.211,0.356c1.677-0.922,3.604-1.449,5.653-1.449c2.05,0,3.977,0.526,5.654,1.449L155.442,80.046z"/>
			<path id="_x33_0" fill="#FAAB54" d="M138.249,90.675l-0.211,0.354c0.011,0.417,0.043,0.828,0.095,1.233l0.217-0.001
				c-0.067-0.509-0.102-1.029-0.102-1.557C138.248,90.694,138.249,90.684,138.249,90.675z"/>
			<path id="_x32_9" fill="#ED1C2E" d="M161.961,91.029c-0.009,0.345-0.033,0.686-0.071,1.023l0.217-0.001
				c0.025-0.226,0.043-0.454,0.056-0.682L161.961,91.029z"/>
			<path id="_x32_8" fill="#ED1C2E" d="M155.241,79.706c-1.588-0.758-3.365-1.184-5.241-1.184c-1.877,0-3.653,0.426-5.24,1.183
				l-0.202,0.34c1.633-0.835,3.482-1.308,5.442-1.308c1.96,0,3.81,0.473,5.443,1.309L155.241,79.706z"/>
			<path id="_x32_7" fill="#ED1C2E" d="M137.837,91.368c0.016,0.3,0.042,0.599,0.08,0.893l0.217,0.001
				c-0.053-0.405-0.084-0.816-0.095-1.233L137.837,91.368z"/>
			<path id="_x32_6" fill="#003976" d="M143.883,92.8c0.269,0.011,1.03,0.022,1.198,0.022c0.168,0,0.358,0.187-0.011,0.187
				c-0.369,0-0.952,0.022-1.041,0.022L143.883,92.8z"/>
			<path id="_x32_5" fill="#003976" d="M144.287,93.371c0.179,0,0.515-0.033,0.627-0.022c0.112,0.011,0.168,0.099,0,0.121
				c-0.168,0.022-0.381,0.066-0.537,0.077L144.287,93.371z"/>
			<path id="_x32_4" fill="#003976" d="M149.091,92.733c0.168,0.033,1.131-0.011,1.299-0.011v0.177
				c-0.403,0.011-1.03,0.077-1.198,0.066L149.091,92.733z"/>
			<path id="_x32_3" fill="#003976" d="M153.895,92.546c0.269,0,0.75,0.022,0.907,0.022l-0.011,0.143
				c-0.291-0.011-0.717,0.043-0.806,0.043L153.895,92.546z"/>
			<path id="_x32_2" fill="#003976" d="M157.065,92.59c0.291-0.022,0.907,0.011,1.075,0.011l-0.012,0.165
				c-0.347,0.011-0.772,0.022-0.941,0.022L157.065,92.59z"/>
			<path id="_x32_1" fill="#003976" d="M163.576,93.749c-0.397,0.016-0.962,0.067-1.102,0.094c-0.168,0.033-0.235,0.22,0.056,0.176
				c0.231-0.035,0.834-0.062,1.163-0.073L163.576,93.749z"/>
			<path id="_x32_0" fill="#003976" d="M136.336,93.897c0.373,0.009,1.228,0.082,1.668,0.156l0.448-0.242
				c-0.276-0.04-1.445-0.135-1.98-0.143L136.336,93.897z"/>
			<path id="_x31_9" fill="#003976" d="M136.715,93.259l-0.118,0.2c0.591-0.136,1.676-0.087,2.259,0.056l0.202-0.187
				C138.622,93.113,137.277,93.163,136.715,93.259z"/>
			<path id="_x31_8" fill="#003976" d="M137.055,92.684l-0.214,0.361c0.739-0.164,2.063-0.303,2.719-0.146l0.19-0.177
				C139.029,92.473,137.633,92.622,137.055,92.684z"/>
			<path id="_x31_7" fill="#003976" d="M140.459,98.725c-0.14-0.035,0.048-0.139,0.233-0.219c0.806-0.352,1.837-0.154,2.33-0.055
				c0.484,0.097,0.427,0.205,0.287,0.25c0.548-0.007,1.108-0.018,1.601-0.038c-0.366-0.012-0.79-0.095-1.552-0.344
				c-1.075-0.352-2.508-0.154-3.001,0c-0.403,0.126-0.881,0.207-1.384,0.125C139.445,98.577,139.965,98.687,140.459,98.725z"/>
			<path id="_x31_6" fill="#003976" d="M162.472,91.889c-0.803-0.006-3.042,0.101-3.795,0.14c-0.851,0.044-4.658,0.066-5.599,0.044
				c-0.941-0.022-5.533,0.088-6.876,0.088c-1.282,0-7.497-0.06-8.786-0.085l-0.192,0.324c0.74-0.01,4.246,0.046,5.416,0.025
				c1.254-0.022,4.502,0.022,5.622,0c1.12-0.022,3.785-0.11,4.301-0.088c0.515,0.022,4.255,0,4.95-0.044
				c0.667-0.042,3.15-0.105,5.111-0.148L162.472,91.889z"/>
			<path id="_x31_5" fill="#003976" d="M162.774,92.397c-0.675,0.018-1.675,0.064-1.834,0.083c-0.18,0.022-0.369,0.187,0.056,0.154
				c0.344-0.026,1.415-0.024,1.905-0.023L162.774,92.397z"/>
			<path id="_x31_4" fill="#003976" d="M163.038,92.842c-0.516,0.003-1.537,0.049-1.684,0.078c-0.168,0.033-0.28,0.253,0.034,0.187
				c0.256-0.054,1.289-0.072,1.762-0.076L163.038,92.842z"/>
			<path id="_x31_3" fill="#003976" d="M163.334,93.34c-0.471,0.019-1.266,0.109-1.42,0.118c-0.18,0.011-0.347,0.187,0,0.176
				c0.282-0.008,1.148-0.083,1.529-0.111L163.334,93.34z"/>
			<path id="_x31_2" fill="#003976" d="M165.532,97.045c-0.448,0.027-1.049-0.083-1.301-0.178c-0.291-0.11-0.537-0.154-0.156,0.066
				c0.336,0.194,1.159,0.353,1.594,0.343L165.532,97.045z"/>
			<path id="_x31_1" fill="#003976" d="M165.852,97.585c-0.498,0.012-1.54-0.15-2.27-0.498c-0.829-0.396-1.902-0.25-2.823-0.132
				c-1.724,0.22-2.598,0.11-4.009-0.22c-1.411-0.33-3.315-0.286-3.964-0.022c-0.649,0.264-0.515,0.352,0.179,0.22
				c0.695-0.132,2.307-0.33,3.696,0.044c1.389,0.374,2.71,0.44,3.561,0.374c0.851-0.066,1.546-0.154,1.904-0.132
				c0.358,0.022,0.314,0.136,0,0.176c-2.576,0.33-3.651,0.418-5.129,0c-1.479-0.418-2.845-0.264-3.831-0.132
				c-0.985,0.132-1.971,0.066-2.889-0.286c-0.919-0.352-1.638-0.468-2.195-0.286c-0.201,0.066-0.269,0.176,0.067,0.132
				c0.336-0.044,1.276-0.044,2.083,0.33c0.806,0.374,2.038,0.462,3.136,0.308c1.097-0.154,2.441-0.33,3.606,0.154
				c1.165,0.483,2.508,0.374,3.696,0.198c1.187-0.176,1.993-0.396,2.934-0.154c0.83,0.213,1.955,0.272,2.424,0.223L165.852,97.585z"
				/>
			<path id="_x31_0" fill="#003976" d="M166.167,98.115c-0.53,0.092-1.89-0.01-2.473-0.149c-0.649-0.154-1.703-0.022-3.203,0.264
				c-1.501,0.286-3.135-0.198-3.987-0.396c-0.851-0.198-1.903-0.22-2.665-0.132c-0.761,0.088-1.971,0.242-3.696-0.264
				c-2.138-0.627-3.27-0.352-3.807-0.198c-0.537,0.154-1.68,0.154-2.889-0.176c-1.209-0.33-2.307-0.242-3.046-0.044
				c-0.739,0.198-1.859,0.352-2.889,0.044c-0.952-0.285-2.172-0.287-2.917-0.234l-0.148,0.251c0.647-0.111,2.143-0.147,3.043,0.203
				c1.076,0.418,2.532,0.245,3.024,0.088c1.097-0.352,1.814-0.286,2.889,0.044c0.758,0.232,2.185,0.275,3.113,0.044
				c1.501-0.374,2.352-0.154,3.584,0.242c1.232,0.396,2.934,0.44,3.853,0.374c0.918-0.066,1.702-0.286,2.822,0.066
				c1.12,0.352,2.62,0.594,3.919,0.286c1.299-0.308,2.464-0.352,3.069-0.242c0.573,0.104,1.608,0.248,2.515,0.113L166.167,98.115z"
				/>
			<path id="_x39_" fill="#003976" d="M166.418,98.537c-0.394,0.053-1.304,0.075-2.163-0.042c-1.397-0.192-2.424-0.085-3.337,0.132
				c-1.389,0.33-2.173,0.22-3.292-0.044c-1.12-0.264-2.15-0.33-3.404-0.198c-1.254,0.132-3.113-0.088-4.547-0.462
				c-1.433-0.374-2.598-0.22-3.651,0.044c-1.052,0.264-2.687-0.022-3.203-0.264c-0.515-0.242-1.277-0.264-2.307-0.044
				c-1.03,0.22-1.949,0.154-3.002-0.132c-0.982-0.267-2.277-0.38-3.191-0.233l-0.103,0.173c0.673-0.076,2.356-0.122,3.317,0.236
				c1.12,0.418,2.374,0.286,3.024,0.154c0.649-0.132,1.772-0.18,2.262,0.066c1.052,0.528,2.713,0.407,3.315,0.242
				c1.366-0.374,2.374-0.374,3.539-0.022c1.165,0.352,3.292,0.572,4.614,0.396c0.892-0.119,2.24-0.066,3.337,0.242
				c1.098,0.308,2.173,0.352,3.405,0.022c1.232-0.33,2.575-0.242,3.315-0.132c0.704,0.104,1.267,0.189,2.191,0.063L166.418,98.537z"
				/>
			<path id="_x38_" fill="#003976" d="M166.724,99.053c-0.431,0.038-1.823,0.052-2.425-0.009c-0.65-0.066-1.703-0.22-2.867,0.11
				c-1.165,0.33-2.822,0.286-3.74-0.022c-0.918-0.308-2.105-0.418-3.203-0.264c-1.098,0.154-2.486,0.264-4.144-0.22
				c-1.657-0.484-2.307-0.572-4.053-0.11c-0.74,0.195-4.301,0.154-5.309,0.198c-1.008,0.044-2.262-0.33-3.024-0.638
				c-0.72-0.291-2.599-0.424-3.956-0.271l-0.157,0.264c1.273-0.264,2.933-0.03,3.576,0.337c-0.814-0.196-2.77-0.108-3.822,0.078
				l-0.233,0.393c1.663-0.364,4.138-0.271,5.04-0.075c1.008,0.22,2.665,0.396,3.74,0.132c1.037-0.255,2.697,0.064,3.718,0.462h4.657
				c-0.73-0.446-1.589-0.194-2.215-0.132c-0.672,0.065-1.322-0.089-1.635-0.286c-0.313-0.198,0-0.176,0.538-0.33
				c1.557-0.446,2.776,0.081,3.68,0.748h3.663c0.99-0.669,1.867-0.342,2.378-0.154c0.129,0.047,0.411,0.103,0.776,0.154h3.861
				c0.941-0.374,2.173-0.242,2.777-0.154c0.591,0.085,1.376,0.171,2.499-0.01L166.724,99.053z"/>
			<path id="_x37_" fill="#00AD8E" d="M164.055,94.557c-2.374-0.038-3.381-1.438-4.258-2.901c-0.448,0.022-1.098,0.089-1.523,0.066
				c-0.067,0.22-0.358,0.968-0.538,1.54c-0.515-0.33-1.052-1.43-1.366-2.045c-0.246,0-0.761,0.022-1.165-0.022
				c-0.157,0.33-0.627,1.407-0.828,1.847c-0.381-0.396-1.299-1.737-1.635-2.265c-0.426-0.022-1.052,0.066-1.545,0.066
				c-0.269,0.791-0.806,1.957-1.479,2.638c-0.493-0.483-1.433-2.243-1.747-2.991c-0.313,0-0.941,0.132-1.299,0.132
				c-0.313,0.615-1.209,2.463-1.747,3.43c-0.896-0.924-2.016-2.815-2.778-4.09l-1.075,0.088c-1.352,3.767-3.68,4.284-5.084,4.431
				l-1.062,1.789c0.544,0.004,1.463,0.097,2.136,0.311c0.762,0.242,2.173,0.417,3.27,0.022c1.098-0.396,2.262-0.33,3.404-0.11
				c1.142,0.22,3.069,0.352,4.748-0.461c2.15,1.077,3.517,0.483,4.569,0.264c1.053-0.22,2.508-0.374,3.629-0.022
				c1.477,0.464,3.378,0.464,4.771,0.088c1.684-0.455,2.693,0.427,3.958,0.482L164.055,94.557z"/>
			<path id="_x36_" fill="#FFE01B" d="M141.073,90.051c0.089,2.001,1.232,4.096,4.099,6.602c0.18,0.011,0.458,0.006,0.643,0
				c-0.761-0.748-2.48-2.622-3.062-3.535c-0.022-0.154-0.045-0.319-0.045-0.429c1.579,1.792,2.743,3.177,4.244,3.837
				c0.271-0.049,0.642-0.14,0.887-0.231c-2.493-1.286-3.854-3.177-5.691-6.333C141.789,89.996,141.33,90.018,141.073,90.051z"/>
			<path id="_x35_" fill="#FFE01B" d="M151.706,90.82c-0.426,1.297-0.935,2.529-1.674,3.167c0.123,0.143,0.313,0.297,0.448,0.428
				c0.313-0.242,0.717-0.715,0.817-0.825c0.19,0.088,0.258,0.462-0.247,1.319c0.65,0.44,1.747,1.048,2.531,1.289
				c-0.655,0.099-1.438,0.327-1.792,0.382c-1.433-1.034-2.564-1.737-3.662-3.606c-0.157,0.703-0.05,1.041,0.448,1.605
				c0.448,0.506,1.154,1.295,2.497,2.075c-0.802,0.023-1.643-0.145-2.587-0.623c-0.537-0.902-1.612-2.925-1.814-5.409
				c0.384-0.008,0.939-0.124,1.299-0.132c0.404,0.899,1.193,2.392,1.747,2.991c0.474-0.478,1.112-1.534,1.479-2.638
				C151.33,90.839,151.634,90.826,151.706,90.82z"/>
			<path id="_x34_" fill="#FFE01B" d="M155.595,91.219c-0.135,0.648-0.58,1.646-0.893,2.185c-0.09-0.099-0.244-0.253-0.325-0.363
				l0.828-1.847C155.307,91.203,155.522,91.225,155.595,91.219z"/>
			<path id="_x33_" fill="#FFE01B" d="M154.814,93.865c0.123,0.067,0.347,0.231,0.437,0.275c0.258-0.396,0.313-0.715,0.246-1.308
				C155.194,93.074,155.161,93.624,154.814,93.865z"/>
			<path id="_x32_" fill="#FFE01B" d="M157.736,93.261c0.123,0.11,0.269,0.209,0.381,0.286c0.224-0.615,0.482-1.407,0.549-1.825
				c-0.146,0.006-0.273,0.011-0.392,0C158.047,92.362,157.804,93.041,157.736,93.261z"/>
			<polygon id="_x31_" fill="none" points="166.941,99.418 150,70.876 133.059,99.418 			"/>
		</g>
	</g>
</switch>
</svg>