<?xml version="1.0" encoding="utf-8"?>
<svg version="1.1" id="Countryflags.com" width = "100%" height = "100%"
	 xmlns="http://www.w3.org/2000/svg" xmlns:xlink="http://www.w3.org/1999/xlink" x="0px" y="0px" viewBox="144.5 696.5 300 200"
	 enable-background="new 144.5 696.5 300 200" xml:space="preserve">
<switch>
	<g>
		<g>
			<path id="_x36_" fill="#009E49" d="M444.5,696.5h-300v200"/>
			<path id="_x35_" fill="#CE1126" d="M144.5,896.5h300v-200"/>
			<g id="Group_1">
				<defs>
					<rect id="_x32__1_" x="144.5" y="696.5" width="300" height="200"/>
				</defs>
				<clipPath id="_x32__2_">
					<use xlink:href="#_x32__1_"  overflow="visible"/>
				</clipPath>
				<path id="_x34_" clip-path="url(#_x32__2_)" stroke="#FCD116" stroke-width="80" d="M144.5,896.5l300-200"/>
				<path id="_x33_" clip-path="url(#_x32__2_)" stroke="#000000" stroke-width="60" d="M144.5,896.5l300-200"/>
			</g>
			<polygon id="_x32_" fill="#FFFFFF" points="324.544,766.072 344.87,766.892 350.371,786.477 357.433,767.399 377.759,768.219 
				361.797,755.608 368.858,736.529 351.931,747.813 335.968,735.203 341.47,754.788 			"/>
			<polygon id="_x31_" fill="#FFFFFF" points="210.544,842.072 230.87,842.892 236.371,862.477 243.433,843.399 263.759,844.219 
				247.797,831.608 254.858,812.529 237.931,823.813 221.968,811.203 227.47,830.788 			"/>
		</g>
	</g>
</switch>
</svg>