<?xml version="1.0" encoding="utf-8"?>
<svg version="1.1" id="Countryflags.com" width = "100%" height = "100%"
	 xmlns="http://www.w3.org/2000/svg" xmlns:xlink="http://www.w3.org/1999/xlink" x="0px" y="0px" viewBox="1134.5 1116.5 300 150"
	 enable-background="new 1134.5 1116.5 300 150" xml:space="preserve">
<switch>
	<g>
		<g>
			<rect id="_x37_" x="1134.5" y="1116.5" fill="#CE1126" width="300" height="150"/>
			<rect id="_x36_" x="1134.5" y="1116.5" fill="#002B7F" width="150" height="75"/>
			<polygon id="_x35_" fill="#FFFFFF" points="1209.5,1168.561 1215.938,1188.375 1199.083,1176.129 1219.917,1176.129 
				1203.062,1188.375 			"/>
			<polygon id="_x34_" fill="#FFFFFF" points="1186.584,1138.375 1191.734,1154 1178.25,1144.343 1194.917,1144.343 1181.433,1154 
							"/>
			<polygon id="_x33_" fill="#FFFFFF" points="1232.938,1135.25 1237.766,1149.833 1225.125,1140.82 1240.75,1140.82 
				1228.109,1149.833 			"/>
			<polygon id="_x32_" fill="#FFFFFF" points="1209.5,1119.625 1214.651,1135.25 1201.167,1125.593 1217.834,1125.593 
				1204.35,1135.25 			"/>
			<polygon id="_x31_" fill="#FFFFFF" points="1220.959,1154.51 1224.177,1164.416 1215.75,1158.294 1226.167,1158.294 
				1217.74,1164.416 			"/>
		</g>
	</g>
</switch>
</svg>