<?xml version="1.0" encoding="utf-8"?>
<svg version="1.1" id="Countryflags.com" width = "100%" height = "100%"
	 xmlns="http://www.w3.org/2000/svg" xmlns:xlink="http://www.w3.org/1999/xlink" x="0px" y="0px" viewBox="1854.5 1836.5 300 200"
	 enable-background="new 1854.5 1836.5 300 200" xml:space="preserve">
<switch>
	<g>
		<g>
			<rect id="_x39_" x="1854.5" y="1836.5" fill="#ED2939" width="300" height="100"/>
			<rect id="_x38_" x="1854.5" y="1936.5" fill="#FFFFFF" width="300" height="100"/>
			<path id="_x37_" fill="#FFFFFF" d="M1957.395,1886.5c0,20.768-16.836,37.604-37.604,37.604
				c-20.768,0-37.604-16.836-37.604-37.604s16.836-37.604,37.604-37.604C1940.558,1848.896,1957.395,1865.732,1957.395,1886.5z"/>
			<path id="_x36_" fill="#ED2939" d="M1969.211,1886.5c0,19.627-15.911,35.537-35.537,35.537s-35.537-15.911-35.537-35.537
				c0-19.627,15.911-35.537,35.537-35.537S1969.211,1866.873,1969.211,1886.5z"/>
			<path id="_x35_" fill="#FFFFFF" d="M1924.444,1887.407l-5.108-3.919l-5.107,3.921l1.966-6.319l-5.125-3.895l6.324,0.013
				l1.94-6.328l1.942,6.327l6.323-0.016l-5.123,3.897L1924.444,1887.407z"/>
			<path id="_x34_" fill="#FFFFFF" d="M1964.527,1887.407l-5.108-3.919l-5.107,3.921l1.966-6.319l-5.125-3.895l6.324,0.013
				l1.94-6.328l1.942,6.327l6.323-0.016l-5.123,3.897L1964.527,1887.407z"/>
			<path id="_x33_" fill="#FFFFFF" d="M1944.506,1872.531l-5.108-3.919l-5.107,3.921l1.966-6.319l-5.125-3.895l6.323,0.013
				l1.94-6.328l1.942,6.327l6.324-0.016l-5.123,3.897L1944.506,1872.531z"/>
			<path id="_x32_" fill="#FFFFFF" d="M1931.944,1911.209l-5.108-3.919l-5.107,3.921l1.966-6.319l-5.125-3.895l6.324,0.013
				l1.94-6.328l1.942,6.327l6.323-0.016l-5.123,3.897L1931.944,1911.209z"/>
			<path id="_x31_" fill="#FFFFFF" d="M1957.027,1911.209l-5.108-3.919l-5.107,3.921l1.966-6.319l-5.125-3.895l6.324,0.013
				l1.94-6.328l1.942,6.327l6.323-0.016l-5.123,3.897L1957.027,1911.209z"/>
		</g>
	</g>
</switch>
</svg>