<?xml version="1.0" encoding="utf-8"?>
<svg version="1.1" width = "100%" height = "100%"
	 id="Countryflags.com" xmlns:svg="http://www.w3.org/2000/svg" xmlns:dc="http://purl.org/dc/elements/1.1/" xmlns:rdf="http://www.w3.org/1999/02/22-rdf-syntax-ns#" xmlns:cc="http://creativecommons.org/ns#"
	 xmlns="http://www.w3.org/2000/svg" xmlns:xlink="http://www.w3.org/1999/xlink" x="0px" y="0px" viewBox="144.5 796.5 300 200"
	 enable-background="new 144.5 796.5 300 200" xml:space="preserve">
<switch>
	<g>
		<g>
			<rect id="_x38_" x="144.5" y="796.5" fill="#EE1C25" width="300" height="200"/>
			<rect id="_x37_" x="144.5" y="796.5" fill="#0B4EA2" width="300" height="133.333"/>
			<rect id="_x36_" x="144.5" y="796.5" fill="#FFFFFF" width="300" height="66.667"/>
			<path id="_x35_" fill="#FFFFFF" d="M249.919,951c-17.927-8.635-43.57-25.774-43.57-59.678S207.969,842,207.969,842h41.949h41.95
				c0,0,1.621,15.419,1.621,49.322S267.847,942.365,249.919,951z"/>
			<path id="_x34_" fill="#EE1C25" d="M249.919,946.5c-16.447-7.922-39.973-23.646-39.973-54.751c0-31.104,1.487-45.25,1.487-45.25
				h38.485h38.486c0,0,1.488,14.146,1.488,45.25C289.892,922.854,266.366,938.578,249.919,946.5z"/>
			<g id="Group_1">
				<defs>
					<path id="_x31_" d="M249.919,946.5c-16.447-7.922-39.973-23.646-39.973-54.751c0-31.104,1.487-45.25,1.487-45.25h38.485h38.486
						c0,0,1.488,14.146,1.488,45.25C289.892,922.854,266.366,938.578,249.919,946.5z"/>
				</defs>
				<clipPath id="_x31__1_">
					<use xlink:href="#_x31_"  overflow="visible"/>
				</clipPath>
				<path id="_x33_" clip-path="url(#_x31__1_)" fill="#FFFFFF" d="M253.436,883.594c4.453,0.072,13.142,0.246,20.879-2.342
					c0,0-0.204,2.769-0.204,5.994c0,3.226,0.204,5.994,0.204,5.994c-7.096-2.375-15.86-2.424-20.879-2.361v17.18h-7.034v-17.18
					c-5.018-0.063-13.782-0.014-20.878,2.361c0,0,0.204-2.768,0.204-5.994c0-3.225-0.204-5.994-0.204-5.994
					c7.737,2.589,16.425,2.414,20.878,2.342v-10.789c-4.059-0.036-9.908,0.158-16.521,2.371c0,0,0.204-2.769,0.204-5.994
					c0-3.225-0.204-5.994-0.204-5.994c6.604,2.21,12.445,2.407,16.503,2.371c-0.208-6.832-2.199-15.443-2.199-15.443
					s4.096,0.32,5.734,0.32c1.639,0,5.734-0.32,5.734-0.32s-1.99,8.611-2.199,15.443c4.058,0.035,9.9-0.162,16.503-2.371
					c0,0-0.204,2.769-0.204,5.994c0,3.226,0.204,5.994,0.204,5.994c-6.613-2.213-12.462-2.407-16.521-2.371V883.594z"/>
				<path id="_x32_" clip-path="url(#_x31__1_)" fill="#0B4EA2" d="M249.194,956.704l-34.078-30.377c0,0,4.357-14.091,12.86-14.091
					c6.757,0,9.224,5.449,9.224,5.449s4.437-11.486,12.719-11.486c8.283,0,12.72,11.486,12.72,11.486s2.465-5.449,9.223-5.449
					c8.504,0,12.86,14.091,12.86,14.091L249.194,956.704z"/>
			</g>
		</g>
	</g>
</switch>
</svg>