<?xml version="1.0" encoding="utf-8"?>
<svg version="1.1" id="Countryflags.com" width = "100%" height = "100%"
	 xmlns="http://www.w3.org/2000/svg" xmlns:xlink="http://www.w3.org/1999/xlink" x="0px" y="0px" viewBox="0 0 300 150"
	 enable-background="new 0 0 300 150" xml:space="preserve">
<switch>
	<g>
		<g>
			<rect id="_x31_1" y="-0.116" fill="#EC2227" width="300" height="150"/>
			<rect id="_x31_0" y="-0.116" fill="#035EA5" width="300" height="100"/>
			<rect id="_x39_" y="-0.116" fill="#FFFFFF" width="300" height="50"/>
			<path id="_x38_" fill="#035EA5" d="M92.908,52.496l1.575-23.246c-12.282-5.82-26.528-5.82-38.81,0l1.575,23.246
				c0.708,10.445,7.808,19.361,17.83,22.388C85.101,71.857,92.201,62.941,92.908,52.496"/>
			<path id="_x37_" fill="#FFFFFF" d="M60.525,55.645c1.687,7.593,7.199,13.765,14.554,16.295
				c7.355-2.53,12.867-8.702,14.554-16.295l-7.277-9.702l-2.911,3.881l-4.366-8.732l-4.366,8.732l-2.911-3.881L60.525,55.645"/>
			<path id="_x36_" fill="#035EA5" d="M61.175,58.071c1.34,2.32,4.307,3.115,6.627,1.776l0,0c1.501-0.867,3.351-0.867,4.851,0
				c1.501,0.866,3.351,0.866,4.852,0c1.501-0.867,3.35-0.867,4.851,0c2.32,1.339,5.287,0.544,6.627-1.776l0,0v1.401
				c-1.339,2.32-4.307,3.115-6.627,1.776l0,0c-1.501-0.867-3.35-0.867-4.851,0c-1.501,0.867-3.351,0.867-4.852,0
				c-1.5-0.867-3.35-0.867-4.851,0c-2.32,1.339-5.287,0.545-6.627-1.776l0,0V58.071z"/>
			<path id="_x35_" fill="#035EA5" d="M61.175,60.872c1.34,2.32,4.307,3.116,6.627,1.776l0,0c1.501-0.867,3.351-0.867,4.851,0
				c1.501,0.866,3.351,0.866,4.852,0c1.501-0.867,3.35-0.867,4.851,0c2.32,1.34,5.287,0.545,6.627-1.775c0,0,0,0,0,0v1.4
				c-1.339,2.32-4.307,3.116-6.627,1.776l0,0c-1.501-0.867-3.35-0.867-4.851,0c-1.501,0.867-3.351,0.867-4.852,0
				c-1.5-0.867-3.35-0.867-4.851,0c-2.32,1.34-5.287,0.545-6.627-1.775c0,0,0,0,0,0V60.872z"/>
			<path id="_x34_" fill="#FEDC00" d="M75.079,34.421l0.364,1.189l1.212-0.279l-0.848,0.91l0.848,0.91l-1.212-0.28l-0.364,1.189
				l-0.364-1.189l-1.212,0.28l0.848-0.91l-0.848-0.91l1.212,0.279L75.079,34.421z"/>
			<path id="_x33_" fill="#FEDC00" d="M69.621,27.144l0.364,1.189l1.211-0.279l-0.848,0.91l0.848,0.91l-1.211-0.28l-0.364,1.189
				l-0.364-1.189l-1.211,0.28l0.847-0.91l-0.847-0.91l1.211,0.279L69.621,27.144z"/>
			<path id="_x32_" fill="#FEDC00" d="M80.536,27.144l0.364,1.189l1.212-0.279l-0.848,0.91l0.848,0.91l-1.212-0.28l-0.364,1.189
				l-0.364-1.189l-1.212,0.28l0.848-0.91l-0.848-0.91l1.212,0.279L80.536,27.144z"/>
			<path id="_x31_" fill="#EC2227" d="M57.035,28.632l1.611,23.77c0.658,9.708,7.169,18.035,16.433,21.014
				c9.263-2.98,15.774-11.306,16.432-21.014l1.611-23.77c0.45,0.213,0.904,0.42,1.361,0.618l-1.575,23.246
				c-0.707,10.445-7.807,19.361-17.829,22.389c-10.022-3.027-17.123-11.943-17.83-22.389L55.673,29.25
				C56.131,29.052,56.585,28.845,57.035,28.632"/>
		</g>
	</g>
</switch>
</svg>