<?xml version="1.0" encoding="utf-8"?>
<svg version="1.1" id="Countryflags.com" width = "100%" height = "100%"
	 xmlns="http://www.w3.org/2000/svg" xmlns:xlink="http://www.w3.org/1999/xlink" x="0px" y="0px" viewBox="144.5 621.5 300 150"
	 enable-background="new 144.5 621.5 300 150" xml:space="preserve">
<switch>
	<g>
		<g>
			<rect id="_x32_7" x="144.5" y="621.5" fill="#C8313E" width="300" height="150"/>
			<rect id="_x32_6" x="144.5" y="721.5" fill="#4AA657" width="300" height="50"/>
			<rect id="_x32_5" x="144.5" y="621.5" fill="#FFFFFF" width="33.333" height="150"/>
			<path id="_x32_4" fill="#C8313E" d="M150.297,621.5h4.348v2.459h1.449v2.459h1.449v2.459h1.449v2.459h1.45v2.459h-1.45v2.459
				h-1.449v2.459h-1.449v2.459h-1.449v2.459h-1.449v2.459h-1.449v-2.459h-1.45v-2.459h-1.449v-2.459h-1.449v-2.459h-1.449v-2.459
				H144.5v-2.459h1.449v-2.459h1.449v-2.459h1.449v-2.459h1.449V621.5z M151.747,626.418h1.449v2.459h1.449v2.459h1.449v2.459
				h-1.449v2.459h-1.449v2.459h-1.449v-2.459h-1.45v-2.459h-1.449v-2.459h1.449v-2.459h1.45V626.418z M151.747,631.336h1.449v2.459
				h-1.449V631.336z M144.5,623.959h1.449v2.459H144.5V623.959z M144.5,638.713h1.449v2.459H144.5V638.713z M160.442,621.5h0.869
				v4.918h-0.869V621.5z M160.442,638.713h0.869v4.918h-0.869V638.713z M147.399,643.631h1.449v2.459h1.449v2.459h1.45v2.459h-1.45
				v2.459h-1.449v2.459h-1.449v-2.459h-1.449v-2.459H144.5v-2.459h1.449v-2.459h1.449V643.631z M147.399,648.549h1.449v2.459h-1.449
				V648.549z M156.094,643.631h1.449v2.459h1.449v2.459h1.45v2.459h-1.45v2.459h-1.449v2.459h-1.449v-2.459h-1.449v-2.459h-1.449
				v-2.459h1.449v-2.459h1.449V643.631z M156.094,648.549h1.449v2.459h-1.449V648.549z M144.5,658.385h1.449v2.459H144.5V658.385z
				 M160.442,655.926h0.869v4.918h-0.869V655.926z"/>
			<path id="_x32_3" fill="#C8313E" d="M144.5,665.762h1.449v-2.459h1.449v-2.459h1.449v-2.459h1.449v-2.459h1.45v-2.459h1.449
				v2.459h1.449v2.459h1.449v2.459h1.449v2.459h1.449v2.459h1.45v2.459h0.869v9.836h-0.869v2.459h-1.45v2.459h-1.449v2.459h-1.449
				v2.459h-1.449v2.459h-1.449v6.394h-2.899v-1.476h-1.449v-2.459h-1.449v-2.459h-1.449v-2.459H144.5v-7.377h1.449v2.459h1.449
				v2.459h1.449v2.459h1.449v-2.459h1.45v-2.459h1.449v-2.459h1.449v-2.459h1.449v-2.459h1.449v-2.459h-1.449v-2.459h-1.449v-2.459
				h-4.348v2.459h2.899v2.459h-1.449v2.459h-1.45v2.459h-1.449v-2.459h-1.449v-2.459h-1.449v-2.459H144.5V665.762z M144.5,675.598
				h1.449v2.459H144.5V675.598z M160.442,682.975h0.869v2.459h-0.869V682.975z M157.544,687.893h1.449v2.459h1.45v2.459h0.869v3.935
				h-0.869v-1.476h-1.45v-2.459h-1.449V687.893z M154.645,695.27h1.449v1.476h-1.449V695.27z"/>
			<path id="_x32_2" fill="#C8313E" d="M172.036,621.5h-4.348v2.459h-1.45v2.459h-1.449v2.459h-1.449v2.459h-1.449v2.459h1.449
				v2.459h1.449v2.459h1.449v2.459h1.45v2.459h1.449v2.459h1.449v-2.459h1.449v-2.459h1.449v-2.459h1.449v-2.459h1.45v-2.459h1.449
				v-2.459h-1.449v-2.459h-1.45v-2.459h-1.449v-2.459h-1.449V621.5z M170.587,626.418h-1.449v2.459h-1.449v2.459h-1.45v2.459h1.45
				v2.459h1.449v2.459h1.449v-2.459h1.449v-2.459h1.449v-2.459h-1.449v-2.459h-1.449V626.418z M170.587,631.336h-1.449v2.459h1.449
				V631.336z M177.834,623.959h-1.449v2.459h1.449V623.959z M177.834,638.713h-1.449v2.459h1.449V638.713z M161.892,621.5h-0.869
				v4.918h0.869V621.5z M161.892,638.713h-0.869v4.918h0.869V638.713z M174.935,643.631h-1.449v2.459h-1.449v2.459h-1.449v2.459
				h1.449v2.459h1.449v2.459h1.449v-2.459h1.45v-2.459h1.449v-2.459h-1.449v-2.459h-1.45V643.631z M174.935,648.549h-1.449v2.459
				h1.449V648.549z M166.239,643.631h-1.449v2.459h-1.449v2.459h-1.449v2.459h1.449v2.459h1.449v2.459h1.449v-2.459h1.45v-2.459
				h1.449v-2.459h-1.449v-2.459h-1.45V643.631z M166.239,648.549h-1.449v2.459h1.449V648.549z M177.834,658.385h-1.449v2.459h1.449
				V658.385z M161.892,655.926h-0.869v4.918h0.869V655.926z"/>
			<path id="_x32_1" fill="#C8313E" d="M177.834,665.762h-1.449v-2.459h-1.45v-2.459h-1.449v-2.459h-1.449v-2.459h-1.449v-2.459
				h-1.449v2.459h-1.449v2.459h-1.45v2.459h-1.449v2.459h-1.449v2.459h-1.449v2.459h-0.869v9.836h0.869v2.459h1.449v2.459h1.449
				v2.459h1.449v2.459h1.45v2.459h1.449v6.394h2.898v-1.476h1.449v-2.459h1.449v-2.459h1.45v-2.459h1.449v-7.377h-1.449v2.459h-1.45
				v2.459h-1.449v2.459h-1.449v-2.459h-1.449v-2.459h-1.449v-2.459h-1.449v-2.459h-1.45v-2.459h-1.449v-2.459h1.449v-2.459h1.45
				v-2.459h4.348v2.459h-2.898v2.459h1.449v2.459h1.449v2.459h1.449v-2.459h1.449v-2.459h1.45v-2.459h1.449V665.762z
				 M177.834,675.598h-1.449v2.459h1.449V675.598z M161.892,682.975h-0.869v2.459h0.869V682.975z M164.79,687.893h-1.449v2.459
				h-1.449v2.459h-0.869v3.935h0.869v-1.476h1.449v-2.459h1.449V687.893z M167.689,695.27h-1.45v1.476h1.45V695.27z"/>
			<polygon id="_x32_0" fill="#FCFCFC" points="153.255,638.63 151.806,638.63 151.806,636.171 150.357,636.171 150.357,633.712 
				148.908,633.712 148.908,631.253 150.357,631.253 150.357,628.794 151.806,628.794 151.806,626.335 153.255,626.335 
				153.255,628.794 154.705,628.794 154.705,631.253 156.154,631.253 156.154,633.712 154.705,633.712 154.705,636.171 
				153.255,636.171 			"/>
			<polygon id="_x31_9" fill="#FCFCFC" points="170.652,638.63 169.203,638.63 169.203,636.171 167.754,636.171 167.754,633.712 
				166.304,633.712 166.304,631.253 167.754,631.253 167.754,628.794 169.203,628.794 169.203,626.335 170.652,626.335 
				170.652,628.794 172.102,628.794 172.102,631.253 173.551,631.253 173.551,633.712 172.102,633.712 172.102,636.171 
				170.652,636.171 			"/>
			<rect id="_x31_8" x="151.806" y="631.253" fill="#C8313E" width="1.449" height="2.459"/>
			<rect id="_x31_7" x="169.138" y="631.336" fill="#C8313E" width="1.449" height="2.459"/>
			<rect id="_x31_6" x="173.551" y="648.676" fill="#FFFFFF" width="1.449" height="2.459"/>
			<rect id="_x31_5" x="164.747" y="648.503" fill="#FFFFFF" width="1.449" height="2.459"/>
			<rect id="_x31_4" x="156.154" y="648.503" fill="#FFFDFD" width="1.449" height="2.459"/>
			<rect id="_x31_3" x="147.458" y="648.503" fill="#FFFFFF" width="1.449" height="2.459"/>
			<path id="_x31_2" fill="#C8313E" d="M150.297,771.5h4.348v-2.459h1.449v-2.459h1.449v-2.459h1.449v-2.459h1.45v-2.459h-1.45
				v-2.459h-1.449v-2.459h-1.449v-2.459h-1.449v-2.459h-1.449v-2.459h-1.449v2.459h-1.45v2.459h-1.449v2.459h-1.449v2.459h-1.449
				v2.459H144.5v2.459h1.449v2.459h1.449v2.459h1.449v2.459h1.449V771.5z M151.747,766.582h1.449v-2.459h1.449v-2.459h1.449v-2.459
				h-1.449v-2.459h-1.449v-2.459h-1.449v2.459h-1.45v2.459h-1.449v2.459h1.449v2.459h1.45V766.582z M151.747,761.664h1.449v-2.459
				h-1.449V761.664z M144.5,769.041h1.449v-2.459H144.5V769.041z M144.5,754.287h1.449v-2.459H144.5V754.287z M160.442,771.5h0.869
				v-4.918h-0.869V771.5z M160.442,754.287h0.869v-4.918h-0.869V754.287z M147.399,749.369h1.449v-2.459h1.449v-2.459h1.45v-2.459
				h-1.45v-2.459h-1.449v-2.459h-1.449v2.459h-1.449v2.459H144.5v2.459h1.449v2.459h1.449V749.369z M147.399,744.451h1.449v-2.459
				h-1.449V744.451z M156.094,749.369h1.449v-2.459h1.449v-2.459h1.45v-2.459h-1.45v-2.459h-1.449v-2.459h-1.449v2.459h-1.449v2.459
				h-1.449v2.459h1.449v2.459h1.449V749.369z M156.094,744.451h1.449v-2.459h-1.449V744.451z M144.5,734.615h1.449v-2.459H144.5
				V734.615z M160.442,737.074h0.869v-4.918h-0.869V737.074z"/>
			<path id="_x31_1" fill="#C8313E" d="M144.5,727.238h1.449v2.459h1.449v2.459h1.449v2.459h1.449v2.459h1.45v2.459h1.449v-2.459
				h1.449v-2.459h1.449v-2.459h1.449v-2.459h1.449v-2.459h1.45v-2.459h0.869v-9.836h-0.869v-2.459h-1.45v-2.459h-1.449v-2.459
				h-1.449v-2.459h-1.449v-2.459h-1.449v-6.394h-2.899v1.475h-1.449v2.459h-1.449v2.459h-1.449v2.459H144.5v7.377h1.449v-2.459
				h1.449v-2.459h1.449v-2.459h1.449v2.459h1.45v2.459h1.449v2.459h1.449v2.459h1.449v2.459h1.449v2.459h-1.449v2.459h-1.449v2.459
				h-4.348v-2.459h2.899v-2.459h-1.449v-2.459h-1.45v-2.459h-1.449v2.459h-1.449v2.459h-1.449v2.459H144.5V727.238z M144.5,717.401
				h1.449v-2.459H144.5V717.401z M160.442,710.024h0.869v-2.459h-0.869V710.024z M157.544,705.107h1.449v-2.459h1.45v-2.459h0.869
				v-3.934h-0.869v1.475h-1.45v2.459h-1.449V705.107z M154.645,697.729h1.449v-1.475h-1.449V697.729z"/>
			<path id="_x31_0" fill="#C8313E" d="M172.036,771.5h-4.348v-2.459h-1.45v-2.459h-1.449v-2.459h-1.449v-2.459h-1.449v-2.459h1.449
				v-2.459h1.449v-2.459h1.449v-2.459h1.45v-2.459h1.449v-2.459h1.449v2.459h1.449v2.459h1.449v2.459h1.449v2.459h1.45v2.459h1.449
				v2.459h-1.449v2.459h-1.45v2.459h-1.449v2.459h-1.449V771.5z M170.587,766.582h-1.449v-2.459h-1.449v-2.459h-1.45v-2.459h1.45
				v-2.459h1.449v-2.459h1.449v2.459h1.449v2.459h1.449v2.459h-1.449v2.459h-1.449V766.582z M170.587,761.664h-1.449v-2.459h1.449
				V761.664z M177.834,769.041h-1.449v-2.459h1.449V769.041z M177.834,754.287h-1.449v-2.459h1.449V754.287z M161.892,771.5h-0.869
				v-4.918h0.869V771.5z M161.892,754.287h-0.869v-4.918h0.869V754.287z M174.935,749.369h-1.449v-2.459h-1.449v-2.459h-1.449
				v-2.459h1.449v-2.459h1.449v-2.459h1.449v2.459h1.45v2.459h1.449v2.459h-1.449v2.459h-1.45V749.369z M174.935,744.451h-1.449
				v-2.459h1.449V744.451z M166.239,749.369h-1.449v-2.459h-1.449v-2.459h-1.449v-2.459h1.449v-2.459h1.449v-2.459h1.449v2.459h1.45
				v2.459h1.449v2.459h-1.449v2.459h-1.45V749.369z M166.239,744.451h-1.449v-2.459h1.449V744.451z M177.834,734.615h-1.449v-2.459
				h1.449V734.615z M161.892,737.074h-0.869v-4.918h0.869V737.074z"/>
			<path id="_x39_" fill="#C8313E" d="M177.834,727.238h-1.449v2.459h-1.45v2.459h-1.449v2.459h-1.449v2.459h-1.449v2.459h-1.449
				v-2.459h-1.449v-2.459h-1.45v-2.459h-1.449v-2.459h-1.449v-2.459h-1.449v-2.459h-0.869v-9.836h0.869v-2.459h1.449v-2.459h1.449
				v-2.459h1.449v-2.459h1.45v-2.459h1.449v-6.394h2.898v1.475h1.449v2.459h1.449v2.459h1.45v2.459h1.449v7.377h-1.449v-2.459h-1.45
				v-2.459h-1.449v-2.459h-1.449v2.459h-1.449v2.459h-1.449v2.459h-1.449v2.459h-1.45v2.459h-1.449v2.459h1.449v2.459h1.45v2.459
				h4.348v-2.459h-2.898v-2.459h1.449v-2.459h1.449v-2.459h1.449v2.459h1.449v2.459h1.45v2.459h1.449V727.238z M177.834,717.401
				h-1.449v-2.459h1.449V717.401z M161.892,710.024h-0.869v-2.459h0.869V710.024z M164.79,705.107h-1.449v-2.459h-1.449v-2.459
				h-0.869v-3.934h0.869v1.475h1.449v2.459h1.449V705.107z M167.689,697.729h-1.45v-1.475h1.45V697.729z"/>
			<polygon id="_x38_" fill="#FCFCFC" points="169.078,754.37 170.528,754.37 170.528,756.829 171.977,756.829 171.977,759.288 
				173.426,759.288 173.426,761.747 171.977,761.747 171.977,764.206 170.528,764.206 170.528,766.665 169.078,766.665 
				169.078,764.206 167.629,764.206 167.629,761.747 166.18,761.747 166.18,759.288 167.629,759.288 167.629,756.829 
				169.078,756.829 			"/>
			<polygon id="_x37_" fill="#FCFCFC" points="151.682,754.37 153.131,754.37 153.131,756.829 154.58,756.829 154.58,759.288 
				156.029,759.288 156.029,761.747 154.58,761.747 154.58,764.206 153.131,764.206 153.131,766.665 151.682,766.665 
				151.682,764.206 150.232,764.206 150.232,761.747 148.783,761.747 148.783,759.288 150.232,759.288 150.232,756.829 
				151.682,756.829 			"/>
			<rect id="_x36_" x="169.078" y="759.288" fill="#C8313E" width="1.449" height="2.459"/>
			<rect id="_x35_" x="151.747" y="759.205" fill="#C8313E" width="1.449" height="2.459"/>
			<rect id="_x34_" x="147.334" y="741.865" fill="#FFFFFF" width="1.449" height="2.459"/>
			<rect id="_x33_" x="156.138" y="742.038" fill="#FFFFFF" width="1.449" height="2.459"/>
			<rect id="_x32_" x="164.73" y="742.038" fill="#FFFDFD" width="1.449" height="2.459"/>
			<rect id="_x31_" x="173.426" y="742.038" fill="#FFFFFF" width="1.449" height="2.459"/>
		</g>
	</g>
</switch>
</svg>