<?xml version="1.0" encoding="utf-8"?>
<svg version="1.1" id="Countryflags.com" width = "100%" height = "100%"
	 xmlns="http://www.w3.org/2000/svg" xmlns:xlink="http://www.w3.org/1999/xlink" x="0px" y="0px" viewBox="94.5 636.5 300 180"
	 enable-background="new 94.5 636.5 300 180" xml:space="preserve">
<switch>
	<g>
		<g>
			<path id="_x31_0" fill="#CE1126" d="M94.5,636.5h300l-300,180h300L94.5,636.5z"/>
			<path id="_x39_" fill="#1EB53A" d="M94.5,636.5v180l300-180v180L94.5,636.5z"/>
			<g id="_x38_">
				<defs>
					<rect id="SVGID_1_" x="94.5" y="636.5" width="300" height="180"/>
				</defs>
				<clipPath id="SVGID_2_">
					<use xlink:href="#SVGID_1_"  overflow="visible"/>
				</clipPath>
				<path clip-path="url(#SVGID_2_)" stroke="#FFFFFF" stroke-width="22.5" d="M94.5,636.5l300,180 M394.5,636.5l-300,180"/>
			</g>
			<circle id="_x37_" fill="#FFFFFF" cx="244.5" cy="726.5" r="51"/>
			<polygon id="_x36_" fill="#1EB53A" points="234.108,694.1 237.572,700.1 234.108,706.1 241.036,706.1 244.5,712.1 247.964,706.1 
				254.892,706.1 251.428,700.1 254.892,694.1 247.964,694.1 244.5,688.1 241.036,694.1 			"/>
			<polygon id="_x35_" fill="#CE1126" points="235.979,695.18 238.819,700.1 235.979,705.02 241.66,705.02 244.5,709.94 
				247.341,705.02 253.022,705.02 250.181,700.1 253.022,695.18 247.341,695.18 244.5,690.26 241.66,695.18 			"/>
			<polygon id="_x34_" fill="#1EB53A" points="211.233,733.475 214.697,739.475 211.233,745.475 218.161,745.475 221.625,751.475 
				225.089,745.475 232.017,745.475 228.553,739.475 232.017,733.475 225.089,733.475 221.625,727.475 218.161,733.475 			"/>
			<polygon id="_x33_" fill="#CE1126" points="213.104,734.555 215.944,739.475 213.104,744.395 218.785,744.395 221.625,749.315 
				224.466,744.395 230.147,744.395 227.306,739.475 230.147,734.555 224.466,734.555 221.625,729.635 218.785,734.555 			"/>
			<polygon id="_x32_" fill="#1EB53A" points="257.184,733.731 260.648,739.731 257.184,745.731 264.113,745.731 267.577,751.731 
				271.041,745.731 277.969,745.731 274.505,739.73 277.969,733.731 271.041,733.731 267.577,727.731 264.113,733.731 			"/>
			<polygon id="_x31_" fill="#CE1126" points="259.055,734.811 261.896,739.731 259.055,744.651 264.736,744.651 267.577,749.57 
				270.417,744.651 276.098,744.651 273.258,739.731 276.098,734.811 270.417,734.811 267.577,729.891 264.736,734.81 			"/>
		</g>
	</g>
</switch>
</svg>