<?xml version="1.0" encoding="utf-8"?>
<svg version="1.1" id="Countryflags.com" width = "100%" height = "100%"
	 xmlns="http://www.w3.org/2000/svg" xmlns:xlink="http://www.w3.org/1999/xlink" x="0px" y="0px" viewBox="-5.5 509 300 225"
	 enable-background="new -5.5 509 300 225" xml:space="preserve">
<switch>
	<g>
		<g>
			<rect id="_x38_" x="-5.5" y="509" width="300" height="225"/>
			<path id="_x37_" fill="#CE1126" d="M-5.5,509h300v225L-5.5,509z"/>
			<path id="_x36_" fill="#FCD116" d="M180.236,574.372c-2.216,2.862-7.459-2.879-13.74-3.01c-6.281-0.131-10.73,6.02-12.563,8.113
				c-1.832,2.094-7.72,13.086-7.589,14.264c0.13,1.178,3.664-3.271,4.973-4.057c0.131,1.57-1.439,3.402-1.047,3.926
				c0.393,0.523,4.58-3.141,6.019-3.271c0.393,1.047-0.785,2.094-0.393,3.664c0.524,0.523,2.879-2.617,4.45-3.271
				c0.261,1.178-1.439,3.403-0.524,4.842c0.655,0.131,4.58-4.449,5.889-4.973c1.309-0.524-0.654,4.318,0,4.711
				c1.178-0.785,4.842-4.973,6.02-5.496c1.178-0.523-0.131,5.365,0.393,5.365c1.439-1.047,5.104-6.02,5.496-6.805
				c0.393-0.785-0.393,7.59,3.664,12.04c4.056,4.449,10.207,9.552,10.861,9.552c0.785-1.439-0.262-4.449,0.393-4.318
				c1.832,1.963,5.234,4.842,6.02,4.842c0.785,0-0.524-3.141,0.523-3.141c2.094,1.963,8.114,9.684,19.891,13.217
				c-0.785-2.225-2.487-4.188-2.618-5.234c0.785,0.13,3.534,1.439,4.057,1.308c0.523-0.131-5.758-7.852-5.366-8.898
				c1.44-0.131,2.094,0.785,2.618,0.131c-0.654-1.047-6.15-7.197-6.15-8.637s1.701,0.262,2.225,0
				c0.523-0.262-2.094-5.758-1.57-6.412c0.523-0.654,6.281,3.533,7.72,3.533c1.44,0,0.393-5.104,1.047-5.365
				c0.654-0.262,5.496,2.748,6.543,2.748c1.046,0,0.916-2.225,1.309-1.963c0.393,0.262,11.777,11.646,7.852,24.994
				c-3.926,9.553-11.777,14.657-23.293,10.469c0.654,1.047,6.804,6.151,13.479,4.318c6.674-1.832,14.787-7.066,13.871-20.152
				c-0.916-13.086-5.234-14.918-5.889-16.881c-0.654-1.963,1.047,0.523,2.487,1.047c1.439,0.523-0.262-2.749-0.654-4.188
				c-0.393-1.439,4.318,3.01,5.496,3.402c1.178,0.393-2.748-10.73-3.926-11.516c-1.178-0.785,1.178,0.262,1.962,0.523
				c0.786,0.262-7.197-12.17-8.898-12.17c-1.701,0,1.439-0.654,2.355-0.654c0.916,0-9.16-8.113-10.861-8.113
				c-1.702,0,3.664-2.094,4.187-2.225c0.917,0.131-11.646-6.674-22.9,0.131c-0.655-0.523,5.3-4.645,5.496-6.412
				c0.065-0.458-1.963-1.439-2.094-1.963c-0.131-0.523,3.141-2.094,3.271-3.271c-0.785-1.047-2.225-0.654-3.01-0.916
				c-0.196-0.981,2.749-3.403,2.487-4.449c-0.196-0.589-2.356-0.785-2.879-0.393c-0.523,0.393,1.374-2.748,1.047-3.664
				c-0.262-0.393-1.309-0.131-2.355,0.131c-0.655-0.131,3.402-5.758,2.617-6.543c-0.785-0.785-11.778,5.757-15.834,13.085
				c-4.056,7.329-0.916,13.217-1.439,15.703c-0.524,2.486-1.178,4.973-2.879,4.973c-1.701,0-5.626-2.618-6.935-3.926
				c-1.309-1.309-1.57-2.225-3.402-2.748c-1.833-0.523-6.02,1.047-7.59,1.178c-1.57,0.13-7.721-1.178-8.113-0.785
				c-0.393,0.393,6.019,2.748,7.459,3.533c1.439,0.785,1.57,1.832,2.617,2.486C173.562,567.437,183.377,570.316,180.236,574.372z
				 M218.578,592.823c3.141,3.141,24.34,17.273,24.34,34.547s-15.442,16.75-19.891,16.227c4.973,4.187,23.817,3.402,23.817-16.227
				c0-17.273-24.34-34.547-27.48-36.117C216.223,589.683,215.437,589.683,218.578,592.823z"/>
			<polygon id="_x35_" fill="#FFFFFF" points="103.875,619.547 107.156,630.812 118.491,630.812 109.542,637.698 112.824,648.65 
				103.875,641.765 94.926,648.337 98.208,637.698 89.259,630.812 100.296,630.812 			"/>
			<polygon id="_x34_" fill="#FFFFFF" points="69.663,682.047 72.945,693.312 84.28,693.312 75.331,700.198 78.612,711.15 
				69.663,704.265 60.715,710.837 63.996,700.198 55.047,693.312 66.084,693.312 			"/>
			<polygon id="_x33_" fill="#FFFFFF" points="85.011,658.12 86.652,663.753 92.32,663.753 87.845,667.196 89.486,672.672 
				85.011,669.229 80.537,672.515 82.177,667.196 77.703,663.753 83.221,663.753 			"/>
			<polygon id="_x32_" fill="#FFFFFF" points="69.663,578.725 72.945,589.99 84.28,589.99 75.331,596.876 78.612,607.828 
				69.663,600.943 60.715,607.515 63.996,596.876 55.047,589.99 66.084,589.99 			"/>
			<polygon id="_x31_" fill="#FFFFFF" points="35.288,622.672 38.57,633.937 49.905,633.937 40.956,640.823 44.237,651.775 
				35.288,644.89 26.34,651.462 29.621,640.823 20.672,633.937 31.709,633.937 			"/>
		</g>
	</g>
</switch>
</svg>