<?xml version="1.0" encoding="utf-8"?>
<svg version="1.1" id="Countryflags.com" width = "100%" height = "100%"
	 xmlns="http://www.w3.org/2000/svg" xmlns:xlink="http://www.w3.org/1999/xlink" x="0px" y="0px" viewBox="234.5 756.5 300 200"
	 enable-background="new 234.5 756.5 300 200" xml:space="preserve">
<switch>
	<g>
		<g>
			<rect id="_x38_" x="234.5" y="756.5" fill="#00A1DE" width="300" height="100"/>
			<rect id="_x37_" x="234.5" y="856.5" fill="#FAD201" width="300" height="50"/>
			<rect id="_x36_" x="234.5" y="906.5" fill="#20603D" width="300" height="50"/>
			<path id="_x35_" fill="#E5BE01" d="M513,808.75l-22.336,1.305l21.237,7.042l-21.912-4.52l18.691,12.298l-19.996-10.037
				l14.871,16.717l-16.717-14.871l10.037,19.996l-12.298-18.69l4.52,21.912l-7.042-21.237L480.75,841l-0.278-32.528L513,808.75z"/>
			<path id="_x34_" fill="#E5BE01" d="M513,808.75l-22.336-1.305l21.237-7.042l-21.912,4.52l18.691-12.298l-19.996,10.037
				l14.871-16.717l-16.717,14.871l10.037-19.996l-12.298,18.691l4.52-21.912l-7.042,21.237L480.75,776.5l-0.278,32.528L513,808.75z"
				/>
			<path id="_x33_" fill="#E5BE01" d="M448.5,808.75l22.336,1.305l-21.237,7.042l21.912-4.52l-18.691,12.298l19.996-10.037
				l-14.871,16.717l16.717-14.871l-10.037,19.996l12.298-18.69l-4.52,21.912l7.042-21.237L480.75,841l0.278-32.528L448.5,808.75z"/>
			<path id="_x32_" fill="#E5BE01" d="M448.5,808.75l22.336-1.305l-21.237-7.042l21.912,4.52l-18.691-12.298l19.996,10.037
				l-14.871-16.717l16.717,14.871l-10.037-19.996l12.298,18.691l-4.52-21.912l7.042,21.237l1.305-22.336l0.278,32.528L448.5,808.75z
				"/>
			<circle id="_x31_" fill="#E5BE01" stroke="#00A1DE" stroke-width="0.9444" cx="480.75" cy="808.75" r="9.528"/>
		</g>
	</g>
</switch>
</svg>