<?xml version="1.0" encoding="utf-8"?>
<svg version="1.1" id="Countryflags.com" 
	 xmlns="http://www.w3.org/2000/svg" xmlns:xlink="http://www.w3.org/1999/xlink" x="0px" y="0px" viewBox="-5.5 571.5 300 150"
	 enable-background="new -5.5 571.5 300 150" xml:space="preserve">
<switch>
	<g>
		<title>Flag of Dominica</title>
		<g>
			<rect id="_x39_5" x="-5.5" y="571.5" fill="#006B3F" width="300" height="150"/>
			<rect id="_x39_4" x="-5.5" y="652.75" fill="#FFFFFF" width="300" height="12.5"/>
			<rect id="_x39_3" x="-5.5" y="640.25" width="300" height="12.5"/>
			<rect id="_x39_2" x="-5.5" y="627.75" fill="#FCD116" width="300" height="12.5"/>
			<rect id="_x39_1" x="125.75" y="571.5" fill="#FCD116" width="12.5" height="150"/>
			<rect id="_x39_0" x="138.25" y="571.5" width="12.5" height="150"/>
			<rect id="_x38_9" x="150.75" y="571.5" fill="#FFFFFF" width="12.5" height="150"/>
			<path id="_x38_8" fill="#D41C30" d="M181.999,646.5c0.169,20.71-16.483,37.636-37.193,37.805
				c-20.71,0.169-37.636-16.483-37.805-37.193c-0.002-0.204-0.002-0.408,0-0.612c-0.169-20.71,16.483-37.636,37.193-37.805
				c20.71-0.169,37.636,16.483,37.805,37.193C182.001,646.091,182.001,646.295,181.999,646.5z"/>
			<path id="_x38_7" fill="#006B3F" stroke="#000000" stroke-width="0.5" d="M143.298,616.897c0-0.055,1.203-3.43,1.203-3.43
				l1.092,3.375c0,0,3.663,0.11,3.663,0.055s-2.898,2.213-2.898,2.213s1.367,3.872,1.313,3.762c-0.055-0.11-3.17-2.323-3.17-2.323
				s-3.17,2.212-3.115,2.212c0.055,0,1.203-3.652,1.203-3.652l-2.843-2.158L143.298,616.897z"/>
			<path id="_x38_6" fill="#006B3F" stroke="#000000" stroke-width="0.5" d="M145.702,676.188c0,0.055-1.202,3.43-1.202,3.43
				l-1.093-3.375c0,0-3.663-0.109-3.663-0.055s2.898-2.212,2.898-2.212s-1.368-3.873-1.313-3.763c0.055,0.11,3.17,2.325,3.17,2.325
				s3.17-2.215,3.115-2.215c-0.055,0-1.203,3.653-1.203,3.653l2.843,2.158L145.702,676.188z"/>
			<path id="_x38_5" fill="#006B3F" stroke="#000000" stroke-width="0.5" d="M161.93,625.365c0,0.055-1.203,3.43-1.203,3.43
				l-1.095-3.375c0,0-3.66-0.11-3.66-0.055s2.895-2.212,2.895-2.212s-1.365-3.873-1.31-3.763c0.053,0.11,3.17,2.323,3.17,2.323
				s3.17-2.212,3.115-2.212c-0.055,0-1.203,3.653-1.203,3.653l2.843,2.157L161.93,625.365z"/>
			<path id="_x38_4" fill="#006B3F" stroke="#000000" stroke-width="0.5" d="M172.452,656.127c0,0.055-1.202,3.43-1.202,3.43
				l-1.093-3.375c0,0-3.663-0.11-3.663-0.055s2.897-2.212,2.897-2.212s-1.367-3.873-1.313-3.763c0.055,0.11,3.17,2.323,3.17,2.323
				s3.17-2.212,3.115-2.212c-0.052,0-1.203,3.652-1.203,3.652l2.843,2.157L172.452,656.127z"/>
			<path id="_x38_3" fill="#006B3F" stroke="#000000" stroke-width="0.5" d="M118.947,657.008c0,0.055-1.202,3.427-1.202,3.427
				l-1.093-3.373c0,0-3.663-0.112-3.663-0.055c0,0.055,2.897-2.215,2.897-2.215s-1.367-3.873-1.313-3.76
				c0.055,0.11,3.17,2.323,3.17,2.323s3.17-2.212,3.115-2.212c-0.055,0-1.203,3.65-1.203,3.65l2.843,2.158L118.947,657.008z"/>
			<path id="_x38_2" fill="#006B3F" stroke="#000000" stroke-width="0.5" d="M128.663,625.725c0,0.055-1.203,3.43-1.203,3.43
				l-1.095-3.375c0,0-3.66-0.11-3.66-0.055c0,0.055,2.895-2.213,2.895-2.213s-1.365-3.873-1.31-3.762
				c0.052,0.11,3.17,2.323,3.17,2.323s3.17-2.212,3.115-2.212c-0.055,0-1.202,3.652-1.202,3.652l2.842,2.157L128.663,625.725z"/>
			<path id="_x38_1" fill="#006B3F" stroke="#000000" stroke-width="0.5" d="M116.33,636.965c0-0.055,1.202-3.43,1.202-3.43
				l1.093,3.375c0,0,3.663,0.11,3.663,0.055c0-0.055-2.898,2.212-2.898,2.212s1.368,3.873,1.313,3.762
				c-0.055-0.11-3.17-2.323-3.17-2.323s-3.17,2.213-3.115,2.213c0.052,0,1.203-3.653,1.203-3.653l-2.843-2.157L116.33,636.965z"/>
			<path id="_x38_0" fill="#006B3F" stroke="#000000" stroke-width="0.5" d="M126.785,667.673c0-0.058,1.203-3.431,1.203-3.431
				l1.093,3.373c0,0,3.662,0.112,3.662,0.058c0-0.058-2.895,2.212-2.895,2.212s1.365,3.873,1.31,3.76
				c-0.055-0.11-3.17-2.323-3.17-2.323s-3.17,2.213-3.115,2.213c0.055,0,1.202-3.65,1.202-3.65l-2.842-2.157L126.785,667.673z"/>
			<path id="_x37_9" fill="#006B3F" stroke="#000000" stroke-width="0.5" d="M169.858,636.147c0-0.057,1.202-3.43,1.202-3.43
				l1.093,3.373c0,0,3.663,0.112,3.663,0.057c0-0.057-2.897,2.213-2.897,2.213s1.367,3.872,1.313,3.76
				c-0.055-0.11-3.17-2.322-3.17-2.322s-3.17,2.212-3.115,2.212c0.055,0,1.203-3.65,1.203-3.65l-2.843-2.158L169.858,636.147z"/>
			<path id="_x37_8" fill="#006B3F" stroke="#000000" stroke-width="0.5" d="M160.113,667.383c0-0.056,1.203-3.431,1.203-3.431
				l1.092,3.375c0,0,3.663,0.11,3.663,0.056c0-0.056-2.897,2.212-2.897,2.212s1.367,3.873,1.313,3.763
				c-0.055-0.112-3.17-2.325-3.17-2.325s-3.17,2.213-3.115,2.213c0.055,0,1.203-3.65,1.203-3.65l-2.843-2.157L160.113,667.383z"/>
			<polygon id="_x37_7" fill="#009543" points="119.27,638.33 119.449,638.33 119.449,638.33 			"/>
			<polygon id="_x37_6" fill="#009543" points="151.55,661.055 151.729,661.055 151.729,661.055 			"/>
			<polygon id="_x37_5" fill="#009543" points="142.143,697.127 142.322,697.127 142.322,697.127 			"/>
			<polygon id="_x37_4" fill="#009543" points="97.01,697.127 97.189,697.127 97.189,697.127 			"/>
			<polygon id="_x37_3" fill="#009543" points="88.768,660.125 88.947,660.125 88.947,660.125 			"/>
			<polygon id="_x37_2" fill="#009543" points="187.642,593.024 187.464,593.024 187.464,593.024 			"/>
			<polygon id="_x37_1" fill="#009543" points="200.602,628.272 200.424,628.272 200.424,628.272 			"/>
			<polygon id="_x37_0" fill="#009543" points="168.463,654.06 168.283,654.06 168.283,654.06 			"/>
			<polygon id="_x36_9" fill="#009543" points="138.27,628.272 138.091,628.272 138.091,628.272 			"/>
			<polygon id="_x36_8" fill="#009543" points="149.412,593.542 149.234,593.542 149.234,593.542 			"/>
			<path id="_x36_7" fill="#006B3F" stroke="#000000" stroke-width="0.375" d="M148.853,645.397
				c1.231-0.128,2.583,4.702,3.017,10.789c0.435,6.087-0.211,11.126-1.442,11.254c-1.232,0.128-2.583-4.702-3.018-10.79
				C146.976,650.564,147.622,645.526,148.853,645.397z"/>
			<path id="_x36_6" fill="#006B3F" stroke="#000000" stroke-width="0.375" d="M151.049,645.374
				c1.303-0.135,2.713,4.689,3.15,10.776c0.438,6.087-0.264,11.131-1.566,11.267c-1.303,0.136-2.713-4.689-3.15-10.776
				C149.045,650.553,149.747,645.509,151.049,645.374z"/>
			<path id="_x36_5" fill="#006B3F" stroke="#000000" stroke-width="0.375" d="M149.95,644.802c1.043-0.11,2.267,5.256,2.736,11.985
				c0.469,6.729,0.004,12.273-1.038,12.384c-1.042,0.11-2.267-5.256-2.736-11.985C148.444,650.456,148.908,644.912,149.95,644.802z"
				/>
			<path id="_x36_4" fill="#9C4A00" stroke="#000000" stroke-width="0.375" d="M133.447,662.141c1.914-0.08,1.083-1.104,2.05-1.649
				c0.966-0.544,2.341-0.184,2.754,0.497c0.413,0.681,0.082,1.349,0.612,1.358c0.532,0.01,14.982-0.597,15.502-0.026
				c0.521,0.57,0.607,1.694,0.067,2.131c-0.54,0.442-18.809,0.646-19.438,0.184C134.366,664.181,133.445,662.254,133.447,662.141z"
				/>
			<path id="_x36_3" fill="#FCD116" stroke="#000000" stroke-width="0.375" d="M143.656,663.549
				c-0.035,1.444,2.101,1.035,2.13,2.241c-0.064,1.278-3.581,0.078-3.615-2.26c0.146-2.336,3.588-3.491,3.631-2.156
				C145.834,662.481,143.691,662.104,143.656,663.549z"/>
			<path id="_x36_2" fill="#FCD116" stroke="#000000" stroke-width="0.375" d="M144.916,663.565
				c-0.035,1.444,2.101,1.035,2.13,2.241c-0.064,1.278-3.581,0.078-3.615-2.26c0.146-2.336,3.588-3.491,3.631-2.156
				C147.094,662.498,144.95,662.121,144.916,663.565z"/>
			<path id="_x36_1" fill="#FCD116" stroke="#000000" stroke-width="0.375" d="M146.268,663.515
				c-0.035,1.443,2.101,1.035,2.13,2.241c-0.064,1.278-3.582,0.078-3.615-2.26c0.146-2.336,3.588-3.491,3.631-2.156
				C148.446,662.447,146.302,662.07,146.268,663.515z"/>
			<path id="_x36_0" fill="#FCD116" stroke="#000000" stroke-width="0.375" d="M147.528,663.531
				c-0.035,1.443,2.101,1.035,2.13,2.241c-0.064,1.278-3.581,0.078-3.615-2.26c0.146-2.336,3.588-3.491,3.631-2.156
				C149.706,662.464,147.563,662.087,147.528,663.531z"/>
			<path id="_x35_9" fill="#9C4A00" stroke="#000000" stroke-width="0.375" d="M153.565,662.11c0.673,0.01,1.207,0.573,1.193,1.256
				c-0.015,0.683-0.572,1.229-1.245,1.219c-0.673-0.011-1.208-0.573-1.193-1.256C152.334,662.646,152.892,662.1,153.565,662.11z"/>
			<path id="_x35_8" fill="#006B3F" stroke="#000000" stroke-width="0.375" d="M145.96,656.819c0.596-0.09,1.193,0.905,1.335,2.223
				c0.141,1.317-0.229,2.458-0.824,2.548c-0.596,0.09-1.194-0.905-1.334-2.223C144.995,658.05,145.364,656.909,145.96,656.819z"/>
			<path id="_x35_7" fill="#006B3F" stroke="#000000" stroke-width="0.375" d="M144.121,656.675c0.596-0.09,1.194,0.904,1.335,2.222
				c0.141,1.317-0.228,2.458-0.824,2.548c-0.596,0.09-1.193-0.905-1.334-2.222C143.156,657.905,143.525,656.765,144.121,656.675z"/>
			<path id="_x35_6" fill="#006B3F" stroke="#000000" stroke-width="0.375" d="M142.804,654.32c0.596-0.09,1.193,0.905,1.335,2.222
				c0.141,1.317-0.229,2.458-0.825,2.548c-0.596,0.09-1.193-0.905-1.334-2.222C141.839,655.551,142.208,654.41,142.804,654.32z"/>
			<path id="_x35_5" fill="#006B3F" stroke="#000000" stroke-width="0.375" d="M144.644,653.972
				c0.573-0.091,1.163,1.014,1.317,2.467c0.155,1.453-0.185,2.705-0.758,2.796c-0.573,0.09-1.163-1.014-1.317-2.468
				C143.731,655.313,144.071,654.063,144.644,653.972z"/>
			<path id="_x35_4" fill="#009543" stroke="#000000" stroke-width="0.375" d="M147.232,654.159
				c0.573-0.089,1.156,0.944,1.301,2.307c0.145,1.362-0.202,2.539-0.775,2.627c-0.573,0.088-1.156-0.944-1.301-2.307
				C146.312,655.424,146.659,654.248,147.232,654.159z"/>
			<path id="_x35_3" fill="#009543" stroke="#000000" stroke-width="0.375" d="M145.819,653.308
				c0.573-0.089,1.156,0.944,1.301,2.307c0.146,1.362-0.202,2.539-0.775,2.627c-0.573,0.088-1.156-0.944-1.301-2.307
				C144.899,654.572,145.246,653.396,145.819,653.308z"/>
			<path id="_x35_2" fill="#009543" stroke="#000000" stroke-width="0.375" d="M144.035,652.079
				c0.574-0.088,1.156,0.944,1.301,2.307c0.145,1.363-0.202,2.539-0.775,2.627c-0.574,0.089-1.156-0.944-1.301-2.307
				C143.115,653.344,143.462,652.167,144.035,652.079z"/>
			<path id="_x35_1" fill="#006B3F" stroke="#000000" stroke-width="0.375" d="M142.385,651.334
				c0.573-0.089,1.156,0.944,1.301,2.307c0.146,1.363-0.202,2.539-0.775,2.628c-0.573,0.088-1.156-0.944-1.301-2.307
				C141.464,652.599,141.811,651.423,142.385,651.334z"/>
			<path id="_x35_0" fill="#9461C9" stroke="#000000" stroke-width="0.375" d="M140.817,633.329c0,0-3.664,3.18-3.253,11.786
				c0.461,8.655,8.099,12.723,8.099,12.723s1.946-2.457,1.72-9.411c-0.546-10.167-4.152-14.659-4.152-14.659L140.817,633.329z"/>
			<path id="_x34_9" fill="#006B3F" stroke="#000000" stroke-width="0.375" d="M149.242,657.089
				c0.603,0.018,1.013,1.103,0.917,2.424c-0.096,1.321-0.663,2.378-1.265,2.36c-0.603-0.018-1.013-1.104-0.917-2.425
				C148.073,658.128,148.64,657.071,149.242,657.089z"/>
			<path id="_x34_8" fill="#006B3F" stroke="#000000" stroke-width="0.375" d="M147.458,656.619
				c0.603,0.018,1.013,1.103,0.917,2.424c-0.096,1.321-0.663,2.378-1.265,2.36c-0.603-0.018-1.013-1.103-0.917-2.424
				C146.289,657.658,146.856,656.602,147.458,656.619z"/>
			<path id="_x34_7" fill="#006B3F" stroke="#000000" stroke-width="0.375" d="M146.582,654.067
				c0.603,0.018,1.013,1.104,0.917,2.425c-0.096,1.321-0.663,2.378-1.265,2.36s-1.013-1.104-0.917-2.425
				C145.413,655.106,145.979,654.05,146.582,654.067z"/>
			<path id="_x34_6" fill="#006B3F" stroke="#000000" stroke-width="0.375" d="M148.454,654.053c0.58,0.013,0.964,1.205,0.856,2.662
				c-0.107,1.458-0.664,2.629-1.244,2.615c-0.58-0.013-0.963-1.205-0.856-2.662C147.317,655.21,147.874,654.04,148.454,654.053z"/>
			<path id="_x34_5" fill="#006B3F" stroke="#000000" stroke-width="0.375" d="M150.968,654.698c0.58,0.015,0.969,1.135,0.869,2.502
				c-0.1,1.366-0.651,2.462-1.231,2.447c-0.58-0.015-0.969-1.135-0.869-2.502C149.837,655.779,150.388,654.684,150.968,654.698z"/>
			<path id="_x34_4" fill="#006B3F" stroke="#000000" stroke-width="0.375" d="M149.729,653.608c0.58,0.015,0.969,1.135,0.869,2.502
				c-0.1,1.366-0.651,2.462-1.231,2.447c-0.58-0.015-0.969-1.135-0.869-2.502C148.598,654.689,149.15,653.594,149.729,653.608z"/>
			<path id="_x34_3" fill="#006B3F" stroke="#000000" stroke-width="0.375" d="M148.194,652.082c0.58,0.015,0.969,1.135,0.869,2.501
				c-0.1,1.367-0.651,2.462-1.231,2.447c-0.58-0.015-0.969-1.135-0.869-2.501C147.063,653.162,147.614,652.066,148.194,652.082z"/>
			<path id="_x34_2" fill="#006B3F" stroke="#000000" stroke-width="0.375" d="M146.701,651.055c0.58,0.015,0.969,1.135,0.869,2.501
				s-0.651,2.462-1.231,2.448c-0.58-0.016-0.969-1.135-0.869-2.502S146.121,651.04,146.701,651.055z"/>
			<path id="_x34_1" fill="#D41C30" stroke="#000000" stroke-width="0.375" d="M144.845,639.392
				c1.592-0.615,4.558,2.792,6.624,7.609c2.066,4.818,2.45,9.221,0.858,9.836c-1.592,0.615-4.558-2.792-6.624-7.609
				C143.637,644.411,143.254,640.007,144.845,639.392z"/>
			
				<ellipse id="_x34_0" transform="matrix(0.0176 -0.9998 0.9998 0.0176 -495.4686 774.11)" fill="#009543" stroke="#000000" stroke-width="0.375" cx="146.209" cy="639.198" rx="1.191" ry="1.348"/>
			
				<ellipse id="_x33_9" transform="matrix(0.0178 -0.9998 0.9998 0.0178 -492.8163 773.3477)" fill="#009543" stroke="#000000" stroke-width="0.375" cx="147.222" cy="637.515" rx="1.19" ry="1.208"/>
			
				<ellipse id="_x33_8" transform="matrix(0.0176 -0.9998 0.9998 0.0176 -494.3592 771.8246)" fill="#009543" stroke="#000000" stroke-width="0.375" cx="145.593" cy="637.486" rx="1.19" ry="1.208"/>
			
				<ellipse id="_x33_7" transform="matrix(0.0177 -0.9998 0.9998 0.0177 -492.7835 770.9257)" fill="#006B3F" stroke="#000000" stroke-width="0.375" cx="145.952" cy="636.253" rx="1.118" ry="1.264"/>
			
				<ellipse id="_x33_6" transform="matrix(0.0177 -0.9998 0.9998 0.0177 -491.5161 769.3796)" fill="#006B3F" stroke="#000000" stroke-width="0.375" cx="145.809" cy="634.841" rx="1.118" ry="1.264"/>
			
				<ellipse id="_x33_5" transform="matrix(0.0178 -0.9998 0.9998 0.0178 -494.9649 769.2012)" fill="#006B3F" stroke="#000000" stroke-width="0.375" cx="144.037" cy="636.535" rx="1.191" ry="1.208"/>
			
				<ellipse id="_x33_4" transform="matrix(0.0178 -0.9998 0.9998 0.0178 -493.0784 768.0897)" fill="#006B3F" stroke="#000000" stroke-width="0.375" cx="144.401" cy="635.01" rx="1.166" ry="1.208"/>
			
				<ellipse id="_x33_3" transform="matrix(0.0178 -0.9998 0.9998 0.0178 -495.0803 766.1098)" fill="#006B3F" stroke="#000000" stroke-width="0.375" cx="142.405" cy="635.048" rx="1.191" ry="1.348"/>
			
				<ellipse id="_x33_2" transform="matrix(0.0177 -0.9998 0.9998 0.0177 -490.6545 766.7369)" fill="#006B3F" stroke="#000000" stroke-width="0.375" cx="144.885" cy="633.075" rx="1.118" ry="1.264"/>
			
				<ellipse id="_x33_1" transform="matrix(0.0178 -0.9998 0.9998 0.0178 -492.5401 765.1937)" fill="#006B3F" stroke="#000000" stroke-width="0.375" cx="143.195" cy="633.288" rx="1.166" ry="1.208"/>
			
				<ellipse id="_x33_0" transform="matrix(0.0176 -0.9998 0.9998 0.0176 -496.8612 764.5236)" fill="#006B3F" stroke="#000000" stroke-width="0.375" cx="140.634" cy="635.114" rx="1.191" ry="1.208"/>
			
				<ellipse id="_x32_9" transform="matrix(0.0178 -0.9998 0.9998 0.0178 -495.581 763.9719)" fill="#006B3F" stroke="#000000" stroke-width="0.375" cx="141.054" cy="634.225" rx="1.166" ry="1.208"/>
			
				<ellipse id="_x32_8" transform="matrix(0.0178 -0.9998 0.9998 0.0178 -494.0962 763.5223)" fill="#006B3F" stroke="#000000" stroke-width="0.375" cx="141.566" cy="633.244" rx="1.166" ry="1.208"/>
			<path id="_x32_7" fill="#006B3F" stroke="#000000" stroke-width="0.375" d="M145.022,636.251
				c2.043-0.721,5.696,3.344,8.162,9.081c2.465,5.736,2.809,10.97,0.766,11.692c-2.042,0.721-5.696-3.345-8.161-9.081
				C143.323,642.206,142.98,636.972,145.022,636.251z"/>
			<path id="_x32_6" fill="#006B3F" stroke="#000000" stroke-width="0.375" d="M151.744,646.29c0.378-0.18,1.118,0.642,1.651,1.836
				c0.533,1.194,0.659,2.308,0.281,2.488c-0.378,0.18-1.118-0.642-1.651-1.836C151.492,647.583,151.366,646.469,151.744,646.29z"/>
			<path id="_x32_5" fill="#006B3F" stroke="#000000" stroke-width="0.375" d="M152.365,648.45c3.203,3.899,2.798,6.375,2.464,8.471
				c-1.006-2.416-1.556-3.937-4.759-7.837c-3.203-3.9-1.605-6.637-1.384-8.079C149.168,642.253,149.162,644.55,152.365,648.45z"/>
			<path id="_x32_4" fill="#006B3F" stroke="#000000" stroke-width="0.375" d="M152.654,651.6c3.203,3.899,2.798,6.376,2.464,8.471
				c-1.006-2.416-1.556-3.937-4.759-7.837c-3.203-3.9-1.604-6.637-1.385-8.079C149.457,645.403,149.451,647.699,152.654,651.6z"/>
			<path id="_x32_3" fill="#006B3F" stroke="#000000" stroke-width="0.375" d="M152.75,654.137c3.28,3.83,2.925,6.314,2.633,8.416
				c-1.054-2.394-1.634-3.902-4.915-7.733c-3.281-3.832-1.737-6.602-1.546-8.048C149.43,648.009,149.47,650.305,152.75,654.137z"/>
			<path id="_x32_2" fill="#006B3F" stroke="#000000" stroke-width="0.375" d="M148.772,640.923
				c0.751-0.191,2.121,1.379,3.061,3.506c0.94,2.127,1.095,4.007,0.344,4.197c-0.75,0.191-2.121-1.379-3.061-3.506
				C148.176,642.993,148.022,641.114,148.772,640.923z"/>
			<path id="_x32_1" fill="#006B3F" stroke="#000000" stroke-width="0.375" d="M147.88,643.751c0.675-0.116,1.814,1.218,2.545,2.979
				c0.731,1.761,0.776,3.283,0.102,3.399c-0.675,0.116-1.814-1.218-2.545-2.979C147.251,645.389,147.205,643.867,147.88,643.751z"/>
			<path id="_x32_0" fill="#006B3F" stroke="#000000" stroke-width="0.375" d="M146.428,645.196
				c0.677-0.102,1.789,1.256,2.483,3.031c0.694,1.776,0.708,3.299,0.031,3.4c-0.677,0.102-1.789-1.256-2.483-3.032
				C145.765,646.82,145.751,645.298,146.428,645.196z"/>
			<path id="_x31_9" fill="#006B3F" stroke="#000000" stroke-width="0.375" d="M147.805,640.706c0.545-0.1,1.497,0.884,2.125,2.196
				c0.628,1.313,0.695,2.458,0.149,2.558c-0.545,0.1-1.497-0.883-2.125-2.196C147.327,641.951,147.26,640.806,147.805,640.706z"/>
			<path id="_x31_8" fill="#006B3F" stroke="#000000" stroke-width="0.375" d="M146.668,641.635c0.551-0.07,1.439,0.964,1.985,2.308
				c0.545,1.345,0.54,2.491-0.01,2.561c-0.551,0.07-1.439-0.964-1.985-2.308C146.113,642.852,146.117,641.705,146.668,641.635z"/>
			<path id="_x31_7" fill="#006B3F" stroke="#000000" stroke-width="0.375" d="M146.655,642.558c0.947,2.314,1.33,4.394,0.855,4.644
				c-0.475,0.25-1.628-1.425-2.575-3.739"/>
			<path id="_x31_6" fill="#006B3F" stroke="#000000" stroke-width="0.375" d="M146.512,638.917c0.551-0.07,1.439,0.964,1.985,2.308
				c0.545,1.345,0.541,2.491-0.01,2.561c-0.551,0.07-1.439-0.963-1.985-2.308C145.957,640.134,145.962,638.987,146.512,638.917z"/>
			<path id="_x31_5" fill="#006B3F" stroke="#000000" stroke-width="0.375" d="M144.982,639.662
				c0.552-0.059,1.417,0.991,1.933,2.346c0.515,1.355,0.485,2.501-0.067,2.561s-1.418-0.992-1.933-2.347
				C144.399,640.867,144.429,639.721,144.982,639.662z"/>
			<path id="_x31_4" fill="#006B3F" stroke="#000000" stroke-width="0.375" d="M145.007,639.416
				c0.919,1.563,1.415,3.023,1.104,3.259c-0.31,0.236-1.307-0.842-2.227-2.406"/>
			<path id="_x31_3" fill="#006B3F" stroke="#000000" stroke-width="0.375" d="M145.643,638.379
				c0.919,1.563,1.415,3.023,1.104,3.259c-0.31,0.236-1.307-0.842-2.227-2.406"/>
			<path id="_x31_2" fill="#006B3F" stroke="#000000" stroke-width="0.375" d="M148.503,638.598c1.281,2.135,1.971,4.13,1.539,4.453
				c-0.432,0.322-1.822-1.15-3.103-3.285"/>
			<path id="_x31_1" fill="#006B3F" stroke="#000000" stroke-width="0.375" d="M146.613,637.479
				c0.923,1.726,1.422,3.337,1.112,3.596c-0.309,0.259-1.309-0.932-2.232-2.658"/>
			<path id="_x31_0" fill="#9461C9" stroke="#000000" stroke-width="0.375" d="M146.531,634.979c-0.616,0.621-0.013,1.781,0.551,2.2
				c0.633,0.573,4.186,4.322,6.692,1.168C151.766,638.31,148.018,633.596,146.531,634.979L146.531,634.979z"/>
			<path id="_x39_" fill="#9461C9" stroke="#000000" stroke-width="0.375" d="M146.092,633.129c-0.616,0.621-0.013,1.781,0.552,2.2
				c0.632,0.574,4.186,4.322,6.692,1.168C151.327,636.46,147.579,631.746,146.092,633.129L146.092,633.129z"/>
			<path id="_x38_" fill="#9461C9" stroke="#000000" stroke-width="0.375" d="M145.53,631.356c-0.616,0.621-0.013,1.781,0.552,2.2
				c0.632,0.573,4.186,4.322,6.692,1.168C150.766,634.688,147.017,629.973,145.53,631.356z"/>
			<path id="_x37_" fill="#9461C9" stroke="#000000" stroke-width="0.375" d="M144.31,629.328c-0.616,0.621-0.013,1.781,0.551,2.2
				c0.633,0.574,4.186,4.322,6.692,1.168C149.546,632.66,145.797,627.946,144.31,629.328z"/>
			<path id="_x36_" fill="#9461C9" stroke="#000000" stroke-width="0.375" d="M139.932,627.388c1.27-0.945,3.603-1.221,5.42-0.296
				c1.514,0.742,4.037,3.768,5.934,4.484c-1.335,0.238-2.147,0.037-3.001-0.373c-1.685,1.22-2.285,1.403-4.002,1.643
				c-2.388,0.344-4.37-0.277-5.066-1.522C138.508,630.148,138.813,628.263,139.932,627.388z"/>
			
				<ellipse id="_x35_" transform="matrix(0.0177 -0.9998 0.9998 0.0177 -489.0716 760.7434)" fill="#D41C30" stroke="#000000" stroke-width="0.375" cx="142.626" cy="629.273" rx="0.634" ry="1.094"/>
			
				<ellipse id="_x34_" transform="matrix(-0.3476 -0.9376 0.9376 -0.3476 -404.7252 982.0841)" fill="#FCD116" stroke="#000000" stroke-width="0.375" cx="139.29" cy="631.84" rx="0.929" ry="1.525"/>
			
				<ellipse id="_x33_" transform="matrix(0.0179 -0.9998 0.9998 0.0179 -489.1156 760.4927)" cx="142.57" cy="629.23" rx="0.34" ry="0.393"/>
			<path id="_x32_" fill="#FCD116" stroke="#000000" stroke-width="0.375" d="M140.218,630.121c0.101,0.487-0.261,1.146-1.045,1.379
				c-0.799,0.331-1.405,1.081-1.754,2.307c-1.214-2.796-0.442-3.979,0.847-4.266C139.375,629.187,140.044,629.231,140.218,630.121z"
				/>
			
				<ellipse id="_x31_" transform="matrix(-0.0548 -0.9985 0.9985 -0.0548 -482.714 803.7355)" cx="139.047" cy="630.334" rx="0.285" ry="0.278"/>
		</g>
	</g>
</switch>
</svg>