<?xml version="1.0" encoding="utf-8"?>
<svg version="1.1" id="Countryflags.com" width = "100%" height = "100%"
	 xmlns="http://www.w3.org/2000/svg" xmlns:xlink="http://www.w3.org/1999/xlink" x="0px" y="0px"
	 viewBox="-50.499 546.5 299.999 176.47" enable-background="new -50.499 546.5 299.999 176.47" xml:space="preserve">
<switch>
	<g>
		<g>
			<rect id="_x31_3" x="-50.499" y="546.5" fill="#003893" width="300" height="176.471"/>
			<rect id="_x31_2" x="-50.499" y="634.735" fill="#FFFFFF" width="300" height="44.118"/>
			<rect id="_x31_1" x="-50.499" y="649.441" fill="#CE1126" width="300" height="14.706"/>
			<polygon id="_x31_0" fill="#FFCC00" points="53.609,609.95 58.795,613.718 56.814,619.815 62.001,616.047 67.187,619.815 
				65.206,613.718 70.392,609.95 63.982,609.95 62.001,603.853 60.02,609.95 			"/>
			<polygon id="_x39_" fill="#FFCC00" points="27.724,618.521 32.91,622.289 30.929,628.386 36.115,624.618 41.301,628.386 
				39.32,622.289 44.507,618.521 38.096,618.521 36.115,612.424 34.134,618.521 			"/>
			<polygon id="_x38_" fill="#FFCC00" points="79.307,618.254 84.493,622.022 82.511,628.119 87.698,624.351 92.884,628.119 
				90.903,622.022 96.09,618.254 89.679,618.254 87.698,612.157 85.717,618.254 			"/>
			<polygon id="_x37_" fill="#FFCC00" points="95.374,640.538 100.56,644.306 98.579,650.403 103.765,646.635 108.952,650.403 
				106.971,644.306 112.157,640.538 105.746,640.538 103.765,634.441 101.784,640.538 			"/>
			<polygon id="_x36_" fill="#FFCC00" points="95.374,667.597 100.56,671.365 98.579,677.462 103.765,673.694 108.952,677.462 
				106.971,671.365 112.157,667.597 105.746,667.597 103.765,661.5 101.784,667.597 			"/>
			<polygon id="_x35_" fill="#FFCC00" points="79.492,689.95 84.678,693.718 82.696,699.815 87.883,696.047 93.069,699.815 
				91.088,693.718 96.275,689.95 89.864,689.95 87.883,683.853 85.902,689.95 			"/>
			<polygon id="_x34_" fill="#FFCC00" points="53.623,698.192 58.809,701.96 56.828,708.057 62.014,704.289 67.2,708.057 
				65.22,701.96 70.406,698.192 63.995,698.192 62.014,692.095 60.033,698.192 			"/>
			<polygon id="_x33_" fill="#FFCC00" points="27.332,689.616 32.518,693.384 30.537,699.481 35.724,695.713 40.91,699.481 
				38.929,693.384 44.115,689.616 37.705,689.616 35.724,683.519 33.743,689.616 			"/>
			<polygon id="_x32_" fill="#FFCC00" points="11.784,667.464 16.97,671.232 14.988,677.329 20.175,673.561 25.361,677.329 
				23.38,671.232 28.567,667.464 22.156,667.464 20.175,661.367 18.194,667.464 			"/>
			<polygon id="_x31_" fill="#FFCC00" points="11.853,640.284 17.039,644.052 15.058,650.149 20.245,646.381 25.431,650.149 
				23.45,644.052 28.636,640.284 22.225,640.284 20.245,634.187 18.263,640.284 			"/>
		</g>
	</g>
</switch>
</svg>