<?xml version="1.0" encoding="utf-8"?>
<svg version="1.1" id="Countryflags.com" width = "100%" height = "100%"
	 xmlns="http://www.w3.org/2000/svg" xmlns:xlink="http://www.w3.org/1999/xlink" x="0px" y="0px" viewBox="-55.5 546.5 300 180"
	 enable-background="new -55.5 546.5 300 180" xml:space="preserve">
<switch>
	<g>
		<g>
			<rect id="_x31_1" x="-55.5" y="546.5" fill="#FFC61E" width="300" height="180"/>
			<rect id="_x31_0" x="-55.5" y="591.5" fill="#FFFFFF" width="300" height="135"/>
			<rect id="_x39_" x="-55.5" y="636.5" fill="#CE1126" width="300" height="90"/>
			<rect id="_x38_" x="-55.5" y="681.5" fill="#3A75C4" width="300" height="45"/>
			<path id="_x37_" fill="#3D8E33" d="M-55.5,726.5l150-90l-150-90V726.5z"/>
			<circle id="_x36_" fill="#FFFFFF" cx="-4.5" cy="636.5" r="40.5"/>
			<circle id="_x35_" fill="#3D8E33" cx="13.5" cy="636.5" r="40.5"/>
			<path id="_x34_" fill="#FFFFFF" d="M-2.632,605.195h5.449l1.683-5.183l1.683,5.183h5.449l-4.408,3.202l1.683,5.182L4.5,610.377
				l-4.408,3.202l1.683-5.182L-2.632,605.195z"/>
			<path id="_x33_" fill="#FFFFFF" d="M-2.632,624.52h5.449l1.683-5.182l1.683,5.182h5.449l-4.408,3.202l1.683,5.183L4.5,629.703
				l-4.408,3.202l1.683-5.183L-2.632,624.52z"/>
			<path id="_x32_" fill="#FFFFFF" d="M-2.632,643.845h5.449l1.683-5.183l1.683,5.183h5.449l-4.408,3.202l1.683,5.183L4.5,649.027
				l-4.408,3.203l1.683-5.183L-2.632,643.845z"/>
			<path id="_x31_" fill="#FFFFFF" d="M-2.632,663.17h5.449l1.683-5.183l1.683,5.183h5.449l-4.408,3.202l1.683,5.183L4.5,668.353
				l-4.408,3.202l1.683-5.183L-2.632,663.17z"/>
		</g>
	</g>
</switch>
</svg>