<?xml version="1.0" encoding="utf-8"?>
<svg version="1.1" id="Countryflags.com" width = "100%" height = "100%"
	 xmlns="http://www.w3.org/2000/svg" xmlns:xlink="http://www.w3.org/1999/xlink" x="0px" y="0px" viewBox="294.5 696.5 300 150"
	 enable-background="new 294.5 696.5 300 150" xml:space="preserve">
<switch>
	<g>
		<g>
			<rect id="_x36_" x="294.5" y="696.5" fill="#DA121A" width="300" height="150"/>
			<rect id="_x35_" x="294.5" y="696.5" fill="#FCDD09" width="300" height="100"/>
			<rect id="_x34_" x="294.5" y="696.5" fill="#078930" width="300" height="50"/>
			<circle id="_x33_" fill="#0F47AF" cx="444.5" cy="771.5" r="50"/>
			<path id="_x32_" fill="#FCDD09" d="M406.458,758.984h29.062l6.571-20.223l1.752,5.394l-9.549,29.389l-2.835-2.06l2.978-9.166
				h-23.391L406.458,758.984 M420.989,803.705l8.98-27.639l-17.203-12.499h5.671l25,18.163l-2.835,2.06l-7.796-5.665l-7.228,22.246
				L420.989,803.705 M468.011,803.705L444.5,786.623l-17.203,12.499l1.752-5.393l25-18.163l1.083,3.333l-7.796,5.664l18.923,13.749
				L468.011,803.705 M482.542,758.984l-23.511,17.082l6.571,20.223l-4.588-3.333l-9.549-29.389h3.505l2.978,9.166l18.923-13.749
				H482.542 M444.5,731.344l8.98,27.639h21.264l-4.588,3.333h-30.901l1.083-3.333h9.637l-7.228-22.246L444.5,731.344L444.5,731.344z
				"/>
			<path id="_x31_" stroke="#FCDD09" stroke-width="1.6667" d="M444.5,789.833V811.5 M427.064,777.165l-20.606,6.695
				 M433.724,756.668l-12.735-17.529 M455.276,756.668l12.735-17.529 M461.936,777.165l20.606,6.695L461.936,777.165z"/>
		</g>
	</g>
</switch>
</svg>